<?xml version="1.0" encoding="utf-8"?>
<!-- Generator: Adobe Illustrator 17.0.0, SVG Export Plug-In . SVG Version: 6.00 Build 0)  -->
<!DOCTYPE svg PUBLIC "-//W3C//DTD SVG 1.1//EN" "http://www.w3.org/Graphics/SVG/1.1/DTD/svg11.dtd">
<svg version="1.1" id="Layer_1" xmlns="http://www.w3.org/2000/svg" xmlns:xlink="http://www.w3.org/1999/xlink" x="0px" y="0px"
	 width="960px" height="25.396px" viewBox="0 0 960 25.396" enable-background="new 0 0 960 25.396" xml:space="preserve">
<g>
	<line fill="none" stroke="#FFFFFF" stroke-miterlimit="10" x1="0" y1="24.396" x2="960" y2="24.396"/>
	<path fill="#FFFFFF" d="M480.571,25.362c-10.622,0-19.184-4.769-21.243-5.744c-2.06,1.409-5.853,2.384-9.213,2.384
		c-1.734,0-6.503-0.758-11.272-1.625c-4.877-0.759-9.863-1.517-12.031-1.517c-9.321,0-14.198,5.527-15.173,5.744v-0.218
		c0-4.769,4.444-5.527,5.527-4.769v-1.083c-0.325,0-1.083-0.218-1.083-0.976c0-1.301,1.409-2.384,2.601-2.384h1.301h0.975
		c-0.325-0.434-1.517-0.976-1.517-1.734c0-1.085,1.517-1.735,2.601-1.735c1.3,0,7.803,4.552,10.297,4.552
		c0.975,0,1.3-0.542,1.3-1.517c0-1.083-2.059-1.3-2.71-1.3c-3.36,0-5.961-1.735-5.961-2.71c0-0.759,0.759-1.41,1.842-1.843
		c-0.325-0.976-1.842-1.301-1.842-3.035c0-1.301,2.601-1.301,2.818-1.301c0-1.409,0.325-3.469,0.325-3.469h0.759
		c5.094,9.647,11.922,17.451,22.218,17.451c2.385,0,4.444-0.218,5.203-0.976c-2.384-1.085-10.947-6.828-12.03-7.262
		c-0.217,1.083-0.976,2.059-2.385,2.059c-2.059,0-6.178-7.153-7.261-8.887c11.705-0.325,12.03,1.083,12.03,2.384
		c0,0.758-0.325,2.059-1.084,2.275c3.468,3.251,11.705,8.345,12.789,9.104c1.409-0.759,3.035-2.493,3.468-3.576
		c-1.084,0-2.492,0.542-3.902,0.542c-0.867,0-1.626-0.758-1.626-1.409c0-1.085,0.975-2.059,2.384-2.059h4.119
		c0-3.903-0.759-8.238-6.828-8.238c-0.433,0-0.975,0.651-0.975,0.651c0.542,0.325,0.975,1.409,0.975,2.384
		c0,2.059-2.059,2.601-3.576,2.601c-1.301,0-2.71-0.542-2.71-2.926c0-2.059,1.842-5.203,6.286-5.203
		c8.562,0,9.538,7.587,9.538,8.129c0,0.759,0,1.843-0.325,2.602h3.468c0.217-2.818,1.734-5.203,3.793-7.262
		c2.384-1.626,5.419-2.71,8.129-2.71V25.362z M464.53,13.657c-0.433,1.517-2.492,3.576-3.143,4.66
		c7.262,3.685,10.622,4.011,12.139,4.011v-0.651c-3.144-1.083-4.877-4.118-5.528-8.02H464.53z M470.166,11.705
		c-0.217,0.651-0.542,0.651-1.3,0.867v0.218c0.758,0,0.758,0.651,0.758,1.409h0.217c0.108-0.542,0.542-0.758,1.084-0.758
		c0-0.651-0.542-1.085-0.542-1.735H470.166z M472.009,11.38c0,0.325,0,0.976,0.433,1.41c0.325,0,5.419-0.434,5.853-1.085
		c0.217-0.974-3.251-4.877-3.468-4.877c-1.084-0.216-1.084,0-1.3,0.759v2.384C472.768,9.971,472.009,11.38,472.009,11.38z
		 M473.526,18.859c0.216,0.758,0.216,0.974,1.3,0.758c0.217,0,3.685-3.902,3.468-4.877c-0.433-0.542-5.527-1.083-5.853-1.083
		c-0.433,0.542-0.433,1.083-0.433,1.517c0,0,0.759,1.3,1.517,1.3V18.859z M475.044,3.469h-0.217c0,0.649-0.433,1.083-0.433,1.734
		c0.433,0,0.651,0.325,0.651,0.325c0.759,0,0.759-0.325,1.192-0.976C475.803,4.118,475.044,4.118,475.044,3.469z M474.393,21.026
		c0.433,0.651,0.433,0.976,0.651,1.301c0.759-0.325,1.192-0.325,1.842-0.325v-0.216c-0.65-0.109-0.65-0.759-1.083-1.192
		C475.044,20.593,474.827,21.026,474.393,21.026z M483.389,5.853c0-0.651,0-0.651-0.325-0.651c-0.433,0-2.167,0.325-2.492,0.651
		c-0.217-0.325-2.059-0.651-2.276-0.651c-0.433,0-1.084,0-1.084,0.651c0,0.758,2.384,4.877,3.36,4.877
		C481.655,10.731,483.389,6.611,483.389,5.853z M483.064,21.026c0,0,0.325,0,0.325-0.433c0-0.976-1.734-5.419-2.818-5.419
		c-0.976,0-2.71,4.443-2.71,5.419c0,0.433,0,0.433,0.433,0.433c0.217,0,2.059,0,2.276-0.433
		C480.896,21.026,482.63,21.026,483.064,21.026z M480.571,0.759c6.178,0,10.946,4.443,12.03,9.971h3.143V8.129
		c0-0.542,1.084-8.129,9.538-8.129c4.552,0,6.178,3.144,6.178,5.203c0,2.384-1.409,2.926-2.71,2.926
		c-1.517,0-3.468-0.542-3.468-2.601c0-0.976,0.433-2.059,1.192-2.384c0,0-0.759-0.651-1.192-0.651c-6.178,0-6.936,4.334-6.936,8.238
		h4.227c1.3,0,2.384,0.974,2.384,2.059c0,0.651-0.651,1.409-2.059,1.409c-1.084,0-2.493-0.542-3.468-0.542
		c0.433,1.083,2.167,2.817,3.468,3.576c0.975-0.759,9.213-5.853,12.681-9.104c-0.759-0.216-0.976-1.517-0.976-2.275
		c0-1.301,0.217-2.71,11.922-2.384c-0.975,1.734-5.094,8.887-7.153,8.887c-1.409,0-1.951-0.976-2.71-2.059
		c-0.759,0.434-9.43,6.177-11.706,7.262c0.759,0.758,2.818,0.976,5.094,0.976c10.297,0,17.233-7.803,22.327-17.451h0.759
		c0,0,0.217,2.06,0.217,3.469c0.542,0,2.818,0,2.818,1.301c0,1.734-1.409,2.059-1.734,3.035c0.975,0.433,1.734,1.083,1.734,1.843
		c0,0.974-2.276,2.71-5.852,2.71c-0.651,0-2.71,0.216-2.71,1.3c0,0.976,0.325,1.517,1.409,1.517c2.276,0,8.237-4.552,10.296-4.552
		c0.868,0,1.951,0.651,1.951,1.735c0,0.758-0.542,1.3-1.083,1.516v0.218h1.083h1.517c0.217,0,2.276,1.083,2.276,2.384
		c0,0.758-0.759,0.976-0.975,0.976v1.083c0.975-0.758,5.527,0,5.527,4.769v0.218c-1.084-0.218-5.853-5.744-15.716-5.744
		c-2.059,0-6.937,0.758-11.705,1.517c-4.66,0.867-9.321,1.625-11.055,1.625c-3.36,0-7.262-0.976-9.321-2.384
		c-1.951,0.976-10.946,5.744-21.243,5.744V0.759z M487.941,7.587c-0.542-0.759-0.542-0.976-1.517-0.759
		c-0.325,0-3.794,3.903-3.36,4.877c0.325,0.651,5.419,1.085,5.853,1.085c0.325-0.434,0.325-1.085,0.325-1.41
		c0,0-0.759-1.409-1.3-1.409V7.587z M489.241,15.174c0-0.434,0-0.976-0.325-1.517c-0.434,0-5.528,0.542-5.853,1.083
		c-0.433,0.976,3.035,4.877,3.36,4.877c0.976,0.216,0.976,0,1.517-0.758v-2.386C488.483,16.474,489.241,15.174,489.241,15.174z
		 M484.473,21.785v0.216c0.651,0,0.867,0,1.626,0.325c0.325-0.325,0.325-0.651,0.651-1.301c-0.325,0-0.651-0.433-1.409-0.433
		C485.123,21.026,485.123,21.676,484.473,21.785z M485.34,5.528c0.759,0,1.084-0.325,1.409-0.325c0-0.651-0.325-1.085-0.325-1.734
		h-0.217c-0.108,0.649-0.867,0.649-1.083,1.083C485.34,5.203,485.34,5.528,485.34,5.528z M493.36,13.657
		c-0.759,3.902-2.492,6.936-5.419,8.02v0.651c0.976,0,4.66-0.325,11.922-4.011c-1.517-1.083-2.818-3.142-3.035-4.66H493.36z
		 M490.868,11.705c0,0.651-0.651,1.085-0.651,1.735c0.651,0,1.084,0.216,1.084,0.758h0.216c0-0.758,0-1.409,0.759-1.409v-0.218
		c-0.759-0.216-0.975-0.216-1.192-0.867H490.868z"/>
</g>
</svg>
