<?xml version="1.0" encoding="utf-8"?>
<!-- Generator: Adobe Illustrator 17.0.0, SVG Export Plug-In . SVG Version: 6.00 Build 0)  -->
<!DOCTYPE svg PUBLIC "-//W3C//DTD SVG 1.1//EN" "http://www.w3.org/Graphics/SVG/1.1/DTD/svg11.dtd">
<svg version="1.1" id="Layer_1" xmlns="http://www.w3.org/2000/svg" xmlns:xlink="http://www.w3.org/1999/xlink" x="0px" y="0px"
	 width="960px" height="25.362px" viewBox="0 0 960 25.362" enable-background="new 0 0 960 25.362" xml:space="preserve">
<g>
	<line fill="none" stroke="#FFFFFF" stroke-miterlimit="10" x1="960" y1="0.966" x2="0" y2="0.966"/>
	<path fill="#FFFFFF" d="M479.429,0c10.622,0,19.184,4.769,21.243,5.744c2.06-1.409,5.853-2.384,9.213-2.384
		c1.734,0,6.503,0.758,11.272,1.625c4.878,0.759,9.863,1.517,12.031,1.517c9.321,0,14.198-5.527,15.173-5.744v0.218
		c0,4.769-4.444,5.527-5.527,4.769v1.083c0.325,0,1.083,0.218,1.083,0.976c0,1.301-1.409,2.384-2.601,2.384h-1.301h-0.975
		c0.325,0.434,1.517,0.976,1.517,1.734c0,1.085-1.517,1.735-2.601,1.735c-1.3,0-7.803-4.552-10.297-4.552
		c-0.975,0-1.3,0.542-1.3,1.517c0,1.083,2.059,1.3,2.71,1.3c3.36,0,5.961,1.735,5.961,2.71c0,0.759-0.759,1.41-1.842,1.843
		c0.325,0.976,1.842,1.301,1.842,3.035c0,1.301-2.601,1.301-2.818,1.301c0,1.409-0.325,3.469-0.325,3.469h-0.759
		c-5.094-9.647-11.922-17.451-22.218-17.451c-2.385,0-4.444,0.218-5.203,0.976c2.384,1.085,10.947,6.828,12.03,7.262
		c0.217-1.083,0.976-2.059,2.385-2.059c2.059,0,6.178,7.153,7.261,8.887c-11.705,0.325-12.03-1.083-12.03-2.384
		c0-0.758,0.325-2.059,1.084-2.275c-3.468-3.251-11.705-8.345-12.789-9.104c-1.409,0.759-3.035,2.493-3.468,3.576
		c1.084,0,2.492-0.542,3.902-0.542c0.867,0,1.626,0.758,1.626,1.409c0,1.085-0.975,2.059-2.384,2.059h-4.119
		c0,3.903,0.759,8.238,6.828,8.238c0.433,0,0.975-0.651,0.975-0.651c-0.542-0.325-0.975-1.409-0.975-2.384
		c0-2.059,2.059-2.601,3.576-2.601c1.301,0,2.71,0.542,2.71,2.926c0,2.059-1.842,5.203-6.286,5.203
		c-8.562,0-9.538-7.587-9.538-8.129c0-0.759,0-1.843,0.325-2.602h-3.468c-0.217,2.818-1.734,5.203-3.793,7.262
		c-2.384,1.626-5.419,2.71-8.129,2.71V0z M495.47,11.705c0.433-1.517,2.492-3.576,3.143-4.66
		c-7.262-3.685-10.622-4.011-12.139-4.011v0.651c3.144,1.083,4.877,4.118,5.528,8.02H495.47z M489.834,13.657
		c0.217-0.651,0.542-0.651,1.3-0.867v-0.218c-0.758,0-0.758-0.651-0.758-1.409h-0.217c-0.108,0.542-0.542,0.758-1.084,0.758
		c0,0.651,0.542,1.085,0.542,1.735H489.834z M487.991,13.982c0-0.325,0-0.976-0.433-1.41c-0.325,0-5.419,0.434-5.853,1.085
		c-0.217,0.974,3.251,4.877,3.468,4.877c1.084,0.216,1.084,0,1.3-0.759V15.39C487.232,15.39,487.991,13.982,487.991,13.982z
		 M486.474,6.502c-0.216-0.758-0.216-0.974-1.3-0.758c-0.217,0-3.685,3.902-3.468,4.877c0.433,0.542,5.527,1.083,5.853,1.083
		c0.433-0.542,0.433-1.083,0.433-1.517c0,0-0.759-1.3-1.517-1.3V6.502z M484.956,21.893h0.217c0-0.649,0.433-1.083,0.433-1.734
		c-0.433,0-0.651-0.325-0.651-0.325c-0.759,0-0.759,0.325-1.192,0.976C484.197,21.244,484.956,21.244,484.956,21.893z
		 M485.607,4.336c-0.433-0.651-0.433-0.976-0.651-1.301c-0.759,0.325-1.192,0.325-1.842,0.325v0.216
		c0.65,0.109,0.65,0.759,1.083,1.192C484.956,4.769,485.173,4.336,485.607,4.336z M476.611,19.508c0,0.651,0,0.651,0.325,0.651
		c0.433,0,2.167-0.325,2.492-0.651c0.217,0.325,2.059,0.651,2.276,0.651c0.433,0,1.084,0,1.084-0.651
		c0-0.758-2.384-4.877-3.36-4.877C478.345,14.631,476.611,18.75,476.611,19.508z M476.936,4.336c0,0-0.325,0-0.325,0.433
		c0,0.976,1.734,5.419,2.818,5.419c0.976,0,2.71-4.443,2.71-5.419c0-0.433,0-0.433-0.433-0.433c-0.217,0-2.059,0-2.276,0.433
		C479.104,4.336,477.37,4.336,476.936,4.336z M479.429,24.602c-6.178,0-10.946-4.443-12.03-9.971h-3.143v2.602
		c0,0.542-1.084,8.129-9.538,8.129c-4.552,0-6.178-3.144-6.178-5.203c0-2.384,1.409-2.926,2.71-2.926
		c1.517,0,3.468,0.542,3.468,2.601c0,0.976-0.433,2.059-1.192,2.384c0,0,0.759,0.651,1.192,0.651c6.178,0,6.936-4.334,6.936-8.238
		h-4.227c-1.3,0-2.384-0.974-2.384-2.059c0-0.651,0.651-1.409,2.059-1.409c1.084,0,2.493,0.542,3.468,0.542
		c-0.433-1.083-2.167-2.817-3.468-3.576c-0.975,0.759-9.213,5.853-12.681,9.104c0.759,0.216,0.976,1.517,0.976,2.275
		c0,1.301-0.217,2.71-11.922,2.384c0.975-1.734,5.094-8.887,7.153-8.887c1.409,0,1.951,0.976,2.71,2.059
		c0.759-0.434,9.43-6.177,11.706-7.262c-0.759-0.758-2.818-0.976-5.094-0.976c-10.297,0-17.233,7.803-22.327,17.451h-0.759
		c0,0-0.217-2.06-0.217-3.469c-0.542,0-2.818,0-2.818-1.301c0-1.734,1.409-2.059,1.734-3.035c-0.975-0.433-1.734-1.083-1.734-1.843
		c0-0.974,2.276-2.71,5.853-2.71c0.651,0,2.71-0.216,2.71-1.3c0-0.976-0.325-1.517-1.409-1.517c-2.276,0-8.237,4.552-10.296,4.552
		c-0.868,0-1.951-0.651-1.951-1.735c0-0.758,0.542-1.3,1.083-1.516v-0.218h-1.083h-1.517c-0.217,0-2.276-1.083-2.276-2.384
		c0-0.758,0.759-0.976,0.975-0.976V5.744c-0.975,0.758-5.527,0-5.527-4.769V0.758c1.084,0.218,5.853,5.744,15.716,5.744
		c2.059,0,6.936-0.758,11.705-1.517c4.66-0.867,9.321-1.625,11.055-1.625c3.36,0,7.262,0.976,9.321,2.384
		C460.137,4.769,469.132,0,479.429,0V24.602z M472.059,17.775c0.542,0.759,0.542,0.976,1.517,0.759c0.325,0,3.794-3.903,3.36-4.877
		c-0.325-0.651-5.419-1.085-5.853-1.085c-0.325,0.434-0.325,1.085-0.325,1.41c0,0,0.759,1.409,1.3,1.409V17.775z M470.759,10.188
		c0,0.434,0,0.976,0.325,1.517c0.434,0,5.528-0.542,5.853-1.083c0.433-0.976-3.035-4.877-3.36-4.877
		c-0.976-0.216-0.976,0-1.517,0.758v2.386C471.517,8.888,470.759,10.188,470.759,10.188z M475.527,3.576V3.36
		c-0.651,0-0.867,0-1.626-0.325c-0.325,0.325-0.325,0.651-0.651,1.301c0.325,0,0.651,0.433,1.409,0.433
		C474.877,4.336,474.877,3.685,475.527,3.576z M474.66,19.834c-0.759,0-1.084,0.325-1.409,0.325c0,0.651,0.325,1.085,0.325,1.734
		h0.217c0.108-0.649,0.867-0.649,1.083-1.083C474.66,20.159,474.66,19.834,474.66,19.834z M466.64,11.705
		c0.759-3.902,2.492-6.936,5.419-8.02V3.035c-0.976,0-4.66,0.325-11.922,4.011c1.517,1.083,2.818,3.142,3.035,4.66H466.64z
		 M469.132,13.657c0-0.651,0.651-1.085,0.651-1.735c-0.651,0-1.084-0.216-1.084-0.758h-0.216c0,0.758,0,1.409-0.759,1.409v0.218
		c0.759,0.216,0.975,0.216,1.192,0.867H469.132z"/>
</g>
</svg>
