<?xml version="1.0" encoding="utf-8"?>
<!-- Generator: Adobe Illustrator 17.0.0, SVG Export Plug-In . SVG Version: 6.00 Build 0)  -->
<!DOCTYPE svg PUBLIC "-//W3C//DTD SVG 1.1//EN" "http://www.w3.org/Graphics/SVG/1.1/DTD/svg11.dtd">
<svg version="1.1" id="Layer_1" xmlns="http://www.w3.org/2000/svg" xmlns:xlink="http://www.w3.org/1999/xlink" x="0px" y="0px"
	 width="67.589px" height="29.431px" viewBox="0 0 67.589 29.431" enable-background="new 0 0 67.589 29.431" xml:space="preserve">
<path fill="#8E8E8E" d="M67.385,27.159l0.204,0.204h-8.78c-0.613,0.204-1.226,0-2.042-0.613c-0.612-0.817-1.633-2.042-2.042-4.288
	c-2.042,1.226-4.493,2.042-6.126,2.042c-1.634,0.204-4.697,0.204-5.718-0.204c-1.429,2.655-2.859,4.288-4.901,4.288
	c-0.817,0-1.633-0.409-2.45-1.022c-1.021,0.818-1.634,1.226-3.063,1.226c-1.429,0-2.654-0.613-3.471-1.429
	c-6.534,2.859-8.985,2.655-10.006,0c-0.613-1.633-0.408-3.266,1.634-4.696c-1.226-0.613-2.451-2.246-2.859-4.084
	c-0.408-2.45,1.633-6.943,4.697-8.78c-1.838-0.409-2.655-0.409-3.88,0c-1.021,0.408-2.246,0.613-3.472,0.613
	c-1.225,0.204-2.858,0.204-3.879,0.204c-1.838,0.613-3.88,1.02-5.922,1.02C2.451,11.639,0,10.21,0,8.169
	C0,7.352,0.817,6.943,1.838,6.33c4.288-2.042,16.949-5.718,26.341-5.718c11.435,0,19.195,1.635,26.75,3.675
	c0.613-2.041,2.042-2.654,3.267-3.266C59.421,0.613,64.117,0,67.385,0v2.042l-1.633-1.02c-0.204-0.204-0.408-0.409-0.613-0.204
	c0,0,0.204,0.204,0.408,0.408l1.838,1.429l0.204,1.022l-3.267-2.247c-0.408-0.204-0.613-0.408-0.613-0.204
	c0,0,0.204,0.204,0.408,0.409l3.267,3.063v0.817l-4.492-3.675c-0.204-0.204-0.408-0.409-0.613-0.409
	c0,0.205,0.204,0.409,0.409,0.613l4.696,4.288v0.817l-5.513-4.492c-0.408-0.204-0.612-0.408-0.612-0.408
	c0,0.204,0,0.408,0.408,0.611l5.717,5.105v0.818l-5.513-4.288c-0.204-0.205-0.408-0.409-0.612-0.409
	c0,0.204,0.204,0.409,0.408,0.613l5.717,5.105v0.817l-4.696-3.879C62.28,6.534,62.076,6.33,62.076,6.33
	c-0.204,0.204,0,0.409,0.408,0.613l4.9,4.696v1.022l-4.288-3.879c-0.204-0.205-0.408-0.409-0.613-0.205c0,0,0.204,0.205,0.613,0.613
	l4.288,4.288v1.02l-3.879-3.47c-0.204-0.409-0.613-0.613-0.613-0.409c0,0,0.204,0.204,0.613,0.613l3.879,4.084v1.02l-3.675-3.472
	c-0.408-0.408-0.817-0.613-0.817-0.408c0,0,0.204,0.204,0.408,0.611l4.084,4.084v1.02l-3.471-3.266
	c-0.408-0.409-0.613-0.613-0.613-0.409c-0.204,0,0,0.205,0.408,0.613l3.675,4.084v1.02l-3.471-3.47
	c-0.204-0.205-0.613-0.409-0.613-0.409c-0.204,0.204,0,0.409,0.408,0.817l3.675,4.084v1.02l-3.471-3.472
	c-0.408-0.408-0.613-0.408-0.613-0.408c0,0.204,0.204,0.408,0.408,0.817l3.675,4.083v0.818l-3.267-3.268
	c-0.408-0.408-0.612-0.408-0.817-0.408c0,0.204,0.204,0.408,0.613,0.817l3.471,3.879v1.02l-3.471-3.675
	c-0.408-0.204-0.613-0.408-0.613-0.408c-0.204,0.204,0,0.408,0.408,0.817L67.385,27.159z M63.505,24.096
	c-0.408-0.409-0.613-0.613-0.613-0.613c0,0.204,0,0.204,0.408,0.817l1.634,2.246c0.204,0.204,0.408,0.409,0.612,0.204
	c0,0,0-0.408-0.204-0.613L63.505,24.096z M62.689,24.913c-0.204-0.205-0.409-0.409-0.409-0.409s0,0.409,0.204,0.817l0.817,1.226
	c0.204,0.204,0.408,0.409,0.408,0.409c0.204-0.205,0.204-0.409,0-0.613L62.689,24.913z M55.95,4.288
	c0.204-0.817,0.817-1.837,1.429-2.041c0.613-0.205,1.429,0,1.838,0.611c-0.817,0.205-1.634,0.409-2.042,0.613
	c2.451,5.718,2.655,15.111,0.817,22.054c0.612,0,1.838,0,2.45-0.205c0,0.613-0.204,1.022-0.408,1.226h0.408
	c0.408-0.817,0.613-1.838,1.021-2.655l-0.204-0.204c0,0.204-0.409,0.204-0.613,0.204c-1.226,0-1.634-0.817-1.634-1.633
	s0.613-1.633,1.634-1.633c0.613,0,1.021,0.408,1.123,0.817h0.204c0.919-5.922,0.715-13.069-2.144-18.377
	c-0.613-1.226-1.838-1.226-2.247-1.226c-1.02,0.409-1.633,1.429-1.838,2.45H55.95z M61.668,20.625l-0.204-0.204l0.204-2.247h0.204
	L61.668,20.625z M61.463,22.258c0-0.613-0.408-1.02-0.817-1.02s-1.021,0.408-1.021,1.02s0.204,1.02,1.021,1.02
	C61.259,23.278,61.463,22.667,61.463,22.258z M61.259,20.216H60.85l0.204-2.246h0.204V20.216z M61.055,24.096l-0.408,1.02h-0.204
	l0.204-1.02H61.055z M60.646,20.216h-0.408v-2.042h0.408V20.216z M60.442,24.096l-0.204,1.02H59.83l0.408-1.226L60.442,24.096z
	 M59.83,20.216h-0.204v-1.224l0.408-0.205L59.83,20.216z M59.83,24.096l-0.204,1.02h-0.408l0.408-1.226L59.83,24.096z
	 M59.217,23.891l-0.408,1.429h-0.204l0.408-1.633L59.217,23.891z M30.834,13.478c0.204,0.817,0.817,2.45,1.225,3.063
	c1.021-0.408,2.042-1.224,2.654-1.837c-0.612-0.817-1.225-2.655-1.429-3.881c0.409,1.022,1.429,2.655,2.042,3.268
	c1.226-1.022,4.084-2.655,6.126-3.472c-3.472,2.042-6.739,5.514-10.823,8.168c-1.429,1.022-6.943,2.859-8.78,3.881
	c-2.654,1.633-2.654,3.266-2.246,4.492c0.612,1.429,1.429,1.837,4.084,1.226c2.654-0.613,5.309-1.838,8.168-3.268
	c2.858-1.429,6.738-1.838,9.189-1.838c2.042,0.205,3.88,1.022,7.555,0.409c3.675-0.409,7.555-2.45,9.801-4.901
	c0.612-4.696,0-10.005-1.429-13.069c-5.105-2.041-17.765-4.288-26.546-4.288c-7.964,0-18.991,2.042-23.279,3.675
	C6.33,7.76,4.084,8.577,0.817,8.577c0.408,1.429,2.246,2.246,4.901,2.246c2.654,0,4.288-0.817,5.309-1.02
	c1.021-0.204,2.859,0.204,4.288,0c1.838-0.204,3.675-1.226,4.697-1.226c1.633,0,4.697,0.817,6.534,0.817
	c2.451,0,6.33-1.02,7.964-1.633c-1.634,0.817-4.084,2.042-5.309,2.246c0.408,0.817,2.655,3.063,3.472,3.675
	c-0.408,0-1.429-0.408-1.634-0.408L30.834,13.478z M55.95,22.054c0,0.408,0.204,1.224,0.408,1.633
	c0.408,0.613,0.817,1.226,0.817,1.226c0.204,0,0.408-0.613,0.613-1.226c0.204-0.204,0.408-1.226,0.408-2.246
	c0.204-0.613,0.204-1.02,0-1.226C58.196,20.216,55.95,21.85,55.95,22.054z M56.971,3.677c-0.204,0.204-0.204,0.408-0.204,0.817
	l0.408,0.204L56.971,3.677z M41.656,24.504c-1.021-0.408-2.247-0.408-2.859-0.204c-0.408,0.204-1.634,2.042-2.246,2.655
	c0.204,0.408,0.612,0.817,1.225,0.817C39.206,27.772,40.839,26.137,41.656,24.504z M37.572,24.3
	c-2.042,0.204-5.922,1.429-7.555,2.655c0.612,0.611,1.429,1.02,2.45,1.02C34.101,27.976,35.939,26.75,37.572,24.3z M27.567,17.153
	c0.204,0.409,1.021,1.429,1.225,1.429c0.204,0,1.021-0.204,1.634-0.613c0.408-0.204,1.02-0.817,1.02-1.02s-0.817-2.042-1.225-2.859
	L27.567,17.153z M30.425,12.865c-0.817-0.613-1.838-1.837-2.247-2.859c-2.246,0.204-3.879,0.204-4.9,0
	c-2.042,1.429-4.492,4.288-4.492,8.373c0,2.042,1.633,3.063,2.654,3.675c1.838-1.022,5.309-2.451,6.738-3.063
	c-0.817-1.022-1.429-1.635-2.654-1.838c-0.408-0.204-0.817-0.204-0.817-0.408c0,0,0.204-0.205,0.613-0.205
	c0.408,0,0.817,0,1.429,0.205L30.425,12.865z M26.341,24.3c0.817,2.042-0.817,3.063-3.063,3.472c-1.838,0.408-2.859,0-3.267-1.226
	c-0.204-1.226,0.408-2.45,1.838-3.063C23.891,22.667,25.524,22.462,26.341,24.3z M25.729,24.504
	c-0.408-1.02-1.429-1.429-3.472-0.408c-1.225,0.611-1.633,1.429-1.429,2.246c0.204,0.817,1.021,1.224,2.655,0.817
	C25.729,26.546,26.137,25.73,25.729,24.504z M5.922,5.514C5.105,5.718,3.675,6.33,2.859,6.534C2.246,6.943,0.817,7.76,0.817,7.76
	c0,0.204,1.225,0.204,2.654-0.204C4.492,7.352,6.126,6.33,5.922,5.514z"/>
</svg>
