<?xml version="1.0" encoding="utf-8"?>
<!-- Generator: Adobe Illustrator 17.0.0, SVG Export Plug-In . SVG Version: 6.00 Build 0)  -->
<!DOCTYPE svg PUBLIC "-//W3C//DTD SVG 1.1//EN" "http://www.w3.org/Graphics/SVG/1.1/DTD/svg11.dtd">
<svg version="1.1" id="Layer_1" xmlns="http://www.w3.org/2000/svg" xmlns:xlink="http://www.w3.org/1999/xlink" x="0px" y="0px"
	 width="72.168px" height="57.883px" viewBox="0 0 72.168 57.883" enable-background="new 0 0 72.168 57.883" xml:space="preserve">
<path fill="#626161" d="M64.921,24.527c-0.639,1.492-2.984,2.984-5.222,2.984s-4.05-1.066-4.05-3.411
	c0-0.746,0.533-1.386,1.173-1.386c0.639,0,1.066,0.426,1.066,0.852c0,0.426-0.32,1.066-0.959,1.066c0,0.533,0.427,1.066,0.959,1.066
	c0.853,0,1.599-0.746,1.599-2.132c0-0.852-0.959-2.131-2.665-2.131c-2.238,0-3.411,1.172-3.411,2.877
	c-0.64,0-1.173-0.426-1.173-1.066c-1.918,1.172-3.624,3.518-4.796,5.543c0.959,2.132,2.665,4.05,4.583,5.436
	c0-0.533,0.533-1.172,1.173-1.172c0.426,2.132,1.918,3.091,3.624,3.091c1.812,0,2.451-1.065,2.451-2.345
	c0-1.279-1.279-1.705-1.705-1.705c-0.64,0-0.959,0.426-0.959,1.172c0.533-0.533,1.279,0,1.279,0.533
	c0,0.852-0.426,1.066-0.959,1.066c-0.746,0-1.492-0.852-1.492-1.918c0-1.279,1.173-2.558,3.411-2.558
	c2.451,0,4.69,1.386,6.075,3.091l-1.492,1.066c-0.96-2.238-2.878-3.091-4.69-3.091v0.106c1.279,0.533,1.812,1.386,1.812,2.558
	c0,1.599-1.279,3.411-3.624,3.411c-3.837,0-9.166-4.797-10.658-8.74c1.705-3.731,6.395-8.633,10.339-8.633
	c2.878,0,4.05,2.025,4.05,3.304c0,1.172-0.639,2.345-1.599,2.877v0.107c2.238,0,3.411-1.172,4.264-2.878L64.921,24.527z
	 M53.729,25.274c1.279,2.557,2.025,3.304,8.953,3.304c0.213-0.533,0.639-0.959,1.279-0.959c0.533,0,1.066,0.426,1.279,0.959
	c1.172,0,2.132-0.533,2.451-1.065c0.639,0.746,2.238,1.492,3.837,1.492c0.427,0,0.64,0.107,0.64,0.107
	c0,0.106-0.213,0.106-0.64,0.106c-1.599,0-3.198,0.533-3.837,1.172c-0.426-0.426-1.279-1.066-2.558-1.066
	c-0.213,0.64-0.64,0.853-1.279,0.853c-0.533,0-0.959-0.32-1.172-0.853c-7.035,0-7.781,0.746-9.06,3.091l-1.386-0.852
	c0.427-0.959,1.173-1.705,2.558-2.025V29.43c-1.812,0-3.304,0.319-3.944,1.065l-1.492-1.599l1.492-1.492
	c0.64,0.746,2.132,1.066,3.944,1.066v-0.106c-1.172-0.32-2.132-1.279-2.558-2.238L53.729,25.274z"/>
<path fill="#626161" d="M8.847,23.568c0.853,1.706,2.025,2.878,4.264,2.878v-0.107c-0.96-0.533-1.599-1.705-1.599-2.877
	c0-1.279,1.172-3.304,4.05-3.304c3.944,0,8.633,4.903,10.339,8.633c-1.492,3.943-6.821,8.74-10.658,8.74
	c-2.345,0-3.624-1.812-3.624-3.411c0-1.172,0.533-2.025,1.812-2.558v-0.106c-1.812,0-3.73,0.852-4.69,3.091L7.248,33.48
	c1.385-1.705,3.624-3.091,6.075-3.091c2.238,0,3.411,1.279,3.411,2.558c0,1.066-0.746,1.918-1.492,1.918
	c-0.533,0-0.959-0.213-0.959-1.066c0-0.533,0.746-1.066,1.279-0.533c0-0.746-0.32-1.172-0.959-1.172
	c-0.426,0-1.705,0.426-1.705,1.705c0,1.279,0.64,2.345,2.451,2.345c1.705,0,3.198-0.959,3.624-3.091c0.64,0,1.173,0.64,1.173,1.172
	c1.918-1.385,3.624-3.304,4.583-5.436c-1.172-2.025-2.878-4.37-4.796-5.543c0,0.64-0.533,1.066-1.173,1.066
	c0-1.705-1.172-2.877-3.411-2.877c-1.705,0-2.665,1.279-2.665,2.131c0,1.386,0.746,2.132,1.599,2.132
	c0.533,0,0.959-0.533,0.959-1.066c-0.64,0-0.959-0.64-0.959-1.066c0-0.426,0.426-0.852,1.066-0.852c0.64,0,1.173,0.64,1.173,1.386
	c0,2.345-1.812,3.411-4.05,3.411s-4.583-1.492-5.222-2.984L8.847,23.568z M19.931,26.126c-0.427,0.959-1.386,1.918-2.558,2.238
	v0.106c1.812,0,3.304-0.32,3.944-1.066l1.492,1.492l-1.492,1.599c-0.64-0.746-2.132-1.065-3.944-1.065v0.106
	c1.385,0.32,2.132,1.066,2.558,2.025l-1.386,0.852c-1.279-2.345-2.025-3.091-9.06-3.091c-0.213,0.533-0.639,0.853-1.172,0.853
	c-0.639,0-1.066-0.213-1.279-0.853c-1.279,0-2.132,0.64-2.558,1.066c-0.639-0.64-2.238-1.172-3.837-1.172
	c-0.427,0-0.64,0-0.64-0.106c0,0,0.213-0.107,0.64-0.107c1.599,0,3.198-0.745,3.837-1.492c0.32,0.533,1.279,1.065,2.451,1.065
	c0.213-0.533,0.746-0.959,1.279-0.959c0.639,0,1.066,0.426,1.279,0.959c6.928,0,7.674-0.746,8.953-3.304L19.931,26.126z"/>
<g>
	<path fill="#626161" d="M47.35,28.942c7.787-4.936,13.058-14.426,13.058-25.324c0-1.225-0.067-2.433-0.197-3.618H9.956
		c-0.13,1.185-0.197,2.393-0.197,3.618c0,10.898,5.271,20.387,13.058,25.324C15.03,33.878,9.759,43.367,9.759,54.265
		c0,1.225,0.067,2.433,0.197,3.618h50.255c0.13-1.185,0.197-2.393,0.197-3.618C60.409,43.367,55.138,33.878,47.35,28.942z
		 M15.187,54.265c0-10.565,4.531-19.525,12.662-22.48V26.1c-8.131-2.956-12.662-11.915-12.662-22.48l0,0h39.795
		c0,10.565-4.531,19.525-12.662,22.48v5.685c8.131,2.956,12.662,11.915,12.662,22.48H15.187z"/>
	<path fill="#D3A062" d="M41.084,37.85c-4.05-2.297-4.274-5.278-4.274-7.087v-3.63c0-1.809,0.215-4.801,4.282-7.103
		c2.176-1.264,4.059-3.185,5.486-5.559H23.426c1.429,2.375,3.314,4.298,5.492,5.562c4.05,2.297,4.274,5.278,4.274,7.087v3.63
		c0,1.809-0.215,4.801-4.282,7.103c-4.104,2.384-7.165,7.105-8.089,12.794h28.357C48.254,44.955,45.192,40.232,41.084,37.85z"/>
</g>
</svg>
