<?xml version="1.0" encoding="utf-8"?>
<!-- Generator: Adobe Illustrator 17.0.0, SVG Export Plug-In . SVG Version: 6.00 Build 0)  -->
<!DOCTYPE svg PUBLIC "-//W3C//DTD SVG 1.1//EN" "http://www.w3.org/Graphics/SVG/1.1/DTD/svg11.dtd">
<svg version="1.1" id="Layer_1" xmlns="http://www.w3.org/2000/svg" xmlns:xlink="http://www.w3.org/1999/xlink" x="0px" y="0px"
	 width="67.589px" height="29.431px" viewBox="0 0 67.589 29.431" enable-background="new 0 0 67.589 29.431" xml:space="preserve">
<path fill="#8E8E8E" d="M3.88,22.871c0.408-0.409,0.612-0.613,0.408-0.817c0,0-0.204,0.204-0.613,0.408l-3.471,3.675v-1.02
	l3.471-3.879c0.408-0.409,0.613-0.613,0.613-0.817c-0.204,0-0.408,0-0.817,0.408l-3.267,3.268v-0.818l3.675-4.083
	c0.204-0.409,0.408-0.613,0.408-0.817c0,0-0.204,0-0.613,0.408l-3.471,3.472v-1.02l3.675-4.084c0.408-0.408,0.612-0.613,0.408-0.817
	c0,0-0.408,0.204-0.613,0.409l-3.471,3.47v-1.02l3.675-4.084c0.408-0.408,0.612-0.613,0.408-0.613c0-0.204-0.204,0-0.613,0.409
	l-3.471,3.266v-1.02l4.084-4.084c0.204-0.408,0.408-0.611,0.408-0.611c0-0.205-0.408,0-0.817,0.408l-3.675,3.472v-1.02l3.879-4.084
	c0.408-0.409,0.613-0.613,0.613-0.613c0-0.204-0.408,0-0.613,0.409l-3.879,3.47v-1.02l4.288-4.288
	C4.9,8.782,5.105,8.577,5.105,8.577c-0.204-0.204-0.408,0-0.613,0.205l-4.288,3.879v-1.022l4.9-4.696
	C5.513,6.739,5.718,6.534,5.513,6.33c0,0-0.204,0.204-0.613,0.409l-4.696,3.879V9.802l5.717-5.105
	C6.126,4.493,6.33,4.288,6.33,4.084c-0.204,0-0.408,0.204-0.612,0.409L0.204,8.782V7.964l5.717-5.105
	C6.33,2.655,6.33,2.451,6.33,2.247c0,0-0.204,0.204-0.612,0.408L0.204,7.147V6.33L4.9,2.042c0.204-0.204,0.409-0.408,0.409-0.613
	c-0.204,0-0.409,0.205-0.613,0.409L0.204,5.514V4.697l3.267-3.063C3.675,1.429,3.88,1.226,3.88,1.226c0-0.204-0.204,0-0.613,0.204
	L0,3.677l0.204-1.022l1.838-1.429c0.204-0.204,0.408-0.408,0.408-0.408c-0.204-0.205-0.408,0-0.613,0.204l-1.633,1.02V0
	c3.267,0,7.964,0.613,9.189,1.022c1.225,0.613,2.654,1.226,3.267,3.266c7.555-2.041,15.315-3.675,26.75-3.675
	c9.392,0,22.053,3.675,26.341,5.718c1.021,0.613,1.838,1.022,1.838,1.838c0,2.041-2.451,3.47-5.309,3.47
	c-2.042,0-4.084-0.408-5.922-1.02c-1.021,0-2.654,0-3.879-0.204c-1.226,0-2.451-0.205-3.472-0.613c-1.225-0.409-2.042-0.409-3.88,0
	c3.063,1.837,5.105,6.33,4.697,8.78c-0.408,1.838-1.633,3.472-2.859,4.084c2.042,1.429,2.247,3.063,1.634,4.696
	c-1.021,2.655-3.472,2.859-10.006,0c-0.817,0.817-2.042,1.429-3.471,1.429c-1.429,0-2.042-0.408-3.063-1.226
	c-0.817,0.613-1.633,1.022-2.45,1.022c-2.042,0-3.472-1.633-4.901-4.288c-1.021,0.408-4.084,0.408-5.718,0.204
	c-1.633,0-4.084-0.817-6.126-2.042c-0.408,2.246-1.429,3.472-2.042,4.288c-0.817,0.613-1.429,0.817-2.042,0.613H0l0.204-0.204
	L3.88,22.871z M2.246,26.137c-0.204,0.205-0.204,0.613-0.204,0.613c0.204,0.205,0.408,0,0.612-0.204L4.288,24.3
	c0.408-0.613,0.408-0.613,0.408-0.817c0,0-0.204,0.204-0.613,0.613L2.246,26.137z M3.88,26.342c-0.204,0.204-0.204,0.408,0,0.613
	c0,0,0.204-0.205,0.408-0.409l0.817-1.226c0.204-0.408,0.204-0.817,0.204-0.817S5.105,24.708,4.9,24.913L3.88,26.342z M11.844,4.288
	c-0.204-1.02-0.817-2.041-1.838-2.45c-0.409,0-1.634,0-2.247,1.226C4.9,8.373,4.697,15.52,5.615,21.441H5.82
	c0.102-0.409,0.51-0.817,1.123-0.817c1.021,0,1.634,0.817,1.634,1.633s-0.408,1.633-1.634,1.633c-0.204,0-0.613,0-0.613-0.204
	l-0.204,0.204c0.408,0.817,0.613,1.838,1.021,2.655h0.408c-0.204-0.204-0.408-0.613-0.408-1.226c0.612,0.205,1.838,0.205,2.45,0.205
	C7.759,18.582,7.964,9.189,10.414,3.472c-0.408-0.204-1.226-0.408-2.042-0.613C8.78,2.247,9.597,2.042,10.21,2.247
	c0.613,0.204,1.225,1.224,1.429,2.041H11.844z M5.718,18.173h0.204l0.204,2.247l-0.204,0.204L5.718,18.173z M6.943,23.278
	c0.817,0,1.021-0.408,1.021-1.02s-0.613-1.02-1.021-1.02s-0.817,0.408-0.817,1.02C6.126,22.667,6.33,23.278,6.943,23.278z
	 M6.33,17.97h0.204l0.204,2.246H6.33V17.97z M6.943,24.096l0.204,1.02H6.943l-0.408-1.02H6.943z M6.943,18.173h0.408v2.042H6.943
	V18.173z M7.351,23.891l0.408,1.226H7.351l-0.204-1.02L7.351,23.891z M7.555,18.786l0.408,0.205v1.224H7.759L7.555,18.786z
	 M7.964,23.891l0.408,1.226H7.964l-0.204-1.02L7.964,23.891z M8.577,23.687l0.408,1.633H8.78l-0.408-1.429L8.577,23.687z
	 M36.551,13.274c-0.204,0-1.226,0.408-1.634,0.408c0.817-0.613,3.063-2.859,3.472-3.675c-1.226-0.204-3.675-1.429-5.309-2.246
	c1.634,0.613,5.513,1.633,7.964,1.633c1.838,0,4.901-0.817,6.534-0.817c1.021,0,2.859,1.022,4.697,1.226
	c1.429,0.204,3.267-0.204,4.288,0c1.021,0.204,2.654,1.02,5.309,1.02c2.655,0,4.493-0.817,4.901-2.246
	c-3.267,0-5.513-0.817-6.33-3.472c-4.288-1.633-15.315-3.675-23.279-3.675c-8.78,0-21.441,2.247-26.546,4.288
	C9.189,8.782,8.577,14.09,9.189,18.786c2.246,2.451,6.126,4.492,9.801,4.901c3.675,0.613,5.513-0.204,7.555-0.409
	c2.451,0,6.33,0.409,9.189,1.838c2.859,1.429,5.514,2.655,8.168,3.268c2.654,0.611,3.472,0.204,4.084-1.226
	c0.408-1.226,0.408-2.859-2.246-4.492c-1.838-1.022-7.351-2.859-8.78-3.881c-4.084-2.654-7.351-6.125-10.823-8.168
	c2.042,0.817,4.9,2.45,6.126,3.472c0.613-0.613,1.633-2.246,2.042-3.268c-0.204,1.226-0.817,3.064-1.429,3.881
	c0.612,0.613,1.633,1.429,2.654,1.837c0.408-0.613,1.021-2.246,1.225-3.063L36.551,13.274z M9.393,20.216
	c-0.204,0.205-0.204,0.613,0,1.226c0,1.02,0.204,2.042,0.408,2.246c0.204,0.613,0.408,1.226,0.613,1.226
	c0,0,0.408-0.613,0.817-1.226c0.204-0.409,0.408-1.226,0.408-1.633C11.639,21.85,9.393,20.216,9.393,20.216z M10.414,4.697
	l0.408-0.204c0-0.409,0-0.613-0.204-0.817L10.414,4.697z M29.813,27.772c0.613,0,1.021-0.409,1.225-0.817
	c-0.612-0.613-1.838-2.451-2.246-2.655c-0.612-0.204-1.838-0.204-2.859,0.204C26.75,26.137,28.383,27.772,29.813,27.772z
	 M35.122,27.976c1.021,0,1.838-0.409,2.45-1.02c-1.633-1.226-5.513-2.451-7.555-2.655C31.65,26.75,33.488,27.976,35.122,27.976z
	 M37.368,14.09c-0.408,0.817-1.225,2.655-1.225,2.859s0.612,0.817,1.02,1.02c0.613,0.409,1.429,0.613,1.634,0.613
	c0.204,0,1.021-1.02,1.225-1.429L37.368,14.09z M40.84,16.745c0.612-0.205,1.02-0.205,1.429-0.205c0.409,0,0.613,0.205,0.613,0.205
	c0,0.204-0.408,0.204-0.817,0.408c-1.225,0.204-1.838,0.817-2.654,1.838c1.429,0.611,4.9,2.041,6.738,3.063
	c1.021-0.613,2.654-1.633,2.654-3.675c0-4.084-2.45-6.943-4.492-8.373c-1.021,0.204-2.654,0.204-4.9,0
	c-0.409,1.022-1.429,2.246-2.247,2.859L40.84,16.745z M45.74,23.484c1.429,0.613,2.042,1.837,1.838,3.063
	c-0.408,1.226-1.429,1.633-3.267,1.226c-2.246-0.409-3.88-1.429-3.063-3.472C42.065,22.462,43.698,22.667,45.74,23.484z
	 M44.106,27.159c1.634,0.408,2.451,0,2.655-0.817c0.204-0.817-0.204-1.635-1.429-2.246c-2.042-1.022-3.063-0.613-3.472,0.408
	C41.452,25.73,41.86,26.546,44.106,27.159z M64.118,7.556c1.429,0.408,2.654,0.408,2.654,0.204c0,0-1.429-0.817-2.042-1.226
	c-0.817-0.204-2.246-0.817-3.063-1.02C61.463,6.33,63.097,7.352,64.118,7.556z"/>
</svg>
