<?xml version="1.0" encoding="utf-8"?>
<!-- Generator: Adobe Illustrator 17.0.0, SVG Export Plug-In . SVG Version: 6.00 Build 0)  -->
<!DOCTYPE svg PUBLIC "-//W3C//DTD SVG 1.1//EN" "http://www.w3.org/Graphics/SVG/1.1/DTD/svg11.dtd">
<svg version="1.1" id="Layer_1" xmlns="http://www.w3.org/2000/svg" xmlns:xlink="http://www.w3.org/1999/xlink" x="0px" y="0px"
	 width="102.958px" height="42.481px" viewBox="0 0 102.958 42.481" enable-background="new 0 0 102.958 42.481"
	 xml:space="preserve">
<path fill="#626161" d="M92.111,26.746c2.683,1.983,2.799,3.382,2.799,3.849c0,0.35-0.233,1.05-1.05,1.05
	c-1.283,0-1.866-2.333-2.799-3.149c-2.099,3.849-5.365,4.432-6.881,4.432c-1.4,0-5.365-1.05-5.365-5.015
	c0-4.082,3.616-4.899,5.132-4.899c2.216,0,5.832,1.749,7.115,2.916c0.233-0.234,0.466-1.05,0.583-1.399
	c-1.4-0.816-6.065-2.799-10.497-2.916c-0.233,0.349-0.7,0.699-1.166,0.699c-1.05,0-1.4-0.699-1.4-1.399
	c0-0.816,0.466-1.517,1.4-1.517c0.466,0,0.933,0.35,1.166,0.816c4.432-0.116,9.098-2.099,10.497-2.916
	c-0.117-0.466-0.466-1.166-0.583-1.516c-1.283,1.166-4.898,2.916-7.115,2.916c-1.516,0-5.132-0.7-5.132-4.899
	c0-3.85,3.966-5.015,5.365-5.015c1.516,0,4.782,0.583,6.881,4.432c0.933-0.816,1.516-3.149,2.799-3.149
	c0.816,0,1.05,0.816,1.05,1.049c0,0.584-0.233,1.983-2.916,3.966c0.233,0.466,0.583,1.283,0.7,1.633
	c0.933-0.35,3.966-2.683,4.666-2.683c0.7,0,1.283,0.7,1.283,1.4c0,0.933-0.583,1.982-5.598,3.032
	c0.116,0.466,0.233,1.05,0.233,1.399c0.933-0.116,6.065-0.816,6.998-0.816c0.933,0,2.683,0.117,2.683,1.867s-1.75,1.866-2.683,1.866
	c-0.933,0-6.065-0.816-6.998-0.816c0,0.234-0.117,0.934-0.233,1.284c5.015,1.166,5.598,2.216,5.598,3.032s-0.583,1.399-1.283,1.399
	c-0.7,0-3.732-2.332-4.666-2.682C92.577,25.347,92.227,26.28,92.111,26.746z M85.462,15.199c0,1.05-0.466,1.867-0.933,2.216
	l0.116,0.117c2.216-0.234,5.249-2.566,5.598-3.266c-0.816-1.633-2.449-3.032-3.382-3.499c-0.233,0.467-0.816,1.05-1.167,1.284
	c-0.466-1.517-1.166-1.75-1.866-1.75c-2.566,0-3.732,1.983-3.732,3.616s1.05,3.149,2.566,3.149c1.05,0,1.399-1.05,1.399-1.633
	c-0.116,0.116-0.35,0.233-0.583,0.233c-0.35,0-1.05-0.466-1.05-1.049c0-0.816,0.466-1.4,1.399-1.4
	C85.112,13.216,85.462,14.383,85.462,15.199z M82.43,27.096c0-0.584,0.7-0.933,1.05-0.933c0.233,0,0.583,0,0.7,0.116
	c0-0.584-0.466-1.633-1.516-1.633c-1.517,0-2.566,1.517-2.566,3.149c0,1.632,1.166,3.615,3.732,3.615c0.7,0,1.4-0.233,1.866-1.749
	c0.35,0.234,0.933,0.933,1.167,1.283c0.933-0.35,2.566-1.749,3.499-3.499c-0.466-0.584-3.499-3.033-5.715-3.149
	c0.35,0.466,0.933,1.166,0.933,2.216c0,0.816-0.467,2.099-1.75,2.099C82.897,28.612,82.43,27.912,82.43,27.096z M87.212,20.214
	h0.116v0.117c1.166,0,3.966-0.35,4.782-0.35c0-0.35-0.116-0.7-0.116-1.166c-0.583,0.233-3.849,1.283-4.666,1.517L87.212,20.214z
	 M87.329,21.614c0.816,0,4.082,1.049,4.666,1.283c0-0.466,0.116-0.7,0.116-1.05c-0.816-0.116-3.616-0.35-4.782-0.35V21.614z"/>
<path fill="#626161" d="M10.264,24.997c-0.933,0.35-3.966,2.682-4.666,2.682c-0.7,0-1.283-0.583-1.283-1.399
	s0.583-1.867,5.598-3.032c-0.116-0.35-0.233-1.05-0.233-1.284c-0.933,0-6.065,0.816-6.998,0.816C1.75,22.78,0,22.664,0,20.914
	c0-1.749,1.75-1.867,2.683-1.867c0.933,0,6.065,0.7,6.998,0.816c0-0.349,0.117-0.933,0.233-1.399
	c-5.015-1.05-5.598-2.099-5.598-3.032c0-0.7,0.583-1.4,1.283-1.4c0.7,0,3.732,2.333,4.666,2.683c0.117-0.35,0.466-1.166,0.7-1.633
	C8.281,13.1,8.048,11.7,8.048,11.117c0-0.233,0.233-1.049,1.05-1.049c1.283,0,1.866,2.332,2.799,3.149
	c2.099-3.849,5.365-4.432,6.881-4.432c1.4,0,5.365,1.166,5.365,5.015c0,4.199-3.616,4.899-5.132,4.899
	c-2.216,0-5.832-1.75-7.115-2.916c-0.117,0.349-0.466,1.049-0.583,1.516c1.4,0.816,6.065,2.799,10.497,2.916
	c0.233-0.466,0.7-0.816,1.166-0.816c0.933,0,1.4,0.7,1.4,1.517c0,0.7-0.35,1.399-1.4,1.399c-0.466,0-0.933-0.35-1.166-0.699
	c-4.432,0.116-9.098,2.099-10.497,2.916c0.117,0.349,0.35,1.166,0.583,1.399c1.283-1.166,4.898-2.916,7.115-2.916
	c1.516,0,5.132,0.816,5.132,4.899c0,3.965-3.966,5.015-5.365,5.015c-1.516,0-4.782-0.584-6.881-4.432
	c-0.933,0.816-1.516,3.149-2.799,3.149c-0.816,0-1.05-0.7-1.05-1.05c0-0.466,0.117-1.866,2.799-3.849
	C10.731,26.28,10.381,25.347,10.264,24.997z M19.128,13.216c0.933,0,1.399,0.584,1.399,1.4c0,0.583-0.7,1.049-1.05,1.049
	c-0.233,0-0.466-0.116-0.583-0.233c0,0.583,0.35,1.633,1.399,1.633c1.517,0,2.566-1.517,2.566-3.149S21.694,10.3,19.128,10.3
	c-0.7,0-1.4,0.234-1.866,1.75c-0.35-0.234-0.933-0.816-1.166-1.284c-0.933,0.467-2.566,1.867-3.382,3.499
	c0.35,0.7,3.382,3.032,5.598,3.266l0.116-0.117c-0.466-0.349-0.933-1.166-0.933-2.216C17.496,14.383,17.846,13.216,19.128,13.216z
	 M19.128,28.612c-1.283,0-1.75-1.283-1.75-2.099c0-1.049,0.583-1.749,0.933-2.216c-2.216,0.116-5.249,2.566-5.715,3.149
	c0.933,1.749,2.566,3.149,3.499,3.499c0.233-0.35,0.816-1.049,1.166-1.283c0.466,1.517,1.166,1.749,1.866,1.749
	c2.566,0,3.732-1.983,3.732-3.615c0-1.633-1.05-3.149-2.566-3.149c-1.05,0-1.516,1.049-1.516,1.633
	c0.117-0.116,0.466-0.116,0.7-0.116c0.35,0,1.05,0.349,1.05,0.933C20.528,27.912,20.061,28.612,19.128,28.612z M15.629,20.331
	c-0.816-0.234-4.082-1.284-4.666-1.517c0,0.466-0.116,0.816-0.116,1.166C11.664,19.981,14.463,20.331,15.629,20.331v-0.117h0.116
	L15.629,20.331z M15.629,21.497c-1.166,0-3.966,0.234-4.782,0.35c0,0.35,0.116,0.584,0.116,1.05
	c0.583-0.234,3.849-1.283,4.666-1.283V21.497z"/>
<g>
	<path fill="#626161" d="M51.046,0C36.223,0,23.374,8.632,17.062,21.24c6.313,12.608,19.161,21.24,33.985,21.24
		s27.67-8.632,33.985-21.24C78.718,8.632,65.87,0,51.046,0z M67.803,11.264c3.993,2.547,7.377,5.958,9.919,9.977
		c-2.542,4.017-5.926,7.43-9.919,9.977c-5.017,3.201-10.811,4.892-16.756,4.892s-11.74-1.691-16.756-4.892
		c-3.993-2.547-7.377-5.958-9.919-9.977c2.542-4.017,5.926-7.43,9.919-9.977c0.259-0.166,0.523-0.327,0.788-0.484
		c-0.661,1.814-1.024,3.772-1.024,5.813c0,9.384,7.608,16.992,16.992,16.992s16.992-7.608,16.992-16.992
		c0-2.043-0.361-4-1.024-5.813C67.278,10.937,67.541,11.098,67.803,11.264z M51.046,14.471c0,3.52-2.853,6.372-6.372,6.372
		s-6.372-2.853-6.372-6.372s2.853-6.372,6.372-6.372S51.046,10.952,51.046,14.471z"/>
	<circle fill="#D3A062" cx="44.485" cy="14.42" r="6.217"/>
</g>
</svg>
