<?xml version="1.0" encoding="utf-8"?>
<!-- Generator: Adobe Illustrator 17.0.0, SVG Export Plug-In . SVG Version: 6.00 Build 0)  -->
<!DOCTYPE svg PUBLIC "-//W3C//DTD SVG 1.1//EN" "http://www.w3.org/Graphics/SVG/1.1/DTD/svg11.dtd">
<svg version="1.1" id="Layer_1" xmlns="http://www.w3.org/2000/svg" xmlns:xlink="http://www.w3.org/1999/xlink" x="0px" y="0px"
	 width="225.355px" height="199.27px" viewBox="0 0 225.355 199.27" enable-background="new 0 0 225.355 199.27"
	 xml:space="preserve">
<g>
	<path fill="#AE967E" d="M212.655,98.416v0.085c2.898,0.81,3.836,3.622,3.836,5.156c0,1.619-0.597,4.091-0.938,5.029
		c-0.341,0.852-0.511,1.619-0.511,2.046c0,1.193,0.852,2.216,2.472,2.216c1.534,0,2.387-1.108,2.387-2.301
		c0-0.767-0.512-1.108-0.937-1.278c0.085,0.852-0.512,1.023-0.937,1.023c-0.426,0-0.938-0.256-0.938-0.937
		c0-0.767,0.511-1.278,1.449-1.278c0.937,0,2.216,0.937,2.216,2.472s-0.937,3.068-3.239,3.068c-2.387,0-3.239-1.705-3.239-3.068
		c0-0.426,0.256-1.193,0.512-1.875l-0.085-0.085c-4.262,4.091-5.796,5.54-5.796,7.756c0,1.364,0.852,2.472,2.386,2.472
		c1.705,0,1.79-1.193,1.79-1.619c0-0.256-0.17-0.511-0.426-0.597c-0.085,0.085-0.171,0.511-0.852,0.511
		c-0.682,0-0.938-0.511-0.938-1.023c0-0.512,0.426-1.193,1.449-1.193c0.937,0,1.79,0.852,1.79,1.875
		c0,2.557-1.961,2.898-2.813,2.898c-0.682,0-3.153-0.426-3.153-3.409c0-3.154,3.58-5.625,5.54-7.671l-0.085-0.085
		c-0.682,0.341-1.364,0.426-2.131,0.426c-0.767,0-3.239-0.511-3.239-2.983c0-2.046,1.62-2.813,2.472-2.813
		c1.108,0,2.387,0.767,2.387,2.046c0,1.108-0.767,1.534-1.278,1.534c-0.597,0-1.193-0.256-1.193-0.852s0.426-0.852,1.023-0.852
		c0.085-0.085,0.341,0,0.511,0c0-0.341-0.256-1.108-1.449-1.108c-1.023,0-1.789,0.937-1.789,1.96c0,1.108,0.597,2.301,2.642,2.301
		c1.961,0,4.091-0.852,4.091-4.602c0-1.193-0.852-4.517-4.602-4.517c-1.876,0-2.301,0.937-2.301,1.619
		c0,0.597,0.341,1.108,0.937,1.108c0.426,0,0.767-0.256,0.852-0.597c-0.341,0-0.682-0.256-0.682-0.511
		c0-0.341,0.426-0.597,0.767-0.597c0.341,0,0.852,0.256,0.852,0.937c0,0.511-0.426,1.449-1.534,1.449c-1.364,0-1.79-0.938-1.79-1.79
		c0-1.023,0.597-1.96,1.96-2.259v-0.085c-1.363-0.298-1.96-1.236-1.96-2.344c0-0.767,0.426-1.705,1.79-1.705
		c1.108,0,1.619,0.937,1.619,1.449c0,0.682-0.597,0.937-0.937,0.937c-0.341,0-0.767-0.256-0.767-0.597
		c0-0.341,0.341-0.511,0.682-0.511c-0.085-0.341-0.426-0.597-0.767-0.597c-0.682,0-1.023,0.426-1.023,1.023
		c0,0.767,0.426,1.705,2.301,1.705c3.75,0,4.602-3.324,4.602-4.602c0-3.665-2.131-4.517-4.006-4.517
		c-2.131,0-2.727,1.193-2.727,2.301c0,1.023,0.767,1.96,1.789,1.96c1.193,0,1.449-0.852,1.449-1.193
		c-0.17,0.085-0.341,0.085-0.511,0.085c-0.597,0-1.023-0.256-1.023-0.852c0-0.682,0.597-0.852,1.193-0.852
		c0.512,0,1.278,0.426,1.278,1.534c0,1.278-1.278,2.045-2.387,2.045c-0.767,0-2.472-0.767-2.472-2.812
		c0-2.472,2.472-2.983,3.239-2.983c0.767,0,1.449,0.085,2.131,0.341l0.085-0.085c-1.96-2.046-5.54-4.432-5.54-7.671
		c0-2.983,2.472-3.324,3.153-3.324c0.852,0,2.813,0.341,2.813,2.813c0,1.108-0.852,1.96-1.79,1.96c-1.023,0-1.449-0.682-1.449-1.193
		c0-0.512,0.341-1.023,0.938-1.023c0.682,0,0.767,0.341,0.852,0.511c0.256-0.085,0.426-0.341,0.426-0.597
		c0-0.426-0.085-1.619-1.79-1.619c-1.534,0-2.386,1.108-2.386,2.472c0,2.216,1.534,3.665,5.796,7.671l0.085-0.085
		c-0.256-0.597-0.512-1.364-0.512-1.875c0-1.364,0.852-2.983,3.239-2.983c2.301,0,3.239,1.534,3.239,2.983
		c0,1.619-1.279,2.557-2.216,2.557c-0.938,0-1.449-0.512-1.449-1.279c0-0.682,0.511-0.937,0.938-0.937
		c0.426,0,1.023,0.17,0.937,1.023c0.426-0.171,0.937-0.512,0.937-1.364c0-1.108-0.852-2.216-2.387-2.216
		c-1.619,0-2.472,1.023-2.472,2.216c0,0.426,0.17,1.193,0.511,2.045c0.341,0.937,1.023,3.409,1.023,4.944
		c0,1.619-1.023,4.432-3.921,5.284V98.416z M221.69,93.174c0,1.79-3.58,3.58-4.858,3.58c-0.171,0-0.341,0-0.512-0.085
		c0.597-0.341,1.449-1.023,1.96-2.046c0.512-1.108,0.852-2.642,2.131-2.642C221.093,91.981,221.69,92.492,221.69,93.174z
		 M222.542,100.078c-1.108,0-3.41-0.937-4.347-1.108c-0.852-0.17-3.238-0.511-3.238-0.511s2.386-0.341,3.238-0.512
		c0.938-0.17,3.324-1.193,4.347-1.193c1.023,0,2.812,0.256,2.812,1.705C225.355,99.907,223.565,100.078,222.542,100.078z
		 M218.195,102.124c-0.426-1.023-1.278-1.705-1.875-2.046c0.171-0.085,0.341-0.085,0.512-0.085c1.278,0,4.858,1.79,4.858,3.58
		c0,0.682-0.597,1.193-1.278,1.193C219.133,104.766,218.792,103.231,218.195,102.124z"/>
	<path fill="#AE967E" d="M12.699,99.523v-0.085c-2.898-0.81-3.836-3.622-3.836-5.156c0-1.619,0.597-4.091,0.938-5.029
		c0.341-0.852,0.511-1.619,0.511-2.046c0-1.193-0.852-2.216-2.472-2.216c-1.534,0-2.387,1.108-2.387,2.301
		c0,0.767,0.512,1.108,0.937,1.278c-0.085-0.852,0.512-1.023,0.937-1.023c0.426,0,0.937,0.256,0.937,0.937
		c0,0.767-0.511,1.278-1.448,1.278s-2.216-0.937-2.216-2.472c0-1.534,0.937-3.068,3.239-3.068c2.387,0,3.239,1.705,3.239,3.068
		c0,0.426-0.256,1.193-0.512,1.875l0.085,0.085c4.262-4.091,5.796-5.54,5.796-7.756c0-1.364-0.852-2.472-2.386-2.472
		c-1.705,0-1.79,1.193-1.79,1.619c0,0.256,0.17,0.511,0.426,0.597c0.085-0.085,0.171-0.511,0.852-0.511
		c0.682,0,0.937,0.511,0.937,1.023c0,0.512-0.426,1.193-1.449,1.193c-0.937,0-1.79-0.852-1.79-1.875
		c0-2.557,1.961-2.898,2.813-2.898c0.682,0,3.153,0.426,3.153,3.409c0,3.154-3.58,5.625-5.54,7.671l0.085,0.085
		c0.682-0.341,1.364-0.426,2.131-0.426c0.767,0,3.239,0.511,3.239,2.983c0,2.046-1.62,2.813-2.472,2.813
		c-1.108,0-2.387-0.767-2.387-2.046c0-1.108,0.767-1.534,1.278-1.534c0.597,0,1.193,0.256,1.193,0.852
		c0,0.597-0.426,0.852-1.023,0.852c-0.085,0.085-0.341,0-0.511,0c0,0.341,0.256,1.108,1.449,1.108c1.023,0,1.789-0.937,1.789-1.96
		c0-1.108-0.597-2.301-2.642-2.301c-1.961,0-4.091,0.852-4.091,4.602c0,1.193,0.852,4.517,4.602,4.517
		c1.876,0,2.301-0.937,2.301-1.619c0-0.597-0.341-1.108-0.937-1.108c-0.426,0-0.767,0.256-0.852,0.597
		c0.341,0,0.682,0.256,0.682,0.511c0,0.341-0.426,0.597-0.767,0.597c-0.341,0-0.852-0.256-0.852-0.937
		c0-0.511,0.426-1.449,1.534-1.449c1.364,0,1.79,0.938,1.79,1.79c0,1.023-0.597,1.96-1.96,2.259v0.085
		c1.363,0.298,1.96,1.236,1.96,2.344c0,0.767-0.426,1.705-1.79,1.705c-1.108,0-1.619-0.937-1.619-1.449
		c0-0.682,0.597-0.937,0.937-0.937c0.341,0,0.767,0.255,0.767,0.597c0,0.341-0.341,0.511-0.682,0.511
		c0.085,0.341,0.426,0.597,0.767,0.597c0.682,0,1.023-0.426,1.023-1.023c0-0.767-0.426-1.705-2.301-1.705
		c-3.75,0-4.602,3.324-4.602,4.602c0,3.665,2.131,4.517,4.006,4.517c2.131,0,2.727-1.193,2.727-2.301c0-1.023-0.767-1.96-1.789-1.96
		c-1.193,0-1.449,0.852-1.449,1.193c0.17-0.085,0.341-0.085,0.511-0.085c0.597,0,1.023,0.256,1.023,0.852
		c0,0.682-0.597,0.852-1.193,0.852c-0.512,0-1.278-0.426-1.278-1.534c0-1.278,1.278-2.045,2.387-2.045
		c0.767,0,2.472,0.767,2.472,2.812c0,2.472-2.472,2.983-3.239,2.983c-0.767,0-1.449-0.085-2.131-0.341l-0.085,0.085
		c1.96,2.046,5.54,4.432,5.54,7.671c0,2.983-2.472,3.324-3.153,3.324c-0.852,0-2.813-0.341-2.813-2.813
		c0-1.108,0.852-1.96,1.79-1.96c1.023,0,1.449,0.682,1.449,1.193c0,0.512-0.341,1.023-0.937,1.023c-0.682,0-0.767-0.341-0.852-0.511
		c-0.256,0.085-0.426,0.341-0.426,0.597c0,0.426,0.085,1.619,1.79,1.619c1.534,0,2.386-1.108,2.386-2.472
		c0-2.216-1.534-3.665-5.796-7.671l-0.085,0.085c0.256,0.597,0.512,1.364,0.512,1.875c0,1.364-0.852,2.983-3.239,2.983
		c-2.301,0-3.239-1.534-3.239-2.983c0-1.619,1.279-2.557,2.216-2.557s1.448,0.512,1.448,1.279c0,0.682-0.511,0.937-0.937,0.937
		c-0.426,0-1.023-0.17-0.937-1.023c-0.426,0.171-0.937,0.512-0.937,1.364c0,1.108,0.852,2.216,2.387,2.216
		c1.619,0,2.472-1.023,2.472-2.216c0-0.426-0.17-1.193-0.511-2.045c-0.341-0.937-1.023-3.409-1.023-4.944
		c0-1.619,1.023-4.432,3.921-5.284V99.523z M3.665,104.764c0-1.79,3.58-3.58,4.858-3.58c0.171,0,0.341,0,0.512,0.085
		c-0.597,0.341-1.449,1.023-1.96,2.046c-0.512,1.108-0.852,2.642-2.131,2.642C4.262,105.958,3.665,105.446,3.665,104.764z
		 M2.812,97.861c1.108,0,3.41,0.937,4.347,1.108c0.852,0.17,3.238,0.511,3.238,0.511s-2.386,0.341-3.238,0.512
		c-0.937,0.17-3.324,1.193-4.347,1.193C1.79,101.185,0,100.929,0,99.48C0,98.031,1.79,97.861,2.812,97.861z M7.16,95.815
		c0.426,1.023,1.278,1.705,1.875,2.046c-0.171,0.085-0.341,0.085-0.512,0.085c-1.278,0-4.858-1.79-4.858-3.58
		c0-0.682,0.597-1.193,1.278-1.193C6.222,93.173,6.563,94.707,7.16,95.815z"/>
	<g>
		<path fill="#524434" d="M88.894,33.425c0.355,0.988,2.397,1.73,3.745,1.915c-1.142,0.58-1.812,2.441-1.547,3.185
			c-24.336,6.597-45.633,26.246-47.795,60.443c-0.075,2.176-0.055,3.302-0.321,3.3c0.005,0.001-0.016-1.122-0.203-3.325
			C43.203,64.593,63.231,42.31,88.894,33.425z M88.82,38.155c-0.187-0.493,0.313-1.498,0.939-2.245
			c-13.139,4.132-25.051,11.915-33.566,23.35c-1.028,1.393-1.044,1.918-1.047,1.914c0.002,0.002,0.457-0.208,1.216-1.248
			C64.849,49.117,76.359,41.924,88.82,38.155z M119.464,33.473c-0.296,0.895-0.979,1.62-2.222,2.2
			c-1.043,0.593-2.433,0.926-4.007,0.918c-3.121-0.025-6.004-1.36-6.19-3.185c-0.827,0.062-1.652,0.137-2.476,0.226
			c0.078,0.651-0.255,1.339-1.182,1.984c-0.747,0.488-1.866,1.04-3.236,1.278c-1.175,0.203-2.405,0.186-3.187,0.358
			c-1.17,0.259-1.557,0.36-1.874,0.706c-0.244,0.603-0.1,1.107-0.479,1.205c-0.377,0.098-0.83-0.052-1.287-0.197
			c-0.232-0.754-0.546-1.758-0.38-2.621c0.636-0.717,1.78-1.283,3.057-1.298c3.288-0.447,4.056-0.779,3.96-1.312
			c-0.088-0.501-0.942-0.42-4.152,0.548c-1.222,0.272-2.577,0.08-3.214-0.565c-0.969-0.282-1.366-1.534-1.019-1.902
			c-0.076-0.251-0.152-0.503,0.275-0.617c0.427-0.114,0.999,0.281,1.491,0.429c0.497,0.15,1.401,0.195,2.616-0.332
			c0.79-0.441,2.082-0.69,2.943-0.837c3.473-0.588,5.408,0.84,5.931,1.828c0.7-0.071,1.401-0.133,2.103-0.186
			c0.241-1.851,2.778-3.638,6.348-3.62c3.128,0.005,6.091,1.825,6.306,3.688c0.7,0.06,1.4,0.129,2.099,0.208
			c0.276-0.495,0.995-1.074,1.93-1.476c0.932-0.403,2.301-0.605,4.024-0.287c0.858,0.156,2.148,0.42,2.933,0.869
			c1.204,0.54,2.185,0.251,2.61,0.361c0.144-0.505,1.071-0.533,1.497-0.412c0.001,0,0.346,0.369,0.266,0.62
			c0.263,0.623-0.4,1.25-1.04,1.891c-0.648,0.635-2.404,0.71-3.562,0.179c-1.986-0.723-3.293-0.679-3.393-0.168
			c-0.103,0.519,1.111,0.724,3.197,0.931c1.216,0.275,2.746,0.956,2.984,1.571c0.556,0.975,0.219,1.975-0.317,2.368
			c-0.159,0.5-0.613,0.644-0.99,0.542c-0.376-0.102-0.609-0.704-0.464-1.21c-0.312-0.352-1.088-0.548-1.866-0.727
			c-1.168-0.267-2.009-0.173-3.181-0.393c-3.112-0.564-4.5-2.26-4.792-3.357C120.838,33.6,120.151,33.532,119.464,33.473z
			 M101.372,34.572c-0.679,0.901-1.875,1.082-3.864,1.491c-0.265,0.055-0.529,0.111-0.793,0.169
			c0.032,0.128,0.228,0.085,0.259,0.212c0.198-0.043,0.395-0.085,0.593-0.126c2.04-0.151,3.612-0.405,5.143-1.143
			c0.363-0.312,0.289-0.831,0.289-0.831C102.555,34.139,102.141,34.193,101.372,34.572z M109.995,34.551
			c0.432,0.506,2.049,0.977,3.646,0.998c1.198,0.012,2.413-0.464,3.278-1.203c0.424-0.24,0.426-0.239,0.425-0.239
			c-0.393-0.284-0.409-0.023-0.818-0.044c-0.425,0.24-1.656,0.455-2.467,0.445c-1.219-0.018-2.03-0.27-2.865-0.778
			c-0.837-0.504-1.258-0.486-1.657-0.208C109.137,33.802,109.159,34.06,109.995,34.551z M123.777,35.288
			c1.521,0.755,3.09,1.025,5.127,1.199c0.395,0.086,0.788,0.177,0.853-0.077c-0.263-0.061-0.527-0.12-0.791-0.178
			c-2.383-0.508-3.174-0.623-4.25-1.598c-0.361-0.321-0.772-0.382-1.22-0.181C123.496,34.454,123.417,34.972,123.777,35.288z
			 M182.662,99.501c0.027,0.913,0.042,1.835,0.042,2.767c-0.27,0.006-0.237-0.016-0.303-2.757
			c-1.963-34.525-23.35-54.35-47.812-60.986c0.348-0.994-0.409-2.606-1.548-3.185c1.751-0.07,3.392-0.922,3.745-1.915
			C162.564,42.436,182.531,64.96,182.662,99.501z M169.573,60.275c0.753,1.047,1.206,1.26,1.208,1.258
			c-0.003,0.004-0.015-0.522-1.036-1.925c-8.361-11.393-20.072-19.207-33.028-23.443c0.618,0.754,1.105,1.764,0.912,2.255
			C149.917,42.285,161.234,49.507,169.573,60.275z"/>
	</g>
	<g>
		<path fill="#524434" d="M138.712,166.514c-0.355-0.988-2.397-1.73-3.745-1.915c1.142-0.58,1.812-2.441,1.547-3.185
			c24.336-6.597,45.633-26.246,47.795-60.443c0.075-2.176,0.055-3.302,0.321-3.3c-0.005-0.001,0.016,1.122,0.203,3.325
			C184.404,135.346,164.376,157.629,138.712,166.514z M138.787,161.784c0.187,0.493-0.313,1.498-0.939,2.245
			c13.139-4.132,25.051-11.915,33.566-23.35c1.028-1.393,1.044-1.918,1.047-1.914c-0.002-0.001-0.457,0.208-1.216,1.248
			C162.757,150.822,151.248,158.015,138.787,161.784z M108.143,166.466c0.296-0.895,0.979-1.62,2.222-2.2
			c1.043-0.593,2.433-0.926,4.007-0.918c3.121,0.025,6.004,1.36,6.19,3.185c0.827-0.062,1.652-0.137,2.476-0.226
			c-0.078-0.651,0.255-1.339,1.182-1.984c0.747-0.488,1.866-1.04,3.236-1.278c1.175-0.202,2.405-0.186,3.187-0.358
			c1.17-0.259,1.557-0.36,1.874-0.706c0.244-0.603,0.1-1.107,0.479-1.205c0.377-0.098,0.83,0.052,1.287,0.197
			c0.232,0.754,0.546,1.758,0.38,2.621c-0.636,0.717-1.78,1.283-3.057,1.298c-3.288,0.447-4.056,0.779-3.96,1.312
			c0.088,0.501,0.942,0.42,4.152-0.548c1.222-0.272,2.577-0.08,3.214,0.565c0.969,0.282,1.366,1.534,1.019,1.902
			c0.076,0.251,0.152,0.503-0.275,0.617c-0.427,0.114-0.999-0.281-1.491-0.429c-0.497-0.15-1.401-0.195-2.616,0.332
			c-0.79,0.441-2.081,0.69-2.943,0.837c-3.473,0.588-5.408-0.84-5.931-1.828c-0.7,0.071-1.401,0.133-2.103,0.186
			c-0.241,1.851-2.778,3.638-6.348,3.62c-3.128-0.005-6.091-1.825-6.306-3.688c-0.7-0.06-1.4-0.129-2.099-0.208
			c-0.276,0.495-0.995,1.074-1.93,1.476c-0.932,0.403-2.301,0.605-4.024,0.287c-0.858-0.156-2.149-0.42-2.933-0.869
			c-1.204-0.54-2.185-0.251-2.61-0.361c-0.144,0.505-1.071,0.533-1.497,0.412c-0.001,0-0.346-0.369-0.266-0.62
			c-0.263-0.623,0.4-1.25,1.04-1.891c0.648-0.635,2.404-0.71,3.562-0.179c1.986,0.723,3.293,0.679,3.393,0.168
			c0.103-0.519-1.111-0.724-3.197-0.931c-1.216-0.275-2.746-0.956-2.984-1.571c-0.556-0.975-0.219-1.975,0.317-2.368
			c0.159-0.5,0.613-0.644,0.99-0.542c0.376,0.102,0.609,0.704,0.464,1.21c0.312,0.352,1.088,0.548,1.866,0.727
			c1.168,0.267,2.009,0.173,3.181,0.393c3.112,0.564,4.5,2.26,4.792,3.357C106.769,166.339,107.455,166.407,108.143,166.466z
			 M126.235,165.366c0.679-0.901,1.875-1.082,3.864-1.491c0.265-0.055,0.529-0.111,0.793-0.169
			c-0.032-0.128-0.228-0.085-0.259-0.212c-0.198,0.043-0.395,0.085-0.593,0.126c-2.04,0.151-3.612,0.405-5.143,1.143
			c-0.363,0.312-0.289,0.831-0.289,0.831C125.052,165.8,125.466,165.746,126.235,165.366z M117.611,165.388
			c-0.432-0.506-2.049-0.977-3.646-0.998c-1.198-0.012-2.413,0.464-3.278,1.203c-0.424,0.24-0.426,0.239-0.425,0.239
			c0.393,0.284,0.409,0.023,0.818,0.044c0.425-0.24,1.656-0.455,2.467-0.445c1.219,0.018,2.03,0.27,2.865,0.777
			c0.837,0.504,1.258,0.486,1.657,0.208C118.469,166.137,118.447,165.879,117.611,165.388z M103.829,164.65
			c-1.521-0.755-3.09-1.025-5.127-1.199c-0.395-0.086-0.788-0.177-0.853,0.077c0.263,0.061,0.527,0.12,0.791,0.178
			c2.383,0.508,3.174,0.623,4.25,1.598c0.361,0.321,0.772,0.382,1.22,0.181C104.11,165.485,104.19,164.967,103.829,164.65z
			 M44.944,100.437c-0.027-0.913-0.042-1.835-0.042-2.767c0.27-0.006,0.237,0.016,0.303,2.757
			c1.963,34.525,23.35,54.35,47.812,60.986c-0.348,0.994,0.409,2.606,1.548,3.185c-1.751,0.07-3.392,0.922-3.745,1.915
			C65.043,157.503,45.076,134.979,44.944,100.437z M58.034,139.664c-0.753-1.047-1.206-1.26-1.208-1.258
			c0.003-0.004,0.015,0.522,1.036,1.925c8.361,11.393,20.072,19.207,33.028,23.443c-0.618-0.754-1.105-1.764-0.912-2.255
			C77.69,157.653,66.372,150.432,58.034,139.664z"/>
	</g>
	<circle fill="#302516" stroke="#524434" stroke-width="2.2505" stroke-miterlimit="10" cx="112.481" cy="98.459" r="54.386"/>
	<circle fill="none" stroke="#AE967E" stroke-width="1.2465" stroke-miterlimit="10" cx="112.788" cy="98.766" r="90.369"/>
	<path fill="#302516" d="M112.774,188.712c-49.341,0-89.482-40.142-89.482-89.482c0-49.34,40.142-89.481,89.482-89.481
		s89.482,40.142,89.482,89.481C202.255,148.57,162.114,188.712,112.774,188.712z M112.774,19.902
		c-43.742,0-79.328,35.586-79.328,79.327s35.586,79.328,79.328,79.328c43.741,0,79.328-35.587,79.328-79.328
		S156.515,19.902,112.774,19.902z"/>
	<line fill="none" stroke="#AE967E" stroke-miterlimit="10" x1="112.303" y1="8.135" x2="112.303" y2="22.135"/>
	<line fill="none" stroke="#AE967E" stroke-miterlimit="10" x1="203.803" y1="98.635" x2="189.803" y2="98.635"/>
	<line fill="none" stroke="#AE967E" stroke-miterlimit="10" x1="113.303" y1="190.135" x2="113.303" y2="176.135"/>
	<line fill="none" stroke="#AE967E" stroke-miterlimit="10" x1="21.803" y1="99.635" x2="35.803" y2="99.635"/>
	<line fill="none" stroke="#AE967E" stroke-miterlimit="10" x1="176.796" y1="34.435" x2="166.897" y2="44.334"/>
	<line fill="none" stroke="#AE967E" stroke-miterlimit="10" x1="177.504" y1="163.128" x2="167.604" y2="153.228"/>
	<line fill="none" stroke="#AE967E" stroke-miterlimit="10" x1="48.81" y1="163.835" x2="58.71" y2="153.936"/>
	<line fill="none" stroke="#AE967E" stroke-miterlimit="10" x1="48.103" y1="35.142" x2="58.003" y2="45.041"/>
	<line fill="none" stroke="#AE967E" stroke-miterlimit="10" x1="128.116" y1="9.431" x2="126.727" y2="17.309"/>
	<line fill="none" stroke="#AE967E" stroke-miterlimit="10" x1="143.453" y1="13.45" x2="140.717" y2="20.968"/>
	<line fill="none" stroke="#AE967E" stroke-miterlimit="10" x1="157.86" y1="20.07" x2="153.861" y2="26.999"/>
	<line fill="none" stroke="#AE967E" stroke-miterlimit="10" x1="170.899" y1="29.091" x2="165.758" y2="35.22"/>
	<line fill="none" stroke="#AE967E" stroke-miterlimit="10" x1="182.174" y1="40.237" x2="176.047" y2="45.381"/>
	<line fill="none" stroke="#AE967E" stroke-miterlimit="10" x1="191.344" y1="53.171" x2="184.417" y2="57.174"/>
	<line fill="none" stroke="#AE967E" stroke-miterlimit="10" x1="198.129" y1="67.501" x2="190.613" y2="70.241"/>
	<line fill="none" stroke="#AE967E" stroke-miterlimit="10" x1="202.325" y1="82.791" x2="194.447" y2="84.184"/>
	<line fill="none" stroke="#AE967E" stroke-miterlimit="10" x1="203.803" y1="98.576" x2="195.803" y2="98.582"/>
	<line fill="none" stroke="#AE967E" stroke-miterlimit="10" x1="202.519" y1="114.379" x2="194.639" y2="112.996"/>
	<line fill="none" stroke="#AE967E" stroke-miterlimit="10" x1="198.511" y1="129.719" x2="190.991" y2="126.989"/>
	<line fill="none" stroke="#AE967E" stroke-miterlimit="10" x1="191.902" y1="144.131" x2="184.97" y2="140.137"/>
	<line fill="none" stroke="#AE967E" stroke-miterlimit="10" x1="182.892" y1="157.177" x2="176.758" y2="152.041"/>
	<line fill="none" stroke="#AE967E" stroke-miterlimit="10" x1="171.754" y1="168.461" x2="166.605" y2="162.338"/>
	<line fill="none" stroke="#AE967E" stroke-miterlimit="10" x1="158.826" y1="177.64" x2="154.819" y2="170.717"/>
	<line fill="none" stroke="#AE967E" stroke-miterlimit="10" x1="144.502" y1="184.437" x2="141.757" y2="176.923"/>
	<line fill="none" stroke="#AE967E" stroke-miterlimit="10" x1="129.216" y1="188.644" x2="127.816" y2="180.767"/>
	<line fill="none" stroke="#AE967E" stroke-miterlimit="10" x1="113.431" y1="190.134" x2="113.42" y2="182.134"/>
	<line fill="none" stroke="#AE967E" stroke-miterlimit="10" x1="97.627" y1="188.862" x2="99.005" y2="180.981"/>
	<line fill="none" stroke="#AE967E" stroke-miterlimit="10" x1="82.284" y1="184.866" x2="85.008" y2="177.344"/>
	<line fill="none" stroke="#AE967E" stroke-miterlimit="10" x1="67.867" y1="178.268" x2="71.856" y2="171.333"/>
	<line fill="none" stroke="#AE967E" stroke-miterlimit="10" x1="54.815" y1="169.267" x2="59.946" y2="163.13"/>
	<line fill="none" stroke="#AE967E" stroke-miterlimit="10" x1="43.522" y1="158.138" x2="49.641" y2="152.985"/>
	<line fill="none" stroke="#AE967E" stroke-miterlimit="10" x1="34.333" y1="145.218" x2="41.253" y2="141.205"/>
	<line fill="none" stroke="#AE967E" stroke-miterlimit="10" x1="27.525" y1="130.899" x2="35.038" y2="128.147"/>
	<line fill="none" stroke="#AE967E" stroke-miterlimit="10" x1="23.307" y1="115.615" x2="31.182" y2="114.21"/>
	<line fill="none" stroke="#AE967E" stroke-miterlimit="10" x1="21.805" y1="99.832" x2="29.805" y2="99.814"/>
	<line fill="none" stroke="#AE967E" stroke-miterlimit="10" x1="23.065" y1="84.027" x2="30.946" y2="85.398"/>
	<line fill="none" stroke="#AE967E" stroke-miterlimit="10" x1="27.049" y1="68.681" x2="34.573" y2="71.399"/>
	<line fill="none" stroke="#AE967E" stroke-miterlimit="10" x1="33.636" y1="54.259" x2="40.574" y2="58.242"/>
	<line fill="none" stroke="#AE967E" stroke-miterlimit="10" x1="42.627" y1="41.2" x2="48.768" y2="46.326"/>
	<line fill="none" stroke="#AE967E" stroke-miterlimit="10" x1="53.747" y1="29.899" x2="58.905" y2="36.014"/>
	<line fill="none" stroke="#AE967E" stroke-miterlimit="10" x1="66.661" y1="20.699" x2="70.679" y2="27.617"/>
	<line fill="none" stroke="#AE967E" stroke-miterlimit="10" x1="80.975" y1="13.881" x2="83.731" y2="21.391"/>
	<line fill="none" stroke="#AE967E" stroke-miterlimit="10" x1="96.255" y1="9.651" x2="97.666" y2="17.525"/>
	<g>
		<path fill="#524434" d="M100.891,166.783c0-1.203,0.24-2.888,0.482-4.091c-1.444,0.241-3.369,0.481-4.813,0.481
			c-2.167,0-5.294-0.962-8.423-2.406c16.605-9.626,19.01-19.973,19.01-24.546c0-1.925-0.24-2.647-0.722-3.85
			c-2.887,7.219-9.143,12.032-17.326,14.198c2.407-3.609,3.369-10.106,3.369-12.753c0-2.166,0-5.776-3.849-12.032
			c13.234-3.61,18.77-7.46,21.175-15.642c-2.405-0.962-4.09-3.369-4.09-6.257c0-3.85,3.369-6.978,7.218-6.978
			c3.609,0,6.978,3.128,6.978,6.978c0,2.888-1.685,5.295-4.331,6.257c2.647,8.182,8.182,12.032,21.417,15.642
			c-3.849,6.256-3.849,9.866-3.849,12.032c0,2.647,0.962,9.144,3.369,12.753c-8.182-2.166-14.439-6.978-17.327-14.198
			c-0.48,1.203-0.721,1.926-0.721,3.85c0,4.572,2.405,14.92,19.01,24.546c-3.129,1.444-6.258,2.406-8.423,2.406
			c-1.444,0-3.369-0.24-4.813-0.481c0.242,1.203,0.482,2.888,0.482,4.091c0,3.128-0.722,16.604-11.792,32.486
			C101.614,183.387,100.891,169.911,100.891,166.783z M108.352,99.885c0,2.647,1.925,4.331,4.572,4.331
			c2.407,0,4.331-1.685,4.331-4.331s-1.925-4.331-4.331-4.331C110.276,95.553,108.352,97.238,108.352,99.885z M121.346,166.783
			c0-2.648-0.482-5.295-0.722-7.941c2.887,0.722,5.536,0.962,6.498,0.962s2.407,0,3.127-0.24
			c-6.978-3.369-15.159-12.995-15.159-22.861c0-5.053,1.925-8.422,4.572-10.588c1.925,7.459,7.218,12.513,11.55,15.16l0.242-0.241
			c-1.444-2.166-1.925-6.016-1.925-8.182c0-1.925,1.203-6.256,2.887-9.144c-12.994-3.85-18.288-10.588-19.252-17.085h-0.24h-0.48
			c-0.964,6.497-6.258,13.235-19.252,17.085c1.685,2.888,2.887,7.219,2.887,9.144c0,2.166-0.48,6.016-1.925,8.182l0.24,0.241
			c4.333-2.647,9.627-7.7,11.552-15.16c2.647,2.166,4.572,5.535,4.572,10.588c0,9.866-8.181,19.492-15.159,22.861
			c0.721,0.24,2.165,0.24,3.127,0.24c0.962,0,3.609-0.24,6.498-0.962c-0.24,2.647-0.722,5.294-0.722,7.941
			c0,2.887,1.444,16.122,8.663,26.229C119.902,182.424,121.346,169.67,121.346,166.783z"/>
		<path fill="#524434" d="M124.715,32.486c0,1.203-0.24,2.888-0.482,4.091c1.444-0.241,3.369-0.481,4.813-0.481
			c2.167,0,5.294,0.962,8.423,2.406c-16.605,9.626-19.01,19.973-19.01,24.546c0,1.925,0.24,2.647,0.722,3.85
			c2.887-7.219,9.143-12.032,17.326-14.198c-2.407,3.609-3.369,10.106-3.369,12.753c0,2.166,0,5.776,3.849,12.032
			c-13.234,3.61-18.77,7.46-21.175,15.642c2.405,0.962,4.09,3.369,4.09,6.257c0,3.85-3.369,6.978-7.218,6.978
			c-3.609,0-6.978-3.128-6.978-6.978c0-2.888,1.685-5.295,4.331-6.257c-2.647-8.182-8.182-12.032-21.417-15.642
			c3.849-6.256,3.849-9.866,3.849-12.032c0-2.647-0.962-9.144-3.369-12.753c8.182,2.166,14.439,6.978,17.327,14.198
			c0.48-1.203,0.721-1.926,0.721-3.85c0-4.572-2.405-14.92-19.01-24.546c3.129-1.444,6.258-2.406,8.423-2.406
			c1.444,0,3.369,0.24,4.813,0.481c-0.242-1.203-0.482-2.888-0.482-4.091c0-3.128,0.722-16.604,11.792-32.486
			C123.993,15.882,124.715,29.358,124.715,32.486z M117.255,99.385c0-2.647-1.925-4.331-4.572-4.331
			c-2.407,0-4.331,1.685-4.331,4.331s1.925,4.331,4.331,4.331C115.33,103.716,117.255,102.032,117.255,99.385z M104.261,32.486
			c0,2.648,0.482,5.295,0.722,7.941c-2.887-0.722-5.536-0.962-6.498-0.962c-0.962,0-2.407,0-3.127,0.24
			c6.978,3.369,15.159,12.995,15.159,22.861c0,5.053-1.925,8.422-4.572,10.588c-1.925-7.459-7.218-12.513-11.55-15.16l-0.242,0.241
			c1.444,2.166,1.925,6.016,1.925,8.182c0,1.925-1.203,6.256-2.887,9.144c12.994,3.85,18.288,10.588,19.252,17.085h0.24h0.48
			c0.964-6.497,6.258-13.235,19.252-17.085c-1.685-2.888-2.887-7.219-2.887-9.144c0-2.166,0.48-6.016,1.925-8.182l-0.24-0.241
			c-4.333,2.647-9.627,7.7-11.552,15.16c-2.647-2.166-4.572-5.535-4.572-10.588c0-9.866,8.181-19.492,15.159-22.861
			c-0.721-0.24-2.165-0.24-3.127-0.24s-3.609,0.24-6.498,0.962c0.24-2.647,0.722-5.294,0.722-7.941
			c0-2.887-1.444-16.122-8.663-26.229C105.705,16.845,104.261,29.599,104.261,32.486z"/>
	</g>
	<g>
		<path fill="#524434" d="M45.655,87.723c1.203,0,2.888,0.24,4.091,0.482c-0.241-1.444-0.481-3.369-0.481-4.813
			c0-2.167,0.962-5.294,2.406-8.423c9.626,16.605,19.973,19.01,24.546,19.01c1.925,0,2.647-0.24,3.85-0.722
			c-7.219-2.887-12.032-9.143-14.198-17.326c3.609,2.407,10.106,3.369,12.753,3.369c2.166,0,5.776,0,12.032-3.849
			c3.61,13.234,7.46,18.77,15.642,21.175c0.962-2.405,3.369-4.09,6.257-4.09c3.85,0,6.978,3.369,6.978,7.218
			c0,3.609-3.128,6.978-6.978,6.978c-2.888,0-5.295-1.685-6.257-4.331c-8.182,2.647-12.032,8.182-15.642,21.417
			c-6.256-3.849-9.866-3.849-12.032-3.849c-2.647,0-9.144,0.962-12.753,3.369c2.166-8.182,6.978-14.439,14.198-17.327
			c-1.203-0.48-1.926-0.721-3.85-0.721c-4.572,0-14.92,2.405-24.546,19.01c-1.444-3.129-2.406-6.258-2.406-8.423
			c0-1.444,0.24-3.369,0.481-4.813c-1.203,0.242-2.888,0.482-4.091,0.482c-3.128,0-16.604-0.722-32.486-11.792
			C29.051,88.445,42.527,87.723,45.655,87.723z M112.553,95.183c-2.647,0-4.331,1.925-4.331,4.572c0,2.407,1.685,4.331,4.331,4.331
			s4.331-1.925,4.331-4.331C116.885,97.108,115.2,95.183,112.553,95.183z M45.655,108.178c2.648,0,5.295-0.482,7.941-0.722
			c-0.722,2.887-0.962,5.536-0.962,6.498c0,0.962,0,2.407,0.24,3.127c3.369-6.978,12.995-15.159,22.861-15.159
			c5.053,0,8.422,1.925,10.588,4.572c-7.459,1.925-12.513,7.218-15.16,11.55l0.241,0.242c2.166-1.444,6.016-1.925,8.182-1.925
			c1.925,0,6.256,1.203,9.144,2.887c3.85-12.994,10.588-18.288,17.085-19.252v-0.24v-0.48c-6.497-0.964-13.235-6.258-17.085-19.252
			c-2.888,1.685-7.219,2.887-9.144,2.887c-2.166,0-6.016-0.48-8.182-1.925l-0.241,0.24c2.647,4.333,7.7,9.627,15.16,11.552
			c-2.166,2.647-5.535,4.572-10.588,4.572c-9.866,0-19.492-8.181-22.861-15.159c-0.24,0.721-0.24,2.165-0.24,3.127
			s0.24,3.609,0.962,6.498c-2.647-0.24-5.294-0.722-7.941-0.722c-2.887,0-16.122,1.444-26.229,8.663
			C30.014,106.733,42.768,108.178,45.655,108.178z"/>
		<path fill="#524434" d="M179.952,111.547c-1.203,0-2.888-0.24-4.091-0.482c0.241,1.444,0.481,3.369,0.481,4.813
			c0,2.167-0.962,5.294-2.406,8.423c-9.626-16.605-19.973-19.01-24.546-19.01c-1.925,0-2.647,0.24-3.85,0.722
			c7.219,2.887,12.032,9.143,14.198,17.326c-3.609-2.407-10.106-3.369-12.753-3.369c-2.166,0-5.776,0-12.032,3.849
			c-3.61-13.234-7.46-18.77-15.642-21.175c-0.962,2.405-3.369,4.09-6.257,4.09c-3.85,0-6.978-3.369-6.978-7.218
			c0-3.609,3.128-6.978,6.978-6.978c2.888,0,5.295,1.685,6.257,4.331c8.182-2.647,12.032-8.182,15.642-21.417
			c6.256,3.849,9.866,3.849,12.032,3.849c2.647,0,9.144-0.962,12.753-3.369c-2.166,8.182-6.978,14.439-14.198,17.327
			c1.203,0.48,1.926,0.721,3.85,0.721c4.572,0,14.92-2.405,24.546-19.01c1.444,3.129,2.406,6.258,2.406,8.423
			c0,1.444-0.24,3.369-0.481,4.813c1.203-0.242,2.888-0.482,4.091-0.482c3.128,0,16.604,0.722,32.486,11.792
			C196.556,110.824,183.08,111.547,179.952,111.547z M113.053,104.086c2.647,0,4.331-1.925,4.331-4.572
			c0-2.407-1.685-4.331-4.331-4.331s-4.331,1.925-4.331,4.331C108.722,102.162,110.406,104.086,113.053,104.086z M179.952,91.092
			c-2.648,0-5.295,0.482-7.941,0.722c0.722-2.887,0.962-5.536,0.962-6.498s0-2.407-0.24-3.127
			c-3.369,6.978-12.995,15.159-22.861,15.159c-5.053,0-8.422-1.925-10.588-4.572c7.459-1.925,12.513-7.218,15.16-11.55l-0.241-0.242
			c-2.166,1.444-6.016,1.925-8.182,1.925c-1.925,0-6.256-1.203-9.144-2.887c-3.85,12.994-10.588,18.288-17.085,19.252v0.24v0.48
			c6.497,0.964,13.235,6.258,17.085,19.252c2.888-1.685,7.219-2.887,9.144-2.887c2.166,0,6.016,0.48,8.182,1.925l0.241-0.24
			c-2.647-4.333-7.7-9.627-15.16-11.552c2.166-2.647,5.535-4.572,10.588-4.572c9.866,0,19.492,8.181,22.861,15.159
			c0.24-0.721,0.24-2.165,0.24-3.127c0-0.962-0.24-3.609-0.962-6.498c2.647,0.24,5.294,0.722,7.941,0.722
			c2.887,0,16.122-1.444,26.229-8.663C195.593,92.536,182.839,91.092,179.952,91.092z"/>
	</g>
	<g>
		<path fill="#524434" d="M73.745,43.731c0.851,0.851,1.872,2.212,2.552,3.234c0.851-1.192,2.042-2.723,3.063-3.744
			c1.532-1.532,4.424-3.063,7.657-4.254c-4.935,18.548,0.681,27.566,3.914,30.799c1.361,1.361,2.041,1.702,3.233,2.212
			c-3.063-7.146-2.043-14.973,2.212-22.29c0.85,4.254,4.764,9.529,6.636,11.4c1.531,1.531,4.084,4.084,11.23,5.786
			c-6.805,11.911-7.997,18.548-3.913,26.034c2.381-1.02,5.274-0.51,7.316,1.533c2.723,2.723,2.552,7.317-0.17,10.039
			c-2.552,2.552-7.146,2.723-9.869,0c-2.042-2.042-2.553-4.935-1.362-7.487c-7.657-3.914-14.294-2.722-26.205,4.084
			c-1.702-7.146-4.254-9.698-5.786-11.23c-1.872-1.872-7.146-5.785-11.4-6.636c7.317-4.254,15.144-5.275,22.291-2.213
			c-0.511-1.191-0.852-1.871-2.213-3.232c-3.233-3.233-12.251-8.849-30.799-3.914c1.192-3.233,2.724-6.126,4.254-7.657
			c1.021-1.021,2.552-2.212,3.744-3.063c-1.022-0.68-2.383-1.701-3.234-2.552c-2.212-2.212-11.23-12.252-14.633-31.309
			C61.493,32.5,71.533,41.519,73.745,43.731z M115.774,96.31c-1.872-1.872-4.424-1.702-6.295,0.17c-1.702,1.702-1.872,4.254,0,6.126
			c1.872,1.872,4.424,1.702,6.126,0C117.476,100.734,117.646,98.182,115.774,96.31z M59.282,58.194
			c1.872,1.872,4.085,3.403,6.126,5.105c-2.552,1.531-4.595,3.234-5.275,3.914s-1.702,1.702-2.041,2.381
			c7.317-2.552,19.908-1.53,26.884,5.446c3.573,3.573,4.594,7.316,4.254,10.719c-6.636-3.914-13.952-3.744-18.887-2.553
			l-0.001,0.341c2.553,0.51,5.615,2.893,7.146,4.424c1.361,1.361,3.573,5.274,4.424,8.507c11.911-6.466,20.419-5.444,25.694-1.532
			l0.17-0.17l0.34-0.34c-3.913-5.276-4.934-13.784,1.532-25.694c-3.233-0.851-7.146-3.063-8.507-4.424
			c-1.531-1.531-3.914-4.594-4.424-7.146l-0.34-0.001c-1.192,4.936-1.362,12.252,2.552,18.888c-3.403,0.34-7.146-0.681-10.719-4.254
			c-6.976-6.976-7.998-19.568-5.446-26.884c-0.679,0.34-1.701,1.361-2.381,2.041S78,49.686,76.468,52.239
			c-1.702-2.041-3.233-4.254-5.105-6.126c-2.041-2.041-12.421-10.379-24.673-12.422C49.243,46.113,57.24,56.153,59.282,58.194z"/>
		<path fill="#524434" d="M151.861,155.539c-0.851-0.851-1.872-2.212-2.552-3.234c-0.851,1.192-2.042,2.723-3.063,3.744
			c-1.532,1.532-4.424,3.063-7.657,4.254c4.935-18.548-0.681-27.566-3.914-30.799c-1.361-1.361-2.041-1.702-3.233-2.212
			c3.063,7.146,2.043,14.973-2.212,22.29c-0.85-4.254-4.764-9.529-6.636-11.4c-1.531-1.531-4.084-4.084-11.23-5.786
			c6.805-11.911,7.997-18.548,3.913-26.034c-2.381,1.02-5.274,0.51-7.316-1.533c-2.723-2.723-2.552-7.317,0.17-10.039
			c2.552-2.552,7.146-2.723,9.869,0c2.042,2.042,2.553,4.935,1.362,7.487c7.657,3.914,14.294,2.722,26.205-4.084
			c1.702,7.146,4.254,9.698,5.786,11.23c1.872,1.872,7.146,5.785,11.4,6.636c-7.317,4.254-15.144,5.275-22.291,2.213
			c0.511,1.191,0.852,1.871,2.213,3.232c3.233,3.233,12.251,8.849,30.799,3.914c-1.192,3.233-2.724,6.126-4.254,7.657
			c-1.021,1.021-2.552,2.212-3.744,3.063c1.022,0.68,2.383,1.701,3.234,2.552c2.212,2.212,11.23,12.252,14.633,31.309
			C164.113,166.769,154.073,157.751,151.861,155.539z M109.832,102.959c1.872,1.872,4.424,1.702,6.295-0.17
			c1.702-1.702,1.872-4.254,0-6.126c-1.872-1.872-4.424-1.702-6.126,0C108.131,98.535,107.961,101.088,109.832,102.959z
			 M166.325,141.075c-1.872-1.872-4.085-3.403-6.126-5.105c2.552-1.531,4.595-3.234,5.275-3.914c0.68-0.68,1.702-1.702,2.041-2.381
			c-7.317,2.552-19.908,1.53-26.884-5.446c-3.573-3.573-4.594-7.316-4.254-10.719c6.636,3.914,13.952,3.744,18.887,2.553
			l0.001-0.341c-2.553-0.51-5.615-2.893-7.146-4.424c-1.361-1.361-3.573-5.274-4.424-8.507c-11.911,6.466-20.419,5.444-25.694,1.532
			l-0.17,0.17l-0.34,0.34c3.913,5.276,4.934,13.784-1.532,25.694c3.233,0.851,7.146,3.063,8.507,4.424
			c1.531,1.531,3.914,4.594,4.424,7.146l0.34,0.001c1.192-4.936,1.362-12.252-2.552-18.888c3.403-0.34,7.146,0.681,10.719,4.254
			c6.976,6.976,7.998,19.568,5.446,26.884c0.679-0.34,1.701-1.361,2.381-2.041c0.68-0.68,2.382-2.722,3.914-5.275
			c1.702,2.041,3.233,4.254,5.105,6.126c2.041,2.041,12.422,10.379,24.673,12.421C176.364,153.156,168.366,143.117,166.325,141.075z
			"/>
	</g>
	<g>
		<path fill="#524434" d="M168.707,60.577c-0.851,0.851-2.212,1.872-3.234,2.552c1.192,0.851,2.723,2.042,3.744,3.063
			c1.532,1.532,3.063,4.424,4.254,7.657c-18.548-4.935-27.566,0.681-30.799,3.914c-1.361,1.361-1.702,2.041-2.212,3.233
			c7.146-3.063,14.973-2.043,22.29,2.212c-4.254,0.85-9.529,4.764-11.4,6.636c-1.531,1.531-4.084,4.084-5.786,11.23
			c-11.911-6.805-18.548-7.997-26.034-3.913c1.02,2.381,0.51,5.274-1.533,7.316c-2.723,2.723-7.317,2.552-10.039-0.17
			c-2.552-2.552-2.723-7.146,0-9.869c2.042-2.042,4.935-2.553,7.487-1.362c3.914-7.657,2.722-14.294-4.084-26.205
			c7.146-1.702,9.698-4.254,11.23-5.786c1.872-1.872,5.785-7.146,6.636-11.4c4.254,7.317,5.275,15.144,2.213,22.291
			c1.191-0.511,1.871-0.852,3.232-2.213c3.233-3.233,8.849-12.251,3.914-30.799c3.233,1.192,6.126,2.724,7.657,4.254
			c1.021,1.021,2.212,2.552,3.063,3.744c0.68-1.022,1.701-2.383,2.552-3.234c2.212-2.212,12.252-11.23,31.309-14.633
			C179.938,48.325,170.919,58.365,168.707,60.577z M116.128,102.606c1.872-1.872,1.702-4.424-0.17-6.295
			c-1.702-1.702-4.254-1.872-6.126,0c-1.872,1.872-1.702,4.424,0,6.126C111.704,104.307,114.256,104.477,116.128,102.606z
			 M154.244,46.113c-1.872,1.872-3.403,4.085-5.105,6.126c-1.531-2.552-3.234-4.595-3.914-5.275c-0.68-0.68-1.702-1.702-2.381-2.041
			c2.552,7.317,1.53,19.908-5.446,26.884c-3.573,3.573-7.316,4.594-10.719,4.254c3.914-6.636,3.744-13.952,2.553-18.887
			l-0.341-0.001c-0.51,2.553-2.893,5.615-4.424,7.146c-1.361,1.361-5.274,3.573-8.507,4.424c6.466,11.911,5.444,20.419,1.532,25.694
			l0.17,0.17l0.34,0.34c5.276-3.913,13.784-4.934,25.694,1.532c0.851-3.233,3.063-7.146,4.424-8.507
			c1.531-1.531,4.594-3.914,7.146-4.424l0.001-0.34c-4.936-1.192-12.252-1.362-18.888,2.552c-0.34-3.403,0.681-7.146,4.254-10.719
			c6.976-6.976,19.568-7.998,26.884-5.446c-0.34-0.679-1.361-1.701-2.041-2.381c-0.68-0.68-2.722-2.382-5.275-3.914
			c2.041-1.702,4.254-3.233,6.126-5.105c2.041-2.041,10.379-12.422,12.421-24.673C166.325,36.074,156.285,44.072,154.244,46.113z"/>
		<path fill="#524434" d="M56.899,138.693c0.851-0.851,2.212-1.872,3.234-2.552c-1.192-0.851-2.723-2.042-3.744-3.063
			c-1.532-1.532-3.063-4.424-4.254-7.657c18.548,4.935,27.566-0.681,30.799-3.914c1.361-1.361,1.702-2.041,2.212-3.233
			c-7.146,3.063-14.973,2.043-22.29-2.212c4.254-0.85,9.529-4.764,11.4-6.636c1.531-1.531,4.084-4.084,5.786-11.23
			c11.911,6.805,18.548,7.997,26.034,3.913c-1.02-2.381-0.51-5.274,1.533-7.316c2.723-2.723,7.317-2.552,10.039,0.17
			c2.552,2.552,2.723,7.146,0,9.869c-2.042,2.042-4.935,2.553-7.487,1.362c-3.914,7.657-2.722,14.294,4.084,26.205
			c-7.146,1.702-9.698,4.254-11.23,5.786c-1.872,1.872-5.785,7.146-6.636,11.4c-4.254-7.317-5.275-15.144-2.213-22.291
			c-1.191,0.511-1.871,0.852-3.232,2.213c-3.233,3.233-8.849,12.251-3.914,30.799c-3.233-1.192-6.126-2.724-7.657-4.254
			c-1.021-1.021-2.212-2.552-3.063-3.744c-0.68,1.022-1.701,2.383-2.552,3.234c-2.212,2.212-12.252,11.23-31.309,14.633
			C45.669,150.945,54.687,140.905,56.899,138.693z M109.479,96.664c-1.872,1.872-1.702,4.424,0.17,6.295
			c1.702,1.702,4.254,1.872,6.126,0c1.872-1.872,1.702-4.424,0-6.126C113.903,94.962,111.35,94.792,109.479,96.664z M71.363,153.156
			c1.872-1.872,3.403-4.085,5.105-6.126c1.531,2.552,3.234,4.595,3.914,5.275c0.68,0.68,1.702,1.702,2.381,2.041
			c-2.552-7.317-1.53-19.908,5.446-26.884c3.573-3.573,7.316-4.594,10.719-4.254c-3.914,6.636-3.744,13.952-2.553,18.887
			l0.341,0.001c0.51-2.553,2.893-5.615,4.424-7.146c1.361-1.361,5.274-3.573,8.507-4.424c-6.466-11.911-5.444-20.419-1.532-25.694
			l-0.17-0.17l-0.34-0.34c-5.276,3.913-13.784,4.934-25.694-1.532c-0.851,3.233-3.063,7.146-4.424,8.507
			c-1.531,1.531-4.594,3.914-7.146,4.424l-0.001,0.34c4.936,1.192,12.252,1.362,18.888-2.552c0.34,3.403-0.681,7.146-4.254,10.719
			c-6.976,6.976-19.568,7.998-26.884,5.446c0.34,0.679,1.361,1.701,2.041,2.381c0.68,0.68,2.722,2.382,5.275,3.914
			c-2.041,1.702-4.254,3.233-6.126,5.105c-2.041,2.041-10.379,12.422-12.422,24.673C59.282,163.195,69.321,155.198,71.363,153.156z"
			/>
	</g>
	<rect x="16.803" y="78.135" fill="#AE967E" width="191" height="44"/>
	<rect x="20.303" y="81.635" fill="none" stroke="#524434" stroke-miterlimit="10" width="185" height="38"/>
	<g>
		<path fill="#302516" d="M56.565,108.099l1.891-0.367l2.03-16.383l-1.688-0.292l0.152-1.281h11.764l-0.089,3.934H69.28
			l-0.609-2.386l-5.596-0.178l-0.914,7.208l5.672-0.089l-0.152,1.979l-5.672-0.203l-1.053,7.678l6.992-0.305l1.51-2.627l1.32,0.394
			l-1.129,4.01h-13.21L56.565,108.099z"/>
		<path fill="#302516" d="M82.211,107.782c0.288,0,0.732-0.279,1.333-0.838l0.444,0.686c-0.135,0.296-0.402,0.592-0.799,0.888
			c-0.821,0.618-1.548,0.927-2.183,0.927c-0.5,0-0.846-0.094-1.041-0.279c-0.237-0.229-0.444-0.579-0.622-1.054l-1.688-4.403
			l-3.604,5.482h-2.652l5.444-7.437l-2.322-4.948c-0.118-0.246-0.22-0.426-0.304-0.54c-0.085-0.114-0.209-0.171-0.375-0.171
			s-0.505,0.194-1.021,0.584l-0.432-0.686c0.144-0.262,0.402-0.521,0.774-0.774c0.77-0.524,1.442-0.786,2.018-0.786
			c0.524,0,0.875,0.084,1.053,0.254c0.237,0.22,0.444,0.575,0.622,1.065l1.447,4.34l3.706-5.558h2.69l-5.596,7.55l2.5,4.987
			c0.118,0.245,0.22,0.425,0.305,0.539C81.991,107.725,82.092,107.782,82.211,107.782z"/>
		<path fill="#302516" d="M92.362,109.013c-0.736,0.287-1.442,0.432-2.119,0.432c-0.677,0-1.333-0.068-1.967-0.203l-0.901,6.548
			h-2.411l2.576-19.047l-1.383-0.647l0.229-1.003l3.325-0.659l0.597,0.305l-0.229,1.561c1.032-1.244,2.259-1.865,3.68-1.865
			c1.421,0,2.508,0.52,3.261,1.561c0.702,0.973,1.053,2.284,1.053,3.934c0,2.166-0.711,4.238-2.132,6.218
			C94.968,107.507,93.775,108.463,92.362,109.013z M88.53,107.452c0.44,0.305,1.004,0.457,1.694,0.457
			c0.689,0,1.275-0.121,1.757-0.362c0.482-0.241,0.912-0.566,1.288-0.977s0.702-0.88,0.977-1.409
			c0.275-0.528,0.501-1.08,0.679-1.655c0.363-1.15,0.545-2.316,0.545-3.496c0-1.181-0.19-2.103-0.571-2.767
			c-0.381-0.664-0.901-0.996-1.561-0.996c-0.973,0-1.933,0.47-2.88,1.408c-0.263,0.254-0.487,0.508-0.673,0.762L88.53,107.452z"/>
		<path fill="#302516" d="M105.661,107.681c1.548,0,2.986-0.618,4.314-1.853l0.584,1.053c-0.423,0.609-1.075,1.159-1.955,1.649
			c-1.058,0.609-2.087,0.914-3.09,0.914s-1.825-0.161-2.468-0.482c-1.269-0.626-2.107-1.662-2.513-3.108
			c-0.169-0.626-0.254-1.121-0.254-1.485c0-0.363,0.006-0.759,0.019-1.187c0.013-0.427,0.11-1.025,0.292-1.795
			c0.182-0.771,0.433-1.5,0.755-2.189c0.321-0.689,0.704-1.326,1.148-1.91c0.444-0.583,0.941-1.087,1.491-1.51
			c1.167-0.896,2.428-1.345,3.781-1.345c1.76,0,2.885,0.639,3.375,1.916c0.152,0.389,0.229,0.858,0.229,1.408
			s-0.152,1.094-0.457,1.631c-0.304,0.537-0.702,1.018-1.193,1.44s-1.045,0.789-1.662,1.098c-0.618,0.309-1.239,0.564-1.865,0.768
			c-1.261,0.423-2.348,0.643-3.261,0.66c-0.017,0.178-0.025,0.342-0.025,0.494s0.004,0.335,0.013,0.546
			c0.008,0.212,0.051,0.479,0.127,0.8c0.076,0.321,0.182,0.632,0.317,0.933c0.135,0.3,0.309,0.564,0.521,0.793
			C104.358,107.427,104.951,107.681,105.661,107.681z M102.997,101.957c1.235-0.059,2.453-0.439,3.654-1.142
			c0.854-0.491,1.463-1.092,1.828-1.802c0.194-0.364,0.292-0.821,0.292-1.371s-0.148-0.975-0.444-1.275
			c-0.296-0.3-0.671-0.45-1.123-0.45c-0.453,0-0.861,0.1-1.225,0.298c-0.364,0.199-0.692,0.464-0.983,0.794
			c-0.292,0.329-0.554,0.706-0.787,1.129c-0.232,0.423-0.434,0.858-0.603,1.307C103.301,100.291,103.098,101.128,102.997,101.957z"
			/>
		<path fill="#302516" d="M115.788,96.983l-1.269-0.762l0.229-1.13l3.07-0.659l0.609,0.305l-0.267,2.88
			c0.626-1.252,1.599-2.19,2.919-2.816c0.508-0.237,0.947-0.355,1.319-0.355c0.644,0,1.02,0.055,1.13,0.165l-0.559,2.639
			c-0.237-0.118-0.59-0.178-1.06-0.178s-0.876,0.051-1.218,0.152c-0.343,0.102-0.684,0.267-1.021,0.495
			c-0.771,0.533-1.38,1.328-1.828,2.386l-1.129,9.086h-2.475L115.788,96.983z"/>
		<path fill="#302516" d="M127.361,109.444c-1.548,0-2.322-0.757-2.322-2.271v-0.14c0-0.262,0.051-0.778,0.152-1.548l1.154-9.188
			h-1.522l0.254-1.104l1.561-0.596c0.482-0.575,1.045-1.701,1.688-3.376h1.206l-0.432,3.312h3.325l-0.254,1.764h-3.287l-1.053,7.943
			c-0.145,1.024-0.216,1.716-0.216,2.075s0.015,0.615,0.044,0.768s0.083,0.271,0.159,0.355c0.135,0.16,0.353,0.241,0.653,0.241
			c0.3,0,0.564-0.036,0.793-0.108c0.229-0.071,0.457-0.162,0.686-0.272c0.474-0.229,0.862-0.457,1.167-0.686l0.229,0.99
			c-0.575,0.702-1.527,1.256-2.855,1.662C128.092,109.385,127.716,109.444,127.361,109.444z"/>
		<path fill="#302516" d="M136.091,109.444c-1.049,0-1.573-0.482-1.573-1.446c0-0.575,0.14-1.734,0.419-3.478l1.18-7.766
			l-1.878-0.647l0.229-1.028l3.832-0.646l0.622,0.305l-1.764,12.08c-0.025,0.161-0.038,0.301-0.038,0.419
			c0,0.363,0.105,0.546,0.316,0.546c0.313,0,0.766-0.283,1.358-0.851l0.406,0.673c-0.424,0.659-1.096,1.197-2.018,1.611
			C136.836,109.368,136.472,109.444,136.091,109.444z M137.969,91.577c-0.22,0-0.423-0.042-0.608-0.127
			c-0.584-0.254-0.876-0.698-0.876-1.332c0-0.508,0.207-0.952,0.622-1.333c0.389-0.363,0.748-0.546,1.078-0.546
			s0.592,0.038,0.787,0.114c0.592,0.246,0.888,0.673,0.888,1.282c0,0.516-0.198,0.977-0.596,1.383
			C138.883,91.392,138.452,91.577,137.969,91.577z"/>
		<path fill="#302516" d="M141.586,106.779c0.575,0.397,1.346,0.686,2.311,0.863c0.346,0.059,0.682,0.089,1.008,0.089
			s0.637-0.018,0.934-0.051c0.295-0.034,0.57-0.114,0.824-0.241c0.566-0.279,0.85-0.791,0.85-1.536c0-0.871-0.469-1.688-1.408-2.448
			c-0.271-0.221-0.531-0.421-0.781-0.604c-0.248-0.182-0.525-0.41-0.83-0.685c-0.305-0.275-0.596-0.595-0.875-0.958
			c-0.66-0.88-0.99-1.703-0.99-2.469s0.133-1.402,0.398-1.909c0.268-0.508,0.625-0.939,1.072-1.295
			c0.939-0.735,2.078-1.104,3.414-1.104c0.998,0,1.764,0.065,2.297,0.196c0.533,0.132,0.85,0.222,0.951,0.272l-0.48,2.12
			c-0.221-0.322-0.812-0.597-1.777-0.825c-0.338-0.085-0.676-0.127-1.01-0.127s-0.631,0.025-0.895,0.076
			c-0.262,0.051-0.502,0.144-0.723,0.279c-0.566,0.347-0.85,0.896-0.85,1.649c0,0.931,0.672,1.908,2.018,2.932
			c0.863,0.668,1.467,1.223,1.814,1.662c0.686,0.889,1.027,1.732,1.027,2.531c0,0.8-0.137,1.451-0.412,1.954
			c-0.275,0.504-0.645,0.925-1.111,1.263c-0.93,0.686-2.098,1.028-3.502,1.028c-1.252,0-2.309-0.157-3.172-0.47
			c-0.262-0.093-0.448-0.186-0.558-0.279L141.586,106.779z"/>
		<path fill="#302516" d="M158.095,107.681c1.548,0,2.986-0.618,4.314-1.853l0.584,1.053c-0.423,0.609-1.074,1.159-1.954,1.649
			c-1.058,0.609-2.088,0.914-3.09,0.914c-1.003,0-1.826-0.161-2.469-0.482c-1.269-0.626-2.106-1.662-2.513-3.108
			c-0.169-0.626-0.253-1.121-0.253-1.485c0-0.363,0.006-0.759,0.019-1.187c0.013-0.427,0.109-1.025,0.292-1.795
			c0.182-0.771,0.434-1.5,0.755-2.189s0.704-1.326,1.148-1.91c0.444-0.583,0.941-1.087,1.491-1.51
			c1.167-0.896,2.428-1.345,3.781-1.345c1.76,0,2.885,0.639,3.376,1.916c0.152,0.389,0.228,0.858,0.228,1.408
			s-0.151,1.094-0.456,1.631s-0.702,1.018-1.193,1.44c-0.49,0.423-1.045,0.789-1.662,1.098s-1.239,0.564-1.865,0.768
			c-1.261,0.423-2.348,0.643-3.262,0.66c-0.017,0.178-0.025,0.342-0.025,0.494s0.005,0.335,0.013,0.546
			c0.009,0.212,0.051,0.479,0.127,0.8s0.182,0.632,0.317,0.933c0.136,0.3,0.309,0.564,0.521,0.793
			C156.793,107.427,157.384,107.681,158.095,107.681z M155.43,101.957c1.235-0.059,2.453-0.439,3.655-1.142
			c0.854-0.491,1.463-1.092,1.827-1.802c0.194-0.364,0.292-0.821,0.292-1.371s-0.148-0.975-0.444-1.275
			c-0.296-0.3-0.671-0.45-1.123-0.45c-0.453,0-0.861,0.1-1.225,0.298c-0.364,0.199-0.691,0.464-0.983,0.794
			c-0.292,0.329-0.555,0.706-0.787,1.129s-0.434,0.858-0.603,1.307C155.735,100.291,155.532,101.128,155.43,101.957z"/>
	</g>
</g>
</svg>
