<?xml version="1.0" encoding="utf-8"?>
<!-- Generator: Adobe Illustrator 17.0.0, SVG Export Plug-In . SVG Version: 6.00 Build 0)  -->
<!DOCTYPE svg PUBLIC "-//W3C//DTD SVG 1.1//EN" "http://www.w3.org/Graphics/SVG/1.1/DTD/svg11.dtd">
<svg version="1.1" id="Layer_1" xmlns="http://www.w3.org/2000/svg" xmlns:xlink="http://www.w3.org/1999/xlink" x="0px" y="0px"
	 width="65.865px" height="65.342px" viewBox="0 0 65.865 65.342" enable-background="new 0 0 65.865 65.342" xml:space="preserve">
<path fill="#626161" d="M49.402,11.488c2.744,0.807,3.793,0.888,9.2-4.52c-0.242-0.565-0.162-1.13,0.242-1.534
	c0.403-0.403,0.969-0.645,1.614-0.322c0.888-0.888,1.13-2.099,1.13-2.744c0.969,0,2.583-0.807,3.712-1.937
	c0.403-0.403,0.484-0.484,0.565-0.404c0,0-0.08,0.242-0.403,0.565c-1.13,1.13-1.776,2.905-1.695,3.954
	c-0.726-0.081-1.856,0.242-2.744,1.13c0.323,0.484,0.242,1.21-0.242,1.694c-0.404,0.404-1.13,0.484-1.614,0.162
	c-5.327,5.327-5.246,6.376-4.358,9.361l-1.695,0.404c-0.403-1.049-0.403-2.502,0.161-3.551l-0.081-0.081
	c-1.372,1.372-2.26,2.744-2.179,3.793l-2.26,0l-0.081-2.34c1.049,0.081,2.501-0.888,3.793-2.18l-0.081-0.081
	c-1.291,0.807-2.421,0.807-3.47,0.404L49.402,11.488z M63.444,10.843c-1.937-0.646-3.793-0.565-5.408,1.049l0.081,0.081
	c1.13-0.323,2.421,0.161,3.309,1.049c0.969,0.969,1.695,3.309-0.565,5.569c-2.905,2.905-10.169,2.744-14.285,1.21
	c-1.937-4.035-1.453-11.783,1.453-14.688c1.695-1.695,4.035-1.291,5.246-0.081c0.888,0.888,1.21,1.856,0.646,3.228l0.081,0.081
	c1.291-1.291,2.179-3.47,1.21-5.891l1.937-0.323c0.242,2.34-0.404,5.084-2.26,6.94c-1.775,1.775-3.551,1.614-4.52,0.646
	c-0.807-0.807-0.888-2.018-0.403-2.502c0.484-0.484,0.969-0.645,1.614,0c0.403,0.403,0.162,1.453-0.484,1.291l-0.081,0.081
	c0.565,0.565,1.13,0.646,1.614,0.161c0.242-0.242,0.888-1.533-0.08-2.502c-0.969-0.969-2.26-1.291-3.551,0
	c-1.372,1.372-1.776,3.228-0.484,5.165c-0.404,0.404-1.292,0.323-1.695-0.081c-0.484,2.582-0.242,5.245,0.646,7.586
	c2.34,0.726,5.488,1.13,7.748,0.646c-0.484-0.484-0.323-1.291,0.081-1.695c1.291,1.291,3.147,1.21,4.761-0.404
	c1.372-1.372,1.049-2.986,0.404-3.631c-1.049-1.049-2.179-1.049-2.744-0.484c-0.404,0.404-0.322,1.13,0.081,1.533
	c0.484-0.484,1.13-0.161,1.453,0.161c0.323,0.323,0.403,0.888-0.081,1.372c-0.484,0.484-1.372,0.404-1.937-0.161
	c-1.775-1.775-1.21-3.955,0.484-5.649s4.519-2.26,6.134-1.614L63.444,10.843z"/>
<path fill="#626161" d="M23.64,46.683c3.065,7.013-1.973,17.092-1.973,17.092l13.333-10v-10l16.667-16.667L55,10.442l-16.667,3.333
	L21.667,30.442h-10l-10,13.333c0,0,10.595-2.95,16.775-1.567"/>
<path fill="#D3A062" d="M16.775,43.775L0,65.342L21.973,48.25"/>
</svg>
