<?xml version="1.0" encoding="utf-8"?>
<!-- Generator: Adobe Illustrator 17.0.0, SVG Export Plug-In . SVG Version: 6.00 Build 0)  -->
<!DOCTYPE svg PUBLIC "-//W3C//DTD SVG 1.1//EN" "http://www.w3.org/Graphics/SVG/1.1/DTD/svg11.dtd">
<svg version="1.1" id="Layer_1" xmlns="http://www.w3.org/2000/svg" xmlns:xlink="http://www.w3.org/1999/xlink" x="0px" y="0px"
	 width="143.599px" height="15.069px" viewBox="0 0 143.599 15.069" enable-background="new 0 0 143.599 15.069"
	 xml:space="preserve">
<path fill="#8E8E8E" d="M0,7.757c0-5.098,6.648-5.983,11.745-5.983c15.734,0,23.711,5.318,25.263,6.426h0.665
	c0.443,0,0.443,0,0.665-0.442c0,0-0.222-0.222-0.222-0.665c0-0.222,0.665-0.887,0.887-1.33c-0.222-0.222-0.665-0.443-0.665-1.107
	c0-0.443,0.443-1.108,1.108-1.108c0.443,0,1.108,0.665,1.551,1.33c0.222-0.222,0.222-0.222,0.886-0.222
	c0.665,0,1.995,0.222,1.995,0.886c0,0.887-2.659,0-2.659,2.881c0,3.103,9.529,4.433,14.847,4.433c5.097,0,9.529-1.773,10.194-2.216
	h0.665v0.442c-1.33,0.887-7.091,3.324-11.523,3.324c-4.654,0-6.87-0.886-9.75-0.886c-0.443,0-1.108,0-2.438,1.329h-0.887v-0.887
	c0,0,0.222-0.664,1.551-1.329c-1.33-0.665-8.421-2.216-14.183-2.216c-6.426,0-7.978,3.103-8.864,3.767
	c-1.551-0.886-1.994-1.994-1.994-2.659c0-0.886,0.665-2.881,2.216-2.881c1.108,0,1.551,0.665,1.995,0.665
	c0-0.665,0.222-2.216,1.551-2.216c0.665,0,0.886,0.665,0.886,1.329l1.108-0.222c0-0.442,0.222-1.329,1.33-1.329
	c0.443,0,0.887,0.665,1.108,1.329h0.665c0.443-0.442,0.665-1.107,1.33-1.107c0.886,0,1.33,0.665,1.551,1.329
	c0.665,0.222,2.659,0.222,3.767,0.665l0.443-0.443c-3.545-1.772-10.637-5.097-16.62-5.097c-0.665,0.443-0.887,0.443-0.887,0.443
	c0.222,0.222-0.443,1.329-1.772,1.329c0,0.443-0.443,1.108-1.773,1.108c-0.443,0-0.443,0-0.443-0.222
	c0-0.665,1.773-2.659,2.216-2.881c-0.443-0.443-3.103-0.443-5.097-0.443c-2.216,0-9.75,0.665-9.75,3.324
	c0,0.665,0.222,0.222,0.443,0.222c0,0,0.665-0.887,2.438-0.887c1.108,0,2.438,0.665,2.438,2.881c0,1.995-0.886,3.768-3.767,3.768
	C2.216,12.188,0,10.416,0,7.757z M31.246,1.773c0,0.222-0.222,0.886-0.222,0.886c-0.222,0.665-0.665,0.665-0.665,0.665
	c-0.222,0-0.887-0.443-0.887-0.887c0-0.664,1.33-1.107,1.551-1.107h0.222V1.773z M34.57,1.995c-0.443,1.994-0.443,2.216-0.665,2.216
	c-0.886,0-1.33-0.665-1.33-1.33c0-1.107,1.108-1.551,1.995-1.551V1.995z M70.027,6.205c-0.222,0.665-4.21,5.097-9.529,5.097
	c-1.551,0-1.551-0.886-2.659-0.886c-0.665,0-0.665,1.107-1.773,1.107c-1.108,0-1.108-1.107-1.772-1.107
	c-0.665,0-0.665,0.664-1.773,0.664c-1.773,0-3.324-2.659-4.875-2.659c-0.221,0-0.665,0.222-0.665,0.222
	c0,1.108-0.222,1.773-0.887,1.773c-0.443,0-1.33-0.443-1.33-1.33s0.887-1.551,1.995-1.551c0.222,0,0.886,0,1.33,0.222l0.443-0.443
	c-2.216-1.773-4.654-4.876-7.978-4.876c-3.102,0-3.545,1.773-3.989,2.438c0-0.222-0.443-0.887-0.443-1.552
	c0-1.329,1.33-2.659,3.324-2.659c4.432,0,10.194,6.427,10.637,7.092l0.443-0.443c-0.665-0.443-0.665-1.773-0.665-2.438
	c0-2.881,1.551-4.433,2.881-4.433c0.886,0,1.33,0.665,1.33,1.33c0,0.664-0.886,0.886-1.995,1.107v0.443
	c2.216,0,2.659,0.887,2.659,1.33c0,0.664-0.665,1.107-0.665,1.551c0,0.222,0,0.665,0.665,1.33c0.222,0,0.665-1.33,1.551-1.33
	c0.887,0,1.33,2.216,1.995,2.216h0.665c0-0.664-0.443-0.886-0.443-1.329c0-0.222,0-0.665,0.443-0.665c0,0,0.887,0.665,0.887,1.108
	c0.665,0.664,1.33,1.107,2.216,1.107c0.665,0,1.33,0,1.551-0.222c-1.773-0.664-3.103-2.881-3.103-4.21
	c0-0.887,0.665-1.773,1.551-1.773c0.887,0,1.551,0.887,1.551,1.552c0,0.887-0.665,1.329-1.551,1.551
	c1.33,1.995,3.546,1.995,4.21,1.995c0.665,0,0.887,0,1.33-0.443c-1.108-0.665-1.772-1.33-1.772-1.33V5.54
	c0.665,0,1.772,0.222,2.659,0.222c0.222,0,1.33-0.222,1.551-0.222V6.205z M68.697,4.654c-0.222,0-0.887-0.443-0.887-1.33
	c0-1.329,1.551-1.329,2.216-1.329C70.47,0.665,71.356,0,72.021,0c0.222,0,1.108,0.665,1.551,1.995c0.665,0,2.216,0,2.216,1.329
	c0,0.887-0.665,1.33-0.887,1.33c-0.443,0-2.659-1.773-2.881-1.773C71.356,2.881,69.362,4.654,68.697,4.654z M71.578,14.848
	c-0.665,0-0.887-0.665-0.887-1.551h-0.886c-0.665,0-1.108-0.443-1.108-0.665c0-0.665,1.108-1.552,1.33-2.216H69.14
	c-0.665,0-0.665,0-0.665-0.443c0-0.665,1.994-1.773,2.881-3.546V5.54h1.33v0.887c0.886,1.772,2.881,2.881,2.881,3.546
	c0,0.443-0.443,0.665-0.665,0.665c-0.443,0-0.665-0.222-1.108-0.222c0.443,0.664,1.108,1.551,1.108,2.216s-0.443,0.887-1.108,0.887
	c-0.222,0-0.222-0.222-0.665-0.222c-0.221,0.886-0.443,1.772-1.108,1.772L71.578,14.848z M77.783,5.762c0,0-0.665,0.665-1.773,1.108
	c0.443,0.665,1.108,0.665,1.773,0.665c0.665,0,2.438-0.443,3.768-1.995c-0.665-0.222-1.551-0.886-1.551-1.551
	c0-1.108,0.665-1.552,1.551-1.552c1.33,0,1.994,0.443,1.994,1.552c0,1.329-1.773,3.546-3.545,3.989v0.442h1.551
	c0.886,0,1.994-0.664,2.216-1.329c0.443,0,0.886-0.665,1.33-0.665v0.665c0,0.443,0,0.665-0.443,1.329h0.665
	c0.665,0,1.33-2.216,2.216-2.216c1.108,0,1.108,0.887,1.773,0.887c0.222-0.222,0.222-0.665,0.222-0.887
	c0-0.443-0.222-0.887-0.222-1.551c0-0.665,0-1.773,1.773-1.33l0.443-0.443c-0.665-0.222-1.994-0.443-1.994-1.107
	c0-0.665,0.443-1.33,1.551-1.33s2.881,1.552,2.881,4.433c0,0.664-0.222,1.994-0.665,2.438l0.443,0.443
	c0.665-0.665,5.983-7.092,10.858-7.092c1.551,0,2.881,1.33,2.881,2.659c0,0.665,0,0.887-0.443,1.33
	c-0.222-0.443-0.443-2.217-3.989-2.217c-2.881,0-5.54,3.103-7.978,4.876l0.443,0.443c0.443-0.222,1.108-0.222,1.772-0.222
	c0.665,0,1.551,0.664,1.551,1.551s-0.665,0.887-1.33,0.887c-0.222,0-0.886-0.222-0.665-1.33c-0.222,0-0.665-0.222-0.887-0.222
	c-1.33,0-3.102,2.659-4.875,2.659c-0.887,0-1.108-0.664-1.551-0.664c-0.665,0-0.665,1.107-1.995,1.107
	c-1.108,0-1.108-1.107-1.772-1.107c-0.665,0-1.108,0.664-2.66,0.664c-5.318,0-8.864-4.21-9.529-4.875V5.54
	c0.222,0,1.33,0.222,1.995,0.222c0.443,0,1.551-0.222,2.216-0.222V5.762z M135.621,8.421c0-2.216,1.33-2.881,2.438-2.881
	c1.772,0,2.438,0.887,2.659,0.887c0,0,0.222,0.443,0.222-0.222c0-2.659-7.535-3.324-9.529-3.324c-1.994,0-4.875,0-5.318,0.443
	c0.443,0.222,2.438,2.216,2.438,2.881c0,0.222-0.221,0.222-0.221,0.222c-1.33,0-2.216-0.887-2.216-1.108
	c-1.108,0-1.773-1.107-1.773-1.329c0,0-0.221-0.443-0.665-0.443c-6.205,0-13.296,3.324-16.842,5.097l0.443,0.443
	c1.108-0.443,3.324-0.665,3.768-0.665c0.222-0.664,0.886-1.329,1.551-1.329c0.665,0,0.886,0.665,1.33,1.107h0.665
	c0.222-0.442,0.222-0.664,0.443-0.886c0.443-0.222,0.665-0.443,1.108-0.443c0.665,0,0.886,0.665,1.33,1.329l0.665,0.222
	c0.222-0.442,0.222-0.886,0.443-1.107c0.222-0.222,0.443-0.222,0.665-0.222c1.108,0,1.33,1.551,1.33,2.216
	c0.443-0.222,0.886-0.665,1.995-0.665c1.551,0,2.216,1.773,2.216,2.881c0,0.443,0,1.773-1.995,2.659
	c-0.665-0.664-2.216-3.767-8.642-3.767c-5.762,0-13.075,1.551-13.961,2.216c0.887,0.665,1.108,1.329,1.108,1.329v0.887h-0.443
	c-1.33-1.329-2.438-1.551-2.659-1.551c-2.881,0-5.097,1.107-9.529,1.107c-4.432,0-10.193-2.438-11.966-3.324v-0.442h1.108
	c0.665,0.442,4.654,2.216,9.75,2.216c5.319,0,14.848-1.552,14.848-4.433s-2.216-1.994-2.216-2.881c0-0.664,0.887-1.329,1.551-1.329
	c0.665,0,0.887,0.443,0.887,0.665h0.443c0-0.665,0.665-1.33,1.108-1.33c0.665,0,1.108,0.443,1.108,1.108
	c0,0.664,0,0.886-0.665,1.107c0.222,0.443,0.887,1.108,0.887,1.33c0,0.443,0,0.665-0.222,0.665c0.222,0.442,0.665,0.442,0.665,0.442
	h0.665c1.551-1.329,9.529-6.869,25.484-6.869c4.875,0,11.523,1.329,11.523,7.312c0,2.216-1.995,3.546-4.21,3.546
	C136.508,12.188,135.621,10.416,135.621,8.421z M109.029,1.108c0.887,0.222,1.995,0.665,1.995,1.551
	c0,0.887-0.443,1.552-1.108,1.552c-0.222,0-0.443-0.222-0.443-2.216h-0.443V1.108z M112.353,1.33c0,0,0.222-0.222,0.443-0.222
	c0,0,1.33,0.665,1.33,1.329c0,0.443-0.665,0.887-0.887,0.887c0,0-0.443,0-0.443-0.665c-0.221-0.222-0.221-0.664-0.443-0.886V1.33z"
	/>
</svg>
