<?xml version="1.0" encoding="utf-8"?>
<!-- Generator: Adobe Illustrator 17.0.0, SVG Export Plug-In . SVG Version: 6.00 Build 0)  -->
<!DOCTYPE svg PUBLIC "-//W3C//DTD SVG 1.1//EN" "http://www.w3.org/Graphics/SVG/1.1/DTD/svg11.dtd">
<svg version="1.1" id="Layer_1" xmlns="http://www.w3.org/2000/svg" xmlns:xlink="http://www.w3.org/1999/xlink" x="0px" y="0px"
	 width="100px" height="113.488px" viewBox="48.492 55.033 100 113.488" enable-background="new 48.492 55.033 100 113.488"
	 xml:space="preserve">
<g>
	<path fill="#FFFFFF" d="M77.162,157.178c-2.013,0-3.437,1.486-3.437,3.576c0,2.091,1.424,3.561,3.437,3.561
		c2.013,0,3.437-1.471,3.437-3.561C80.6,158.664,79.176,157.178,77.162,157.178L77.162,157.178z"/>
	<path fill="#FFFFFF" d="M100.093,156.96c-1.084,0-1.904,0.805-1.904,1.905c0,1.099,0.82,1.904,1.904,1.904s1.904-0.805,1.904-1.904
		C101.997,157.765,101.176,156.96,100.093,156.96L100.093,156.96z"/>
	<path fill="#FFFFFF" d="M129.055,157.178c-2.012,0-3.437,1.486-3.437,3.576c0,2.091,1.425,3.561,3.437,3.561
		c2.012,0,3.437-1.471,3.437-3.561C132.492,158.664,131.067,157.178,129.055,157.178L129.055,157.178z"/>
	<path fill="#FFFFFF" d="M113.669,157.178c-2.013,0-3.438,1.486-3.438,3.576c0,2.091,1.425,3.561,3.438,3.561
		c2.012,0,3.437-1.471,3.437-3.561C117.105,158.664,115.681,157.178,113.669,157.178L113.669,157.178z"/>
	<path fill="#FFFFFF" d="M147.236,55.033H49.75c-0.692,0-1.258,0.566-1.258,1.258v110.972c0,0.691,0.566,1.258,1.258,1.258h97.486
		c0.691,0,1.256-0.566,1.256-1.258V56.291C148.492,55.599,147.926,55.033,147.236,55.033L147.236,55.033z M54.754,165.91h-2.013
		v-10.328h2.013L54.754,165.91L54.754,165.91z M63.404,166.143c-1.905,0-3.02-1.162-3.562-1.951l1.316-1.254
		c0.495,1.006,1.44,1.378,2.168,1.378c0.913,0,1.595-0.557,1.595-1.424c0-0.372-0.124-0.667-0.403-0.929
		c-0.387-0.356-1.006-0.557-1.595-0.758c-0.542-0.186-1.192-0.434-1.719-0.899c-0.341-0.294-0.82-0.867-0.82-1.92
		c0-1.517,1.022-3.035,3.313-3.035c0.65,0,1.873,0.123,2.926,1.208l-1.053,1.378c-0.604-0.805-1.316-0.882-1.688-0.882
		c-1.084,0-1.424,0.681-1.424,1.208c0,0.247,0.078,0.48,0.325,0.697c0.248,0.232,0.589,0.356,1.239,0.589
		c0.805,0.278,1.564,0.557,2.091,1.037c0.465,0.418,0.882,1.115,0.882,2.168C66.996,164.765,65.541,166.143,63.404,166.143
		L63.404,166.143z M77.162,166.143c-3.252,0-5.512-2.246-5.512-5.388c0-3.143,2.261-5.404,5.512-5.404s5.513,2.261,5.513,5.404
		C82.675,163.897,80.414,166.143,77.162,166.143L77.162,166.143z M102.709,162.132l-3.143,4.212l-1.424-1.084l2.446-3.128
		c-0.325,0.14-0.696,0.248-1.162,0.248c-1.672,0-3.251-1.208-3.251-3.36c0-1.827,1.161-3.67,3.918-3.67
		c2.616,0,3.917,1.687,3.917,3.561C104.009,160.228,103.375,161.25,102.709,162.132L102.709,162.132z M113.669,166.143
		c-3.253,0-5.513-2.246-5.513-5.388c0-3.143,2.26-5.404,5.513-5.404c3.251,0,5.511,2.261,5.511,5.404
		C119.179,163.897,116.92,166.143,113.669,166.143L113.669,166.143z M129.055,166.143c-3.252,0-5.512-2.246-5.512-5.388
		c0-3.143,2.261-5.404,5.512-5.404c3.252,0,5.512,2.261,5.512,5.404C134.567,163.897,132.306,166.143,129.055,166.143
		L129.055,166.143z M144.375,165.91h-2.012v-8.594h-1.486v-1.734h3.499V165.91L144.375,165.91z M146.32,150.693
		c0,0.692-0.567,1.257-1.257,1.257H51.773c-0.691,0-1.257-0.566-1.257-1.257V57.832c0-0.692,0.566-1.258,1.257-1.258h93.289
		c0.691,0,1.257,0.566,1.257,1.258V150.693L146.32,150.693z"/>
	<path fill="#FFFFFF" d="M98.722,140.357c-0.775,0-1.259-0.634-1.829-1.415c-0.569-0.782-1.162-1.92-1.788-3.435
		c-0.615-1.514-1.447-3.544-2.483-6.099c-1.276-2.901-2.216-5.641-3.207-8.185c-1.003-2.534-5.753-15.255-5.753-15.255l-3.206-0.153
		v5.465l0.426,0.053l4.008,11.959l-4.434-0.031v3.329h5.597l4.325,11.085c0,0.07,0.011,0.208,0.057,0.416
		c0.045,0.218,0.068,0.367,0.068,0.466c0,1.108-0.848,2.125-2.705,2.125h-3.62l-0.088,1.582c4.648-0.159,7.905-0.312,9.773-0.312
		c3.36,0,5.124,0.242,7.186,0.312l-0.129-1.777L98.722,140.357L98.722,140.357z"/>
	<path fill="#FFFFFF" d="M80.881,70.258l4.008,11.959l-4.434-0.032v3.328h5.597L90.378,96.6c0,0.07,0.011,0.209,0.057,0.416
		c0.045,0.218,0.068,0.367,0.068,0.466c0,1.109-0.848,2.125-2.705,2.125h-3.62l-0.088,1.582c4.648-0.158,7.905-0.312,9.773-0.312
		c3.36,0,5.124,0.243,7.186,0.312l-0.129-1.776l-2.198-0.129c-0.775,0-1.259-0.634-1.829-1.416c-0.569-0.782-1.162-1.92-1.788-3.435
		c-0.615-1.514-1.447-3.543-2.483-6.098c-1.276-2.901-2.216-5.641-3.207-8.185c-1.003-2.534-5.753-15.256-5.753-15.256l-3.206-0.153
		v5.465L80.881,70.258L80.881,70.258z"/>
	<polygon fill="#FFFFFF" points="75.775,123.227 80.455,123.26 80.455,111.28 80.364,111.268 	"/>
	<polygon fill="#FFFFFF" points="80.364,70.193 75.775,82.153 80.455,82.186 80.455,70.205 	"/>
	<path fill="#FFFFFF" d="M71.508,134.669c-0.091,0.396-1.237,3.087-1.164,3.749c0.129,1.164,0.452,1.781,2.947,1.919
		c1.287-0.148,2.187-0.227,2.677-0.227v2.153c-3.685-0.045-12.476,0.033-16.266,0.143v-0.143l-0.089-1.518
		c0.228,0,0.787-0.114,1.524-0.288c2.872-0.681,4.064-2.587,5.196-5.42c4.671-11.678,10.604-27.259,10.539-28.422
		c0,0-0.489-0.47-0.453-0.582c0.112-0.344,0.453-0.388,0.453-0.388l3.582,0.171V85.514h-5.909l-3.038,8.08
		c-0.091,0.396-1.237,3.088-1.164,3.749c0.129,1.164,0.452,1.781,2.947,1.919c1.287-0.149,2.187-0.228,2.677-0.228v2.153
		c-3.685-0.045-12.476,0.034-16.266,0.144v-0.144l-0.089-1.518c0.228,0,0.787-0.114,1.524-0.289c2.872-0.681,4.064-2.587,5.196-5.42
		c4.671-11.679,10.604-27.26,10.539-28.423c0,0-0.489-0.47-0.453-0.582c0.112-0.343,0.453-0.388,0.453-0.388l3.582,0.171v-5.467
		H52.538v90.174h27.917v-22.857h-5.909L71.508,134.669L71.508,134.669z"/>
	<path fill="#FFFFFF" d="M107.133,65.216l-0.007,1.164c0,0,2.585,0.194,3.643,0.838s1.753,2.864,1.753,6.438v20.671
		c0,1.604-0.856,3.14-1.582,3.793c-1.294,1.164-4.001,1.551-4.001,1.551v1.616c0,0,4.103-0.318,9.183-0.323V65.281
		C112.055,65.352,110.749,65.35,107.133,65.216L107.133,65.216z"/>
	<path fill="#FFFFFF" d="M112.815,138.068c-4.848-2.391-8.08-7.304-8.08-14.997c0.065-2.779,0.803-6.371,1.942-8.222
		c1.174-1.908,2.761-3.726,4.975-4.836c1.559-0.774,2.93-1.179,4.471-1.408v-2.818c-2.742,0.277-5.286,1.033-7.637,2.264
		c-2.888,1.527-5.182,3.631-6.863,6.305c-1.68,2.683-2.515,5.727-2.515,9.121c0.01,3.404,0.845,6.524,2.515,9.367
		c1.661,2.854,3.934,5.091,6.823,6.722c2.372,1.347,4.928,2.137,7.677,2.376v-2.713
		C115.062,139.023,113.962,138.634,112.815,138.068L112.815,138.068z"/>
	<path fill="#FFFFFF" d="M117.944,139.462c0.403-0.077,2.792,0.354,6.46-0.683c1.598-0.452,3.683-2.048,4.911-3.29
		c1.217-1.242,2.133-2.759,2.747-4.57c0.614-1.801,0.976-4.039,1.097-6.713c0-2.815-0.604-5.442-1.821-7.85
		c-1.218-2.417-2.959-4.332-5.223-5.755c-2.274-1.431-4.92-2.143-7.94-2.143h-0.11c-0.646,0-1.295,0.05-1.942,0.146v30.625
		C116.752,139.353,117.359,139.43,117.944,139.462L117.944,139.462z"/>
	<path fill="#FFFFFF" d="M116.122,59.272v6.009c1.008-0.018,2.183-0.04,3.609-0.065c7.215-0.13,13.157-0.017,17.713-0.194
		l0.085,8.15l-2.518,0.118l-0.17-2.175c-0.155-2.214-2.758-2.994-6.917-2.994h-7.846v12.592l7.515-0.053
		c1.358-0.069,2.544,0.191,3.223-0.162c0.665-0.364,1.199-1.317,1.199-2.223l0.064-1.745h2.65c0,1.368-0.341,10.375-0.064,12.735
		l-2.645,0.094l-0.064-2.443c0-1.388-1.419-2.077-4.008-2.077l-7.684-0.183v8.608c0,1.388-0.207,5.439,2.701,5.632l2.324,0.388
		v1.939c-4.328-0.226-4.718-0.258-9.047-0.258c-0.039,0-0.078,0-0.118,0v4.823c0.637-0.064,1.284-0.103,1.942-0.116
		c2.586,0,5.092,0.446,7.526,1.337c2.425,0.901,4.598,2.143,6.5,3.755c1.901,1.602,3.401,3.47,4.497,5.585
		c1.098,2.114,1.64,4.371,1.64,6.779c0,1.953-0.241,3.821-0.714,5.613c-0.473,1.802-1.188,3.47-2.144,5.007
		c-0.955,1.545-2.242,3.12-3.682,4.323c-1.429,1.214-3.668,2.177-5.559,2.974c1.409,1.024,2.068,0.581,3.361,1.099
		c1.221,0.488,3.101,1.565,4.137,2.134c1.037,0.559,3.038,0.323,3.038,0.323l-0.129,1.228l-8.727,0.065
		c-5.919-2.126-1.776-0.482-7.564-3.814c0,0-0.614-0.216-2.304-0.055c-0.616,0-1.223-0.027-1.821-0.078v7.503h27.917V59.272H116.122
		L116.122,59.272z"/>
</g>
</svg>
