<?xml version="1.0" encoding="utf-8"?>
<!-- Generator: Adobe Illustrator 17.0.0, SVG Export Plug-In . SVG Version: 6.00 Build 0)  -->
<!DOCTYPE svg PUBLIC "-//W3C//DTD SVG 1.1//EN" "http://www.w3.org/Graphics/SVG/1.1/DTD/svg11.dtd">
<svg version="1.1" id="Layer_1" xmlns="http://www.w3.org/2000/svg" xmlns:xlink="http://www.w3.org/1999/xlink" x="0px" y="0px"
	 width="998.559px" height="451.267px" viewBox="0 0 998.559 451.267" enable-background="new 0 0 998.559 451.267"
	 xml:space="preserve">
<g>
	<path fill="#FFFFFF" d="M231.733,240.11c0-7.53,0.584-14.346,1.757-20.457c1.169-6.106,3.263-11.754,6.275-16.942
		c3.012-5.185,7.028-10.04,12.048-14.558s11.459-8.95,19.327-13.303c6.69-3.679,12.675-6.903,17.946-9.664
		c5.271-2.761,9.703-5.311,13.303-7.656c3.597-2.341,6.314-4.726,8.158-7.153c1.839-2.424,2.761-5.228,2.761-8.409
		c0-5.02-2.008-9.326-6.024-12.926c-4.016-3.597-9.789-5.396-17.319-5.396c-4.016,0-7.699,0.545-11.044,1.631
		c-3.349,1.09-6.487,2.553-9.413,4.393c-2.93,1.843-5.608,3.891-8.032,6.149c-2.428,2.259-4.644,4.644-6.652,7.153l-21.586-24.849
		c2.173-2.341,5.271-4.895,9.287-7.656c4.016-2.761,8.742-5.353,14.182-7.781c5.436-2.424,11.459-4.432,18.072-6.024
		c6.608-1.588,13.68-2.385,21.209-2.385c8.534,0,16.146,1.047,22.841,3.138c6.69,2.094,12.338,5.02,16.942,8.785
		c4.6,3.765,8.114,8.283,10.542,13.554c2.424,5.271,3.64,11.005,3.64,17.193c0,5.859-1.09,11.044-3.263,15.562
		c-2.177,4.518-4.938,8.534-8.283,12.048c-3.349,3.514-6.989,6.569-10.918,9.161c-3.934,2.596-7.742,4.895-11.42,6.903
		c-3.012,1.674-6.236,3.514-9.664,5.522c-3.432,2.008-6.82,4.228-10.166,6.651c-3.349,2.428-6.4,5.063-9.161,7.906
		c-2.761,2.848-4.895,5.859-6.401,9.036h72.037v30.371H231.733z"/>
	<path fill="#FFFFFF" d="M370.031,240.11v-36.144h27.61v36.144H370.031z"/>
	<path fill="#FFFFFF" d="M521.132,209.739v30.371H419.227v-30.371h35.642v-76.053c-1.506,2.008-3.852,4.059-7.028,6.149
		c-3.18,2.094-6.694,4.059-10.542,5.898c-3.851,1.843-7.867,3.349-12.048,4.518c-4.185,1.172-7.867,1.757-11.044,1.757v-31.375
		c3.012,0,6.691-0.961,11.044-2.886c4.35-1.922,8.616-4.224,12.801-6.903c4.181-2.675,7.863-5.31,11.044-7.906
		c3.177-2.592,5.102-4.644,5.773-6.149h34.387v112.95H521.132z"/>
	<path fill="#FFFFFF" d="M660.435,166.567c0,11.044-1.632,21.209-4.895,30.497s-7.781,17.319-13.554,24.096
		c-5.773,6.777-12.637,12.048-20.582,15.813c-7.95,3.765-16.527,5.647-25.728,5.647c-9.374,0-18.033-1.882-25.979-5.647
		c-7.95-3.765-14.81-9.036-20.582-15.813c-5.773-6.777-10.291-14.809-13.555-24.096c-3.263-9.287-4.895-19.453-4.895-30.497
		s1.632-21.209,4.895-30.497c3.264-9.287,7.781-17.319,13.555-24.096c5.772-6.777,12.632-12.087,20.582-15.938
		c7.945-3.847,16.604-5.773,25.979-5.773c9.2,0,17.777,1.926,25.728,5.773c7.945,3.852,14.809,9.162,20.582,15.938
		c5.772,6.777,10.291,14.809,13.554,24.096S660.435,155.523,660.435,166.567z M626.55,166.567c0-6.691-0.753-12.84-2.26-18.449
		c-1.506-5.604-3.639-10.417-6.4-14.432c-2.761-4.016-6.023-7.11-9.789-9.287c-3.765-2.173-7.906-3.263-12.424-3.263
		c-4.687,0-8.954,1.09-12.802,3.263c-3.851,2.177-7.153,5.271-9.914,9.287c-2.761,4.016-4.895,8.828-6.4,14.432
		c-1.506,5.608-2.259,11.758-2.259,18.449c0,6.695,0.753,12.801,2.259,18.323s3.64,10.291,6.4,14.307s6.063,7.114,9.914,9.287
		c3.848,2.177,8.115,3.263,12.802,3.263c4.518,0,8.659-1.086,12.424-3.263c3.766-2.173,7.028-5.271,9.789-9.287
		c2.762-4.016,4.895-8.785,6.4-14.307C625.797,179.368,626.55,173.262,626.55,166.567z"/>
	<path fill="#FFFFFF" d="M806.263,166.567c0,11.044-1.631,21.209-4.895,30.497c-3.263,9.287-7.78,17.319-13.554,24.096
		c-5.772,6.777-12.636,12.048-20.582,15.813c-7.949,3.765-16.526,5.647-25.728,5.647c-9.373,0-18.032-1.882-25.979-5.647
		c-7.949-3.765-14.809-9.036-20.582-15.813c-5.772-6.777-10.291-14.809-13.554-24.096s-4.895-19.453-4.895-30.497
		s1.632-21.209,4.895-30.497s7.781-17.319,13.554-24.096c5.773-6.777,12.633-12.087,20.582-15.938
		c7.946-3.847,16.605-5.773,25.979-5.773c9.201,0,17.778,1.926,25.728,5.773c7.946,3.852,14.81,9.162,20.582,15.938
		c5.773,6.777,10.291,14.809,13.554,24.096C804.632,145.358,806.263,155.523,806.263,166.567z M772.378,166.567
		c0-6.691-0.753-12.84-2.259-18.449c-1.506-5.604-3.64-10.417-6.4-14.432c-2.761-4.016-6.024-7.11-9.789-9.287
		c-3.766-2.173-7.906-3.263-12.425-3.263c-4.687,0-8.953,1.09-12.801,3.263c-3.852,2.177-7.153,5.271-9.915,9.287
		c-2.761,4.016-4.894,8.828-6.4,14.432c-1.506,5.608-2.259,11.758-2.259,18.449c0,6.695,0.753,12.801,2.259,18.323
		c1.507,5.522,3.64,10.291,6.4,14.307c2.762,4.016,6.063,7.114,9.915,9.287c3.848,2.177,8.114,3.263,12.801,3.263
		c4.519,0,8.659-1.086,12.425-3.263c3.765-2.173,7.028-5.271,9.789-9.287s4.895-8.785,6.4-14.307S772.378,173.262,772.378,166.567z"
		/>
	<path fill="#9C77B3" d="M74.631,372.11V257.8h22.218v94.829h58.282v19.481H74.631z"/>
	<path fill="#9C77B3" d="M201.014,373.72c-6.762,0-12.88-1.154-18.354-3.461c-5.474-2.307-10.143-5.446-14.007-9.418
		c-3.864-3.97-6.842-8.586-8.936-13.846c-2.093-5.257-3.14-10.787-3.14-16.583c0-6.01,1.019-11.672,3.059-16.985
		c2.038-5.313,4.991-9.982,8.855-14.007c3.864-4.025,8.558-7.217,14.087-9.58c5.527-2.36,11.726-3.542,18.596-3.542
		c6.868,0,13.013,1.182,18.435,3.542c5.418,2.362,10.035,5.529,13.846,9.499c3.809,3.972,6.707,8.588,8.694,13.846
		c1.985,5.26,2.979,10.734,2.979,16.422c0,1.396-0.028,2.737-0.081,4.025c-0.055,1.288-0.188,2.362-0.402,3.22H179.44
		c0.322,3.328,1.127,6.279,2.415,8.855c1.288,2.576,2.951,4.777,4.991,6.601c2.038,1.827,4.347,3.22,6.923,4.186
		c2.576,0.966,5.257,1.449,8.05,1.449c4.292,0,8.344-1.046,12.155-3.14c3.809-2.093,6.413-4.855,7.809-8.292l18.515,5.152
		c-3.114,6.44-8.078,11.728-14.893,15.858C218.588,371.655,210.458,373.72,201.014,373.72z M222.91,322.844
		c-0.538-6.332-2.873-11.403-7.003-15.214c-4.133-3.809-9.152-5.715-15.053-5.715c-2.898,0-5.61,0.51-8.131,1.529
		c-2.523,1.021-4.75,2.443-6.681,4.267c-1.932,1.826-3.517,4.025-4.75,6.601c-1.235,2.576-1.96,5.421-2.174,8.533H222.91z"/>
	<path fill="#9C77B3" d="M272.981,372.11l-31.073-84.364h22.218l21.413,66.815l21.574-66.815h20.286l-31.073,84.364H272.981z"/>
	<path fill="#9C77B3" d="M333.678,388.532c1.932,0.536,3.703,0.911,5.313,1.127c1.61,0.214,3.003,0.322,4.186,0.322
		c1.394,0,2.629-0.242,3.703-0.725c1.072-0.483,2.118-1.369,3.14-2.656c1.019-1.288,2.038-3.087,3.059-5.394
		c1.019-2.31,2.118-5.341,3.3-9.097l-33.488-84.364h22.218l23.023,65.688l20.286-65.688h20.286l-35.581,101.108
		c-2.254,6.44-5.851,11.403-10.787,14.893c-4.938,3.486-10.681,5.232-17.227,5.232c-3.758,0-7.567-0.591-11.431-1.771V388.532z"/>
	<path fill="#9C77B3" d="M445.894,372.11V257.8h48.461c5.258,0,10.115,1.102,14.57,3.301c4.453,2.201,8.292,5.099,11.512,8.694
		c3.219,3.597,5.741,7.675,7.567,12.236c1.823,4.563,2.737,9.152,2.737,13.766c0,4.83-0.86,9.527-2.576,14.087
		c-1.719,4.563-4.134,8.614-7.245,12.156c-3.114,3.542-6.87,6.387-11.27,8.533c-4.402,2.148-9.232,3.22-14.49,3.22h-27.048v38.318
		H445.894z M468.112,314.312h25.76c4.078,0,7.486-1.663,10.224-4.991c2.737-3.326,4.105-7.833,4.105-13.524
		c0-2.898-0.43-5.499-1.288-7.809c-0.86-2.307-1.987-4.267-3.381-5.876c-1.396-1.61-3.034-2.817-4.91-3.623
		c-1.879-0.805-3.784-1.208-5.716-1.208h-24.794V314.312z"/>
	<path fill="#9C77B3" d="M559.72,373.72c-4.08,0-7.889-0.671-11.431-2.012s-6.602-3.22-9.178-5.635
		c-2.575-2.415-4.588-5.232-6.037-8.453c-1.449-3.22-2.174-6.762-2.174-10.626c0-3.969,0.886-7.647,2.657-11.028
		c1.771-3.381,4.238-6.251,7.405-8.613c3.165-2.36,6.948-4.211,11.351-5.555c4.4-1.341,9.23-2.013,14.49-2.013
		c3.756,0,7.432,0.322,11.028,0.966c3.595,0.644,6.787,1.557,9.58,2.737v-4.83c0-5.58-1.585-9.874-4.75-12.88
		c-3.167-3.003-7.863-4.508-14.087-4.508c-4.509,0-8.911,0.805-13.202,2.415c-4.295,1.61-8.694,3.972-13.202,7.084l-6.602-13.685
		c10.84-7.19,22.54-10.787,35.099-10.787c12.128,0,21.546,2.979,28.255,8.936c6.707,5.957,10.062,14.57,10.062,25.84v26.243
		c0,2.254,0.428,3.864,1.288,4.83c0.858,0.966,2.36,1.504,4.508,1.61v18.354c-2.04,0.428-3.944,0.725-5.715,0.886
		c-1.771,0.161-3.301,0.241-4.589,0.241c-4.08-0.108-7.192-1.046-9.338-2.817c-2.148-1.771-3.489-4.158-4.025-7.165l-0.482-4.669
		c-3.759,4.938-8.319,8.694-13.686,11.27C571.578,372.432,565.838,373.72,559.72,373.72z M565.838,357.942
		c3.647,0,7.109-0.644,10.385-1.932c3.272-1.288,5.82-3.003,7.647-5.152c2.359-1.824,3.542-3.864,3.542-6.118v-9.66
		c-2.576-0.966-5.369-1.744-8.372-2.334c-3.007-0.589-5.904-0.886-8.694-0.886c-5.582,0-10.143,1.263-13.685,3.784
		c-3.542,2.523-5.313,5.715-5.313,9.579c0,3.65,1.394,6.682,4.187,9.097C558.323,356.735,561.758,357.942,565.838,357.942z"/>
	<path fill="#9C77B3" d="M622.026,388.532c1.933,0.536,3.703,0.911,5.313,1.127c1.609,0.214,3.003,0.322,4.186,0.322
		c1.394,0,2.629-0.242,3.703-0.725c1.071-0.483,2.118-1.369,3.14-2.656c1.019-1.288,2.037-3.087,3.059-5.394
		c1.02-2.31,2.118-5.341,3.301-9.097l-33.488-84.364h22.218l23.023,65.688l20.286-65.688h20.286l-35.581,101.108
		c-2.254,6.44-5.852,11.403-10.787,14.893c-4.938,3.486-10.682,5.232-17.228,5.232c-3.758,0-7.566-0.591-11.431-1.771V388.532z"/>
	<path fill="#9C77B3" d="M742.292,373.72c-6.762,0-12.88-1.154-18.354-3.461c-5.474-2.307-10.143-5.446-14.007-9.418
		c-3.863-3.97-6.842-8.586-8.936-13.846c-2.093-5.257-3.14-10.787-3.14-16.583c0-6.01,1.02-11.672,3.06-16.985
		c2.037-5.313,4.991-9.982,8.854-14.007c3.864-4.025,8.559-7.217,14.088-9.58c5.526-2.36,11.726-3.542,18.596-3.542
		c6.867,0,13.013,1.182,18.435,3.542c5.418,2.362,10.034,5.529,13.846,9.499c3.809,3.972,6.707,8.588,8.694,13.846
		c1.984,5.26,2.979,10.734,2.979,16.422c0,1.396-0.028,2.737-0.081,4.025c-0.055,1.288-0.188,2.362-0.402,3.22h-65.205
		c0.322,3.328,1.127,6.279,2.415,8.855c1.288,2.576,2.951,4.777,4.991,6.601c2.037,1.827,4.347,3.22,6.923,4.186
		c2.576,0.966,5.258,1.449,8.05,1.449c4.292,0,8.345-1.046,12.155-3.14c3.81-2.093,6.413-4.855,7.809-8.292l18.516,5.152
		c-3.114,6.44-8.078,11.728-14.893,15.858C759.866,371.655,751.735,373.72,742.292,373.72z M764.188,322.844
		c-0.538-6.332-2.872-11.403-7.003-15.214c-4.134-3.809-9.152-5.715-15.054-5.715c-2.898,0-5.609,0.51-8.131,1.529
		c-2.522,1.021-4.749,2.443-6.681,4.267c-1.933,1.826-3.518,4.025-4.75,6.601c-1.235,2.576-1.96,5.421-2.174,8.533H764.188z"/>
	<path fill="#9C77B3" d="M844.364,306.422c-6.548,0.108-12.396,1.369-17.549,3.784s-8.855,6.037-11.109,10.867v51.037h-21.573
		v-84.364h19.803v18.032c2.897-5.796,6.682-10.465,11.351-14.007s9.579-5.313,14.731-5.313c1.18,0,2.065,0.027,2.656,0.081
		c0.589,0.055,1.152,0.136,1.69,0.241V306.422z"/>
	<path fill="#9C77B3" d="M883.97,373.72c-3.437,0-7.004-0.269-10.707-0.805c-3.702-0.539-7.325-1.288-10.867-2.254
		c-3.542-0.966-6.923-2.146-10.143-3.542c-3.221-1.394-6.065-2.951-8.533-4.669l8.694-14.651
		c10.731,6.979,21.091,10.465,31.072,10.465c4.509,0,8.051-0.805,10.626-2.415c2.576-1.61,3.864-3.917,3.864-6.923
		c0-3.003-1.529-5.232-4.589-6.682c-3.059-1.449-8.186-3.031-15.375-4.75c-5.474-1.288-10.143-2.628-14.007-4.025
		c-3.864-1.394-6.979-3.003-9.338-4.83c-2.362-1.824-4.081-3.917-5.152-6.279c-1.074-2.36-1.61-5.152-1.61-8.372
		c0-4.292,0.858-8.156,2.576-11.592c1.716-3.434,4.105-6.359,7.165-8.774c3.059-2.415,6.653-4.267,10.787-5.555
		c4.13-1.288,8.613-1.932,13.443-1.932c6.01,0,11.994,0.941,17.951,2.817c5.957,1.879,11.512,4.428,16.663,7.648l-8.854,13.363
		c-4.725-3.003-9.177-5.177-13.363-6.521c-4.186-1.341-8.372-2.013-12.558-2.013c-3.864,0-7.112,0.752-9.74,2.254
		c-2.632,1.504-3.945,3.919-3.945,7.245c0,2.898,1.261,4.991,3.784,6.279c2.521,1.288,7.003,2.737,13.443,4.347
		c6.01,1.504,11.134,3.006,15.375,4.508c4.239,1.504,7.729,3.22,10.466,5.152c2.736,1.932,4.722,4.161,5.956,6.682
		c1.233,2.523,1.852,5.554,1.852,9.096c0,4.081-0.832,7.784-2.495,11.109c-1.665,3.328-4,6.146-7.004,8.452
		c-3.006,2.31-6.681,4.081-11.028,5.313C894.032,373.102,889.228,373.72,883.97,373.72z"/>
</g>
<g>
	<path fill="#FFFFFF" d="M437.448,59.541V42.5h7.416c0.768,0,1.476,0.16,2.124,0.48c0.648,0.319,1.204,0.74,1.668,1.26
		c0.464,0.52,0.828,1.112,1.092,1.775c0.264,0.664,0.396,1.341,0.396,2.028c0,0.576-0.081,1.128-0.24,1.656
		c-0.16,0.528-0.384,1.016-0.672,1.464s-0.64,0.836-1.056,1.164s-0.872,0.572-1.368,0.731l4.056,6.48h-3.048l-3.744-5.928h-3.936
		v5.928H437.448z M440.136,51.237h4.704c0.384,0,0.732-0.084,1.044-0.252s0.58-0.4,0.804-0.696c0.224-0.296,0.399-0.636,0.528-1.021
		c0.128-0.384,0.192-0.792,0.192-1.224s-0.076-0.84-0.228-1.224c-0.152-0.384-0.352-0.721-0.6-1.008
		c-0.248-0.288-0.536-0.517-0.864-0.685c-0.328-0.168-0.668-0.252-1.02-0.252h-4.56V51.237z"/>
	<path fill="#FFFFFF" d="M458.855,59.781c-0.976,0-1.864-0.172-2.664-0.517c-0.8-0.344-1.484-0.812-2.052-1.403
		c-0.568-0.592-1.008-1.28-1.32-2.064c-0.312-0.783-0.468-1.616-0.468-2.496s0.156-1.716,0.468-2.508s0.752-1.488,1.32-2.088
		c0.567-0.6,1.251-1.072,2.052-1.416c0.8-0.344,1.696-0.516,2.688-0.516c0.976,0,1.86,0.176,2.652,0.527
		c0.792,0.353,1.467,0.82,2.028,1.404c0.56,0.584,0.988,1.264,1.284,2.04s0.444,1.588,0.444,2.436c0,0.192-0.008,0.372-0.024,0.54
		c-0.016,0.168-0.032,0.309-0.048,0.42H455.16c0.048,0.561,0.18,1.064,0.396,1.513c0.216,0.448,0.496,0.836,0.84,1.164
		c0.344,0.328,0.736,0.58,1.176,0.756s0.9,0.264,1.38,0.264c0.352,0,0.7-0.044,1.044-0.132c0.344-0.088,0.66-0.216,0.948-0.384
		s0.544-0.372,0.768-0.612s0.4-0.504,0.528-0.792l2.256,0.648c-0.432,0.943-1.148,1.716-2.148,2.315
		C461.347,59.481,460.184,59.781,458.855,59.781z M462.671,52.317c-0.048-0.528-0.18-1.017-0.396-1.465
		c-0.216-0.447-0.492-0.827-0.828-1.14c-0.336-0.312-0.728-0.556-1.176-0.731c-0.448-0.177-0.92-0.265-1.416-0.265
		c-0.496,0-0.964,0.088-1.404,0.265c-0.44,0.176-0.828,0.42-1.164,0.731c-0.336,0.312-0.608,0.692-0.816,1.14
		c-0.208,0.448-0.336,0.937-0.384,1.465H462.671z"/>
	<path fill="#FFFFFF" d="M474.527,59.781c-1.008,0-1.892-0.24-2.652-0.721c-0.76-0.479-1.373-1.104-1.836-1.871v7.464h-2.64V46.989
		h2.328v2.256c0.48-0.752,1.104-1.352,1.872-1.8s1.632-0.672,2.592-0.672c0.848,0,1.632,0.176,2.352,0.527
		c0.72,0.353,1.344,0.824,1.872,1.416c0.528,0.593,0.94,1.28,1.236,2.064c0.296,0.784,0.444,1.607,0.444,2.472
		c0,0.912-0.136,1.764-0.408,2.556c-0.272,0.792-0.656,1.48-1.152,2.064s-1.084,1.048-1.764,1.392
		C476.091,59.609,475.343,59.781,474.527,59.781z M473.688,57.525c0.543,0,1.047-0.12,1.512-0.36c0.464-0.24,0.856-0.56,1.176-0.96
		c0.32-0.399,0.572-0.855,0.756-1.368c0.184-0.512,0.276-1.04,0.276-1.584c0-0.576-0.1-1.12-0.3-1.632
		c-0.2-0.512-0.477-0.96-0.828-1.344c-0.352-0.385-0.768-0.688-1.248-0.912s-0.992-0.336-1.536-0.336
		c-0.336,0-0.688,0.063-1.056,0.191c-0.369,0.129-0.716,0.305-1.044,0.528c-0.328,0.225-0.612,0.484-0.852,0.78
		c-0.24,0.296-0.408,0.62-0.504,0.972v3.288c0.16,0.384,0.368,0.744,0.624,1.08s0.544,0.624,0.864,0.864
		c0.32,0.239,0.664,0.432,1.032,0.575C472.927,57.453,473.303,57.525,473.688,57.525z"/>
	<path fill="#FFFFFF" d="M489.479,49.268c-1.024,0.032-1.928,0.269-2.712,0.708c-0.784,0.44-1.352,1.068-1.704,1.885v7.68h-2.64
		V46.989h2.448v2.808c0.448-0.864,1.02-1.567,1.716-2.112c0.696-0.543,1.436-0.815,2.22-0.815c0.16,0,0.292,0,0.396,0
		s0.196,0.008,0.276,0.023V49.268z"/>
	<path fill="#FFFFFF" d="M497.135,59.781c-0.976,0-1.864-0.172-2.664-0.517c-0.8-0.344-1.484-0.812-2.052-1.403
		c-0.568-0.592-1.008-1.28-1.32-2.064c-0.312-0.783-0.468-1.616-0.468-2.496s0.156-1.716,0.468-2.508s0.752-1.488,1.32-2.088
		c0.567-0.6,1.251-1.072,2.052-1.416c0.8-0.344,1.696-0.516,2.688-0.516c0.976,0,1.86,0.176,2.652,0.527
		c0.792,0.353,1.467,0.82,2.028,1.404c0.56,0.584,0.988,1.264,1.284,2.04s0.444,1.588,0.444,2.436c0,0.192-0.008,0.372-0.024,0.54
		c-0.016,0.168-0.032,0.309-0.048,0.42h-10.056c0.048,0.561,0.18,1.064,0.396,1.513c0.216,0.448,0.496,0.836,0.84,1.164
		c0.344,0.328,0.736,0.58,1.176,0.756s0.9,0.264,1.38,0.264c0.352,0,0.7-0.044,1.044-0.132c0.344-0.088,0.66-0.216,0.948-0.384
		s0.544-0.372,0.768-0.612s0.4-0.504,0.528-0.792l2.256,0.648c-0.432,0.943-1.148,1.716-2.148,2.315
		C499.627,59.481,498.463,59.781,497.135,59.781z M500.951,52.317c-0.048-0.528-0.18-1.017-0.396-1.465
		c-0.216-0.447-0.492-0.827-0.828-1.14c-0.336-0.312-0.728-0.556-1.176-0.731c-0.448-0.177-0.92-0.265-1.416-0.265
		c-0.496,0-0.964,0.088-1.404,0.265c-0.44,0.176-0.828,0.42-1.164,0.731c-0.336,0.312-0.608,0.692-0.816,1.14
		c-0.208,0.448-0.336,0.937-0.384,1.465H500.951z"/>
	<path fill="#FFFFFF" d="M510.383,59.781c-0.513,0-1.028-0.04-1.548-0.12s-1.032-0.196-1.536-0.348
		c-0.504-0.152-0.984-0.337-1.44-0.553s-0.86-0.46-1.212-0.731l1.104-1.776c1.536,1.072,3.064,1.608,4.584,1.608
		c0.8,0,1.432-0.152,1.896-0.456c0.464-0.304,0.696-0.736,0.696-1.296c0-0.528-0.26-0.916-0.78-1.164s-1.348-0.508-2.484-0.78
		c-0.784-0.192-1.456-0.388-2.016-0.588s-1.016-0.424-1.368-0.672c-0.353-0.248-0.608-0.544-0.768-0.889
		c-0.16-0.344-0.24-0.756-0.24-1.235c0-0.64,0.128-1.208,0.384-1.704c0.255-0.496,0.604-0.916,1.044-1.26
		c0.44-0.345,0.96-0.604,1.56-0.78c0.6-0.176,1.244-0.264,1.932-0.264c0.912,0,1.792,0.144,2.64,0.432
		c0.848,0.288,1.608,0.681,2.28,1.176l-1.128,1.608c-1.2-0.896-2.48-1.345-3.84-1.345c-0.672,0-1.24,0.141-1.704,0.421
		c-0.464,0.279-0.696,0.724-0.696,1.332c0,0.256,0.048,0.472,0.144,0.647c0.096,0.177,0.252,0.328,0.468,0.456
		c0.216,0.128,0.5,0.244,0.852,0.348c0.352,0.104,0.784,0.221,1.296,0.349c0.864,0.208,1.608,0.416,2.232,0.624
		s1.14,0.452,1.548,0.731c0.408,0.28,0.708,0.608,0.9,0.984s0.288,0.828,0.288,1.355c0,0.593-0.12,1.129-0.36,1.608
		c-0.24,0.48-0.58,0.888-1.02,1.224c-0.44,0.336-0.977,0.597-1.608,0.78C511.851,59.688,511.151,59.781,510.383,59.781z"/>
	<path fill="#FFFFFF" d="M523.415,59.781c-0.976,0-1.864-0.172-2.664-0.517c-0.8-0.344-1.484-0.812-2.052-1.403
		c-0.568-0.592-1.008-1.28-1.32-2.064c-0.312-0.783-0.468-1.616-0.468-2.496s0.156-1.716,0.468-2.508s0.752-1.488,1.32-2.088
		c0.567-0.6,1.251-1.072,2.052-1.416c0.8-0.344,1.696-0.516,2.688-0.516c0.976,0,1.859,0.176,2.652,0.527
		c0.792,0.353,1.467,0.82,2.027,1.404c0.56,0.584,0.988,1.264,1.284,2.04s0.444,1.588,0.444,2.436c0,0.192-0.009,0.372-0.024,0.54
		s-0.032,0.309-0.048,0.42h-10.056c0.048,0.561,0.18,1.064,0.396,1.513c0.216,0.448,0.496,0.836,0.84,1.164
		c0.344,0.328,0.736,0.58,1.176,0.756c0.44,0.176,0.9,0.264,1.381,0.264c0.352,0,0.699-0.044,1.044-0.132
		c0.344-0.088,0.659-0.216,0.947-0.384s0.544-0.372,0.769-0.612c0.224-0.24,0.399-0.504,0.527-0.792l2.257,0.648
		c-0.433,0.943-1.148,1.716-2.148,2.315C525.907,59.481,524.743,59.781,523.415,59.781z M527.231,52.317
		c-0.048-0.528-0.18-1.017-0.396-1.465c-0.216-0.447-0.491-0.827-0.828-1.14c-0.336-0.312-0.728-0.556-1.176-0.731
		c-0.448-0.177-0.92-0.265-1.416-0.265s-0.964,0.088-1.404,0.265c-0.44,0.176-0.828,0.42-1.164,0.731
		c-0.336,0.312-0.608,0.692-0.816,1.14c-0.208,0.448-0.336,0.937-0.384,1.465H527.231z"/>
	<path fill="#FFFFFF" d="M543.239,59.541h-2.641v-7.032c0-1.184-0.191-2.044-0.575-2.58c-0.385-0.535-0.937-0.804-1.656-0.804
		c-0.384,0-0.772,0.072-1.164,0.216c-0.393,0.145-0.756,0.349-1.092,0.612s-0.637,0.576-0.9,0.936
		c-0.264,0.36-0.468,0.756-0.612,1.188v7.464h-2.64V46.989h2.4v2.52c0.479-0.848,1.176-1.516,2.088-2.004
		c0.912-0.487,1.92-0.731,3.023-0.731c0.752,0,1.372,0.136,1.86,0.407c0.488,0.272,0.872,0.645,1.152,1.116
		c0.279,0.473,0.476,1.017,0.588,1.632c0.111,0.616,0.168,1.269,0.168,1.956V59.541z"/>
	<path fill="#FFFFFF" d="M553.199,58.892c-0.353,0.16-0.82,0.341-1.404,0.54c-0.584,0.2-1.22,0.301-1.908,0.301
		c-0.416,0-0.804-0.057-1.164-0.168c-0.359-0.112-0.68-0.28-0.96-0.505c-0.279-0.224-0.5-0.516-0.659-0.876
		c-0.16-0.359-0.24-0.795-0.24-1.308v-7.848h-1.681v-2.04h1.681v-4.128h2.64v4.128h2.736v2.04h-2.736v7.008
		c0,0.448,0.128,0.772,0.384,0.972c0.256,0.2,0.568,0.3,0.937,0.3s0.72-0.063,1.056-0.191s0.584-0.231,0.744-0.312L553.199,58.892z"
		/>
	<path fill="#FFFFFF" d="M554.903,44.924v-2.903h2.64v2.903H554.903z M554.903,59.541V46.989h2.64v12.552H554.903z"/>
	<path fill="#FFFFFF" d="M571.919,59.541h-2.641v-7.032c0-1.184-0.191-2.044-0.575-2.58c-0.385-0.535-0.937-0.804-1.656-0.804
		c-0.384,0-0.772,0.072-1.164,0.216c-0.393,0.145-0.756,0.349-1.092,0.612s-0.637,0.576-0.9,0.936
		c-0.264,0.36-0.468,0.756-0.612,1.188v7.464h-2.64V46.989h2.4v2.52c0.479-0.848,1.176-1.516,2.088-2.004
		c0.912-0.487,1.92-0.731,3.023-0.731c0.752,0,1.372,0.136,1.86,0.407c0.488,0.272,0.872,0.645,1.152,1.116
		c0.279,0.473,0.476,1.017,0.588,1.632c0.111,0.616,0.168,1.269,0.168,1.956V59.541z"/>
	<path fill="#FFFFFF" d="M579.887,59.661c-0.849,0-1.62-0.172-2.316-0.517c-0.695-0.344-1.296-0.812-1.8-1.403
		s-0.896-1.272-1.176-2.04c-0.28-0.769-0.42-1.576-0.42-2.424c0-0.896,0.14-1.74,0.42-2.532c0.279-0.792,0.676-1.479,1.188-2.064
		c0.513-0.584,1.124-1.048,1.836-1.392s1.5-0.516,2.364-0.516c1.024,0,1.912,0.239,2.664,0.72c0.752,0.479,1.376,1.104,1.872,1.872
		v-2.376h2.328V59.18c0,0.912-0.168,1.72-0.504,2.425c-0.336,0.703-0.804,1.299-1.404,1.787c-0.6,0.488-1.308,0.86-2.124,1.116
		c-0.815,0.256-1.696,0.384-2.64,0.384c-1.393,0-2.544-0.235-3.456-0.708c-0.912-0.472-1.688-1.132-2.328-1.979l1.488-1.392
		c0.479,0.672,1.1,1.184,1.859,1.535c0.76,0.353,1.572,0.528,2.437,0.528c0.544,0,1.06-0.072,1.548-0.216
		c0.488-0.145,0.916-0.368,1.284-0.672c0.368-0.305,0.66-0.688,0.876-1.152s0.324-1.017,0.324-1.656v-1.92
		c-0.448,0.769-1.064,1.36-1.849,1.776S580.751,59.661,579.887,59.661z M580.751,57.525c0.399,0,0.783-0.068,1.151-0.204
		s0.708-0.32,1.021-0.553c0.312-0.231,0.579-0.495,0.804-0.792c0.224-0.296,0.384-0.611,0.48-0.947v-3.288
		c-0.32-0.8-0.816-1.452-1.488-1.956s-1.393-0.756-2.16-0.756c-0.576,0-1.092,0.124-1.548,0.372s-0.844,0.575-1.164,0.983
		s-0.568,0.868-0.744,1.38c-0.176,0.513-0.264,1.041-0.264,1.584c0,0.576,0.1,1.116,0.3,1.62s0.476,0.944,0.828,1.32
		c0.352,0.376,0.764,0.676,1.236,0.9C579.675,57.413,580.19,57.525,580.751,57.525z"/>
</g>
</svg>
