<?xml version="1.0" encoding="utf-8"?>
<!-- Generator: Adobe Illustrator 17.0.0, SVG Export Plug-In . SVG Version: 6.00 Build 0)  -->
<!DOCTYPE svg PUBLIC "-//W3C//DTD SVG 1.1//EN" "http://www.w3.org/Graphics/SVG/1.1/DTD/svg11.dtd">
<svg version="1.1" id="Layer_1" xmlns="http://www.w3.org/2000/svg" xmlns:xlink="http://www.w3.org/1999/xlink" x="0px" y="0px"
	 width="400.63px" height="208.23px" viewBox="0 0 400.63 208.23" enable-background="new 0 0 400.63 208.23" xml:space="preserve">
<g>
	<rect x="0" y="80.85" fill="#070911" width="400.63" height="127.38"/>
	<g>
		<defs>
			<rect id="SVGID_1_" x="0" y="0" width="400.63" height="208.23"/>
		</defs>
		<clipPath id="SVGID_2_">
			<use xlink:href="#SVGID_1_"  overflow="visible"/>
		</clipPath>
		<path clip-path="url(#SVGID_2_)" fill="#FFFFFF" d="M359.698,183.235l-0.558-0.334l0.446-1.114l0.669,0.223L359.698,183.235z
			 M372.62,176.217h1.114v0.78h-1.114V176.217z M373.622,167.193c-0.595,0.298-0.929,0.446-1.002,0.446
			c0-0.668,0.483-1.262,1.448-1.782c0.296,0.596,0.446,1.041,0.446,1.337C374.364,166.971,374.068,166.971,373.622,167.193
			 M373.4,162.96h1.114v0.78H373.4V162.96z M372.731,158.95c0.519-0.519,0.928-0.78,1.226-0.78c0.073,0,0.148,0.039,0.222,0.112
			L372.731,158.95z M374.959,158.95l-0.446-1.114l0.557-0.223l0.558,1.337H374.959z M372.843,145.693
			c-0.521,0.596-0.78,1.264-0.78,2.005c0,0.373,0.073,0.744,0.222,1.114c-0.222-0.669-0.26-1.671-0.111-3.008
			c0.223-1.337,0.557-2.264,1.002-2.785l1.002,1.114C374.105,144.356,373.659,144.877,372.843,145.693 M359.14,124.416h0.668v1.226
			h-0.668V124.416z M373.176,124.861h0.78v1.671h-0.78V124.861z M372.285,125.641h-0.779l0.891-13.034h0.668L372.285,125.641z
			 M375.516,113.944l-0.557-0.668l0.446-0.446l0.557,0.779L375.516,113.944z M373.511,112.385h-0.668l0.779-13.034h0.78
			L373.511,112.385z M376.519,100.242h0.78v3.119h-0.78V100.242z M374.068,96.232h0.668v3.008h-0.668V96.232z M330.177,185.686
			h-1.559v0.891h1.559V185.686z M373.065,172.54v0.557l0.891-0.891l0.891,0.891c0.594-0.371,1.187-0.557,1.782-0.557l0.446,0.111
			v-3.007c-1.412-0.816-2.228-1.521-2.451-2.117h0.223c0.741,0,1.448,0.186,2.117,0.557v-24.842
			c-0.818,0.372-1.635,0.632-2.451,0.779l-1.114-1.225c1.559-1.114,2.71-1.671,3.453-1.671h0.223c0-0.296-0.075-0.63-0.223-1.002
			c-2.674-0.669-4.01-2.599-4.01-5.793c0.072-0.222,0.147-0.371,0.222-0.446c0.296,2.6,1.632,4.122,4.011,4.567v-5.793
			c-1.932,0-3.046,0.112-3.342,0.334c-0.298-0.446-0.446-0.927-0.446-1.448c0-0.446,0.111-0.853,0.334-1.226
			c0.816,0.891,1.374,1.337,1.671,1.337c0.296,0,0.63-0.092,1.002-0.278c0.371-0.185,0.63-0.279,0.78-0.279
			c0-0.073-0.056-0.24-0.167-0.501c-0.112-0.259-0.168-0.463-0.168-0.613c0-0.147,0.073-0.259,0.223-0.334l-0.223,0.222
			c-0.521-0.147-0.947-0.259-1.281-0.334c-0.334-0.072-0.762-0.63-1.281-1.67l0.669-0.78c0.816,0.891,1.521,1.337,2.117,1.337h0.111
			v-4.011c-0.966-0.816-1.634-1.521-2.006-2.116c1.41-1.41,2.117-3.008,2.117-4.791c0-0.296-0.038-0.594-0.111-0.891
			c-0.596,0.075-1.002,0-1.226-0.222c0.891-0.371,1.299-1.521,1.226-3.454v-2.45v-1.114c-0.818,0.15-1.375,0.038-1.671-0.334
			c0.371-0.668,0.594-1.187,0.669-1.559c0.296,0.297,0.63,0.446,1.002,0.446v-12.7h-21.5c0.518,1.189,0.779,3.676,0.779,7.463
			c0,0.891-0.261,9.21-0.779,24.954c-0.373,0-0.93,0.112-1.671,0.334c-0.743,0.223-1.301,0.334-1.671,0.334
			c-0.297,0-0.595-0.037-0.891-0.111l0.558-0.446c-1.041-0.223-2.044-0.408-3.008-0.558V95.229h-21.166v90.122h21.277v-37.764h6.795
			v37.431h21.277v-11.808c-0.743,0.595-1.598,0.891-2.562,0.891L373.065,172.54z M339.646,93.67h-10.249v0.78h10.249V93.67z
			 M315.696,183.569c0.073-0.518,1.169-1.67,3.286-3.453c2.117-1.782,3.509-3.601,4.177-5.459c1.485-4.679,2.228-8.912,2.228-12.7
			v-11.808h-21.834v17.601c0,3.492-1.412,5.235-4.233,5.235c-2.674,0-4.011-1.713-4.011-5.142v-52.88
			c0-3.427,1.41-5.142,4.233-5.142c2.674,0,4.011,1.462,4.011,4.383v21.351h21.834v-15.529c0-0.595-0.094-1.45-0.278-2.567
			c-0.186-1.118-0.317-1.899-0.39-2.346c-0.669-6.851-3.529-11.991-8.578-15.417c-4.383-3.053-10.026-4.58-16.932-4.58
			c-7.502,0-13.63,2.045-18.381,6.135c-5.051,4.313-7.575,10.299-7.575,17.958v42.609c0,3.57,0.631,7.325,1.895,11.266
			c1.559,4.908,3.526,7.921,5.904,9.035h-3.676v2.897h38.098L315.696,183.569z M291.299,95.118h-1.114v0.78h1.114V95.118z
			 M246.184,140.68c1.114-0.148,1.67-0.78,1.67-1.894c0,0.595,0.372,1.226,1.114,1.894H246.184z M244.067,130.766
			c0.075-0.891,0.261-1.484,0.557-1.782c0.446,0.223,0.669,0.632,0.669,1.226C244.477,130.135,244.067,130.32,244.067,130.766
			 M245.293,130.209c0.371-0.223,0.741-0.482,1.114-0.78c1.41,0.223,2.265,0.484,2.562,0.78H245.293z M245.627,124.973l-0.446-0.446
			l1.114-1.114l0.446,0.446L245.627,124.973z M247.854,123.079c-0.297,0-0.52-0.073-0.668-0.222l1.114-1.226
			c0.446,0.596,0.669,1.041,0.669,1.337C248.523,123.043,248.151,123.079,247.854,123.079 M245.627,119.96v-0.668l1.894-0.446v0.668
			L245.627,119.96z M245.515,113.499h0.891v1.671h-0.891V113.499z M246.073,107.149h0.78v2.563h-0.78V107.149z M247.521,106.035
			l-0.558-1.002l0.669-0.334l0.557,1.337H247.521z M246.073,168.975l-2.562,0.446v0.78l2.562-0.446V168.975z M269.466,183.569
			h-1.671v0.78h1.671V183.569z M244.958,160.732l-0.222,0.669l1.225,0.668l0.334-0.668L244.958,160.732z M246.63,159.395
			l-3.119-0.446v0.78l3.119,0.446V159.395z M244.958,155.273l-0.222,0.669l1.225,0.557l0.334-0.557L244.958,155.273z M267.238,95.34
			H244.29l-0.78,2.563l1.894-0.446l0.78,0.78c-0.223,1.337-0.446,2.637-0.669,3.898c-0.446,1.782-1.039,2.86-1.782,3.23v30.858
			c2.376-0.147,4.159,0,5.347,0.446v1.002h-5.124v6.795c2.524,0,4.233,0.112,5.124,0.334v1.226l-0.334,0.334
			c-2.005-0.296-3.75-0.445-5.235-0.445l0.557,3.118c0.075-0.891,0.705-1.337,1.894-1.337c1.41,0,2.451,0.966,3.119,2.897
			c-0.446,0.149-0.818,0.222-1.114,0.222c-0.372,0-0.855-0.741-1.448-2.228c-0.966,0.966-1.968,1.449-3.008,1.449v1.67h2.339
			c0.741,0,1.187,0.521,1.337,1.56c-0.372,0-0.929,0.111-1.671,0.334c-0.743,0.223-1.262,0.334-1.559,0.334l-0.111-0.111
			c0.446,0,1.058,0.038,1.838,0.111c0.779,0.075,1.28,0.111,1.504,0.111v3.343c-2.005,0-3.268,0.222-3.787,0.668h1.114
			c0.816,0,1.707-0.111,2.674-0.334v5.571c-0.521,0.149-1.077,0.222-1.671,0.222c0.371,0-0.334-0.036-2.116-0.111
			c1.632,0.521,2.896,0.891,3.787,1.114v6.573c-0.521,0.372-0.929,0.632-1.226,0.78c-0.297-0.446-0.632-0.669-1.002-0.669
			c0.148,0-0.371,0.15-1.559,0.446c2.375,0.297,3.637,0.446,3.787,0.446c-0.446,0.669-0.707,1.226-0.78,1.671
			c-0.372-0.223-0.707-0.334-1.002-0.334c-0.297,0-0.484,0.038-0.557,0.111c1.114-0.073,1.744-0.073,1.894,0
			c0.296,0.15,0.446,0.744,0.446,1.782c0,0.966-0.223,1.634-0.668,2.006c-0.15-0.223-0.223-0.446-0.223-0.669
			c0-0.222,0.056-0.482,0.167-0.78c0.112-0.296,0.168-0.557,0.168-0.779h-3.119c0.521,0.595,1.04,1.04,1.559,1.337l0.891-0.891
			c0.223,0.222,0.334,0.372,0.334,0.446c0,0.149-0.372,0.501-1.114,1.058c-0.742,0.557-1.188,0.947-1.337,1.17h0.779
			c1.188,0,1.931-0.148,2.228-0.446c0.223,0.297,0.334,0.52,0.334,0.668v0.446l-0.78,0.78l-3.007-0.334
			c0.149,0.15,0.668,0.297,1.559,0.446c0.891,0.15,1.632,0.484,2.228,1.002l-0.78,0.669c-0.372-0.148-0.818-0.223-1.337-0.223
			h-0.779c0.222,0.744,0.482,1.114,0.779,1.114c0.891,0,1.485-0.148,1.782-0.446c0.223,0.222,0.334,0.409,0.334,0.557v0.557
			c-1.041,0.372-1.894,0.632-2.562,0.78c-0.222-0.223-0.446-0.371-0.668-0.446c-0.223,0-0.408,0.075-0.557,0.222
			c2.153,0.744,3.415,1.114,3.787,1.114h19.941L267.238,95.34z M243.51,99.797v3.565c1.114-1.039,1.671-2.078,1.671-3.119
			C244.439,100.317,243.883,100.169,243.51,99.797 M196.277,106.258h1.114v0.78h-1.114V106.258z M204.409,109.042v-1.559
			c0.148,0.596,0.816,0.891,2.005,0.891C205.894,108.82,205.225,109.042,204.409,109.042 M205.078,100.019l-0.446,1.56
			c0.201,0,0.473,0.056,0.813,0.167c0.339,0.112,0.611,0.168,0.814,0.168c0.338,0,0.576-0.073,0.712-0.223v-0.446v7.575v-3.899
			h-0.446c-0.223-0.073-0.372-0.111-0.446-0.111c-0.223,0-0.446,0.075-0.669,0.223c-0.075-0.223-0.186-0.334-0.334-0.334
			c-0.075,0-0.15,0.075-0.223,0.222v0.112c-0.075,0.668,0.296,1.225,1.114,1.67h-1.559v-7.018l2.896,0.668L205.078,100.019z
			 M240.948,100.799v-5.57h-20.784l-6.264,63.611l-4.905-63.611h-22.183l-6.687,61.381l-4.122-61.381h-22.392v8.467
			c0.075-1.708,0.371-3.936,0.891-6.684l10.137,86.891h26.736l6.352-47.01l6.684,47.01h27.182L240.948,100.799z M120.749,145.916
			l-2.228-0.112c5.549,3.772,8.66,6.101,9.335,6.987c1.574,2.072,2.362,5.842,2.362,11.312c0,4.512-1.394,6.765-4.181,6.765
			c-2.486,0-3.728-1.255-3.728-3.764v-14.727h-20.497v11.696c0-0.816,0.222,0.521,0.668,4.011
			c0.741,5.793,3.601,10.249,8.578,13.368c4.306,2.748,9.505,4.122,15.596,4.122c4.679,0,8.986-0.78,12.923-2.339
			c4.752-1.931,7.982-4.753,9.691-8.467c1.485-3.119,2.228-5.754,2.228-7.909c0-0.669-0.038-1.616-0.111-2.841
			c-0.075-1.225-0.111-2.172-0.111-2.84c0-5.347-0.753-10.508-2.255-15.484h-2.48l-0.226,0.891
			c-0.227-0.594-0.338-1.299-0.338-2.117c0-2.524-0.152-4.066-0.451-4.623c-0.301-0.557-1.541-1.577-3.719-3.064v0.669
			c-0.075-0.073-0.15-0.148-0.223-0.223c-0.149,0-0.261,0.223-0.334,0.669c-0.222-1.257-0.26-1.887-0.111-1.887
			c-1.782-1.553-4.679-3.515-8.689-5.882c-3.565-2.144-6.015-3.995-7.352-5.549c-2.08-2.441-3.119-5.621-3.119-9.542
			c0-4.07,1.258-6.104,3.778-6.104c2.085,0,3.129,2.505,3.129,7.515c0,0.515-0.019,1.418-0.056,2.706
			c-0.038,1.29-0.019,2.266,0.056,2.928v0.442h11.92c-0.445-1.337-0.668-2.71-0.668-4.122c0-1.114,0.155-2.078,0.469-2.896
			c0.206,0.891,0.311,1.82,0.311,2.785c0,1.411-0.15,2.823-0.446,4.233h5.013c0-1.262,0.073-1.967,0.222-2.117
			c0.296,0.521,0.446,1.003,0.446,1.449c0,0.222-0.038,0.446-0.111,0.668h3.342v-9.469c0-6.534-2.562-11.436-7.687-14.704
			c-4.308-2.747-9.803-4.122-16.487-4.122c-8.17,0-14.186,1.932-18.047,5.792c-3.862,3.863-5.792,9.99-5.792,18.381
			c0,6.833,1.3,12.292,3.898,16.376c2.599,4.086,6.944,7.575,13.034,10.472L120.749,145.916z M146.483,141.683v3.454h2.117
			C147.708,143.354,147.002,142.203,146.483,141.683 M94.125,126.087c-0.297,0-0.595,0.131-0.891,0.39
			c-0.297,0.261-0.484,0.39-0.557,0.39L94.125,126.087z M90.338,125.976c-0.372,0-0.612,0.186-0.724,0.557
			c-0.111,0.372-0.205,0.595-0.278,0.668c0.296,0,0.557,0.112,0.78,0.334c-1.041,0.521-1.746,0.78-2.117,0.78
			c0.371,0.743,0.594,1.3,0.668,1.67c0-0.371,0.408-0.964,1.226-1.782c0.446,1.336,0.741,2.08,0.891,2.227
			c0.296-0.296,0.669-0.518,1.114-0.668c-0.297,0-0.52-0.371-0.668-1.114c0,0.297-0.15,0.595-0.446,0.89
			c-0.222-0.446-0.334-0.779-0.334-1.002c0-0.222,0.519-0.446,1.56-0.668c1.039-0.223,1.744-0.334,2.116-0.334
			c0.446,0,0.853,0.075,1.226,0.223v-5.793L90.338,125.976z M87.999,134.887c0.668-0.741,1.076-1.114,1.226-1.114
			c-0.15,0.149-0.15,0.409,0,0.779c0.222,0.521,0.334,0.819,0.334,0.891C89.185,135.073,88.667,134.887,87.999,134.887
			 M82.206,127.424c-0.521,4.085-1.745,6.127-3.676,6.127H75.41v-23.393h2.674c2.896,0,4.345,2.935,4.345,8.8
			C82.429,123.488,82.354,126.309,82.206,127.424 M88.444,132.771l-0.669-0.223l1.003-2.45h0.668L88.444,132.771z M92.12,134.998
			c-0.596,0-0.891,0.223-0.891,0.669c0-0.446-0.111-0.816-0.334-1.114c-0.372,0-0.557,0.15-0.557,0.446v-2.227
			c0,0.297,0.148,0.595,0.446,0.891c0.446-0.594,0.741-1.039,0.891-1.337c0.446,1.189,0.741,2.155,0.891,2.896L92.12,134.998z
			 M92.12,131.322c-0.521,0.744-0.891,1.114-1.114,1.114c-0.075,0-0.223-0.129-0.446-0.39c-0.223-0.259-0.484-0.39-0.78-0.39
			c0.147-0.148,0.371-0.222,0.668-0.222h1.003c0-0.223-0.15-0.483-0.446-0.78c0.741,0,1.114-0.148,1.114-0.446
			c0.222,0.891,0.408,1.559,0.557,2.005C92.825,132.214,92.639,131.918,92.12,131.322 M93.679,132.437l-0.557-0.669l0.446-0.557
			l0.669,0.78L93.679,132.437z M89.335,125.864l-1.002,1.114l-0.446-0.446L89.335,125.864z M95.685,130.098h0.78v1.671h-0.78
			V130.098z M96.688,131.546c0.446-0.073,0.816-0.296,1.114-0.669c0.371,0.596,0.558,1.041,0.558,1.337
			C97.69,132.214,97.133,131.991,96.688,131.546 M99.807,131.768c0.296-0.593,0.482-1.337,0.557-2.228
			c0.446,0.521,0.669,0.93,0.669,1.226L99.807,131.768z M96.688,125.085c0,0.743,0.223,1.114,0.669,1.114
			c-0.521,0-0.966,0.223-1.337,0.669L96.688,125.085z M100.587,125.864l-0.558-1.002l0.669-0.334l0.557,1.337H100.587z
			 M99.138,120.072l0.223-0.446c0-0.296-0.223-0.446-0.669-0.446s-0.743-0.148-0.891-0.446l-0.445-0.891
			c-0.446,0.222-0.819,0.334-1.114,0.334l1.114-1.225c0.593,0.446,1.039,0.743,1.336,0.891c0.223-0.223,0.334-0.519,0.334-0.891
			v-0.446c0.446,0.372,0.816,0.557,1.114,0.557C99.546,118.55,99.211,119.553,99.138,120.072 M96.465,117.175
			c-0.075-0.519-0.112-0.964-0.112-1.337c0-0.296,0.073-0.519,0.223-0.668c0,0.743,0.259,1.114,0.78,1.114
			C96.761,116.283,96.465,116.582,96.465,117.175 M98.024,114.947c0.741,0,1.114-0.147,1.114-0.446v1.337
			C99.138,115.245,98.766,114.947,98.024,114.947 M97.69,109.266c0.073,0.075,0.184,0.317,0.334,0.724
			c0.148,0.409,0.446,0.613,0.891,0.613c0.371,0,0.649-0.056,0.836-0.168c0.184-0.111,0.315-0.167,0.39-0.167v2.563
			C99.1,112.312,98.284,111.123,97.69,109.266 M100.364,112.496c0-0.594,0.073-1.632,0.223-3.119
			c-1.189,0.223-1.782-0.184-1.782-1.226c0-0.296,0.056-0.741,0.167-1.337c0.111-0.593,0.167-1.039,0.167-1.336
			c0-2.897-2.302-5.421-6.907-7.575c-3.862-1.707-7.427-2.563-10.694-2.563H53.13v89.232h22.391v-36.094h6.684
			c2.674,0.075,4.716-0.407,6.127-1.448v-9.358c0.593,0.298,1.187,0.446,1.782,0.446l0.446-0.111
			c-0.15-0.594,0.147-1.076,0.891-1.448c0.518-0.296,1.039-0.557,1.559-0.78v-0.222c0-0.964,0.036-1.448,0.111-1.448
			c0.519,0,0.964-0.185,1.337-0.558c-0.15-2.153-0.297-3.749-0.446-4.79v-0.557c0.073,0,0.184,0.149,0.334,0.446
			c0.148,0.297,0.407,0.445,0.78,0.445c0.296,0,0.741-0.296,1.337-0.89l0.668,0.668c-0.297,0.521-0.521,0.891-0.668,1.114
			c-0.298-0.147-0.558-0.222-0.78-0.222c-0.446,0-0.818,0.15-1.114,0.446v1.559c0.073,0.669,0.259,1.003,0.558,1.003
			c0.518,0,0.927-0.112,1.225-0.334l0.334,0.334c-0.075,0.149-0.539,0.612-1.392,1.392c-0.855,0.779-1.319,1.355-1.392,1.726
			c0.296-0.147,0.63-0.147,1.002,0l0.446-0.557v0.78c0,0.446-0.222,0.799-0.668,1.058c-0.446,0.261-0.855,0.54-1.226,0.836v0.446
			c0,1.114-0.075,1.782-0.223,2.005c0.223,0.669,0.185,1.114-0.111,1.337c0.742-0.816,1.262-1.448,1.56-1.894
			c0.296,0.298,0.63,0.446,1.002,0.446c0-0.593,0.111-1.039,0.334-1.337c0.593,1.189,0.891,1.969,0.891,2.339
			c0-1.262,0.184-2.041,0.557-2.339c0.593,0.15,1.076,0.261,1.448,0.334c-0.297-0.222-0.446-0.519-0.446-0.891
			c0-0.519,0.296-1.151,0.891-1.894c-0.818-1.337-1.448-2.301-1.894-2.896l-0.78,0.446l-0.446-0.223l1.114-1.114
			c1.409,1.559,2.487,2.748,3.23,3.564v-2.227c-1.114,0-1.671-0.185-1.671-0.558l0.891-1.002c-0.372-0.964-0.818-1.632-1.337-2.005
			v-2.451l1.114-1.225c0.296,0.297,0.446,0.668,0.446,1.114c0-0.446,0.184-0.891,0.558-1.337c-0.15-0.148-0.261-0.259-0.334-0.334
			c-0.891,0-1.337-0.184-1.337-0.557c0-0.741,0.279-1.466,0.836-2.172c0.557-0.705,0.908-1.28,1.058-1.726
			c0,0.372-0.15,0.706-0.446,1.002c-0.297-0.742-0.484-1.299-0.557-1.671c0.296-0.296,0.63-0.446,1.002-0.446
			c-0.668,0-1.041-0.259-1.114-0.78c0.593-0.668,0.964-1.15,1.114-1.448v1.56l0.111-2.117c-0.222-0.073-0.484-0.184-0.779-0.334
			c0.296-0.296,0.446-0.557,0.446-0.779c0-0.148-0.15-0.279-0.446-0.39c-0.298-0.112-0.446-0.279-0.446-0.501
			c0.296-0.296,0.741-0.446,1.337-0.446C100.587,114.687,100.364,113.685,100.364,112.496 M88.333,136.224l-0.446,0.446l0.557,0.669
			l0.557-0.446L88.333,136.224z M95.016,140.791l-0.668,0.223l1.002,2.45h0.669L95.016,140.791z M92.343,137.672l-0.557,0.223
			l0.446,1.114H92.9L92.343,137.672z M96.02,136.335v2.228c0-0.741,0.446-1.114,1.337-1.114
			C96.761,137.079,96.315,136.709,96.02,136.335 M93.346,128.315h-0.78v2.562h0.78V128.315z M95.574,122.633l-0.223,0.669
			l1.114,0.557l0.334-0.669L95.574,122.633z M92.677,146.584c0-0.073-0.056-0.223-0.167-0.446c-0.111-0.222-0.168-0.371-0.168-0.446
			v0.668l-0.222-0.557c0-0.147,0.148-0.371,0.446-0.668c-0.372,0.446-0.557,0.818-0.557,1.114c0,0.298,0.184,0.446,0.557,0.446
			C92.639,146.696,92.677,146.659,92.677,146.584 M94.125,142.128l-0.668,0.223l0.557,1.559h0.669L94.125,142.128z M26.73,140.68
			c1.114-0.148,1.671-0.78,1.671-1.894c0,0.595,0.371,1.226,1.114,1.894H26.73z M24.614,130.766
			c0.075-0.891,0.261-1.484,0.557-1.782c0.446,0.223,0.669,0.632,0.669,1.226C25.023,130.135,24.614,130.32,24.614,130.766
			 M25.839,130.209c0.371-0.223,0.741-0.482,1.114-0.78c1.41,0.223,2.265,0.484,2.563,0.78H25.839z M26.174,124.973l-0.446-0.446
			l1.114-1.114l0.446,0.446L26.174,124.973z M28.402,123.079c-0.298,0-0.521-0.073-0.669-0.222l1.114-1.226
			c0.446,0.596,0.668,1.041,0.668,1.337C29.07,123.043,28.697,123.079,28.402,123.079 M26.174,119.96v-0.668l1.894-0.446v0.668
			L26.174,119.96z M26.062,113.499h0.891v1.671h-0.891V113.499z M26.619,107.149h0.78v2.563h-0.78V107.149z M28.067,106.035
			l-0.557-1.002l0.668-0.334l0.557,1.337H28.067z M26.619,168.975l-2.563,0.446v0.78l2.563-0.446V168.975z M50.013,183.569h-1.671
			v0.78h1.671V183.569z M25.505,160.732l-0.222,0.669l1.225,0.668l0.334-0.668L25.505,160.732z M27.176,159.395l-3.119-0.446v0.78
			l3.119,0.446V159.395z M25.505,155.273l-0.222,0.669l1.225,0.557l0.334-0.557L25.505,155.273z M47.785,95.34H24.837l-0.78,2.563
			l1.894-0.446l0.78,0.78c-0.223,1.337-0.446,2.637-0.669,3.898c-0.446,1.782-1.039,2.86-1.782,3.23v30.858
			c2.376-0.147,4.159,0,5.347,0.446v1.002h-5.124v6.795c2.524,0,4.233,0.112,5.124,0.334v1.226l-0.334,0.334
			c-2.006-0.296-3.751-0.445-5.236-0.445l0.557,3.118c0.075-0.891,0.705-1.337,1.894-1.337c1.41,0,2.451,0.966,3.119,2.897
			c-0.446,0.149-0.818,0.222-1.114,0.222c-0.372,0-0.855-0.741-1.448-2.228c-0.966,0.966-1.967,1.449-3.008,1.449v1.67h2.339
			c0.741,0,1.187,0.521,1.337,1.56c-0.372,0-0.929,0.111-1.671,0.334c-0.743,0.223-1.262,0.334-1.559,0.334l-0.111-0.111
			c0.446,0,1.058,0.038,1.838,0.111c0.78,0.075,1.281,0.111,1.504,0.111v3.343c-2.005,0-3.267,0.222-3.787,0.668h1.114
			c0.816,0,1.707-0.111,2.674-0.334v5.571c-0.521,0.149-1.077,0.222-1.671,0.222c0.371,0-0.334-0.036-2.116-0.111
			c1.632,0.521,2.896,0.891,3.787,1.114v6.573c-0.521,0.372-0.929,0.632-1.226,0.78c-0.297-0.446-0.632-0.669-1.002-0.669
			c0.148,0-0.371,0.15-1.559,0.446c2.375,0.297,3.637,0.446,3.787,0.446c-0.446,0.669-0.707,1.226-0.78,1.671
			c-0.372-0.223-0.706-0.334-1.002-0.334c-0.297,0-0.484,0.038-0.557,0.111c1.114-0.073,1.744-0.073,1.894,0
			c0.296,0.15,0.446,0.744,0.446,1.782c0,0.966-0.222,1.634-0.668,2.006c-0.15-0.223-0.223-0.446-0.223-0.669
			c0-0.222,0.056-0.482,0.168-0.78c0.111-0.296,0.167-0.557,0.167-0.779h-3.119c0.521,0.595,1.041,1.04,1.559,1.337l0.891-0.891
			c0.223,0.222,0.334,0.372,0.334,0.446c0,0.149-0.372,0.501-1.114,1.058c-0.742,0.557-1.188,0.947-1.337,1.17h0.779
			c1.188,0,1.931-0.148,2.228-0.446c0.223,0.297,0.334,0.52,0.334,0.668v0.446l-0.78,0.78l-3.007-0.334
			c0.149,0.15,0.668,0.297,1.559,0.446c0.891,0.15,1.632,0.484,2.228,1.002l-0.78,0.669c-0.372-0.148-0.818-0.223-1.337-0.223
			h-0.779c0.222,0.744,0.482,1.114,0.779,1.114c0.891,0,1.485-0.148,1.782-0.446c0.223,0.222,0.334,0.409,0.334,0.557v0.557
			c-1.041,0.372-1.894,0.632-2.563,0.78c-0.222-0.223-0.446-0.371-0.668-0.446c-0.223,0-0.408,0.075-0.557,0.222
			c2.153,0.744,3.415,1.114,3.787,1.114h19.941L47.785,95.34z M24.057,99.797v3.565c1.114-1.039,1.671-2.078,1.671-3.119
			C24.986,100.317,24.429,100.169,24.057,99.797"/>
	</g>
	<rect x="36.612" y="0" fill="#070911" width="318.829" height="82.285"/>
	<g>
		<defs>
			<rect id="SVGID_3_" x="0" y="0" width="400.63" height="208.23"/>
		</defs>
		<clipPath id="SVGID_4_">
			<use xlink:href="#SVGID_3_"  overflow="visible"/>
		</clipPath>
		<path clip-path="url(#SVGID_4_)" fill="#E13F8F" d="M319.161,55.294c0-0.783,0.23-1.427,0.691-1.934v4.49
			C319.391,57.114,319.161,56.261,319.161,55.294 M304.864,24.49v-0.484l3.246,0.276v0.484L304.864,24.49z M305.555,22.073
			c-0.323,0.047-1.129,0.139-2.418,0.276c0.598-0.321,1.151-0.529,1.658-0.621c-0.093-0.184-0.231-0.299-0.415-0.346h2.349
			C306.636,21.705,306.246,21.934,305.555,22.073 M310.183,27.667c0.23-0.321,0.345-0.575,0.345-0.76
			c0.23,0.276,0.346,0.645,0.346,1.105C310.55,27.783,310.321,27.667,310.183,27.667 M305.693,22.901h1.036v0.484h-1.036V22.901z
			 M310.114,25.388l-0.552-0.069c-0.276-0.092-0.462-0.069-0.553,0.069c0.046,0.047,0.057,0.173,0.035,0.38
			c-0.024,0.206,0.103,0.311,0.379,0.311c0.276,0,0.437-0.046,0.484-0.139c0.045-0.092,0.115-0.138,0.207-0.138
			c0,0.093-0.104,0.288-0.311,0.587c-0.207,0.3-0.311,0.565-0.311,0.794c-0.046-0.184-0.161-0.368-0.345-0.552
			c-0.231,0.231-0.184,0.484,0.139,0.76c-0.094,0-0.323,0.058-0.691,0.173c-0.369,0.116-0.599,0.172-0.691,0.172
			c0-0.184,0.08-0.356,0.242-0.518c0.161-0.161,0.287-0.172,0.38-0.034c0.597-1.105,0.897-2.324,0.897-3.66
			c0.046,0.093,0.104,0.357,0.173,0.794C309.665,24.755,309.837,25.112,310.114,25.388 M307.075,22.901h0.76v0.484h-0.76V22.901z
			 M312.047,28.358l-0.276-0.276l0.967-0.967l0.276,0.276L312.047,28.358z M307.075,22.211v-0.484l1.312,0.345v0.484L307.075,22.211
			z M308.456,22.901h0.76v0.484h-0.76V22.901z M312.324,27.252l-0.277-0.276l0.691-0.69l0.276,0.276L312.324,27.252z
			 M310.735,24.973l-0.414-0.206l0.345-0.691l0.415,0.138L310.735,24.973z M310.873,24.421h0.484v1.036h-0.484V24.421z
			 M309.906,23.453h1.036v0.484h-1.036V23.453z M312.117,26.147v-0.415l0.69-0.345l0.139,0.415L312.117,26.147z M312.669,24.697
			l-0.415-0.206l0.415-0.691l0.345,0.138L312.669,24.697z M328.969,16.823h-31.771v11.327h8.772v44.272h14.366V28.012h8.633V16.823z
			 M271.021,25.664h2.348v0.484h-2.348V25.664z M275.717,25.94h1.243v0.484h-1.243V25.94z M271.229,20.829l-0.346-0.138l0.276-0.967
			h0.415L271.229,20.829z M274.337,23.316l-0.415-0.345l0.276-0.277l0.415,0.415L274.337,23.316z M272.748,21.105h0.484v1.036
			h-0.484V21.105z M275.096,23.592l-0.345-0.207l0.345-0.691l0.345,0.139L275.096,23.592z M271.09,19.034
			c0.184-0.506,0.322-0.805,0.415-0.897c-0.139-0.139-0.231-0.23-0.276-0.277c0.321,0.784,0.484,1.336,0.484,1.658
			C271.389,19.334,271.182,19.172,271.09,19.034 M273.162,20.414c0.322,0.277,0.484,0.484,0.484,0.622h-1.312
			c0.23-0.415,0.783-0.852,1.658-1.312C273.622,20.047,273.346,20.277,273.162,20.414 M275.027,22.141l-0.346-1.312h0.484
			l0.346,1.312H275.027z M272.333,18.205c0.368-0.276,0.621-0.415,0.76-0.415v1.934C273.001,18.896,272.748,18.389,272.333,18.205
			 M276.34,22.694c-0.184,0.185-0.323,0.277-0.415,0.277c0.322-1.013,0.46-2.279,0.415-3.799c0.229,1.336,0.368,2.417,0.414,3.245
			C276.661,22.418,276.523,22.511,276.34,22.694 M281.796,26.216h2.348V26.7h-2.348V26.216z M284.558,26.492h0.967v0.484h-0.967
			V26.492z M286.216,26.492h2.9v0.484h-2.9V26.492z M284.835,23.177h0.691v0.484h-0.691V23.177z M284.558,20.553l-0.414-0.345
			l0.276-0.276l0.414,0.414L284.558,20.553z M284.627,19.793l-0.897-0.345v-0.415l1.036,0.345L284.627,19.793z M286.976,22.418
			c0.229-0.368,0.345-0.621,0.345-0.76c0.276,0.231,0.415,0.576,0.415,1.036C287.413,22.511,287.16,22.418,286.976,22.418
			 M292.294,27.183l-0.415-0.345l0.276-0.276l0.415,0.414L292.294,27.183z M284.351,18.343h0.484v0.76h-0.484V18.343z
			 M292.847,26.77h0.691v0.484h-0.691V26.77z M290.533,23.35c-0.207,0.116-0.357,0.173-0.449,0.173v-1.312
			c0.368,0.645,0.667,0.966,0.897,0.966C290.889,23.177,290.74,23.236,290.533,23.35 M287.529,19.724l-0.346-0.207l0.346-0.691
			l0.345,0.139L287.529,19.724z M287.666,19.172h0.484v1.036h-0.484V19.172z M289.877,21.105c-0.276,0-0.495-0.069-0.656-0.207
			c-0.162-0.138-0.266-0.206-0.311-0.206c0.322-0.322,0.644-0.368,0.967-0.139c0.552-0.967,0.967-1.52,1.243-1.657
			c-0.369,0.414-0.645,0.737-0.829,0.966c0.138,0.139,0.39,0.093,0.76-0.138c0-0.092-0.116,0.138-0.346,0.69
			c0.184,0.415,0.299,0.622,0.346,0.622c0.045,0,0.069,0.161,0.069,0.484c-0.047,0.323-0.161,0.599-0.345,0.829
			c-0.139,0-0.116-0.092,0.069-0.276c0.138-0.092,0-0.139-0.415-0.139c-0.645,0-0.967,0.37-0.967,1.106
			c0.139,0.184,0.207,0.345,0.207,0.484c-0.461-0.276-0.806-0.484-1.036-0.622c0.092-0.138,0.265-0.334,0.518-0.587
			c0.252-0.252,0.38-0.494,0.38-0.725c-0.231,0.139-0.439,0.207-0.622,0.207l0.691-0.691c0.644,0.415,1.151,0.53,1.519,0.346
			C290.935,21.221,290.521,21.105,289.877,21.105 M291.741,23.108v-0.897c0.046,0.184,0.161,0.369,0.346,0.552
			c0.138-0.184,0.207-0.46,0.207-0.829c0.414,0.738,0.437,1.451,0.069,2.142C292.087,23.661,291.88,23.34,291.741,23.108
			 M292.847,22.004l-0.691-0.76l0.276-0.207l0.691,0.621L292.847,22.004z M293.054,23.453c0.092-0.321,0.298-0.552,0.621-0.69
			c0.092,0,0.115-0.115,0.069-0.346c-0.093-0.229-0.093-0.39,0-0.484l0.967,0.967C294.297,23.271,293.744,23.453,293.054,23.453
			 M291.672,20.277l-0.414-0.207l0.69-0.967l0.346,0.207L291.672,20.277z M292.432,20.346l-0.276-0.345l0.691-0.622l0.276,0.276
			L292.432,20.346z M295.54,26.355c-0.093,0-0.184,0.046-0.276,0.138c-0.093,0.094-0.276,0.139-0.552,0.139
			c-0.231,0-0.392-0.092-0.484-0.276c-0.093-0.184-0.253-0.276-0.484-0.276h-9.946c-0.231,0-0.276-0.092-0.138-0.276
			c0.138-0.184,0.092-0.276-0.139-0.276h-0.863h-1.209v35.155c-0.047,1.751-0.784,2.624-2.21,2.624c-1.243,0-1.911-0.76-2.003-2.279
			v-36.33l-0.414,0.346c-1.014,0.093-2.003,0.184-2.97,0.276c-1.198,0.046-2.165-0.115-2.9-0.484
			c2.117-0.368,3.844-0.437,5.18-0.207c0-0.184,0.069-0.368,0.207-0.552c0.552,0.552,0.852,0.829,0.897,0.829v-6.285
			c-0.046,0-0.093,0.047-0.138,0.139c-0.047,0.093-0.207,0.139-0.484,0.139c-0.369,0-0.784-0.253-1.243-0.76
			c0.184-0.553,0.276-0.898,0.276-1.037c0-0.138-0.138-0.206-0.415-0.206c-0.322,0-0.552,0.069-0.69,0.206
			c0.414,0,0.69,0.094,0.829,0.277c-0.184,0.138-0.369,0.206-0.552,0.206c0.184,0.37,0.368,0.738,0.552,1.106
			c-0.184,0.046-0.3,0.116-0.345,0.207c0,0.046,0.138,0.161,0.414,0.345c0.276,0.184,0.438,0.323,0.484,0.414
			c-0.184,0.047-0.426,0.012-0.725-0.103c-0.3-0.115-0.564-0.173-0.794-0.173h-0.276c-0.323-0.829-0.484-1.381-0.484-1.657
			c0.276,0.231,0.484,0.369,0.622,0.415c-0.323-0.139-0.415-0.553-0.276-1.243c-0.047,0.046-0.37,0.069-0.967,0.069
			c-0.231,0-0.323,0.046-0.276,0.138c0.045,0.094-0.047,0.139-0.276,0.139c-0.231,0-0.323-0.092-0.277-0.276
			c0.046-0.184-0.046-0.276-0.276-0.276h-8.702v40.957c0,4.927,1.588,8.68,4.766,11.258c2.9,2.349,6.838,3.523,11.81,3.523
			c4.098,0,7.574-0.966,10.429-2.9c3.545-2.348,5.318-5.825,5.318-10.429V26.355z M276.34,17.099
			c0.368,0.37,0.276,0.553-0.276,0.553c0.045,0,0.242,0.069,0.587,0.206c0.345,0.139,0.563,0.185,0.656,0.139
			C276.799,17.63,276.477,17.33,276.34,17.099 M282.418,16.962c-0.415,0.415-0.691,0.552-0.829,0.415
			c0.229,0.184,0.644,0.276,1.242,0.276C282.601,17.33,282.463,17.099,282.418,16.962 M295.54,19.241
			c-0.276-0.276-0.656-0.46-1.139-0.552c-0.484-0.092-0.725-0.218-0.725-0.38c0-0.161-0.138-0.242-0.415-0.242
			c-0.276,0-0.369-0.114-0.276-0.345c0.046-0.276,0.115-0.529,0.207-0.76l0.139,0.207c0,0.046-0.139,0.069-0.415,0.069
			c-0.415,0-0.599-0.092-0.552-0.276c-0.047,0-0.253-0.034-0.622-0.104c-0.369-0.069-0.668-0.103-0.897-0.103
			c0.829,0.323,1.473,0.53,1.934,0.622l-0.207,1.52c-0.323,0-0.622-0.139-0.898-0.415c0.184-0.184,0.252-0.415,0.207-0.691
			c-1.105,0.784-1.958,1.336-2.555,1.658c-0.231-0.415-0.369-0.736-0.415-0.967l0.484-0.484c0.092,0,0.242,0.034,0.449,0.103
			c0.207,0.07,0.357,0.104,0.449,0.104c-0.093-0.092-0.231-0.184-0.415-0.276c-0.184-0.092-0.323-0.184-0.415-0.276
			c0.322-0.368,0.553-0.645,0.691-0.829c-0.276,0.276-0.529,0.415-0.76,0.415c-0.276-0.321-0.484-0.518-0.621-0.587
			c-0.139-0.07-0.323-0.08-0.552-0.034c-0.276,0.046-0.484,0.069-0.622,0.069c0,0.921-0.392,1.405-1.174,1.451
			c0.138-0.184,0.252-0.346,0.345-0.484c-0.047-0.139-0.219-0.334-0.518-0.588c-0.3-0.252-0.518-0.379-0.657-0.379
			c0.184,0.645,0.139,1.105-0.138,1.381l-0.415-0.414c0.139-0.184,0.207-0.506,0.207-0.967l-0.415,0.138
			c-0.23,0.094-0.392,0.094-0.484,0c0.415,0.553,0.644,0.922,0.691,1.106c-0.093,0.093-0.3,0.138-0.621,0.138l-0.553-0.552
			c-0.138-0.184-0.138-0.437,0-0.76h-1.036c0.184,0.093,0.368,0.334,0.553,0.725c0.183,0.392,0.368,0.634,0.552,0.725
			c-0.415,0.231-0.622,0.529-0.622,0.897c0,0.093,0.046,0.323,0.139,0.691c0.045,0.323,0.045,0.576,0,0.76
			c-0.184-0.229-0.093-0.345,0.276-0.345c0.092,0.093,0.218,0.206,0.379,0.345c0.161,0.139,0.288,0.253,0.38,0.345
			c-0.737,0.323-1.29,0.553-1.658,0.691c0.276-0.138,0.553-0.161,0.829-0.069c0.368,0.093,0.597,0.138,0.69,0.138
			c0.23,0,0.299-0.092,0.207-0.276c-0.093-0.184-0.024-0.276,0.207-0.276c0.229,0,0.345,0.254,0.345,0.76
			c0.507-1.288,0.806-2.301,0.898-3.039c-0.323,0.139-0.484-0.045-0.484-0.552c0.46,0,0.852,0.162,1.174,0.484
			c0,0.093-0.035,0.289-0.104,0.587c-0.069,0.3-0.103,0.496-0.103,0.588c0.321-0.322,0.484-0.277,0.484,0.138
			c-0.323,0.323-0.668,0.3-1.036-0.069c0.414,0.414,0.76,0.645,1.036,0.691c-0.323,0.598-0.552,1.013-0.691,1.242
			c-0.231-0.276-0.345-0.46-0.345-0.552c0.045,0.139,0.069,0.276,0.069,0.415c0,0.138-0.116,0.266-0.345,0.379
			c-0.231,0.116-0.392,0.311-0.484,0.588c-0.784-0.783-1.336-1.012-1.658-0.691c0.139-0.139,0.368-0.045,0.691,0.276
			c-0.093,0.093-0.38,0.139-0.864,0.139s-0.611,0.184-0.379,0.552l-0.967-0.967c0.092-0.139,0.23-0.184,0.415-0.139
			c0.321,0.094,0.552,0.139,0.69,0.139c-0.645-0.276-1.105-0.484-1.381-0.621c0.321-0.737,0.691-1.197,1.105-1.382
			c-0.138,0-0.311-0.079-0.518-0.242c-0.206-0.161-0.288-0.311-0.242-0.449v-0.206l0.691,0.483
			c-0.093-0.736,0.023-1.242,0.345-1.519c-0.184,0-0.448,0.115-0.794,0.345c-0.345,0.231-0.611,0.369-0.794,0.415v6.837l0.415-0.345
			c1.841-0.184,5.802-0.069,11.88,0.345c0.092-0.092,0.172-0.218,0.242-0.379c0.069-0.161,0.148-0.287,0.242-0.38
			c0.045,0.047,0.079,0.197,0.103,0.449c0.023,0.254,0.173,0.38,0.449,0.38c0.414,0,0.621-0.115,0.621-0.346v-2.141l-0.484,0.138
			c-0.276,0.094-0.461,0.094-0.552,0c0.46-0.368,0.829-0.644,1.105-0.829v-1.796c-0.322,0-0.645,0.184-0.966,0.552
			c-0.37-0.46-0.668-0.829-0.898-1.105c0,0.047,0.069,0.173,0.207,0.379c0.138,0.207,0.161,0.357,0.069,0.449
			c0.046,0.369-0.093,0.552-0.414,0.552c0-0.045-0.094-0.345-0.277-0.897c-0.093-0.322-0.253-0.552-0.483-0.691l0.483-0.415
			c0.092,0,0.23,0.047,0.415,0.139c0.184,0.093,0.322,0.139,0.415,0.139c-0.047-0.691,0.045-1.151,0.276-1.382
			c0.092,0,0.299,0.162,0.621,0.484c-0.184,0.921-0.253,1.405-0.207,1.451c0.139,0,0.391-0.092,0.76-0.276V19.241z M290.499,17.099
			l-0.277,0.415l0.967,0.622l0.276-0.346L290.499,17.099z M294.919,16.685c-0.369,0-0.345,0.231,0.069,0.691
			c-0.276,0.184-0.461,0.276-0.552,0.276c0.092,0,0.252-0.046,0.484-0.139c0.229-0.092,0.391-0.138,0.484-0.138
			C295.079,17.376,294.919,17.146,294.919,16.685 M246.64,62.546c-0.414,0.784-0.99,1.174-1.726,1.174
			c-1.566,0-2.349-0.967-2.349-2.9V28.772c0-0.782,0.23-1.461,0.691-2.037c0.46-0.574,1.059-0.863,1.796-0.863
			c1.427,0,2.142,0.852,2.142,2.555v32.255C247.194,61.326,247.008,61.948,246.64,62.546 M260.938,32.502
			c0-5.111-1.428-8.978-4.282-11.604c-2.855-2.624-6.769-3.936-11.741-3.936c-5.02,0-8.911,1.289-11.672,3.868
			c-2.947,2.718-4.421,6.63-4.421,11.741V57.09c0,5.111,1.474,9.002,4.421,11.672c2.762,2.579,6.652,3.868,11.672,3.868
			c4.972,0,8.886-1.312,11.741-3.936c2.855-2.625,4.282-6.469,4.282-11.535V32.502z M213.143,61.717h0.484v0.621h-0.484V61.717z
			 M211.21,57.09c0,0.323,0.022,0.807,0.069,1.451v1.45c0,1.106-0.139,1.865-0.415,2.279c-1.243,0.507-2.188,0.76-2.832,0.76h-1.451
			V49.837l2.901-0.552c1.381,0.323,2.072,1.014,2.072,2.072c0,0.276-0.058,0.715-0.173,1.313c-0.116,0.598-0.172,1.036-0.172,1.312
			c0,0.507,0.138,0.897,0.414,1.174C211.348,55.432,211.21,56.078,211.21,57.09 M212.66,55.639l-0.345-0.138l0.345-0.552
			l0.415,0.069L212.66,55.639z M200.366,28.841l-0.415-0.139l0.346-0.691l0.414,0.139L200.366,28.841z M200.711,26.77h0.691v0.484
			h-0.691V26.77z M209.137,38.372h-2.555V26.079h2.279c1.796-0.046,2.694,1.957,2.694,6.008
			C211.555,36.277,210.749,38.372,209.137,38.372 M203.75,25.457v-1.036c0.322-0.368,0.691-0.552,1.105-0.552
			C204.303,24.605,203.934,25.135,203.75,25.457 M203.889,22.694h0.484v1.036h-0.484V22.694z M197.465,37.199l-0.276,0.276
			l0.415,0.414l0.276-0.276L197.465,37.199z M225.438,49.424c-0.185-1.842-1.129-3.477-2.833-4.904
			c-1.565-1.288-3.292-2.072-5.18-2.348c3.546-0.92,5.825-2.44,6.838-4.559c0.507-1.012,0.76-2.855,0.76-5.526
			c0-2.21-0.392-5.225-1.174-9.047c-0.093-0.092-0.897-0.92-2.417-2.487c-1.336-1.335-2.326-2.072-2.97-2.21
			c-4.375-1.012-6.838-1.52-7.39-1.52h-4.213c-0.138,0.738-0.484,1.29-1.036,1.658c-0.184-0.184-0.276-0.46-0.276-0.829
			c-0.093,0.552-0.138,0.76-0.138,0.621l0.552,0.622c-0.323,0.138-0.53,0.23-0.622,0.276c-0.046,0.369-0.093,0.714-0.138,1.036
			h-1.727c0,0.414-0.207,0.829-0.621,1.243h0.414c0.092,0.138,0.07,0.438-0.069,0.897c-0.093,0.369-0.047,0.552,0.139,0.552
			l-0.415-0.138c0,0.369-0.254,0.552-0.76,0.552c0.184,0.138,0.092,0.392-0.276,0.76c-0.047-0.045-0.116-0.23-0.207-0.552
			c-0.047-0.184-0.207-0.276-0.484-0.276c-0.645,0-1.105,0.161-1.381,0.484c0.874,0,1.473,0.3,1.796,0.897
			c0.368-0.368,0.644-0.552,0.829-0.552c0.598,0,1.036,0.231,1.312,0.691c-0.184,0.046-0.668,0.046-1.451,0l0.553,0.552
			c-0.231,0.322-0.37,0.552-0.415,0.691c-0.875-0.415-1.566-0.645-2.072-0.691c0.368-0.322,0.644-0.529,0.829-0.622
			c-0.921,0.462-1.381,0.807-1.381,1.036c0.874,0,1.265,0.207,1.174,0.622c-0.507-0.139-1.267-0.207-2.279-0.207
			c0.644,0.691,1.106,1.198,1.382,1.52v1.312c-0.323,0.599-0.53,1.014-0.622,1.243c0-0.368-0.103-0.863-0.311-1.485
			c-0.207-0.621-0.311-1.047-0.311-1.278c-0.093,0.184-0.254,0.552-0.484,1.106c-0.231,0.552-0.392,0.921-0.484,1.105l0.898-0.829
			l0.483,0.414c-0.552,0.552-0.829,0.852-0.829,0.898c0.184,0.093,0.402,0.266,0.657,0.518c0.252,0.253,0.425,0.379,0.518,0.379
			l0.484,0.415c-0.37,0.093-0.738,0.047-1.106-0.139c-0.369-0.183-0.529-0.276-0.484-0.276c-0.414,0-0.621,0.116-0.621,0.346v1.036
			c0.276,0,0.644,0.231,1.105,0.691c-0.414,0.093-0.621,0.23-0.621,0.414c0,0.047,0.045,0.207,0.138,0.484
			c0.092,0.276,0.115,0.507,0.07,0.691c0-0.092,0.138-0.149,0.414-0.173c0.276-0.023,0.46-0.079,0.553-0.173
			c0,0.047-0.139-0.252-0.415-0.897c0.138-0.23,0.229-0.368,0.276-0.415c0.507,0.691,0.829,1.22,0.967,1.589v2.141
			c-0.231,0.231-0.415,0.345-0.552,0.345c0.229-0.045,0.345-0.022,0.345,0.07c0,0.184-0.276,0.483-0.829,0.897
			c-0.507-0.506-0.76-0.783-0.76-0.829c-0.507,0.599-1.129,0.897-1.865,0.897c0.23,0.462,0.346,0.76,0.346,0.898
			c0,0.047-0.047,0.069-0.139,0.069c-0.691,0.093-1.174,0.3-1.451,0.622c-0.184-0.276-0.299-0.46-0.345-0.553
			c0,0.553-0.161,0.829-0.484,0.829v-0.829c-0.552,0.553-1.036,0.829-1.45,0.829c-0.231,0-0.427-0.034-0.588-0.104
			c-0.161-0.069-0.287-0.103-0.379-0.103v31.08h-2.003c-0.368-0.321-0.622-0.886-0.76-1.692c-0.139-0.806-0.322-1.278-0.552-1.416
			v4.42h25.554c0.139,0,1.254-0.091,3.35-0.276c2.095-0.183,3.649-0.276,4.663-0.276v-1.381c2.255-1.842,3.384-6.308,3.384-13.399
			C225.852,54.396,225.714,51.91,225.438,49.424 M206.237,16.754l-0.345,0.207l0.276,0.621h0.414L206.237,16.754z M169.01,64.549
			h0.76v0.484h-0.76V64.549z M165.626,52.6l2.585-23.345l2.042,23.345H165.626z M170.737,68.555h-0.484v1.036h0.484V68.555z
			 M170.253,64.135h-3.246c0.645,0.322,1.106,0.529,1.382,0.621c-0.507,0.276-0.875,0.369-1.105,0.276
			c1.215,0,2.204,0.139,2.969,0.415V64.135z M187.866,71.042c-0.507,0-0.875-0.023-1.106-0.069
			c-0.552-0.691-0.829-1.358-0.829-2.003v-0.552c-0.552-0.691-0.829-1.703-0.829-3.039c0-0.46,0.059-0.806,0.178-1.037
			c0.276,0.37,0.394,0.553,0.355,0.553c0,0.369,0.049,0.84,0.147,1.415c0.099,0.576,0.148,0.979,0.148,1.209
			c0-0.46-0.047-1.128-0.139-2.003c-0.092-0.874-0.137-1.496-0.137-1.865c0,0.322-0.069,0.552-0.206,0.69
			c-0.414-1.058-0.735-1.865-0.964-2.417c-2.89-19.246-5.045-34.119-6.467-44.618H157.31l-7.224,55.116h14.919
			c0.368-4.914,0.644-8.275,0.829-10.083h5.387v6.699c3.637,0,5.939,0.069,6.907,0.207c-1.612,0.231-3.729,0.3-6.354,0.207
			c0.092,0.184,0.023,0.552-0.207,1.105c-0.23,0.552-0.529,0.944-0.897,1.174c0.46,0.461,0.874,0.69,1.243,0.69h15.955V71.042z
			 M176.746,15.787h-0.76v0.345h0.76V15.787z M179.509,12.61h-1.174c0.139,1.152,0.139,2.325,0,3.523h1.174V12.61z M181.166,15.787
			h-1.036v0.345h1.036V15.787z"/>
		<path clip-path="url(#SVGID_4_)" fill="#FBEA22" d="M110.649,60.198l0.69-0.207v-1.45h-0.69V60.198z M123.91,60.129h0.76v-1.934
			h-0.76V60.129z M114.793,58.609l-0.345,0.967l0.414,0.138l0.346-1.105H114.793z M115.414,64.204L115,63.789l0.276-0.276
			l0.414,0.415L115.414,64.204z M117.763,60.82c-0.646,0-1.198-0.484-1.658-1.451c-0.369,0.784-0.806,1.174-1.312,1.174
			c-0.231,0-0.461-0.057-0.691-0.173c-0.23-0.115-0.438-0.173-0.621-0.173v-3.246c1.288,0.047,2.232,0.484,2.832,1.313
			c0.276-0.415,0.76-0.783,1.451-1.106c0.644,0.323,0.966,0.922,0.966,1.796C118.73,60.198,118.407,60.82,117.763,60.82
			 M130.402,67.934h1.588v0.484h-1.588V67.934z M110.926,71.11l-0.346,0.967l0.346,0.138l0.345-1.105H110.926z M111.063,65.032
			h-0.484v1.243h0.484V65.032z M119.489,70.834l-0.345,1.312h0.484l0.345-1.312H119.489z M123.979,70.765l-0.345,0.691l0.345,0.206
			l0.415-0.76L123.979,70.765z M118.937,65.309l-0.345,0.898l0.415,0.138l0.345-1.036H118.937z M125.43,69.937l-0.415,0.138
			l0.346,0.691h0.414L125.43,69.937z M133.096,61.372c-0.184,0-0.473-0.046-0.863-0.139c-0.392-0.092-0.612-0.138-0.657-0.138
			c-0.323,1.289-0.529,2.279-0.621,2.969c0.552-0.092,1.012,0.081,1.381,0.518c0.368,0.439,0.552,0.888,0.552,1.347
			c0,0.552-0.23,1.06-0.69,1.52c-0.553-0.322-1.106-0.322-1.658,0c-0.323-0.415-0.484-1.012-0.484-1.796
			c0-0.46,0.057-1.071,0.173-1.831c0.114-0.76,0.195-1.231,0.242-1.415c-0.276-0.368-0.346-0.644-0.207-0.829l0.345-0.415
			c-3.223,0-5.111,0.069-5.663,0.207c-0.184-0.092-0.622-0.322-1.312-0.691c-0.507-0.321-0.898-0.484-1.174-0.484
			c-0.231,0-0.392,0.104-0.484,0.311c-0.093,0.207-0.253,0.312-0.484,0.312c-0.921,0-1.381-0.667-1.381-2.003
			c0-0.92,0.506-1.382,1.52-1.382c0.736,0,1.059,0.3,0.967,0.898l-0.415,0.484c-0.369-0.276-0.668-0.46-0.897-0.552l0.76,0.69
			c-0.185,0.184-0.507,0.276-0.967,0.276c0.092,0,0.287,0.07,0.587,0.207c0.299,0.139,0.494,0.207,0.587,0.207
			c0.23-0.874,0.898-1.634,2.003-2.279V17.238h-13.882v39.921c0.092,0,0.206-0.045,0.345-0.138c0.138-0.092,0.345-0.139,0.621-0.139
			c0.184,0,0.415,0.162,0.691,0.484c0,1.06-0.024,1.681-0.069,1.865c-0.047,0,0.022-0.022,0.207-0.069
			c0.092-0.045,0.138,0.069,0.138,0.345c0,0.185-0.161,0.439-0.484,0.76c-0.69-0.045-1.267,0.047-1.727,0.277v2.693
			c0.783,0,1.358,0.093,1.727,0.276v0.898c0.46-0.783,0.829-1.174,1.106-1.174c0.184,0.645,0.298,1.105,0.345,1.382h2.624
			c-0.093-0.23-0.138-0.415-0.138-0.553c0-0.229,0.126-0.471,0.379-0.724c0.252-0.253,0.425-0.449,0.518-0.588
			c0.46,1.014,0.736,1.751,0.829,2.21c0.045-0.184,0.103-0.622,0.172-1.312c0.07-0.691,0.196-1.174,0.38-1.451
			c0.736,0.276,0.989,0.807,0.76,1.588c0.138-0.138,0.345-0.206,0.621-0.206c0.691,0,1.036,0.369,1.036,1.105
			c0.276-0.552,0.714-0.829,1.312-0.829c0.092,0,0.598,0.369,1.52,1.105c0.092,0,0.299,0.034,0.622,0.103
			c0.321,0.07,0.529,0.104,0.621,0.104c0-0.046-0.046-0.218-0.138-0.518c-0.093-0.299-0.116-0.494-0.07-0.588
			c0.921-1.058,1.451-1.588,1.589-1.588c0.229,0,0.529,0.139,0.897,0.415v3.729c-0.369-0.183-0.737-0.46-1.105-0.829
			c0.138,0.323-0.047,0.784-0.552,1.382c-0.323,0-0.622-0.139-0.898-0.415c0.415-0.368,0.391-0.783-0.069-1.243
			c-0.093,0-0.276,0.047-0.552,0.139c-0.276,0.093-0.439,0.116-0.484,0.069c-0.369,0.784-0.829,1.174-1.382,1.174
			c-0.276,0-0.598-0.184-0.966-0.553l-0.622,0.553c-0.737-0.184-1.911-0.277-3.523-0.277c-0.184,0-0.426-0.276-0.725-0.829
			c-0.3-0.552-0.724-0.829-1.278-0.829c-0.461,0-0.69,0.047-0.69,0.138c0,0.047,0.034,0.162,0.103,0.346
			c0.069,0.184,0.104,0.369,0.104,0.552c0,0.415-0.277,0.898-0.829,1.451l-0.484-0.415c0.276-0.874,0.438-1.564,0.484-2.072
			c-0.276,0.276-0.656,0.691-1.139,1.243c-0.484,0.552-0.864,0.967-1.14,1.243c-0.414-0.276-0.714-0.46-0.897-0.552v2.417
			c1.012,0.552,1.45,0.829,1.312,0.829c-0.369-0.69-0.392-1.312-0.069-1.865h0.69c0.184,0.184,0.276,0.829,0.276,1.934
			c0.598-0.598,1.266-0.874,2.003-0.829c0.092,0.094,0.207,0.254,0.346,0.484c0.138,0.231,0.252,0.392,0.345,0.484
			c-0.645,0.646-0.829,0.967-0.552,0.967c0.138,0,0.276,0.253,0.414,0.76c0.691,0.047,1.197,0.069,1.52,0.069
			c0-0.276-0.058-0.597-0.172-0.967c-0.116-0.368-0.173-0.644-0.173-0.829c0-0.368,0.184-0.783,0.552-1.243
			c0.552,0,0.829,0.139,0.829,0.415c0-0.184,0.069-0.322,0.206-0.415v2.763c0.092-0.597,0.184-1.219,0.276-1.865
			c0.092-0.644,0.46-1.128,1.106-1.451c0.138,0.139,0.207,0.599,0.207,1.382l1.45-0.277c0,0.829,0.139,1.337,0.415,1.52
			c-0.276-0.736-0.207-1.242,0.207-1.52c0.092,0.094,0.287,0.185,0.587,0.277c0.299,0.093,0.494,0.184,0.587,0.276
			c-0.69-0.506-1.22-0.829-1.588-0.967c0.322-0.322,0.484-0.552,0.484-0.691c1.197,0.737,2.026,1.29,2.487,1.658
			c0.092-0.092,0.252-0.346,0.484-0.76c0.138-0.23,0.321-0.346,0.552-0.346c0.229,0,0.276,0.093,0.138,0.276
			c-0.138,0.184-0.093,0.276,0.139,0.276c0.276,0,0.494-0.126,0.657-0.379c0.161-0.252,0.311-0.494,0.448-0.725l0.484,0.484v3.108
			h6.285V61.372z M87.858,60.198l0.69-0.207v-1.45h-0.69V60.198z M101.118,60.129h0.76v-1.934h-0.76V60.129z M92.001,58.609
			l-0.345,0.967l0.414,0.138l0.346-1.105H92.001z M92.623,64.204l-0.414-0.415l0.276-0.276l0.415,0.415L92.623,64.204z
			 M94.972,60.82c-0.646,0-1.198-0.484-1.658-1.451c-0.369,0.784-0.806,1.174-1.312,1.174c-0.231,0-0.461-0.057-0.691-0.173
			c-0.23-0.115-0.438-0.173-0.621-0.173v-3.246c1.288,0.047,2.232,0.484,2.832,1.313c0.276-0.415,0.76-0.783,1.451-1.106
			c0.644,0.323,0.967,0.922,0.967,1.796C95.939,60.198,95.616,60.82,94.972,60.82 M107.611,67.934h1.588v0.484h-1.588V67.934z
			 M88.134,71.11l-0.346,0.967l0.346,0.138l0.345-1.105H88.134z M88.271,65.032h-0.484v1.243h0.484V65.032z M96.698,70.834
			l-0.346,1.312h0.484l0.345-1.312H96.698z M101.187,70.765l-0.345,0.691l0.345,0.206l0.415-0.76L101.187,70.765z M96.145,65.309
			L95.8,66.207l0.415,0.138l0.345-1.036H96.145z M102.638,69.937l-0.415,0.138l0.346,0.691h0.414L102.638,69.937z M110.304,61.372
			c-0.184,0-0.473-0.046-0.863-0.139c-0.392-0.092-0.611-0.138-0.657-0.138c-0.323,1.289-0.529,2.279-0.621,2.969
			c0.552-0.092,1.012,0.081,1.381,0.518c0.368,0.439,0.552,0.888,0.552,1.347c0,0.552-0.23,1.06-0.69,1.52
			c-0.553-0.322-1.106-0.322-1.658,0c-0.323-0.415-0.484-1.012-0.484-1.796c0-0.46,0.057-1.071,0.173-1.831
			c0.114-0.76,0.195-1.231,0.242-1.415c-0.276-0.368-0.346-0.644-0.207-0.829l0.345-0.415c-3.223,0-5.111,0.069-5.663,0.207
			c-0.184-0.092-0.621-0.322-1.312-0.691c-0.507-0.321-0.898-0.484-1.174-0.484c-0.23,0-0.392,0.104-0.484,0.311
			c-0.093,0.207-0.253,0.312-0.484,0.312c-0.921,0-1.381-0.667-1.381-2.003c0-0.92,0.507-1.382,1.52-1.382
			c0.736,0,1.059,0.3,0.967,0.898l-0.415,0.484c-0.369-0.276-0.668-0.46-0.897-0.552l0.76,0.69
			c-0.185,0.184-0.507,0.276-0.967,0.276c0.092,0,0.287,0.07,0.587,0.207c0.299,0.139,0.494,0.207,0.587,0.207
			c0.23-0.874,0.898-1.634,2.003-2.279V17.238H87.581v39.921c0.092,0,0.206-0.045,0.345-0.138c0.139-0.092,0.345-0.139,0.621-0.139
			c0.184,0,0.415,0.162,0.691,0.484c0,1.06-0.024,1.681-0.069,1.865c-0.047,0,0.023-0.022,0.207-0.069
			c0.092-0.045,0.138,0.069,0.138,0.345c0,0.185-0.161,0.439-0.484,0.76c-0.69-0.045-1.266,0.047-1.726,0.277v2.693
			c0.782,0,1.357,0.093,1.726,0.276v0.898c0.46-0.783,0.829-1.174,1.106-1.174c0.184,0.645,0.298,1.105,0.345,1.382h2.624
			c-0.093-0.23-0.138-0.415-0.138-0.553c0-0.229,0.126-0.471,0.379-0.724c0.253-0.253,0.425-0.449,0.518-0.588
			c0.46,1.014,0.736,1.751,0.829,2.21c0.045-0.184,0.103-0.622,0.172-1.312c0.07-0.691,0.196-1.174,0.38-1.451
			c0.736,0.276,0.989,0.807,0.76,1.588c0.138-0.138,0.345-0.206,0.621-0.206c0.691,0,1.036,0.369,1.036,1.105
			c0.276-0.552,0.714-0.829,1.313-0.829c0.091,0,0.597,0.369,1.519,1.105c0.092,0,0.299,0.034,0.622,0.103
			c0.321,0.07,0.529,0.104,0.621,0.104c0-0.046-0.046-0.218-0.138-0.518c-0.093-0.299-0.116-0.494-0.069-0.588
			c0.92-1.058,1.45-1.588,1.588-1.588c0.229,0,0.529,0.139,0.897,0.415v3.729c-0.369-0.183-0.737-0.46-1.105-0.829
			c0.139,0.323-0.047,0.784-0.552,1.382c-0.323,0-0.622-0.139-0.898-0.415c0.415-0.368,0.391-0.783-0.069-1.243
			c-0.093,0-0.276,0.047-0.552,0.139c-0.276,0.093-0.439,0.116-0.484,0.069c-0.369,0.784-0.829,1.174-1.381,1.174
			c-0.277,0-0.599-0.184-0.967-0.553l-0.622,0.553c-0.737-0.184-1.911-0.277-3.523-0.277c-0.184,0-0.426-0.276-0.724-0.829
			c-0.3-0.552-0.725-0.829-1.279-0.829c-0.461,0-0.69,0.047-0.69,0.138c0,0.047,0.034,0.162,0.103,0.346
			c0.069,0.184,0.104,0.369,0.104,0.552c0,0.415-0.276,0.898-0.829,1.451l-0.484-0.415c0.277-0.874,0.438-1.564,0.484-2.072
			c-0.276,0.276-0.656,0.691-1.139,1.243c-0.484,0.552-0.864,0.967-1.14,1.243c-0.414-0.276-0.714-0.46-0.897-0.552v2.417
			c1.012,0.552,1.451,0.829,1.312,0.829c-0.369-0.69-0.392-1.312-0.069-1.865h0.69c0.184,0.184,0.277,0.829,0.277,1.934
			c0.597-0.598,1.265-0.874,2.002-0.829c0.092,0.094,0.207,0.254,0.346,0.484c0.138,0.231,0.252,0.392,0.345,0.484
			c-0.645,0.646-0.829,0.967-0.552,0.967c0.138,0,0.276,0.253,0.415,0.76c0.69,0.047,1.197,0.069,1.52,0.069
			c0-0.276-0.058-0.597-0.173-0.967c-0.116-0.368-0.173-0.644-0.173-0.829c0-0.368,0.184-0.783,0.552-1.243
			c0.553,0,0.829,0.139,0.829,0.415c0-0.184,0.069-0.322,0.206-0.415v2.763c0.092-0.597,0.184-1.219,0.277-1.865
			c0.092-0.644,0.46-1.128,1.105-1.451c0.138,0.139,0.207,0.599,0.207,1.382l1.45-0.277c0,0.829,0.139,1.337,0.415,1.52
			c-0.276-0.736-0.207-1.242,0.207-1.52c0.092,0.094,0.287,0.185,0.587,0.277c0.299,0.093,0.494,0.184,0.588,0.276
			c-0.691-0.506-1.221-0.829-1.589-0.967c0.322-0.322,0.484-0.552,0.484-0.691c1.197,0.737,2.026,1.29,2.487,1.658
			c0.092-0.092,0.252-0.346,0.484-0.76c0.138-0.23,0.321-0.346,0.552-0.346c0.23,0,0.276,0.093,0.139,0.276
			c-0.139,0.184-0.094,0.276,0.138,0.276c0.276,0,0.494-0.126,0.657-0.379c0.161-0.252,0.311-0.494,0.448-0.725l0.484,0.484v3.108
			h6.285V61.372z M71.005,64.549h0.76v0.484h-0.76V64.549z M67.621,52.6l2.586-23.345L72.248,52.6H67.621z M72.731,68.555h-0.484
			v1.036h0.484V68.555z M72.248,64.135h-3.245c0.644,0.322,1.105,0.529,1.381,0.621c-0.507,0.276-0.875,0.369-1.105,0.276
			c1.215,0,2.204,0.139,2.969,0.415V64.135z M89.861,71.042c-0.507,0-0.875-0.023-1.106-0.069c-0.552-0.691-0.829-1.358-0.829-2.003
			v-0.552c-0.552-0.691-0.829-1.703-0.829-3.039c0-0.46,0.059-0.806,0.178-1.037c0.276,0.37,0.394,0.553,0.355,0.553
			c0,0.369,0.049,0.84,0.148,1.415c0.098,0.576,0.147,0.979,0.147,1.209c0-0.46-0.046-1.128-0.138-2.003
			c-0.092-0.874-0.138-1.496-0.138-1.865c0,0.322-0.069,0.552-0.206,0.69c-0.414-1.058-0.735-1.865-0.964-2.417
			c-2.891-19.246-5.046-34.119-6.468-44.618H59.305L52.08,72.423h14.919c0.368-4.914,0.644-8.275,0.829-10.083h5.387v6.699
			c3.637,0,5.94,0.069,6.907,0.207c-1.612,0.231-3.729,0.3-6.354,0.207c0.092,0.184,0.023,0.552-0.206,1.105
			c-0.231,0.552-0.53,0.944-0.898,1.174c0.46,0.461,0.874,0.69,1.243,0.69h15.955V71.042z M78.741,15.787h-0.76v0.345h0.76V15.787z
			 M81.503,12.61h-1.174c0.139,1.152,0.139,2.325,0,3.523h1.174V12.61z M83.161,15.787h-1.036v0.345h1.036V15.787z"/>
	</g>
</g>
</svg>
