<?xml version="1.0" encoding="utf-8"?>
<!-- Generator: Adobe Illustrator 17.0.0, SVG Export Plug-In . SVG Version: 6.00 Build 0)  -->
<!DOCTYPE svg PUBLIC "-//W3C//DTD SVG 1.1//EN" "http://www.w3.org/Graphics/SVG/1.1/DTD/svg11.dtd">
<svg version="1.1" id="Layer_1" xmlns="http://www.w3.org/2000/svg" xmlns:xlink="http://www.w3.org/1999/xlink" x="0px" y="0px"
	 width="33px" height="59px" viewBox="0 0 33 59" enable-background="new 0 0 33 59" xml:space="preserve">
<path fill="#FFFFFF" d="M33,2.297C33,1.029,31.971,0,30.703,0H2.297C1.029,0,0,1.029,0,2.297v54.405C0,57.971,1.029,59,2.297,59
	h28.405C31.971,59,33,57.971,33,56.703V2.297z M16.222,56.074c-1.567,0-2.837-1.27-2.837-2.837c0-1.567,1.27-2.837,2.837-2.837
	c1.567,0,2.837,1.27,2.837,2.837C19.059,54.804,17.789,56.074,16.222,56.074z M30,49H3V7h27V49z"/>
</svg>
