<?xml version="1.0" encoding="utf-8"?>
<!-- Generator: Adobe Illustrator 17.0.0, SVG Export Plug-In . SVG Version: 6.00 Build 0)  -->
<!DOCTYPE svg PUBLIC "-//W3C//DTD SVG 1.1//EN" "http://www.w3.org/Graphics/SVG/1.1/DTD/svg11.dtd">
<svg version="1.1" id="Layer_1" xmlns="http://www.w3.org/2000/svg" xmlns:xlink="http://www.w3.org/1999/xlink" x="0px" y="0px"
	 width="32.567px" height="60.363px" viewBox="0 0 32.567 60.363" enable-background="new 0 0 32.567 60.363" xml:space="preserve">
<g>
	<path fill-rule="evenodd" clip-rule="evenodd" fill="#FFFFFF" d="M6.025,41.952c0.813-2.064,1.166-4.753,1.887-7.621
		c0.402-1.607,1.147-3.658,1.747-5.634c0.267,0.044,0.542,0.067,0.821,0.067h11.606c0.28,0,0.554-0.023,0.821-0.067
		c0.6,1.976,1.345,4.027,1.747,5.633c0.721,2.868,1.075,5.557,1.887,7.621H6.025z"/>
	<path fill-rule="evenodd" clip-rule="evenodd" fill="#FFFFFF" d="M30.33,55.059v1.142c0,2.29-1.873,4.162-4.162,4.162H6.398
		c-2.289,0-4.162-1.872-4.162-4.162v-1.144c0.708,0.253,1.469,0.391,2.263,0.391h23.569C28.861,55.448,29.622,55.311,30.33,55.059z"
		/>
	<path fill-rule="evenodd" clip-rule="evenodd" fill="#FFFFFF" d="M4.499,44.201C2.014,44.201,0,46.215,0,48.7
		c0,2.485,2.014,4.499,4.499,4.499h23.569c2.485,0,4.499-2.014,4.499-4.499c0-2.485-2.014-4.499-4.499-4.499H4.499z"/>
	<path fill-rule="evenodd" clip-rule="evenodd" fill="#FFFFFF" d="M10.48,20.89c-1.553,0-2.812,1.259-2.812,2.812
		c0,1.552,1.259,2.812,2.812,2.812h11.606c1.553,0,2.812-1.259,2.812-2.812c0-1.553-1.259-2.812-2.812-2.812H10.48z"/>
	<path fill-rule="evenodd" clip-rule="evenodd" fill="#FFFFFF" d="M14.422,4.604c0.14-0.398,0.034-0.728-0.294-0.999
		c-0.733-0.121-1.297-0.761-1.297-1.527c0-2.771,6.904-2.771,6.904,0c0,0.766-0.564,1.406-1.297,1.527
		c-0.329,0.27-0.435,0.601-0.294,0.999c3.697,0.845,6.455,4.153,6.455,8.106c0,2.323-0.952,4.422-2.488,5.931h-0.026H10.48h-0.026
		c-1.535-1.509-2.488-3.608-2.488-5.931C7.967,8.757,10.725,5.449,14.422,4.604z"/>
</g>
</svg>
