<?xml version="1.0" encoding="utf-8"?>
<!-- Generator: Adobe Illustrator 17.0.0, SVG Export Plug-In . SVG Version: 6.00 Build 0)  -->
<!DOCTYPE svg PUBLIC "-//W3C//DTD SVG 1.1//EN" "http://www.w3.org/Graphics/SVG/1.1/DTD/svg11.dtd">
<svg version="1.1" id="Layer_1" xmlns="http://www.w3.org/2000/svg" xmlns:xlink="http://www.w3.org/1999/xlink" x="0px" y="0px"
	 width="51.002px" height="52.868px" viewBox="0 0 51.002 52.868" enable-background="new 0 0 51.002 52.868" xml:space="preserve">
<path fill="#FFFFFF" d="M47.277,31.507c-2.774-4.804-1.105-10.96,3.726-13.759L45.806,8.75c-1.484,0.871-3.21,1.37-5.052,1.37
	c-5.553,0-10.053-4.53-10.053-10.119h-10.39c0.013,1.725-0.416,3.474-1.34,5.072c-2.774,4.804-8.94,6.438-13.777,3.653L0,17.724
	c1.495,0.851,2.79,2.095,3.711,3.691c2.769,4.796,1.11,10.942-3.702,13.744l5.196,8.999c1.479-0.862,3.197-1.355,5.029-1.355
	c5.535,0,10.023,4.502,10.051,10.065h10.39c-0.005-1.708,0.428-3.436,1.34-5.019c2.769-4.796,8.92-6.433,13.754-3.666l5.196-8.999
	c-1.485-0.851-2.772-2.092-3.688-3.678V31.507z M25.5,37.139c-5.911,0-10.704-4.793-10.704-10.704S19.589,15.731,25.5,15.731
	s10.704,4.793,10.704,10.704S31.412,37.139,25.5,37.139z"/>
</svg>
