<?xml version="1.0" encoding="utf-8"?>
<!-- Generator: Adobe Illustrator 17.0.0, SVG Export Plug-In . SVG Version: 6.00 Build 0)  -->
<!DOCTYPE svg PUBLIC "-//W3C//DTD SVG 1.1//EN" "http://www.w3.org/Graphics/SVG/1.1/DTD/svg11.dtd">
<svg version="1.1" id="Layer_1" xmlns="http://www.w3.org/2000/svg" xmlns:xlink="http://www.w3.org/1999/xlink" x="0px" y="0px"
	 width="48.486px" height="54.23px" viewBox="0 0 48.486 54.23" enable-background="new 0 0 48.486 54.23" xml:space="preserve">
<path fill-rule="evenodd" clip-rule="evenodd" fill="#FFFFFF" d="M24.243,0.212c-0.661-0.233-1.971-0.521-2.432,0.632
	c-0.628,1.569-0.314,9.022-0.314,9.022h-7.688c0,0-1.491,0.941-0.628,2.746c0.863,1.804,0.863,1.726,0.863,1.726h7.845
	c0,0,0.392,3.139,0,5.178c-0.392,2.04-1.961,6.276-4.786,7.767c-2.824,1.491-2.981,4.472-2.981,4.472s-2.275-3.06-5.57-2.04
	c-3.295,1.02-4.393,3.06-4.393,3.06s0-5.335,5.884-6.197c5.884-0.863,9.336-3.373,10.199-5.492c0.863-2.118,0.863-2.118,0.863-2.118
	s-1.569,3.216-9.414,3.452C3.845,22.654-0.077,28.302,0.001,33.01c0.078,4.707,3.373,9.336,5.178,11.375
	c1.804,2.04,2.275,2.354,2.275,2.354s-1.648,3.864-1.491,5.825c0.157,1.961,3.452,1.647,3.452,1.647h14.828H39.07
	c0,0,3.295,0.314,3.452-1.647c0.157-1.962-1.49-5.825-1.49-5.825s0.471-0.314,2.275-2.354c1.804-2.039,5.099-6.669,5.178-11.375
	c0.078-4.707-3.844-10.356-11.689-10.591c-7.845-0.235-9.414-3.452-9.414-3.452s0,0,0.863,2.118
	c0.863,2.119,4.315,4.629,10.199,5.492c5.884,0.862,5.884,6.197,5.884,6.197s-1.099-2.04-4.394-3.06
	c-3.295-1.02-5.57,2.04-5.57,2.04s-0.157-2.981-2.981-4.472c-2.824-1.491-4.394-5.727-4.786-7.767c-0.392-2.039,0-5.178,0-5.178
	h7.845c0,0,0,0.079,0.863-1.726c0.863-1.805-0.628-2.746-0.628-2.746h-7.688c0,0,0.314-7.453-0.314-9.022
	C26.213-0.309,24.904-0.021,24.243,0.212L24.243,0.212z M24.243,45.86l-5.889-10.201c0,0,1.025-1.473,3.771-1.552l2.118-0.06
	l2.118,0.06c2.746,0.079,3.771,1.552,3.771,1.552L24.243,45.86L24.243,45.86z M24.243,30.034c-0.926,0.03-2.698,0.171-4.079,0.779
	c-1.962,0.863-1.962,1.333-1.962,1.333s1.334-1.883,4.08-4.942c1.015-1.131,1.612-2.562,1.961-3.918
	c0.35,1.355,0.946,2.786,1.961,3.918c2.746,3.06,4.08,4.942,4.08,4.942s0-0.47-1.961-1.333
	C26.94,30.205,25.169,30.064,24.243,30.034L24.243,30.034z M43.935,36.854l-5.772,9.998H26.675l6.452-11.176
	c0,0,2.805-2.196,6.414-1.882C43.15,34.108,43.935,36.854,43.935,36.854L43.935,36.854z M4.551,36.854c0,0,0.784-2.746,4.393-3.06
	c3.609-0.314,6.414,1.882,6.414,1.882l6.452,11.176H10.324L4.551,36.854z"/>
</svg>
