<?xml version="1.0" encoding="utf-8"?>
<!-- Generator: Adobe Illustrator 17.0.0, SVG Export Plug-In . SVG Version: 6.00 Build 0)  -->
<!DOCTYPE svg PUBLIC "-//W3C//DTD SVG 1.1//EN" "http://www.w3.org/Graphics/SVG/1.1/DTD/svg11.dtd">
<svg version="1.1" id="Layer_1" xmlns="http://www.w3.org/2000/svg" xmlns:xlink="http://www.w3.org/1999/xlink" x="0px" y="0px"
	 width="600px" height="374px" viewBox="0 0 600 374" enable-background="new 0 0 600 374" xml:space="preserve">
<path fill="#63328A" d="M556.5,174.496c0,4.697-3.807,8.504-8.504,8.504H52.004c-4.697,0-8.504-3.807-8.504-8.504V72.504
	c0-4.697,3.807-8.504,8.504-8.504h495.992c4.697,0,8.504,3.807,8.504,8.504V174.496z"/>
<path fill="#9A9999" d="M556.572,301.496c0,4.697-3.807,8.504-8.504,8.504H52.076c-4.697,0-8.504-3.807-8.504-8.504V199.504
	c0-4.697,3.807-8.504,8.504-8.504h495.992c4.697,0,8.504,3.807,8.504,8.504V301.496z"/>
<g>
	<g>
		<path fill="#FFFFFF" d="M154.552,140.584v13.104H115.24v-13.104h12.922v-23.205c-0.546,0.728-1.411,1.472-2.594,2.229
			c-1.183,0.759-2.473,1.456-3.867,2.093c-1.396,0.637-2.837,1.153-4.323,1.547c-1.486,0.395-2.807,0.591-3.958,0.591v-13.468
			c0.97,0,2.229-0.333,3.776-1.001c1.547-0.667,3.078-1.47,4.596-2.412c1.516-0.94,2.881-1.896,4.095-2.867
			c1.213-0.97,1.971-1.759,2.275-2.366h14.833v38.857H154.552z"/>
		<path fill="#FFFFFF" d="M208.514,127.025c0,4.004-0.606,7.689-1.819,11.057c-1.215,3.367-2.883,6.279-5.005,8.736
			c-2.125,2.457-4.642,4.368-7.554,5.733c-2.912,1.365-6.066,2.048-9.464,2.048c-3.398,0-6.537-0.683-9.418-2.048
			c-2.883-1.365-5.385-3.276-7.508-5.733c-2.124-2.457-3.792-5.369-5.005-8.736c-1.215-3.367-1.82-7.053-1.82-11.057
			s0.605-7.689,1.82-11.057c1.213-3.367,2.881-6.279,5.005-8.736c2.123-2.457,4.625-4.382,7.508-5.778
			c2.881-1.395,6.02-2.093,9.418-2.093c3.397,0,6.552,0.698,9.464,2.093c2.912,1.396,5.429,3.321,7.554,5.778
			c2.122,2.457,3.79,5.369,5.005,8.736C207.907,119.335,208.514,123.021,208.514,127.025z M193.772,127.025
			c0-4.246-0.851-7.689-2.549-10.329c-1.698-2.639-3.883-3.958-6.552-3.958c-2.729,0-4.945,1.32-6.643,3.958
			c-1.699,2.639-2.548,6.083-2.548,10.329c0,4.247,0.849,7.675,2.548,10.283c1.697,2.609,3.913,3.913,6.643,3.913
			c2.669,0,4.854-1.304,6.552-3.913C192.922,134.7,193.772,131.272,193.772,127.025z"/>
		<path fill="#FFFFFF" d="M264.388,127.025c0,4.004-0.607,7.689-1.82,11.057c-1.214,3.367-2.882,6.279-5.005,8.736
			c-2.124,2.457-4.641,4.368-7.553,5.733c-2.912,1.365-6.067,2.048-9.464,2.048c-3.398,0-6.538-0.683-9.419-2.048
			c-2.882-1.365-5.385-3.276-7.507-5.733c-2.125-2.457-3.793-5.369-5.006-8.736c-1.214-3.367-1.819-7.053-1.819-11.057
			s0.605-7.689,1.819-11.057c1.213-3.367,2.881-6.279,5.006-8.736c2.122-2.457,4.625-4.382,7.507-5.778
			c2.881-1.395,6.021-2.093,9.419-2.093c3.396,0,6.552,0.698,9.464,2.093c2.912,1.396,5.429,3.321,7.553,5.778
			c2.123,2.457,3.791,5.369,5.005,8.736C263.78,119.335,264.388,123.021,264.388,127.025z M249.646,127.025
			c0-4.246-0.851-7.689-2.548-10.329c-1.699-2.639-3.883-3.958-6.552-3.958c-2.73,0-4.945,1.32-6.644,3.958
			c-1.699,2.639-2.548,6.083-2.548,10.329c0,4.247,0.849,7.675,2.548,10.283c1.698,2.609,3.913,3.913,6.644,3.913
			c2.669,0,4.853-1.304,6.552-3.913C248.795,134.7,249.646,131.272,249.646,127.025z"/>
		<path fill="#FFFFFF" d="M270.575,155.417c0.183,0,0.47-0.031,0.865-0.091c0.394-0.062,0.773-0.213,1.138-0.455
			c0.363-0.243,0.682-0.562,0.955-0.956s0.439-0.956,0.5-1.684v-13.377h11.83v16.107c0,2.123-0.5,3.868-1.501,5.232
			c-1.001,1.365-2.245,2.457-3.731,3.276c-1.487,0.819-3.125,1.395-4.914,1.729c-1.79,0.333-3.503,0.5-5.142,0.5V155.417z"/>
		<path fill="#FFFFFF" d="M342.92,127.025c0,4.004-0.607,7.689-1.82,11.057c-1.214,3.367-2.882,6.279-5.005,8.736
			c-2.124,2.457-4.641,4.368-7.553,5.733c-2.912,1.365-6.067,2.048-9.464,2.048c-3.398,0-6.538-0.683-9.419-2.048
			c-2.882-1.365-5.385-3.276-7.507-5.733c-2.125-2.457-3.793-5.369-5.006-8.736c-1.214-3.367-1.819-7.053-1.819-11.057
			s0.605-7.689,1.819-11.057c1.213-3.367,2.881-6.279,5.006-8.736c2.122-2.457,4.625-4.382,7.507-5.778
			c2.881-1.395,6.021-2.093,9.419-2.093c3.396,0,6.552,0.698,9.464,2.093c2.912,1.396,5.429,3.321,7.553,5.778
			c2.123,2.457,3.791,5.369,5.005,8.736C342.312,119.335,342.92,123.021,342.92,127.025z M328.178,127.025
			c0-4.246-0.851-7.689-2.548-10.329c-1.699-2.639-3.883-3.958-6.552-3.958c-2.73,0-4.945,1.32-6.644,3.958
			c-1.699,2.639-2.548,6.083-2.548,10.329c0,4.247,0.849,7.675,2.548,10.283c1.698,2.609,3.913,3.913,6.644,3.913
			c2.669,0,4.853-1.304,6.552-3.913C327.327,134.7,328.178,131.272,328.178,127.025z"/>
		<path fill="#FFFFFF" d="M398.794,127.025c0,4.004-0.607,7.689-1.82,11.057c-1.214,3.367-2.882,6.279-5.005,8.736
			c-2.124,2.457-4.641,4.368-7.553,5.733c-2.912,1.365-6.067,2.048-9.464,2.048c-3.398,0-6.538-0.683-9.419-2.048
			c-2.882-1.365-5.385-3.276-7.507-5.733c-2.125-2.457-3.793-5.369-5.006-8.736c-1.214-3.367-1.819-7.053-1.819-11.057
			s0.605-7.689,1.819-11.057c1.213-3.367,2.881-6.279,5.006-8.736c2.122-2.457,4.625-4.382,7.507-5.778
			c2.881-1.395,6.021-2.093,9.419-2.093c3.396,0,6.552,0.698,9.464,2.093c2.912,1.396,5.429,3.321,7.553,5.778
			c2.123,2.457,3.791,5.369,5.005,8.736C398.187,119.335,398.794,123.021,398.794,127.025z M384.052,127.025
			c0-4.246-0.851-7.689-2.548-10.329c-1.699-2.639-3.883-3.958-6.552-3.958c-2.73,0-4.945,1.32-6.644,3.958
			c-1.699,2.639-2.548,6.083-2.548,10.329c0,4.247,0.849,7.675,2.548,10.283c1.698,2.609,3.913,3.913,6.644,3.913
			c2.669,0,4.853-1.304,6.552-3.913C383.201,134.7,384.052,131.272,384.052,127.025z"/>
		<path fill="#FFFFFF" d="M454.668,127.025c0,4.004-0.607,7.689-1.82,11.057c-1.214,3.367-2.882,6.279-5.005,8.736
			c-2.124,2.457-4.641,4.368-7.553,5.733c-2.912,1.365-6.067,2.048-9.464,2.048c-3.398,0-6.538-0.683-9.419-2.048
			c-2.882-1.365-5.385-3.276-7.507-5.733c-2.125-2.457-3.793-5.369-5.006-8.736c-1.214-3.367-1.819-7.053-1.819-11.057
			s0.605-7.689,1.819-11.057c1.213-3.367,2.881-6.279,5.006-8.736c2.122-2.457,4.625-4.382,7.507-5.778
			c2.881-1.395,6.021-2.093,9.419-2.093c3.396,0,6.552,0.698,9.464,2.093c2.912,1.396,5.429,3.321,7.553,5.778
			c2.123,2.457,3.791,5.369,5.005,8.736C454.061,119.335,454.668,123.021,454.668,127.025z M439.926,127.025
			c0-4.246-0.851-7.689-2.548-10.329c-1.699-2.639-3.883-3.958-6.552-3.958c-2.73,0-4.945,1.32-6.644,3.958
			c-1.699,2.639-2.548,6.083-2.548,10.329c0,4.247,0.849,7.675,2.548,10.283c1.698,2.609,3.913,3.913,6.644,3.913
			c2.669,0,4.853-1.304,6.552-3.913C439.075,134.7,439.926,131.272,439.926,127.025z"/>
		<path fill="#FFFFFF" d="M493.251,115.559v11.648h-8.554v9.464h-13.104v-9.464h-8.646v-11.648h8.646v-9.464h13.104v9.464H493.251z"
			/>
	</g>
</g>
<g>
	<g>
		<path fill="#FFFFFF" d="M137.059,243.332c-1.467,0-2.819-0.286-4.06-0.859s-2.313-1.354-3.22-2.34
			c-0.907-0.986-1.614-2.134-2.12-3.44c-0.507-1.307-0.76-2.68-0.76-4.12c0-1.466,0.26-2.853,0.779-4.16
			c0.521-1.306,1.24-2.453,2.16-3.439s1.993-1.767,3.22-2.34s2.561-0.86,4-0.86c1.44,0,2.78,0.287,4.021,0.86s2.32,1.354,3.24,2.34
			s1.64,2.134,2.159,3.439c0.521,1.308,0.78,2.694,0.78,4.16c0,1.44-0.26,2.813-0.78,4.12c-0.52,1.307-1.233,2.454-2.14,3.44
			c-0.907,0.986-1.986,1.767-3.24,2.34C139.846,243.046,138.499,243.332,137.059,243.332z M128.939,232.652
			c0,1.227,0.213,2.38,0.64,3.46c0.426,1.08,1.006,2.021,1.74,2.82c0.732,0.8,1.593,1.434,2.58,1.899
			c0.985,0.467,2.04,0.7,3.159,0.7c1.12,0,2.174-0.233,3.16-0.7c0.986-0.466,1.847-1.112,2.58-1.939
			c0.733-0.826,1.32-1.78,1.76-2.86c0.44-1.08,0.66-2.246,0.66-3.5c0-1.227-0.22-2.38-0.66-3.46c-0.439-1.08-1.026-2.026-1.76-2.84
			s-1.594-1.46-2.58-1.94c-0.986-0.479-2.04-0.72-3.16-0.72c-1.094,0-2.134,0.24-3.119,0.72c-0.987,0.48-1.854,1.134-2.601,1.96
			c-0.747,0.827-1.334,1.794-1.76,2.9C129.152,230.259,128.939,231.426,128.939,232.652z"/>
		<path fill="#FFFFFF" d="M168.898,215.133c-0.906,0-1.674,0.193-2.3,0.579c-0.627,0.388-1.14,0.881-1.54,1.48
			s-0.693,1.273-0.88,2.02c-0.187,0.747-0.28,1.48-0.28,2.2v3.16h6.92v1.64h-6.92v16.721h-2v-16.721h-6.88v16.721h-2v-16.721h-2.92
			v-1.64h2.92v-1.88c0-0.96,0.12-1.906,0.36-2.84s0.613-1.767,1.12-2.5c0.506-0.733,1.14-1.326,1.899-1.78
			c0.76-0.453,1.66-0.68,2.7-0.68c1.013,0,1.887,0.113,2.62,0.34s1.313,0.474,1.74,0.74c0.533-0.773,1.22-1.406,2.06-1.9
			c0.84-0.493,1.873-0.74,3.101-0.74c0.666,0,1.226,0.061,1.68,0.181c0.453,0.12,0.833,0.254,1.14,0.399
			c0.307,0.147,0.554,0.294,0.74,0.44s0.32,0.247,0.4,0.3l-0.721,1.44c-0.267-0.24-0.594-0.46-0.979-0.66
			C170.492,215.232,169.832,215.133,168.898,215.133z M161.898,221.612c0-0.613,0.073-1.293,0.221-2.04
			c0.146-0.746,0.366-1.426,0.659-2.04c-0.453-0.346-1-0.573-1.64-0.68s-1.227-0.16-1.76-0.16c-0.827,0-1.521,0.2-2.08,0.6
			c-0.561,0.4-1.007,0.895-1.34,1.48c-0.334,0.587-0.574,1.233-0.721,1.939c-0.146,0.707-0.22,1.354-0.22,1.94v1.92h6.88V221.612z"
			/>
		<path fill="#FFFFFF" d="M184.219,243.332c-1.467,0-2.826-0.286-4.08-0.859c-1.253-0.573-2.34-1.36-3.26-2.36
			s-1.64-2.153-2.16-3.46c-0.52-1.307-0.779-2.706-0.779-4.2c0-1.466,0.26-2.846,0.779-4.14c0.521-1.293,1.233-2.427,2.141-3.4
			c0.906-0.973,1.986-1.739,3.239-2.3c1.254-0.56,2.601-0.84,4.04-0.84c1.467,0,2.82,0.287,4.061,0.86s2.312,1.347,3.22,2.319
			c0.906,0.974,1.62,2.107,2.14,3.4c0.521,1.294,0.78,2.66,0.78,4.1c0,0.134-0.007,0.3-0.02,0.5c-0.014,0.2-0.021,0.327-0.021,0.38
			h-18.28c0.08,1.2,0.36,2.314,0.841,3.341c0.479,1.026,1.086,1.913,1.819,2.659c0.733,0.747,1.58,1.334,2.54,1.761
			s1.986,0.64,3.08,0.64c0.72,0,1.434-0.1,2.141-0.3c0.706-0.2,1.359-0.474,1.96-0.82c0.6-0.346,1.133-0.767,1.6-1.26
			c0.466-0.493,0.833-1.033,1.1-1.62l1.761,0.479c-0.32,0.747-0.768,1.435-1.341,2.061c-0.573,0.627-1.239,1.167-2,1.62
			c-0.76,0.453-1.594,0.807-2.5,1.06S185.179,243.332,184.219,243.332z M192.379,231.732c-0.08-1.227-0.354-2.347-0.82-3.36
			c-0.467-1.013-1.066-1.886-1.8-2.62c-0.733-0.732-1.58-1.306-2.54-1.72c-0.96-0.413-1.986-0.62-3.08-0.62s-2.12,0.207-3.08,0.62
			c-0.96,0.414-1.807,0.987-2.54,1.72c-0.733,0.734-1.319,1.614-1.76,2.641c-0.439,1.026-0.7,2.14-0.779,3.34H192.379z"/>
		<path fill="#FFFFFF" d="M208.539,223.933c-1.894,0.054-3.534,0.606-4.92,1.66c-1.387,1.054-2.36,2.5-2.92,4.34v13h-2v-20.8h1.88
			v5.119c0.72-1.466,1.673-2.659,2.859-3.579c1.187-0.921,2.46-1.446,3.82-1.58c0.267,0,0.507-0.007,0.72-0.021
			c0.214-0.013,0.4-0.02,0.561-0.02V223.933z"/>
		<path fill="#FFFFFF" d="M218.738,243.332c-1.6,0-3.134-0.267-4.6-0.8c-1.467-0.533-2.747-1.333-3.841-2.399l1-1.36
			c1.12,1.014,2.28,1.76,3.48,2.24c1.2,0.479,2.52,0.72,3.96,0.72c1.813,0,3.273-0.38,4.38-1.14c1.106-0.761,1.66-1.82,1.66-3.181
			c0-0.64-0.14-1.18-0.42-1.62c-0.28-0.439-0.7-0.812-1.26-1.119c-0.561-0.307-1.254-0.58-2.08-0.82
			c-0.827-0.24-1.787-0.493-2.88-0.76c-1.174-0.267-2.194-0.533-3.061-0.801c-0.866-0.266-1.58-0.586-2.14-0.96
			c-0.561-0.373-0.98-0.826-1.26-1.359c-0.28-0.533-0.42-1.214-0.42-2.04c0-1.04,0.199-1.946,0.6-2.721
			c0.4-0.772,0.953-1.413,1.66-1.92c0.706-0.506,1.52-0.886,2.439-1.14c0.92-0.253,1.9-0.38,2.94-0.38
			c1.626,0,3.066,0.273,4.32,0.82c1.253,0.547,2.226,1.246,2.92,2.1l-1.12,1.08c-0.694-0.8-1.594-1.4-2.7-1.8
			c-1.106-0.4-2.287-0.601-3.54-0.601c-0.773,0-1.5,0.08-2.18,0.24c-0.681,0.16-1.274,0.414-1.78,0.76
			c-0.507,0.348-0.907,0.794-1.2,1.34c-0.294,0.547-0.439,1.194-0.439,1.94c0,0.614,0.1,1.106,0.3,1.48
			c0.2,0.373,0.52,0.693,0.96,0.96c0.439,0.267,1.006,0.5,1.7,0.699c0.692,0.2,1.52,0.42,2.479,0.66
			c1.307,0.32,2.467,0.627,3.48,0.92c1.013,0.294,1.859,0.654,2.54,1.08c0.68,0.427,1.199,0.934,1.56,1.521s0.54,1.333,0.54,2.239
			c0,1.867-0.727,3.354-2.18,4.461C223.104,242.779,221.165,243.332,218.738,243.332z"/>
		<path fill="#FFFFFF" d="M250.378,243.332c-1.44,0-2.774-0.3-4-0.899c-1.228-0.601-2.287-1.4-3.181-2.4s-1.587-2.146-2.08-3.439
			c-0.493-1.294-0.739-2.634-0.739-4.021c0-1.439,0.239-2.813,0.72-4.12c0.479-1.306,1.146-2.453,2-3.439
			c0.853-0.986,1.859-1.773,3.02-2.36c1.16-0.586,2.434-0.88,3.82-0.88c0.906,0,1.767,0.134,2.58,0.4s1.56,0.619,2.24,1.06
			c0.68,0.44,1.3,0.954,1.859,1.54c0.561,0.587,1.04,1.214,1.44,1.88v-12.92h2v26.4c0,0.666,0.28,1,0.84,1v1.8
			c-0.134,0.026-0.254,0.04-0.36,0.04s-0.213,0-0.319,0c-0.587,0-1.061-0.187-1.42-0.561c-0.36-0.373-0.54-0.786-0.54-1.239v-2.4
			c-0.854,1.387-1.994,2.494-3.42,3.32C253.41,242.919,251.924,243.332,250.378,243.332z M250.737,241.532
			c0.72,0,1.493-0.146,2.32-0.439c0.826-0.294,1.6-0.7,2.32-1.221c0.72-0.52,1.326-1.113,1.819-1.779
			c0.493-0.667,0.78-1.387,0.86-2.16v-6.84c-0.294-0.747-0.714-1.46-1.26-2.141c-0.547-0.68-1.167-1.266-1.86-1.76
			c-0.693-0.493-1.44-0.887-2.24-1.18s-1.573-0.44-2.319-0.44c-1.2,0-2.287,0.26-3.261,0.78c-0.974,0.52-1.813,1.2-2.52,2.04
			c-0.707,0.84-1.247,1.8-1.62,2.88c-0.374,1.08-0.56,2.193-0.56,3.34c0,1.2,0.213,2.334,0.64,3.4c0.426,1.066,1.02,2.014,1.78,2.84
			c0.76,0.827,1.64,1.479,2.64,1.96C248.478,241.292,249.563,241.532,250.737,241.532z"/>
		<path fill="#FFFFFF" d="M275.177,243.332c-1.467,0-2.819-0.286-4.06-0.859s-2.313-1.354-3.22-2.34
			c-0.907-0.986-1.614-2.134-2.12-3.44c-0.507-1.307-0.76-2.68-0.76-4.12c0-1.466,0.26-2.853,0.779-4.16
			c0.521-1.306,1.24-2.453,2.16-3.439s1.993-1.767,3.22-2.34s2.561-0.86,4-0.86c1.44,0,2.78,0.287,4.021,0.86s2.32,1.354,3.24,2.34
			s1.64,2.134,2.159,3.439c0.521,1.308,0.78,2.694,0.78,4.16c0,1.44-0.26,2.813-0.78,4.12c-0.52,1.307-1.233,2.454-2.14,3.44
			c-0.907,0.986-1.986,1.767-3.24,2.34C277.964,243.046,276.617,243.332,275.177,243.332z M267.058,232.652
			c0,1.227,0.213,2.38,0.64,3.46c0.426,1.08,1.006,2.021,1.74,2.82c0.732,0.8,1.593,1.434,2.58,1.899
			c0.985,0.467,2.04,0.7,3.159,0.7c1.12,0,2.174-0.233,3.16-0.7c0.986-0.466,1.847-1.112,2.58-1.939
			c0.733-0.826,1.32-1.78,1.76-2.86c0.44-1.08,0.66-2.246,0.66-3.5c0-1.227-0.22-2.38-0.66-3.46c-0.439-1.08-1.026-2.026-1.76-2.84
			s-1.594-1.46-2.58-1.94c-0.986-0.479-2.04-0.72-3.16-0.72c-1.094,0-2.134,0.24-3.119,0.72c-0.987,0.48-1.854,1.134-2.601,1.96
			c-0.747,0.827-1.334,1.794-1.76,2.9C267.271,230.259,267.058,231.426,267.058,232.652z"/>
		<path fill="#FFFFFF" d="M315.777,222.133h2l-9,20.8h-1.681l-4.68-11l-4.68,11h-1.721l-8.96-20.8h1.96l7.961,18.6l4.359-10.24
			l-3.56-8.319h1.76l2.88,6.88l2.84-6.88h1.76l-3.52,8.319l4.36,10.24L315.777,222.133z"/>
		<path fill="#FFFFFF" d="M338.617,242.933h-2v-11.601c0-2.692-0.38-4.652-1.141-5.88c-0.76-1.226-1.979-1.84-3.66-1.84
			c-0.88,0-1.753,0.16-2.619,0.48c-0.867,0.319-1.667,0.773-2.4,1.359c-0.733,0.587-1.38,1.274-1.94,2.061
			c-0.56,0.786-0.974,1.634-1.239,2.54v12.88h-2v-20.8h1.84v4.96c0.426-0.801,0.96-1.526,1.6-2.181
			c0.641-0.653,1.347-1.213,2.12-1.68c0.773-0.466,1.606-0.826,2.5-1.08c0.894-0.253,1.807-0.38,2.74-0.38
			c2.267,0,3.866,0.794,4.8,2.38c0.934,1.587,1.4,3.86,1.4,6.82V242.933z"/>
		<path fill="#FFFFFF" d="M344.657,213.732h2.04v25.08c0,0.773,0.22,1.387,0.659,1.84c0.44,0.454,1.047,0.68,1.82,0.68
			c0.293,0,0.646-0.033,1.06-0.1c0.414-0.066,0.794-0.166,1.141-0.3l0.399,1.6c-0.453,0.188-1.014,0.34-1.68,0.46
			c-0.667,0.12-1.24,0.181-1.72,0.181c-1.12,0-2.021-0.341-2.7-1.021s-1.02-1.593-1.02-2.74V213.732z"/>
		<path fill="#FFFFFF" d="M363.217,243.332c-1.467,0-2.82-0.286-4.061-0.859c-1.239-0.573-2.313-1.354-3.22-2.34
			s-1.613-2.134-2.12-3.44s-0.76-2.68-0.76-4.12c0-1.466,0.26-2.853,0.78-4.16c0.52-1.306,1.24-2.453,2.16-3.439
			s1.993-1.767,3.22-2.34s2.56-0.86,4-0.86c1.439,0,2.78,0.287,4.02,0.86c1.24,0.573,2.32,1.354,3.24,2.34s1.641,2.134,2.16,3.439
			c0.52,1.308,0.78,2.694,0.78,4.16c0,1.44-0.261,2.813-0.78,4.12s-1.233,2.454-2.14,3.44c-0.907,0.986-1.987,1.767-3.24,2.34
			C366.003,243.046,364.656,243.332,363.217,243.332z M355.097,232.652c0,1.227,0.213,2.38,0.64,3.46s1.007,2.021,1.74,2.82
			s1.594,1.434,2.58,1.899c0.986,0.467,2.04,0.7,3.16,0.7s2.173-0.233,3.16-0.7c0.986-0.466,1.846-1.112,2.58-1.939
			c0.732-0.826,1.319-1.78,1.76-2.86c0.439-1.08,0.66-2.246,0.66-3.5c0-1.227-0.221-2.38-0.66-3.46
			c-0.44-1.08-1.027-2.026-1.76-2.84c-0.734-0.813-1.594-1.46-2.58-1.94c-0.987-0.479-2.04-0.72-3.16-0.72
			c-1.094,0-2.134,0.24-3.12,0.72c-0.987,0.48-1.854,1.134-2.6,1.96c-0.747,0.827-1.334,1.794-1.761,2.9
			S355.097,231.426,355.097,232.652z"/>
		<path fill="#FFFFFF" d="M383.297,243.332c-0.96,0-1.86-0.167-2.7-0.5s-1.573-0.786-2.2-1.359s-1.113-1.253-1.46-2.04
			c-0.347-0.786-0.52-1.634-0.52-2.54s0.213-1.733,0.64-2.48c0.427-0.746,1.026-1.393,1.8-1.939s1.687-0.974,2.74-1.28
			s2.22-0.46,3.5-0.46c1.12,0,2.253,0.1,3.4,0.3c1.146,0.2,2.173,0.474,3.08,0.82v-2.04c0-1.974-0.561-3.54-1.681-4.7
			c-1.119-1.16-2.64-1.74-4.56-1.74c-1.04,0-2.127,0.214-3.26,0.641c-1.134,0.427-2.274,1.04-3.42,1.84l-0.801-1.36
			c2.693-1.812,5.227-2.72,7.601-2.72c2.506,0,4.486,0.727,5.939,2.18c1.453,1.454,2.181,3.46,2.181,6.021v10.16
			c0,0.666,0.279,1,0.84,1v1.8c-0.134,0.026-0.26,0.04-0.38,0.04s-0.234,0-0.34,0c-0.48,0-0.92-0.167-1.32-0.5s-0.6-0.767-0.6-1.3
			v-1.721c-0.961,1.254-2.181,2.214-3.66,2.88C386.637,242.999,385.03,243.332,383.297,243.332z M383.697,241.732
			c1.546,0,2.973-0.286,4.279-0.86c1.307-0.573,2.28-1.353,2.92-2.34c0.453-0.533,0.681-1.066,0.681-1.6v-3.681
			c-2.027-0.746-4.107-1.119-6.24-1.119c-2.08,0-3.76,0.427-5.04,1.279c-1.28,0.854-1.92,1.974-1.92,3.36
			c0,0.693,0.133,1.347,0.4,1.96c0.266,0.613,0.64,1.14,1.119,1.58c0.48,0.439,1.047,0.787,1.7,1.04
			C382.25,241.606,382.95,241.732,383.697,241.732z"/>
		<path fill="#FFFFFF" d="M408.296,243.332c-1.439,0-2.773-0.3-4-0.899c-1.227-0.601-2.287-1.4-3.18-2.4
			c-0.894-1-1.587-2.146-2.08-3.439c-0.494-1.294-0.74-2.634-0.74-4.021c0-1.439,0.24-2.813,0.72-4.12
			c0.48-1.306,1.146-2.453,2-3.439s1.86-1.773,3.021-2.36c1.16-0.586,2.433-0.88,3.82-0.88c0.906,0,1.766,0.134,2.579,0.4
			s1.561,0.619,2.24,1.06c0.681,0.44,1.3,0.954,1.86,1.54c0.56,0.587,1.04,1.214,1.439,1.88v-12.92h2v26.4c0,0.666,0.28,1,0.841,1
			v1.8c-0.134,0.026-0.254,0.04-0.36,0.04c-0.107,0-0.214,0-0.32,0c-0.587,0-1.06-0.187-1.42-0.561
			c-0.359-0.373-0.54-0.786-0.54-1.239v-2.4c-0.854,1.387-1.993,2.494-3.42,3.32S409.842,243.332,408.296,243.332z M408.656,241.532
			c0.72,0,1.493-0.146,2.319-0.439c0.826-0.294,1.601-0.7,2.32-1.221c0.72-0.52,1.326-1.113,1.82-1.779
			c0.493-0.667,0.779-1.387,0.859-2.16v-6.84c-0.293-0.747-0.713-1.46-1.26-2.141c-0.547-0.68-1.167-1.266-1.859-1.76
			c-0.694-0.493-1.44-0.887-2.24-1.18s-1.574-0.44-2.32-0.44c-1.2,0-2.287,0.26-3.26,0.78c-0.974,0.52-1.813,1.2-2.521,2.04
			c-0.706,0.84-1.246,1.8-1.62,2.88c-0.373,1.08-0.56,2.193-0.56,3.34c0,1.2,0.213,2.334,0.64,3.4s1.021,2.014,1.78,2.84
			c0.76,0.827,1.64,1.479,2.64,1.96C406.396,241.292,407.482,241.532,408.656,241.532z"/>
		<path fill="#FFFFFF" d="M433.216,243.332c-1.467,0-2.826-0.286-4.08-0.859c-1.253-0.573-2.34-1.36-3.26-2.36
			s-1.64-2.153-2.16-3.46c-0.52-1.307-0.779-2.706-0.779-4.2c0-1.466,0.26-2.846,0.779-4.14c0.521-1.293,1.233-2.427,2.141-3.4
			c0.906-0.973,1.986-1.739,3.239-2.3c1.254-0.56,2.601-0.84,4.04-0.84c1.467,0,2.82,0.287,4.061,0.86s2.312,1.347,3.22,2.319
			c0.906,0.974,1.62,2.107,2.14,3.4c0.521,1.294,0.78,2.66,0.78,4.1c0,0.134-0.007,0.3-0.02,0.5c-0.014,0.2-0.021,0.327-0.021,0.38
			h-18.28c0.08,1.2,0.36,2.314,0.841,3.341c0.479,1.026,1.086,1.913,1.819,2.659c0.733,0.747,1.58,1.334,2.54,1.761
			s1.986,0.64,3.08,0.64c0.72,0,1.434-0.1,2.141-0.3c0.706-0.2,1.359-0.474,1.96-0.82c0.6-0.346,1.133-0.767,1.6-1.26
			c0.466-0.493,0.833-1.033,1.1-1.62l1.761,0.479c-0.32,0.747-0.768,1.435-1.341,2.061c-0.573,0.627-1.239,1.167-2,1.62
			c-0.76,0.453-1.594,0.807-2.5,1.06S434.176,243.332,433.216,243.332z M441.376,231.732c-0.08-1.227-0.354-2.347-0.82-3.36
			c-0.467-1.013-1.066-1.886-1.8-2.62c-0.733-0.732-1.58-1.306-2.54-1.72c-0.96-0.413-1.986-0.62-3.08-0.62s-2.12,0.207-3.08,0.62
			c-0.96,0.414-1.807,0.987-2.54,1.72c-0.733,0.734-1.319,1.614-1.76,2.641c-0.439,1.026-0.7,2.14-0.779,3.34H441.376z"/>
		<path fill="#FFFFFF" d="M456.296,243.332c-1.439,0-2.773-0.3-4-0.899c-1.227-0.601-2.287-1.4-3.18-2.4
			c-0.894-1-1.587-2.146-2.08-3.439c-0.494-1.294-0.74-2.634-0.74-4.021c0-1.439,0.24-2.813,0.72-4.12
			c0.48-1.306,1.146-2.453,2-3.439s1.86-1.773,3.021-2.36c1.16-0.586,2.433-0.88,3.82-0.88c0.906,0,1.766,0.134,2.579,0.4
			s1.561,0.619,2.24,1.06c0.681,0.44,1.3,0.954,1.86,1.54c0.56,0.587,1.04,1.214,1.439,1.88v-12.92h2v26.4c0,0.666,0.28,1,0.841,1
			v1.8c-0.134,0.026-0.254,0.04-0.36,0.04c-0.107,0-0.214,0-0.32,0c-0.587,0-1.06-0.187-1.42-0.561
			c-0.359-0.373-0.54-0.786-0.54-1.239v-2.4c-0.854,1.387-1.993,2.494-3.42,3.32S457.842,243.332,456.296,243.332z M456.656,241.532
			c0.72,0,1.493-0.146,2.319-0.439c0.826-0.294,1.601-0.7,2.32-1.221c0.72-0.52,1.326-1.113,1.82-1.779
			c0.493-0.667,0.779-1.387,0.859-2.16v-6.84c-0.293-0.747-0.713-1.46-1.26-2.141c-0.547-0.68-1.167-1.266-1.859-1.76
			c-0.694-0.493-1.44-0.887-2.24-1.18s-1.574-0.44-2.32-0.44c-1.2,0-2.287,0.26-3.26,0.78c-0.974,0.52-1.813,1.2-2.521,2.04
			c-0.706,0.84-1.246,1.8-1.62,2.88c-0.373,1.08-0.56,2.193-0.56,3.34c0,1.2,0.213,2.334,0.64,3.4s1.021,2.014,1.78,2.84
			c0.76,0.827,1.64,1.479,2.64,1.96C454.396,241.292,455.482,241.532,456.656,241.532z"/>
		<path fill="#FFFFFF" d="M111.24,291.332c-0.96,0-1.86-0.167-2.7-0.5s-1.573-0.786-2.2-1.359s-1.113-1.253-1.46-2.04
			c-0.347-0.786-0.52-1.634-0.52-2.54s0.213-1.733,0.64-2.48c0.427-0.746,1.026-1.393,1.8-1.939s1.687-0.974,2.74-1.28
			s2.22-0.46,3.5-0.46c1.12,0,2.253,0.1,3.4,0.3c1.146,0.2,2.173,0.474,3.08,0.82v-2.04c0-1.974-0.561-3.54-1.681-4.7
			c-1.119-1.16-2.64-1.74-4.56-1.74c-1.04,0-2.127,0.214-3.26,0.641c-1.134,0.427-2.274,1.04-3.42,1.84l-0.801-1.36
			c2.693-1.812,5.227-2.72,7.601-2.72c2.506,0,4.486,0.727,5.939,2.18c1.453,1.454,2.181,3.46,2.181,6.021v10.16
			c0,0.666,0.279,1,0.84,1v1.8c-0.134,0.026-0.26,0.04-0.38,0.04s-0.234,0-0.34,0c-0.48,0-0.92-0.167-1.32-0.5s-0.6-0.767-0.6-1.3
			v-1.721c-0.961,1.254-2.181,2.214-3.66,2.88C114.58,290.999,112.974,291.332,111.24,291.332z M111.641,289.732
			c1.546,0,2.973-0.286,4.279-0.86c1.307-0.573,2.28-1.353,2.92-2.34c0.453-0.533,0.681-1.066,0.681-1.6v-3.681
			c-2.027-0.746-4.107-1.119-6.24-1.119c-2.08,0-3.76,0.427-5.04,1.279c-1.28,0.854-1.92,1.974-1.92,3.36
			c0,0.693,0.133,1.347,0.4,1.96c0.266,0.613,0.64,1.14,1.119,1.58c0.48,0.439,1.047,0.787,1.7,1.04
			C110.193,289.606,110.894,289.732,111.641,289.732z"/>
		<path fill="#FFFFFF" d="M126.24,280.452c0-1.466,0.253-2.853,0.76-4.16c0.506-1.306,1.22-2.439,2.14-3.399s2.007-1.72,3.26-2.28
			c1.254-0.56,2.627-0.84,4.12-0.84c1.894,0,3.554,0.427,4.98,1.28c1.426,0.854,2.513,2.04,3.26,3.56l-1.96,0.64
			c-0.613-1.146-1.494-2.046-2.64-2.699c-1.147-0.653-2.4-0.98-3.761-0.98c-1.146,0-2.213,0.227-3.199,0.68
			c-0.987,0.454-1.848,1.08-2.58,1.881c-0.734,0.8-1.308,1.739-1.721,2.819s-0.619,2.247-0.619,3.5c0,1.254,0.22,2.434,0.659,3.54
			c0.44,1.107,1.026,2.067,1.761,2.88c0.732,0.814,1.593,1.46,2.58,1.94c0.985,0.479,2.039,0.72,3.159,0.72
			c0.721,0,1.434-0.106,2.141-0.32c0.706-0.213,1.359-0.492,1.96-0.84c0.6-0.346,1.12-0.753,1.56-1.22
			c0.44-0.466,0.74-0.953,0.9-1.46l1.96,0.56c-0.267,0.721-0.674,1.395-1.22,2.021c-0.547,0.627-1.194,1.167-1.94,1.62
			c-0.747,0.453-1.566,0.807-2.46,1.06s-1.82,0.38-2.78,0.38c-1.467,0-2.826-0.286-4.08-0.859s-2.34-1.36-3.26-2.36
			s-1.646-2.153-2.18-3.46C126.506,283.346,126.24,281.946,126.24,280.452z"/>
		<path fill="#FFFFFF" d="M159.319,271.933c-1.894,0.054-3.534,0.606-4.92,1.66c-1.387,1.054-2.36,2.5-2.92,4.34v13h-2v-20.8h1.88
			v5.119c0.72-1.466,1.673-2.659,2.859-3.579c1.187-0.921,2.46-1.446,3.82-1.58c0.267,0,0.507-0.007,0.72-0.021
			c0.214-0.013,0.4-0.02,0.561-0.02V271.933z"/>
		<path fill="#FFFFFF" d="M170.799,291.332c-1.467,0-2.819-0.286-4.06-0.859s-2.313-1.354-3.22-2.34
			c-0.907-0.986-1.614-2.134-2.12-3.44c-0.507-1.307-0.76-2.68-0.76-4.12c0-1.466,0.26-2.853,0.779-4.16
			c0.521-1.306,1.24-2.453,2.16-3.439s1.993-1.767,3.22-2.34s2.561-0.86,4-0.86c1.44,0,2.78,0.287,4.021,0.86s2.32,1.354,3.24,2.34
			s1.64,2.134,2.159,3.439c0.521,1.308,0.78,2.694,0.78,4.16c0,1.44-0.26,2.813-0.78,4.12c-0.52,1.307-1.233,2.454-2.14,3.44
			c-0.907,0.986-1.986,1.767-3.24,2.34C173.586,291.046,172.239,291.332,170.799,291.332z M162.68,280.652
			c0,1.227,0.213,2.38,0.64,3.46c0.426,1.08,1.006,2.021,1.74,2.82c0.732,0.8,1.593,1.434,2.58,1.899
			c0.985,0.467,2.04,0.7,3.159,0.7c1.12,0,2.174-0.233,3.16-0.7c0.986-0.466,1.847-1.112,2.58-1.939
			c0.733-0.826,1.32-1.78,1.76-2.86c0.44-1.08,0.66-2.246,0.66-3.5c0-1.227-0.22-2.38-0.66-3.46c-0.439-1.08-1.026-2.026-1.76-2.84
			s-1.594-1.46-2.58-1.94c-0.986-0.479-2.04-0.72-3.16-0.72c-1.094,0-2.134,0.24-3.119,0.72c-0.987,0.48-1.854,1.134-2.601,1.96
			c-0.747,0.827-1.334,1.794-1.76,2.9C162.893,278.259,162.68,279.426,162.68,280.652z"/>
		<path fill="#FFFFFF" d="M192.319,291.332c-1.6,0-3.134-0.267-4.6-0.8c-1.467-0.533-2.747-1.333-3.841-2.399l1-1.36
			c1.12,1.014,2.28,1.76,3.48,2.24c1.2,0.479,2.52,0.72,3.96,0.72c1.813,0,3.273-0.38,4.38-1.14c1.106-0.761,1.66-1.82,1.66-3.181
			c0-0.64-0.14-1.18-0.42-1.62c-0.28-0.439-0.7-0.812-1.26-1.119c-0.561-0.307-1.254-0.58-2.08-0.82
			c-0.827-0.24-1.787-0.493-2.88-0.76c-1.174-0.267-2.194-0.533-3.061-0.801c-0.866-0.266-1.58-0.586-2.14-0.96
			c-0.561-0.373-0.98-0.826-1.26-1.359c-0.28-0.533-0.42-1.214-0.42-2.04c0-1.04,0.199-1.946,0.6-2.721
			c0.4-0.772,0.953-1.413,1.66-1.92c0.706-0.506,1.52-0.886,2.439-1.14c0.92-0.253,1.9-0.38,2.94-0.38
			c1.626,0,3.066,0.273,4.32,0.82c1.253,0.547,2.226,1.246,2.92,2.1l-1.12,1.08c-0.694-0.8-1.594-1.4-2.7-1.8
			c-1.106-0.4-2.287-0.601-3.54-0.601c-0.773,0-1.5,0.08-2.18,0.24c-0.681,0.16-1.274,0.414-1.78,0.76
			c-0.507,0.348-0.907,0.794-1.2,1.34c-0.294,0.547-0.439,1.194-0.439,1.94c0,0.614,0.1,1.106,0.3,1.48
			c0.2,0.373,0.52,0.693,0.96,0.96c0.439,0.267,1.006,0.5,1.7,0.699c0.692,0.2,1.52,0.42,2.479,0.66
			c1.307,0.32,2.467,0.627,3.48,0.92c1.013,0.294,1.859,0.654,2.54,1.08c0.68,0.427,1.199,0.934,1.56,1.521s0.54,1.333,0.54,2.239
			c0,1.867-0.727,3.354-2.18,4.461C196.686,290.779,194.746,291.332,192.319,291.332z"/>
		<path fill="#FFFFFF" d="M211.559,291.332c-1.6,0-3.134-0.267-4.6-0.8c-1.467-0.533-2.747-1.333-3.841-2.399l1-1.36
			c1.12,1.014,2.28,1.76,3.48,2.24c1.2,0.479,2.52,0.72,3.96,0.72c1.813,0,3.273-0.38,4.38-1.14c1.106-0.761,1.66-1.82,1.66-3.181
			c0-0.64-0.14-1.18-0.42-1.62c-0.28-0.439-0.7-0.812-1.26-1.119c-0.561-0.307-1.254-0.58-2.08-0.82
			c-0.827-0.24-1.787-0.493-2.88-0.76c-1.174-0.267-2.194-0.533-3.061-0.801c-0.866-0.266-1.58-0.586-2.14-0.96
			c-0.561-0.373-0.98-0.826-1.26-1.359c-0.28-0.533-0.42-1.214-0.42-2.04c0-1.04,0.199-1.946,0.6-2.721
			c0.4-0.772,0.953-1.413,1.66-1.92c0.706-0.506,1.52-0.886,2.439-1.14c0.92-0.253,1.9-0.38,2.94-0.38
			c1.626,0,3.066,0.273,4.32,0.82c1.253,0.547,2.226,1.246,2.92,2.1l-1.12,1.08c-0.694-0.8-1.594-1.4-2.7-1.8
			c-1.106-0.4-2.287-0.601-3.54-0.601c-0.773,0-1.5,0.08-2.18,0.24c-0.681,0.16-1.274,0.414-1.78,0.76
			c-0.507,0.348-0.907,0.794-1.2,1.34c-0.294,0.547-0.439,1.194-0.439,1.94c0,0.614,0.1,1.106,0.3,1.48
			c0.2,0.373,0.52,0.693,0.96,0.96c0.439,0.267,1.006,0.5,1.7,0.699c0.692,0.2,1.52,0.42,2.479,0.66
			c1.307,0.32,2.467,0.627,3.48,0.92c1.013,0.294,1.859,0.654,2.54,1.08c0.68,0.427,1.199,0.934,1.56,1.521s0.54,1.333,0.54,2.239
			c0,1.867-0.727,3.354-2.18,4.461C215.925,290.779,213.985,291.332,211.559,291.332z"/>
		<path fill="#FFFFFF" d="M243.958,289.933c-0.107,0.054-0.287,0.153-0.54,0.3c-0.254,0.146-0.574,0.287-0.96,0.42
			c-0.387,0.134-0.82,0.254-1.3,0.36c-0.48,0.105-1,0.16-1.561,0.16c-0.56,0-1.087-0.08-1.58-0.24s-0.927-0.4-1.3-0.721
			c-0.374-0.319-0.674-0.706-0.9-1.159s-0.34-0.986-0.34-1.601v-15.68h-2.92v-1.64h2.92v-7.12h2v7.12h4.88v1.64h-4.88v15.2
			c0,0.773,0.267,1.354,0.8,1.739c0.533,0.388,1.146,0.58,1.841,0.58c0.826,0,1.54-0.14,2.14-0.42c0.6-0.279,0.966-0.46,1.1-0.54
			L243.958,289.933z"/>
		<path fill="#FFFFFF" d="M264.317,290.933h-2v-11.601c0-2.586-0.439-4.52-1.32-5.8c-0.88-1.28-2.159-1.92-3.84-1.92
			c-0.854,0-1.693,0.16-2.52,0.48c-0.827,0.319-1.594,0.773-2.3,1.359c-0.707,0.587-1.327,1.274-1.86,2.061
			c-0.534,0.786-0.92,1.634-1.16,2.54v12.88h-2v-29.2h2v13.36c0.854-1.627,2.033-2.92,3.54-3.881c1.507-0.96,3.126-1.439,4.86-1.439
			c1.146,0,2.133,0.214,2.96,0.64c0.826,0.427,1.513,1.04,2.06,1.84c0.547,0.801,0.946,1.768,1.2,2.9
			c0.253,1.134,0.38,2.407,0.38,3.82V290.933z"/>
		<path fill="#FFFFFF" d="M279.117,291.332c-1.467,0-2.826-0.286-4.08-0.859c-1.253-0.573-2.34-1.36-3.26-2.36
			s-1.64-2.153-2.16-3.46c-0.52-1.307-0.779-2.706-0.779-4.2c0-1.466,0.26-2.846,0.779-4.14c0.521-1.293,1.233-2.427,2.141-3.4
			c0.906-0.973,1.986-1.739,3.239-2.3c1.254-0.56,2.601-0.84,4.04-0.84c1.467,0,2.82,0.287,4.061,0.86s2.312,1.347,3.22,2.319
			c0.906,0.974,1.62,2.107,2.14,3.4c0.521,1.294,0.78,2.66,0.78,4.1c0,0.134-0.007,0.3-0.02,0.5c-0.014,0.2-0.021,0.327-0.021,0.38
			h-18.28c0.08,1.2,0.36,2.314,0.841,3.341c0.479,1.026,1.086,1.913,1.819,2.659c0.733,0.747,1.58,1.334,2.54,1.761
			s1.986,0.64,3.08,0.64c0.72,0,1.434-0.1,2.141-0.3c0.706-0.2,1.359-0.474,1.96-0.82c0.6-0.346,1.133-0.767,1.6-1.26
			c0.466-0.493,0.833-1.033,1.1-1.62l1.761,0.479c-0.32,0.747-0.768,1.435-1.341,2.061c-0.573,0.627-1.239,1.167-2,1.62
			c-0.76,0.453-1.594,0.807-2.5,1.06S280.077,291.332,279.117,291.332z M287.277,279.732c-0.08-1.227-0.354-2.347-0.82-3.36
			c-0.467-1.013-1.066-1.886-1.8-2.62c-0.733-0.732-1.58-1.306-2.54-1.72c-0.96-0.413-1.986-0.62-3.08-0.62s-2.12,0.207-3.08,0.62
			c-0.96,0.414-1.807,0.987-2.54,1.72c-0.733,0.734-1.319,1.614-1.76,2.641c-0.439,1.026-0.7,2.14-0.779,3.34H287.277z"/>
		<path fill="#FFFFFF" d="M313.396,289.933c-0.106,0.054-0.286,0.153-0.54,0.3c-0.253,0.146-0.573,0.287-0.96,0.42
			c-0.387,0.134-0.819,0.254-1.3,0.36c-0.479,0.105-1,0.16-1.56,0.16c-0.561,0-1.087-0.08-1.58-0.24
			c-0.494-0.16-0.927-0.4-1.3-0.721c-0.374-0.319-0.674-0.706-0.9-1.159s-0.34-0.986-0.34-1.601v-15.68h-2.92v-1.64h2.92v-7.12h2
			v7.12h4.88v1.64h-4.88v15.2c0,0.773,0.266,1.354,0.8,1.739c0.533,0.388,1.146,0.58,1.84,0.58c0.826,0,1.54-0.14,2.141-0.42
			c0.6-0.279,0.966-0.46,1.1-0.54L313.396,289.933z"/>
		<path fill="#FFFFFF" d="M333.757,290.933h-2v-11.601c0-2.586-0.44-4.52-1.32-5.8s-2.16-1.92-3.84-1.92
			c-0.854,0-1.694,0.16-2.521,0.48c-0.826,0.319-1.594,0.773-2.3,1.359c-0.707,0.587-1.327,1.274-1.859,2.061
			c-0.534,0.786-0.921,1.634-1.16,2.54v12.88h-2v-29.2h2v13.36c0.853-1.627,2.033-2.92,3.54-3.881
			c1.506-0.96,3.126-1.439,4.859-1.439c1.146,0,2.134,0.214,2.96,0.64c0.826,0.427,1.514,1.04,2.061,1.84
			c0.546,0.801,0.946,1.768,1.2,2.9c0.253,1.134,0.38,2.407,0.38,3.82V290.933z"/>
		<path fill="#FFFFFF" d="M349.517,271.933c-1.894,0.054-3.534,0.606-4.92,1.66c-1.387,1.054-2.36,2.5-2.92,4.34v13h-2v-20.8h1.88
			v5.119c0.72-1.466,1.673-2.659,2.859-3.579c1.187-0.921,2.46-1.446,3.82-1.58c0.267,0,0.507-0.007,0.72-0.021
			c0.214-0.013,0.4-0.02,0.561-0.02V271.933z"/>
		<path fill="#FFFFFF" d="M362.196,291.332c-1.467,0-2.827-0.286-4.08-0.859c-1.254-0.573-2.34-1.36-3.26-2.36
			s-1.641-2.153-2.16-3.46c-0.521-1.307-0.78-2.706-0.78-4.2c0-1.466,0.26-2.846,0.78-4.14c0.52-1.293,1.233-2.427,2.14-3.4
			c0.906-0.973,1.986-1.739,3.24-2.3c1.253-0.56,2.6-0.84,4.04-0.84c1.466,0,2.82,0.287,4.06,0.86
			c1.24,0.573,2.313,1.347,3.221,2.319c0.906,0.974,1.619,2.107,2.14,3.4c0.52,1.294,0.78,2.66,0.78,4.1
			c0,0.134-0.007,0.3-0.021,0.5s-0.02,0.327-0.02,0.38h-18.28c0.08,1.2,0.36,2.314,0.84,3.341c0.48,1.026,1.086,1.913,1.82,2.659
			c0.733,0.747,1.58,1.334,2.54,1.761s1.986,0.64,3.08,0.64c0.72,0,1.433-0.1,2.14-0.3c0.706-0.2,1.36-0.474,1.96-0.82
			c0.601-0.346,1.133-0.767,1.601-1.26c0.466-0.493,0.833-1.033,1.1-1.62l1.76,0.479c-0.32,0.747-0.767,1.435-1.34,2.061
			c-0.574,0.627-1.24,1.167-2,1.62s-1.594,0.807-2.5,1.06C364.089,291.205,363.156,291.332,362.196,291.332z M370.356,279.732
			c-0.08-1.227-0.354-2.347-0.82-3.36c-0.467-1.013-1.067-1.886-1.8-2.62c-0.734-0.732-1.58-1.306-2.54-1.72
			c-0.96-0.413-1.987-0.62-3.08-0.62c-1.094,0-2.12,0.207-3.08,0.62c-0.96,0.414-1.807,0.987-2.54,1.72
			c-0.733,0.734-1.32,1.614-1.76,2.641c-0.44,1.026-0.7,2.14-0.78,3.34H370.356z"/>
		<path fill="#FFFFFF" d="M385.556,291.332c-1.467,0-2.826-0.286-4.08-0.859c-1.253-0.573-2.34-1.36-3.26-2.36
			s-1.64-2.153-2.16-3.46c-0.52-1.307-0.779-2.706-0.779-4.2c0-1.466,0.26-2.846,0.779-4.14c0.521-1.293,1.233-2.427,2.141-3.4
			c0.906-0.973,1.986-1.739,3.239-2.3c1.254-0.56,2.601-0.84,4.04-0.84c1.467,0,2.82,0.287,4.061,0.86s2.312,1.347,3.22,2.319
			c0.906,0.974,1.62,2.107,2.14,3.4c0.521,1.294,0.78,2.66,0.78,4.1c0,0.134-0.007,0.3-0.02,0.5c-0.014,0.2-0.021,0.327-0.021,0.38
			h-18.28c0.08,1.2,0.36,2.314,0.841,3.341c0.479,1.026,1.086,1.913,1.819,2.659c0.733,0.747,1.58,1.334,2.54,1.761
			s1.986,0.64,3.08,0.64c0.72,0,1.434-0.1,2.141-0.3c0.706-0.2,1.359-0.474,1.96-0.82c0.6-0.346,1.133-0.767,1.6-1.26
			c0.466-0.493,0.833-1.033,1.1-1.62l1.761,0.479c-0.32,0.747-0.768,1.435-1.341,2.061c-0.573,0.627-1.239,1.167-2,1.62
			c-0.76,0.453-1.594,0.807-2.5,1.06S386.516,291.332,385.556,291.332z M393.716,279.732c-0.08-1.227-0.354-2.347-0.82-3.36
			c-0.467-1.013-1.066-1.886-1.8-2.62c-0.733-0.732-1.58-1.306-2.54-1.72c-0.96-0.413-1.986-0.62-3.08-0.62s-2.12,0.207-3.08,0.62
			c-0.96,0.414-1.807,0.987-2.54,1.72c-0.733,0.734-1.319,1.614-1.76,2.641c-0.439,1.026-0.7,2.14-0.779,3.34H393.716z"/>
		<path fill="#FFFFFF" d="M432.075,283.572c0,1.04-0.2,2.007-0.6,2.9c-0.4,0.894-0.947,1.674-1.641,2.34
			c-0.693,0.667-1.507,1.187-2.439,1.56c-0.934,0.374-1.92,0.561-2.96,0.561h-13.28v-28.4h13.24c0.986,0,1.88,0.214,2.68,0.641
			s1.48,0.979,2.04,1.659c0.56,0.681,0.993,1.454,1.3,2.32c0.307,0.867,0.46,1.74,0.46,2.62c0,1.439-0.359,2.76-1.08,3.96
			c-0.72,1.2-1.72,2.08-3,2.64c1.627,0.48,2.913,1.38,3.86,2.7C431.602,280.393,432.075,281.893,432.075,283.572z M413.195,264.372
			v11.36h10.4c0.772,0,1.479-0.16,2.119-0.48c0.641-0.319,1.193-0.739,1.66-1.26c0.467-0.52,0.833-1.126,1.101-1.819
			c0.266-0.693,0.399-1.4,0.399-2.12c0-0.773-0.127-1.5-0.38-2.181c-0.254-0.68-0.6-1.279-1.04-1.8
			c-0.439-0.52-0.967-0.933-1.58-1.24c-0.613-0.306-1.294-0.46-2.04-0.46H413.195z M430.035,283.292c0-0.746-0.134-1.473-0.399-2.18
			c-0.268-0.706-0.641-1.333-1.12-1.88c-0.48-0.546-1.047-0.98-1.7-1.3c-0.654-0.32-1.354-0.48-2.101-0.48h-11.52v11.641h11.24
			c0.8,0,1.54-0.16,2.22-0.48s1.267-0.753,1.76-1.3c0.493-0.546,0.887-1.166,1.181-1.86
			C429.889,284.759,430.035,284.039,430.035,283.292z"/>
		<path fill="#FFFFFF" d="M437.755,290.933v-28.36h2.04v28.36H437.755z"/>
		<path fill="#FFFFFF" d="M447.314,290.933v-28.4h9.44c2.24,0,4.206,0.374,5.9,1.12c1.692,0.747,3.1,1.76,4.22,3.04
			s1.96,2.78,2.52,4.5c0.561,1.72,0.841,3.554,0.841,5.5c0,2.16-0.314,4.113-0.94,5.86c-0.627,1.746-1.527,3.239-2.7,4.479
			c-1.174,1.24-2.594,2.2-4.26,2.88c-1.667,0.681-3.527,1.021-5.58,1.021H447.314z M468.195,276.692c0-1.786-0.254-3.434-0.761-4.94
			c-0.507-1.506-1.246-2.806-2.22-3.899s-2.167-1.946-3.58-2.561c-1.414-0.612-3.04-0.92-4.88-0.92h-7.4v24.721h7.4
			c1.866,0,3.513-0.313,4.94-0.94c1.426-0.626,2.619-1.5,3.58-2.62c0.96-1.12,1.686-2.433,2.18-3.939
			C467.948,280.086,468.195,278.452,468.195,276.692z"/>
		<path fill="#FFFFFF" d="M481.955,291.332c-1.601,0-3.134-0.267-4.601-0.8s-2.747-1.333-3.84-2.399l1-1.36
			c1.12,1.014,2.28,1.76,3.479,2.24c1.2,0.479,2.521,0.72,3.961,0.72c1.812,0,3.272-0.38,4.38-1.14
			c1.105-0.761,1.659-1.82,1.659-3.181c0-0.64-0.14-1.18-0.42-1.62c-0.279-0.439-0.699-0.812-1.26-1.119
			c-0.56-0.307-1.254-0.58-2.08-0.82s-1.787-0.493-2.88-0.76c-1.174-0.267-2.193-0.533-3.06-0.801
			c-0.867-0.266-1.58-0.586-2.141-0.96c-0.56-0.373-0.979-0.826-1.26-1.359s-0.42-1.214-0.42-2.04c0-1.04,0.2-1.946,0.6-2.721
			c0.4-0.772,0.953-1.413,1.66-1.92c0.706-0.506,1.521-0.886,2.44-1.14c0.92-0.253,1.899-0.38,2.939-0.38
			c1.627,0,3.066,0.273,4.32,0.82c1.253,0.547,2.227,1.246,2.92,2.1l-1.12,1.08c-0.693-0.8-1.594-1.4-2.7-1.8
			c-1.106-0.4-2.286-0.601-3.54-0.601c-0.773,0-1.5,0.08-2.18,0.24s-1.273,0.414-1.78,0.76c-0.507,0.348-0.906,0.794-1.199,1.34
			c-0.294,0.547-0.44,1.194-0.44,1.94c0,0.614,0.1,1.106,0.3,1.48c0.2,0.373,0.521,0.693,0.96,0.96c0.44,0.267,1.007,0.5,1.7,0.699
			c0.693,0.2,1.521,0.42,2.48,0.66c1.306,0.32,2.466,0.627,3.479,0.92c1.014,0.294,1.86,0.654,2.54,1.08
			c0.68,0.427,1.2,0.934,1.561,1.521c0.359,0.587,0.54,1.333,0.54,2.239c0,1.867-0.728,3.354-2.181,4.461
			S484.381,291.332,481.955,291.332z"/>
	</g>
</g>
</svg>
