<?xml version="1.0" encoding="utf-8"?>
<!-- Generator: Adobe Illustrator 17.0.0, SVG Export Plug-In . SVG Version: 6.00 Build 0)  -->
<!DOCTYPE svg PUBLIC "-//W3C//DTD SVG 1.1//EN" "http://www.w3.org/Graphics/SVG/1.1/DTD/svg11.dtd">
<svg version="1.1" id="Layer_1" xmlns="http://www.w3.org/2000/svg" xmlns:xlink="http://www.w3.org/1999/xlink" x="0px" y="0px"
	 width="600px" height="374px" viewBox="0 0 600 374" enable-background="new 0 0 600 374" xml:space="preserve">
<path fill="#63328A" d="M556.5,174.496c0,4.697-3.807,8.504-8.504,8.504H52.004c-4.697,0-8.504-3.807-8.504-8.504V72.504
	c0-4.697,3.807-8.504,8.504-8.504h495.992c4.697,0,8.504,3.807,8.504,8.504V174.496z"/>
<path fill="#9A9999" d="M556.572,301.496c0,4.697-3.807,8.504-8.504,8.504H52.076c-4.697,0-8.504-3.807-8.504-8.504V199.504
	c0-4.697,3.807-8.504,8.504-8.504h495.992c4.697,0,8.504,3.807,8.504,8.504V301.496z"/>
<g>
	<g>
		<path fill="#FFFFFF" d="M177.229,140.584v13.104h-39.312v-13.104h12.922v-23.205c-0.546,0.728-1.411,1.472-2.594,2.229
			c-1.183,0.759-2.473,1.456-3.867,2.093c-1.396,0.637-2.837,1.153-4.323,1.547c-1.486,0.395-2.807,0.591-3.958,0.591v-13.468
			c0.97,0,2.229-0.333,3.776-1.001c1.547-0.667,3.078-1.47,4.596-2.412c1.516-0.94,2.881-1.896,4.095-2.867
			c1.213-0.97,1.971-1.759,2.275-2.366h14.833v38.857H177.229z"/>
		<path fill="#FFFFFF" d="M231.191,127.025c0,4.004-0.606,7.689-1.819,11.057c-1.215,3.367-2.883,6.279-5.005,8.736
			c-2.125,2.457-4.642,4.368-7.554,5.733c-2.912,1.365-6.066,2.048-9.464,2.048c-3.398,0-6.537-0.683-9.418-2.048
			c-2.883-1.365-5.385-3.276-7.508-5.733c-2.124-2.457-3.792-5.369-5.005-8.736c-1.215-3.367-1.82-7.053-1.82-11.057
			s0.605-7.689,1.82-11.057c1.213-3.367,2.881-6.279,5.005-8.736c2.123-2.457,4.625-4.382,7.508-5.778
			c2.881-1.395,6.02-2.093,9.418-2.093c3.397,0,6.552,0.698,9.464,2.093c2.912,1.396,5.429,3.321,7.554,5.778
			c2.122,2.457,3.79,5.369,5.005,8.736C230.585,119.335,231.191,123.021,231.191,127.025z M216.45,127.025
			c0-4.246-0.851-7.689-2.549-10.329c-1.698-2.639-3.883-3.958-6.552-3.958c-2.729,0-4.945,1.32-6.643,3.958
			c-1.699,2.639-2.548,6.083-2.548,10.329c0,4.247,0.849,7.675,2.548,10.283c1.697,2.609,3.913,3.913,6.643,3.913
			c2.669,0,4.854-1.304,6.552-3.913C215.6,134.7,216.45,131.272,216.45,127.025z"/>
		<path fill="#FFFFFF" d="M237.379,155.417c0.183,0,0.47-0.031,0.865-0.091c0.394-0.062,0.773-0.213,1.138-0.455
			c0.363-0.243,0.682-0.562,0.955-0.956s0.439-0.956,0.5-1.684v-13.377h11.83v16.107c0,2.123-0.5,3.868-1.501,5.232
			c-1.001,1.365-2.245,2.457-3.731,3.276c-1.487,0.819-3.125,1.395-4.914,1.729c-1.79,0.333-3.503,0.5-5.142,0.5V155.417z"/>
		<path fill="#FFFFFF" d="M309.724,127.025c0,4.004-0.606,7.689-1.819,11.057c-1.215,3.367-2.883,6.279-5.005,8.736
			c-2.125,2.457-4.642,4.368-7.554,5.733c-2.912,1.365-6.066,2.048-9.464,2.048c-3.398,0-6.537-0.683-9.418-2.048
			c-2.883-1.365-5.385-3.276-7.508-5.733c-2.124-2.457-3.792-5.369-5.005-8.736c-1.215-3.367-1.82-7.053-1.82-11.057
			s0.605-7.689,1.82-11.057c1.213-3.367,2.881-6.279,5.005-8.736c2.123-2.457,4.625-4.382,7.508-5.778
			c2.881-1.395,6.02-2.093,9.418-2.093c3.397,0,6.552,0.698,9.464,2.093c2.912,1.396,5.429,3.321,7.554,5.778
			c2.122,2.457,3.79,5.369,5.005,8.736C309.117,119.335,309.724,123.021,309.724,127.025z M294.982,127.025
			c0-4.246-0.851-7.689-2.549-10.329c-1.698-2.639-3.883-3.958-6.552-3.958c-2.729,0-4.945,1.32-6.643,3.958
			c-1.699,2.639-2.548,6.083-2.548,10.329c0,4.247,0.849,7.675,2.548,10.283c1.697,2.609,3.913,3.913,6.643,3.913
			c2.669,0,4.854-1.304,6.552-3.913C294.132,134.7,294.982,131.272,294.982,127.025z"/>
		<path fill="#FFFFFF" d="M365.598,127.025c0,4.004-0.607,7.689-1.82,11.057c-1.214,3.367-2.882,6.279-5.005,8.736
			c-2.124,2.457-4.641,4.368-7.553,5.733c-2.912,1.365-6.067,2.048-9.464,2.048c-3.398,0-6.538-0.683-9.419-2.048
			c-2.882-1.365-5.385-3.276-7.507-5.733c-2.125-2.457-3.793-5.369-5.006-8.736c-1.214-3.367-1.819-7.053-1.819-11.057
			s0.605-7.689,1.819-11.057c1.213-3.367,2.881-6.279,5.006-8.736c2.122-2.457,4.625-4.382,7.507-5.778
			c2.881-1.395,6.021-2.093,9.419-2.093c3.396,0,6.552,0.698,9.464,2.093c2.912,1.396,5.429,3.321,7.553,5.778
			c2.123,2.457,3.791,5.369,5.005,8.736C364.99,119.335,365.598,123.021,365.598,127.025z M350.855,127.025
			c0-4.246-0.851-7.689-2.548-10.329c-1.699-2.639-3.883-3.958-6.552-3.958c-2.73,0-4.945,1.32-6.644,3.958
			c-1.699,2.639-2.548,6.083-2.548,10.329c0,4.247,0.849,7.675,2.548,10.283c1.698,2.609,3.913,3.913,6.644,3.913
			c2.669,0,4.853-1.304,6.552-3.913C350.005,134.7,350.855,131.272,350.855,127.025z"/>
		<path fill="#FFFFFF" d="M421.472,127.025c0,4.004-0.607,7.689-1.82,11.057c-1.214,3.367-2.882,6.279-5.005,8.736
			c-2.124,2.457-4.641,4.368-7.553,5.733c-2.912,1.365-6.067,2.048-9.464,2.048c-3.398,0-6.538-0.683-9.419-2.048
			c-2.882-1.365-5.385-3.276-7.507-5.733c-2.125-2.457-3.793-5.369-5.006-8.736c-1.214-3.367-1.819-7.053-1.819-11.057
			s0.605-7.689,1.819-11.057c1.213-3.367,2.881-6.279,5.006-8.736c2.122-2.457,4.625-4.382,7.507-5.778
			c2.881-1.395,6.021-2.093,9.419-2.093c3.396,0,6.552,0.698,9.464,2.093c2.912,1.396,5.429,3.321,7.553,5.778
			c2.123,2.457,3.791,5.369,5.005,8.736C420.864,119.335,421.472,123.021,421.472,127.025z M406.729,127.025
			c0-4.246-0.851-7.689-2.548-10.329c-1.699-2.639-3.883-3.958-6.552-3.958c-2.73,0-4.945,1.32-6.644,3.958
			c-1.699,2.639-2.548,6.083-2.548,10.329c0,4.247,0.849,7.675,2.548,10.283c1.698,2.609,3.913,3.913,6.644,3.913
			c2.669,0,4.853-1.304,6.552-3.913C405.879,134.7,406.729,131.272,406.729,127.025z"/>
		<path fill="#FFFFFF" d="M460.056,115.559v11.648h-8.554v9.464h-13.104v-9.464h-8.645v-11.648h8.645v-9.464h13.104v9.464H460.056z"
			/>
	</g>
</g>
<g>
	<g>
		<path fill="#FFFFFF" d="M162.319,223.933c-1.894,0.054-3.533,0.606-4.92,1.66s-2.359,2.5-2.92,4.34v13h-2v-20.8h1.88v5.119
			c0.721-1.466,1.674-2.659,2.86-3.579c1.187-0.921,2.46-1.446,3.82-1.58c0.266,0,0.506-0.007,0.72-0.021
			c0.213-0.013,0.399-0.02,0.56-0.02V223.933z"/>
		<path fill="#FFFFFF" d="M174.999,243.332c-1.467,0-2.826-0.286-4.08-0.859c-1.253-0.573-2.34-1.36-3.26-2.36
			s-1.64-2.153-2.16-3.46c-0.52-1.307-0.779-2.706-0.779-4.2c0-1.466,0.26-2.846,0.779-4.14c0.521-1.293,1.233-2.427,2.141-3.4
			c0.906-0.973,1.986-1.739,3.239-2.3c1.254-0.56,2.601-0.84,4.04-0.84c1.467,0,2.82,0.287,4.061,0.86s2.312,1.347,3.22,2.319
			c0.906,0.974,1.62,2.107,2.14,3.4c0.521,1.294,0.78,2.66,0.78,4.1c0,0.134-0.007,0.3-0.02,0.5c-0.014,0.2-0.021,0.327-0.021,0.38
			h-18.28c0.08,1.2,0.36,2.314,0.841,3.341c0.479,1.026,1.086,1.913,1.819,2.659c0.733,0.747,1.58,1.334,2.54,1.761
			s1.986,0.64,3.08,0.64c0.72,0,1.434-0.1,2.141-0.3c0.706-0.2,1.359-0.474,1.96-0.82c0.6-0.346,1.133-0.767,1.6-1.26
			c0.466-0.493,0.833-1.033,1.1-1.62l1.761,0.479c-0.32,0.747-0.768,1.435-1.341,2.061c-0.573,0.627-1.239,1.167-2,1.62
			c-0.76,0.453-1.594,0.807-2.5,1.06S175.959,243.332,174.999,243.332z M183.159,231.732c-0.08-1.227-0.354-2.347-0.82-3.36
			c-0.467-1.013-1.066-1.886-1.8-2.62c-0.733-0.732-1.58-1.306-2.54-1.72c-0.96-0.413-1.986-0.62-3.08-0.62s-2.12,0.207-3.08,0.62
			c-0.96,0.414-1.807,0.987-2.54,1.72c-0.733,0.734-1.319,1.614-1.76,2.641c-0.439,1.026-0.7,2.14-0.779,3.34H183.159z"/>
		<path fill="#FFFFFF" d="M197.959,243.252c-1.439,0-2.76-0.3-3.96-0.899c-1.2-0.601-2.24-1.4-3.12-2.4s-1.56-2.14-2.04-3.42
			c-0.479-1.28-0.72-2.6-0.72-3.96c0-1.413,0.233-2.773,0.7-4.08c0.466-1.306,1.126-2.46,1.979-3.46s1.873-1.793,3.061-2.38
			c1.187-0.586,2.486-0.88,3.899-0.88c1.813,0,3.394,0.474,4.74,1.42c1.347,0.947,2.5,2.1,3.46,3.46v-4.52h1.8v21.199
			c0,1.413-0.267,2.653-0.8,3.721c-0.533,1.065-1.247,1.953-2.14,2.659c-0.894,0.707-1.934,1.24-3.12,1.601s-2.434,0.54-3.74,0.54
			c-1.2,0-2.28-0.114-3.24-0.34c-0.96-0.228-1.807-0.547-2.54-0.96c-0.733-0.414-1.387-0.92-1.96-1.521
			c-0.573-0.6-1.073-1.26-1.5-1.979l1.36-0.92c0.826,1.413,1.946,2.446,3.36,3.1c1.413,0.653,2.92,0.979,4.52,0.979
			c1.066,0,2.073-0.146,3.021-0.439c0.946-0.294,1.772-0.727,2.479-1.3c0.706-0.574,1.267-1.287,1.681-2.141
			c0.413-0.854,0.619-1.854,0.619-3v-4.56c-0.854,1.334-1.986,2.414-3.399,3.24C200.945,242.839,199.479,243.252,197.959,243.252z
			 M198.439,241.532c0.88,0,1.732-0.166,2.56-0.5c0.826-0.333,1.58-0.766,2.26-1.3c0.681-0.533,1.247-1.133,1.7-1.8
			c0.453-0.666,0.72-1.333,0.8-2v-6.84c-0.319-0.801-0.746-1.54-1.279-2.221c-0.534-0.68-1.141-1.26-1.82-1.739
			c-0.68-0.48-1.414-0.86-2.2-1.141c-0.787-0.28-1.58-0.42-2.38-0.42c-1.254,0-2.374,0.267-3.36,0.8
			c-0.986,0.534-1.819,1.228-2.5,2.08c-0.68,0.854-1.199,1.82-1.56,2.9s-0.54,2.167-0.54,3.26c0,1.2,0.213,2.334,0.64,3.4
			s1.021,2.014,1.78,2.84c0.76,0.827,1.64,1.479,2.64,1.96C196.179,241.292,197.266,241.532,198.439,241.532z"/>
		<path fill="#FFFFFF" d="M213.919,217.412v-3.68h2v3.68H213.919z M213.919,242.933v-20.8h2v20.8H213.919z"/>
		<path fill="#FFFFFF" d="M228.719,243.332c-1.6,0-3.134-0.267-4.6-0.8c-1.467-0.533-2.747-1.333-3.841-2.399l1-1.36
			c1.12,1.014,2.28,1.76,3.48,2.24c1.2,0.479,2.52,0.72,3.96,0.72c1.813,0,3.273-0.38,4.38-1.14c1.106-0.761,1.66-1.82,1.66-3.181
			c0-0.64-0.14-1.18-0.42-1.62c-0.28-0.439-0.7-0.812-1.26-1.119c-0.561-0.307-1.254-0.58-2.08-0.82
			c-0.827-0.24-1.787-0.493-2.88-0.76c-1.174-0.267-2.194-0.533-3.061-0.801c-0.866-0.266-1.58-0.586-2.14-0.96
			c-0.561-0.373-0.98-0.826-1.26-1.359c-0.28-0.533-0.42-1.214-0.42-2.04c0-1.04,0.199-1.946,0.6-2.721
			c0.4-0.772,0.953-1.413,1.66-1.92c0.706-0.506,1.52-0.886,2.439-1.14c0.92-0.253,1.9-0.38,2.94-0.38
			c1.626,0,3.066,0.273,4.32,0.82c1.253,0.547,2.226,1.246,2.92,2.1l-1.12,1.08c-0.694-0.8-1.594-1.4-2.7-1.8
			c-1.106-0.4-2.287-0.601-3.54-0.601c-0.773,0-1.5,0.08-2.18,0.24c-0.681,0.16-1.274,0.414-1.78,0.76
			c-0.507,0.348-0.907,0.794-1.2,1.34c-0.294,0.547-0.439,1.194-0.439,1.94c0,0.614,0.1,1.106,0.3,1.48
			c0.2,0.373,0.52,0.693,0.96,0.96c0.439,0.267,1.006,0.5,1.7,0.699c0.692,0.2,1.52,0.42,2.479,0.66
			c1.307,0.32,2.467,0.627,3.48,0.92c1.013,0.294,1.859,0.654,2.54,1.08c0.68,0.427,1.199,0.934,1.56,1.521s0.54,1.333,0.54,2.239
			c0,1.867-0.727,3.354-2.18,4.461C233.085,242.779,231.146,243.332,228.719,243.332z"/>
		<path fill="#FFFFFF" d="M250.639,241.933c-0.107,0.054-0.287,0.153-0.54,0.3c-0.254,0.146-0.574,0.287-0.96,0.42
			c-0.387,0.134-0.82,0.254-1.3,0.36c-0.48,0.105-1,0.16-1.561,0.16c-0.56,0-1.087-0.08-1.58-0.24s-0.927-0.4-1.3-0.721
			c-0.374-0.319-0.674-0.706-0.9-1.159s-0.34-0.986-0.34-1.601v-15.68h-2.92v-1.64h2.92v-7.12h2v7.12h4.88v1.64h-4.88v15.2
			c0,0.773,0.267,1.354,0.8,1.739c0.533,0.388,1.146,0.58,1.841,0.58c0.826,0,1.54-0.14,2.14-0.42c0.6-0.279,0.966-0.46,1.1-0.54
			L250.639,241.933z"/>
		<path fill="#FFFFFF" d="M262.878,243.332c-1.467,0-2.826-0.286-4.08-0.859c-1.253-0.573-2.34-1.36-3.26-2.36
			s-1.64-2.153-2.16-3.46c-0.52-1.307-0.779-2.706-0.779-4.2c0-1.466,0.26-2.846,0.779-4.14c0.521-1.293,1.233-2.427,2.141-3.4
			c0.906-0.973,1.986-1.739,3.239-2.3c1.254-0.56,2.601-0.84,4.04-0.84c1.467,0,2.82,0.287,4.061,0.86s2.312,1.347,3.22,2.319
			c0.906,0.974,1.62,2.107,2.14,3.4c0.521,1.294,0.78,2.66,0.78,4.1c0,0.134-0.007,0.3-0.02,0.5c-0.014,0.2-0.021,0.327-0.021,0.38
			h-18.28c0.08,1.2,0.36,2.314,0.841,3.341c0.479,1.026,1.086,1.913,1.819,2.659c0.733,0.747,1.58,1.334,2.54,1.761
			s1.986,0.64,3.08,0.64c0.72,0,1.434-0.1,2.141-0.3c0.706-0.2,1.359-0.474,1.96-0.82c0.6-0.346,1.133-0.767,1.6-1.26
			c0.466-0.493,0.833-1.033,1.1-1.62l1.761,0.479c-0.32,0.747-0.768,1.435-1.341,2.061c-0.573,0.627-1.239,1.167-2,1.62
			c-0.76,0.453-1.594,0.807-2.5,1.06S263.838,243.332,262.878,243.332z M271.038,231.732c-0.08-1.227-0.354-2.347-0.82-3.36
			c-0.467-1.013-1.066-1.886-1.8-2.62c-0.733-0.732-1.58-1.306-2.54-1.72c-0.96-0.413-1.986-0.62-3.08-0.62s-2.12,0.207-3.08,0.62
			c-0.96,0.414-1.807,0.987-2.54,1.72c-0.733,0.734-1.319,1.614-1.76,2.641c-0.439,1.026-0.7,2.14-0.779,3.34H271.038z"/>
		<path fill="#FFFFFF" d="M287.198,223.933c-1.894,0.054-3.534,0.606-4.92,1.66c-1.387,1.054-2.36,2.5-2.92,4.34v13h-2v-20.8h1.88
			v5.119c0.72-1.466,1.673-2.659,2.859-3.579c1.187-0.921,2.46-1.446,3.82-1.58c0.267,0,0.507-0.007,0.72-0.021
			c0.214-0.013,0.4-0.02,0.561-0.02V223.933z"/>
		<path fill="#FFFFFF" d="M299.878,243.332c-1.467,0-2.827-0.286-4.08-0.859c-1.254-0.573-2.34-1.36-3.26-2.36
			s-1.641-2.153-2.16-3.46c-0.521-1.307-0.78-2.706-0.78-4.2c0-1.466,0.26-2.846,0.78-4.14c0.52-1.293,1.233-2.427,2.14-3.4
			c0.906-0.973,1.986-1.739,3.24-2.3c1.253-0.56,2.6-0.84,4.04-0.84c1.466,0,2.82,0.287,4.06,0.86
			c1.24,0.573,2.313,1.347,3.221,2.319c0.906,0.974,1.619,2.107,2.14,3.4c0.52,1.294,0.78,2.66,0.78,4.1
			c0,0.134-0.007,0.3-0.021,0.5s-0.02,0.327-0.02,0.38h-18.28c0.08,1.2,0.36,2.314,0.84,3.341c0.48,1.026,1.086,1.913,1.82,2.659
			c0.733,0.747,1.58,1.334,2.54,1.761s1.986,0.64,3.08,0.64c0.72,0,1.433-0.1,2.14-0.3c0.706-0.2,1.36-0.474,1.96-0.82
			c0.601-0.346,1.133-0.767,1.601-1.26c0.466-0.493,0.833-1.033,1.1-1.62l1.76,0.479c-0.32,0.747-0.767,1.435-1.34,2.061
			c-0.574,0.627-1.24,1.167-2,1.62s-1.594,0.807-2.5,1.06C301.771,243.205,300.838,243.332,299.878,243.332z M308.038,231.732
			c-0.08-1.227-0.354-2.347-0.82-3.36c-0.467-1.013-1.067-1.886-1.8-2.62c-0.734-0.732-1.58-1.306-2.54-1.72
			c-0.96-0.413-1.987-0.62-3.08-0.62c-1.094,0-2.12,0.207-3.08,0.62c-0.96,0.414-1.807,0.987-2.54,1.72
			c-0.733,0.734-1.32,1.614-1.76,2.641c-0.44,1.026-0.7,2.14-0.78,3.34H308.038z"/>
		<path fill="#FFFFFF" d="M322.958,243.332c-1.44,0-2.774-0.3-4-0.899c-1.228-0.601-2.287-1.4-3.181-2.4s-1.587-2.146-2.08-3.439
			c-0.493-1.294-0.739-2.634-0.739-4.021c0-1.439,0.239-2.813,0.72-4.12c0.479-1.306,1.146-2.453,2-3.439
			c0.853-0.986,1.859-1.773,3.02-2.36c1.16-0.586,2.434-0.88,3.82-0.88c0.906,0,1.767,0.134,2.58,0.4s1.56,0.619,2.24,1.06
			c0.68,0.44,1.3,0.954,1.859,1.54c0.561,0.587,1.04,1.214,1.44,1.88v-12.92h2v26.4c0,0.666,0.28,1,0.84,1v1.8
			c-0.134,0.026-0.254,0.04-0.36,0.04s-0.213,0-0.319,0c-0.587,0-1.061-0.187-1.42-0.561c-0.36-0.373-0.54-0.786-0.54-1.239v-2.4
			c-0.854,1.387-1.994,2.494-3.42,3.32C325.99,242.919,324.504,243.332,322.958,243.332z M323.317,241.532
			c0.72,0,1.493-0.146,2.32-0.439c0.826-0.294,1.6-0.7,2.32-1.221c0.72-0.52,1.326-1.113,1.819-1.779
			c0.493-0.667,0.78-1.387,0.86-2.16v-6.84c-0.294-0.747-0.714-1.46-1.26-2.141c-0.547-0.68-1.167-1.266-1.86-1.76
			c-0.693-0.493-1.44-0.887-2.24-1.18s-1.573-0.44-2.319-0.44c-1.2,0-2.287,0.26-3.261,0.78c-0.974,0.52-1.813,1.2-2.52,2.04
			c-0.707,0.84-1.247,1.8-1.62,2.88c-0.374,1.08-0.56,2.193-0.56,3.34c0,1.2,0.213,2.334,0.64,3.4c0.426,1.066,1.02,2.014,1.78,2.84
			c0.76,0.827,1.64,1.479,2.64,1.96C321.058,241.292,322.144,241.532,323.317,241.532z"/>
		<path fill="#FFFFFF" d="M355.877,243.332c-4.453,0-6.68-3.065-6.68-9.199v-12h2v11.72c0,5.12,1.746,7.68,5.24,7.68
			c0.88,0,1.739-0.153,2.58-0.46c0.84-0.306,1.619-0.733,2.34-1.28c0.72-0.546,1.353-1.206,1.899-1.979s0.98-1.626,1.301-2.561
			v-13.119h2v18c0,0.666,0.279,1,0.84,1v1.8c-0.16,0.026-0.294,0.04-0.4,0.04s-0.214,0-0.32,0c-0.56,0-1.02-0.167-1.38-0.5
			c-0.359-0.333-0.54-0.767-0.54-1.3v-3.16c-0.934,1.68-2.187,2.986-3.76,3.92S357.717,243.332,355.877,243.332z"/>
		<path fill="#FFFFFF" d="M379.557,243.332c-1.6,0-3.134-0.267-4.6-0.8c-1.467-0.533-2.747-1.333-3.841-2.399l1-1.36
			c1.12,1.014,2.28,1.76,3.48,2.24c1.2,0.479,2.52,0.72,3.96,0.72c1.813,0,3.273-0.38,4.38-1.14c1.106-0.761,1.66-1.82,1.66-3.181
			c0-0.64-0.14-1.18-0.42-1.62c-0.28-0.439-0.7-0.812-1.26-1.119c-0.561-0.307-1.254-0.58-2.08-0.82
			c-0.827-0.24-1.787-0.493-2.88-0.76c-1.174-0.267-2.194-0.533-3.061-0.801c-0.866-0.266-1.58-0.586-2.14-0.96
			c-0.561-0.373-0.98-0.826-1.26-1.359c-0.28-0.533-0.42-1.214-0.42-2.04c0-1.04,0.199-1.946,0.6-2.721
			c0.4-0.772,0.953-1.413,1.66-1.92c0.706-0.506,1.52-0.886,2.439-1.14c0.92-0.253,1.9-0.38,2.94-0.38
			c1.626,0,3.066,0.273,4.32,0.82c1.253,0.547,2.226,1.246,2.92,2.1l-1.12,1.08c-0.694-0.8-1.594-1.4-2.7-1.8
			c-1.106-0.4-2.287-0.601-3.54-0.601c-0.773,0-1.5,0.08-2.18,0.24c-0.681,0.16-1.274,0.414-1.78,0.76
			c-0.507,0.348-0.907,0.794-1.2,1.34c-0.294,0.547-0.439,1.194-0.439,1.94c0,0.614,0.1,1.106,0.3,1.48
			c0.2,0.373,0.52,0.693,0.96,0.96c0.439,0.267,1.006,0.5,1.7,0.699c0.692,0.2,1.52,0.42,2.479,0.66
			c1.307,0.32,2.467,0.627,3.48,0.92c1.013,0.294,1.859,0.654,2.54,1.08c0.68,0.427,1.199,0.934,1.56,1.521s0.54,1.333,0.54,2.239
			c0,1.867-0.727,3.354-2.18,4.461C383.923,242.779,381.983,243.332,379.557,243.332z"/>
		<path fill="#FFFFFF" d="M401.036,243.332c-1.467,0-2.826-0.286-4.08-0.859c-1.253-0.573-2.34-1.36-3.26-2.36
			s-1.64-2.153-2.16-3.46c-0.52-1.307-0.779-2.706-0.779-4.2c0-1.466,0.26-2.846,0.779-4.14c0.521-1.293,1.233-2.427,2.141-3.4
			c0.906-0.973,1.986-1.739,3.239-2.3c1.254-0.56,2.601-0.84,4.04-0.84c1.467,0,2.82,0.287,4.061,0.86s2.312,1.347,3.22,2.319
			c0.906,0.974,1.62,2.107,2.14,3.4c0.521,1.294,0.78,2.66,0.78,4.1c0,0.134-0.007,0.3-0.02,0.5c-0.014,0.2-0.021,0.327-0.021,0.38
			h-18.28c0.08,1.2,0.36,2.314,0.841,3.341c0.479,1.026,1.086,1.913,1.819,2.659c0.733,0.747,1.58,1.334,2.54,1.761
			s1.986,0.64,3.08,0.64c0.72,0,1.434-0.1,2.141-0.3c0.706-0.2,1.359-0.474,1.96-0.82c0.6-0.346,1.133-0.767,1.6-1.26
			c0.466-0.493,0.833-1.033,1.1-1.62l1.761,0.479c-0.32,0.747-0.768,1.435-1.341,2.061c-0.573,0.627-1.239,1.167-2,1.62
			c-0.76,0.453-1.594,0.807-2.5,1.06S401.996,243.332,401.036,243.332z M409.196,231.732c-0.08-1.227-0.354-2.347-0.82-3.36
			c-0.467-1.013-1.066-1.886-1.8-2.62c-0.733-0.732-1.58-1.306-2.54-1.72c-0.96-0.413-1.986-0.62-3.08-0.62s-2.12,0.207-3.08,0.62
			c-0.96,0.414-1.807,0.987-2.54,1.72c-0.733,0.734-1.319,1.614-1.76,2.641c-0.439,1.026-0.7,2.14-0.779,3.34H409.196z"/>
		<path fill="#FFFFFF" d="M425.356,223.933c-1.894,0.054-3.534,0.606-4.92,1.66c-1.387,1.054-2.36,2.5-2.92,4.34v13h-2v-20.8h1.88
			v5.119c0.72-1.466,1.673-2.659,2.859-3.579c1.187-0.921,2.46-1.446,3.82-1.58c0.267,0,0.507-0.007,0.72-0.021
			c0.214-0.013,0.4-0.02,0.561-0.02V223.933z"/>
		<path fill="#FFFFFF" d="M435.556,243.332c-1.6,0-3.134-0.267-4.6-0.8c-1.467-0.533-2.747-1.333-3.841-2.399l1-1.36
			c1.12,1.014,2.28,1.76,3.48,2.24c1.2,0.479,2.52,0.72,3.96,0.72c1.813,0,3.273-0.38,4.38-1.14c1.106-0.761,1.66-1.82,1.66-3.181
			c0-0.64-0.14-1.18-0.42-1.62c-0.28-0.439-0.7-0.812-1.26-1.119c-0.561-0.307-1.254-0.58-2.08-0.82
			c-0.827-0.24-1.787-0.493-2.88-0.76c-1.174-0.267-2.194-0.533-3.061-0.801c-0.866-0.266-1.58-0.586-2.14-0.96
			c-0.561-0.373-0.98-0.826-1.26-1.359c-0.28-0.533-0.42-1.214-0.42-2.04c0-1.04,0.199-1.946,0.6-2.721
			c0.4-0.772,0.953-1.413,1.66-1.92c0.706-0.506,1.52-0.886,2.439-1.14c0.92-0.253,1.9-0.38,2.94-0.38
			c1.626,0,3.066,0.273,4.32,0.82c1.253,0.547,2.226,1.246,2.92,2.1l-1.12,1.08c-0.694-0.8-1.594-1.4-2.7-1.8
			c-1.106-0.4-2.287-0.601-3.54-0.601c-0.773,0-1.5,0.08-2.18,0.24c-0.681,0.16-1.274,0.414-1.78,0.76
			c-0.507,0.348-0.907,0.794-1.2,1.34c-0.294,0.547-0.439,1.194-0.439,1.94c0,0.614,0.1,1.106,0.3,1.48
			c0.2,0.373,0.52,0.693,0.96,0.96c0.439,0.267,1.006,0.5,1.7,0.699c0.692,0.2,1.52,0.42,2.479,0.66
			c1.307,0.32,2.467,0.627,3.48,0.92c1.013,0.294,1.859,0.654,2.54,1.08c0.68,0.427,1.199,0.934,1.56,1.521s0.54,1.333,0.54,2.239
			c0,1.867-0.727,3.354-2.18,4.461C439.922,242.779,437.982,243.332,435.556,243.332z"/>
		<path fill="#FFFFFF" d="M232.838,265.412v-3.68h2v3.68H232.838z M232.838,290.933v-20.8h2v20.8H232.838z"/>
		<path fill="#FFFFFF" d="M257.998,290.933h-2v-11.601c0-2.692-0.38-4.652-1.141-5.88c-0.76-1.226-1.979-1.84-3.66-1.84
			c-0.88,0-1.753,0.16-2.619,0.48c-0.867,0.319-1.667,0.773-2.4,1.359c-0.733,0.587-1.38,1.274-1.94,2.061
			c-0.56,0.786-0.974,1.634-1.239,2.54v12.88h-2v-20.8h1.84v4.96c0.426-0.801,0.96-1.526,1.6-2.181
			c0.641-0.653,1.347-1.213,2.12-1.68c0.773-0.466,1.606-0.826,2.5-1.08c0.894-0.253,1.807-0.38,2.74-0.38
			c2.267,0,3.866,0.794,4.8,2.38c0.934,1.587,1.4,3.86,1.4,6.82V290.933z"/>
		<path fill="#FFFFFF" d="M275.037,290.933v-28.36h2.04v28.36H275.037z"/>
		<path fill="#FFFFFF" d="M284.037,261.732h2.04v25.08c0,0.773,0.22,1.387,0.66,1.84c0.439,0.454,1.046,0.68,1.82,0.68
			c0.293,0,0.646-0.033,1.06-0.1c0.413-0.066,0.793-0.166,1.14-0.3l0.4,1.6c-0.454,0.188-1.014,0.34-1.68,0.46
			c-0.667,0.12-1.24,0.181-1.721,0.181c-1.12,0-2.02-0.341-2.699-1.021c-0.681-0.68-1.021-1.593-1.021-2.74V261.732z"/>
		<path fill="#FFFFFF" d="M294.797,290.933v-16.721h-2.92v-1.64h2.92v-3.12c0-2.56,0.526-4.553,1.58-5.979
			c1.053-1.427,2.5-2.141,4.34-2.141c0.773,0,1.533,0.12,2.28,0.36c0.746,0.24,1.36,0.56,1.84,0.96l-0.72,1.44
			c-0.374-0.294-0.834-0.533-1.38-0.721c-0.547-0.186-1.114-0.279-1.7-0.279c-1.36,0-2.407,0.54-3.14,1.619
			c-0.734,1.08-1.101,2.647-1.101,4.7v3.16h5.92v1.64h-5.92v16.721H294.797z"/>
		<path fill="#FFFFFF" d="M315.637,291.332c-1.467,0-2.819-0.286-4.06-0.859s-2.313-1.354-3.22-2.34
			c-0.907-0.986-1.614-2.134-2.12-3.44c-0.507-1.307-0.76-2.68-0.76-4.12c0-1.466,0.26-2.853,0.779-4.16
			c0.521-1.306,1.24-2.453,2.16-3.439s1.993-1.767,3.22-2.34s2.561-0.86,4-0.86c1.44,0,2.78,0.287,4.021,0.86s2.32,1.354,3.24,2.34
			s1.64,2.134,2.159,3.439c0.521,1.308,0.78,2.694,0.78,4.16c0,1.44-0.26,2.813-0.78,4.12c-0.52,1.307-1.233,2.454-2.14,3.44
			c-0.907,0.986-1.986,1.767-3.24,2.34C318.424,291.046,317.077,291.332,315.637,291.332z M307.518,280.652
			c0,1.227,0.213,2.38,0.64,3.46c0.426,1.08,1.006,2.021,1.74,2.82c0.732,0.8,1.593,1.434,2.58,1.899
			c0.985,0.467,2.04,0.7,3.159,0.7c1.12,0,2.174-0.233,3.16-0.7c0.986-0.466,1.847-1.112,2.58-1.939
			c0.733-0.826,1.32-1.78,1.76-2.86c0.44-1.08,0.66-2.246,0.66-3.5c0-1.227-0.22-2.38-0.66-3.46c-0.439-1.08-1.026-2.026-1.76-2.84
			s-1.594-1.46-2.58-1.94c-0.986-0.479-2.04-0.72-3.16-0.72c-1.094,0-2.134,0.24-3.119,0.72c-0.987,0.48-1.854,1.134-2.601,1.96
			c-0.747,0.827-1.334,1.794-1.76,2.9C307.73,278.259,307.518,279.426,307.518,280.652z"/>
		<path fill="#FFFFFF" d="M340.397,271.933c-1.894,0.054-3.534,0.606-4.92,1.66c-1.387,1.054-2.36,2.5-2.92,4.34v13h-2v-20.8h1.88
			v5.119c0.72-1.466,1.673-2.659,2.859-3.579c1.187-0.921,2.46-1.446,3.82-1.58c0.267,0,0.507-0.007,0.72-0.021
			c0.214-0.013,0.4-0.02,0.561-0.02V271.933z"/>
		<path fill="#FFFFFF" d="M351.758,291.332c-1.44,0-2.774-0.3-4-0.899c-1.228-0.601-2.287-1.4-3.181-2.4s-1.587-2.146-2.08-3.439
			c-0.493-1.294-0.739-2.634-0.739-4.021c0-1.439,0.239-2.813,0.72-4.12c0.479-1.306,1.146-2.453,2-3.439
			c0.853-0.986,1.859-1.773,3.02-2.36c1.16-0.586,2.434-0.88,3.82-0.88c0.906,0,1.767,0.134,2.58,0.4s1.56,0.619,2.24,1.06
			c0.68,0.44,1.3,0.954,1.859,1.54c0.561,0.587,1.04,1.214,1.44,1.88v-12.92h2v26.4c0,0.666,0.28,1,0.84,1v1.8
			c-0.134,0.026-0.254,0.04-0.36,0.04s-0.213,0-0.319,0c-0.587,0-1.061-0.187-1.42-0.561c-0.36-0.373-0.54-0.786-0.54-1.239v-2.4
			c-0.854,1.387-1.994,2.494-3.42,3.32C354.79,290.919,353.304,291.332,351.758,291.332z M352.117,289.532
			c0.72,0,1.493-0.146,2.32-0.439c0.826-0.294,1.6-0.7,2.32-1.221c0.72-0.52,1.326-1.113,1.819-1.779
			c0.493-0.667,0.78-1.387,0.86-2.16v-6.84c-0.294-0.747-0.714-1.46-1.26-2.141c-0.547-0.68-1.167-1.266-1.86-1.76
			c-0.693-0.493-1.44-0.887-2.24-1.18s-1.573-0.44-2.319-0.44c-1.2,0-2.287,0.26-3.261,0.78c-0.974,0.52-1.813,1.2-2.52,2.04
			c-0.707,0.84-1.247,1.8-1.62,2.88c-0.374,1.08-0.56,2.193-0.56,3.34c0,1.2,0.213,2.334,0.64,3.4c0.426,1.066,1.02,2.014,1.78,2.84
			c0.76,0.827,1.64,1.479,2.64,1.96C349.857,289.292,350.943,289.532,352.117,289.532z"/>
	</g>
</g>
</svg>
