<?xml version="1.0" encoding="utf-8"?>
<!-- Generator: Adobe Illustrator 17.0.0, SVG Export Plug-In . SVG Version: 6.00 Build 0)  -->
<!DOCTYPE svg PUBLIC "-//W3C//DTD SVG 1.1//EN" "http://www.w3.org/Graphics/SVG/1.1/DTD/svg11.dtd">
<svg version="1.1" id="Layer_1" xmlns="http://www.w3.org/2000/svg" xmlns:xlink="http://www.w3.org/1999/xlink" x="0px" y="0px"
	 width="600px" height="374px" viewBox="0 0 600 374" enable-background="new 0 0 600 374" xml:space="preserve">
<path fill="#63328A" d="M556.5,174.496c0,4.697-3.807,8.504-8.504,8.504H52.004c-4.697,0-8.504-3.807-8.504-8.504V72.504
	c0-4.697,3.807-8.504,8.504-8.504h495.992c4.697,0,8.504,3.807,8.504,8.504V174.496z"/>
<path fill="#9A9999" d="M556.572,301.496c0,4.697-3.807,8.504-8.504,8.504H52.076c-4.697,0-8.504-3.807-8.504-8.504V199.504
	c0-4.697,3.807-8.504,8.504-8.504h495.992c4.697,0,8.504,3.807,8.504,8.504V301.496z"/>
<g>
	<g>
		<path fill="#FFFFFF" d="M87.551,148.378c-3.04,0-5.8-0.62-8.28-1.86c-2.481-1.239-4.611-2.87-6.39-4.89
			c-1.78-2.019-3.16-4.329-4.14-6.93c-0.98-2.6-1.47-5.28-1.47-8.04c0-2.799,0.51-5.5,1.53-8.1c1.02-2.6,2.439-4.89,4.26-6.87
			c1.819-1.98,3.979-3.56,6.48-4.74c2.499-1.18,5.229-1.77,8.19-1.77c3.039,0,5.799,0.621,8.28,1.86c2.48,1.24,4.61,2.88,6.39,4.92
			c1.779,2.04,3.15,4.36,4.11,6.96c0.96,2.601,1.44,5.241,1.44,7.92c0,2.8-0.51,5.5-1.53,8.1c-1.02,2.601-2.43,4.89-4.23,6.87
			c-1.8,1.98-3.951,3.57-6.45,4.77C93.241,147.778,90.511,148.378,87.551,148.378z M77.291,126.778c0,1.641,0.229,3.231,0.69,4.77
			c0.459,1.541,1.119,2.91,1.98,4.11c0.859,1.2,1.939,2.16,3.24,2.88c1.299,0.72,2.79,1.08,4.47,1.08c1.719,0,3.219-0.38,4.5-1.14
			c1.28-0.759,2.349-1.75,3.21-2.97c0.86-1.22,1.5-2.6,1.92-4.14c0.42-1.54,0.63-3.11,0.63-4.71c0-1.64-0.23-3.23-0.69-4.77
			c-0.46-1.54-1.13-2.9-2.01-4.08c-0.88-1.179-1.96-2.12-3.24-2.82c-1.281-0.7-2.74-1.05-4.38-1.05c-1.72,0-3.22,0.371-4.5,1.11
			c-1.281,0.741-2.35,1.71-3.21,2.91c-0.861,1.2-1.51,2.571-1.95,4.11C77.51,123.609,77.291,125.179,77.291,126.778z"/>
		<path fill="#FFFFFF" d="M142.931,148.019h-9.6v-17.7c0-2.079-0.39-3.589-1.17-4.53c-0.78-0.939-1.811-1.41-3.09-1.41
			c-0.681,0-1.371,0.141-2.07,0.42c-0.7,0.281-1.36,0.67-1.98,1.17c-0.621,0.5-1.19,1.09-1.71,1.77c-0.521,0.68-0.921,1.42-1.2,2.22
			v18.06h-9.6v-31.5h8.64v5.28c1.16-1.879,2.799-3.33,4.92-4.35c2.12-1.02,4.56-1.53,7.32-1.53c2.04,0,3.69,0.371,4.95,1.11
			c1.26,0.741,2.229,1.701,2.91,2.88c0.68,1.18,1.13,2.47,1.35,3.87c0.219,1.401,0.33,2.76,0.33,4.08V148.019z"/>
		<path fill="#FFFFFF" d="M149.11,104.219h9.6v32.04c0,2.4,1.04,3.6,3.12,3.6c0.44,0,0.95-0.08,1.53-0.24
			c0.579-0.16,1.11-0.36,1.59-0.6l1.26,7.74c-1.2,0.561-2.58,1-4.14,1.32s-3,0.48-4.32,0.48c-2.76,0-4.89-0.72-6.39-2.16
			s-2.25-3.519-2.25-6.24V104.219z"/>
		<path fill="#FFFFFF" d="M169.51,112.918v-8.7h9.6v8.7H169.51z M169.51,148.019v-31.5h9.6v31.5H169.51z"/>
		<path fill="#FFFFFF" d="M216.009,148.019h-9.6v-17.7c0-2.079-0.39-3.589-1.17-4.53c-0.78-0.939-1.811-1.41-3.09-1.41
			c-0.681,0-1.371,0.141-2.07,0.42c-0.7,0.281-1.36,0.67-1.98,1.17c-0.621,0.5-1.19,1.09-1.71,1.77c-0.521,0.68-0.921,1.42-1.2,2.22
			v18.06h-9.6v-31.5h8.64v5.28c1.16-1.879,2.799-3.33,4.92-4.35c2.12-1.02,4.56-1.53,7.32-1.53c2.04,0,3.69,0.371,4.95,1.11
			c1.26,0.741,2.229,1.701,2.91,2.88c0.68,1.18,1.13,2.47,1.35,3.87c0.219,1.401,0.33,2.76,0.33,4.08V148.019z"/>
		<path fill="#FFFFFF" d="M237.368,148.619c-2.64,0-5.01-0.43-7.11-1.29s-3.88-2.03-5.34-3.51c-1.461-1.479-2.571-3.189-3.33-5.13
			c-0.76-1.939-1.14-3.969-1.14-6.09c0-2.28,0.38-4.43,1.14-6.45c0.759-2.019,1.86-3.789,3.3-5.31c1.44-1.52,3.21-2.72,5.31-3.6
			c2.1-0.879,4.49-1.32,7.17-1.32c2.68,0,5.06,0.441,7.14,1.32c2.08,0.88,3.84,2.07,5.28,3.57c1.44,1.5,2.53,3.23,3.27,5.19
			c0.74,1.96,1.11,4.02,1.11,6.18c0,0.561-0.021,1.11-0.06,1.65c-0.041,0.54-0.101,1.011-0.18,1.41h-23.28
			c0.159,2.121,0.93,3.73,2.31,4.83c1.38,1.101,2.949,1.65,4.71,1.65c1.399,0,2.75-0.339,4.05-1.02c1.299-0.68,2.169-1.6,2.61-2.76
			l8.16,2.28c-1.24,2.48-3.16,4.5-5.76,6.06C244.127,147.838,241.008,148.619,237.368,148.619z M244.028,129.298
			c-0.201-2-0.92-3.579-2.16-4.74c-1.24-1.16-2.78-1.74-4.62-1.74c-1.881,0-3.431,0.591-4.65,1.77
			c-1.221,1.181-1.93,2.751-2.13,4.71H244.028z"/>
		<path fill="#FFFFFF" d="M300.547,148.019l-2.82-2.94c-1.761,1.161-3.621,2.04-5.58,2.64c-1.96,0.6-3.96,0.9-6,0.9
			c-2.32,0-4.39-0.371-6.21-1.11c-1.821-0.74-3.351-1.72-4.59-2.94c-1.24-1.22-2.19-2.61-2.85-4.17s-0.99-3.18-0.99-4.86
			c0-1.28,0.18-2.469,0.54-3.57c0.36-1.1,0.85-2.109,1.47-3.03c0.62-0.919,1.329-1.779,2.13-2.58c0.8-0.799,1.66-1.539,2.58-2.22
			c-0.72-0.879-1.341-1.68-1.86-2.4c-0.521-0.72-0.94-1.43-1.26-2.13c-0.32-0.699-0.55-1.38-0.69-2.04
			c-0.141-0.66-0.21-1.37-0.21-2.13c0-1.64,0.3-3.109,0.9-4.41c0.6-1.299,1.44-2.409,2.52-3.33c1.08-0.92,2.36-1.62,3.84-2.1
			c1.479-0.48,3.08-0.72,4.8-0.72c1.479,0,2.94,0.19,4.38,0.57c1.44,0.38,2.709,0.98,3.81,1.8c1.1,0.82,1.989,1.84,2.67,3.06
			c0.68,1.221,1.02,2.67,1.02,4.35c0,2.28-0.6,4.29-1.8,6.03c-1.2,1.74-2.76,3.33-4.68,4.77l6.66,7.08
			c0.519-1.2,0.93-2.51,1.23-3.93c0.3-1.419,0.45-2.97,0.45-4.65h7.801c-0.041,2.96-0.4,5.631-1.08,8.01
			c-0.681,2.38-1.601,4.53-2.76,6.45l9.18,9.6H300.547z M287.167,141.119c1.839,0,3.64-0.54,5.4-1.62l-8.46-9
			c-1.041,0.801-1.86,1.6-2.46,2.4c-0.6,0.801-0.9,1.701-0.9,2.7c0,0.64,0.14,1.29,0.42,1.95c0.279,0.66,0.69,1.251,1.23,1.77
			c0.54,0.521,1.209,0.951,2.01,1.29C285.207,140.949,286.126,141.119,287.167,141.119z M282.907,115.079c0,0.64,0.2,1.23,0.6,1.77
			c0.399,0.54,1.12,1.33,2.16,2.37c1.239-0.8,2.16-1.52,2.76-2.16c0.6-0.64,0.9-1.4,0.9-2.28c0-0.879-0.28-1.58-0.84-2.1
			c-0.561-0.52-1.3-0.78-2.22-0.78c-1.041,0-1.86,0.3-2.46,0.9C283.207,113.398,282.907,114.159,282.907,115.079z"/>
		<path fill="#FFFFFF" d="M364.866,148.019v-25.5l-9.24,18.54h-5.28l-9.24-18.54v25.5h-9.84v-42.6h10.68l11.04,22.26l11.101-22.26
			h10.62v42.6H364.866z"/>
		<path fill="#FFFFFF" d="M397.085,148.619c-2.681,0-5.07-0.441-7.17-1.32c-2.101-0.879-3.87-2.07-5.311-3.57
			c-1.439-1.5-2.53-3.24-3.27-5.22c-0.74-1.98-1.11-4.05-1.11-6.21c0-2.16,0.37-4.23,1.11-6.21c0.739-1.98,1.83-3.72,3.27-5.22
			c1.44-1.5,3.21-2.7,5.311-3.6c2.1-0.9,4.489-1.35,7.17-1.35c2.68,0,5.06,0.45,7.14,1.35s3.84,2.1,5.28,3.6s2.54,3.24,3.3,5.22
			s1.141,4.05,1.141,6.21c0,2.16-0.371,4.23-1.11,6.21c-0.74,1.98-1.83,3.72-3.271,5.22c-1.439,1.5-3.21,2.69-5.31,3.57
			S399.765,148.619,397.085,148.619z M390.064,132.298c0,2.481,0.66,4.47,1.98,5.97s3,2.25,5.04,2.25c0.999,0,1.92-0.2,2.76-0.6
			c0.84-0.399,1.569-0.96,2.19-1.68c0.619-0.72,1.109-1.59,1.47-2.61s0.54-2.13,0.54-3.33c0-2.479-0.66-4.47-1.98-5.97
			c-1.319-1.5-2.979-2.25-4.979-2.25c-1,0-1.931,0.201-2.79,0.6c-0.86,0.4-1.601,0.96-2.22,1.68c-0.621,0.72-1.11,1.59-1.471,2.61
			C390.245,129.989,390.064,131.099,390.064,132.298z"/>
		<path fill="#FFFFFF" d="M437.465,148.619c-2.4,0-4.491-0.51-6.271-1.53c-1.78-1.02-3.19-2.45-4.229-4.29v5.22h-8.4v-43.8h9.6
			v17.46c1.04-1.8,2.431-3.21,4.17-4.23c1.74-1.02,3.811-1.53,6.211-1.53c1.999,0,3.829,0.43,5.489,1.29
			c1.659,0.861,3.09,2.031,4.29,3.51c1.2,1.48,2.14,3.23,2.82,5.25c0.68,2.02,1.02,4.17,1.02,6.45c0,2.28-0.37,4.41-1.109,6.39
			c-0.741,1.98-1.771,3.7-3.09,5.16c-1.32,1.46-2.881,2.601-4.681,3.42S439.544,148.619,437.465,148.619z M434.765,140.519
			c1.119,0,2.149-0.21,3.09-0.63c0.939-0.42,1.74-0.99,2.4-1.71c0.659-0.72,1.17-1.569,1.529-2.55c0.36-0.979,0.54-2.049,0.54-3.21
			c0-1.119-0.17-2.19-0.51-3.21s-0.831-1.91-1.47-2.67c-0.641-0.759-1.391-1.359-2.25-1.8c-0.861-0.44-1.811-0.66-2.851-0.66
			c-1.521,0-2.91,0.52-4.17,1.56c-1.26,1.041-2.23,2.34-2.91,3.9v6.6c0.68,1.36,1.62,2.43,2.82,3.21
			C432.185,140.128,433.444,140.519,434.765,140.519z"/>
		<path fill="#FFFFFF" d="M456.904,112.918v-8.7h9.6v8.7H456.904z M456.904,148.019v-31.5h9.6v31.5H456.904z"/>
		<path fill="#FFFFFF" d="M472.924,104.219h9.6v32.04c0,2.4,1.04,3.6,3.12,3.6c0.439,0,0.949-0.08,1.53-0.24
			c0.579-0.16,1.109-0.36,1.59-0.6l1.26,7.74c-1.2,0.561-2.58,1-4.14,1.32c-1.561,0.32-3,0.48-4.32,0.48
			c-2.76,0-4.89-0.72-6.39-2.16s-2.25-3.519-2.25-6.24V104.219z"/>
		<path fill="#FFFFFF" d="M508.442,148.619c-2.64,0-5.01-0.43-7.109-1.29c-2.101-0.86-3.881-2.03-5.34-3.51
			c-1.461-1.479-2.571-3.189-3.33-5.13c-0.761-1.939-1.141-3.969-1.141-6.09c0-2.28,0.38-4.43,1.141-6.45
			c0.759-2.019,1.859-3.789,3.3-5.31c1.439-1.52,3.21-2.72,5.31-3.6c2.101-0.879,4.49-1.32,7.17-1.32s5.061,0.441,7.141,1.32
			c2.079,0.88,3.84,2.07,5.279,3.57c1.44,1.5,2.53,3.23,3.271,5.19c0.739,1.96,1.11,4.02,1.11,6.18c0,0.561-0.021,1.11-0.061,1.65
			c-0.04,0.54-0.101,1.011-0.18,1.41h-23.28c0.159,2.121,0.93,3.73,2.311,4.83c1.38,1.101,2.949,1.65,4.71,1.65
			c1.399,0,2.749-0.339,4.05-1.02c1.299-0.68,2.169-1.6,2.609-2.76l8.16,2.28c-1.24,2.48-3.16,4.5-5.76,6.06
			C515.202,147.838,512.082,148.619,508.442,148.619z M515.103,129.298c-0.2-2-0.92-3.579-2.16-4.74
			c-1.24-1.16-2.78-1.74-4.619-1.74c-1.881,0-3.431,0.591-4.65,1.77c-1.221,1.181-1.931,2.751-2.13,4.71H515.103z"/>
	</g>
</g>
<g>
	<g>
		<path fill="#FFFFFF" d="M190.358,264.19v-28.399h11.841c1.199,0,2.306,0.253,3.319,0.76s1.88,1.18,2.601,2.02
			c0.72,0.841,1.286,1.787,1.7,2.841c0.413,1.054,0.619,2.113,0.619,3.18c0,1.04-0.159,2.047-0.479,3.02
			c-0.32,0.974-0.773,1.848-1.36,2.62c-0.587,0.774-1.294,1.414-2.12,1.92c-0.826,0.507-1.733,0.84-2.72,1l7.08,11.04h-2.36
			l-6.88-10.72h-9.2v10.72H190.358z M192.398,251.591h9.96c0.906,0,1.733-0.2,2.48-0.601c0.746-0.399,1.387-0.926,1.92-1.579
			s0.94-1.4,1.22-2.24c0.28-0.84,0.42-1.7,0.42-2.58c0-0.906-0.166-1.78-0.5-2.62c-0.333-0.84-0.786-1.58-1.359-2.22
			c-0.574-0.641-1.24-1.153-2-1.54s-1.58-0.58-2.46-0.58h-9.681V251.591z"/>
		<path fill="#FFFFFF" d="M224.799,264.591c-1.467,0-2.827-0.287-4.08-0.86c-1.254-0.573-2.34-1.359-3.26-2.359
			s-1.641-2.153-2.16-3.46c-0.521-1.307-0.78-2.707-0.78-4.2c0-1.467,0.26-2.847,0.78-4.141c0.52-1.293,1.233-2.426,2.14-3.399
			s1.986-1.74,3.24-2.3c1.253-0.561,2.6-0.841,4.04-0.841c1.466,0,2.82,0.287,4.06,0.86c1.24,0.574,2.313,1.347,3.221,2.32
			c0.906,0.974,1.619,2.106,2.14,3.399c0.52,1.294,0.78,2.66,0.78,4.101c0,0.134-0.007,0.3-0.021,0.5s-0.02,0.326-0.02,0.38h-18.28
			c0.08,1.2,0.36,2.313,0.84,3.34c0.48,1.027,1.086,1.914,1.82,2.66c0.733,0.747,1.58,1.334,2.54,1.76
			c0.96,0.427,1.986,0.64,3.08,0.64c0.72,0,1.433-0.1,2.14-0.3c0.706-0.2,1.36-0.473,1.96-0.819
			c0.601-0.347,1.133-0.767,1.601-1.261c0.466-0.493,0.833-1.033,1.1-1.62l1.76,0.48c-0.32,0.747-0.767,1.434-1.34,2.06
			c-0.574,0.627-1.24,1.167-2,1.62c-0.76,0.454-1.594,0.808-2.5,1.061C226.691,264.464,225.759,264.591,224.799,264.591z
			 M232.959,252.99c-0.08-1.226-0.354-2.346-0.82-3.359c-0.467-1.014-1.067-1.887-1.8-2.62c-0.734-0.733-1.58-1.307-2.54-1.72
			s-1.987-0.62-3.08-0.62c-1.094,0-2.12,0.207-3.08,0.62s-1.807,0.986-2.54,1.72s-1.32,1.613-1.76,2.64
			c-0.44,1.027-0.7,2.141-0.78,3.34H232.959z"/>
		<path fill="#FFFFFF" d="M244.438,264.591c-0.96,0-1.86-0.167-2.7-0.5s-1.573-0.786-2.2-1.36c-0.627-0.573-1.113-1.253-1.46-2.04
			c-0.347-0.786-0.52-1.633-0.52-2.54c0-0.906,0.213-1.732,0.64-2.479c0.427-0.746,1.026-1.394,1.8-1.94
			c0.773-0.546,1.687-0.973,2.74-1.28c1.054-0.306,2.22-0.46,3.5-0.46c1.12,0,2.253,0.101,3.4,0.301
			c1.146,0.199,2.173,0.474,3.08,0.819v-2.04c0-1.973-0.561-3.54-1.681-4.699c-1.119-1.16-2.64-1.74-4.56-1.74
			c-1.04,0-2.127,0.214-3.26,0.64c-1.134,0.427-2.274,1.04-3.42,1.84l-0.801-1.359c2.693-1.813,5.227-2.721,7.601-2.721
			c2.506,0,4.486,0.728,5.939,2.181s2.181,3.46,2.181,6.02v10.16c0,0.667,0.279,1,0.84,1v1.8c-0.134,0.026-0.26,0.04-0.38,0.04
			s-0.234,0-0.34,0c-0.48,0-0.92-0.166-1.32-0.5c-0.4-0.333-0.6-0.766-0.6-1.3v-1.72c-0.961,1.254-2.181,2.214-3.66,2.88
			C247.778,264.257,246.172,264.591,244.438,264.591z M244.839,262.99c1.546,0,2.973-0.286,4.279-0.859s2.28-1.354,2.92-2.34
			c0.453-0.533,0.681-1.066,0.681-1.601v-3.68c-2.027-0.746-4.107-1.12-6.24-1.12c-2.08,0-3.76,0.427-5.04,1.28
			s-1.92,1.974-1.92,3.359c0,0.694,0.133,1.348,0.4,1.96c0.266,0.614,0.64,1.141,1.119,1.58c0.48,0.44,1.047,0.787,1.7,1.04
			C243.392,262.864,244.092,262.99,244.839,262.99z"/>
		<path fill="#FFFFFF" d="M269.438,264.591c-1.44,0-2.774-0.3-4-0.9c-1.228-0.6-2.287-1.399-3.181-2.399s-1.587-2.146-2.08-3.44
			c-0.493-1.293-0.739-2.633-0.739-4.02c0-1.44,0.239-2.813,0.72-4.12c0.479-1.307,1.146-2.453,2-3.44
			c0.853-0.986,1.859-1.773,3.02-2.359c1.16-0.587,2.434-0.881,3.82-0.881c0.906,0,1.767,0.134,2.58,0.4s1.56,0.62,2.24,1.06
			c0.68,0.44,1.3,0.954,1.859,1.54c0.561,0.587,1.04,1.214,1.44,1.881V234.99h2v26.4c0,0.667,0.28,1,0.84,1v1.8
			c-0.134,0.026-0.254,0.04-0.36,0.04s-0.213,0-0.319,0c-0.587,0-1.061-0.187-1.42-0.56c-0.36-0.373-0.54-0.786-0.54-1.24v-2.4
			c-0.854,1.388-1.994,2.494-3.42,3.32C272.471,264.178,270.984,264.591,269.438,264.591z M269.798,262.791
			c0.72,0,1.493-0.146,2.32-0.44c0.826-0.293,1.6-0.7,2.32-1.22c0.72-0.521,1.326-1.113,1.819-1.78
			c0.493-0.666,0.78-1.386,0.86-2.16v-6.84c-0.294-0.746-0.714-1.46-1.26-2.14c-0.547-0.681-1.167-1.267-1.86-1.761
			c-0.693-0.492-1.44-0.886-2.24-1.18c-0.8-0.293-1.573-0.439-2.319-0.439c-1.2,0-2.287,0.26-3.261,0.779
			c-0.974,0.521-1.813,1.2-2.52,2.04c-0.707,0.84-1.247,1.8-1.62,2.88c-0.374,1.08-0.56,2.194-0.56,3.341
			c0,1.199,0.213,2.333,0.64,3.399c0.426,1.067,1.02,2.014,1.78,2.84c0.76,0.827,1.64,1.48,2.64,1.96
			C267.538,262.551,268.624,262.791,269.798,262.791z"/>
		<path fill="#FFFFFF" d="M286.878,271.271c0.24,0,0.594-0.014,1.061-0.04c0.466-0.026,0.819-0.106,1.06-0.24
			c0.106-0.054,0.233-0.18,0.38-0.38c0.146-0.199,0.34-0.54,0.58-1.02c0.24-0.48,0.547-1.154,0.92-2.021s0.84-1.993,1.4-3.38
			l-9.28-20.8h2.12l8.24,18.84l7.72-18.84h1.96l-11.4,27.36c-0.399,0.96-0.927,1.593-1.579,1.899
			c-0.654,0.307-1.447,0.46-2.381,0.46c-0.134,0-0.267,0-0.399,0c-0.134,0-0.267-0.014-0.4-0.04V271.271z"/>
		<path fill="#FFFFFF" d="M325.838,263.19c-0.107,0.054-0.287,0.154-0.54,0.3c-0.254,0.147-0.574,0.287-0.96,0.421
			c-0.387,0.133-0.82,0.253-1.3,0.359c-0.48,0.106-1,0.16-1.561,0.16c-0.56,0-1.087-0.08-1.58-0.24s-0.927-0.399-1.3-0.72
			c-0.374-0.32-0.674-0.706-0.9-1.16c-0.227-0.453-0.34-0.986-0.34-1.6V245.03h-2.92v-1.64h2.92v-7.12h2v7.12h4.88v1.64h-4.88v15.2
			c0,0.774,0.267,1.354,0.8,1.74s1.146,0.58,1.841,0.58c0.826,0,1.54-0.14,2.14-0.42s0.966-0.46,1.1-0.54L325.838,263.19z"/>
		<path fill="#FFFFFF" d="M337.478,264.591c-1.467,0-2.82-0.287-4.061-0.86c-1.239-0.573-2.313-1.353-3.22-2.34
			c-0.906-0.986-1.613-2.133-2.12-3.44c-0.507-1.306-0.76-2.68-0.76-4.119c0-1.467,0.26-2.854,0.78-4.16
			c0.52-1.307,1.24-2.453,2.16-3.44c0.92-0.986,1.993-1.766,3.22-2.34c1.227-0.573,2.56-0.86,4-0.86c1.439,0,2.78,0.287,4.02,0.86
			c1.24,0.574,2.32,1.354,3.24,2.34c0.92,0.987,1.641,2.134,2.16,3.44s0.78,2.693,0.78,4.16c0,1.439-0.261,2.813-0.78,4.119
			c-0.52,1.308-1.233,2.454-2.14,3.44c-0.907,0.987-1.987,1.767-3.24,2.34C340.264,264.304,338.917,264.591,337.478,264.591z
			 M329.357,253.911c0,1.227,0.213,2.38,0.64,3.46c0.427,1.079,1.007,2.02,1.74,2.819s1.594,1.434,2.58,1.9s2.04,0.7,3.16,0.7
			s2.173-0.233,3.16-0.7c0.986-0.467,1.846-1.113,2.58-1.94c0.732-0.826,1.319-1.779,1.76-2.859c0.439-1.08,0.66-2.247,0.66-3.5
			c0-1.227-0.221-2.38-0.66-3.46c-0.44-1.08-1.027-2.026-1.76-2.841c-0.734-0.812-1.594-1.46-2.58-1.939
			c-0.987-0.48-2.04-0.72-3.16-0.72c-1.094,0-2.134,0.239-3.12,0.72c-0.987,0.479-1.854,1.134-2.6,1.96
			c-0.747,0.827-1.334,1.794-1.761,2.9S329.357,252.685,329.357,253.911z"/>
		<path fill="#FFFFFF" d="M371.317,264.511c-1.44,0-2.761-0.3-3.96-0.9c-1.2-0.6-2.24-1.399-3.12-2.399s-1.561-2.141-2.04-3.42
			c-0.48-1.28-0.72-2.601-0.72-3.96c0-1.413,0.232-2.773,0.699-4.08s1.127-2.46,1.98-3.46c0.853-1,1.873-1.794,3.06-2.38
			c1.187-0.587,2.486-0.881,3.9-0.881c1.813,0,3.393,0.475,4.74,1.42c1.346,0.947,2.5,2.101,3.46,3.461v-4.521h1.8v21.2
			c0,1.413-0.267,2.653-0.8,3.72c-0.534,1.066-1.247,1.953-2.141,2.66c-0.894,0.706-1.934,1.24-3.12,1.6
			c-1.187,0.36-2.434,0.54-3.739,0.54c-1.2,0-2.28-0.113-3.24-0.34s-1.807-0.547-2.54-0.96c-0.733-0.414-1.387-0.92-1.96-1.52
			c-0.574-0.601-1.074-1.261-1.5-1.98l1.36-0.92c0.826,1.413,1.946,2.446,3.359,3.1s2.92,0.98,4.521,0.98
			c1.066,0,2.073-0.146,3.02-0.44c0.946-0.293,1.773-0.727,2.48-1.3c0.706-0.573,1.266-1.287,1.68-2.14
			c0.413-0.854,0.62-1.854,0.62-3v-4.561c-0.854,1.334-1.987,2.414-3.4,3.24C374.304,264.098,372.837,264.511,371.317,264.511z
			 M371.797,262.791c0.88,0,1.733-0.167,2.561-0.5c0.826-0.333,1.58-0.767,2.26-1.301c0.68-0.532,1.246-1.133,1.7-1.8
			c0.453-0.666,0.72-1.333,0.8-2v-6.84c-0.32-0.8-0.747-1.54-1.28-2.22c-0.533-0.681-1.14-1.26-1.82-1.74
			c-0.68-0.479-1.413-0.86-2.199-1.14c-0.787-0.28-1.58-0.42-2.38-0.42c-1.254,0-2.374,0.267-3.36,0.8
			c-0.987,0.533-1.82,1.227-2.5,2.08s-1.2,1.819-1.561,2.899c-0.359,1.08-0.539,2.167-0.539,3.261c0,1.199,0.213,2.333,0.64,3.399
			c0.426,1.067,1.02,2.014,1.78,2.84c0.76,0.827,1.64,1.48,2.64,1.96C369.537,262.551,370.623,262.791,371.797,262.791z"/>
		<path fill="#FFFFFF" d="M396.036,264.591c-1.467,0-2.819-0.287-4.06-0.86s-2.313-1.353-3.22-2.34
			c-0.907-0.986-1.614-2.133-2.12-3.44c-0.507-1.306-0.76-2.68-0.76-4.119c0-1.467,0.26-2.854,0.779-4.16
			c0.521-1.307,1.24-2.453,2.16-3.44c0.92-0.986,1.993-1.766,3.22-2.34c1.227-0.573,2.561-0.86,4-0.86c1.44,0,2.78,0.287,4.021,0.86
			c1.24,0.574,2.32,1.354,3.24,2.34c0.92,0.987,1.64,2.134,2.159,3.44c0.521,1.307,0.78,2.693,0.78,4.16
			c0,1.439-0.26,2.813-0.78,4.119c-0.52,1.308-1.233,2.454-2.14,3.44c-0.907,0.987-1.986,1.767-3.24,2.34
			C398.823,264.304,397.477,264.591,396.036,264.591z M387.917,253.911c0,1.227,0.213,2.38,0.64,3.46
			c0.426,1.079,1.006,2.02,1.74,2.819c0.732,0.8,1.593,1.434,2.58,1.9c0.985,0.467,2.04,0.7,3.159,0.7c1.12,0,2.174-0.233,3.16-0.7
			s1.847-1.113,2.58-1.94c0.733-0.826,1.32-1.779,1.76-2.859c0.44-1.08,0.66-2.247,0.66-3.5c0-1.227-0.22-2.38-0.66-3.46
			c-0.439-1.08-1.026-2.026-1.76-2.841c-0.733-0.812-1.594-1.46-2.58-1.939c-0.986-0.48-2.04-0.72-3.16-0.72
			c-1.094,0-2.134,0.239-3.119,0.72c-0.987,0.479-1.854,1.134-2.601,1.96c-0.747,0.827-1.334,1.794-1.76,2.9
			C388.13,251.518,387.917,252.685,387.917,253.911z"/>
	</g>
</g>
</svg>
