<?xml version="1.0" encoding="utf-8"?>
<!-- Generator: Adobe Illustrator 17.0.0, SVG Export Plug-In . SVG Version: 6.00 Build 0)  -->
<!DOCTYPE svg PUBLIC "-//W3C//DTD SVG 1.1//EN" "http://www.w3.org/Graphics/SVG/1.1/DTD/svg11.dtd">
<svg version="1.1" id="Layer_1" xmlns="http://www.w3.org/2000/svg" xmlns:xlink="http://www.w3.org/1999/xlink" x="0px" y="0px"
	 width="600px" height="374px" viewBox="0 0 600 374" enable-background="new 0 0 600 374" xml:space="preserve">
<path fill="#63328A" d="M556.5,174.496c0,4.697-3.807,8.504-8.504,8.504H52.004c-4.697,0-8.504-3.807-8.504-8.504V72.504
	c0-4.697,3.807-8.504,8.504-8.504h495.992c4.697,0,8.504,3.807,8.504,8.504V174.496z"/>
<path fill="#9A9999" d="M556.572,301.496c0,4.697-3.807,8.504-8.504,8.504H52.076c-4.697,0-8.504-3.807-8.504-8.504V199.504
	c0-4.697,3.807-8.504,8.504-8.504h495.992c4.697,0,8.504,3.807,8.504,8.504V301.496z"/>
<g>
	<g>
		<path fill="#FFFFFF" d="M177.229,140.584v13.104h-39.312v-13.104h12.922v-23.205c-0.546,0.728-1.411,1.472-2.594,2.229
			c-1.183,0.759-2.473,1.456-3.867,2.093c-1.396,0.637-2.837,1.153-4.323,1.547c-1.486,0.395-2.807,0.591-3.958,0.591v-13.468
			c0.97,0,2.229-0.333,3.776-1.001c1.547-0.667,3.078-1.47,4.596-2.412c1.516-0.94,2.881-1.896,4.095-2.867
			c1.213-0.97,1.971-1.759,2.275-2.366h14.833v38.857H177.229z"/>
		<path fill="#FFFFFF" d="M205.984,124.386c3.095,0,5.945,0.516,8.555,1.547c2.607,1.032,4.868,2.457,6.779,4.277
			s3.396,4.004,4.459,6.552c1.061,2.548,1.593,5.369,1.593,8.463c0,3.276-0.607,6.265-1.82,8.963
			c-1.214,2.699-2.897,5.019-5.051,6.961c-2.154,1.941-4.731,3.442-7.734,4.504c-3.003,1.061-6.265,1.593-9.783,1.593
			c-4.731,0-8.979-0.941-12.739-2.821c-3.763-1.881-6.644-4.52-8.646-7.917l8.19-9.009c1.759,2.125,3.806,3.822,6.143,5.096
			c2.334,1.274,4.716,1.911,7.144,1.911c2.789,0,5.05-0.819,6.779-2.457c1.729-1.638,2.594-3.822,2.594-6.552
			c0-2.608-0.806-4.701-2.412-6.279c-1.608-1.577-3.655-2.366-6.143-2.366c-1.638,0-3.171,0.364-4.596,1.092
			c-1.426,0.728-2.533,1.76-3.321,3.094h-12.648c0-0.06,0.12-0.683,0.363-1.866c0.242-1.183,0.53-2.714,0.865-4.595
			c0.332-1.88,0.728-3.988,1.183-6.325c0.455-2.334,0.924-4.716,1.41-7.144c1.093-5.702,2.335-12.163,3.731-19.383h32.123v13.286
			h-21.567l-1.911,11.011c0.424-0.424,1.168-0.803,2.229-1.137C202.814,124.554,204.225,124.386,205.984,124.386z"/>
		<path fill="#FFFFFF" d="M232.102,155.417c0.182,0,0.469-0.031,0.864-0.091c0.395-0.062,0.773-0.213,1.138-0.455
			c0.364-0.243,0.683-0.562,0.955-0.956c0.273-0.394,0.439-0.956,0.501-1.684v-13.377h11.83v16.107c0,2.123-0.501,3.868-1.502,5.232
			c-1.001,1.365-2.245,2.457-3.73,3.276c-1.487,0.819-3.125,1.395-4.914,1.729c-1.79,0.333-3.504,0.5-5.142,0.5V155.417z"/>
		<path fill="#FFFFFF" d="M304.446,127.025c0,4.004-0.607,7.689-1.82,11.057c-1.214,3.367-2.882,6.279-5.005,8.736
			c-2.124,2.457-4.641,4.368-7.553,5.733c-2.912,1.365-6.067,2.048-9.464,2.048c-3.398,0-6.538-0.683-9.419-2.048
			c-2.882-1.365-5.385-3.276-7.507-5.733c-2.125-2.457-3.793-5.369-5.006-8.736c-1.214-3.367-1.819-7.053-1.819-11.057
			s0.605-7.689,1.819-11.057c1.213-3.367,2.881-6.279,5.006-8.736c2.122-2.457,4.625-4.382,7.507-5.778
			c2.881-1.395,6.021-2.093,9.419-2.093c3.396,0,6.552,0.698,9.464,2.093c2.912,1.396,5.429,3.321,7.553,5.778
			c2.123,2.457,3.791,5.369,5.005,8.736C303.839,119.335,304.446,123.021,304.446,127.025z M289.704,127.025
			c0-4.246-0.851-7.689-2.548-10.329c-1.699-2.639-3.883-3.958-6.552-3.958c-2.73,0-4.945,1.32-6.644,3.958
			c-1.699,2.639-2.548,6.083-2.548,10.329c0,4.247,0.849,7.675,2.548,10.283c1.698,2.609,3.913,3.913,6.644,3.913
			c2.669,0,4.853-1.304,6.552-3.913C288.854,134.7,289.704,131.272,289.704,127.025z"/>
		<path fill="#FFFFFF" d="M360.319,127.025c0,4.004-0.606,7.689-1.819,11.057c-1.215,3.367-2.883,6.279-5.005,8.736
			c-2.125,2.457-4.642,4.368-7.554,5.733c-2.912,1.365-6.066,2.048-9.464,2.048c-3.398,0-6.537-0.683-9.418-2.048
			c-2.883-1.365-5.385-3.276-7.508-5.733c-2.124-2.457-3.792-5.369-5.005-8.736c-1.215-3.367-1.82-7.053-1.82-11.057
			s0.605-7.689,1.82-11.057c1.213-3.367,2.881-6.279,5.005-8.736c2.123-2.457,4.625-4.382,7.508-5.778
			c2.881-1.395,6.02-2.093,9.418-2.093c3.397,0,6.552,0.698,9.464,2.093c2.912,1.396,5.429,3.321,7.554,5.778
			c2.122,2.457,3.79,5.369,5.005,8.736C359.713,119.335,360.319,123.021,360.319,127.025z M345.578,127.025
			c0-4.246-0.851-7.689-2.549-10.329c-1.698-2.639-3.883-3.958-6.552-3.958c-2.729,0-4.945,1.32-6.643,3.958
			c-1.699,2.639-2.548,6.083-2.548,10.329c0,4.247,0.849,7.675,2.548,10.283c1.697,2.609,3.913,3.913,6.643,3.913
			c2.669,0,4.854-1.304,6.552-3.913C344.728,134.7,345.578,131.272,345.578,127.025z"/>
		<path fill="#FFFFFF" d="M416.193,127.025c0,4.004-0.606,7.689-1.819,11.057c-1.215,3.367-2.883,6.279-5.005,8.736
			c-2.125,2.457-4.642,4.368-7.554,5.733c-2.912,1.365-6.066,2.048-9.464,2.048c-3.398,0-6.537-0.683-9.418-2.048
			c-2.883-1.365-5.385-3.276-7.508-5.733c-2.124-2.457-3.792-5.369-5.005-8.736c-1.215-3.367-1.82-7.053-1.82-11.057
			s0.605-7.689,1.82-11.057c1.213-3.367,2.881-6.279,5.005-8.736c2.123-2.457,4.625-4.382,7.508-5.778
			c2.881-1.395,6.02-2.093,9.418-2.093c3.397,0,6.552,0.698,9.464,2.093c2.912,1.396,5.429,3.321,7.554,5.778
			c2.122,2.457,3.79,5.369,5.005,8.736C415.587,119.335,416.193,123.021,416.193,127.025z M401.452,127.025
			c0-4.246-0.851-7.689-2.549-10.329c-1.698-2.639-3.883-3.958-6.552-3.958c-2.729,0-4.945,1.32-6.643,3.958
			c-1.699,2.639-2.548,6.083-2.548,10.329c0,4.247,0.849,7.675,2.548,10.283c1.697,2.609,3.913,3.913,6.643,3.913
			c2.669,0,4.854-1.304,6.552-3.913C400.602,134.7,401.452,131.272,401.452,127.025z"/>
		<path fill="#FFFFFF" d="M454.777,115.559v11.648h-8.554v9.464H433.12v-9.464h-8.646v-11.648h8.646v-9.464h13.104v9.464H454.777z"
			/>
	</g>
</g>
<g>
	<g>
		<path fill="#FFFFFF" d="M162.319,223.933c-1.894,0.054-3.533,0.606-4.92,1.66s-2.359,2.5-2.92,4.34v13h-2v-20.8h1.88v5.119
			c0.721-1.466,1.674-2.659,2.86-3.579c1.187-0.921,2.46-1.446,3.82-1.58c0.266,0,0.506-0.007,0.72-0.021
			c0.213-0.013,0.399-0.02,0.56-0.02V223.933z"/>
		<path fill="#FFFFFF" d="M174.999,243.332c-1.467,0-2.826-0.286-4.08-0.859c-1.253-0.573-2.34-1.36-3.26-2.36
			s-1.64-2.153-2.16-3.46c-0.52-1.307-0.779-2.706-0.779-4.2c0-1.466,0.26-2.846,0.779-4.14c0.521-1.293,1.233-2.427,2.141-3.4
			c0.906-0.973,1.986-1.739,3.239-2.3c1.254-0.56,2.601-0.84,4.04-0.84c1.467,0,2.82,0.287,4.061,0.86s2.312,1.347,3.22,2.319
			c0.906,0.974,1.62,2.107,2.14,3.4c0.521,1.294,0.78,2.66,0.78,4.1c0,0.134-0.007,0.3-0.02,0.5c-0.014,0.2-0.021,0.327-0.021,0.38
			h-18.28c0.08,1.2,0.36,2.314,0.841,3.341c0.479,1.026,1.086,1.913,1.819,2.659c0.733,0.747,1.58,1.334,2.54,1.761
			s1.986,0.64,3.08,0.64c0.72,0,1.434-0.1,2.141-0.3c0.706-0.2,1.359-0.474,1.96-0.82c0.6-0.346,1.133-0.767,1.6-1.26
			c0.466-0.493,0.833-1.033,1.1-1.62l1.761,0.479c-0.32,0.747-0.768,1.435-1.341,2.061c-0.573,0.627-1.239,1.167-2,1.62
			c-0.76,0.453-1.594,0.807-2.5,1.06S175.959,243.332,174.999,243.332z M183.159,231.732c-0.08-1.227-0.354-2.347-0.82-3.36
			c-0.467-1.013-1.066-1.886-1.8-2.62c-0.733-0.732-1.58-1.306-2.54-1.72c-0.96-0.413-1.986-0.62-3.08-0.62s-2.12,0.207-3.08,0.62
			c-0.96,0.414-1.807,0.987-2.54,1.72c-0.733,0.734-1.319,1.614-1.76,2.641c-0.439,1.026-0.7,2.14-0.779,3.34H183.159z"/>
		<path fill="#FFFFFF" d="M197.959,243.252c-1.439,0-2.76-0.3-3.96-0.899c-1.2-0.601-2.24-1.4-3.12-2.4s-1.56-2.14-2.04-3.42
			c-0.479-1.28-0.72-2.6-0.72-3.96c0-1.413,0.233-2.773,0.7-4.08c0.466-1.306,1.126-2.46,1.979-3.46s1.873-1.793,3.061-2.38
			c1.187-0.586,2.486-0.88,3.899-0.88c1.813,0,3.394,0.474,4.74,1.42c1.347,0.947,2.5,2.1,3.46,3.46v-4.52h1.8v21.199
			c0,1.413-0.267,2.653-0.8,3.721c-0.533,1.065-1.247,1.953-2.14,2.659c-0.894,0.707-1.934,1.24-3.12,1.601s-2.434,0.54-3.74,0.54
			c-1.2,0-2.28-0.114-3.24-0.34c-0.96-0.228-1.807-0.547-2.54-0.96c-0.733-0.414-1.387-0.92-1.96-1.521
			c-0.573-0.6-1.073-1.26-1.5-1.979l1.36-0.92c0.826,1.413,1.946,2.446,3.36,3.1c1.413,0.653,2.92,0.979,4.52,0.979
			c1.066,0,2.073-0.146,3.021-0.439c0.946-0.294,1.772-0.727,2.479-1.3c0.706-0.574,1.267-1.287,1.681-2.141
			c0.413-0.854,0.619-1.854,0.619-3v-4.56c-0.854,1.334-1.986,2.414-3.399,3.24C200.945,242.839,199.479,243.252,197.959,243.252z
			 M198.439,241.532c0.88,0,1.732-0.166,2.56-0.5c0.826-0.333,1.58-0.766,2.26-1.3c0.681-0.533,1.247-1.133,1.7-1.8
			c0.453-0.666,0.72-1.333,0.8-2v-6.84c-0.319-0.801-0.746-1.54-1.279-2.221c-0.534-0.68-1.141-1.26-1.82-1.739
			c-0.68-0.48-1.414-0.86-2.2-1.141c-0.787-0.28-1.58-0.42-2.38-0.42c-1.254,0-2.374,0.267-3.36,0.8
			c-0.986,0.534-1.819,1.228-2.5,2.08c-0.68,0.854-1.199,1.82-1.56,2.9s-0.54,2.167-0.54,3.26c0,1.2,0.213,2.334,0.64,3.4
			s1.021,2.014,1.78,2.84c0.76,0.827,1.64,1.479,2.64,1.96C196.179,241.292,197.266,241.532,198.439,241.532z"/>
		<path fill="#FFFFFF" d="M213.919,217.412v-3.68h2v3.68H213.919z M213.919,242.933v-20.8h2v20.8H213.919z"/>
		<path fill="#FFFFFF" d="M228.719,243.332c-1.6,0-3.134-0.267-4.6-0.8c-1.467-0.533-2.747-1.333-3.841-2.399l1-1.36
			c1.12,1.014,2.28,1.76,3.48,2.24c1.2,0.479,2.52,0.72,3.96,0.72c1.813,0,3.273-0.38,4.38-1.14c1.106-0.761,1.66-1.82,1.66-3.181
			c0-0.64-0.14-1.18-0.42-1.62c-0.28-0.439-0.7-0.812-1.26-1.119c-0.561-0.307-1.254-0.58-2.08-0.82
			c-0.827-0.24-1.787-0.493-2.88-0.76c-1.174-0.267-2.194-0.533-3.061-0.801c-0.866-0.266-1.58-0.586-2.14-0.96
			c-0.561-0.373-0.98-0.826-1.26-1.359c-0.28-0.533-0.42-1.214-0.42-2.04c0-1.04,0.199-1.946,0.6-2.721
			c0.4-0.772,0.953-1.413,1.66-1.92c0.706-0.506,1.52-0.886,2.439-1.14c0.92-0.253,1.9-0.38,2.94-0.38
			c1.626,0,3.066,0.273,4.32,0.82c1.253,0.547,2.226,1.246,2.92,2.1l-1.12,1.08c-0.694-0.8-1.594-1.4-2.7-1.8
			c-1.106-0.4-2.287-0.601-3.54-0.601c-0.773,0-1.5,0.08-2.18,0.24c-0.681,0.16-1.274,0.414-1.78,0.76
			c-0.507,0.348-0.907,0.794-1.2,1.34c-0.294,0.547-0.439,1.194-0.439,1.94c0,0.614,0.1,1.106,0.3,1.48
			c0.2,0.373,0.52,0.693,0.96,0.96c0.439,0.267,1.006,0.5,1.7,0.699c0.692,0.2,1.52,0.42,2.479,0.66
			c1.307,0.32,2.467,0.627,3.48,0.92c1.013,0.294,1.859,0.654,2.54,1.08c0.68,0.427,1.199,0.934,1.56,1.521s0.54,1.333,0.54,2.239
			c0,1.867-0.727,3.354-2.18,4.461C233.085,242.779,231.146,243.332,228.719,243.332z"/>
		<path fill="#FFFFFF" d="M250.639,241.933c-0.107,0.054-0.287,0.153-0.54,0.3c-0.254,0.146-0.574,0.287-0.96,0.42
			c-0.387,0.134-0.82,0.254-1.3,0.36c-0.48,0.105-1,0.16-1.561,0.16c-0.56,0-1.087-0.08-1.58-0.24s-0.927-0.4-1.3-0.721
			c-0.374-0.319-0.674-0.706-0.9-1.159s-0.34-0.986-0.34-1.601v-15.68h-2.92v-1.64h2.92v-7.12h2v7.12h4.88v1.64h-4.88v15.2
			c0,0.773,0.267,1.354,0.8,1.739c0.533,0.388,1.146,0.58,1.841,0.58c0.826,0,1.54-0.14,2.14-0.42c0.6-0.279,0.966-0.46,1.1-0.54
			L250.639,241.933z"/>
		<path fill="#FFFFFF" d="M262.878,243.332c-1.467,0-2.826-0.286-4.08-0.859c-1.253-0.573-2.34-1.36-3.26-2.36
			s-1.64-2.153-2.16-3.46c-0.52-1.307-0.779-2.706-0.779-4.2c0-1.466,0.26-2.846,0.779-4.14c0.521-1.293,1.233-2.427,2.141-3.4
			c0.906-0.973,1.986-1.739,3.239-2.3c1.254-0.56,2.601-0.84,4.04-0.84c1.467,0,2.82,0.287,4.061,0.86s2.312,1.347,3.22,2.319
			c0.906,0.974,1.62,2.107,2.14,3.4c0.521,1.294,0.78,2.66,0.78,4.1c0,0.134-0.007,0.3-0.02,0.5c-0.014,0.2-0.021,0.327-0.021,0.38
			h-18.28c0.08,1.2,0.36,2.314,0.841,3.341c0.479,1.026,1.086,1.913,1.819,2.659c0.733,0.747,1.58,1.334,2.54,1.761
			s1.986,0.64,3.08,0.64c0.72,0,1.434-0.1,2.141-0.3c0.706-0.2,1.359-0.474,1.96-0.82c0.6-0.346,1.133-0.767,1.6-1.26
			c0.466-0.493,0.833-1.033,1.1-1.62l1.761,0.479c-0.32,0.747-0.768,1.435-1.341,2.061c-0.573,0.627-1.239,1.167-2,1.62
			c-0.76,0.453-1.594,0.807-2.5,1.06S263.838,243.332,262.878,243.332z M271.038,231.732c-0.08-1.227-0.354-2.347-0.82-3.36
			c-0.467-1.013-1.066-1.886-1.8-2.62c-0.733-0.732-1.58-1.306-2.54-1.72c-0.96-0.413-1.986-0.62-3.08-0.62s-2.12,0.207-3.08,0.62
			c-0.96,0.414-1.807,0.987-2.54,1.72c-0.733,0.734-1.319,1.614-1.76,2.641c-0.439,1.026-0.7,2.14-0.779,3.34H271.038z"/>
		<path fill="#FFFFFF" d="M287.198,223.933c-1.894,0.054-3.534,0.606-4.92,1.66c-1.387,1.054-2.36,2.5-2.92,4.34v13h-2v-20.8h1.88
			v5.119c0.72-1.466,1.673-2.659,2.859-3.579c1.187-0.921,2.46-1.446,3.82-1.58c0.267,0,0.507-0.007,0.72-0.021
			c0.214-0.013,0.4-0.02,0.561-0.02V223.933z"/>
		<path fill="#FFFFFF" d="M299.878,243.332c-1.467,0-2.827-0.286-4.08-0.859c-1.254-0.573-2.34-1.36-3.26-2.36
			s-1.641-2.153-2.16-3.46c-0.521-1.307-0.78-2.706-0.78-4.2c0-1.466,0.26-2.846,0.78-4.14c0.52-1.293,1.233-2.427,2.14-3.4
			c0.906-0.973,1.986-1.739,3.24-2.3c1.253-0.56,2.6-0.84,4.04-0.84c1.466,0,2.82,0.287,4.06,0.86
			c1.24,0.573,2.313,1.347,3.221,2.319c0.906,0.974,1.619,2.107,2.14,3.4c0.52,1.294,0.78,2.66,0.78,4.1
			c0,0.134-0.007,0.3-0.021,0.5s-0.02,0.327-0.02,0.38h-18.28c0.08,1.2,0.36,2.314,0.84,3.341c0.48,1.026,1.086,1.913,1.82,2.659
			c0.733,0.747,1.58,1.334,2.54,1.761s1.986,0.64,3.08,0.64c0.72,0,1.433-0.1,2.14-0.3c0.706-0.2,1.36-0.474,1.96-0.82
			c0.601-0.346,1.133-0.767,1.601-1.26c0.466-0.493,0.833-1.033,1.1-1.62l1.76,0.479c-0.32,0.747-0.767,1.435-1.34,2.061
			c-0.574,0.627-1.24,1.167-2,1.62s-1.594,0.807-2.5,1.06C301.771,243.205,300.838,243.332,299.878,243.332z M308.038,231.732
			c-0.08-1.227-0.354-2.347-0.82-3.36c-0.467-1.013-1.067-1.886-1.8-2.62c-0.734-0.732-1.58-1.306-2.54-1.72
			c-0.96-0.413-1.987-0.62-3.08-0.62c-1.094,0-2.12,0.207-3.08,0.62c-0.96,0.414-1.807,0.987-2.54,1.72
			c-0.733,0.734-1.32,1.614-1.76,2.641c-0.44,1.026-0.7,2.14-0.78,3.34H308.038z"/>
		<path fill="#FFFFFF" d="M322.958,243.332c-1.44,0-2.774-0.3-4-0.899c-1.228-0.601-2.287-1.4-3.181-2.4s-1.587-2.146-2.08-3.439
			c-0.493-1.294-0.739-2.634-0.739-4.021c0-1.439,0.239-2.813,0.72-4.12c0.479-1.306,1.146-2.453,2-3.439
			c0.853-0.986,1.859-1.773,3.02-2.36c1.16-0.586,2.434-0.88,3.82-0.88c0.906,0,1.767,0.134,2.58,0.4s1.56,0.619,2.24,1.06
			c0.68,0.44,1.3,0.954,1.859,1.54c0.561,0.587,1.04,1.214,1.44,1.88v-12.92h2v26.4c0,0.666,0.28,1,0.84,1v1.8
			c-0.134,0.026-0.254,0.04-0.36,0.04s-0.213,0-0.319,0c-0.587,0-1.061-0.187-1.42-0.561c-0.36-0.373-0.54-0.786-0.54-1.239v-2.4
			c-0.854,1.387-1.994,2.494-3.42,3.32C325.99,242.919,324.504,243.332,322.958,243.332z M323.317,241.532
			c0.72,0,1.493-0.146,2.32-0.439c0.826-0.294,1.6-0.7,2.32-1.221c0.72-0.52,1.326-1.113,1.819-1.779
			c0.493-0.667,0.78-1.387,0.86-2.16v-6.84c-0.294-0.747-0.714-1.46-1.26-2.141c-0.547-0.68-1.167-1.266-1.86-1.76
			c-0.693-0.493-1.44-0.887-2.24-1.18s-1.573-0.44-2.319-0.44c-1.2,0-2.287,0.26-3.261,0.78c-0.974,0.52-1.813,1.2-2.52,2.04
			c-0.707,0.84-1.247,1.8-1.62,2.88c-0.374,1.08-0.56,2.193-0.56,3.34c0,1.2,0.213,2.334,0.64,3.4c0.426,1.066,1.02,2.014,1.78,2.84
			c0.76,0.827,1.64,1.479,2.64,1.96C321.058,241.292,322.144,241.532,323.317,241.532z"/>
		<path fill="#FFFFFF" d="M355.877,243.332c-4.453,0-6.68-3.065-6.68-9.199v-12h2v11.72c0,5.12,1.746,7.68,5.24,7.68
			c0.88,0,1.739-0.153,2.58-0.46c0.84-0.306,1.619-0.733,2.34-1.28c0.72-0.546,1.353-1.206,1.899-1.979s0.98-1.626,1.301-2.561
			v-13.119h2v18c0,0.666,0.279,1,0.84,1v1.8c-0.16,0.026-0.294,0.04-0.4,0.04s-0.214,0-0.32,0c-0.56,0-1.02-0.167-1.38-0.5
			c-0.359-0.333-0.54-0.767-0.54-1.3v-3.16c-0.934,1.68-2.187,2.986-3.76,3.92S357.717,243.332,355.877,243.332z"/>
		<path fill="#FFFFFF" d="M379.557,243.332c-1.6,0-3.134-0.267-4.6-0.8c-1.467-0.533-2.747-1.333-3.841-2.399l1-1.36
			c1.12,1.014,2.28,1.76,3.48,2.24c1.2,0.479,2.52,0.72,3.96,0.72c1.813,0,3.273-0.38,4.38-1.14c1.106-0.761,1.66-1.82,1.66-3.181
			c0-0.64-0.14-1.18-0.42-1.62c-0.28-0.439-0.7-0.812-1.26-1.119c-0.561-0.307-1.254-0.58-2.08-0.82
			c-0.827-0.24-1.787-0.493-2.88-0.76c-1.174-0.267-2.194-0.533-3.061-0.801c-0.866-0.266-1.58-0.586-2.14-0.96
			c-0.561-0.373-0.98-0.826-1.26-1.359c-0.28-0.533-0.42-1.214-0.42-2.04c0-1.04,0.199-1.946,0.6-2.721
			c0.4-0.772,0.953-1.413,1.66-1.92c0.706-0.506,1.52-0.886,2.439-1.14c0.92-0.253,1.9-0.38,2.94-0.38
			c1.626,0,3.066,0.273,4.32,0.82c1.253,0.547,2.226,1.246,2.92,2.1l-1.12,1.08c-0.694-0.8-1.594-1.4-2.7-1.8
			c-1.106-0.4-2.287-0.601-3.54-0.601c-0.773,0-1.5,0.08-2.18,0.24c-0.681,0.16-1.274,0.414-1.78,0.76
			c-0.507,0.348-0.907,0.794-1.2,1.34c-0.294,0.547-0.439,1.194-0.439,1.94c0,0.614,0.1,1.106,0.3,1.48
			c0.2,0.373,0.52,0.693,0.96,0.96c0.439,0.267,1.006,0.5,1.7,0.699c0.692,0.2,1.52,0.42,2.479,0.66
			c1.307,0.32,2.467,0.627,3.48,0.92c1.013,0.294,1.859,0.654,2.54,1.08c0.68,0.427,1.199,0.934,1.56,1.521s0.54,1.333,0.54,2.239
			c0,1.867-0.727,3.354-2.18,4.461C383.923,242.779,381.983,243.332,379.557,243.332z"/>
		<path fill="#FFFFFF" d="M401.036,243.332c-1.467,0-2.826-0.286-4.08-0.859c-1.253-0.573-2.34-1.36-3.26-2.36
			s-1.64-2.153-2.16-3.46c-0.52-1.307-0.779-2.706-0.779-4.2c0-1.466,0.26-2.846,0.779-4.14c0.521-1.293,1.233-2.427,2.141-3.4
			c0.906-0.973,1.986-1.739,3.239-2.3c1.254-0.56,2.601-0.84,4.04-0.84c1.467,0,2.82,0.287,4.061,0.86s2.312,1.347,3.22,2.319
			c0.906,0.974,1.62,2.107,2.14,3.4c0.521,1.294,0.78,2.66,0.78,4.1c0,0.134-0.007,0.3-0.02,0.5c-0.014,0.2-0.021,0.327-0.021,0.38
			h-18.28c0.08,1.2,0.36,2.314,0.841,3.341c0.479,1.026,1.086,1.913,1.819,2.659c0.733,0.747,1.58,1.334,2.54,1.761
			s1.986,0.64,3.08,0.64c0.72,0,1.434-0.1,2.141-0.3c0.706-0.2,1.359-0.474,1.96-0.82c0.6-0.346,1.133-0.767,1.6-1.26
			c0.466-0.493,0.833-1.033,1.1-1.62l1.761,0.479c-0.32,0.747-0.768,1.435-1.341,2.061c-0.573,0.627-1.239,1.167-2,1.62
			c-0.76,0.453-1.594,0.807-2.5,1.06S401.996,243.332,401.036,243.332z M409.196,231.732c-0.08-1.227-0.354-2.347-0.82-3.36
			c-0.467-1.013-1.066-1.886-1.8-2.62c-0.733-0.732-1.58-1.306-2.54-1.72c-0.96-0.413-1.986-0.62-3.08-0.62s-2.12,0.207-3.08,0.62
			c-0.96,0.414-1.807,0.987-2.54,1.72c-0.733,0.734-1.319,1.614-1.76,2.641c-0.439,1.026-0.7,2.14-0.779,3.34H409.196z"/>
		<path fill="#FFFFFF" d="M425.356,223.933c-1.894,0.054-3.534,0.606-4.92,1.66c-1.387,1.054-2.36,2.5-2.92,4.34v13h-2v-20.8h1.88
			v5.119c0.72-1.466,1.673-2.659,2.859-3.579c1.187-0.921,2.46-1.446,3.82-1.58c0.267,0,0.507-0.007,0.72-0.021
			c0.214-0.013,0.4-0.02,0.561-0.02V223.933z"/>
		<path fill="#FFFFFF" d="M435.556,243.332c-1.6,0-3.134-0.267-4.6-0.8c-1.467-0.533-2.747-1.333-3.841-2.399l1-1.36
			c1.12,1.014,2.28,1.76,3.48,2.24c1.2,0.479,2.52,0.72,3.96,0.72c1.813,0,3.273-0.38,4.38-1.14c1.106-0.761,1.66-1.82,1.66-3.181
			c0-0.64-0.14-1.18-0.42-1.62c-0.28-0.439-0.7-0.812-1.26-1.119c-0.561-0.307-1.254-0.58-2.08-0.82
			c-0.827-0.24-1.787-0.493-2.88-0.76c-1.174-0.267-2.194-0.533-3.061-0.801c-0.866-0.266-1.58-0.586-2.14-0.96
			c-0.561-0.373-0.98-0.826-1.26-1.359c-0.28-0.533-0.42-1.214-0.42-2.04c0-1.04,0.199-1.946,0.6-2.721
			c0.4-0.772,0.953-1.413,1.66-1.92c0.706-0.506,1.52-0.886,2.439-1.14c0.92-0.253,1.9-0.38,2.94-0.38
			c1.626,0,3.066,0.273,4.32,0.82c1.253,0.547,2.226,1.246,2.92,2.1l-1.12,1.08c-0.694-0.8-1.594-1.4-2.7-1.8
			c-1.106-0.4-2.287-0.601-3.54-0.601c-0.773,0-1.5,0.08-2.18,0.24c-0.681,0.16-1.274,0.414-1.78,0.76
			c-0.507,0.348-0.907,0.794-1.2,1.34c-0.294,0.547-0.439,1.194-0.439,1.94c0,0.614,0.1,1.106,0.3,1.48
			c0.2,0.373,0.52,0.693,0.96,0.96c0.439,0.267,1.006,0.5,1.7,0.699c0.692,0.2,1.52,0.42,2.479,0.66
			c1.307,0.32,2.467,0.627,3.48,0.92c1.013,0.294,1.859,0.654,2.54,1.08c0.68,0.427,1.199,0.934,1.56,1.521s0.54,1.333,0.54,2.239
			c0,1.867-0.727,3.354-2.18,4.461C439.922,242.779,437.982,243.332,435.556,243.332z"/>
		<path fill="#FFFFFF" d="M210.579,265.412v-3.68h2v3.68H210.579z M210.579,290.933v-20.8h2v20.8H210.579z"/>
		<path fill="#FFFFFF" d="M235.738,290.933h-2v-11.601c0-2.692-0.38-4.652-1.14-5.88c-0.76-1.226-1.98-1.84-3.66-1.84
			c-0.88,0-1.754,0.16-2.62,0.48c-0.867,0.319-1.667,0.773-2.4,1.359c-0.733,0.587-1.38,1.274-1.939,2.061
			c-0.561,0.786-0.974,1.634-1.24,2.54v12.88h-2v-20.8h1.84v4.96c0.427-0.801,0.96-1.526,1.601-2.181
			c0.64-0.653,1.346-1.213,2.12-1.68c0.772-0.466,1.605-0.826,2.5-1.08c0.893-0.253,1.806-0.38,2.739-0.38
			c2.267,0,3.866,0.794,4.801,2.38c0.933,1.587,1.399,3.86,1.399,6.82V290.933z"/>
		<path fill="#FFFFFF" d="M252.777,290.933v-28.36h2.04v28.36H252.777z"/>
		<path fill="#FFFFFF" d="M271.778,291.332c-1.787,0-3.374-0.473-4.761-1.42c-1.387-0.946-2.507-2.1-3.359-3.46v13h-2v-29.319h1.8
			v4.159c0.853-1.333,1.986-2.42,3.399-3.26c1.414-0.84,2.921-1.26,4.521-1.26c1.44,0,2.767,0.307,3.979,0.92
			c1.214,0.613,2.261,1.42,3.141,2.42s1.566,2.154,2.06,3.46c0.493,1.307,0.74,2.64,0.74,4c0,1.44-0.227,2.813-0.68,4.12
			c-0.454,1.307-1.101,2.454-1.94,3.44s-1.847,1.767-3.02,2.34C274.484,291.046,273.191,291.332,271.778,291.332z M271.338,289.532
			c1.2,0,2.286-0.253,3.26-0.76c0.974-0.506,1.807-1.18,2.5-2.021c0.693-0.84,1.227-1.8,1.601-2.88c0.373-1.08,0.56-2.18,0.56-3.3
			c0-1.2-0.214-2.34-0.64-3.42c-0.427-1.08-1.014-2.033-1.761-2.86c-0.746-0.826-1.626-1.486-2.64-1.979s-2.094-0.74-3.24-0.74
			c-0.72,0-1.493,0.154-2.319,0.46c-0.827,0.307-1.601,0.72-2.32,1.24c-0.72,0.52-1.327,1.113-1.82,1.78s-0.779,1.373-0.859,2.12
			v6.84c0.319,0.773,0.746,1.493,1.279,2.16c0.533,0.666,1.134,1.253,1.801,1.76c0.666,0.507,1.393,0.899,2.18,1.18
			C269.704,289.393,270.511,289.532,271.338,289.532z"/>
		<path fill="#FFFFFF" d="M292.738,291.332c-1.601,0-3.134-0.267-4.601-0.8s-2.747-1.333-3.84-2.399l1-1.36
			c1.12,1.014,2.28,1.76,3.479,2.24c1.2,0.479,2.521,0.72,3.961,0.72c1.812,0,3.272-0.38,4.38-1.14
			c1.105-0.761,1.659-1.82,1.659-3.181c0-0.64-0.14-1.18-0.42-1.62c-0.279-0.439-0.699-0.812-1.26-1.119
			c-0.56-0.307-1.254-0.58-2.08-0.82s-1.787-0.493-2.88-0.76c-1.174-0.267-2.193-0.533-3.06-0.801
			c-0.867-0.266-1.58-0.586-2.141-0.96c-0.56-0.373-0.979-0.826-1.26-1.359s-0.42-1.214-0.42-2.04c0-1.04,0.2-1.946,0.6-2.721
			c0.4-0.772,0.953-1.413,1.66-1.92c0.706-0.506,1.521-0.886,2.44-1.14c0.92-0.253,1.899-0.38,2.939-0.38
			c1.627,0,3.066,0.273,4.32,0.82c1.253,0.547,2.227,1.246,2.92,2.1l-1.12,1.08c-0.693-0.8-1.594-1.4-2.7-1.8
			c-1.106-0.4-2.286-0.601-3.54-0.601c-0.773,0-1.5,0.08-2.18,0.24s-1.273,0.414-1.78,0.76c-0.507,0.348-0.906,0.794-1.199,1.34
			c-0.294,0.547-0.44,1.194-0.44,1.94c0,0.614,0.1,1.106,0.3,1.48c0.2,0.373,0.521,0.693,0.96,0.96c0.44,0.267,1.007,0.5,1.7,0.699
			c0.693,0.2,1.521,0.42,2.48,0.66c1.306,0.32,2.466,0.627,3.479,0.92c1.014,0.294,1.86,0.654,2.54,1.08
			c0.68,0.427,1.2,0.934,1.561,1.521c0.359,0.587,0.54,1.333,0.54,2.239c0,1.867-0.728,3.354-2.181,4.461
			S295.164,291.332,292.738,291.332z"/>
		<path fill="#FFFFFF" d="M331.298,270.133h2l-9,20.8h-1.681l-4.68-11l-4.68,11h-1.721l-8.96-20.8h1.96l7.961,18.6l4.359-10.24
			l-3.56-8.319h1.76l2.88,6.88l2.84-6.88h1.76l-3.52,8.319l4.36,10.24L331.298,270.133z"/>
		<path fill="#FFFFFF" d="M337.137,265.412v-3.68h2v3.68H337.137z M337.137,290.933v-20.8h2v20.8H337.137z"/>
		<path fill="#FFFFFF" d="M343.897,280.452c0-1.466,0.253-2.853,0.76-4.16c0.506-1.306,1.22-2.439,2.14-3.399s2.007-1.72,3.26-2.28
			c1.254-0.56,2.627-0.84,4.12-0.84c1.894,0,3.554,0.427,4.98,1.28c1.426,0.854,2.513,2.04,3.26,3.56l-1.96,0.64
			c-0.613-1.146-1.494-2.046-2.64-2.699c-1.147-0.653-2.4-0.98-3.761-0.98c-1.146,0-2.213,0.227-3.199,0.68
			c-0.987,0.454-1.848,1.08-2.58,1.881c-0.734,0.8-1.308,1.739-1.721,2.819s-0.619,2.247-0.619,3.5c0,1.254,0.22,2.434,0.659,3.54
			c0.44,1.107,1.026,2.067,1.761,2.88c0.732,0.814,1.593,1.46,2.58,1.94c0.985,0.479,2.039,0.72,3.159,0.72
			c0.721,0,1.434-0.106,2.141-0.32c0.706-0.213,1.359-0.492,1.96-0.84c0.6-0.346,1.12-0.753,1.56-1.22
			c0.44-0.466,0.74-0.953,0.9-1.46l1.96,0.56c-0.267,0.721-0.674,1.395-1.22,2.021c-0.547,0.627-1.194,1.167-1.94,1.62
			c-0.747,0.453-1.566,0.807-2.46,1.06s-1.82,0.38-2.78,0.38c-1.467,0-2.826-0.286-4.08-0.859s-2.34-1.36-3.26-2.36
			s-1.646-2.153-2.18-3.46C344.163,283.346,343.897,281.946,343.897,280.452z"/>
		<path fill="#FFFFFF" d="M384.137,290.933h-2v-11.601c0-2.586-0.44-4.52-1.32-5.8s-2.16-1.92-3.84-1.92
			c-0.854,0-1.694,0.16-2.521,0.48c-0.826,0.319-1.594,0.773-2.3,1.359c-0.707,0.587-1.327,1.274-1.859,2.061
			c-0.534,0.786-0.921,1.634-1.16,2.54v12.88h-2v-29.2h2v13.36c0.853-1.627,2.033-2.92,3.54-3.881
			c1.506-0.96,3.126-1.439,4.859-1.439c1.146,0,2.134,0.214,2.96,0.64c0.826,0.427,1.514,1.04,2.061,1.84
			c0.546,0.801,0.946,1.768,1.2,2.9c0.253,1.134,0.38,2.407,0.38,3.82V290.933z"/>
	</g>
</g>
</svg>
