<?xml version="1.0" encoding="utf-8"?>
<!-- Generator: Adobe Illustrator 17.0.0, SVG Export Plug-In . SVG Version: 6.00 Build 0)  -->
<!DOCTYPE svg PUBLIC "-//W3C//DTD SVG 1.1//EN" "http://www.w3.org/Graphics/SVG/1.1/DTD/svg11.dtd">
<svg version="1.1" id="Layer_1" xmlns="http://www.w3.org/2000/svg" xmlns:xlink="http://www.w3.org/1999/xlink" x="0px" y="0px"
	 width="960.211px" height="209.335px" viewBox="0 0 960.211 209.335" enable-background="new 0 0 960.211 209.335"
	 xml:space="preserve">
<circle fill="#9C77B3" cx="103.105" cy="106.23" r="103.105"/>
<g>
	<g>
		<path fill="#FFFFFF" d="M25.19,104.284c1.772,0,3.424,0.305,4.956,0.913c1.532,0.609,2.88,1.468,4.042,2.575
			c1.163,1.107,2.077,2.428,2.741,3.96s0.997,3.203,0.997,5.011c0,1.921-0.352,3.675-1.052,5.261
			c-0.702,1.587-1.661,2.944-2.88,4.07c-1.218,1.126-2.622,1.994-4.208,2.603c-1.587,0.609-3.267,0.914-5.039,0.914
			c-1.403,0-2.732-0.193-3.987-0.581c-1.255-0.388-2.428-0.924-3.516-1.606c-1.089-0.684-2.049-1.514-2.879-2.492
			c-0.831-0.979-1.523-2.058-2.077-3.239l1.606-0.554c0.997,1.994,2.464,3.608,4.402,4.846c1.938,1.236,4.088,1.855,6.451,1.855
			c1.55,0,3.018-0.269,4.402-0.804s2.583-1.292,3.6-2.271c1.015-0.979,1.818-2.15,2.409-3.516c0.59-1.366,0.886-2.861,0.886-4.486
			c0-1.55-0.287-2.98-0.858-4.291c-0.573-1.311-1.357-2.437-2.354-3.378c-0.997-0.941-2.16-1.68-3.489-2.215
			s-2.75-0.804-4.264-0.804c-1.993,0-3.886,0.443-5.676,1.329c-1.791,0.887-3.259,2.16-4.402,3.821h-1.938
			c0.037-0.295,0.139-0.831,0.305-1.605c0.166-0.775,0.36-1.689,0.582-2.741c0.222-1.053,0.452-2.206,0.692-3.461
			c0.239-1.255,0.489-2.528,0.748-3.821c0.59-2.953,1.254-6.238,1.993-9.857h18.772v1.828H18.877l-3.378,16.834
			c1.218-1.292,2.667-2.298,4.347-3.018C21.526,104.644,23.307,104.284,25.19,104.284z"/>
		<path fill="#FFFFFF" d="M60.132,131.917c0.665,0,1.246-0.037,1.744-0.111s0.839-0.185,1.024-0.332
			c0.111-0.074,0.25-0.259,0.416-0.554c0.166-0.296,0.424-0.803,0.775-1.522c0.351-0.721,0.803-1.727,1.357-3.019
			c0.554-1.293,1.273-2.972,2.16-5.039L54.484,92.544h2.049l12.072,26.803l11.408-26.803h1.883l-16.502,38.542
			c-0.443,1.033-1.006,1.717-1.689,2.049c-0.684,0.332-1.505,0.499-2.464,0.499h-1.107V131.917z"/>
		<path fill="#FFFFFF" d="M99.891,121.894c-1.957,0-3.785-0.397-5.482-1.19c-1.699-0.794-3.184-1.883-4.458-3.268
			c-1.273-1.384-2.271-2.99-2.99-4.817s-1.08-3.774-1.08-5.842c0-2.03,0.351-3.933,1.052-5.704c0.701-1.772,1.68-3.322,2.935-4.651
			c1.254-1.329,2.713-2.382,4.375-3.157c1.662-0.774,3.47-1.162,5.427-1.162c1.956,0,3.784,0.388,5.482,1.162
			c1.698,0.775,3.175,1.837,4.43,3.185c1.255,1.348,2.251,2.927,2.99,4.734c0.738,1.81,1.107,3.729,1.107,5.76
			c0,0.074-0.009,0.221-0.027,0.442c-0.019,0.222-0.028,0.352-0.028,0.388H87.819c0.111,1.772,0.517,3.425,1.218,4.956
			c0.701,1.532,1.596,2.853,2.686,3.96c1.088,1.107,2.334,1.984,3.738,2.63c1.403,0.646,2.898,0.97,4.486,0.97
			c1.07,0,2.113-0.139,3.128-0.416c1.015-0.276,1.966-0.673,2.852-1.19c0.886-0.517,1.661-1.135,2.326-1.854
			c0.665-0.721,1.199-1.504,1.606-2.354l1.717,0.442c-0.407,0.997-1.006,1.93-1.8,2.797c-0.794,0.867-1.708,1.605-2.741,2.215
			c-1.034,0.609-2.16,1.09-3.378,1.439C102.438,121.718,101.183,121.894,99.891,121.894z M111.797,106.167
			c-0.111-1.809-0.499-3.47-1.163-4.984c-0.665-1.513-1.542-2.824-2.63-3.932c-1.089-1.107-2.335-1.966-3.738-2.575
			c-1.404-0.608-2.917-0.913-4.541-0.913c-1.625,0-3.138,0.313-4.541,0.941c-1.403,0.628-2.64,1.495-3.71,2.603
			c-1.071,1.107-1.93,2.418-2.575,3.932c-0.646,1.515-1.024,3.156-1.135,4.929H111.797z"/>
		<path fill="#FFFFFF" d="M126.97,121.894c-1.329,0-2.566-0.231-3.71-0.692c-1.145-0.461-2.142-1.088-2.99-1.883
			c-0.85-0.793-1.514-1.725-1.994-2.796c-0.48-1.07-0.72-2.233-0.72-3.489c0-1.218,0.295-2.334,0.886-3.35
			c0.59-1.016,1.412-1.892,2.464-2.631c1.052-0.738,2.307-1.31,3.766-1.717c1.458-0.405,3.073-0.609,4.845-0.609
			c1.587,0,3.212,0.13,4.874,0.388c1.661,0.259,3.137,0.646,4.43,1.163v-3.101c0-2.88-0.822-5.178-2.464-6.895
			c-1.644-1.717-3.849-2.575-6.618-2.575c-1.403,0-2.889,0.305-4.458,0.914c-1.57,0.609-3.166,1.486-4.79,2.63l-0.886-1.384
			c3.729-2.511,7.144-3.766,10.245-3.766c3.359,0,6.008,0.996,7.946,2.99c1.938,1.993,2.907,4.726,2.907,8.195v15.062
			c0,0.812,0.333,1.218,0.997,1.218v1.772c-0.111,0.036-0.259,0.056-0.443,0.056c-0.628,0-1.172-0.23-1.633-0.692
			c-0.462-0.461-0.692-1.024-0.692-1.689v-2.547c-1.292,1.735-3,3.073-5.122,4.015C131.685,121.423,129.407,121.894,126.97,121.894z
			 M127.247,120.288c2.326,0,4.448-0.434,6.368-1.302c1.919-0.867,3.359-2.039,4.319-3.517c0.59-0.775,0.886-1.513,0.886-2.215
			v-5.427c-2.843-1.107-5.907-1.661-9.192-1.661c-3.064,0-5.529,0.618-7.393,1.854c-1.865,1.237-2.796,2.89-2.796,4.957
			c0,1.033,0.202,1.993,0.609,2.879c0.406,0.886,0.95,1.661,1.634,2.326c0.683,0.664,1.504,1.182,2.464,1.551
			C125.105,120.104,126.139,120.288,127.247,120.288z"/>
		<path fill="#FFFFFF" d="M162.355,94.317c-2.658,0.11-4.965,0.951-6.922,2.52c-1.957,1.569-3.322,3.701-4.098,6.396v18.108h-1.883
			V92.544h1.827v7.31c0.997-2.029,2.326-3.69,3.987-4.983c1.661-1.292,3.433-2.049,5.316-2.271c0.369,0,0.701-0.009,0.997-0.027
			c0.295-0.019,0.554-0.028,0.775-0.028V94.317z"/>
		<path fill="#FFFFFF" d="M176.365,121.894c-2.215,0-4.283-0.369-6.202-1.107c-1.92-0.738-3.619-1.883-5.095-3.434l1.052-1.273
			c1.551,1.403,3.138,2.456,4.762,3.156c1.625,0.702,3.434,1.053,5.427,1.053c2.694,0,4.873-0.572,6.534-1.717
			s2.492-2.75,2.492-4.818c0-0.959-0.213-1.762-0.637-2.408c-0.425-0.646-1.043-1.199-1.855-1.661
			c-0.812-0.462-1.819-0.867-3.018-1.219c-1.2-0.351-2.575-0.71-4.125-1.08c-1.588-0.368-2.962-0.729-4.125-1.079
			s-2.132-0.767-2.907-1.246s-1.348-1.089-1.717-1.828c-0.369-0.737-0.554-1.679-0.554-2.824c0-1.439,0.277-2.676,0.831-3.71
			c0.554-1.033,1.302-1.892,2.243-2.575c0.941-0.683,2.03-1.19,3.268-1.522c1.236-0.332,2.556-0.498,3.959-0.498
			c2.326,0,4.328,0.388,6.008,1.162c1.679,0.775,2.907,1.754,3.682,2.936l-1.273,0.941c-0.812-1.107-2.003-1.956-3.572-2.548
			c-1.57-0.59-3.24-0.886-5.012-0.886c-1.145,0-2.215,0.12-3.211,0.36c-0.997,0.24-1.875,0.628-2.63,1.163
			c-0.757,0.535-1.357,1.209-1.8,2.021c-0.443,0.812-0.665,1.772-0.665,2.88c0,0.886,0.147,1.625,0.443,2.215
			c0.295,0.591,0.766,1.08,1.412,1.468c0.646,0.388,1.458,0.72,2.437,0.997c0.978,0.276,2.168,0.581,3.572,0.913
			c1.772,0.407,3.341,0.812,4.707,1.219c1.365,0.406,2.528,0.886,3.489,1.439c0.959,0.554,1.689,1.237,2.187,2.049
			c0.499,0.812,0.748,1.847,0.748,3.102c0,1.292-0.258,2.445-0.775,3.461c-0.518,1.016-1.246,1.892-2.188,2.63
			c-0.941,0.739-2.086,1.302-3.433,1.689C179.475,121.7,177.989,121.894,176.365,121.894z"/>
	</g>
</g>
<circle fill="#9C77B3" cx="480.739" cy="103.105" r="103.105"/>
<circle fill="#9C77B3" cx="857.105" cy="106.23" r="103.105"/>
<g>
	<g>
		<path fill="#FFFFFF" d="M810.25,84.857l8.473,18.053l8.639-18.053h9.857l-13.955,25.916v13.401h-9.082v-13.512l-13.788-25.805
			H810.25z"/>
		<path fill="#FFFFFF" d="M868.118,116.199v7.975h-27.633V84.857h27.134v7.975h-18.053v7.642h15.506v7.365h-15.506v8.361H868.118z"
			/>
		<path fill="#FFFFFF" d="M897.024,96.376c-0.147-0.147-0.554-0.424-1.218-0.831c-0.665-0.405-1.495-0.83-2.492-1.273
			c-0.997-0.442-2.086-0.83-3.268-1.163c-1.182-0.332-2.362-0.498-3.544-0.498c-1.55,0-2.741,0.277-3.571,0.831
			c-0.831,0.554-1.246,1.366-1.246,2.437c0,0.664,0.185,1.218,0.554,1.661c0.368,0.442,0.895,0.84,1.578,1.19
			c0.683,0.352,1.531,0.674,2.548,0.969c1.015,0.296,2.187,0.629,3.516,0.997c1.883,0.518,3.581,1.08,5.095,1.689
			c1.514,0.608,2.806,1.366,3.877,2.27c1.07,0.905,1.891,2.003,2.464,3.294c0.572,1.293,0.858,2.844,0.858,4.652
			c0,2.215-0.415,4.089-1.246,5.62c-0.831,1.532-1.93,2.769-3.295,3.71c-1.366,0.941-2.944,1.625-4.734,2.05
			c-1.791,0.424-3.627,0.637-5.51,0.637c-1.44,0-2.907-0.111-4.402-0.333c-1.495-0.221-2.963-0.544-4.403-0.969
			c-1.439-0.424-2.843-0.932-4.208-1.522c-1.366-0.591-2.622-1.274-3.766-2.049l3.987-7.919c0.184,0.185,0.683,0.535,1.495,1.052
			c0.812,0.518,1.809,1.034,2.99,1.551c1.181,0.518,2.51,0.979,3.987,1.385c1.476,0.406,2.971,0.608,4.485,0.608
			c3.212,0,4.817-0.978,4.817-2.935c0-0.738-0.24-1.348-0.72-1.827c-0.48-0.479-1.145-0.914-1.993-1.302
			c-0.851-0.388-1.847-0.747-2.991-1.08c-1.145-0.332-2.399-0.7-3.766-1.107c-1.809-0.554-3.378-1.153-4.706-1.8
			c-1.329-0.646-2.437-1.392-3.323-2.242c-0.886-0.849-1.542-1.828-1.966-2.936c-0.425-1.107-0.637-2.399-0.637-3.876
			c0-2.067,0.388-3.895,1.163-5.482c0.775-1.587,1.827-2.925,3.156-4.015c1.329-1.089,2.87-1.91,4.624-2.464
			c1.753-0.554,3.608-0.831,5.565-0.831c1.402,0,2.769,0.13,4.098,0.388c1.329,0.259,2.593,0.591,3.793,0.997
			c1.199,0.406,2.335,0.867,3.406,1.384c1.07,0.518,2.029,1.034,2.879,1.551L897.024,96.376z"/>
	</g>
</g>
<path fill="#FFFFFF" d="M480.736,106.44l26.679-26.679h-20.009V53.083h-13.339v26.679h-20.009L480.736,106.44z M504.99,95.525
	l-7.477,7.477l27.106,10.108l-43.88,16.364l-43.88-16.364l27.102-10.108l-7.477-7.477l-29.103,10.915v26.679l53.357,20.009
	l53.357-20.009V106.44L504.99,95.525z"/>
<g>
	<rect x="246.878" y="93.401" fill="#FFFFFF" width="64" height="27"/>
	<g>
		<polygon fill="#FFFFFF" points="300.878,141.801 361.321,106.904 300.878,72 		"/>
	</g>
</g>
<g>
	<rect x="611.878" y="93.401" fill="#FFFFFF" width="64" height="27"/>
	<g>
		<polygon fill="#FFFFFF" points="665.878,141.801 726.321,106.904 665.878,72 		"/>
	</g>
</g>
</svg>
