<?xml version="1.0" encoding="utf-8"?>
<!-- Generator: Adobe Illustrator 17.0.0, SVG Export Plug-In . SVG Version: 6.00 Build 0)  -->
<!DOCTYPE svg PUBLIC "-//W3C//DTD SVG 1.1//EN" "http://www.w3.org/Graphics/SVG/1.1/DTD/svg11.dtd">
<svg version="1.1" id="Layer_1" xmlns="http://www.w3.org/2000/svg" xmlns:xlink="http://www.w3.org/1999/xlink" x="0px" y="0px"
	 width="149.19px" height="69.815px" viewBox="0 0 149.19 69.815" enable-background="new 0 0 149.19 69.815" xml:space="preserve">
<path fill-rule="evenodd" clip-rule="evenodd" fill="#63328A" d="M56.132,49.91c-1.534,3.398-2.269,4.916-4.244,7.92
	c-2.755,4.195-6.639,9.418-11.452,9.463c-4.278,0.04-5.376-2.784-11.181-2.751c-5.804,0.031-7.015,2.801-11.294,2.762
	c-4.813-0.045-8.495-4.761-11.251-8.956c-7.707-11.728-8.512-25.494-3.759-32.81c3.379-5.201,8.706-8.244,13.717-8.244
	c5.102,0,8.309,2.797,12.527,2.797c4.092,0,6.584-2.802,12.483-2.802c4.458,0,9.181,2.427,12.548,6.623
	C43.197,29.954,44.989,45.7,56.132,49.91L56.132,49.91z"/>
<path fill-rule="evenodd" clip-rule="evenodd" fill="#63328A" d="M37.203,12.603c2.143-2.751,3.77-6.633,3.18-10.603
	c-3.5,0.241-7.595,2.469-9.985,5.371c-2.17,2.635-3.961,6.543-3.264,10.341C30.955,17.83,34.909,15.548,37.203,12.603L37.203,12.603
	z"/>
<g>
	<path fill="#FFFFFF" d="M129.674,2.34l0.002,0.01c0.002-0.002,0.003-0.004,0.005-0.006L129.674,2.34z"/>
	<g>
		<path fill-rule="evenodd" clip-rule="evenodd" fill="#63328A" d="M145.152,24.243c-2.23,0-4.038,1.836-4.038,4.101v16.027
			c0,2.265,1.808,4.101,4.038,4.101c2.23,0,4.038-1.836,4.038-4.101V28.344C149.19,26.079,147.382,24.243,145.152,24.243z
			 M96.445,24.243c-2.23,0-4.038,1.836-4.038,4.101v16.027c0,2.265,1.808,4.101,4.038,4.101s4.038-1.836,4.038-4.101V28.344
			C100.483,26.079,98.675,24.243,96.445,24.243z"/>
		<path fill-rule="evenodd" clip-rule="evenodd" fill="#63328A" d="M102.913,24.367v29.281c0,1.739,1.41,3.149,3.149,3.149h3.598
			v8.917c0,2.265,1.808,4.101,4.038,4.101c2.23,0,4.038-1.836,4.038-4.101v-8.917h6.285v8.917c0,2.265,1.808,4.101,4.038,4.101
			c2.23,0,4.038-1.836,4.038-4.101v-8.917h3.597c1.74,0,3.149-1.41,3.149-3.149V24.367H102.913z"/>
		<path fill-rule="evenodd" clip-rule="evenodd" fill="#63328A" d="M129.315,9.194l3.319-4.818c0.197-0.286,0.148-0.662-0.11-0.84
			c-0.258-0.177-0.626-0.089-0.823,0.197l-3.448,5.005c-2.272-0.895-4.796-1.394-7.456-1.394c-2.659,0-5.184,0.499-7.456,1.394
			l-3.448-5.005c-0.197-0.286-0.566-0.374-0.823-0.197c-0.258,0.177-0.306,0.553-0.109,0.84l3.319,4.818
			c-5.277,2.455-8.978,7.119-9.449,12.564h35.931C138.293,16.314,134.592,11.649,129.315,9.194z M113.219,16.788
			c-1.098,0-1.988-0.89-1.988-1.988c0-1.098,0.89-1.988,1.988-1.988c1.098,0,1.988,0.89,1.988,1.988
			C115.207,15.898,114.317,16.788,113.219,16.788z M128.626,16.788c-1.098,0-1.988-0.89-1.988-1.988c0-1.098,0.89-1.988,1.988-1.988
			c1.098,0,1.988,0.89,1.988,1.988C130.614,15.898,129.724,16.788,128.626,16.788z"/>
	</g>
</g>
</svg>
