<?xml version="1.0" encoding="utf-8"?>
<!-- Generator: Adobe Illustrator 17.0.0, SVG Export Plug-In . SVG Version: 6.00 Build 0)  -->
<!DOCTYPE svg PUBLIC "-//W3C//DTD SVG 1.1//EN" "http://www.w3.org/Graphics/SVG/1.1/DTD/svg11.dtd">
<svg version="1.1" id="Layer_1" xmlns="http://www.w3.org/2000/svg" xmlns:xlink="http://www.w3.org/1999/xlink" x="0px" y="0px"
	 width="471.901px" height="367.509px" viewBox="0 0 471.901 367.509" enable-background="new 0 0 471.901 367.509"
	 xml:space="preserve">
<g opacity="0.4">
	<g>
		<path fill="#FFFFFF" d="M145.731,41.064c4.092,4.541,8.184,9.083,12.277,13.624c0.554,0.574,1.001,0.907,1.34,1
			c0.507,0.158,1.07-0.043,1.699-0.592c0.406-0.354,0.717-0.644,0.929-0.871c0.213-0.227,0.454-0.454,0.722-0.679
			c0.432-0.363,0.752-0.419,0.954-0.174c0.174,0.211,0.05,0.491-0.369,0.842c-0.03,0.025-0.06,0.051-0.09,0.076
			c-0.234,0.168-0.468,0.336-0.702,0.506c-0.159,0.136-0.462,0.365-0.907,0.692c-0.289,0.207-0.578,0.415-0.867,0.625
			c-0.29,0.228-0.553,0.447-0.787,0.658c-0.274,0.247-0.547,0.496-0.819,0.746c-0.216,0.198-0.442,0.423-0.679,0.676
			c-0.259,0.288-0.516,0.578-0.772,0.869c-0.393,0.437-0.645,0.714-0.76,0.825c-0.195,0.221-0.389,0.442-0.582,0.664
			c-0.038,0.038-0.076,0.075-0.114,0.113c-0.399,0.394-0.694,0.497-0.888,0.304c-0.225-0.225-0.134-0.543,0.278-0.95
			c0.243-0.239,0.485-0.452,0.725-0.637c0.24-0.185,0.539-0.451,0.9-0.794c0.53-0.504,0.785-0.965,0.763-1.395
			c-0.022-0.429-0.323-0.978-0.903-1.649c-0.57-0.619-1.139-1.238-1.709-1.857c-3.324-3.613-6.649-7.227-9.973-10.84
			c-0.453-0.447-0.831-0.702-1.136-0.76c-0.449-0.079-0.957,0.143-1.516,0.672c-0.224,0.212-0.553,0.548-0.985,1.012
			c-0.431,0.464-0.756,0.807-0.977,1.023c-0.022,0.022-0.044,0.043-0.066,0.065c-0.506,0.499-0.863,0.648-1.072,0.438
			c-0.225-0.225-0.113-0.564,0.341-1.013c0.295-0.29,0.756-0.72,1.387-1.28c0.631-0.559,1.098-0.975,1.399-1.257
			c0.37-0.347,0.742-0.691,1.115-1.033c0.326-0.299,0.677-0.664,1.054-1.095c0.54-0.485,1.197-0.576,1.96-0.274
			c7.017,2.868,13.727,6.167,20.099,9.849c0.222,0.119,0.375,0.146,0.458,0.083c0.084-0.063,0.092-0.227,0.027-0.491
			c-1.7-7.135-2.96-14.467-3.764-21.949c-0.099-0.83,0.126-1.421,0.671-1.763c0.052-0.033,0.104-0.065,0.156-0.098
			c0.509-0.283,1.02-0.562,1.531-0.838c0.511-0.275,0.872-0.473,1.082-0.599c0.497-0.297,1.011-0.626,1.542-0.986
			c0.531-0.36,0.969-0.635,1.314-0.83c0.53-0.299,0.866-0.321,1.003-0.073c0.128,0.23-0.079,0.493-0.613,0.795
			c-0.348,0.197-0.758,0.41-1.228,0.642c-0.471,0.233-0.891,0.459-1.262,0.679c-1.196,0.709-1.472,1.592-0.842,2.619
			c0.018,0.029,0.036,0.058,0.053,0.088c0.522,0.855,0.961,1.574,1.317,2.157c0.356,0.583,0.849,1.39,1.478,2.42
			c2.059,3.372,4.118,6.744,6.178,10.116c0.438,0.667,0.813,1.078,1.124,1.235c0.462,0.253,1.049,0.162,1.77-0.263
			c0.428-0.252,0.764-0.467,1.007-0.646c0.243-0.179,0.513-0.353,0.809-0.521c0.477-0.269,0.795-0.262,0.949,0.016
			c0.133,0.239-0.023,0.481-0.464,0.731c-0.132,0.075-0.43,0.216-0.893,0.43c-1.157,0.536-1.875,0.903-2.158,1.073
			c-0.066,0.04-0.17,0.09-0.312,0.149c-0.131,0.079-0.24,0.146-0.326,0.199c-0.305,0.186-0.609,0.374-0.913,0.564
			c-0.218,0.137-0.773,0.535-1.653,1.213c-0.429,0.332-0.718,0.551-0.868,0.65c-0.224,0.175-0.447,0.351-0.67,0.528
			c-0.043,0.029-0.086,0.058-0.128,0.086c-0.449,0.302-0.75,0.344-0.904,0.118c-0.179-0.263-0.039-0.553,0.424-0.865
			c0.336-0.227,0.596-0.385,0.778-0.478c0.342-0.171,0.682-0.367,1.022-0.588c0.657-0.425,0.973-0.892,0.945-1.415
			c-0.007-0.345-0.211-0.862-0.611-1.552c-0.447-0.715-0.893-1.429-1.34-2.144c-2.812-4.499-5.624-8.999-8.436-13.498
			c-0.145-0.232-0.269-0.316-0.372-0.251c-0.077,0.048-0.11,0.137-0.101,0.265c-0.001,0.055-0.003,0.109-0.004,0.164
			c0.7,7.623,1.881,15.096,3.524,22.367c0.155,0.736,0.059,1.233-0.292,1.498c-0.372,0.281-0.877,0.239-1.522-0.127
			c-6.416-3.621-13.17-6.852-20.23-9.645c-0.328-0.134-0.551-0.149-0.667-0.044C145.423,40.56,145.472,40.777,145.731,41.064z"/>
		<path fill="#FFFFFF" d="M185.377,20.473c2.783-1.21,5.389-1.341,7.692-0.449c2.308,0.894,3.856,2.633,4.723,5.125
			c0.847,2.433,0.714,4.688-0.289,6.783c-1.006,2.101-2.685,3.619-5.105,4.671c-2.35,1.023-4.596,1.169-6.853,0.412
			c-2.253-0.755-4.032-2.253-5.265-4.592c-1.179-2.234-1.35-4.484-0.404-6.743C180.82,23.428,182.674,21.649,185.377,20.473z
			 M192.112,35.946c2.143-0.931,3.629-2.303,4.51-4.201c0.878-1.895,0.967-3.938,0.18-6.138c-0.824-2.304-2.236-3.921-4.301-4.778
			c-2.061-0.856-4.361-0.774-6.798,0.285c-2.438,1.06-4.08,2.655-4.878,4.678c-0.8,2.027-0.616,4.09,0.465,6.184
			c1.135,2.198,2.718,3.613,4.689,4.321C187.956,37.005,189.969,36.879,192.112,35.946z"/>
		<path fill="#FFFFFF" d="M204.715,17.144c0.896-2.509,2.806-4.139,5.641-4.764c1.666-0.366,3.117-0.263,4.323,0.286
			c1.207,0.55,1.903,1.431,2.113,2.619c0.138,0.785,0.017,1.482-0.355,2.093c-0.373,0.611-0.913,0.983-1.629,1.124
			c-0.955,0.187-1.508-0.079-1.662-0.815c-0.14-0.668,0.2-1.089,1.021-1.252c0.219-0.043,0.451-0.019,0.696,0.073
			c0.244,0.092,0.407,0.131,0.49,0.115c0.354-0.067,0.458-0.499,0.31-1.299c-0.172-0.933-0.738-1.618-1.709-2.04
			c-0.971-0.421-2.16-0.487-3.545-0.181c-2.384,0.528-3.936,1.678-4.618,3.359c-0.508,1.262-0.446,2.989,0.154,5.181
			c0.255,0.932,0.509,1.863,0.764,2.795c0.701,2.564,1.222,4.083,1.56,4.557c0.338,0.474,0.966,0.586,1.89,0.35
			c0.17-0.043,0.426-0.108,0.767-0.192c0.341-0.084,0.597-0.146,0.768-0.187c0.061-0.015,0.122-0.029,0.183-0.044
			c0.537-0.128,0.834-0.066,0.891,0.179c0.062,0.265-0.14,0.451-0.601,0.56c-0.037,0.009-0.073,0.017-0.11,0.026
			c-0.431,0.079-0.862,0.161-1.293,0.245c-0.509,0.08-1.018,0.164-1.527,0.251c-0.364,0.096-0.727,0.194-1.09,0.293
			c-0.218,0.06-0.435,0.12-0.653,0.181c-0.351,0.098-0.701,0.198-1.051,0.3c-0.485,0.176-0.969,0.356-1.452,0.538
			c-0.411,0.161-0.82,0.324-1.229,0.489c-0.024,0.008-0.059,0.019-0.107,0.034c-0.455,0.144-0.72,0.099-0.799-0.14
			c-0.084-0.258,0.137-0.475,0.666-0.642c0.06-0.019,0.12-0.038,0.18-0.057c0.167-0.053,0.42-0.132,0.757-0.235
			c0.337-0.104,0.59-0.18,0.759-0.231c0.94-0.282,1.432-0.703,1.478-1.284c0.044-0.579-0.292-2.149-1.014-4.708
			c-0.485-1.716-0.969-3.433-1.454-5.149c-0.444-1.574-0.639-2.263-0.583-2.066c-0.375-1.122-0.765-1.721-1.169-1.794
			c-0.25-0.046-0.619,0.001-1.11,0.145c-0.163,0.048-0.612,0.181-1.345,0.405c-0.397,0.158-0.793,0.317-1.189,0.478
			c-0.541,0.172-0.857,0.12-0.949-0.162c-0.092-0.281,0.095-0.498,0.561-0.647c0.247-0.078,0.693-0.196,1.338-0.347
			c0.309-0.071,0.628-0.156,0.959-0.255c0.206-0.062,0.413-0.123,0.619-0.184c0.302-0.089,0.737-0.242,1.303-0.455
			c0.055-0.016,0.122-0.043,0.2-0.083c0.111-0.031,0.18-0.051,0.207-0.058c0.581-0.162,0.937-0.001,1.067,0.476
			C204.329,15.733,204.522,16.438,204.715,17.144z"/>
		<path fill="#FFFFFF" d="M237.448,16.686c0.009,0.479-0.115,0.765-0.365,0.861c-0.252,0.097-0.645,0.151-1.177,0.167
			c-4.722,0.142-9.437,0.544-14.123,1.206c-0.37,0.052-0.595,0.132-0.675,0.234c-0.079,0.104-0.092,0.335-0.038,0.694
			c0.336,2.244,1.312,3.945,2.866,5.146c1.557,1.204,3.39,1.688,5.577,1.501c2.359-0.201,4.16-1.049,5.473-2.619
			c0.51-0.609,0.874-1.265,1.085-1.973c-0.002-0.068,0.054-0.353,0.17-0.854c0.092-0.386,0.283-0.585,0.57-0.592
			c0.314-0.007,0.474,0.15,0.48,0.468c0.008,0.388-0.125,0.902-0.393,1.546c-0.583,1.38-1.515,2.469-2.788,3.292
			c-1.274,0.823-2.755,1.296-4.48,1.442c-2.512,0.215-4.604-0.319-6.372-1.663c-1.764-1.342-2.889-3.256-3.291-5.799
			c-0.417-2.629,0.101-4.915,1.659-6.818c1.555-1.9,3.825-3.02,6.714-3.262c2.521-0.21,4.702,0.402,6.458,1.784
			C236.554,12.831,237.412,14.594,237.448,16.686z M220.959,17.73c0.05,0.337,0.366,0.461,0.951,0.379
			c4.571-0.637,9.17-1.029,13.775-1.174c0.455-0.014,0.678-0.2,0.669-0.564c-0.038-1.448-0.667-2.818-1.941-4.084
			c-1.474-1.459-3.532-2.118-6.096-1.902c-1.944,0.164-3.569,0.78-4.838,1.813c-1.271,1.033-2.07,2.388-2.409,4.039
			C220.938,16.851,220.903,17.349,220.959,17.73z"/>
		<path fill="#FFFFFF" d="M255.494,11.673c-0.043,0.133-0.102,0.503-0.173,1.113c-0.278,2.369-0.556,4.738-0.834,7.107
			c-0.262,2.234-0.296,3.855-0.112,4.86c0.278,1.499,1.191,2.339,2.758,2.568c1.249,0.183,2.191-0.056,2.841-0.739
			c0.649-0.683,1.145-1.946,1.474-3.799c0.059-0.335,0.118-0.67,0.178-1.005c0.012-0.067,0.024-0.134,0.036-0.201
			c0.012-0.067,0.02-0.112,0.024-0.134c0.083-0.469,0.299-0.673,0.652-0.609c0.351,0.063,0.484,0.331,0.396,0.801
			c-0.052,0.28-0.104,0.56-0.156,0.839c-0.291,1.567-0.647,2.775-1.06,3.626c-0.793,1.64-2.281,2.254-4.507,1.926
			c-2.925-0.422-4.193-2.5-3.785-6.402c0.325-2.988,0.65-5.975,0.975-8.963c0.079-0.724,0.064-1.178-0.044-1.362
			c-0.107-0.183-0.441-0.305-1.002-0.361c-0.168-0.016-0.592-0.036-1.269-0.051c-0.325-0.006-0.65-0.011-0.975-0.015
			c-0.533-0.044-0.787-0.222-0.762-0.54c0.021-0.272,0.285-0.389,0.793-0.348c0.227,0.018,0.563,0.064,1.013,0.138
			c0.447,0.074,0.784,0.123,1.01,0.145c0.873,0.085,1.43-0.07,1.677-0.479c0.14-0.237,0.246-0.671,0.317-1.305
			c0.006-0.057,0.013-0.113,0.019-0.17c0.105-0.95,0.207-1.54,0.306-1.77c0.099-0.229,0.279-0.33,0.54-0.3
			c0.319,0.037,0.458,0.237,0.415,0.598c-0.003,0.023-0.005,0.045-0.008,0.068c-0.122,0.536-0.244,1.072-0.365,1.608
			c-0.071,0.358-0.136,0.787-0.194,1.284c-0.058,0.498,0.323,0.792,1.144,0.895c0.467,0.059,0.934,0.12,1.4,0.184
			c0.311,0.042,0.786,0.091,1.427,0.151c0.64,0.06,1.116,0.117,1.426,0.166c0.565,0.09,0.823,0.283,0.775,0.574
			c-0.048,0.292-0.378,0.387-0.986,0.291c-0.027-0.004-0.055-0.009-0.082-0.013c-0.427-0.078-0.855-0.155-1.282-0.229
			c-0.221-0.032-0.675-0.122-1.364-0.262c-0.579-0.102-1.036-0.172-1.37-0.214C256.008,11.252,255.586,11.364,255.494,11.673z"/>
		<path fill="#FFFFFF" d="M271.252,16.369c0.912-0.692,1.785-1.165,2.609-1.421c1.736-0.513,3.671-0.465,5.747,0.168
			c1.528,0.466,2.782,1.152,3.745,2.031c1.068,1.012,1.583,2.13,1.564,3.333c-0.014,0.697-0.304,1.815-0.866,3.356
			c-0.452,1.241-0.904,2.482-1.356,3.723c-0.911,2.503-1.364,4.047-1.362,4.63c0.002,0.584,0.453,1.038,1.35,1.382
			c0.165,0.064,0.413,0.159,0.744,0.288c0.33,0.129,0.577,0.227,0.741,0.293c0.059,0.023,0.118,0.047,0.177,0.071
			c0.517,0.207,0.727,0.43,0.632,0.663c-0.103,0.252-0.376,0.287-0.822,0.108c-0.035-0.014-0.07-0.028-0.105-0.042
			c-0.402-0.186-0.805-0.369-1.209-0.55c-0.466-0.229-0.933-0.456-1.402-0.679c-0.331-0.123-0.663-0.245-0.995-0.366
			c-0.237-0.086-0.475-0.171-0.712-0.255c-0.321-0.114-0.642-0.227-0.964-0.338c-0.488-0.132-0.976-0.261-1.464-0.387
			c-0.405-0.098-0.81-0.194-1.216-0.288c-0.047-0.015-0.095-0.03-0.142-0.045c-0.455-0.145-0.646-0.336-0.571-0.576
			c0.081-0.259,0.387-0.308,0.915-0.139c0.06,0.019,0.12,0.038,0.18,0.058c0.167,0.054,0.407,0.131,0.719,0.233
			c0.311,0.102,0.539,0.178,0.682,0.226c0.908,0.305,1.544,0.241,1.918-0.207c0.372-0.448,1.005-1.923,1.894-4.428
			c0.422-1.189,0.843-2.377,1.265-3.566c0.418-1.178,0.66-1.984,0.725-2.419c0.156-0.933,0.028-1.785-0.39-2.553
			c-0.702-1.321-2.095-2.327-4.153-2.951c-1.897-0.574-3.678-0.534-5.288,0.102c-1.837,0.718-2.981,2.143-3.485,4.217
			c-0.288,1.181-0.576,2.362-0.865,3.543c-0.624,2.561-0.903,4.136-0.84,4.724c0.063,0.589,0.544,0.992,1.443,1.226
			c0.146,0.038,0.382,0.1,0.71,0.188c0.327,0.087,0.564,0.152,0.709,0.192c0.06,0.017,0.121,0.033,0.181,0.05
			c0.533,0.147,0.765,0.345,0.696,0.587c-0.074,0.262-0.342,0.327-0.8,0.2c-0.036-0.01-0.072-0.02-0.108-0.03
			c-0.402-0.146-0.804-0.29-1.208-0.432c-0.476-0.161-0.953-0.319-1.431-0.474c-0.316-0.079-0.632-0.157-0.949-0.234
			c-0.244-0.059-0.488-0.117-0.732-0.175c-0.341-0.08-0.683-0.159-1.024-0.236c-0.52-0.083-1.041-0.162-1.562-0.237
			c-0.435-0.057-0.871-0.112-1.306-0.165c-0.025-0.005-0.062-0.012-0.11-0.022c-0.466-0.093-0.674-0.261-0.626-0.508
			c0.052-0.267,0.348-0.349,0.888-0.241c0.061,0.012,0.123,0.025,0.184,0.037c0.172,0.035,0.436,0.088,0.792,0.163
			c0.354,0.074,0.618,0.131,0.791,0.168c0.929,0.201,1.551,0.067,1.873-0.422c0.321-0.488,0.788-2.029,1.399-4.627
			c0.911-3.874,1.821-7.748,2.732-11.622c0.517-2.197,0.705-3.477,0.561-3.838c-0.144-0.361-0.593-0.629-1.346-0.795
			c-0.406-0.09-0.89-0.166-1.452-0.228c-0.829-0.09-1.271-0.135-1.33-0.147c-0.581-0.116-0.843-0.31-0.789-0.59
			c0.054-0.279,0.346-0.369,0.876-0.263c0.029,0.006,0.058,0.012,0.088,0.018c0.426,0.085,0.852,0.172,1.277,0.262
			c0.587,0.123,1.173,0.25,1.758,0.38c0.176,0.039,0.446,0.1,0.812,0.183c0.365,0.083,0.637,0.147,0.811,0.188
			c0.701,0.165,0.987,0.516,0.857,1.045C272.629,10.727,271.941,13.548,271.252,16.369z"/>
		<path fill="#FFFFFF" d="M299.932,38.95c0.033-0.086,0.067-0.171,0.1-0.257c-0.085,0.044-0.169,0.087-0.254,0.131
			c-0.542,0.27-1.216,0.493-2.019,0.676c-2.066,0.452-4.092,0.167-6.168-0.841c-1.627-0.789-2.776-1.784-3.469-3.035
			c-0.693-1.249-0.789-2.51-0.248-3.79c0.453-1.069,1.231-1.83,2.356-2.26c1.124-0.429,2.404-0.459,3.82-0.073
			c0.956,0.272,2.054,0.673,3.286,1.215c2.035,0.896,3.602,1.382,4.735,1.397c1.13,0.015,1.975-0.447,2.523-1.415
			c0.558-0.985,0.522-2.057-0.136-3.209c-0.657-1.149-1.822-2.168-3.483-3.01c-1.739-0.88-3.333-1.274-4.743-1.205
			c-1.412,0.07-2.312,0.576-2.715,1.483c-0.147,0.33-0.104,0.546,0.128,0.651c0.051,0.023,0.147,0.016,0.289-0.02
			c0.009-0.02,0.062-0.071,0.162-0.151c0.34-0.271,0.771-0.289,1.289-0.049c0.776,0.36,1.007,0.874,0.694,1.532
			c-0.166,0.35-0.48,0.573-0.939,0.671c-0.46,0.099-0.926,0.039-1.403-0.179c-0.577-0.263-0.991-0.666-1.248-1.216
			c-0.258-0.549-0.28-1.073-0.062-1.574c0.49-1.127,1.564-1.784,3.249-1.92c1.683-0.135,3.548,0.288,5.546,1.298
			c2.022,1.023,3.403,2.254,4.13,3.62c0.786,1.505,0.659,3.119-0.329,4.83c-1.096,1.9-2.191,3.8-3.287,5.699
			c-0.318,0.551-0.636,1.102-0.953,1.653c-0.849,1.637-0.72,2.769,0.377,3.427c1.207,0.727,2.248,0.398,3.138-1.021
			c0.03-0.048,0.06-0.096,0.09-0.144c0.263-0.422,0.527-0.844,0.79-1.267c0.324-0.571,0.645-0.758,0.963-0.557
			c0.273,0.172,0.288,0.452,0.043,0.836c-0.244,0.384-0.489,0.769-0.733,1.153c-1.443,2.108-3.001,2.614-4.711,1.585
			c-1.602-0.959-1.979-2.312-1.111-4.127C299.73,39.307,299.831,39.128,299.932,38.95z M292.038,38.078
			c1.826,0.89,3.639,1.123,5.512,0.692c1.87-0.43,3.269-1.391,4.153-2.954c0.542-0.958,1.083-1.917,1.625-2.875
			c0.112-0.197,0.119-0.324,0.022-0.378c-0.025-0.014-0.225,0.03-0.599,0.133c-1.208,0.345-3.154-0.147-5.895-1.345
			c-1.596-0.697-2.84-1.092-3.717-1.224c-0.876-0.13-1.693-0.037-2.444,0.275c-0.851,0.342-1.466,0.967-1.854,1.862
			c-0.451,1.041-0.359,2.104,0.244,3.193C289.689,36.55,290.668,37.411,292.038,38.078z"/>
		<path fill="#FFFFFF" d="M318.199,36.146c-0.359,0.499-0.717,0.999-1.076,1.498c1.653-0.577,3.289-0.593,4.877-0.038
			c1.343,0.483,2.592,1.191,3.727,2.117c1.669,1.361,2.782,2.796,3.34,4.243c0.557,1.448,0.514,2.778-0.103,3.972
			c-0.426,0.814-1.29,1.922-2.585,3.33c-0.57,0.62-1.141,1.24-1.711,1.86c-1.803,1.961-2.81,3.215-3.023,3.762
			c-0.214,0.548,0.051,1.163,0.787,1.865c0.135,0.129,0.344,0.329,0.623,0.599c0.28,0.271,0.486,0.473,0.62,0.605
			c0.048,0.047,0.096,0.094,0.144,0.142c0.422,0.416,0.541,0.715,0.363,0.892c-0.193,0.192-0.469,0.108-0.83-0.25
			c-0.029-0.029-0.058-0.057-0.086-0.085c-0.318-0.345-0.637-0.689-0.959-1.029c-0.373-0.422-0.749-0.842-1.126-1.258
			c-0.273-0.256-0.547-0.509-0.821-0.762c-0.186-0.171-0.373-0.342-0.56-0.512c-0.286-0.259-0.572-0.517-0.86-0.773
			c-0.429-0.336-0.86-0.669-1.292-0.999c-0.372-0.277-0.746-0.552-1.12-0.824c-0.04-0.034-0.08-0.068-0.121-0.102
			c-0.363-0.306-0.465-0.554-0.304-0.748c0.174-0.209,0.485-0.128,0.93,0.248c0.04,0.034,0.081,0.068,0.121,0.103
			c0.14,0.119,0.357,0.304,0.648,0.554c0.291,0.251,0.506,0.438,0.646,0.56c0.779,0.681,1.416,0.898,1.923,0.635
			c0.505-0.263,1.659-1.388,3.457-3.376c0.571-0.632,1.142-1.264,1.714-1.897c1.935-2.138,2.9-3.812,2.869-5.025
			c-0.036-1.732-1.129-3.542-3.292-5.302c-2.651-2.151-5.192-2.734-7.468-1.839c-0.936,0.359-1.941,1.302-3.027,2.816
			c-0.576,0.803-1.153,1.606-1.729,2.409c-1.55,2.16-2.398,3.523-2.548,4.088c-0.148,0.567,0.178,1.137,0.974,1.731
			c0.146,0.11,0.367,0.274,0.659,0.496c0.292,0.221,0.51,0.389,0.656,0.5c0.052,0.04,0.104,0.08,0.156,0.12
			c0.456,0.352,0.606,0.631,0.451,0.829c-0.168,0.214-0.437,0.176-0.809-0.112c-0.103-0.079-0.144-0.111-0.124-0.096
			c-0.341-0.306-0.684-0.611-1.029-0.913c-0.408-0.35-0.817-0.696-1.229-1.04c-0.316-0.231-0.632-0.46-0.95-0.688
			c-0.19-0.136-0.381-0.272-0.572-0.407c-0.297-0.211-0.595-0.42-0.894-0.627c-0.468-0.283-0.936-0.562-1.406-0.838
			c-0.395-0.225-0.791-0.448-1.188-0.668c-0.021-0.014-0.053-0.035-0.097-0.064c-0.41-0.269-0.548-0.508-0.412-0.719
			c0.147-0.229,0.46-0.189,0.938,0.124c0.054,0.035,0.108,0.071,0.161,0.106c0.151,0.1,0.378,0.25,0.681,0.453
			c0.301,0.202,0.527,0.355,0.677,0.457c0.837,0.569,1.492,0.699,1.977,0.373c0.484-0.327,1.494-1.574,3.026-3.747
			c1.027-1.458,2.054-2.916,3.082-4.374c0.942-1.337,1.354-1.922,1.237-1.755c0.633-0.999,0.846-1.684,0.638-2.052
			c-0.128-0.228-0.408-0.493-0.843-0.791c-0.145-0.099-0.544-0.374-1.2-0.814c-0.384-0.216-0.768-0.43-1.153-0.642
			c-0.489-0.321-0.654-0.602-0.493-0.852c0.16-0.249,0.464-0.229,0.91,0.063c0.173,0.114,0.544,0.384,1.109,0.817
			c0.283,0.217,0.559,0.417,0.828,0.601c0.233,0.159,0.465,0.318,0.697,0.478c0.146,0.101,0.387,0.247,0.723,0.441
			c0.336,0.193,0.577,0.343,0.722,0.446c0.34,0.241,0.505,0.459,0.497,0.648C318.74,35.301,318.558,35.646,318.199,36.146z"/>
	</g>
</g>
<g opacity="0.4">
	<path fill="#FFFFFF" d="M1.527,99.678c1.689,0,3.941-0.985,4.504-2.674c0.845,1.267,2.252,1.83,4.223,1.83
		c2.533,0,4.082-0.422,5.771-0.704c1.548-0.281,3.097-0.704,5.349-0.704c10.978,0,15.482,8.304,15.482,16.327v28.29
		c0,3.097-2.533,8.022-6.615,9.571c2.956,1.689,6.615,5.208,6.615,10.697v28.712c0,11.964-8.585,14.356-13.512,14.356
		c-3.378,0-5.489-0.141-7.319-0.562c-1.83-0.423-3.378-0.845-6.193-0.845c-1.97,0-3.096,0.422-3.659,1.126
		c-0.422-1.407-3.237-2.675-4.786-2.533l1.126-12.527h1.126v3.941c0,1.83,0.422,2.393,1.126,2.393c0.845,0,0.985-0.985,0.985-2.533
		v-28.009c0-7.459-1.126-10.134-2.533-11.823c1.267-0.844,1.688-1.689,1.688-2.674c0-0.985-0.422-1.97-1.688-2.956
		c2.111-1.267,2.533-3.519,2.533-12.808V107.7c0-1.408-0.281-1.97-0.845-1.97c-0.562,0-0.844,0.562-0.844,1.83v4.363H2.935
		L1.527,99.678z M17.15,143.872c0,3.378,1.548,4.786,4.082,4.786c1.97,0,4.082-0.985,4.082-4.786v-33.92
		c0-2.956-0.985-5.208-4.082-5.208c-3.519,0-4.082,2.111-4.082,5.208V143.872z M17.15,193.838c0,2.955,0.845,5.066,4.082,5.066
		c3.237,0,4.082-2.111,4.082-5.066v-33.216c0-2.393-0.704-4.926-4.082-4.926c-3.66,0-4.082,2.674-4.082,4.926V193.838z"/>
	<path fill="#FFFFFF" d="M44.596,163.859c0-7.319-1.126-9.149-2.111-9.993c0.845-0.563,1.548-1.689,1.548-2.674
		c0-1.126-0.563-2.393-1.548-2.815c0.985-1.407,2.111-3.378,2.111-9.993v-30.12c0-1.83-0.281-2.393-0.844-2.393
		c-0.704,0-0.845,0.704-0.985,2.393v3.659h-0.985l-1.267-12.104c1.126,0.141,3.941-1.267,4.504-2.393
		c0.563,0.422,1.267,0.704,2.252,0.985c0.844,0.282,1.97,0.422,3.096,0.422c2.393,0,4.504-0.563,5.489-1.407
		c0.563,1.407,2.956,2.674,4.363,2.533l-1.548,12.808h-0.985v-5.349c0-1.267-0.282-1.688-0.845-1.688s-0.704,0.562-0.704,1.97
		v30.683c0,7.037,1.126,8.867,2.252,9.993c-0.985,0.422-1.548,1.689-1.548,2.815s0.704,2.111,1.548,2.674
		c-1.267,1.267-2.252,4.082-2.252,9.993v29.698c0,2.674,0.281,3.096,0.844,3.096c0.704,0,0.845-0.562,0.845-1.688v-3.519h1.267
		l0.704,11.26c-1.407-0.141-3.659,1.407-4.363,2.674c-0.563-0.422-1.126-0.845-2.111-0.985c-0.845-0.281-1.83-0.422-3.378-0.422
		c-2.956,0-4.082,0.562-5.349,1.407c-0.985-1.548-2.956-2.814-4.363-3.097L41.64,190.6h1.126v4.363c0,1.548,0.141,1.971,0.985,1.971
		c0.563,0,0.844-0.704,0.844-2.956V163.859z"/>
	<path fill="#FFFFFF" d="M66.412,164.14c0-6.333-1.689-9.289-2.674-10.556c1.126-0.985,1.548-1.97,1.548-2.956
		c0-0.844-0.422-1.97-1.548-3.237c1.548-1.83,2.674-4.082,2.674-10.838v-28.712c0-2.252-0.141-2.533-0.844-2.533
		s-0.845,0.563-0.845,3.096v3.097h-1.267l-1.267-11.4c1.97-0.141,4.082-1.689,4.504-2.815c1.267,0.845,3.941,1.548,5.348,1.548
		c1.971,0,4.223-0.844,5.63-1.126c1.548-0.281,3.097-0.281,5.63-0.281c8.867,0,14.778,5.771,14.778,13.793v24.913
		c0,7.6,1.126,9.852,2.111,11.119c-1.689,0.985-1.83,2.393-1.83,3.237c0,0.844,0.282,2.252,1.83,3.237
		c-1.126,1.126-2.111,4.082-2.111,12.245v22.66c0,14.075-8.585,16.749-13.934,16.749c-3.237,0-5.63-0.281-7.741-0.704
		c-2.111-0.422-3.8-0.703-5.771-0.703c-1.548,0-2.815,0.281-4.223,1.407c-0.704-1.688-2.815-2.674-4.222-2.533l0.985-12.245h0.985
		v4.081c0,1.971,0.282,2.534,1.126,2.534c0.845,0,1.126-0.563,1.126-2.533V164.14z M77.813,138.383c0,5.912,0.844,8.023,2.393,9.43
		c-1.83,0.563-2.393,1.971-2.393,2.815c0,0.704,0.281,2.252,2.252,3.237c-1.548,1.548-2.252,3.941-2.252,9.711v28.431
		c0,5.63,1.689,6.334,4.223,6.334c2.674,0,4.082-0.704,4.082-6.334v-28.29c0-6.052-1.407-8.867-2.674-9.852
		c1.548-0.704,2.111-1.83,2.111-2.815s-0.422-2.111-1.689-3.237c0.985-1.548,2.252-3.8,2.252-9.571v-26.742
		c0-5.349-0.563-7.741-4.082-7.741c-3.237,0-4.223,2.393-4.223,7.741L77.813,138.383z"/>
	<path fill="#FFFFFF" d="M158.038,165.688c0.141-8.022-1.126-11.26-1.971-12.104c0.563-0.563,1.267-1.548,1.267-2.815
		c0-0.844-0.141-2.111-1.267-2.815c0.704-0.844,1.971-4.504,1.971-10.415v-14.638h-0.704l-1.97,17.03
		c-0.422,3.378-0.282,7.038,0,7.882c-0.985,0.563-1.689,1.689-1.689,2.674c0,1.126,0.563,2.674,1.548,3.096
		c-0.845,0.985-1.408,3.941-2.111,9.712l-4.363,39.409c-0.985,0-2.393,1.267-2.956,2.674c-0.704-1.407-2.393-2.674-3.237-2.674
		l-4.222-38.002c-0.985-8.726-1.548-10.274-2.111-11.119c0.844-0.704,1.267-1.688,1.267-2.814s-0.704-2.111-1.548-2.956
		c0.422-0.844,0.422-2.252-0.141-7.741l-1.689-17.171h-0.844v14.919c0,6.756,1.407,9.43,1.97,10.134
		c-0.704,0.704-1.126,1.689-1.126,2.815c0,1.267,0.282,1.97,1.267,2.814c-1.126,1.548-2.111,8.023-2.111,14.356v27.305
		c0,1.548,0.422,1.83,1.126,1.83c0.704,0,0.985-0.141,0.985-1.549v-4.645h1.126l1.97,11.823c-1.548,0-3.519,1.126-4.082,2.674
		c-0.282-0.422-0.845-0.845-1.689-0.985c-0.845-0.281-1.689-0.422-2.674-0.422c-1.548,0-3.237,0.703-3.941,1.407
		c-0.704-1.126-3.237-2.533-4.645-2.533l1.267-12.386h1.126v5.066c0,1.126,0.282,1.408,0.844,1.408c0.704,0,0.845-0.142,0.845-1.689
		v-30.683c0-8.163-1.267-9.993-2.252-10.979c0.985-0.844,1.407-1.548,1.407-2.814c0-1.267-0.281-1.971-1.548-2.815
		c0.985-0.844,2.393-2.814,2.393-10.556v-28.431c0-2.815-0.281-3.237-0.845-3.237c-0.704,0-1.126,0.704-1.126,2.111v3.8h-1.267
		l-0.985-11.823c1.689,0,4.223-1.548,4.786-2.393c0.563,0.281,1.408,0.704,2.534,0.985c0.985,0.282,2.252,0.422,3.237,0.422
		c2.252,0,4.926-0.844,5.912-1.407c0.704,0.985,3.237,1.97,5.208,1.97l4.222,41.239h0.845l4.363-41.239
		c1.83,0,4.504-1.126,5.208-1.97c0.563,0.281,1.548,0.704,2.674,0.985c1.126,0.282,2.393,0.422,3.096,0.422
		c1.83,0,4.926-0.563,6.052-1.407c0.422,1.126,2.533,2.393,4.082,2.393l-1.126,12.104h-0.985v-3.94c0-1.267-0.141-1.83-0.845-1.83
		c-0.563,0-0.845,0.985-0.845,2.534v28.572c0,7.741,1.408,10.134,2.252,10.696c-0.844,0.563-1.267,1.83-1.267,2.815
		c0,0.844,0.563,2.111,1.689,2.814c-1.126,0.704-2.674,3.237-2.674,12.808v29.275c0,0.985,0.282,1.268,0.985,1.268
		c0.704,0,1.126-0.423,1.126-1.126v-5.067h0.985l1.548,11.964c-1.548,0-3.66,0.985-3.941,2.674
		c-0.563-0.562-1.548-0.845-2.534-1.126c-1.126-0.141-2.252-0.281-3.519-0.281c-2.252,0-4.786,0.422-6.052,1.407
		c-0.422-1.267-3.096-2.814-4.645-2.814l1.267-11.683h0.985v4.363c0,1.407,0.422,1.83,0.985,1.83c0.704,0,1.126-0.845,1.126-2.956
		V165.688z"/>
	<path fill="#FFFFFF" d="M186.327,195.526c0,1.126,0.422,1.83,0.985,1.83s0.985-0.845,1.126-1.548l0.282-4.927h0.985v12.245
		c-1.267,0-2.814,0.845-3.237,2.252c-0.563-0.562-1.267-0.845-2.111-1.126c-0.844-0.141-1.689-0.281-2.393-0.281
		c-1.408,0-2.815,0.422-3.941,1.407c-0.422-1.407-2.252-2.533-3.237-2.533l0.845-11.683h0.985v4.363
		c0,0.985,0.282,1.549,1.126,1.549c0.845,0,0.985-0.985,0.985-1.549l2.111-30.683c0.563-7.178-0.563-9.43-1.548-10.978
		c0.704-0.563,1.548-1.689,1.548-2.815c0-0.985-0.563-2.111-1.408-2.956c1.548-1.689,2.956-3.519,3.66-12.667l3.096-35.609
		c1.267-0.282,2.111-1.126,2.393-2.393c0.422,0.422,1.408,0.704,2.393,0.985c1.126,0.282,2.393,0.422,3.237,0.422
		c1.971,0,4.504-0.563,5.349-1.407c0.422,1.407,1.267,2.111,2.252,2.393l2.956,35.609c0.845,10.979,2.111,11.4,3.8,12.667
		c-1.267,0.704-1.83,1.97-1.83,2.815c0,0.985,0.704,2.393,1.83,2.956c-0.985,1.267-1.971,4.926-1.548,11.119l2.252,30.401
		c0,1.126,0.422,1.83,1.126,1.83c0.563,0,0.985-0.985,0.985-1.689v-4.363h1.126l1.267,11.683c-1.126,0-2.674,1.126-2.956,2.533
		c-0.563-0.562-1.689-0.845-2.674-1.126c-1.126-0.141-2.252-0.281-3.237-0.281c-1.971,0-4.504,0.422-5.771,1.407
		c-0.422-1.407-2.674-2.393-4.082-2.393l-0.281-11.541h0.985l0.422,4.504c0.141,0.562,0.422,1.267,0.985,1.267
		s0.704-0.985,0.563-1.971l-0.985-14.215c-0.282-1.407-1.126-2.956-2.674-2.956h-4.504c-1.407,0-2.252,1.407-2.252,2.956
		L186.327,195.526z M190.69,140.917c0,2.815,0.563,6.333,1.267,7.178c-0.704,0.704-1.267,1.548-1.267,2.956
		c0,1.267,0.282,2.252,1.126,2.815c-1.126,1.126-2.533,5.489-2.815,9.148c-0.141,3.66,0.704,4.786,2.956,4.786
		c2.534,0,3.378-0.985,3.097-4.786c-0.281-4.082-1.689-7.741-2.533-9.148c0.844-0.844,1.267-1.689,1.126-2.815
		c0-1.126-0.422-2.111-1.267-2.956c0.704-0.845,0.845-5.489,0.845-7.178l-0.563-13.652c0-1.408-0.282-1.971-0.704-1.971
		c-0.422,0-0.563,0.563-0.563,1.971L190.69,140.917z"/>
	<path fill="#FFFFFF" d="M230.522,188.489c0,6.052,0.422,7.741,1.548,7.741c0.422,0,0.562-0.141,0.562-1.407v-3.801h1.126
		l1.408,11.964c-1.689,0-4.082,1.267-4.926,2.393c-0.563-0.281-1.548-0.704-2.674-0.985s-2.252-0.422-3.237-0.422
		c-1.83,0-4.504,0.562-5.489,1.407c-0.563-0.985-3.378-2.674-4.645-2.674l1.689-12.668h1.126v3.801c0,0.985,0.141,1.971,0.985,1.971
		c0.563,0,0.845-0.282,0.845-2.394v-26.319c0-6.896-0.985-11.119-2.674-13.371c0.563-0.422,0.985-0.845,1.267-1.267
		c0.281-0.422,0.422-0.844,0.422-1.267c0-0.985-0.563-1.97-1.97-2.956c2.815-2.252,2.956-7.319,2.956-16.327v-23.646
		c0-1.971-0.281-2.111-0.704-2.111c-0.563,0-0.845,0.282-0.845,2.252v3.941h-1.126l-1.407-12.949
		c1.689,0.282,4.082-0.704,4.645-1.97c0.282,0.281,0.985,0.704,1.83,0.985c0.845,0.282,1.971,0.422,2.815,0.422
		c1.971,0,3.66-0.281,5.349-0.563c1.548-0.281,3.378-0.844,6.615-0.844c6.052,0,14.779,4.082,14.779,14.638v26.32
		c0,8.022-2.674,10.837-6.897,13.089c3.237,1.83,6.897,4.785,6.897,11.541V194.4c0,1.267,0.281,1.971,0.844,1.971
		c0.422,0,0.704-0.281,0.704-1.126v-4.082h1.126l1.407,11.683c-1.267,0-3.659,1.407-4.223,2.533
		c-0.281-0.281-0.985-0.562-1.688-0.704c-0.704-0.141-1.408-0.141-1.971-0.141c-1.126,0-2.815,0.141-3.8,0.845
		c-0.422-1.688-2.393-3.8-3.941-3.8v-39.972c0-5.208-1.548-6.052-4.645-6.052c-2.956,0-4.082,0.985-4.082,5.911V188.489z
		 M230.522,143.309c0,3.941,1.267,5.067,4.222,5.067c3.097,0,4.504-1.126,4.504-6.756v-31.246c0-4.363-2.393-5.489-4.645-5.489
		c-2.533,0-4.082,1.83-4.082,5.349V143.309z"/>
	<path fill="#FFFFFF" d="M255.997,99.396c1.548,0,4.082-0.985,4.786-1.97c0.562,0.422,1.407,0.704,2.393,0.985
		c1.126,0.282,2.252,0.422,3.237,0.422c1.829,0,4.926-0.563,6.192-1.407c0.563,1.126,2.533,2.111,3.941,1.97l-1.408,12.386h-0.844
		l-0.282-4.222c0-0.985-0.422-1.548-0.985-1.548c-0.844,0-1.267,0.985-1.267,2.815v36.454h0.423l11.963-37.439
		c0.282-1.126,0.282-1.83-0.281-2.111c-0.562-0.282-1.126-0.141-1.548,1.126l-1.549,5.066l-0.985-0.141l2.815-12.386
		c1.971,0,4.223-0.985,4.785-1.97c0.423,0.281,0.985,0.563,1.549,0.844c0.703,0.282,1.407,0.563,1.97,0.563
		c1.267,0,2.956-0.844,3.66-1.407c0.703,0.844,2.674,1.97,4.222,1.97l-4.222,12.526h-1.126l1.126-4.222
		c0.281-0.844,0.141-1.408-0.423-1.548c-0.562-0.141-1.126,0.141-1.688,1.971l-8.586,27.305c0.422,4.504,1.548,8.867,4.504,12.667
		c-1.267,0.704-1.83,2.393-1.548,3.378c0.422,1.548,1.267,2.111,2.393,2.674c-1.126,1.267-1.971,3.659-1.126,8.726l5.066,33.076
		c0.141,1.267,0.563,1.688,1.126,1.688c0.423,0,0.563-0.422,0.563-1.407v-4.645h0.845l2.252,11.26c-1.126,0-2.675,1.548-3.237,2.533
		c-0.423-0.422-1.408-0.704-2.534-0.985s-2.252-0.422-3.236-0.422c-1.83,0-4.646,0.422-5.771,1.407
		c-0.844-1.267-3.096-2.533-4.926-2.393l-0.985-11.823h0.845l1.126,4.504c0.422,1.408,0.985,1.689,1.688,1.408
		c0.563-0.282,0.563-0.704,0.282-2.393l-5.912-38.706h-0.281l-3.237,10.556v28.712c0,1.407,0.141,1.83,0.845,1.83
		c0.563,0,0.985-0.282,0.985-1.689v-4.363h0.985l1.267,11.823c-1.689,0-3.659,1.407-4.223,2.533
		c-0.562-0.422-1.688-0.845-2.814-0.985c-0.985-0.281-2.252-0.422-3.237-0.422c-2.111,0-4.363,0.562-5.489,1.407
		c-0.563-1.267-2.956-2.814-4.222-2.814l1.407-12.527h0.845v4.927c0,1.126,0.422,1.688,0.985,1.688c0.704,0,0.845-0.985,0.845-2.393
		v-28.431c0-8.726-1.126-11.119-2.533-12.526c0.985-0.563,1.83-1.83,1.83-3.097c0-1.126-0.704-2.111-1.83-3.096
		c1.548-1.126,2.533-4.082,2.533-10.416v-29.697c0-1.83,0-2.111-0.704-2.111s-1.126,0.422-1.126,2.393v4.082h-1.126L255.997,99.396z
		"/>
	<path fill="#FFFFFF" d="M314.83,194.119c0,3.378,1.125,4.363,4.081,4.363c2.675,0,3.519-0.985,3.519-7.178v-10.134
		c0-3.237-0.141-6.052-0.985-7.741c3.801-1.548,4.927-2.815,4.927-11.542h0.985c0,9.29,0.985,9.993,4.926,11.823
		c-0.985,1.267-1.548,3.941-1.548,7.46v12.526c0,6.896,0.281,7.741,1.267,8.867c-1.126,0.281-3.378,1.548-3.801,2.393
		c-0.703-0.282-1.267-0.563-1.97-0.704c-0.704-0.141-1.408-0.281-2.252-0.281c-1.83,0-2.956,0.422-3.941,0.703
		c-1.126,0.282-2.252,0.704-4.363,0.704c-1.688,0-3.096-0.562-4.504-0.845c-1.407-0.281-3.096-0.562-4.785-0.562
		c-1.267,0-2.533,0.422-3.519,1.407c-0.563-1.267-2.815-2.674-4.223-2.956l1.267-12.667h1.267v4.504
		c0,1.689,0.141,2.252,0.845,2.252s0.985-0.562,0.985-2.111v-27.023c0-9.148-1.549-12.526-2.533-13.934
		c0.984-0.563,1.688-1.83,1.688-2.815c0-0.844-0.704-1.97-1.688-2.815c1.267-1.267,2.533-4.785,2.533-11.26v-29.135
		c0-1.126-0.141-1.548-0.704-1.548c-0.703,0-0.985,0.422-1.126,1.548v4.645h-1.126l-1.267-12.104
		c1.83-0.141,3.378-1.126,4.363-2.533c0.562,0.422,1.267,0.704,2.252,0.985c0.985,0.282,2.252,0.422,3.378,0.422
		c2.252,0,3.801-0.422,5.067-0.844c1.267-0.422,2.252-0.563,3.237-0.563c1.688,0,2.814,0.281,3.94,0.563
		c1.126,0.281,2.252,0.844,3.94,0.844c0.985,0,2.394-0.704,3.379-1.407c0.422,1.126,2.252,2.393,3.659,2.533
		c-0.845,0.704-1.267,2.674-1.267,6.756v13.512c0,3.66,0.141,6.052,0.984,7.601c-3.94,1.689-4.645,3.519-4.645,11.541h-1.126
		c0-7.741-0.985-9.852-4.926-11.541c0.985-1.267,1.407-3.097,1.407-7.741v-8.585c0-4.926-1.126-7.038-3.8-7.038
		c-2.393,0-3.8,1.548-3.8,7.178v28.009c0,6.193,0.984,6.756,2.533,6.756c0.985,0,1.688-1.267,1.688-2.111
		c0-1.126-0.281-1.548-0.562-2.252c-0.282-0.845-0.563-1.971-0.563-3.097c0-2.252,2.393-3.94,3.66-3.8
		c-0.423,0.704-0.563,1.407-0.563,2.252c0,0.844,0.563,1.689,1.971,3.096c0.703,0.704,1.688,2.393,1.688,3.8
		c0,1.548-0.703,2.956-2.252,3.941l3.097,2.674l-3.237,2.393c1.407,1.126,2.393,2.533,2.393,4.504c0,1.689-0.703,2.815-1.688,3.941
		c-1.83,1.689-2.675,2.534-2.675,3.519c0,0.845,0.282,1.689,0.845,2.393c-1.688,0.281-3.519-1.126-3.519-3.66
		c0-1.408,0.422-2.674,0.845-3.66c0.422-0.844,0.562-1.548,0.562-2.674c0-1.267-1.126-2.111-1.97-2.111
		c-2.252,0-2.252,1.83-2.252,9.711V194.119z"/>
	<path fill="#FFFFFF" d="M357.335,195.104c0,1.267,0.562,1.688,1.267,1.688c0.703,0,0.844-0.703,0.844-1.548v-3.8h1.268l0.984,11.26
		c-1.407,0-3.377,1.407-4.081,2.674c-0.563-0.562-1.689-0.845-2.815-1.126c-0.984-0.141-2.252-0.281-3.236-0.281
		c-1.83,0-4.363,0.422-5.489,1.407c-0.563-1.267-3.378-2.533-4.786-2.533l1.689-11.119h1.126v3.659c0,1.126,0.422,1.549,0.985,1.549
		c0.562,0,0.562-0.845,0.562-1.549v-30.964c0-5.349-0.985-8.586-2.252-9.712c0.845-0.562,1.408-1.688,1.408-2.674
		s-0.563-2.111-1.549-2.815c1.267-1.267,2.393-3.8,2.393-10.134v-31.246c0-2.533-0.703-3.237-1.971-3.237
		c-1.407,0-2.252,0.704-2.252,3.237v12.949c0,5.349,0.423,6.193,1.268,7.601c-3.941,1.548-4.927,3.378-4.927,11.823h-0.985
		c0-7.459-0.844-10.134-4.785-11.823c0.704-0.704,1.689-2.815,1.689-7.601V99.959c1.407,0,3.378-1.267,4.081-2.533
		c0.423,0.422,0.985,0.704,1.689,0.985c0.703,0.282,1.407,0.422,2.111,0.422c1.407,0,2.955-0.704,3.659-1.407
		c0.562,0.422,1.407,0.704,2.393,0.985c0.985,0.282,2.252,0.422,3.519,0.422c3.237,0,5.63-0.563,6.615-1.407
		c0.422,0.281,0.985,0.704,1.548,0.985c0.704,0.282,1.408,0.422,2.111,0.422c1.408,0,3.097-0.563,3.801-1.407
		c0.703,1.267,2.674,2.533,4.081,2.533v20.831c0,4.786,0.985,6.896,1.689,7.601c-3.941,1.689-4.786,4.363-4.786,11.823h-0.984
		c0-8.445-0.985-10.275-4.927-11.823c0.845-1.408,1.267-2.252,1.267-7.601v-12.949c0-2.533-0.844-3.237-2.252-3.237
		c-1.267,0-1.97,0.704-1.97,3.237v31.246c0,6.333,1.267,9.148,2.111,9.993c-0.845,0.422-1.549,1.689-1.549,2.674
		c0,1.126,0.563,2.252,1.548,2.674c-1.267,0.845-2.11,3.659-2.11,9.993V195.104z"/>
	<path fill="#FFFFFF" d="M375.351,163.859c0-7.319-1.126-9.149-2.111-9.993c0.845-0.563,1.548-1.689,1.548-2.674
		c0-1.126-0.562-2.393-1.548-2.815c0.985-1.407,2.111-3.378,2.111-9.993v-30.12c0-1.83-0.282-2.393-0.845-2.393
		c-0.704,0-0.845,0.704-0.985,2.393v3.659h-0.985l-1.267-12.104c1.126,0.141,3.94-1.267,4.504-2.393
		c0.563,0.422,1.267,0.704,2.252,0.985c0.845,0.282,1.971,0.422,3.097,0.422c2.393,0,4.504-0.563,5.489-1.407
		c0.562,1.407,2.955,2.674,4.362,2.533l-1.548,12.808h-0.985v-5.349c0-1.267-0.281-1.688-0.844-1.688
		c-0.563,0-0.704,0.562-0.704,1.97v30.683c0,7.037,1.126,8.867,2.252,9.993c-0.985,0.422-1.548,1.689-1.548,2.815
		s0.703,2.111,1.548,2.674c-1.267,1.267-2.252,4.082-2.252,9.993v29.698c0,2.674,0.281,3.096,0.845,3.096
		c0.703,0,0.844-0.562,0.844-1.688v-3.519h1.268l0.703,11.26c-1.407-0.141-3.659,1.407-4.363,2.674
		c-0.562-0.422-1.126-0.845-2.111-0.985c-0.844-0.281-1.829-0.422-3.378-0.422c-2.955,0-4.081,0.562-5.348,1.407
		c-0.985-1.548-2.956-2.814-4.363-3.097l1.407-11.682h1.126v4.363c0,1.548,0.141,1.971,0.985,1.971c0.562,0,0.845-0.704,0.845-2.956
		V163.859z"/>
	<path fill="#FFFFFF" d="M397.025,165.266c0-7.319-1.125-9.571-2.393-10.837c0.985-0.704,1.549-1.83,1.549-2.815
		s-0.563-2.252-1.549-3.237c1.549-1.407,2.393-3.096,2.393-11.26v-29.134c0-2.111-0.141-2.393-0.984-2.393
		c-0.704,0-1.126,0.563-1.126,1.971v4.222h-0.985l-1.408-12.386c1.971,0,3.941-0.844,4.927-1.97
		c0.704,0.281,1.267,0.563,1.971,0.844c0.703,0.282,1.548,0.563,2.393,0.563c1.829,0,3.237-0.844,4.363-1.407
		c0.703,1.126,2.955,2.393,4.645,2.111l9.43,48.839h0.704V107.56c0-1.548-0.563-1.689-1.126-1.689c-0.423,0-1.126,0.563-1.126,2.393
		v3.659h-1.126l-1.267-12.386c1.829,0,4.081-1.267,4.645-2.111c0.422,0.141,0.985,0.563,1.688,0.844
		c0.704,0.282,1.549,0.563,2.252,0.563c1.689,0,3.378-0.844,4.223-1.407c0.281,0.985,2.111,2.111,3.659,2.111l-1.126,12.104h-0.985
		v-3.8c0-1.407-0.422-1.83-1.126-1.83c-0.703,0-0.985,0.422-0.985,2.674v28.572c0,7.178,1.549,10.134,2.534,11.119
		c-1.549,1.126-1.689,2.111-1.689,3.097c0,0.985,0.704,2.252,1.971,2.956c-1.267,0.985-2.674,6.896-2.815,14.778l-0.422,33.779
		c-1.548,0-4.223,0.845-5.207,2.393c-1.127-1.548-3.379-2.111-5.067-2.111l-6.192-38.846c-0.985-5.771-2.394-8.867-3.66-9.993
		c0.704-0.704,1.126-1.971,0.985-2.956c0-1.126-0.141-1.971-1.548-3.237c0.703-1.408,0.562-4.926,0.141-7.459l-1.83-13.09h-0.703
		v13.09c0,3.941,0.703,6.756,1.548,7.6c-0.985,0.845-1.548,1.971-1.548,3.097c0,0.985,0.562,2.252,1.548,2.956
		c-0.985,1.407-1.548,4.645-1.548,11.4v29.557c0,1.83,0.562,2.111,1.126,2.111c0.422,0,0.985-0.422,0.985-2.111v-4.363h0.984
		l1.126,11.964c-1.829,0-4.222,0.985-5.066,2.393c-0.281-0.422-0.845-0.845-1.548-0.985c-0.704-0.281-1.549-0.422-2.252-0.422
		c-1.408,0-2.815,0.422-3.52,1.407c-0.703-1.407-2.674-2.533-4.222-2.533l1.267-11.823h0.985v5.067c0,1.126,0.562,1.407,1.126,1.407
		c0.703,0,0.984-0.704,0.984-2.956V165.266z"/>
	<path fill="#FFFFFF" d="M448.961,190.319c0,7.178,0.985,8.444,3.519,8.444c2.534,0,3.097-1.267,3.097-8.444v-21.253
		c0-2.393-0.141-2.533-0.704-2.533c-0.703,0-0.985,0.281-0.985,2.393v4.504h-1.267l-0.985-12.808
		c1.549,0.141,3.52-0.985,4.082-2.815c1.267,1.126,3.097,1.689,5.771,1.689c2.675,0,4.927-0.422,6.334-1.689
		c0.562,1.83,2.393,2.956,4.081,2.815l-1.548,12.949h-1.126v-4.645c0-2.393-0.141-2.674-0.985-2.674s-1.267,0.282-1.267,2.534
		v34.061c-0.985,0.281-1.83,1.407-2.111,2.533c-0.422-0.562-1.126-0.845-1.829-1.126c-0.704-0.141-1.549-0.281-2.252-0.281
		c-1.408,0-2.252,0.422-3.378,0.845c-1.268,0.422-3.237,0.562-5.489,0.562c-6.334,0-14.638-3.097-14.638-13.09v-26.741
		c0-9.29-0.985-10.416-2.252-11.823c1.267-0.704,1.688-1.408,1.688-2.674c0-0.563-0.562-1.83-1.688-2.674
		c1.407-1.267,2.252-3.237,2.252-12.808v-25.756c0-8.727,6.475-12.386,13.934-12.386c2.956,0,4.926,0.422,6.475,0.704
		c1.548,0.281,2.814,0.704,4.223,0.704c0.984,0,1.829-0.281,2.674-1.407c0.704,1.97,2.393,2.815,3.8,2.674
		c-0.844,0.985-1.407,2.393-1.407,9.289v10.979c0,4.363,0.985,5.911,2.111,6.756c-3.659,1.83-4.645,3.378-4.645,11.682h-1.126
		c0-8.163-0.704-9.852-4.504-11.682c0.845-0.845,1.267-2.393,1.267-6.756v-4.926c0-10.556-2.674-11.26-5.63-11.26
		c-3.378,0-5.489,0.704-5.489,11.26v20.268c0,9.148,0.985,11.4,2.393,12.667c-1.267,0.845-1.829,1.83-1.829,2.674
		s0.422,1.971,1.548,2.674c-1.689,1.83-2.111,6.896-2.111,14.356V190.319z"/>
</g>
<g opacity="0.4">
	<g>
		<path fill="#FFFFFF" d="M155.573,254.255c-0.263-0.042-0.411-0.316-0.387-0.611c0.202-2.52,0.405-5.039,0.607-7.559
			c0.051-0.642,0.225-0.987,0.468-0.987c5.379,0,10.757,0,16.136,0c0.194,0,0.501,0.125,0.468,0.56
			c-0.254,3.303-0.507,6.605-0.761,9.908c-0.048,0.625-0.198,0.983-0.392,0.959c-1.845-0.23-3.686-0.469-5.523-0.718
			c-3.502,5.41-6.962,10.122-10.32,14.009c-0.106,1.311-0.212,2.622-0.318,3.932c1.995,0.964,4.008,1.891,6.036,2.781
			c0.166,0.073,0.299,0.245,0.281,0.471c-0.259,3.208-0.517,6.415-0.776,9.623c-0.027,0.337-0.078,0.661-0.219,0.578
			c-8.119-4.796-15.893-10.399-23.207-16.809c-0.211-0.185-0.223-0.372-0.215-0.538c0.098-1.885,0.196-3.769,0.294-5.654
			c0.01-0.201,0.192-0.223,0.325-0.14c1.866,1.177,3.752,2.318,5.658,3.422c0.069-0.985,0.137-1.969,0.206-2.954
			c-2.577-5.451-5.246-10.086-8.078-13.778c-1.769-0.352-3.532-0.714-5.289-1.085c-0.256-0.055-0.419-0.186-0.42-0.332
			c0-1.257,0-2.515,0-3.772c0-0.315,0.243-0.461,0.487-0.462c7.918,0,15.836,0,23.753,0c0.316,0,0.503,0.097,0.476,0.437
			c-0.212,2.656-0.424,5.311-0.637,7.967c-0.039,0.486-0.162,0.515-0.354,0.484c-1.188-0.191-2.375-0.385-3.559-0.584
			c1.18,2.652,2.338,5.499,3.48,8.528c1.764-2.114,3.556-4.459,5.37-7.016c0.003-0.035,0.006-0.071,0.009-0.106
			C157.971,254.627,156.771,254.443,155.573,254.255z"/>
		<path fill="#FFFFFF" d="M214.919,245.097c0.438,0,0.542,0.571,0.503,1.798c-0.247,7.767-0.494,15.534-0.741,23.301
			c-0.026,0.82-0.12,1.386-0.371,1.366c-2.879-0.221-5.753-0.481-8.62-0.778c-0.175-0.018-0.324-0.034-0.301-0.587
			c0.144-3.326,0.287-6.651,0.431-9.976c-4.764-0.298-9.516-0.659-14.25-1.085c-0.139,2.327-0.277,4.654-0.416,6.981
			c2.65,0.355,5.309,0.68,7.974,0.975c0.248,0.028,0.34,0.193,0.309,0.808c-0.203,4.032-0.406,8.065-0.608,12.097
			c-0.031,0.615-0.34,0.717-0.642,0.663c-2.613-0.466-5.216-0.978-7.807-1.534c-0.147,2.475-0.295,4.951-0.442,7.426
			c4.891,1.273,9.833,2.353,14.811,3.239c0.138-3.223,0.277-6.446,0.415-9.67c0.031-0.712,0.144-1.576,0.547-1.523
			c3.075,0.408,6.161,0.76,9.254,1.055c0.177,0.017,0.266,0.437,0.231,1.585c-0.248,8.06-0.495,16.119-0.743,24.179
			c-0.017,0.575-0.14,1.132-0.636,1.049c-14.774-2.463-29.258-7.081-42.948-13.852c-0.315-0.155-0.61-0.238-0.552-0.993
			c0.253-3.316,0.505-6.632,0.758-9.948c0.043-0.566,0.227-1.013,0.445-0.933c1.834,0.684,3.678,1.339,5.532,1.965
			c0.597-8.314,1.193-16.627,1.79-24.941c-1.854-0.212-3.704-0.434-5.551-0.665c-0.195-0.024-0.35,0.081-0.292-0.672
			c0.273-3.589,0.547-7.178,0.82-10.767c0.024-0.313,0.286-0.565,0.652-0.566C187.953,245.097,201.436,245.097,214.919,245.097z"/>
		<path fill="#FFFFFF" d="M236.744,308.56c-0.397-0.007-0.605-0.772-0.602-1.62c0.016-4.117,0.033-8.233,0.049-12.35
			c0.003-0.764,0.161-1.267,0.42-1.263c1.46,0.02,2.921,0.024,4.381,0.012c-0.515-2.422-1.025-4.846-1.53-7.272
			c-2.654,0.001-5.308-0.044-7.961-0.135c-0.529,2.401-1.063,4.797-1.601,7.187c1.614,0.078,3.229,0.135,4.845,0.173
			c0.285,0.007,0.412,0.515,0.409,1.024c-0.022,4.2-0.045,8.4-0.067,12.6c-0.005,1.018-0.114,1.606-0.378,1.598
			c-5.988-0.179-11.967-0.704-17.905-1.575c-0.603-0.089-1.043-0.323-1.009-1.474c0.122-4.194,0.244-8.389,0.366-12.583
			c0.026-0.904,0.169-1.38,0.555-1.336c1.758,0.202,3.519,0.381,5.282,0.536c3.668-14.785,7.159-29.936,10.456-45.21
			c0.256-1.266,0.577-1.771,0.868-1.771c3.732,0,7.464,0,11.195,0c0.487,0,0.786,0.929,0.915,1.772
			c3.404,15.565,7.016,31.015,10.814,46.082c1.903-0.165,3.804-0.359,5.701-0.58c0.438-0.051,0.48,1.43,0.516,2.662
			c0.101,3.483,0.202,6.966,0.302,10.448c0.029,0.987-0.223,1.358-0.695,1.427C253.681,308.152,245.208,308.701,236.744,308.56z
			 M233.206,278.209c1.508,0.034,3.017,0.055,4.526,0.064c-0.654-3.333-1.3-6.667-1.937-10.001
			c-0.074-0.252-0.325-0.254-0.376-0.004C234.691,271.588,233.953,274.903,233.206,278.209z"/>
		<path fill="#FFFFFF" d="M293.467,245.097c0.632-0.005,5.923,0.518,8.209,2.733c1.63,1.618,4.088,4.703,4.476,9.746
			c0.359,4.668-1.845,8.679-4.055,11.749c2.109,2.051,3.431,3.141,4.652,9.424c0.261,1.144,0.542,1.883,0.929,1.737
			c0.509-0.194,1.775-1.832,1.46-5.884c-0.044-0.574-0.089-1.149-0.133-1.723c-0.029-0.371,0.048-0.647,0.29-0.721
			c0.949-0.29,1.896-0.585,2.841-0.887c0.168-0.054,0.283,0.153,0.339,0.863c0.169,2.129,0.337,4.259,0.506,6.388
			c0.502,6.23-2.877,12.904-4.648,13.842c-3.2,1.598-6.444,3.077-9.725,4.439c-1.612,0.69-3.394-2.67-3.896-4.542
			c-0.49-1.637-1.395-7.021-1.753-8.674c-1.15-5.344-3.649-5.12-4.223-4.996c-2.091,0.448-4.19,0.867-6.296,1.256
			c0.147,2.763,0.294,5.527,0.441,8.29c1.96-0.446,3.913-0.923,5.858-1.431c0.225-0.059,0.38-0.028,0.402,0.34
			c0.252,4.204,0.504,8.409,0.756,12.613c0.022,0.368-0.126,0.494-0.353,0.572c-8.145,2.792-16.477,4.884-24.903,6.275
			c-0.131,0.022-0.298-0.282-0.323-1.1c-0.138-4.479-0.276-8.959-0.414-13.438c-0.012-0.411,0.099-0.999,0.253-1.018
			c1.892-0.237,3.78-0.502,5.664-0.794c-0.388-10.192-0.776-20.384-1.163-30.575c-1.83,0.094-3.662,0.18-5.495,0.256
			c-0.223,0.009-0.377-0.149-0.409-1.215c-0.127-4.127-0.253-8.254-0.38-12.381c-0.018-0.572,0.062-1.145,0.232-1.145
			C272.893,245.097,283.18,245.097,293.467,245.097z M281.336,259.088c0.151,2.839,0.302,5.677,0.453,8.516
			c2.522-0.305,5.038-0.638,7.546-0.999c1.605-0.235,3.484-1.53,3.304-4.283c-0.217-3.317-2.797-3.94-3.214-3.908
			C286.733,258.658,284.037,258.883,281.336,259.088z"/>
		<path fill="#FFFFFF" d="M339.03,245.509c0.034-0.274,0.247-0.379,0.442-0.379c2.223-0.002,4.445-0.004,6.668-0.007
			c0.462,0.002,0.638,0.369,0.641,0.552c0.024,1.603,0.048,3.206,0.073,4.809c0.003,0.184-0.112,0.345-0.297,0.391
			c-2.56,0.631-5.134,1.239-7.722,1.823c-0.093,0.021-0.211,0.048-0.268-0.119c-0.888-1.822-3.522-1.988-4.285-1.884
			c-2.44,0.338-4.887,0.663-7.341,0.974c-0.599,0.076-2.365,0.431-2.183,2.716c0.197,2.442,3.038,1.717,3.984,1.506
			c1.51-0.304,3.016-0.619,4.517-0.946c2.343-0.503,7.752-1.204,9.141-1.266c1.38,0.125,6.201-0.347,6.15,3.318
			c-0.051,5.13-8.447,14.362-11.603,16.85c-1.953,1.596-3.935,3.137-5.946,4.623c-2.509,1.894-5.37,2.072-7.148,1.332
			c0.034,1.012,0.067,2.025,0.102,3.042c-0.013,0.437-0.143,0.63-0.303,0.735c-2.603,1.699-5.245,3.311-7.924,4.837
			c-0.165,0.094-0.255-0.098-0.292-0.561c-0.315-3.94-0.63-7.88-0.945-11.82c-0.023-0.288,0.016-0.723,0.207-0.798
			c2.838-1.115,5.648-2.297,8.427-3.545c0.187-0.084,0.32,0.065,0.395,0.399c0.747,3.173,4.484,1.282,4.728,1.13
			c2.749-1.549,5.459-3.176,8.126-4.881c0.245-0.156,1.554-1.246,1.478-2.453c-0.085-1.388-1.366-1.116-1.682-0.953
			c-2.175,1.145-4.375,2.242-6.596,3.291c-1.751,0.915-7.215,2.185-9.517,1.555c-4.079-1.003-6.421-5.928-6.746-10.049
			c-0.465-5.847,1.902-9.456,3.109-11.071c1.497-2.246,4.649-3.588,8.594-3.564c2.231,0,4.462,0,6.693,0
			c3.388,0.035,5.826,1.28,7.096,1.979C338.877,246.549,338.953,246.027,339.03,245.509z"/>
	</g>
</g>
<g>
	<path fill="#FFFFFF" d="M211.053,201.785c0-17.521,5.233-40.959,11.377-56.888c3.869-10.467,10.013-23.437,12.97-29.354
		c-1.819-0.683-3.185-0.91-5.46-0.91c-4.78,0-8.419,6.371-9.103,28.672l-26.167,0.227l-13.654-16.611V61.16h21.162
		c0.229,1.821,0.457,3.64,0.911,5.006c0.227,1.365,0.682,2.275,1.366,2.275c1.591,0,4.096-1.593,7.508-3.186
		c6.599-3.186,14.791-5.006,23.666-5.006c8.19,0,13.879,2.275,18.203,4.551c4.323,2.276,7.055,4.323,9.558,4.323
		c3.185,0,5.462-2.957,5.462-7.509h21.389l16.839,22.3c-1.593,23.665-15.929,41.642-24.348,61.211
		c-8.647,19.341-15.7,40.959-15.7,73.954v13.197h-41.642l-14.336-19.114V201.785z M246.096,198.827
		c0-32.995,10.238-55.295,20.023-74.408c10.013-18.887,20.252-34.816,20.252-54.612V65.71h-14.563c0,2.504-0.911,4.323-2.275,5.461
		c-1.593,1.366-3.414,2.048-6.144,2.048c-3.414,0-6.826-2.275-10.922-4.551c-4.096-2.048-9.558-4.551-16.839-4.551
		c-8.876,0-16.384,1.592-22.073,4.323c-3.414,1.592-8.647,3.869-10.922,3.869c-1.593,0-3.414-2.504-3.869-7.054h-13.654v58.025
		h20.025c0-23.893,8.192-35.043,17.521-35.043c4.323,0,8.876,0.682,13.654,2.275c4.778,1.821,11.377,4.323,15.473,3.869l1.139,0.682
		c-14.109,22.073-38,65.534-38,108.086v5.917h31.174V198.827z M282.276,69.579v1.821c0,20.934-14.108,39.594-25.942,63.486
		c-3.185-1.821-6.599-1.821-10.467,0c0.684,4.778,2.505,8.192,4.325,11.149c-6.6,6.827-15.929,22.073-20.025,37.318
		c-0.455-14.563,1.137-29.808,2.73-37.318c2.959-3.64,7.51-7.509,12.061-11.149c-2.503-1.821-5.462-1.821-9.785,0
		c5.462-11.605,10.467-19.797,15.247-27.534c3.639-6.144,5.915-10.467,7.053-14.108c0.455-1.138,0.682-2.731-0.682-2.731
		c-2.275,0.455-12.061-1.138-18.887-3.64c-5.007-1.821-10.24-2.504-15.247-2.504c-14.336,0-21.389,16.839-21.389,35.043H188.98
		V69.123h6.371c1.139,3.869,3.187,7.282,5.689,7.282c3.185,0,7.51-1.365,13.425-4.095c5.235-2.504,12.515-4.324,21.164-4.324
		c6.371,0,11.377,2.276,15.7,4.552c4.551,2.048,8.647,4.778,12.515,4.778c5.007,0,10.24-2.048,11.378-7.736H282.276z
		 M245.867,134.658c3.869-5.005,8.648-10.239,15.929-15.928c0.682-6.371,1.366-12.515,8.419-30.719
		c-11.377,20.024-17.521,25.712-23.21,30.719c-0.455,5.006-1.139,10.013-2.048,15.928H245.867z"/>
</g>
<g>
	<g>
		<path fill="#FFFFFF" d="M76.448,348.443h0.991l-2.364,7.721H49.527l0.315-1.035h0.653c0.93,0,1.714-0.169,2.352-0.507
			s1.077-0.728,1.317-1.17c0.24-0.442,0.585-1.415,1.036-2.915l5.897-19.426c0.45-1.5,0.675-2.445,0.675-2.836
			c0-1.065-0.968-1.598-2.903-1.598h-0.9l0.315-1.036h21.766l0.113,6.888h-0.945c-0.45-1.801-1.043-3.14-1.778-4.018
			c-0.735-0.878-1.49-1.402-2.262-1.575c-0.773-0.173-2.345-0.259-4.716-0.259h-3.961l-3.939,13.055h2.206
			c2.101,0,3.692-0.293,4.772-0.878c1.081-0.585,2.086-1.95,3.016-4.097h1.036l-3.624,11.975H68.93
			c0.165-0.795,0.248-1.561,0.248-2.296c0-1.229-0.154-2.085-0.461-2.565c-0.308-0.48-0.717-0.784-1.227-0.912
			c-0.51-0.127-1.426-0.191-2.746-0.191h-2.499l-2.858,9.477c-0.45,1.516-0.675,2.424-0.675,2.724c0,0.811,0.349,1.381,1.047,1.711
			s1.909,0.495,3.635,0.495h1.778c3.091,0,5.47-0.544,7.135-1.632C73.972,352.454,75.353,350.755,76.448,348.443z"/>
		<path fill="#FFFFFF" d="M82.436,342.635h-0.968c0.465-1.35,1.106-2.61,1.924-3.781c0.818-1.17,1.609-1.756,2.375-1.756
			c0.51,0,0.916,0.24,1.216,0.721c0.3,0.48,0.645,1.456,1.035,2.926l0.968,3.691l3.602-4.479c1.531-1.906,2.664-2.859,3.399-2.859
			c0.675,0,1.013,0.405,1.013,1.216c0,1.155-0.292,2.453-0.877,3.895h-0.945c0.51-1.621,0.765-2.746,0.765-3.377
			c0-0.33-0.12-0.495-0.36-0.495c-0.315,0-0.998,0.683-2.048,2.049l-4.254,5.244l1.373,5.47c0.36,1.456,0.634,2.408,0.821,2.858
			s0.409,0.676,0.664,0.676c0.225,0,0.529-0.327,0.912-0.979c0.383-0.652,0.724-1.504,1.024-2.555h1.013
			c-1.096,3.797-2.446,5.694-4.052,5.694c-0.645,0-1.17-0.318-1.575-0.956c-0.405-0.638-0.841-1.872-1.306-3.703l-0.968-3.781
			l-4.074,5.289c-1.125,1.456-1.898,2.346-2.318,2.668c-0.42,0.322-0.811,0.483-1.17,0.483c-0.721,0-1.081-0.465-1.081-1.396
			c0-0.915,0.383-2.152,1.148-3.714h0.945c-0.706,1.606-1.058,2.701-1.058,3.286c0,0.436,0.127,0.653,0.383,0.653
			c0.345,0,1.238-0.945,2.679-2.836l4.254-5.65l-1.193-4.929c-0.465-1.937-0.848-2.904-1.148-2.904
			C84.041,339.304,83.336,340.416,82.436,342.635z"/>
		<path fill="#FFFFFF" d="M98.732,346.89h-1.035l4.254-6.82c1.246-1.98,2.063-3.384,2.454-4.209s0.84-2.071,1.351-3.736l0.315-1.081
			h2.701l-1.531,5.042l-1.891,5.312c2.041-2.866,3.977-4.3,5.808-4.3c1.11,0,2.056,0.515,2.836,1.542
			c0.78,1.028,1.17,2.315,1.17,3.86c0,1.816-0.465,3.895-1.396,6.235c-0.931,2.341-2.248,4.27-3.95,5.784
			c-1.704,1.517-3.403,2.273-5.099,2.273c-1.621,0-2.648-0.765-3.083-2.296l-2.634,8.711c-0.33,1.081-0.495,1.741-0.495,1.981
			c0,0.255,0.109,0.473,0.327,0.652c0.217,0.181,0.852,0.271,1.902,0.271h1.013l-0.315,0.99h-9.409l0.315-0.99h0.496
			c1.32,0,2.108-0.09,2.363-0.271c0.255-0.18,0.646-1.118,1.17-2.813l4.682-15.464c0.991-3.226,2.131-6.52,3.421-9.881
			c-0.15,0.21-0.548,0.885-1.193,2.025c-0.075,0.12-0.315,0.503-0.72,1.148L98.732,346.89z M102.896,350.334
			c-0.405,1.336-0.607,2.296-0.607,2.882c0,0.735,0.203,1.357,0.607,1.868c0.405,0.51,0.976,0.765,1.711,0.765
			c1.095,0,2.217-0.626,3.365-1.879s2.198-3.339,3.151-6.258c0.953-2.918,1.43-5.113,1.43-6.584c0-0.96-0.15-1.681-0.45-2.161
			c-0.3-0.479-0.75-0.72-1.351-0.72c-0.811,0-1.887,0.593-3.23,1.778c-1.343,1.186-2.585,3.639-3.726,7.36L102.896,350.334z"/>
		<path fill="#FFFFFF" d="M127.611,350.424h1.08c-1.906,4.247-4.352,6.37-7.338,6.37c-1.23,0-2.232-0.432-3.005-1.294
			s-1.159-2.029-1.159-3.5c0-1.86,0.499-3.962,1.497-6.303c0.998-2.341,2.416-4.358,4.254-6.055c1.838-1.695,3.44-2.544,4.806-2.544
			c0.84,0,1.478,0.267,1.913,0.8c0.435,0.532,0.653,1.196,0.653,1.991c0,1.621-0.81,3.178-2.431,4.671s-4.052,2.931-7.293,4.311
			c-0.42,1.306-0.63,2.544-0.63,3.714c0,0.961,0.188,1.681,0.563,2.161c0.375,0.48,0.93,0.72,1.666,0.72
			C124.242,355.466,126.05,353.786,127.611,350.424z M120.925,347.723c1.936-0.87,3.676-2.071,5.222-3.602
			c1.545-1.531,2.318-2.919,2.318-4.164c0-0.57-0.116-0.994-0.349-1.272c-0.233-0.277-0.582-0.416-1.047-0.416
			c-0.9,0-1.962,0.874-3.185,2.622S121.676,344.917,120.925,347.723z"/>
		<path fill="#FFFFFF" d="M132.203,343.177h-0.991c0.63-1.681,1.422-3.114,2.375-4.3c0.953-1.185,1.894-1.778,2.825-1.778
			c0.645,0,1.125,0.259,1.44,0.777c0.315,0.518,0.473,1.302,0.473,2.352c0,1.306-0.337,3.167-1.013,5.582
			c0.09-0.149,0.338-0.689,0.743-1.62c1.11-2.506,2.086-4.314,2.926-5.425s1.681-1.666,2.521-1.666c0.525,0,0.945,0.166,1.261,0.495
			c0.315,0.331,0.473,0.729,0.473,1.193c0,0.45-0.132,0.818-0.394,1.103c-0.263,0.286-0.574,0.428-0.934,0.428
			c-0.405,0-0.818-0.247-1.238-0.742c-0.165-0.195-0.33-0.293-0.495-0.293c-0.75,0-1.906,1.805-3.466,5.413
			c-1.561,3.609-2.821,7.005-3.781,10.186l-0.496,1.621h-2.701l3.579-11.93c0.675-2.281,1.013-3.827,1.013-4.637
			c0-0.436-0.057-0.758-0.169-0.969c-0.112-0.21-0.281-0.314-0.506-0.314c-0.495,0-1.114,0.532-1.857,1.598
			C133.046,341.315,132.518,342.291,132.203,343.177z"/>
		<path fill="#FFFFFF" d="M153.249,351.234h1.081c-0.706,1.456-1.625,2.746-2.757,3.872c-1.133,1.125-2.225,1.688-3.275,1.688
			c-0.706,0-1.324-0.251-1.857-0.754c-0.533-0.502-0.799-1.241-0.799-2.217c0-0.795,0.42-2.318,1.26-4.569l2.589-6.865
			c0.6-1.605,0.9-2.581,0.9-2.926c0-0.301-0.071-0.525-0.213-0.676c-0.143-0.149-0.357-0.225-0.642-0.225
			c-0.585,0-1.28,0.454-2.082,1.361c-0.803,0.908-1.37,1.729-1.7,2.465h-1.08c0.825-1.636,1.767-2.926,2.825-3.872
			c1.058-0.945,2.044-1.418,2.96-1.418c0.705,0,1.283,0.24,1.733,0.721s0.675,1.11,0.675,1.891c0,0.796-0.397,2.251-1.193,4.367
			l-2.161,5.852c-0.796,2.116-1.193,3.444-1.193,3.984c0,0.436,0.086,0.762,0.259,0.979c0.172,0.218,0.424,0.326,0.754,0.326
			C150.442,355.219,151.748,353.89,153.249,351.234z M151.583,327.173c0-0.54,0.191-1.002,0.574-1.385
			c0.383-0.383,0.844-0.574,1.384-0.574c0.541,0,1.002,0.191,1.384,0.574c0.383,0.383,0.574,0.845,0.574,1.385
			s-0.191,1.005-0.574,1.396c-0.382,0.391-0.844,0.585-1.384,0.585c-0.555,0-1.021-0.198-1.396-0.597
			C151.771,328.159,151.583,327.698,151.583,327.173z"/>
		<path fill="#FFFFFF" d="M166.034,350.424h1.08c-1.906,4.247-4.352,6.37-7.338,6.37c-1.23,0-2.232-0.432-3.005-1.294
			s-1.159-2.029-1.159-3.5c0-1.86,0.499-3.962,1.497-6.303c0.998-2.341,2.416-4.358,4.254-6.055c1.838-1.695,3.44-2.544,4.806-2.544
			c0.84,0,1.478,0.267,1.913,0.8c0.435,0.532,0.653,1.196,0.653,1.991c0,1.621-0.81,3.178-2.431,4.671s-4.052,2.931-7.293,4.311
			c-0.42,1.306-0.63,2.544-0.63,3.714c0,0.961,0.188,1.681,0.563,2.161c0.375,0.48,0.93,0.72,1.666,0.72
			C162.665,355.466,164.473,353.786,166.034,350.424z M159.348,347.723c1.936-0.87,3.676-2.071,5.222-3.602
			c1.545-1.531,2.318-2.919,2.318-4.164c0-0.57-0.116-0.994-0.349-1.272c-0.233-0.277-0.582-0.416-1.047-0.416
			c-0.9,0-1.962,0.874-3.185,2.622S160.099,344.917,159.348,347.723z"/>
		<path fill="#FFFFFF" d="M186.359,351.932h1.148c-0.9,1.62-1.819,2.836-2.757,3.646c-0.938,0.81-1.895,1.215-2.87,1.215
			c-0.675,0-1.257-0.206-1.745-0.618c-0.488-0.413-0.731-1.024-0.731-1.835c0-0.675,0.345-2.011,1.036-4.007l2.408-6.865
			c0.645-1.875,0.968-3.091,0.968-3.646c0-0.495-0.109-0.862-0.326-1.103c-0.218-0.24-0.551-0.36-1.001-0.36
			c-1.141,0-2.63,1.34-4.468,4.018c-1.838,2.679-3.418,6.187-4.738,10.523l-1.103,3.602h-2.746l3.961-12.785
			c0.72-2.355,1.081-3.706,1.081-4.052c0-0.255-0.045-0.442-0.135-0.562s-0.233-0.181-0.428-0.181c-0.886,0-1.936,1.096-3.151,3.287
			h-1.035c1.875-3.406,3.654-5.11,5.334-5.11c0.585,0,1.024,0.177,1.317,0.529s0.439,0.889,0.439,1.609
			c0,1.291-0.503,3.286-1.508,5.987c2.716-5.417,5.357-8.126,7.923-8.126c0.825,0,1.545,0.274,2.161,0.822s0.923,1.347,0.923,2.396
			c0,0.676-0.308,1.937-0.923,3.782l-2.408,7.18c-0.646,1.937-0.968,3.017-0.968,3.241c0,0.285,0.071,0.499,0.214,0.642
			c0.143,0.144,0.349,0.214,0.619,0.214c0.51,0,1.058-0.288,1.643-0.866C185.076,353.932,185.699,353.073,186.359,351.932z"/>
		<path fill="#FFFFFF" d="M199.932,349.771h0.9c-0.735,2.146-1.764,3.853-3.084,5.121c-1.32,1.268-2.693,1.901-4.119,1.901
			c-1.201,0-2.172-0.454-2.915-1.361c-0.743-0.908-1.114-2.187-1.114-3.838c0-1.936,0.499-4.048,1.497-6.336
			s2.401-4.221,4.209-5.796c1.808-1.576,3.402-2.364,4.783-2.364c0.795,0,1.471,0.256,2.026,0.766
			c0.555,0.511,0.833,1.126,0.833,1.846c0,1.065-0.428,1.599-1.283,1.599c-0.87,0-1.328-0.593-1.373-1.778
			c-0.03-0.886-0.368-1.328-1.013-1.328c-0.841,0-1.816,0.776-2.926,2.329c-1.111,1.554-2.063,3.624-2.858,6.213
			c-0.796,2.589-1.193,4.558-1.193,5.908c0,0.855,0.218,1.539,0.653,2.049s0.96,0.765,1.576,0.765c0.885,0,1.849-0.514,2.893-1.541
			C198.465,352.896,199.302,351.512,199.932,349.771z"/>
		<path fill="#FFFFFF" d="M214.541,350.424h1.08c-1.906,4.247-4.352,6.37-7.338,6.37c-1.23,0-2.232-0.432-3.005-1.294
			s-1.159-2.029-1.159-3.5c0-1.86,0.499-3.962,1.497-6.303c0.998-2.341,2.416-4.358,4.254-6.055c1.838-1.695,3.44-2.544,4.806-2.544
			c0.84,0,1.478,0.267,1.913,0.8c0.435,0.532,0.653,1.196,0.653,1.991c0,1.621-0.81,3.178-2.431,4.671s-4.052,2.931-7.293,4.311
			c-0.42,1.306-0.63,2.544-0.63,3.714c0,0.961,0.188,1.681,0.563,2.161c0.375,0.48,0.93,0.72,1.666,0.72
			C211.171,355.466,212.979,353.786,214.541,350.424z M207.855,347.723c1.936-0.87,3.676-2.071,5.222-3.602
			c1.545-1.531,2.318-2.919,2.318-4.164c0-0.57-0.116-0.994-0.349-1.272c-0.233-0.277-0.582-0.416-1.047-0.416
			c-0.9,0-1.962,0.874-3.185,2.622S208.605,344.917,207.855,347.723z"/>
		<path fill="#FFFFFF" d="M239.367,337.234c-0.675-1.456-1.013-2.813-1.013-4.074c0-1.426,0.42-2.75,1.261-3.973
			c0.84-1.224,1.909-2.21,3.207-2.96c1.298-0.751,2.646-1.126,4.041-1.126c1.561,0,2.862,0.432,3.905,1.295
			c1.043,0.862,1.564,1.895,1.564,3.095c0,0.9-0.252,1.733-0.754,2.498c-0.503,0.766-1.032,1.148-1.587,1.148
			c-0.271,0-0.405-0.143-0.405-0.428c0-0.105,0.074-0.338,0.225-0.698c0.24-0.585,0.36-1.178,0.36-1.778
			c0-0.9-0.368-1.632-1.103-2.194c-0.735-0.562-1.621-0.844-2.656-0.844c-1.666,0-3.223,0.687-4.671,2.06s-2.172,2.945-2.172,4.716
			c0,0.795,0.104,1.467,0.315,2.014c0.21,0.549,0.4,0.904,0.573,1.069c0.173,0.166,0.417,0.248,0.731,0.248
			c2.071,0,3.106,0.601,3.106,1.801c0,0.3-0.108,0.585-0.326,0.855c-0.218,0.27-0.537,0.405-0.957,0.405
			c-0.465,0-1.058-0.308-1.778-0.924c-0.765-0.66-1.516-0.99-2.25-0.99c-0.946,0-1.843,0.47-2.69,1.407s-1.271,2.052-1.271,3.343
			c0,2.506,1.245,4.873,3.736,7.102s5.59,3.342,9.296,3.342c3.512,0,6.517-0.873,9.016-2.622c2.498-1.748,3.747-3.838,3.747-6.269
			c0-1.62-0.615-3.027-1.846-4.221c-1.23-1.192-2.896-1.789-4.997-1.789c-1.695,0-3.207,0.465-4.535,1.396s-1.992,2.094-1.992,3.489
			c0,0.84,0.24,1.53,0.721,2.07c0.479,0.54,0.975,0.811,1.485,0.811c0.585,0,0.878-0.315,0.878-0.945l-0.022-0.271
			c-0.016-0.194-0.022-0.33-0.022-0.405c0-0.66,0.18-1.204,0.54-1.632s0.817-0.642,1.373-0.642c0.525,0,0.982,0.185,1.373,0.552
			c0.39,0.368,0.585,0.882,0.585,1.542c0,0.945-0.326,1.733-0.979,2.363c-0.652,0.631-1.489,0.945-2.509,0.945
			c-1.216,0-2.263-0.431-3.141-1.294s-1.316-1.925-1.316-3.186c0-1.846,0.772-3.525,2.318-5.042
			c1.545-1.515,4.352-2.273,8.418-2.273c3.646,0,6.295-0.502,7.946-1.508c1.65-0.99,2.476-2.498,2.476-4.524
			c0-1.2-0.368-2.187-1.103-2.96c-0.735-0.772-1.666-1.159-2.792-1.159c-0.555,0-0.972,0.079-1.249,0.236
			c-0.277,0.158-0.416,0.402-0.416,0.731c0,0.211,0.135,0.511,0.405,0.9c0.345,0.495,0.518,0.976,0.518,1.441
			c0,0.555-0.214,1.043-0.642,1.463s-0.957,0.63-1.587,0.63c-0.751,0-1.32-0.24-1.711-0.72c-0.391-0.48-0.585-1.043-0.585-1.688
			c0-1.021,0.499-1.936,1.497-2.746c0.997-0.811,2.27-1.216,3.815-1.216c1.59,0,2.914,0.582,3.973,1.744
			c1.058,1.163,1.587,2.562,1.587,4.198c0,1.546-0.454,2.957-1.362,4.231c-0.908,1.276-2.056,2.177-3.443,2.701
			c-1.389,0.525-3.336,0.833-5.842,0.923c2.401,1.696,3.602,3.872,3.602,6.528c0,1.995-0.735,3.924-2.205,5.784
			c-1.472,1.861-3.253,3.241-5.347,4.142c-2.093,0.9-4.647,1.351-7.664,1.351c-2.446,0-4.427-0.267-5.942-0.799
			s-2.96-1.31-4.333-2.33c-1.373-1.02-2.453-2.27-3.241-3.747c-0.788-1.479-1.182-3.065-1.182-4.761
			c0-2.071,0.593-3.812,1.778-5.223C235.286,338.434,237.041,337.564,239.367,337.234z"/>
		<path fill="#FFFFFF" d="M305.994,348.443h0.99l-2.363,7.721h-25.548l0.315-1.035h0.652c0.931,0,1.714-0.169,2.353-0.507
			c0.638-0.338,1.076-0.728,1.316-1.17s0.585-1.415,1.035-2.915l5.897-19.426c0.45-1.5,0.676-2.445,0.676-2.836
			c0-1.065-0.968-1.598-2.904-1.598h-0.9l0.315-1.036h21.767l0.112,6.888h-0.945c-0.45-1.801-1.043-3.14-1.778-4.018
			s-1.489-1.402-2.263-1.575c-0.772-0.173-2.345-0.259-4.715-0.259h-3.962l-3.939,13.055h2.206c2.101,0,3.691-0.293,4.772-0.878
			c1.08-0.585,2.085-1.95,3.016-4.097h1.036l-3.624,11.975h-1.036c0.165-0.795,0.248-1.561,0.248-2.296
			c0-1.229-0.154-2.085-0.462-2.565s-0.717-0.784-1.227-0.912c-0.51-0.127-1.426-0.191-2.746-0.191h-2.498l-2.859,9.477
			c-0.449,1.516-0.675,2.424-0.675,2.724c0,0.811,0.349,1.381,1.047,1.711c0.697,0.33,1.909,0.495,3.635,0.495h1.778
			c3.091,0,5.47-0.544,7.136-1.632C303.518,352.454,304.898,350.755,305.994,348.443z"/>
		<path fill="#FFFFFF" d="M311.981,342.635h-0.968c0.465-1.35,1.106-2.61,1.925-3.781c0.817-1.17,1.609-1.756,2.374-1.756
			c0.51,0,0.915,0.24,1.216,0.721c0.3,0.48,0.645,1.456,1.035,2.926l0.968,3.691l3.602-4.479c1.53-1.906,2.663-2.859,3.399-2.859
			c0.675,0,1.013,0.405,1.013,1.216c0,1.155-0.293,2.453-0.878,3.895h-0.945c0.51-1.621,0.765-2.746,0.765-3.377
			c0-0.33-0.12-0.495-0.359-0.495c-0.315,0-0.998,0.683-2.049,2.049l-4.254,5.244l1.373,5.47c0.36,1.456,0.634,2.408,0.821,2.858
			s0.409,0.676,0.664,0.676c0.226,0,0.529-0.327,0.912-0.979c0.382-0.652,0.724-1.504,1.023-2.555h1.014
			c-1.096,3.797-2.446,5.694-4.052,5.694c-0.646,0-1.171-0.318-1.576-0.956s-0.84-1.872-1.306-3.703l-0.968-3.781l-4.074,5.289
			c-1.125,1.456-1.898,2.346-2.318,2.668s-0.81,0.483-1.17,0.483c-0.721,0-1.081-0.465-1.081-1.396c0-0.915,0.383-2.152,1.148-3.714
			h0.945c-0.705,1.606-1.058,2.701-1.058,3.286c0,0.436,0.127,0.653,0.383,0.653c0.345,0,1.237-0.945,2.678-2.836l4.255-5.65
			l-1.193-4.929c-0.465-1.937-0.848-2.904-1.147-2.904C313.587,339.304,312.882,340.416,311.981,342.635z"/>
		<path fill="#FFFFFF" d="M328.278,346.89h-1.036l4.255-6.82c1.245-1.98,2.062-3.384,2.453-4.209c0.39-0.825,0.84-2.071,1.351-3.736
			l0.315-1.081h2.701l-1.531,5.042l-1.891,5.312c2.041-2.866,3.977-4.3,5.808-4.3c1.11,0,2.056,0.515,2.836,1.542
			c0.78,1.028,1.171,2.315,1.171,3.86c0,1.816-0.466,3.895-1.396,6.235c-0.93,2.341-2.247,4.27-3.95,5.784
			c-1.703,1.517-3.402,2.273-5.098,2.273c-1.621,0-2.649-0.765-3.084-2.296l-2.634,8.711c-0.33,1.081-0.495,1.741-0.495,1.981
			c0,0.255,0.108,0.473,0.326,0.652c0.218,0.181,0.852,0.271,1.902,0.271h1.013l-0.314,0.99h-9.409l0.315-0.99h0.495
			c1.32,0,2.108-0.09,2.363-0.271c0.255-0.18,0.646-1.118,1.17-2.813l4.683-15.464c0.99-3.226,2.13-6.52,3.421-9.881
			c-0.15,0.21-0.548,0.885-1.192,2.025c-0.076,0.12-0.315,0.503-0.721,1.148L328.278,346.89z M332.442,350.334
			c-0.405,1.336-0.608,2.296-0.608,2.882c0,0.735,0.203,1.357,0.608,1.868c0.405,0.51,0.975,0.765,1.71,0.765
			c1.096,0,2.218-0.626,3.365-1.879c1.148-1.253,2.198-3.339,3.151-6.258c0.953-2.918,1.43-5.113,1.43-6.584
			c0-0.96-0.15-1.681-0.45-2.161c-0.301-0.479-0.751-0.72-1.351-0.72c-0.811,0-1.888,0.593-3.23,1.778s-2.585,3.639-3.725,7.36
			L332.442,350.334z"/>
		<path fill="#FFFFFF" d="M357.157,350.424h1.08c-1.905,4.247-4.352,6.37-7.338,6.37c-1.23,0-2.232-0.432-3.005-1.294
			c-0.773-0.862-1.159-2.029-1.159-3.5c0-1.86,0.499-3.962,1.497-6.303s2.416-4.358,4.254-6.055c1.838-1.695,3.44-2.544,4.806-2.544
			c0.84,0,1.478,0.267,1.913,0.8c0.436,0.532,0.653,1.196,0.653,1.991c0,1.621-0.811,3.178-2.432,4.671
			c-1.62,1.493-4.051,2.931-7.293,4.311c-0.42,1.306-0.63,2.544-0.63,3.714c0,0.961,0.188,1.681,0.562,2.161s0.931,0.72,1.666,0.72
			C353.788,355.466,355.596,353.786,357.157,350.424z M350.472,347.723c1.936-0.87,3.677-2.071,5.223-3.602
			c1.545-1.531,2.318-2.919,2.318-4.164c0-0.57-0.117-0.994-0.35-1.272c-0.232-0.277-0.581-0.416-1.046-0.416
			c-0.9,0-1.963,0.874-3.186,2.622S351.222,344.917,350.472,347.723z"/>
		<path fill="#FFFFFF" d="M361.748,343.177h-0.99c0.631-1.681,1.422-3.114,2.375-4.3c0.953-1.185,1.895-1.778,2.825-1.778
			c0.645,0,1.125,0.259,1.44,0.777c0.314,0.518,0.473,1.302,0.473,2.352c0,1.306-0.338,3.167-1.013,5.582
			c0.09-0.149,0.337-0.689,0.742-1.62c1.11-2.506,2.086-4.314,2.927-5.425c0.84-1.11,1.68-1.666,2.521-1.666
			c0.525,0,0.945,0.166,1.261,0.495c0.314,0.331,0.473,0.729,0.473,1.193c0,0.45-0.132,0.818-0.395,1.103
			c-0.263,0.286-0.573,0.428-0.934,0.428c-0.405,0-0.818-0.247-1.238-0.742c-0.165-0.195-0.33-0.293-0.495-0.293
			c-0.75,0-1.905,1.805-3.466,5.413c-1.562,3.609-2.821,7.005-3.782,10.186l-0.495,1.621h-2.701l3.579-11.93
			c0.676-2.281,1.013-3.827,1.013-4.637c0-0.436-0.056-0.758-0.169-0.969c-0.112-0.21-0.281-0.314-0.506-0.314
			c-0.495,0-1.114,0.532-1.857,1.598C362.593,341.315,362.063,342.291,361.748,343.177z"/>
		<path fill="#FFFFFF" d="M385.743,337.729l-0.314,0.99h-3.377l-2.971,9.836c-0.99,3.227-1.485,5.103-1.485,5.628
			c0,0.359,0.078,0.634,0.236,0.821c0.157,0.188,0.386,0.281,0.687,0.281c0.54,0,1.245-0.51,2.115-1.53s1.65-2.304,2.341-3.85h0.991
			c-0.916,2.236-1.963,3.943-3.141,5.121s-2.255,1.767-3.229,1.767c-0.766,0-1.377-0.27-1.835-0.81
			c-0.458-0.541-0.687-1.224-0.687-2.049c0-0.705,0.465-2.581,1.396-5.627l2.904-9.589h-3.106l0.314-0.99h3.084l2.071-6.82h2.701
			l-2.071,6.82H385.743z"/>
		<path fill="#FFFFFF" d="M393.847,351.234h1.08c-0.705,1.456-1.624,2.746-2.757,3.872c-1.134,1.125-2.225,1.688-3.275,1.688
			c-0.705,0-1.324-0.251-1.856-0.754c-0.533-0.502-0.8-1.241-0.8-2.217c0-0.795,0.42-2.318,1.261-4.569l2.589-6.865
			c0.6-1.605,0.9-2.581,0.9-2.926c0-0.301-0.071-0.525-0.214-0.676c-0.143-0.149-0.356-0.225-0.642-0.225
			c-0.585,0-1.279,0.454-2.082,1.361c-0.803,0.908-1.37,1.729-1.699,2.465h-1.081c0.825-1.636,1.768-2.926,2.825-3.872
			c1.058-0.945,2.044-1.418,2.96-1.418c0.705,0,1.283,0.24,1.733,0.721s0.675,1.11,0.675,1.891c0,0.796-0.397,2.251-1.192,4.367
			l-2.161,5.852c-0.796,2.116-1.193,3.444-1.193,3.984c0,0.436,0.086,0.762,0.259,0.979s0.424,0.326,0.754,0.326
			C391.04,355.219,392.346,353.89,393.847,351.234z M392.181,327.173c0-0.54,0.191-1.002,0.574-1.385s0.844-0.574,1.385-0.574
			c0.54,0,1.001,0.191,1.384,0.574s0.574,0.845,0.574,1.385s-0.191,1.005-0.574,1.396s-0.844,0.585-1.384,0.585
			c-0.556,0-1.021-0.198-1.396-0.597C392.368,328.159,392.181,327.698,392.181,327.173z"/>
		<path fill="#FFFFFF" d="M406.496,351.212c0,1.396-0.536,2.675-1.609,3.838c-1.072,1.163-2.652,1.744-4.737,1.744
			c-1.546,0-2.705-0.341-3.478-1.023c-0.773-0.683-1.16-1.414-1.16-2.195c0-0.42,0.116-0.779,0.35-1.08
			c0.232-0.3,0.528-0.45,0.889-0.45c0.811,0,1.216,0.428,1.216,1.283c0,0.195-0.045,0.473-0.135,0.833
			c-0.061,0.165-0.091,0.292-0.091,0.382c0,0.36,0.232,0.672,0.698,0.935c0.465,0.263,1.021,0.394,1.666,0.394
			c1.005,0,1.92-0.318,2.746-0.956c0.824-0.638,1.237-1.52,1.237-2.646c0-0.975-0.577-2.513-1.733-4.614
			c-1.351-2.431-2.025-4.209-2.025-5.334c0-1.44,0.57-2.656,1.711-3.646c1.14-0.99,2.438-1.485,3.894-1.485
			c1.065,0,1.978,0.27,2.735,0.81c0.757,0.541,1.137,1.118,1.137,1.733c0,0.796-0.33,1.193-0.99,1.193
			c-0.496,0-0.855-0.442-1.081-1.328c-0.24-0.976-0.893-1.463-1.958-1.463c-0.855,0-1.599,0.232-2.229,0.697
			c-0.63,0.466-0.945,1.073-0.945,1.823c0,1.021,0.503,2.424,1.508,4.209c0.945,1.621,1.579,2.859,1.902,3.714
			C406.335,349.433,406.496,350.311,406.496,351.212z"/>
		<path fill="#FFFFFF" d="M421.037,350.424h1.08c-1.905,4.247-4.352,6.37-7.338,6.37c-1.23,0-2.232-0.432-3.005-1.294
			c-0.773-0.862-1.159-2.029-1.159-3.5c0-1.86,0.499-3.962,1.497-6.303s2.416-4.358,4.254-6.055c1.838-1.695,3.44-2.544,4.806-2.544
			c0.84,0,1.478,0.267,1.913,0.8c0.436,0.532,0.653,1.196,0.653,1.991c0,1.621-0.811,3.178-2.432,4.671
			c-1.62,1.493-4.051,2.931-7.293,4.311c-0.42,1.306-0.63,2.544-0.63,3.714c0,0.961,0.188,1.681,0.562,2.161s0.931,0.72,1.666,0.72
			C417.668,355.466,419.476,353.786,421.037,350.424z M414.352,347.723c1.936-0.87,3.677-2.071,5.223-3.602
			c1.545-1.531,2.318-2.919,2.318-4.164c0-0.57-0.117-0.994-0.35-1.272c-0.232-0.277-0.581-0.416-1.046-0.416
			c-0.9,0-1.963,0.874-3.186,2.622S415.102,344.917,414.352,347.723z"/>
	</g>
	<line fill="none" stroke="#FFFFFF" stroke-miterlimit="10" x1="36" y1="341.978" x2="0" y2="341.978"/>
	<line fill="none" stroke="#FFFFFF" stroke-miterlimit="10" x1="469" y1="341.978" x2="433" y2="341.978"/>
</g>
</svg>
