<?xml version="1.0" encoding="utf-8"?>
<!-- Generator: Adobe Illustrator 17.0.0, SVG Export Plug-In . SVG Version: 6.00 Build 0)  -->
<!DOCTYPE svg PUBLIC "-//W3C//DTD SVG 1.1//EN" "http://www.w3.org/Graphics/SVG/1.1/DTD/svg11.dtd">
<svg version="1.1" id="Layer_1" xmlns="http://www.w3.org/2000/svg" xmlns:xlink="http://www.w3.org/1999/xlink" x="0px" y="0px"
	 width="998.559px" height="451.267px" viewBox="0 0 998.559 451.267" enable-background="new 0 0 998.559 451.267"
	 xml:space="preserve">
<path opacity="0.75" fill="#63328A" enable-background="new    " d="M488.527,0c-124.816,0-226,101.02-226,225.634
	s101.184,225.634,226,225.634s226-101.02,226-225.634S613.344,0,488.527,0z M440.804,317.205V137.034l118.713,90.086
	L440.804,317.205z"/>
<g>
	
		<image overflow="visible" opacity="0.75" width="831" height="204" xlink:href="A3A2B380BBEC246B.png"  transform="matrix(1 0 0 1 82.7795 107.1335)">
	</image>
	<g>
		<g>
			<g>
				<path fill="#FFFFFF" d="M189.664,145.57c0-3.413,0.6-6.812,1.8-10.2c1.2-3.386,2.946-6.413,5.24-9.08
					c2.292-2.666,5.12-4.84,8.48-6.52c3.36-1.68,7.172-2.52,11.44-2.52c5.066,0,9.386,1.147,12.96,3.44
					c3.573,2.294,6.24,5.28,8,8.96l-4.48,2.72c-0.907-1.866-2-3.44-3.28-4.72c-1.28-1.28-2.667-2.32-4.16-3.12
					c-1.494-0.8-3.04-1.373-4.64-1.72c-1.6-0.346-3.174-0.52-4.72-0.52c-3.414,0-6.428,0.694-9.04,2.08
					c-2.614,1.388-4.814,3.2-6.6,5.44c-1.788,2.24-3.134,4.76-4.04,7.56c-0.908,2.8-1.36,5.64-1.36,8.52
					c0,3.147,0.546,6.16,1.64,9.04c1.093,2.88,2.586,5.427,4.48,7.64c1.892,2.213,4.132,3.974,6.72,5.28
					c2.586,1.308,5.4,1.96,8.44,1.96c1.6,0,3.24-0.2,4.92-0.6c1.68-0.4,3.307-1.04,4.88-1.92c1.572-0.88,3.026-1.973,4.36-3.28
					c1.333-1.306,2.453-2.893,3.36-4.76l4.64,2.4c-0.908,2.134-2.188,4.014-3.84,5.64c-1.654,1.627-3.494,3-5.52,4.12
					c-2.028,1.12-4.174,1.974-6.44,2.56c-2.267,0.586-4.494,0.88-6.68,0.88c-3.894,0-7.468-0.853-10.72-2.56
					c-3.253-1.706-6.054-3.933-8.4-6.68c-2.348-2.747-4.174-5.867-5.48-9.36C190.316,152.758,189.664,149.198,189.664,145.57z"/>
				<path fill="#FFFFFF" d="M282.143,174.37h-5.44v-23.28c0-4.747-0.813-8.292-2.44-10.64c-1.627-2.346-4.014-3.52-7.16-3.52
					c-1.547,0-3.08,0.308-4.6,0.92c-1.52,0.614-2.948,1.454-4.28,2.52c-1.333,1.067-2.494,2.32-3.48,3.76
					c-0.987,1.44-1.72,3.014-2.2,4.72v25.52h-5.44v-58.4h5.44v26.16c1.707-3.146,4.026-5.626,6.96-7.44
					c2.932-1.812,6.08-2.72,9.44-2.72c2.4,0,4.44,0.44,6.12,1.32c1.68,0.88,3.04,2.107,4.08,3.68c1.04,1.574,1.8,3.467,2.28,5.68
					c0.48,2.214,0.72,4.654,0.72,7.32V174.37z"/>
				<path fill="#FFFFFF" d="M304.463,175.17c-2.134,0-4.08-0.333-5.84-1c-1.76-0.666-3.268-1.586-4.52-2.76
					c-1.254-1.172-2.228-2.533-2.92-4.08c-0.694-1.546-1.04-3.172-1.04-4.88c0-1.92,0.426-3.667,1.28-5.24
					c0.853-1.572,2.053-2.92,3.6-4.04c1.546-1.12,3.4-1.986,5.56-2.6c2.16-0.613,4.546-0.92,7.16-0.92c2.08,0,4.212,0.188,6.4,0.56
					c2.186,0.374,4.132,0.908,5.84,1.6v-3.76c0-3.68-1.054-6.6-3.16-8.76c-2.108-2.16-4.948-3.24-8.52-3.24
					c-2.24,0-4.468,0.427-6.68,1.28c-2.214,0.854-4.468,2.08-6.76,3.68l-1.92-3.6c2.72-1.812,5.36-3.172,7.92-4.08
					c2.56-0.906,5.227-1.36,8-1.36c5.066,0,9.093,1.467,12.08,4.4c2.986,2.934,4.48,6.987,4.48,12.16v18.8
					c0,1.494,0.64,2.24,1.92,2.24v4.8c-0.427,0.053-0.827,0.092-1.2,0.12c-0.374,0.026-0.694,0.04-0.96,0.04
					c-1.067,0-2.04-0.32-2.92-0.96c-0.88-0.64-1.374-1.6-1.48-2.88l-0.16-3.28c-1.814,2.454-4.2,4.36-7.16,5.72
					C310.503,174.49,307.503,175.17,304.463,175.17z M305.823,171.01c2.4,0,4.786-0.52,7.16-1.56c2.373-1.04,4.252-2.466,5.64-4.28
					c0.373-0.48,0.692-1,0.96-1.56c0.266-0.56,0.4-1.08,0.4-1.56v-6.8c-1.813-0.692-3.708-1.226-5.68-1.6
					c-1.974-0.372-3.894-0.56-5.76-0.56c-3.894,0-7.054,0.787-9.48,2.36c-2.427,1.574-3.64,3.748-3.64,6.52
					c0,1.12,0.213,2.214,0.64,3.28c0.426,1.067,1.08,2.028,1.96,2.88c0.88,0.854,1.96,1.548,3.24,2.08
					C302.543,170.744,304.063,171.01,305.823,171.01z"/>
				<path fill="#FFFFFF" d="M372.302,174.37h-5.44v-23.28c0-4.96-0.72-8.56-2.16-10.8c-1.44-2.24-3.68-3.36-6.72-3.36
					c-1.6,0-3.2,0.293-4.8,0.88c-1.6,0.587-3.094,1.414-4.48,2.48c-1.387,1.067-2.6,2.334-3.64,3.8
					c-1.04,1.467-1.828,3.054-2.36,4.76v25.52h-5.44v-41.68h4.96v9.44c0.853-1.492,1.906-2.866,3.16-4.12
					c1.252-1.252,2.652-2.333,4.2-3.24c1.546-0.906,3.186-1.6,4.92-2.08c1.732-0.48,3.532-0.72,5.4-0.72
					c2.346,0,4.306,0.427,5.88,1.28c1.573,0.854,2.84,2.054,3.8,3.6c0.96,1.547,1.652,3.44,2.08,5.68
					c0.426,2.24,0.64,4.72,0.64,7.44V174.37z"/>
				<path fill="#FFFFFF" d="M400.462,174.93c-2.88,0-5.508-0.6-7.88-1.8c-2.374-1.2-4.427-2.786-6.16-4.76
					c-1.734-1.973-3.08-4.24-4.04-6.8c-0.96-2.56-1.44-5.2-1.44-7.92c0-2.88,0.466-5.64,1.4-8.28c0.933-2.64,2.252-4.946,3.96-6.92
					c1.706-1.973,3.746-3.546,6.12-4.72c2.373-1.172,5-1.76,7.88-1.76c3.572,0,6.666,0.894,9.28,2.68
					c2.613,1.788,4.853,4.04,6.72,6.76v-8.72h4.88v41.84c0,2.88-0.547,5.426-1.64,7.64c-1.094,2.213-2.56,4.066-4.4,5.56
					c-1.84,1.493-4.014,2.613-6.52,3.36c-2.507,0.746-5.147,1.12-7.92,1.12c-4.748,0-8.587-0.854-11.52-2.56
					c-2.934-1.708-5.308-4-7.12-6.88l3.36-2.64c1.652,2.667,3.84,4.626,6.56,5.88c2.72,1.252,5.626,1.88,8.72,1.88
					c2.026,0,3.96-0.28,5.8-0.84c1.84-0.56,3.44-1.388,4.8-2.48c1.36-1.094,2.44-2.48,3.24-4.16c0.8-1.68,1.2-3.64,1.2-5.88v-8.24
					c-1.654,2.667-3.854,4.774-6.6,6.32C406.394,174.158,403.501,174.93,400.462,174.93z M401.982,170.37
					c1.6,0,3.172-0.292,4.72-0.88c1.546-0.586,2.946-1.373,4.2-2.36c1.252-0.986,2.306-2.092,3.16-3.32
					c0.853-1.226,1.413-2.48,1.68-3.76v-12.88c-0.587-1.492-1.4-2.88-2.44-4.16c-1.04-1.28-2.2-2.373-3.48-3.28
					c-1.28-0.906-2.654-1.626-4.12-2.16c-1.467-0.533-2.947-0.8-4.44-0.8c-2.348,0-4.428,0.494-6.24,1.48
					c-1.813,0.988-3.36,2.28-4.64,3.88c-1.28,1.6-2.254,3.414-2.92,5.44c-0.667,2.027-1,4.08-1,6.16c0,2.24,0.4,4.374,1.2,6.4
					c0.8,2.028,1.893,3.8,3.28,5.32c1.386,1.52,3.026,2.72,4.92,3.6C397.754,169.93,399.794,170.37,401.982,170.37z"/>
				<path fill="#FFFFFF" d="M432.861,123.97v-8h5.44v8H432.861z M432.861,174.37v-41.68h5.44v41.68H432.861z"/>
				<path fill="#FFFFFF" d="M485.02,174.37h-5.44v-23.28c0-4.96-0.72-8.56-2.16-10.8c-1.44-2.24-3.68-3.36-6.72-3.36
					c-1.6,0-3.2,0.293-4.8,0.88c-1.6,0.587-3.094,1.414-4.48,2.48c-1.387,1.067-2.6,2.334-3.64,3.8
					c-1.04,1.467-1.828,3.054-2.36,4.76v25.52h-5.44v-41.68h4.96v9.44c0.853-1.492,1.906-2.866,3.16-4.12
					c1.252-1.252,2.652-2.333,4.2-3.24c1.546-0.906,3.186-1.6,4.92-2.08c1.732-0.48,3.532-0.72,5.4-0.72
					c2.346,0,4.306,0.427,5.88,1.28c1.573,0.854,2.84,2.054,3.8,3.6c0.96,1.547,1.652,3.44,2.08,5.68
					c0.426,2.24,0.64,4.72,0.64,7.44V174.37z"/>
				<path fill="#FFFFFF" d="M513.18,174.93c-2.88,0-5.507-0.6-7.88-1.8c-2.374-1.2-4.428-2.786-6.16-4.76
					c-1.734-1.973-3.08-4.24-4.04-6.8c-0.96-2.56-1.44-5.2-1.44-7.92c0-2.88,0.466-5.64,1.4-8.28c0.933-2.64,2.252-4.946,3.96-6.92
					c1.707-1.973,3.747-3.546,6.12-4.72c2.373-1.172,5-1.76,7.88-1.76c3.573,0,6.667,0.894,9.28,2.68
					c2.612,1.788,4.853,4.04,6.72,6.76v-8.72h4.881v41.84c0,2.88-0.548,5.426-1.641,7.64c-1.094,2.213-2.56,4.066-4.399,5.56
					c-1.841,1.493-4.014,2.613-6.521,3.36c-2.508,0.746-5.147,1.12-7.92,1.12c-4.747,0-8.588-0.854-11.52-2.56
					c-2.934-1.708-5.308-4-7.121-6.88l3.36-2.64c1.653,2.667,3.839,4.626,6.56,5.88c2.72,1.252,5.626,1.88,8.72,1.88
					c2.026,0,3.96-0.28,5.8-0.84s3.44-1.388,4.8-2.48c1.36-1.094,2.44-2.48,3.24-4.16s1.2-3.64,1.2-5.88v-8.24
					c-1.653,2.667-3.854,4.774-6.6,6.32C519.113,174.158,516.22,174.93,513.18,174.93z M514.7,170.37c1.6,0,3.172-0.292,4.72-0.88
					c1.546-0.586,2.946-1.373,4.2-2.36c1.252-0.986,2.306-2.092,3.16-3.32c0.853-1.226,1.412-2.48,1.68-3.76v-12.88
					c-0.588-1.492-1.4-2.88-2.44-4.16c-1.04-1.28-2.199-2.373-3.479-3.28c-1.28-0.906-2.654-1.626-4.12-2.16
					c-1.468-0.533-2.947-0.8-4.44-0.8c-2.347,0-4.427,0.494-6.239,1.48c-1.814,0.988-3.36,2.28-4.641,3.88
					c-1.279,1.6-2.253,3.414-2.92,5.44c-0.667,2.027-1,4.08-1,6.16c0,2.24,0.4,4.374,1.2,6.4c0.8,2.028,1.893,3.8,3.28,5.32
					c1.386,1.52,3.026,2.72,4.92,3.6C510.473,169.93,512.513,170.37,514.7,170.37z"/>
				<path fill="#FFFFFF" d="M566.62,174.37v-56.8h23.84c2.56,0,4.92,0.534,7.08,1.6c2.16,1.068,4.012,2.468,5.56,4.2
					c1.546,1.734,2.76,3.708,3.64,5.92c0.881,2.214,1.32,4.468,1.32,6.76c0,2.4-0.414,4.708-1.24,6.92
					c-0.827,2.214-1.987,4.188-3.479,5.92c-1.494,1.734-3.294,3.12-5.4,4.16c-2.107,1.04-4.439,1.56-7,1.56H575.58v19.76H566.62z
					 M575.58,146.69h14.8c1.28,0,2.439-0.266,3.479-0.8c1.04-0.533,1.933-1.28,2.681-2.24c0.746-0.96,1.332-2.08,1.76-3.36
					c0.426-1.28,0.64-2.692,0.64-4.24c0-1.6-0.239-3.04-0.72-4.32c-0.48-1.28-1.147-2.386-2-3.32
					c-0.854-0.933-1.827-1.652-2.92-2.16c-1.094-0.506-2.228-0.76-3.4-0.76H575.58V146.69z"/>
				<path fill="#FFFFFF" d="M615.099,115.97h8.8v46.08c0,1.547,0.4,2.76,1.2,3.64c0.8,0.88,1.92,1.32,3.359,1.32
					c0.587,0,1.28-0.093,2.08-0.28c0.801-0.186,1.547-0.44,2.24-0.76l1.28,7.12c-1.28,0.587-2.8,1.054-4.561,1.4
					c-1.76,0.346-3.333,0.52-4.72,0.52c-3.04,0-5.414-0.826-7.12-2.48c-1.707-1.653-2.56-4-2.56-7.04V115.97z"/>
				<path fill="#FFFFFF" d="M650.138,175.17c-2.028,0-3.908-0.333-5.641-1c-1.733-0.666-3.228-1.586-4.479-2.76
					c-1.254-1.172-2.24-2.56-2.96-4.16c-0.721-1.6-1.08-3.333-1.08-5.2c0-1.973,0.426-3.76,1.279-5.36
					c0.853-1.6,2.066-2.986,3.641-4.16c1.572-1.173,3.439-2.08,5.6-2.72s4.547-0.96,7.16-0.96c1.973,0,3.92,0.174,5.84,0.52
					c1.92,0.348,3.652,0.814,5.2,1.4v-2.88c0-3.092-0.88-5.506-2.64-7.24c-1.761-1.732-4.294-2.6-7.601-2.6
					c-2.239,0-4.439,0.414-6.6,1.24c-2.16,0.828-4.388,2.014-6.68,3.56l-2.721-5.6c5.387-3.626,10.986-5.44,16.8-5.44
					c5.761,0,10.24,1.468,13.44,4.4c3.2,2.934,4.8,7.147,4.8,12.64v15.12c0,1.014,0.187,1.734,0.561,2.16
					c0.372,0.428,1.012,0.668,1.92,0.72v7.52c-0.854,0.16-1.641,0.266-2.36,0.32c-0.72,0.053-1.374,0.08-1.96,0.08
					c-1.707-0.107-3-0.56-3.88-1.36s-1.428-1.866-1.64-3.2l-0.24-2.64c-1.867,2.454-4.174,4.333-6.92,5.64
					C656.23,174.517,653.283,175.17,650.138,175.17z M652.537,168.69c2.133,0,4.146-0.386,6.04-1.16
					c1.893-0.772,3.373-1.853,4.44-3.24c1.12-0.96,1.68-1.973,1.68-3.04v-5.52c-1.494-0.586-3.08-1.04-4.76-1.36
					c-1.681-0.32-3.32-0.48-4.92-0.48c-3.147,0-5.721,0.68-7.721,2.04s-3,3.16-3,5.4c0,2.08,0.772,3.828,2.32,5.24
					C648.163,167.984,650.138,168.69,652.537,168.69z"/>
				<path fill="#FFFFFF" d="M681.656,153.41c0-2.933,0.507-5.706,1.521-8.32c1.013-2.613,2.466-4.906,4.36-6.88
					c1.892-1.972,4.172-3.532,6.84-4.68c2.666-1.146,5.652-1.72,8.96-1.72c4.319,0,8.04,0.948,11.16,2.84
					c3.119,1.894,5.452,4.414,7,7.56l-8.561,2.72c-1.014-1.76-2.374-3.132-4.08-4.12c-1.707-0.986-3.6-1.48-5.68-1.48
					c-1.76,0-3.4,0.348-4.92,1.04c-1.521,0.694-2.84,1.667-3.96,2.92c-1.12,1.254-2,2.734-2.641,4.44
					c-0.64,1.708-0.96,3.6-0.96,5.68c0,2.027,0.333,3.907,1,5.64c0.667,1.733,1.573,3.24,2.721,4.52c1.146,1.28,2.479,2.28,4,3
					c1.52,0.72,3.132,1.08,4.84,1.08c1.066,0,2.133-0.146,3.2-0.44c1.065-0.292,2.04-0.706,2.92-1.24
					c0.88-0.533,1.652-1.146,2.319-1.84c0.667-0.692,1.16-1.44,1.48-2.24l8.64,2.56c-1.388,3.147-3.707,5.72-6.96,7.72
					c-3.254,2-7.094,3-11.52,3c-3.254,0-6.214-0.587-8.88-1.76c-2.668-1.172-4.948-2.76-6.841-4.76c-1.894-2-3.359-4.306-4.399-6.92
					C682.176,159.118,681.656,156.344,681.656,153.41z"/>
				<path fill="#FFFFFF" d="M748.055,175.17c-3.254,0-6.214-0.574-8.88-1.72c-2.668-1.146-4.948-2.707-6.841-4.68
					c-1.894-1.972-3.359-4.266-4.399-6.88c-1.04-2.612-1.561-5.386-1.561-8.32c0-2.933,0.521-5.72,1.561-8.36
					c1.04-2.64,2.506-4.96,4.399-6.96c1.893-2,4.173-3.572,6.841-4.72c2.666-1.146,5.652-1.72,8.96-1.72
					c3.252,0,6.199,0.587,8.84,1.76c2.64,1.173,4.893,2.733,6.76,4.68c1.866,1.948,3.293,4.214,4.28,6.8
					c0.986,2.587,1.479,5.293,1.479,8.12c0,0.64-0.027,1.24-0.08,1.8c-0.054,0.56-0.107,1.027-0.159,1.4h-33.521
					c0.16,1.868,0.6,3.547,1.32,5.04c0.72,1.494,1.652,2.788,2.8,3.88c1.146,1.094,2.452,1.934,3.92,2.52
					c1.466,0.587,3,0.88,4.6,0.88c1.173,0,2.333-0.146,3.48-0.44c1.146-0.292,2.2-0.72,3.16-1.28s1.812-1.24,2.56-2.04
					c0.746-0.8,1.333-1.68,1.76-2.64l7.521,2.16c-1.44,3.147-3.827,5.72-7.16,7.72C756.361,174.17,752.481,175.17,748.055,175.17z
					 M760.775,150.29c-0.16-1.76-0.6-3.386-1.32-4.88c-0.72-1.493-1.64-2.76-2.76-3.8c-1.12-1.04-2.428-1.853-3.92-2.44
					c-1.494-0.586-3.067-0.88-4.72-0.88c-1.654,0-3.214,0.294-4.681,0.88c-1.467,0.588-2.76,1.4-3.88,2.44
					c-1.12,1.04-2.027,2.307-2.72,3.8c-0.693,1.494-1.12,3.12-1.28,4.88H760.775z"/>
				<path fill="#FFFFFF" d="M792.213,175.17c-1.707,0-3.428-0.134-5.16-0.4c-1.733-0.268-3.439-0.652-5.12-1.16
					c-1.68-0.506-3.279-1.12-4.8-1.84c-1.52-0.72-2.867-1.532-4.04-2.44l3.681-5.92c5.12,3.574,10.212,5.36,15.279,5.36
					c2.667,0,4.772-0.506,6.32-1.52c1.546-1.012,2.32-2.452,2.32-4.32c0-1.76-0.868-3.053-2.601-3.88
					c-1.733-0.827-4.493-1.693-8.279-2.6c-2.614-0.64-4.854-1.292-6.721-1.96c-1.867-0.667-3.387-1.413-4.56-2.24
					c-1.174-0.826-2.027-1.812-2.561-2.96c-0.533-1.146-0.8-2.52-0.8-4.12c0-2.132,0.427-4.026,1.28-5.68
					c0.853-1.653,2.013-3.053,3.479-4.2c1.467-1.146,3.2-2.012,5.2-2.6c2-0.586,4.146-0.88,6.44-0.88c3.04,0,5.973,0.48,8.8,1.44
					c2.826,0.96,5.36,2.268,7.6,3.92l-3.76,5.36c-4-2.986-8.268-4.48-12.8-4.48c-2.24,0-4.134,0.467-5.68,1.4
					c-1.548,0.934-2.32,2.414-2.32,4.44c0,0.854,0.16,1.574,0.48,2.16c0.319,0.587,0.84,1.094,1.56,1.52
					c0.72,0.427,1.666,0.813,2.84,1.16c1.173,0.348,2.612,0.734,4.32,1.16c2.88,0.694,5.359,1.388,7.439,2.08
					c2.08,0.694,3.801,1.507,5.16,2.44c1.36,0.934,2.36,2.027,3,3.28c0.641,1.254,0.96,2.76,0.96,4.52c0,1.974-0.399,3.76-1.2,5.36
					c-0.8,1.6-1.934,2.96-3.399,4.08c-1.468,1.12-3.254,1.988-5.36,2.6C797.106,174.863,794.774,175.17,792.213,175.17z"/>
				<path fill="#FFFFFF" d="M144.663,218.53h-20.24v51.84h-5.6v-51.84h-20.24v-4.96h46.08V218.53z"/>
				<path fill="#FFFFFF" d="M172.823,233.491c-3.68,0.107-6.88,1.12-9.6,3.04c-2.72,1.92-4.64,4.56-5.76,7.92v25.92h-5.44V228.69
					h5.12v10c1.44-2.932,3.333-5.372,5.68-7.319c2.346-1.946,4.88-2.92,7.6-2.92c0.48,0,0.932,0,1.36,0
					c0.426,0,0.772,0.027,1.04,0.08V233.491z"/>
				<path fill="#FFFFFF" d="M190.343,271.171c-2.134,0-4.08-0.334-5.84-1c-1.76-0.666-3.268-1.586-4.52-2.76
					c-1.254-1.173-2.228-2.533-2.92-4.08c-0.694-1.547-1.04-3.173-1.04-4.88c0-1.92,0.426-3.667,1.28-5.24
					c0.853-1.572,2.053-2.92,3.6-4.04c1.546-1.12,3.4-1.986,5.56-2.6s4.546-0.921,7.16-0.921c2.08,0,4.212,0.188,6.4,0.561
					c2.186,0.374,4.132,0.907,5.84,1.6v-3.76c0-3.68-1.054-6.6-3.16-8.76c-2.108-2.16-4.948-3.24-8.52-3.24
					c-2.24,0-4.468,0.428-6.68,1.28c-2.214,0.854-4.468,2.08-6.76,3.68l-1.92-3.6c2.72-1.812,5.36-3.173,7.92-4.08
					c2.56-0.906,5.227-1.36,8-1.36c5.066,0,9.093,1.468,12.08,4.4c2.986,2.934,4.48,6.987,4.48,12.16v18.8
					c0,1.493,0.64,2.24,1.92,2.24v4.8c-0.427,0.053-0.827,0.092-1.2,0.12c-0.374,0.026-0.694,0.04-0.96,0.04
					c-1.067,0-2.04-0.32-2.92-0.96c-0.88-0.641-1.374-1.601-1.48-2.881l-0.16-3.279c-1.814,2.453-4.2,4.359-7.16,5.72
					S193.383,271.171,190.343,271.171z M191.703,267.01c2.4,0,4.786-0.52,7.16-1.56c2.373-1.04,4.252-2.467,5.64-4.28
					c0.373-0.48,0.692-1,0.96-1.56c0.266-0.561,0.4-1.08,0.4-1.561v-6.8c-1.813-0.692-3.708-1.227-5.68-1.601
					c-1.974-0.372-3.894-0.56-5.76-0.56c-3.894,0-7.054,0.787-9.48,2.36c-2.427,1.573-3.64,3.747-3.64,6.52
					c0,1.12,0.213,2.214,0.64,3.28c0.426,1.067,1.08,2.027,1.96,2.88c0.88,0.854,1.96,1.548,3.24,2.08
					C188.423,266.744,189.943,267.01,191.703,267.01z"/>
				<path fill="#FFFFFF" d="M258.182,270.371h-5.44v-23.28c0-4.96-0.72-8.56-2.16-10.8c-1.44-2.24-3.68-3.36-6.72-3.36
					c-1.6,0-3.2,0.294-4.8,0.88c-1.6,0.588-3.094,1.414-4.48,2.48c-1.387,1.067-2.6,2.334-3.64,3.8
					c-1.04,1.468-1.828,3.054-2.36,4.76v25.521h-5.44V228.69h4.96v9.44c0.853-1.492,1.906-2.866,3.16-4.12
					c1.252-1.252,2.652-2.332,4.2-3.24c1.546-0.906,3.186-1.6,4.92-2.08c1.732-0.479,3.532-0.72,5.4-0.72
					c2.346,0,4.306,0.428,5.88,1.28c1.573,0.854,2.84,2.054,3.8,3.6c0.96,1.548,1.652,3.44,2.08,5.681
					c0.426,2.239,0.64,4.72,0.64,7.439V270.371z"/>
				<path fill="#FFFFFF" d="M283.461,271.171c-3.253,0-6.427-0.534-9.52-1.6c-3.094-1.066-5.76-2.613-8-4.641l2.48-3.68
					c2.347,1.92,4.733,3.36,7.16,4.32c2.426,0.96,5.026,1.439,7.8,1.439c3.36,0,6.04-0.68,8.04-2.04c2-1.359,3-3.292,3-5.8
					c0-1.173-0.267-2.146-0.8-2.92c-0.534-0.772-1.32-1.452-2.36-2.04c-1.04-0.586-2.348-1.106-3.92-1.561
					c-1.574-0.452-3.4-0.92-5.48-1.399c-2.4-0.586-4.48-1.173-6.24-1.76s-3.214-1.253-4.36-2c-1.147-0.747-2-1.667-2.56-2.761
					c-0.56-1.092-0.84-2.466-0.84-4.119c0-2.08,0.412-3.921,1.24-5.521c0.826-1.6,1.946-2.92,3.36-3.96
					c1.413-1.04,3.066-1.826,4.96-2.36c1.893-0.532,3.906-0.8,6.04-0.8c3.2,0,6.106,0.521,8.72,1.561
					c2.612,1.04,4.72,2.413,6.32,4.119l-2.64,3.2c-1.548-1.6-3.428-2.8-5.64-3.6c-2.214-0.8-4.52-1.2-6.92-1.2
					c-1.44,0-2.774,0.147-4,0.44c-1.228,0.293-2.308,0.76-3.24,1.399c-0.934,0.641-1.667,1.454-2.2,2.44
					c-0.534,0.987-0.8,2.147-0.8,3.479c0,1.12,0.187,2.027,0.56,2.721c0.373,0.693,0.986,1.293,1.84,1.8
					c0.853,0.507,1.933,0.96,3.24,1.359c1.306,0.4,2.893,0.814,4.76,1.24c2.667,0.641,5.013,1.28,7.04,1.92
					c2.026,0.641,3.72,1.388,5.08,2.24c1.36,0.854,2.386,1.894,3.08,3.12c0.692,1.228,1.04,2.72,1.04,4.479
					c0,3.841-1.468,6.881-4.4,9.12C292.367,270.05,288.421,271.171,283.461,271.171z"/>
				<path fill="#FFFFFF" d="M310.582,270.371v-32.48h-5.76v-4.319h5.76v-6c0-5.121,1.092-9.133,3.28-12.041
					c2.187-2.906,5.2-4.36,9.04-4.36c1.6,0,3.172,0.24,4.72,0.72c1.546,0.48,2.88,1.12,4,1.92l-1.68,3.92
					c-0.748-0.586-1.667-1.04-2.76-1.36c-1.094-0.32-2.174-0.48-3.24-0.48c-2.56,0-4.52,0.987-5.88,2.96
					c-1.36,1.974-2.04,4.828-2.04,8.561v6.16h11.52v4.319h-11.52v32.48H310.582z"/>
				<path fill="#FFFFFF" d="M353.382,271.171c-3.04,0-5.827-0.574-8.36-1.72c-2.534-1.146-4.72-2.707-6.56-4.681
					c-1.84-1.972-3.268-4.266-4.28-6.88c-1.014-2.612-1.52-5.359-1.52-8.24c0-2.932,0.52-5.706,1.56-8.319
					c1.04-2.612,2.48-4.906,4.32-6.88c1.84-1.973,4.026-3.547,6.56-4.721c2.532-1.172,5.292-1.76,8.28-1.76
					c2.986,0,5.747,0.588,8.28,1.76c2.532,1.174,4.72,2.748,6.56,4.721c1.84,1.974,3.28,4.268,4.32,6.88
					c1.04,2.613,1.56,5.388,1.56,8.319c0,2.881-0.52,5.628-1.56,8.24c-1.04,2.614-2.48,4.908-4.32,6.88
					c-1.84,1.974-4.028,3.534-6.56,4.681C359.128,270.596,356.368,271.171,353.382,271.171z M338.262,249.73
					c0,2.348,0.386,4.521,1.16,6.521c0.772,2,1.84,3.76,3.2,5.28c1.36,1.52,2.96,2.707,4.8,3.56c1.84,0.854,3.8,1.28,5.88,1.28
					c2.08,0,4.04-0.44,5.88-1.32c1.84-0.88,3.452-2.08,4.84-3.6c1.386-1.521,2.48-3.293,3.28-5.32c0.8-2.026,1.2-4.213,1.2-6.56
					c0-2.293-0.4-4.467-1.2-6.521c-0.8-2.053-1.894-3.84-3.28-5.36c-1.388-1.52-2.987-2.72-4.8-3.6c-1.814-0.88-3.76-1.32-5.84-1.32
					s-4.04,0.44-5.88,1.32s-3.44,2.094-4.8,3.64c-1.36,1.548-2.44,3.348-3.24,5.4C338.662,245.184,338.262,247.384,338.262,249.73z"
					/>
				<path fill="#FFFFFF" d="M403.781,233.491c-3.68,0.107-6.88,1.12-9.6,3.04c-2.72,1.92-4.64,4.56-5.76,7.92v25.92h-5.44V228.69
					h5.12v10c1.44-2.932,3.333-5.372,5.68-7.319c2.346-1.946,4.88-2.92,7.6-2.92c0.48,0,0.932,0,1.36,0
					c0.426,0,0.772,0.027,1.04,0.08V233.491z"/>
				<path fill="#FFFFFF" d="M473.06,270.371h-5.44v-23.28c0-4.853-0.76-8.426-2.28-10.72c-1.52-2.293-3.828-3.44-6.92-3.44
					c-1.6,0-3.108,0.294-4.52,0.88c-1.414,0.588-2.72,1.414-3.92,2.48c-1.2,1.067-2.253,2.334-3.16,3.8
					c-0.908,1.468-1.6,3.08-2.08,4.84v25.44h-5.44v-23.28c0-4.96-0.748-8.56-2.24-10.8c-1.494-2.24-3.787-3.36-6.88-3.36
					c-3.147,0-5.947,1.094-8.4,3.28c-2.454,2.188-4.214,5.067-5.28,8.64v25.521h-5.44V228.69h4.96v9.44
					c1.707-3.2,3.946-5.692,6.72-7.48c2.772-1.786,5.84-2.68,9.2-2.68c3.52,0,6.346,0.987,8.48,2.96
					c2.132,1.974,3.412,4.561,3.84,7.76c3.893-7.146,9.28-10.72,16.16-10.72c2.292,0,4.252,0.428,5.88,1.28
					c1.626,0.854,2.933,2.067,3.92,3.64c0.986,1.574,1.706,3.468,2.16,5.681c0.452,2.213,0.68,4.68,0.68,7.399V270.371z"/>
				<path fill="#FFFFFF" d="M484.339,219.97v-8h5.44v8H484.339z M484.339,270.371V228.69h5.44v41.681H484.339z"/>
				<path fill="#FFFFFF" d="M536.498,270.371h-5.439v-23.28c0-4.96-0.721-8.56-2.16-10.8c-1.44-2.24-3.681-3.36-6.721-3.36
					c-1.6,0-3.199,0.294-4.8,0.88c-1.6,0.588-3.094,1.414-4.479,2.48c-1.388,1.067-2.601,2.334-3.641,3.8
					c-1.04,1.468-1.827,3.054-2.359,4.76v25.521h-5.44V228.69h4.96v9.44c0.853-1.492,1.906-2.866,3.16-4.12
					c1.253-1.252,2.652-2.332,4.2-3.24c1.546-0.906,3.187-1.6,4.92-2.08c1.732-0.479,3.532-0.72,5.4-0.72
					c2.346,0,4.306,0.428,5.88,1.28c1.572,0.854,2.84,2.054,3.8,3.6c0.96,1.548,1.652,3.44,2.08,5.681
					c0.426,2.239,0.64,4.72,0.64,7.439V270.371z"/>
				<path fill="#FFFFFF" d="M564.657,270.93c-2.88,0-5.507-0.6-7.88-1.8c-2.374-1.2-4.428-2.786-6.16-4.76
					c-1.733-1.973-3.08-4.24-4.04-6.8c-0.96-2.561-1.439-5.2-1.439-7.921c0-2.88,0.466-5.64,1.399-8.279
					c0.933-2.641,2.253-4.946,3.96-6.92c1.707-1.973,3.747-3.547,6.12-4.721c2.373-1.172,5-1.76,7.88-1.76
					c3.573,0,6.667,0.894,9.28,2.68c2.612,1.788,4.853,4.04,6.72,6.761v-8.721h4.881v41.841c0,2.88-0.548,5.426-1.641,7.64
					c-1.094,2.213-2.56,4.066-4.399,5.56c-1.841,1.493-4.014,2.613-6.521,3.36c-2.508,0.746-5.147,1.12-7.92,1.12
					c-4.747,0-8.588-0.854-11.52-2.561c-2.935-1.707-5.308-4-7.12-6.88l3.359-2.64c1.652,2.666,3.84,4.626,6.561,5.88
					c2.72,1.253,5.626,1.88,8.72,1.88c2.026,0,3.96-0.279,5.8-0.84c1.84-0.56,3.44-1.388,4.8-2.479c1.36-1.094,2.44-2.48,3.24-4.16
					c0.8-1.681,1.2-3.641,1.2-5.88v-8.24c-1.653,2.667-3.854,4.773-6.6,6.32C570.59,270.158,567.698,270.93,564.657,270.93z
					 M566.178,266.371c1.6,0,3.172-0.293,4.72-0.88c1.546-0.587,2.946-1.373,4.2-2.36c1.252-0.986,2.306-2.093,3.16-3.32
					c0.853-1.226,1.412-2.479,1.68-3.76v-12.88c-0.588-1.492-1.4-2.88-2.44-4.16s-2.199-2.372-3.479-3.28
					c-1.28-0.906-2.654-1.626-4.12-2.159c-1.468-0.533-2.947-0.801-4.44-0.801c-2.347,0-4.427,0.494-6.239,1.48
					c-1.814,0.987-3.36,2.28-4.641,3.88c-1.279,1.6-2.253,3.414-2.92,5.44c-0.667,2.027-1,4.079-1,6.159c0,2.24,0.4,4.374,1.2,6.4
					c0.8,2.027,1.893,3.8,3.28,5.32c1.386,1.52,3.026,2.72,4.92,3.6C561.95,265.93,563.99,266.371,566.178,266.371z"/>
				<path fill="#FFFFFF" d="M618.098,270.371v-56.8h37.84v7.92h-28.88v16.96h24.159v7.439h-24.159v24.48H618.098z"/>
				<path fill="#FFFFFF" d="M674.178,271.171c-4.32,0-7.6-1.427-9.84-4.28c-2.24-2.853-3.36-7.106-3.36-12.76v-25.6h8.8v23.84
					c0,7.52,2.641,11.279,7.92,11.279c2.561,0,4.961-0.772,7.2-2.319c2.24-1.547,3.973-3.786,5.2-6.72v-26.08h8.8v31.439
					c0,1.014,0.187,1.734,0.561,2.16c0.372,0.428,1.04,0.668,2,0.72v7.521c-0.96,0.16-1.788,0.266-2.48,0.319
					c-0.693,0.053-1.308,0.08-1.84,0.08c-3.308-0.268-5.174-1.786-5.6-4.56l-0.16-4.32c-1.868,3.04-4.294,5.348-7.28,6.92
					C681.111,270.383,677.804,271.171,674.178,271.171z"/>
				<path fill="#FFFFFF" d="M733.458,268.211c-1.173,0.533-2.733,1.134-4.68,1.8c-1.947,0.666-4.067,1-6.36,1
					c-1.387,0-2.68-0.188-3.88-0.56c-1.199-0.373-2.268-0.933-3.199-1.681c-0.935-0.746-1.668-1.72-2.2-2.92
					c-0.534-1.2-0.8-2.652-0.8-4.359v-26.16h-5.601v-6.8h5.601V214.77h8.8v13.761h9.12v6.8h-9.12v23.359
					c0,1.494,0.426,2.574,1.279,3.24c0.853,0.668,1.893,1,3.12,1c1.227,0,2.4-0.212,3.521-0.64c1.12-0.427,1.946-0.772,2.479-1.04
					L733.458,268.211z"/>
				<path fill="#FFFFFF" d="M752.018,271.171c-4.32,0-7.6-1.427-9.84-4.28c-2.24-2.853-3.36-7.106-3.36-12.76v-25.6h8.8v23.84
					c0,7.52,2.641,11.279,7.92,11.279c2.561,0,4.961-0.772,7.2-2.319c2.24-1.547,3.973-3.786,5.2-6.72v-26.08h8.8v31.439
					c0,1.014,0.187,1.734,0.561,2.16c0.372,0.428,1.04,0.668,2,0.72v7.521c-0.96,0.16-1.788,0.266-2.48,0.319
					c-0.693,0.053-1.308,0.08-1.84,0.08c-3.308-0.268-5.174-1.786-5.6-4.56l-0.16-4.32c-1.868,3.04-4.294,5.348-7.28,6.92
					C758.95,270.383,755.644,271.171,752.018,271.171z"/>
				<path fill="#FFFFFF" d="M811.618,236.131c-3.413,0.107-6.427,0.894-9.04,2.36s-4.507,3.56-5.68,6.279v25.601h-8.8v-41.84h8.16
					v9.359c1.492-2.88,3.399-5.226,5.72-7.04c2.32-1.812,4.786-2.72,7.4-2.72c0.532,0,0.972,0,1.319,0
					c0.347,0,0.652,0.027,0.92,0.08V236.131z"/>
				<path fill="#FFFFFF" d="M837.139,271.171c-3.254,0-6.214-0.574-8.88-1.72c-2.668-1.146-4.948-2.707-6.841-4.681
					c-1.894-1.972-3.359-4.266-4.399-6.88c-1.04-2.612-1.561-5.386-1.561-8.319c0-2.933,0.521-5.721,1.561-8.36
					s2.506-4.96,4.399-6.96c1.893-2,4.173-3.572,6.841-4.72c2.666-1.146,5.652-1.721,8.96-1.721c3.252,0,6.199,0.588,8.84,1.761
					c2.64,1.173,4.893,2.733,6.76,4.68c1.866,1.947,3.293,4.214,4.28,6.8c0.986,2.588,1.479,5.294,1.479,8.12
					c0,0.64-0.027,1.24-0.08,1.8c-0.054,0.561-0.107,1.027-0.159,1.4h-33.521c0.16,1.867,0.6,3.547,1.32,5.04
					c0.72,1.493,1.652,2.787,2.8,3.88c1.146,1.094,2.452,1.934,3.92,2.52c1.466,0.588,3,0.88,4.6,0.88
					c1.173,0,2.333-0.146,3.48-0.439c1.146-0.293,2.2-0.72,3.16-1.28c0.96-0.56,1.812-1.24,2.56-2.04
					c0.746-0.8,1.333-1.68,1.76-2.64l7.521,2.16c-1.44,3.147-3.827,5.72-7.16,7.72C845.445,270.171,841.565,271.171,837.139,271.171
					z M849.859,246.291c-0.16-1.76-0.6-3.387-1.32-4.88c-0.72-1.493-1.64-2.761-2.76-3.8c-1.12-1.04-2.428-1.853-3.92-2.44
					c-1.494-0.586-3.067-0.88-4.72-0.88c-1.654,0-3.214,0.294-4.681,0.88c-1.467,0.588-2.76,1.4-3.88,2.44
					c-1.12,1.039-2.027,2.307-2.72,3.8c-0.693,1.493-1.12,3.12-1.28,4.88H849.859z"/>
				<path fill="#FFFFFF" d="M881.296,271.171c-1.707,0-3.428-0.134-5.16-0.4c-1.733-0.268-3.439-0.652-5.12-1.159
					c-1.68-0.507-3.279-1.12-4.8-1.841c-1.52-0.72-2.867-1.532-4.04-2.439l3.681-5.92c5.12,3.573,10.212,5.359,15.279,5.359
					c2.667,0,4.772-0.506,6.32-1.52c1.546-1.013,2.32-2.452,2.32-4.32c0-1.76-0.868-3.053-2.601-3.88
					c-1.733-0.826-4.493-1.692-8.279-2.6c-2.614-0.641-4.854-1.293-6.721-1.96c-1.867-0.667-3.387-1.413-4.56-2.24
					c-1.174-0.826-2.027-1.812-2.561-2.96c-0.533-1.146-0.8-2.521-0.8-4.12c0-2.133,0.427-4.026,1.28-5.68
					c0.853-1.653,2.013-3.053,3.479-4.2c1.467-1.146,3.2-2.013,5.2-2.601c2-0.586,4.146-0.88,6.44-0.88c3.04,0,5.973,0.48,8.8,1.44
					c2.826,0.96,5.36,2.268,7.6,3.92l-3.76,5.36c-4-2.986-8.268-4.48-12.8-4.48c-2.24,0-4.134,0.468-5.68,1.4
					c-1.548,0.934-2.32,2.413-2.32,4.439c0,0.854,0.16,1.574,0.48,2.16c0.319,0.588,0.84,1.094,1.56,1.521s1.666,0.813,2.84,1.159
					c1.173,0.348,2.612,0.734,4.32,1.16c2.88,0.694,5.359,1.388,7.439,2.08c2.08,0.694,3.801,1.508,5.16,2.44
					c1.36,0.934,2.36,2.027,3,3.279c0.641,1.254,0.96,2.761,0.96,4.521c0,1.974-0.399,3.76-1.2,5.36
					c-0.8,1.6-1.934,2.96-3.399,4.079c-1.468,1.12-3.254,1.988-5.36,2.601C886.189,270.863,883.857,271.171,881.296,271.171z"/>
			</g>
		</g>
	</g>
</g>
<g>
	<path fill="#FFFFFF" d="M404.048,342.279h2.52l2.088,5.784l2.112-5.784h2.544l-2.928,7.584l2.568,6.264l5.304-13.92h2.928
		l-7.008,17.04h-2.328l-3.168-7.632l-3.192,7.632h-2.304l-7.008-17.04h2.904l5.352,13.92l2.52-6.264L404.048,342.279z"/>
	<path fill="#FFFFFF" d="M424.953,359.487c-0.608,0-1.172-0.101-1.692-0.3c-0.52-0.2-0.968-0.477-1.344-0.828
		c-0.376-0.353-0.672-0.769-0.888-1.248c-0.216-0.48-0.324-1-0.324-1.561c0-0.592,0.128-1.128,0.384-1.607
		c0.255-0.48,0.62-0.896,1.092-1.248c0.472-0.352,1.032-0.624,1.68-0.816c0.648-0.191,1.364-0.288,2.148-0.288
		c0.592,0,1.176,0.053,1.752,0.156c0.576,0.104,1.096,0.244,1.56,0.42v-0.864c0-0.928-0.264-1.651-0.792-2.172
		c-0.528-0.52-1.288-0.78-2.28-0.78c-0.672,0-1.332,0.125-1.98,0.372c-0.648,0.249-1.316,0.604-2.004,1.068l-0.816-1.68
		c1.616-1.088,3.296-1.632,5.04-1.632c1.728,0,3.072,0.439,4.032,1.319c0.96,0.88,1.44,2.145,1.44,3.792v4.536
		c0,0.305,0.056,0.521,0.168,0.648c0.111,0.128,0.304,0.2,0.576,0.216v2.256c-0.256,0.048-0.492,0.08-0.708,0.096
		c-0.216,0.016-0.412,0.024-0.588,0.024c-0.512-0.032-0.9-0.168-1.164-0.408s-0.428-0.56-0.492-0.96l-0.072-0.792
		c-0.56,0.736-1.252,1.3-2.076,1.692C426.78,359.291,425.896,359.487,424.953,359.487z M425.673,357.543
		c0.64,0,1.244-0.116,1.812-0.348c0.567-0.232,1.012-0.556,1.332-0.973c0.336-0.287,0.504-0.592,0.504-0.911v-1.656
		c-0.448-0.176-0.924-0.312-1.428-0.408c-0.504-0.096-0.996-0.144-1.476-0.144c-0.944,0-1.716,0.203-2.316,0.611
		c-0.6,0.408-0.9,0.948-0.9,1.62c0,0.624,0.232,1.148,0.696,1.572C424.361,357.33,424.953,357.543,425.673,357.543z"/>
	<path fill="#FFFFFF" d="M442.016,358.598c-0.352,0.16-0.82,0.341-1.404,0.54c-0.584,0.2-1.22,0.301-1.908,0.301
		c-0.416,0-0.804-0.057-1.164-0.168c-0.36-0.112-0.68-0.28-0.96-0.505c-0.28-0.224-0.5-0.516-0.66-0.876
		c-0.16-0.359-0.24-0.795-0.24-1.308v-7.848H434v-2.04h1.68v-4.128h2.64v4.128h2.736v2.04h-2.736v7.008
		c0,0.448,0.128,0.772,0.384,0.972c0.256,0.2,0.568,0.3,0.936,0.3s0.72-0.063,1.056-0.191c0.336-0.128,0.584-0.231,0.744-0.312
		L442.016,358.598z"/>
	<path fill="#FFFFFF" d="M442.952,352.959c0-0.88,0.152-1.712,0.456-2.496c0.304-0.783,0.74-1.472,1.308-2.063
		c0.567-0.592,1.251-1.061,2.052-1.404c0.8-0.344,1.696-0.516,2.688-0.516c1.296,0,2.412,0.284,3.348,0.852s1.636,1.324,2.1,2.268
		l-2.568,0.816c-0.304-0.528-0.712-0.939-1.224-1.236c-0.513-0.296-1.08-0.443-1.704-0.443c-0.528,0-1.02,0.104-1.476,0.312
		s-0.852,0.5-1.188,0.876c-0.336,0.376-0.6,0.82-0.792,1.332c-0.192,0.513-0.288,1.08-0.288,1.704c0,0.608,0.1,1.172,0.3,1.692
		c0.2,0.52,0.472,0.972,0.816,1.355c0.344,0.384,0.744,0.685,1.2,0.9c0.456,0.215,0.94,0.324,1.452,0.324
		c0.32,0,0.64-0.044,0.96-0.133c0.32-0.087,0.612-0.212,0.876-0.371c0.264-0.16,0.496-0.345,0.696-0.553
		c0.2-0.207,0.348-0.432,0.444-0.672l2.592,0.769c-0.416,0.943-1.112,1.716-2.088,2.315c-0.976,0.601-2.128,0.9-3.456,0.9
		c-0.976,0-1.864-0.177-2.664-0.528c-0.8-0.352-1.484-0.828-2.052-1.428c-0.568-0.601-1.008-1.292-1.32-2.076
		S442.952,353.839,442.952,352.959z"/>
	<path fill="#FFFFFF" d="M468.415,359.247h-2.64v-7.032c0-1.151-0.208-2.004-0.624-2.556s-1.008-0.828-1.776-0.828
		c-0.352,0-0.712,0.072-1.08,0.216c-0.368,0.145-0.716,0.349-1.044,0.612s-0.624,0.576-0.888,0.936s-0.46,0.756-0.588,1.188v7.464
		h-2.64v-17.52h2.64v7.487c0.496-0.864,1.156-1.536,1.98-2.016c0.824-0.48,1.724-0.72,2.7-0.72c0.768,0,1.408,0.14,1.92,0.42
		c0.512,0.279,0.92,0.651,1.224,1.115c0.304,0.465,0.516,1.005,0.636,1.62c0.12,0.616,0.18,1.269,0.18,1.956V359.247z"/>
	<path fill="#FFFFFF" d="M484.303,358.598c-0.352,0.16-0.819,0.341-1.403,0.54c-0.585,0.2-1.221,0.301-1.908,0.301
		c-0.416,0-0.804-0.057-1.164-0.168c-0.36-0.112-0.681-0.28-0.96-0.505c-0.28-0.224-0.5-0.516-0.66-0.876
		c-0.16-0.359-0.24-0.795-0.24-1.308v-7.848h-1.68v-2.04h1.68v-4.128h2.641v4.128h2.735v2.04h-2.735v7.008
		c0,0.448,0.128,0.772,0.384,0.972c0.256,0.2,0.567,0.3,0.936,0.3s0.721-0.063,1.057-0.191c0.336-0.128,0.584-0.231,0.744-0.312
		L484.303,358.598z"/>
	<path fill="#FFFFFF" d="M497.288,359.247h-2.641v-7.032c0-1.151-0.208-2.004-0.624-2.556s-1.008-0.828-1.775-0.828
		c-0.353,0-0.712,0.072-1.08,0.216c-0.368,0.145-0.716,0.349-1.044,0.612s-0.624,0.576-0.888,0.936
		c-0.265,0.36-0.461,0.756-0.589,1.188v7.464h-2.64v-17.52h2.64v7.487c0.496-0.864,1.156-1.536,1.98-2.016
		c0.824-0.48,1.724-0.72,2.7-0.72c0.768,0,1.407,0.14,1.92,0.42c0.512,0.279,0.92,0.651,1.224,1.115
		c0.304,0.465,0.517,1.005,0.637,1.62c0.119,0.616,0.18,1.269,0.18,1.956L497.288,359.247L497.288,359.247z"/>
	<path fill="#FFFFFF" d="M505.999,359.487c-0.977,0-1.864-0.172-2.664-0.517c-0.801-0.344-1.484-0.812-2.052-1.403
		c-0.568-0.592-1.009-1.28-1.32-2.064c-0.312-0.783-0.468-1.616-0.468-2.496s0.155-1.716,0.468-2.508
		c0.312-0.792,0.752-1.488,1.32-2.088c0.567-0.6,1.251-1.072,2.052-1.416c0.8-0.344,1.695-0.516,2.688-0.516
		c0.977,0,1.86,0.176,2.652,0.527c0.792,0.353,1.468,0.82,2.028,1.404c0.56,0.584,0.987,1.264,1.283,2.04s0.444,1.588,0.444,2.436
		c0,0.192-0.008,0.372-0.023,0.54c-0.017,0.168-0.032,0.309-0.049,0.42h-10.056c0.048,0.561,0.18,1.064,0.396,1.513
		c0.216,0.448,0.495,0.836,0.84,1.164c0.344,0.328,0.735,0.58,1.176,0.756c0.439,0.176,0.9,0.264,1.38,0.264
		c0.352,0,0.7-0.044,1.044-0.132c0.344-0.088,0.66-0.216,0.948-0.384c0.288-0.168,0.544-0.372,0.768-0.612
		c0.225-0.24,0.4-0.504,0.528-0.792l2.256,0.648c-0.432,0.943-1.148,1.716-2.147,2.315
		C508.491,359.187,507.328,359.487,505.999,359.487z M509.815,352.023c-0.048-0.528-0.18-1.017-0.396-1.465
		c-0.216-0.447-0.492-0.827-0.828-1.14c-0.336-0.312-0.729-0.556-1.176-0.731c-0.448-0.177-0.921-0.265-1.416-0.265
		c-0.496,0-0.964,0.088-1.404,0.265c-0.44,0.176-0.828,0.42-1.164,0.731c-0.336,0.312-0.608,0.692-0.815,1.14
		c-0.209,0.448-0.337,0.937-0.385,1.465H509.815z"/>
	<path fill="#FFFFFF" d="M523.279,359.247l-4.8-12.552h2.736l3.575,10.319l3.624-10.319h2.496l-4.8,12.552H523.279z"/>
	<path fill="#FFFFFF" d="M532.71,344.631v-2.903h2.64v2.903H532.71z M532.71,359.247v-12.552h2.64v12.552H532.71z"/>
	<path fill="#FFFFFF" d="M543.655,359.487c-0.864,0-1.66-0.172-2.389-0.517c-0.728-0.344-1.355-0.812-1.884-1.403
		s-0.94-1.28-1.236-2.064c-0.296-0.783-0.443-1.624-0.443-2.52s0.14-1.74,0.42-2.532c0.279-0.792,0.668-1.479,1.164-2.064
		c0.495-0.584,1.092-1.048,1.788-1.392c0.695-0.344,1.452-0.516,2.268-0.516c0.976,0,1.848,0.239,2.616,0.72
		c0.768,0.479,1.368,1.104,1.8,1.872v-7.344h2.64v14.399c0,0.544,0.256,0.832,0.769,0.864v2.256c-0.272,0.048-0.513,0.08-0.72,0.096
		c-0.209,0.016-0.4,0.024-0.576,0.024c-0.992-0.096-1.553-0.552-1.681-1.368l-0.048-1.032c-0.479,0.816-1.12,1.44-1.92,1.872
		C545.422,359.271,544.566,359.487,543.655,359.487z M544.327,357.231c0.336,0,0.688-0.064,1.056-0.192s0.712-0.304,1.032-0.528
		c0.319-0.224,0.6-0.487,0.84-0.792c0.24-0.304,0.408-0.632,0.504-0.983v-3.288c-0.144-0.384-0.344-0.74-0.6-1.068
		c-0.257-0.327-0.549-0.615-0.876-0.864c-0.328-0.247-0.677-0.439-1.044-0.575c-0.368-0.136-0.736-0.204-1.104-0.204
		c-0.561,0-1.068,0.12-1.523,0.359c-0.456,0.24-0.849,0.561-1.177,0.96c-0.328,0.4-0.58,0.86-0.756,1.381
		c-0.176,0.52-0.264,1.052-0.264,1.596c0,0.576,0.1,1.12,0.3,1.632c0.2,0.513,0.472,0.956,0.816,1.332
		c0.344,0.376,0.756,0.676,1.235,0.9C543.247,357.119,543.766,357.231,544.327,357.231z"/>
	<path fill="#FFFFFF" d="M559.542,359.487c-0.977,0-1.864-0.172-2.664-0.517c-0.801-0.344-1.484-0.812-2.052-1.403
		c-0.568-0.592-1.009-1.28-1.32-2.064c-0.312-0.783-0.468-1.616-0.468-2.496s0.155-1.716,0.468-2.508
		c0.312-0.792,0.752-1.488,1.32-2.088c0.567-0.6,1.251-1.072,2.052-1.416c0.8-0.344,1.695-0.516,2.688-0.516
		c0.977,0,1.86,0.176,2.652,0.527c0.792,0.353,1.468,0.82,2.028,1.404c0.56,0.584,0.987,1.264,1.283,2.04s0.444,1.588,0.444,2.436
		c0,0.192-0.008,0.372-0.023,0.54c-0.017,0.168-0.032,0.309-0.049,0.42h-10.056c0.048,0.561,0.18,1.064,0.396,1.513
		c0.216,0.448,0.495,0.836,0.84,1.164c0.344,0.328,0.735,0.58,1.176,0.756c0.439,0.176,0.9,0.264,1.38,0.264
		c0.352,0,0.7-0.044,1.044-0.132c0.344-0.088,0.66-0.216,0.948-0.384c0.288-0.168,0.544-0.372,0.768-0.612
		c0.225-0.24,0.4-0.504,0.528-0.792l2.256,0.648c-0.432,0.943-1.148,1.716-2.147,2.315
		C562.034,359.187,560.871,359.487,559.542,359.487z M563.358,352.023c-0.048-0.528-0.18-1.017-0.396-1.465
		c-0.216-0.447-0.492-0.827-0.828-1.14c-0.336-0.312-0.729-0.556-1.176-0.731c-0.448-0.177-0.921-0.265-1.416-0.265
		c-0.496,0-0.964,0.088-1.404,0.265c-0.44,0.176-0.828,0.42-1.164,0.731c-0.336,0.312-0.608,0.692-0.815,1.14
		c-0.209,0.448-0.337,0.937-0.385,1.465H563.358z"/>
	<path fill="#FFFFFF" d="M573.774,359.487c-0.992,0-1.884-0.177-2.676-0.528s-1.468-0.824-2.028-1.416s-0.992-1.284-1.296-2.076
		s-0.456-1.62-0.456-2.483c0-0.864,0.152-1.692,0.456-2.484c0.304-0.792,0.74-1.483,1.309-2.076
		c0.567-0.592,1.247-1.063,2.039-1.416c0.792-0.352,1.677-0.527,2.652-0.527s1.86,0.176,2.652,0.527
		c0.792,0.353,1.472,0.824,2.04,1.416c0.567,0.593,1.004,1.284,1.308,2.076s0.456,1.62,0.456,2.484c0,0.863-0.152,1.691-0.456,2.483
		s-0.74,1.484-1.308,2.076c-0.568,0.592-1.248,1.064-2.04,1.416S574.749,359.487,573.774,359.487z M570.03,353.007
		c0,0.608,0.097,1.168,0.288,1.681c0.192,0.512,0.456,0.956,0.792,1.332c0.336,0.376,0.732,0.672,1.188,0.888
		s0.947,0.324,1.476,0.324s1.021-0.108,1.477-0.324c0.455-0.216,0.852-0.517,1.188-0.9s0.6-0.831,0.792-1.344
		c0.192-0.512,0.288-1.071,0.288-1.68c0-0.592-0.096-1.148-0.288-1.668c-0.192-0.521-0.456-0.973-0.792-1.356
		s-0.732-0.684-1.188-0.9s-0.948-0.323-1.477-0.323c-0.512,0-0.996,0.112-1.452,0.336s-0.852,0.527-1.188,0.912
		c-0.336,0.384-0.604,0.836-0.805,1.355C570.129,351.859,570.03,352.415,570.03,353.007z"/>
</g>
</svg>
