<?xml version="1.0" encoding="utf-8"?>
<!-- Generator: Adobe Illustrator 17.0.0, SVG Export Plug-In . SVG Version: 6.00 Build 0)  -->
<!DOCTYPE svg PUBLIC "-//W3C//DTD SVG 1.1//EN" "http://www.w3.org/Graphics/SVG/1.1/DTD/svg11.dtd">
<svg version="1.1" id="Layer_1" xmlns="http://www.w3.org/2000/svg" xmlns:xlink="http://www.w3.org/1999/xlink" x="0px" y="0px"
	 width="998.559px" height="451.267px" viewBox="0 0 998.559 451.267" enable-background="new 0 0 998.559 451.267"
	 xml:space="preserve">
<g>
	<path fill="#9C77B3" d="M155.069,147.455h18.144c-3.024-6.382-6.008-12.765-8.946-19.152c-2.941-6.383-4.41-13.104-4.41-20.16
		c0-6.213,1.343-12.052,4.032-17.514c2.685-5.458,6.382-10.206,11.088-14.238c4.701-4.032,10.206-7.221,16.506-9.576
		c6.3-2.351,13.061-3.528,20.286-3.528c10.246,0,19.947,2.355,29.106,7.056c9.155,4.706,16.841,11.175,23.058,19.404l-17.64,20.664
		c-4.201-5.878-9.537-10.623-16.002-14.238c-6.469-3.611-12.812-5.418-19.026-5.418c-6.217,0-11.301,1.977-15.246,5.922
		c-3.949,3.949-5.922,8.863-5.922,14.742c0,2.858,0.46,5.713,1.386,8.568c0.921,2.858,2.056,5.757,3.402,8.694
		c1.342,2.941,2.811,5.965,4.41,9.072c1.595,3.11,3.15,6.343,4.662,9.702h46.368v25.704h-40.572c0,7.729-1.638,14.994-4.914,21.798
		s-8.78,14.238-16.506,22.302c3.528-1.173,6.843-1.973,9.954-2.394c3.106-0.417,6.087-0.63,8.946-0.63
		c6.213,0,12.053,0.717,17.514,2.142c5.458,1.429,11.044,2.142,16.758,2.142c3.024,0,6.005-0.334,8.946-1.008
		c2.937-0.669,6.256-1.677,9.954-3.024l8.316,25.2c-4.032,2.354-8.655,4.197-13.86,5.544c-5.209,1.342-10.249,2.016-15.12,2.016
		c-3.867,0-7.686-0.378-11.466-1.134s-7.603-1.599-11.466-2.52c-3.867-0.921-7.772-1.764-11.718-2.52
		c-3.949-0.756-7.938-1.134-11.97-1.134c-4.371,0-9.45,0.504-15.246,1.512s-11.383,2.351-16.758,4.032l-7.56-23.94
		c17.975-14.951,26.964-31.162,26.964-48.636h-25.452L155.069,147.455L155.069,147.455z"/>
	<path fill="#9C77B3" d="M289.091,243.468c0-7.53,0.584-14.346,1.757-20.457c1.169-6.106,3.263-11.754,6.275-16.942
		c3.012-5.185,7.028-10.04,12.048-14.558s11.459-8.95,19.327-13.303c6.69-3.679,12.675-6.903,17.946-9.664s9.703-5.311,13.303-7.656
		c3.597-2.341,6.314-4.726,8.158-7.153c1.839-2.424,2.761-5.228,2.761-8.409c0-5.02-2.008-9.326-6.024-12.926
		c-4.016-3.597-9.789-5.396-17.319-5.396c-4.016,0-7.699,0.545-11.044,1.631c-3.349,1.09-6.487,2.553-9.413,4.393
		c-2.93,1.843-5.608,3.891-8.032,6.149c-2.428,2.259-4.644,4.644-6.652,7.153l-21.586-24.849c2.173-2.341,5.271-4.895,9.287-7.656
		s8.742-5.353,14.182-7.781c5.436-2.424,11.459-4.432,18.072-6.024c6.608-1.588,13.68-2.385,21.209-2.385
		c8.534,0,16.146,1.047,22.841,3.138c6.69,2.094,12.338,5.02,16.942,8.785c4.6,3.765,8.114,8.283,10.542,13.554
		c2.424,5.271,3.64,11.005,3.64,17.193c0,5.859-1.09,11.044-3.263,15.562c-2.177,4.518-4.938,8.534-8.283,12.048
		c-3.349,3.514-6.989,6.569-10.918,9.161c-3.934,2.596-7.742,4.895-11.42,6.903c-3.012,1.674-6.236,3.514-9.664,5.522
		c-3.432,2.008-6.82,4.228-10.166,6.651c-3.349,2.428-6.4,5.063-9.161,7.906c-2.761,2.848-4.895,5.859-6.401,9.036h72.037v30.371
		H289.091V243.468z"/>
	<path fill="#9C77B3" d="M435.923,243.468v-36.144h27.609v36.144H435.923z"/>
	<path fill="#9C77B3" d="M550.378,163.399c8.365,0,16.146,1.38,23.343,4.141c7.193,2.761,13.429,6.652,18.699,11.672
		c5.271,5.02,9.37,11.044,12.3,18.072c2.926,7.028,4.393,14.809,4.393,23.343c0,9.036-1.675,17.236-5.021,24.598
		c-3.35,7.361-7.949,13.68-13.805,18.951c-5.859,5.271-12.801,9.369-20.833,12.299c-8.032,2.926-16.735,4.393-26.104,4.393
		c-13.052,0-24.724-2.761-35.015-8.283c-10.292-5.522-18.115-13.052-23.468-22.59l19.328-20.08
		c4.851,6.526,10.749,11.715,17.695,15.562c6.941,3.848,14.182,5.773,21.711,5.773c9.036,0,16.44-2.722,22.214-8.157
		c5.772-5.436,8.659-12.675,8.659-21.711c0-8.699-2.722-15.727-8.157-21.084c-5.439-5.354-12.342-8.032-20.708-8.032
		c-5.521,0-10.667,1.255-15.436,3.765c-4.77,2.51-8.577,5.941-11.421,10.291h-29.368c0-0.502,0.333-2.385,1.004-5.647
		c0.667-3.263,1.506-7.444,2.51-12.55c1.005-5.102,2.091-10.793,3.264-17.068c1.169-6.275,2.424-12.675,3.765-19.202
		c3.012-15.393,6.358-32.63,10.041-51.706h87.85v30.622h-63.503l-7.027,39.909c2.008-2.173,4.934-3.93,8.785-5.271
		C539.918,164.069,544.688,163.399,550.378,163.399z"/>
	<path fill="#9C77B3" d="M836.517,243.468h-33.634v-73.794c0-10.542-1.844-18.237-5.522-23.092
		c-3.683-4.851-8.702-7.279-15.06-7.279c-6.526,0-12.719,2.553-18.574,7.656c-5.859,5.106-10.04,11.757-12.55,19.954v76.555h-33.634
		v-73.794c0-10.542-1.801-18.237-5.396-23.092c-3.601-4.851-8.577-7.279-14.935-7.279c-6.526,0-12.762,2.51-18.7,7.53
		c-5.941,5.02-10.165,11.632-12.675,19.829v76.806h-33.635V111.944h30.371v24.347c4.852-8.534,11.503-15.1,19.955-19.704
		c8.447-4.601,18.111-6.903,28.99-6.903c11.044,0,19.535,2.679,25.477,8.032c5.938,5.357,9.828,11.966,11.672,19.829
		c5.353-9.036,12.13-15.938,20.331-20.708c8.196-4.769,17.569-7.154,28.111-7.154c8.032,0,14.641,1.506,19.829,4.518
		c5.185,3.012,9.201,6.946,12.048,11.797c2.844,4.855,4.809,10.377,5.898,16.566c1.087,6.192,1.632,12.467,1.632,18.825
		L836.517,243.468L836.517,243.468z"/>
	<path fill="#FFFFFF" d="M174.851,363.175c-3.82,0-6.72-1.226-8.701-3.679c-1.98-2.451-2.971-6.083-2.971-10.893v-23.202h9.479
		v21.15c0,5.707,2.051,8.56,6.154,8.56c1.886,0,3.689-0.554,5.411-1.663c1.721-1.107,3.124-2.794,4.209-5.058v-22.989h9.479v26.172
		c0,0.99,0.188,1.698,0.566,2.122c0.376,0.424,1.037,0.661,1.98,0.708v8.064c-0.99,0.188-1.864,0.318-2.617,0.389
		c-0.755,0.071-1.415,0.106-1.981,0.106c-1.697,0-3.03-0.389-3.997-1.167c-0.967-0.778-1.568-1.85-1.804-3.219l-0.212-3.042
		c-1.698,2.546-3.832,4.457-6.402,5.729C180.875,362.538,178.01,363.175,174.851,363.175z"/>
	<path fill="#FFFFFF" d="M241.979,362.468H232.5v-20.797c0-2.971-0.52-5.139-1.556-6.508c-1.038-1.367-2.476-2.051-4.315-2.051
		c-0.944,0-1.91,0.189-2.9,0.566c-0.99,0.378-1.922,0.909-2.794,1.592c-0.873,0.684-1.663,1.498-2.37,2.44
		c-0.708,0.944-1.227,1.98-1.556,3.112v21.646h-9.479v-37.066h8.559v6.861c1.367-2.357,3.348-4.197,5.942-5.518
		c2.593-1.32,5.518-1.98,8.771-1.98c2.31,0,4.197,0.424,5.659,1.273c1.461,0.849,2.593,1.958,3.395,3.325
		c0.801,1.369,1.355,2.925,1.663,4.669c0.306,1.745,0.459,3.513,0.459,5.305v23.131H241.979z"/>
	<path fill="#FFFFFF" d="M265.464,363.175c-2.547,0-4.893-0.495-7.039-1.486c-2.146-0.99-3.997-2.357-5.553-4.103
		c-1.556-1.744-2.771-3.784-3.643-6.119c-0.873-2.334-1.309-4.846-1.309-7.534s0.413-5.187,1.238-7.498
		c0.825-2.31,1.969-4.338,3.431-6.083c1.461-1.744,3.206-3.112,5.234-4.103c2.027-0.99,4.244-1.485,6.649-1.485
		c2.688,0,5.128,0.661,7.321,1.98c2.193,1.321,3.901,3.042,5.128,5.164v-21.08h9.479v40.745c0,0.99,0.188,1.698,0.566,2.122
		c0.377,0.424,1.037,0.661,1.98,0.708v8.064c-1.792,0.33-3.301,0.495-4.527,0.495c-1.745-0.047-3.102-0.449-4.067-1.203
		c-0.967-0.753-1.568-1.814-1.804-3.183l-0.212-2.546c-1.368,2.358-3.208,4.138-5.518,5.341
		C270.509,362.574,268.057,363.175,265.464,363.175z M267.939,355.111c0.896,0,1.815-0.153,2.759-0.46
		c0.943-0.306,1.815-0.743,2.617-1.309c0.801-0.566,1.532-1.226,2.193-1.98c0.66-0.754,1.155-1.58,1.485-2.476v-8.842
		c-0.802-2.074-2.111-3.795-3.926-5.164c-1.816-1.367-3.713-2.051-5.694-2.051c-1.415,0-2.723,0.307-3.926,0.919
		c-1.203,0.613-2.228,1.45-3.077,2.511c-0.849,1.061-1.51,2.276-1.98,3.643c-0.472,1.368-0.708,2.783-0.708,4.244
		c0,1.556,0.259,2.995,0.778,4.315c0.518,1.321,1.238,2.476,2.157,3.466c0.92,0.991,2.004,1.769,3.254,2.334
		C265.121,354.828,266.477,355.111,267.939,355.111z"/>
	<path fill="#FFFFFF" d="M313.281,363.175c-2.971,0-5.659-0.507-8.064-1.521s-4.457-2.393-6.154-4.138
		c-1.698-1.744-3.006-3.772-3.926-6.083c-0.919-2.31-1.379-4.739-1.379-7.286c0-2.641,0.448-5.128,1.344-7.463
		c0.895-2.334,2.193-4.386,3.891-6.154c1.698-1.769,3.76-3.171,6.189-4.209c2.428-1.037,5.151-1.556,8.17-1.556
		c3.018,0,5.718,0.52,8.1,1.556c2.38,1.038,4.409,2.429,6.083,4.173c1.673,1.745,2.947,3.773,3.82,6.083
		c0.872,2.311,1.309,4.716,1.309,7.215c0,0.613-0.012,1.202-0.035,1.768c-0.024,0.566-0.083,1.038-0.177,1.415h-28.648
		c0.142,1.462,0.495,2.759,1.061,3.89c0.566,1.132,1.296,2.099,2.193,2.9c0.895,0.802,1.91,1.415,3.042,1.839
		c1.132,0.424,2.31,0.637,3.537,0.637c1.885,0,3.666-0.46,5.34-1.379c1.673-0.92,2.817-2.133,3.431-3.643l8.135,2.264
		c-1.368,2.829-3.549,5.152-6.543,6.967C321.002,362.267,317.43,363.175,313.281,363.175z M322.901,340.822
		c-0.236-2.782-1.262-5.01-3.077-6.685c-1.816-1.673-4.021-2.511-6.614-2.511c-1.273,0-2.464,0.225-3.572,0.672
		c-1.108,0.449-2.086,1.073-2.936,1.875c-0.849,0.803-1.545,1.769-2.086,2.9c-0.543,1.132-0.861,2.382-0.955,3.749H322.901z"/>
	<path fill="#FFFFFF" d="M360.532,333.607c-2.877,0.048-5.447,0.602-7.71,1.663c-2.264,1.061-3.891,2.652-4.881,4.774v22.424h-9.479
		v-37.066h8.701v7.922c1.273-2.546,2.936-4.598,4.987-6.154c2.052-1.556,4.209-2.334,6.473-2.334c0.519,0,0.907,0.012,1.167,0.035
		c0.259,0.024,0.506,0.06,0.743,0.106L360.532,333.607L360.532,333.607z"/>
	<path fill="#FFFFFF" d="M438.909,362.468h-9.479v-20.797c0-2.971-0.52-5.139-1.556-6.508c-1.038-1.367-2.453-2.051-4.244-2.051
		c-1.839,0-3.584,0.72-5.234,2.158c-1.651,1.439-2.83,3.313-3.537,5.624v21.575h-9.479v-20.798c0-2.971-0.507-5.139-1.521-6.508
		c-1.015-1.367-2.417-2.051-4.209-2.051c-1.839,0-3.596,0.708-5.27,2.122c-1.675,1.415-2.865,3.278-3.572,5.588v21.646h-9.479
		v-37.066h8.559v6.861c1.367-2.405,3.242-4.255,5.624-5.553c2.381-1.297,5.104-1.945,8.17-1.945c3.112,0,5.505,0.755,7.18,2.264
		c1.673,1.51,2.77,3.372,3.289,5.588c1.509-2.546,3.419-4.492,5.73-5.836c2.31-1.344,4.952-2.016,7.922-2.016
		c2.264,0,4.126,0.424,5.588,1.273c1.461,0.849,2.593,1.958,3.396,3.325c0.802,1.369,1.354,2.925,1.662,4.669
		c0.307,1.745,0.46,3.513,0.46,5.305V362.468z"/>
	<path fill="#FFFFFF" d="M457.229,363.175c-1.793,0-3.467-0.295-5.022-0.884c-1.557-0.589-2.9-1.415-4.032-2.476
		s-2.016-2.299-2.652-3.713c-0.637-1.415-0.955-2.971-0.955-4.669c0-1.744,0.389-3.36,1.167-4.845s1.862-2.747,3.254-3.785
		c1.391-1.037,3.053-1.85,4.987-2.44c1.933-0.589,4.055-0.884,6.366-0.884c1.65,0,3.265,0.141,4.846,0.424
		c1.579,0.283,2.981,0.684,4.208,1.202v-2.122c0-2.451-0.696-4.338-2.086-5.659c-1.392-1.32-3.455-1.98-6.189-1.98
		c-1.981,0-3.915,0.354-5.801,1.061c-1.887,0.707-3.82,1.745-5.801,3.112l-2.9-6.013c4.763-3.159,9.903-4.739,15.421-4.739
		c5.329,0,9.467,1.309,12.414,3.926s4.422,6.402,4.422,11.353v11.53c0,0.99,0.188,1.698,0.565,2.122s1.037,0.661,1.98,0.708v8.064
		c-0.896,0.188-1.732,0.318-2.511,0.389s-1.45,0.106-2.017,0.106c-1.792-0.047-3.159-0.46-4.103-1.238
		c-0.943-0.778-1.533-1.827-1.769-3.148l-0.212-2.051c-1.651,2.169-3.655,3.82-6.013,4.952
		C462.439,362.609,459.917,363.175,457.229,363.175z M459.917,356.243c1.603,0,3.124-0.283,4.562-0.849s2.558-1.32,3.36-2.264
		c1.036-0.801,1.556-1.698,1.556-2.688v-4.244c-1.132-0.424-2.358-0.766-3.678-1.026c-1.321-0.258-2.595-0.389-3.82-0.389
		c-2.452,0-4.456,0.555-6.013,1.662c-1.556,1.108-2.334,2.511-2.334,4.209c0,1.604,0.612,2.936,1.839,3.997
		S458.124,356.243,459.917,356.243z"/>
	<path fill="#FFFFFF" d="M522.377,362.468h-9.479v-20.797c0-2.971-0.519-5.139-1.556-6.508c-1.038-1.367-2.476-2.051-4.315-2.051
		c-0.943,0-1.909,0.189-2.899,0.566c-0.99,0.378-1.923,0.909-2.795,1.592c-0.874,0.684-1.663,1.498-2.37,2.44
		c-0.707,0.944-1.227,1.98-1.557,3.112v21.646h-9.479v-37.066h8.56v6.861c1.367-2.357,3.348-4.197,5.942-5.518
		c2.593-1.32,5.518-1.98,8.771-1.98c2.311,0,4.196,0.424,5.659,1.273c1.461,0.849,2.593,1.958,3.396,3.325
		c0.801,1.369,1.354,2.925,1.662,4.669c0.306,1.745,0.46,3.513,0.46,5.305V362.468z"/>
	<path fill="#FFFFFF" d="M540.698,363.175c-1.793,0-3.467-0.295-5.022-0.884c-1.557-0.589-2.9-1.415-4.032-2.476
		s-2.016-2.299-2.652-3.713c-0.637-1.415-0.955-2.971-0.955-4.669c0-1.744,0.389-3.36,1.167-4.845s1.862-2.747,3.254-3.785
		c1.391-1.037,3.053-1.85,4.987-2.44c1.933-0.589,4.055-0.884,6.366-0.884c1.65,0,3.265,0.141,4.846,0.424
		c1.579,0.283,2.981,0.684,4.208,1.202v-2.122c0-2.451-0.696-4.338-2.086-5.659c-1.392-1.32-3.455-1.98-6.189-1.98
		c-1.981,0-3.915,0.354-5.801,1.061c-1.887,0.707-3.82,1.745-5.801,3.112l-2.9-6.013c4.763-3.159,9.903-4.739,15.421-4.739
		c5.329,0,9.467,1.309,12.414,3.926s4.422,6.402,4.422,11.353v11.53c0,0.99,0.188,1.698,0.565,2.122s1.037,0.661,1.98,0.708v8.064
		c-0.896,0.188-1.732,0.318-2.511,0.389s-1.45,0.106-2.017,0.106c-1.792-0.047-3.159-0.46-4.103-1.238
		c-0.943-0.778-1.533-1.827-1.769-3.148l-0.212-2.051c-1.651,2.169-3.655,3.82-6.013,4.952
		C545.908,362.609,543.385,363.175,540.698,363.175z M543.385,356.243c1.603,0,3.124-0.283,4.562-0.849s2.558-1.32,3.36-2.264
		c1.036-0.801,1.556-1.698,1.556-2.688v-4.244c-1.132-0.424-2.358-0.766-3.678-1.026c-1.321-0.258-2.595-0.389-3.82-0.389
		c-2.452,0-4.456,0.555-6.013,1.662c-1.556,1.108-2.334,2.511-2.334,4.209c0,1.604,0.612,2.936,1.839,3.997
		S541.592,356.243,543.385,356.243z"/>
	<path fill="#FFFFFF" d="M585.897,362.68c-2.452,0-4.704-0.495-6.755-1.486c-2.052-0.99-3.809-2.345-5.271-4.067
		c-1.462-1.721-2.594-3.713-3.396-5.977s-1.202-4.668-1.202-7.215c0-2.688,0.425-5.187,1.273-7.498
		c0.849-2.31,2.027-4.338,3.537-6.083c1.508-1.744,3.312-3.112,5.411-4.103c2.098-0.99,4.421-1.485,6.968-1.485
		c2.923,0,5.47,0.648,7.64,1.945c2.168,1.297,3.937,3.03,5.305,5.199v-6.507h8.276V360.7c0,2.734-0.507,5.187-1.521,7.357
		c-1.015,2.168-2.44,4.007-4.28,5.517c-1.839,1.509-4.009,2.664-6.508,3.466c-2.5,0.801-5.234,1.203-8.205,1.203
		c-4.103,0-7.533-0.672-10.292-2.016s-5.129-3.243-7.109-5.694l5.164-5.022c1.414,1.744,3.194,3.113,5.341,4.103
		c2.145,0.99,4.444,1.485,6.896,1.485c1.461,0,2.865-0.201,4.209-0.601c1.344-0.401,2.522-1.026,3.537-1.875
		c1.013-0.849,1.814-1.935,2.404-3.254c0.59-1.321,0.885-2.877,0.885-4.669v-4.669c-1.227,2.122-2.948,3.761-5.164,4.916
		C590.825,362.103,588.444,362.68,585.897,362.68z M589.151,355.111c1.037,0,2.027-0.165,2.971-0.495
		c0.943-0.33,1.804-0.778,2.582-1.344s1.474-1.226,2.087-1.98c0.612-0.754,1.084-1.556,1.415-2.405v-8.842
		c-0.849-2.168-2.17-3.914-3.962-5.234s-3.678-1.98-5.658-1.98c-1.463,0-2.794,0.318-3.997,0.955
		c-1.202,0.636-2.229,1.485-3.077,2.546s-1.497,2.276-1.945,3.643c-0.448,1.368-0.672,2.783-0.672,4.244
		c0,1.51,0.259,2.924,0.778,4.244c0.519,1.321,1.238,2.476,2.157,3.466c0.92,0.991,2.004,1.769,3.254,2.334
		C586.333,354.828,587.689,355.111,589.151,355.111z"/>
	<path fill="#FFFFFF" d="M633.432,363.175c-2.971,0-5.659-0.507-8.063-1.521c-2.405-1.014-4.457-2.393-6.154-4.138
		c-1.698-1.744-3.007-3.772-3.926-6.083c-0.92-2.31-1.38-4.739-1.38-7.286c0-2.641,0.448-5.128,1.344-7.463s2.193-4.386,3.891-6.154
		c1.698-1.769,3.761-3.171,6.189-4.209c2.429-1.037,5.152-1.556,8.171-1.556c3.017,0,5.717,0.52,8.099,1.556
		c2.381,1.038,4.409,2.429,6.084,4.173c1.673,1.745,2.946,3.773,3.819,6.083c0.872,2.311,1.309,4.716,1.309,7.215
		c0,0.613-0.012,1.202-0.035,1.768c-0.024,0.566-0.083,1.038-0.177,1.415h-28.648c0.142,1.462,0.495,2.759,1.061,3.89
		c0.566,1.132,1.297,2.099,2.193,2.9c0.896,0.802,1.91,1.415,3.042,1.839c1.132,0.424,2.31,0.637,3.536,0.637
		c1.886,0,3.666-0.46,5.341-1.379c1.674-0.92,2.817-2.133,3.431-3.643l8.135,2.264c-1.368,2.829-3.549,5.152-6.543,6.967
		C641.154,362.267,637.582,363.175,633.432,363.175z M643.052,340.822c-0.236-2.782-1.262-5.01-3.077-6.685
		c-1.815-1.673-4.021-2.511-6.613-2.511c-1.273,0-2.465,0.225-3.572,0.672c-1.108,0.449-2.087,1.073-2.936,1.875
		c-0.85,0.803-1.546,1.769-2.087,2.9c-0.543,1.132-0.861,2.382-0.955,3.749H643.052z"/>
	<path fill="#FFFFFF" d="M716.194,362.468h-9.479v-20.797c0-2.971-0.52-5.139-1.557-6.508c-1.038-1.367-2.452-2.051-4.244-2.051
		c-1.839,0-3.584,0.72-5.234,2.158c-1.651,1.439-2.83,3.313-3.537,5.624v21.575h-9.479v-20.798c0-2.971-0.508-5.139-1.521-6.508
		c-1.014-1.367-2.417-2.051-4.208-2.051c-1.84,0-3.597,0.708-5.271,2.122c-1.674,1.415-2.864,3.278-3.572,5.588v21.646h-9.479
		v-37.066h8.56v6.861c1.367-2.405,3.241-4.255,5.623-5.553c2.381-1.297,5.104-1.945,8.17-1.945c3.113,0,5.506,0.755,7.181,2.264
		c1.673,1.51,2.77,3.372,3.289,5.588c1.509-2.546,3.418-4.492,5.729-5.836c2.31-1.344,4.951-2.016,7.923-2.016
		c2.264,0,4.126,0.424,5.588,1.273c1.461,0.849,2.593,1.958,3.396,3.325c0.801,1.369,1.354,2.925,1.662,4.669
		c0.307,1.745,0.46,3.513,0.46,5.305L716.194,362.468L716.194,362.468z"/>
	<path fill="#FFFFFF" d="M741.587,363.175c-2.971,0-5.659-0.507-8.063-1.521c-2.405-1.014-4.457-2.393-6.154-4.138
		c-1.698-1.744-3.007-3.772-3.926-6.083c-0.92-2.31-1.38-4.739-1.38-7.286c0-2.641,0.448-5.128,1.344-7.463s2.193-4.386,3.891-6.154
		c1.698-1.769,3.761-3.171,6.189-4.209c2.429-1.037,5.152-1.556,8.171-1.556c3.017,0,5.717,0.52,8.099,1.556
		c2.381,1.038,4.409,2.429,6.084,4.173c1.673,1.745,2.946,3.773,3.819,6.083c0.872,2.311,1.309,4.716,1.309,7.215
		c0,0.613-0.012,1.202-0.035,1.768c-0.024,0.566-0.083,1.038-0.177,1.415H732.11c0.142,1.462,0.495,2.759,1.061,3.89
		c0.566,1.132,1.297,2.099,2.193,2.9c0.896,0.802,1.91,1.415,3.042,1.839c1.132,0.424,2.31,0.637,3.536,0.637
		c1.886,0,3.666-0.46,5.341-1.379c1.674-0.92,2.817-2.133,3.431-3.643l8.135,2.264c-1.368,2.829-3.549,5.152-6.543,6.967
		C749.309,362.267,745.737,363.175,741.587,363.175z M751.208,340.822c-0.236-2.782-1.262-5.01-3.077-6.685
		c-1.815-1.673-4.021-2.511-6.613-2.511c-1.273,0-2.465,0.225-3.572,0.672c-1.108,0.449-2.087,1.073-2.936,1.875
		c-0.85,0.803-1.546,1.769-2.087,2.9c-0.543,1.132-0.861,2.382-0.955,3.749H751.208z"/>
	<path fill="#FFFFFF" d="M801.218,362.468h-9.479v-20.797c0-2.971-0.519-5.139-1.556-6.508c-1.038-1.367-2.476-2.051-4.315-2.051
		c-0.943,0-1.909,0.189-2.899,0.566c-0.99,0.378-1.923,0.909-2.795,1.592c-0.873,0.684-1.662,1.498-2.369,2.44
		c-0.707,0.944-1.227,1.98-1.557,3.112v21.646h-9.479v-37.066h8.56v6.861c1.367-2.357,3.348-4.197,5.941-5.518
		c2.593-1.32,5.518-1.98,8.771-1.98c2.311,0,4.196,0.424,5.659,1.273c1.461,0.849,2.593,1.958,3.396,3.325
		c0.801,1.369,1.354,2.925,1.662,4.669c0.306,1.745,0.46,3.513,0.46,5.305L801.218,362.468L801.218,362.468z"/>
	<path fill="#FFFFFF" d="M831.493,360.558c-1.273,0.565-2.842,1.131-4.704,1.697c-1.863,0.566-3.809,0.849-5.836,0.849
		c-1.32,0-2.559-0.166-3.714-0.495c-1.155-0.33-2.169-0.86-3.041-1.592c-0.873-0.73-1.568-1.673-2.087-2.83
		c-0.52-1.155-0.778-2.558-0.778-4.208v-21.292h-4.81v-7.286h4.81v-12.025h9.479v12.025h7.853v7.286h-7.853v18.109
		c0,1.321,0.354,2.252,1.062,2.794c0.707,0.542,1.556,0.813,2.547,0.813c0.99,0,1.956-0.165,2.899-0.495s1.698-0.612,2.264-0.849
		L831.493,360.558z"/>
</g>
</svg>
