<?xml version="1.0" encoding="utf-8"?>
<!-- Generator: Adobe Illustrator 17.0.0, SVG Export Plug-In . SVG Version: 6.00 Build 0)  -->
<!DOCTYPE svg PUBLIC "-//W3C//DTD SVG 1.1//EN" "http://www.w3.org/Graphics/SVG/1.1/DTD/svg11.dtd">
<svg version="1.1" id="Layer_1" xmlns="http://www.w3.org/2000/svg" xmlns:xlink="http://www.w3.org/1999/xlink" x="0px" y="0px"
	 width="631.65px" height="65.188px" viewBox="0 0 631.65 65.188" enable-background="new 0 0 631.65 65.188" xml:space="preserve">
<g>
	<g>
		<path fill="#2ABCE8" stroke="#FFFFFF" stroke-width="1.2306" stroke-miterlimit="10" d="M611.618,34.766L599.799,2.6h-7.595
			v59.948h9.098V33.183l10.315,27.82l10.277-27.412v29.037h9.14V2.6h-7.595L611.618,34.766z M536.619,24.35
			c1.082-2.534,2.572-4.739,4.466-6.623c1.898-1.88,4.117-3.35,6.661-4.404c2.548-1.058,5.268-1.587,8.165-1.587
			c2.869,0,5.579,0.529,8.124,1.587c2.544,1.054,4.757,2.523,6.641,4.404c1.88,1.884,3.363,4.089,4.445,6.623
			c1.085,2.53,1.625,5.244,1.625,8.141c0,2.9-0.539,5.614-1.625,8.144c-1.082,2.534-2.565,4.739-4.445,6.62
			c-1.884,1.884-4.096,3.36-6.641,4.428c-2.544,1.068-5.254,1.604-8.124,1.604c-2.897,0-5.617-0.536-8.165-1.604
			c-2.544-1.068-4.763-2.544-6.661-4.428c-1.894-1.881-3.384-4.086-4.466-6.62c-1.082-2.53-1.625-5.244-1.625-8.144
			C534.995,29.594,535.537,26.881,536.619,24.35 M584.199,20.735c-1.611-3.695-3.809-6.9-6.599-9.606
			c-2.79-2.707-6.039-4.846-9.748-6.416s-7.688-2.358-11.94-2.358c-4.279,0-8.272,0.788-11.981,2.358s-6.958,3.709-9.748,6.416
			c-2.79,2.707-4.988,5.911-6.599,9.606c-1.611,3.695-2.416,7.615-2.416,11.757c0,4.172,0.805,8.079,2.416,11.719
			c1.611,3.643,3.809,6.817,6.599,9.523c2.79,2.71,6.039,4.853,9.748,6.44c3.709,1.583,7.702,2.375,11.981,2.375
			c4.252,0,8.231-0.792,11.94-2.375c3.709-1.587,6.959-3.73,9.748-6.44c2.79-2.707,4.988-5.88,6.599-9.523
			c1.611-3.64,2.42-7.546,2.42-11.719C586.619,28.35,585.81,24.43,584.199,20.735 M520.552,51.663
			c-2.544,1.082-5.254,1.625-8.123,1.625c-2.897,0-5.617-0.536-8.165-1.604c-2.544-1.068-4.764-2.544-6.658-4.428
			c-1.898-1.881-3.388-4.086-4.47-6.62c-1.082-2.53-1.625-5.244-1.625-8.144c0-2.897,0.543-5.61,1.625-8.141
			c1.082-2.534,2.572-4.739,4.47-6.623c1.894-1.88,4.114-3.35,6.658-4.404c2.548-1.058,5.268-1.587,8.165-1.587
			c2.869,0,5.579,0.529,8.123,1.587c1.11,0.46,2.167,0.999,3.166,1.625V4.425c-3.519-1.379-7.283-2.071-11.29-2.071
			c-4.28,0-8.272,0.788-11.981,2.358s-6.959,3.709-9.748,6.416c-2.79,2.707-4.988,5.911-6.599,9.606
			c-1.611,3.695-2.416,7.615-2.416,11.757c0,4.172,0.805,8.079,2.416,11.719c1.611,3.643,3.809,6.817,6.599,9.523
			c2.79,2.71,6.039,4.853,9.748,6.44c3.709,1.583,7.702,2.375,11.981,2.375c4.006,0,7.771-0.705,11.29-2.112V50.038
			C522.72,50.66,521.662,51.203,520.552,51.663"/>
		<path fill="#CCD963" d="M468.295,62.507h7.799v-9.098h-7.799V62.507z M432.814,11.82c5.742,0,10.647,2.029,14.723,6.091
			c4.076,4.062,6.115,8.977,6.115,14.743c0,5.742-2.04,10.643-6.115,14.705c-4.076,4.062-8.981,6.091-14.723,6.091h-1.908V11.82
			H432.814z M432.814,62.548c8.258,0,15.307-2.924,21.142-8.773c5.835-5.849,8.753-12.887,8.753-21.121
			c0-8.258-2.918-15.303-8.753-21.138c-5.835-5.835-12.883-8.753-21.142-8.753h-11.006v59.785H432.814z M416.218,62.548V2.438
			h-9.098v36.148L387.544,2.6h-8.365v59.948h9.136V25.425l21.163,37.123H416.218z M345.89,62.548h27.699V53.45h-18.56V37.203h18.56
			v-9.098h-18.56V11.861h18.56V2.763H345.89V62.548z M301.065,62.548h9.098V37.203h21.038v25.345h9.098V2.763h-9.098v25.342h-21.038
			V2.763h-9.098V62.548z M256.486,11.861h14.947v50.687h9.098V11.861h14.947V2.438h-38.993V11.861z M239.14,50.771
			c-1.773,1.787-3.92,2.679-6.437,2.679c-2.52,0-4.67-0.892-6.457-2.679c-1.787-1.787-2.682-3.941-2.682-6.461V2.438h-9.098V44.31
			c0,5.037,1.78,9.337,5.341,12.897c3.56,3.561,7.861,5.341,12.897,5.341c5.037,0,9.326-1.78,12.873-5.341
			c3.547-3.561,5.32-7.861,5.32-12.897V2.438h-9.095V44.31C241.802,46.83,240.913,48.984,239.14,50.771 M158.88,24.35
			c1.082-2.534,2.572-4.739,4.466-6.623c1.898-1.88,4.117-3.35,6.661-4.404c2.548-1.058,5.268-1.587,8.165-1.587
			c2.869,0,5.579,0.529,8.124,1.587c2.544,1.054,4.757,2.523,6.641,4.404c1.881,1.884,3.363,4.089,4.445,6.623
			c1.085,2.53,1.625,5.244,1.625,8.141c0,2.9-0.539,5.614-1.625,8.144c-1.082,2.534-2.565,4.739-4.445,6.62
			c-1.884,1.884-4.096,3.36-6.641,4.428s-5.254,1.604-8.124,1.604c-2.897,0-5.617-0.536-8.165-1.604
			c-2.544-1.068-4.763-2.544-6.661-4.428c-1.894-1.881-3.384-4.086-4.466-6.62c-1.082-2.53-1.625-5.244-1.625-8.144
			C157.255,29.594,157.798,26.881,158.88,24.35 M206.463,20.735c-1.614-3.695-3.813-6.9-6.602-9.606
			c-2.79-2.707-6.039-4.846-9.748-6.416c-3.709-1.569-7.688-2.358-11.94-2.358c-4.28,0-8.272,0.788-11.981,2.358
			c-3.709,1.569-6.959,3.709-9.748,6.416c-2.79,2.707-4.988,5.911-6.599,9.606c-1.611,3.695-2.416,7.615-2.416,11.757
			c0,4.172,0.805,8.079,2.416,11.719c1.611,3.643,3.809,6.817,6.599,9.523c2.79,2.71,6.039,4.853,9.748,6.44
			c3.709,1.583,7.702,2.375,11.981,2.375c4.252,0,8.231-0.792,11.94-2.375c3.709-1.587,6.959-3.73,9.748-6.44
			c2.79-2.707,4.988-5.88,6.602-9.523c1.607-3.64,2.416-7.546,2.416-11.719C208.879,28.35,208.07,24.43,206.463,20.735
			 M129.998,61.228c2.316-0.933,4.366-2.226,6.153-3.879c1.787-1.652,3.18-3.554,4.183-5.707c1.002-2.154,1.504-4.421,1.504-6.803
			c-0.055-2.6-0.487-4.846-1.3-6.741c-0.812-1.894-1.881-3.467-3.208-4.712c-1.327-1.244-2.676-2.261-4.041-3.045
			c-1.369-0.788-3.135-1.694-5.303-2.724c-3.166-1.462-5.462-2.779-6.882-3.958c-1.421-1.179-2.161-2.755-2.216-4.732
			c0-2.084,0.881-3.92,2.641-5.503c1.76-1.583,3.913-2.389,6.457-2.416c1.137,0,2.216,0.149,3.232,0.446
			c1.013,0.297,1.908,0.657,2.679,1.075c0.771,0.422,1.365,0.719,1.787,0.895c0.418,0.176,1.2,0.643,2.337,1.4V5.442
			c-1.898-1.165-3.588-1.97-5.078-2.416s-3.142-0.695-4.957-0.75c-2.409,0-4.705,0.404-6.882,1.217
			c-2.181,0.812-4.124,1.957-5.828,3.433c-1.708,1.476-3.059,3.194-4.062,5.158c-1.002,1.963-1.559,4.082-1.666,6.357
			c0,2.33,0.394,4.352,1.179,6.074c0.785,1.718,1.815,3.201,3.087,4.445s2.6,2.288,3.979,3.128c1.383,0.84,3.073,1.773,5.078,2.803
			c3.329,1.677,5.728,3.166,7.19,4.466c1.462,1.3,2.192,2.994,2.192,5.078c0,2.544-0.861,4.743-2.579,6.599
			c-1.718,1.856-3.92,2.783-6.599,2.783c-1.3,0-2.613-0.204-3.941-0.612c-1.327-0.404-2.537-0.906-3.637-1.5
			c-1.096-0.595-2.022-1.158-2.779-1.687c-0.76-0.529-1.842-1.535-3.249-3.025v11.169c2.275,1.68,4.404,2.841,6.395,3.491
			s4.286,0.975,6.886,0.975C125.266,62.628,127.682,62.161,129.998,61.228"/>
		<path fill="#E6358B" d="M67.041,0v62.547h9.098v-34.89l27.741,37.531V2.437h-9.098V37.61L67.041,0z M11.456,24.35
			c1.082-2.534,2.572-4.739,4.466-6.62c1.894-1.884,4.117-3.353,6.661-4.407c2.544-1.058,5.265-1.583,8.165-1.583
			c2.869,0,5.576,0.525,8.12,1.583c2.548,1.054,4.76,2.523,6.644,4.407c1.881,1.881,3.363,4.086,4.445,6.62
			c1.082,2.53,1.625,5.244,1.625,8.141c0,2.9-0.543,5.614-1.625,8.144c-1.082,2.534-2.565,4.739-4.445,6.62
			c-1.884,1.884-4.096,3.36-6.644,4.428c-2.544,1.072-5.251,1.604-8.12,1.604c-2.9,0-5.621-0.532-8.165-1.604
			c-2.544-1.068-4.767-2.544-6.661-4.428c-1.894-1.881-3.384-4.086-4.466-6.62c-1.085-2.53-1.625-5.244-1.625-8.144
			C9.831,29.594,10.37,26.88,11.456,24.35 M59.035,20.734c-1.611-3.695-3.813-6.896-6.599-9.606
			c-2.79-2.707-6.039-4.846-9.748-6.416c-3.709-1.569-7.691-2.358-11.94-2.358c-4.28,0-8.272,0.788-11.985,2.358
			c-3.709,1.569-6.959,3.709-9.745,6.416c-2.79,2.71-4.992,5.911-6.602,9.606C0.805,24.429,0,28.349,0,32.49
			c0,4.172,0.805,8.079,2.416,11.719c1.611,3.643,3.813,6.817,6.602,9.523c2.786,2.71,6.036,4.853,9.745,6.44
			c3.713,1.583,7.705,2.375,11.985,2.375c4.248,0,8.231-0.792,11.94-2.375c3.709-1.587,6.959-3.73,9.748-6.44
			c2.786-2.707,4.988-5.88,6.599-9.523c1.611-3.64,2.416-7.546,2.416-11.719C61.452,28.349,60.646,24.429,59.035,20.734"/>
	</g>
</g>
</svg>
