<?xml version="1.0" encoding="utf-8"?>
<!-- Generator: Adobe Illustrator 17.0.0, SVG Export Plug-In . SVG Version: 6.00 Build 0)  -->
<!DOCTYPE svg PUBLIC "-//W3C//DTD SVG 1.1//EN" "http://www.w3.org/Graphics/SVG/1.1/DTD/svg11.dtd">
<svg version="1.1" id="Layer_1" xmlns="http://www.w3.org/2000/svg" xmlns:xlink="http://www.w3.org/1999/xlink" x="0px" y="0px"
	 width="390.781px" height="181.574px" viewBox="0 0 390.781 181.574" enable-background="new 0 0 390.781 181.574"
	 xml:space="preserve">
<g>
	<path fill="#CA4190" d="M0,28.541h26.886v119.541c0,4.778,0.352,9.018,1.063,12.717c0.711,3.695,1.887,6.793,3.53,9.302
		c1.643,2.498,3.827,4.402,6.553,5.706c2.728,1.308,6.146,1.961,10.254,1.961c1.263,0,2.5-0.37,3.694-1.118
		c1.191-0.746,1.793-1.382,1.793-1.902c0-0.376-0.374-0.565-1.122-0.565c-2.834,0-5.229-0.966-7.167-2.911
		c-1.945-1.941-2.913-4.33-2.913-7.167c0-2.84,0.968-5.227,2.913-7.169c1.939-1.941,4.333-2.913,7.167-2.913
		c2.84,0,5.226,0.972,7.173,2.913c1.937,1.943,2.907,4.33,2.907,7.169c0,3.956-0.801,7.077-2.408,9.353
		c-1.605,2.28-3.601,4.036-5.99,5.27c-2.391,1.227-4.987,2.011-7.788,2.35c-2.801,0.335-5.394,0.5-7.784,0.5
		c-5.379,0-10.066-0.966-14.061-2.907c-3.998-1.945-7.319-4.486-9.969-7.617c-2.652-3.14-4.647-6.705-5.994-10.698
		c-1.342-3.999-2.015-8.088-2.015-12.27V35.265c0-1.046-0.469-2.053-1.401-3.025c-0.936-0.969-1.961-1.458-3.079-1.458H0V28.541z"/>
	<path fill="#CA4190" d="M5.082,13.073c0-3.102,1.059-5.716,3.183-7.835c2.122-2.123,4.733-3.184,7.836-3.184
		c3.1,0,5.712,1.061,7.832,3.184c2.118,2.119,3.183,4.732,3.183,7.835c0,3.101-1.065,5.712-3.183,7.831
		c-2.121,2.124-4.733,3.182-7.832,3.182c-3.102,0-5.714-1.058-7.836-3.182C6.14,18.785,5.082,16.174,5.082,13.073"/>
	<path fill="#CA4190" d="M64.406,149.854H29.517v-0.57c7.336,0,7.992-2.255,7.992-9.209V87.411c0-6.962-0.656-9.028-7.992-9.028
		v-0.565h26.991v62.066c0,6.96,0.562,9.4,7.898,9.4V149.854z"/>
	<path fill="#CA4190" d="M96.474,149.287v0.567H61.582v-0.567c6.96,0,7.994-1.785,7.994-9.215v-38.168h-5.547v-1.519h5.547V98.79
		c0-9.219,1.503-18.341,17.305-21.726c1.693-0.283,4.604-0.846,7.898-0.846c7.807,0,15.613,3.102,15.613,11.095
		c0,5.742-4.891,9.312-9.404,9.312c-3.01,0-9.311-1.785-9.311-9.031c0-5.073,4.044-8.459,8.559-8.459
		c1.411,0,2.912,0.281,4.606,0.657c-1.316-1.783-6.205-2.914-8.558-2.914c-6.865,0-7.709,5.921-7.709,14.667v8.839h10.249v1.519
		H88.573v38.168C88.573,147.502,89.513,149.287,96.474,149.287"/>
	<path fill="#CA4190" d="M135.686,111.295c0-7.807-2.35-10.813-6.206-10.813c-3.762,0-6.114,3.006-6.114,10.813v27.65
		c0,7.805,2.352,10.811,6.114,10.811c3.856,0,6.206-3.006,6.206-10.811V111.295z M129.48,99.824
		c14.013,0,25.861,11.285,25.861,25.291c0,14.016-11.848,25.302-25.861,25.302c-14.014,0-25.861-11.286-25.861-25.302
		C103.619,111.11,115.466,99.824,129.48,99.824"/>
	<path fill="#CA4190" d="M191.638,99.497c-5.246,0-9.074,2.84-11.239,8.442v-8.397h-25.967v2.163h0.25
		c6.96,0,8.404,1.295,8.404,8.274v30.096c0,7.087-1.491,9.24-8.404,9.24h-0.25h34.623h0.516c-7.228,0-7.007-2.488-7.007-9.24
		v-23.607c0-6.316,0.169-9.836,2.744-12.768c1.538-1.813,4.149-2.895,7.226-2.895c1.159,0,4.712,0.269,5.499,3.541
		c-1.5-1.02-3.314-1.554-5.229-1.554c-5.398,0-9.185,3.693-9.185,8.977c0,6.014,4.552,9.162,9.062,9.162
		c5.419,0,9.164-4.289,9.164-10.198C201.845,105.139,198.558,99.497,191.638,99.497"/>
	<path fill="#CA4190" d="M223.679,138.661v-23.414c0-10.426,1.145-12.558,3.661-12.558c1.018,0,2.303,0.438,3.406,2.554
		c1.162,2.212,1.589,5.864,1.589,10.85v14.01c0,7.517-1.366,11.795-2.424,14.065c-1.09,2.33-2.116,3.668-3.651,3.668
		C224.651,147.835,223.679,147.13,223.679,138.661 M259.629,149.315c-6.914,0-7.819-2.151-7.819-9.24V77.904h-28.131h0.967
		c6.521,0,7.689,2.104,7.689,9.507v19.225c-2.165-3.349-3.882-7.139-10.027-7.139c-9.885,0-19.234,13.179-19.234,27.127
		c0,11.6,6.771,24.113,17.542,24.113c7.991,0,9.554-5.358,11.719-8.767v7.344h28.131H259.629z"/>
	<path fill="#CA4190" d="M73.182,64.465V43.812c0-5.761,0.062-9.738-3.678-13.04c-2.148-1.86-5.469-2.797-8.736-2.797
		c-5.188,0-8.238,2.32-11.991,6.44v-5.622H30.003v0.398c4.192,0.43,5.631,2.903,5.631,8.552v26.723c0,5.65-1.439,8.15-5.631,8.587
		v0.798h23.623c-2.651,0-4.849-3.927-4.849-9.385V44.822c0-6.746,1.414-8.081,2.213-9.863c1.205-2.675,3.657-2.706,3.753-2.706
		c1.569,0,3.42,0.747,3.42,9.702v22.508c0,5.458,0.318,9.385-2.333,9.385h24.982C75.367,73.849,73.182,70.723,73.182,64.465"/>
</g>
<g>
	<path fill="#8E4995" d="M261.486,128.895c3.435,0,6.239,2.804,6.239,6.242c0,3.427-2.805,6.238-6.239,6.238
		c-3.428,0-6.24-2.81-6.24-6.238C255.246,131.699,258.058,128.895,261.486,128.895"/>
	<path fill="#8E4995" d="M291.888,123.535c1.938,0,3.564,1.063,4.626,2.432c0.183,0.253,0.371,0.378,0.499,0.378
		c0.182,0,0.251-0.193,0.251-0.498c0-0.255-0.069-0.627-0.251-1.003c-1.437-2.809-4.934-4.803-8.052-4.803
		c-3.052,0-5.802,1.933-5.802,6.925v16.224c0,4.492,3.68,5.615,4.991,5.615c5.429,0,9.985-6.363,10.234-10.605h1.311
		c-0.939,3.678-2.997,11.855-13.104,11.855c-9.297,0-15.912-6.991-15.912-15.601c0-10.545,9.107-15.599,16.971-15.599
		c5.989,0,11.295,2.934,11.295,8.734c0,3.995-3.118,7.176-7.056,7.176c-3.116,0-5.61-2.494-5.61-5.613
		C286.278,126.029,288.772,123.535,291.888,123.535"/>
	<path fill="#8E4995" d="M313.175,143.188c0,5.617,1.809,5.617,3.119,5.617c1.309,0,3.121,0,3.121-5.617v-17.47
		c0-5.615-1.812-5.615-3.121-5.615c-1.248,0-3.119,0-3.119,5.615V143.188z M316.294,118.855c8.675,0,15.663,6.988,15.663,15.599
		c0,8.611-6.988,15.601-15.663,15.601c-8.674,0-15.595-6.991-15.595-15.601C300.699,125.844,307.619,118.855,316.294,118.855"/>
	<path fill="#8E4995" d="M333.333,119.478h14.974v3.871c1.682-3.185,4.989-4.494,8.488-4.494c3.554,0,6.985,1.433,8.044,3.621
		c1.561-3.185,5.118-3.621,8.799-3.621c4.303,0,8.365,3.306,8.365,6.24v20.593c0,1.184,1.244,2.492,2.491,2.492h1.248v1.25H368.27
		v-1.25c1.25,0,2.5-1.308,2.5-2.492v-21.843c0-2.056-0.938-3.053-2.06-3.053c-1.621,0-3.558,2.179-3.558,6.113v18.784
		c0,1.184,1.248,2.492,2.493,2.492v1.25h-16.224v-1.25c1.256,0,2.502-1.308,2.502-2.492v-21.843c0-1.495-0.748-2.373-1.685-2.373
		c-1.501,0-3.931,2.188-3.931,7.303v16.913c0,1.184,1.248,2.492,2.492,2.492v1.25h-17.466v-1.25h1.248
		c1.244,0,2.495-1.308,2.495-2.492v-22.464c0-1.188-1.251-2.5-2.495-2.5h-1.248V119.478z"/>
</g>
<g>
	
		<linearGradient id="SVGID_1_" gradientUnits="userSpaceOnUse" x1="270.3439" y1="-83.0609" x2="213.4" y2="-180.4976" gradientTransform="matrix(-0.5833 0.8123 -0.8123 -0.5833 267.587 -223.8365)">
		<stop  offset="0" style="stop-color:#88C8BC"/>
		<stop  offset="1" style="stop-color:#79CAEF"/>
	</linearGradient>
	<path fill="url(#SVGID_1_)" d="M157.111,34.21c52.105-13.662,95.979-0.363,122.806,7.777c4.742,1.222,9.417,2.858,14.1,4.287
		c12.235,3.804,23.783,7.396,34.39,6.703c9.286-0.599,15.864-4.397,18.525-10.697c1.99-4.698,1.479-9.023-1.263-12.336
		c0.205,0.824,0.324,1.69,0.289,2.648c-0.133,3.964-3.419,7.567-6.908,9.027c-4.737,1.987-9.173,0.501-11.602-0.911
		c-2.402-1.396-4.764-3.779-6.192-6.339c0,0-5.567,4.26-16.478,4.176c-10.261-0.081-21.73-3.323-33.968-6.542
		c-13.442-3.544-30.654-7.681-47.108-9.512c-30.315-3.342-59.74,1.095-86.927,13.137c-16.987,7.516-32.679,17.86-46.47,30.507
		C113.208,47.505,138.416,38.534,157.111,34.21z"/>
	
		<linearGradient id="SVGID_2_" gradientUnits="userSpaceOnUse" x1="116.5719" y1="-287.5743" x2="203.7827" y2="-166.1337" gradientTransform="matrix(-0.5833 0.8123 -0.8123 -0.5833 267.587 -223.8365)">
		<stop  offset="0" style="stop-color:#EF9400"/>
		<stop  offset="0.2476" style="stop-color:#EE9600"/>
		<stop  offset="0.4226" style="stop-color:#ED9D00"/>
		<stop  offset="0.5753" style="stop-color:#EBA800"/>
		<stop  offset="0.7151" style="stop-color:#E8B500"/>
		<stop  offset="0.8461" style="stop-color:#E3C600"/>
		<stop  offset="0.9691" style="stop-color:#DDD600"/>
		<stop  offset="1" style="stop-color:#DBDB00"/>
	</linearGradient>
	<path fill="url(#SVGID_2_)" d="M344.419,32.46c0.165-1.384,0.183-3.371-1.624-5.093c-0.241-0.245-0.246-0.632-0.01-0.875
		c0.24-0.245,0.595-0.218,0.868-0.02c0.443,0.312,1.34,1.048,1.875,1.551c4.039,3.79,5.13,9.132,2.719,14.856
		c-1.65,3.901-6.438,10.901-19.565,12.141c-13.664,1.283-29.958-5.725-48.927-11.34c-20.913-6.19-52.222-16.016-89.639-13.59
		c20.913-0.091,42.953,4.517,67.142,14.068c6.904,2.723,13.862,5.938,20.606,9.052c18.851,8.696,36.652,16.913,54.845,16.228
		c12.584-0.475,22.795-5.272,30.021-14.543c8.217-10.552,9.368-23.223,2.711-33.6c-5.854-9.133-16.085-14.34-25.52-13.485
		c-8.036,0.727-16.579,5.693-18.544,14.272c-1.836,8.006,3.15,14.897,7.077,17.111C336.737,43.871,343.826,37.605,344.419,32.46z"/>
	
		<linearGradient id="SVGID_3_" gradientUnits="userSpaceOnUse" x1="191.2876" y1="-247.4331" x2="251.7418" y2="-98.775" gradientTransform="matrix(-0.5833 0.8123 -0.8123 -0.5833 267.587 -223.8365)">
		<stop  offset="0" style="stop-color:#8E4995"/>
		<stop  offset="0.5112" style="stop-color:#E61260"/>
		<stop  offset="1" style="stop-color:#CA4190"/>
	</linearGradient>
	<path fill="url(#SVGID_3_)" d="M171.112,43.379c35.122-3.777,62.996,10.249,90.101,24.255c14.816,7.652,30.123,15.463,46.274,20.14
		c19.917,5.761,39.085,4.388,54.48-3.821c16.18-8.636,26.478-22.186,28.438-37.649c1.906-15.009-3.457-28.648-15.275-37.575
		c-10.456-7.908-22.918-10.766-34.132-7.235c-5.583,1.759-11.097,5.603-14.985,10.477c3.863-3.16,9.427-5.258,14.299-5.706
		c9.885-0.88,21.191,4.255,27.465,13.938c7.172,11.064,5.615,26.188-3.192,37.209c-7.569,9.467-17.363,14.355-31.145,14.908
		c-18.488,0.739-37.971-7.741-55.899-16.582c-36.97-18.211-68.09-24.499-93.742-23.486c-11.507,0.447-69.131,5.36-109.444,50.885
		C101.452,59.461,130.137,47.781,171.112,43.379z"/>
</g>
</svg>
