<?xml version="1.0" encoding="utf-8"?>
<!-- Generator: Adobe Illustrator 17.0.0, SVG Export Plug-In . SVG Version: 6.00 Build 0)  -->
<!DOCTYPE svg PUBLIC "-//W3C//DTD SVG 1.1//EN" "http://www.w3.org/Graphics/SVG/1.1/DTD/svg11.dtd">
<svg version="1.1" id="Layer_1" xmlns="http://www.w3.org/2000/svg" xmlns:xlink="http://www.w3.org/1999/xlink" x="0px" y="0px"
	 width="587.224px" height="141.92px" viewBox="0 0 587.224 141.92" enable-background="new 0 0 587.224 141.92"
	 xml:space="preserve">
<g>
	<defs>
		<rect id="SVGID_1_" x="0" y="0" width="587.224" height="141.92"/>
	</defs>
	<clipPath id="SVGID_2_">
		<use xlink:href="#SVGID_1_"  overflow="visible"/>
	</clipPath>
	<path clip-path="url(#SVGID_2_)" fill="#2F2A2B" d="M44.478,61.327c0-4.534-1.596-8.465-4.787-11.796
		c-3.193-3.33-7.055-4.996-11.588-4.996c-4.58,0-8.466,1.655-11.657,4.96c-3.193,3.309-4.787,7.251-4.787,11.831v16.028
		c0,3.192-1.145,5.934-3.435,8.223C5.933,87.868,3.192,89.013,0,89.013V61.327c0-7.678,2.752-14.236,8.258-19.67
		c5.504-5.435,12.118-8.153,19.845-8.153c7.677,0,14.269,2.718,19.775,8.153c5.504,5.435,8.257,11.992,8.257,19.67v27.686
		c-3.192,0-5.933-1.144-8.223-3.435c-2.29-2.289-3.434-5.031-3.434-8.223V61.327z"/>
	<path clip-path="url(#SVGID_2_)" fill="#2F2A2B" d="M89.579,44.536c-4.58,0-8.454,1.655-11.623,4.96
		c-3.17,3.309-4.752,7.251-4.752,11.831c0,4.579,1.582,8.501,4.752,11.761c3.169,3.262,7.043,4.892,11.623,4.892
		c4.579,0,8.464-1.63,11.657-4.892c3.191-3.26,4.787-7.182,4.787-11.761c0-4.58-1.596-8.523-4.787-11.831
		C98.043,46.19,94.158,44.536,89.579,44.536 M89.579,33.503c7.678,0,14.281,2.718,19.809,8.153
		c5.527,5.434,8.292,11.992,8.292,19.67c0,7.679-2.765,14.213-8.292,19.602c-5.528,5.389-12.131,8.083-19.809,8.083
		c-7.68,0-14.271-2.694-19.775-8.083c-5.506-5.389-8.258-11.923-8.258-19.602c0-7.678,2.752-14.236,8.258-19.67
		C75.308,36.221,81.899,33.503,89.579,33.503"/>
	<path clip-path="url(#SVGID_2_)" fill="#2F2A2B" d="M167.708,34.335c0,3.053-1.075,5.656-3.226,7.807
		c-2.152,2.151-4.754,3.225-7.807,3.225h-11.102v43.645c-3.192,0-5.933-1.144-8.223-3.435c-2.289-2.288-3.434-5.03-3.434-8.222
		V45.367h-11.102c-3.054,0-5.655-1.074-7.806-3.225c-2.152-2.151-3.227-4.754-3.227-7.807H167.708z"/>
	<path clip-path="url(#SVGID_2_)" fill="#2F2A2B" d="M226.548,34.335c0,3.053-1.075,5.656-3.226,7.807
		c-2.152,2.151-4.754,3.225-7.807,3.225h-11.102v43.645c-3.192,0-5.933-1.144-8.223-3.435c-2.29-2.288-3.434-5.03-3.434-8.222
		V45.367h-11.102c-3.054,0-5.655-1.074-7.806-3.225c-2.152-2.151-3.227-4.754-3.227-7.807H226.548z"/>
	<path clip-path="url(#SVGID_2_)" fill="#2F2A2B" d="M356.339,52.966c2.289-2.291,5.03-3.435,8.221-3.435v39.482
		c-4.718,0-8.187-2.105-10.407-6.315c-5.043,4.211-10.917,6.315-17.624,6.315c-7.678,0-14.283-2.694-19.81-8.083
		c-5.527-5.389-8.291-11.923-8.291-19.603c0-7.678,2.764-14.236,8.291-19.67c5.527-5.435,12.132-8.153,19.81-8.153h16.375
		c0,3.053-1.076,5.654-3.225,7.805c-2.153,2.151-4.754,3.227-7.807,3.227h-5.343c-4.58,0-8.465,1.655-11.656,4.961
		c-3.194,3.308-4.787,7.25-4.787,11.83c0,4.58,1.593,8.501,4.787,11.761c3.191,3.262,7.076,4.893,11.656,4.893
		c4.579,0,8.454-1.642,11.623-4.928c3.168-3.283,4.752-7.238,4.752-11.863C352.904,57.997,354.048,55.255,356.339,52.966"/>
	<path clip-path="url(#SVGID_2_)" fill="#2F2A2B" d="M419.167,89.012c-3.19,0-5.932-1.144-8.221-3.435
		c-2.291-2.289-3.435-5.03-3.435-8.223V66.74h-25.882v22.272c-3.191,0-5.932-1.144-8.221-3.435c-2.291-2.289-3.437-5.03-3.437-8.223
		v-43.85c3.194,0,5.934,1.144,8.225,3.433c2.289,2.29,3.433,5.03,3.433,8.222v10.617h25.882V33.504c3.237,0,5.989,1.133,8.256,3.398
		c2.267,2.269,3.4,5.021,3.4,8.257V89.012z"/>
	<path clip-path="url(#SVGID_2_)" fill="#2F2A2B" d="M469.405,77.98V61.327c0-4.58-1.589-8.523-4.765-11.831
		c-3.176-3.306-7.058-4.96-11.647-4.96c-4.589,0-8.471,1.655-11.647,4.96c-3.176,3.309-4.761,7.251-4.761,11.831
		c0,4.58,1.585,8.501,4.761,11.761c3.176,3.262,7.058,4.892,11.647,4.892H469.405z M481.199,61.327v27.686H453.03
		c-7.68,0-14.285-2.694-19.81-8.083c-5.529-5.389-8.293-11.923-8.293-19.603c0-7.678,2.764-14.236,8.293-19.67
		c5.525-5.435,12.13-8.153,19.81-8.153c7.676,0,14.292,2.718,19.844,8.153C478.424,47.091,481.199,53.649,481.199,61.327"/>
	<path clip-path="url(#SVGID_2_)" fill="#2F2A2B" d="M542.745,61.327v27.686c-3.191,0-5.932-1.144-8.221-3.435
		c-2.291-2.289-3.435-5.031-3.435-8.223V61.327c0-4.58-1.584-8.523-4.752-11.831c-3.169-3.306-7.044-4.96-11.623-4.96
		c-4.58,0-8.466,1.655-11.656,4.96c-3.194,3.309-4.787,7.251-4.787,11.831v16.028c0,3.24-1.135,5.992-3.4,8.258
		c-2.267,2.267-5.022,3.4-8.258,3.4V61.327c0-7.678,2.763-14.236,8.29-19.67c5.528-5.435,12.133-8.153,19.811-8.153
		c4.347,0,8.465,0.96,12.351,2.88c3.886,1.919,7.191,4.591,9.921,8.013c2.639-3.377,5.922-6.037,9.855-7.98
		c3.931-1.942,8.048-2.913,12.35-2.913c7.723,0,14.33,2.705,19.81,8.118c5.481,5.411,8.223,11.981,8.223,19.706v27.686
		c-3.192,0-5.932-1.144-8.223-3.435c-2.291-2.289-3.435-5.031-3.435-8.223V61.327c0-4.58-1.585-8.523-4.752-11.831
		c-3.171-3.306-7.043-4.96-11.623-4.96c-4.58,0-8.463,1.655-11.658,4.96C544.342,52.804,542.745,56.747,542.745,61.327"/>
	<path clip-path="url(#SVGID_2_)" fill="#FFFFFF" d="M241.121,89.012c-3.192,0-5.933-1.144-8.223-3.435
		c-2.29-2.289-3.435-5.03-3.435-8.223v-43.85c3.193,0,5.934,1.144,8.223,3.433c2.29,2.29,3.435,5.03,3.435,8.222V89.012z"/>
	<path clip-path="url(#SVGID_2_)" fill="#FFFFFF" d="M291.357,61.327c0-4.534-1.596-8.465-4.787-11.796
		c-3.193-3.33-7.055-4.996-11.588-4.996c-4.58,0-8.466,1.655-11.657,4.96c-3.193,3.309-4.787,7.251-4.787,11.831v16.028
		c0,3.192-1.145,5.934-3.435,8.223c-2.29,2.291-5.031,3.435-8.223,3.435V61.327c0-7.678,2.752-14.236,8.258-19.67
		c5.504-5.435,12.118-8.153,19.845-8.153c7.677,0,14.269,2.718,19.774,8.153c5.505,5.435,8.258,11.992,8.258,19.67v27.686
		c-3.191,0-5.932-1.144-8.223-3.435c-2.29-2.289-3.434-5.031-3.434-8.223V61.327z"/>
	<path clip-path="url(#SVGID_2_)" fill="#FFFFFF" d="M236.728,30.254c-1.739,0-3.233-0.624-4.481-1.871
		c-1.248-1.249-1.872-2.743-1.872-4.482v-23.9c1.74,0,3.234,0.623,4.481,1.871c1.248,1.247,1.872,2.741,1.872,4.481V30.254z"/>
	<path clip-path="url(#SVGID_2_)" fill="#FFFFFF" d="M270.348,0.453c0,1.665-0.586,3.084-1.759,4.256s-2.59,1.757-4.255,1.757
		h-6.051v23.788c-1.739,0-3.233-0.624-4.481-1.871c-1.248-1.249-1.872-2.744-1.872-4.482V6.466h-6.052
		c-1.663,0-3.081-0.586-4.254-1.757c-1.173-1.172-1.758-2.591-1.758-4.256H270.348z"/>
	<path clip-path="url(#SVGID_2_)" fill="#FFFFFF" d="M274.545,0.806h4.914v1.645c0,1.562-0.346,3-1.04,4.315
		c-0.694,1.316-1.638,2.452-2.835,3.411l-3.687-2.878V7.218c0.819-0.548,1.465-1.24,1.938-2.075c0.473-0.835,0.71-1.733,0.71-2.693
		V0.806z"/>
	<path clip-path="url(#SVGID_2_)" fill="#FFFFFF" d="M282.25,30.447v-5.28h10.784c3.767,0,4.285-1.625,4.285-2.981
		c0-1.898-2.981-3.309-6.139-4.606c-4.407-1.812-9.402-4.165-9.402-9.12c0-4.639,3.674-7.936,9.358-7.936h10.476v5.28h-11.05
		c-1.312,0-2.874,0.537-2.874,2.442c0,1.577,2.807,2.794,5.779,4.011c4.35,1.781,9.764,4.471,9.764,9.659
		c0,4.969-3.619,8.531-9.446,8.531H282.25z"/>
</g>
</svg>
