<?xml version="1.0" encoding="utf-8"?>
<!-- Generator: Adobe Illustrator 17.0.0, SVG Export Plug-In . SVG Version: 6.00 Build 0)  -->
<!DOCTYPE svg PUBLIC "-//W3C//DTD SVG 1.1//EN" "http://www.w3.org/Graphics/SVG/1.1/DTD/svg11.dtd">
<svg version="1.1" id="Layer_1" xmlns="http://www.w3.org/2000/svg" xmlns:xlink="http://www.w3.org/1999/xlink" x="0px" y="0px"
	 width="56.132px" height="65.304px" viewBox="0 0 56.132 65.304" enable-background="new 0 0 56.132 65.304" xml:space="preserve">
<path fill-rule="evenodd" clip-rule="evenodd" fill="#63328A" d="M56.132,47.91c-1.534,3.398-2.269,4.916-4.244,7.92
	c-2.755,4.195-6.639,9.418-11.452,9.463c-4.278,0.04-5.376-2.784-11.181-2.751c-5.804,0.031-7.015,2.801-11.294,2.762
	c-4.813-0.045-8.495-4.761-11.251-8.956c-7.707-11.728-8.512-25.494-3.759-32.81c3.379-5.201,8.706-8.244,13.717-8.244
	c5.102,0,8.309,2.797,12.527,2.797c4.092,0,6.584-2.802,12.483-2.802c4.458,0,9.181,2.427,12.548,6.623
	C43.197,27.954,44.989,43.7,56.132,47.91L56.132,47.91z"/>
<path fill-rule="evenodd" clip-rule="evenodd" fill="#63328A" d="M37.203,10.603c2.143-2.751,3.77-6.633,3.18-10.603
	c-3.5,0.241-7.595,2.469-9.985,5.371c-2.17,2.635-3.961,6.543-3.264,10.341C30.955,15.83,34.909,13.548,37.203,10.603L37.203,10.603
	z"/>
</svg>
