<?xml version="1.0" encoding="utf-8"?>
<!-- Generator: Adobe Illustrator 17.0.0, SVG Export Plug-In . SVG Version: 6.00 Build 0)  -->
<!DOCTYPE svg PUBLIC "-//W3C//DTD SVG 1.1//EN" "http://www.w3.org/Graphics/SVG/1.1/DTD/svg11.dtd">
<svg version="1.1" id="Layer_1" xmlns="http://www.w3.org/2000/svg" xmlns:xlink="http://www.w3.org/1999/xlink" x="0px" y="0px"
	 width="43.665px" height="39.496px" viewBox="0 0 43.665 39.496" enable-background="new 0 0 43.665 39.496" xml:space="preserve">
<g>
	<g>
		<path fill="#FFFFFF" d="M31.342,30.174c-0.808-0.127-0.827-2.331-0.827-2.331s2.374-2.331,2.891-5.465
			c1.392,0,2.251-3.332,0.86-4.504c0.059-1.234,1.79-9.687-6.975-9.687s-7.034,8.453-6.975,9.687
			c-1.392,1.172-0.532,4.504,0.86,4.504c0.517,3.134,2.893,5.465,2.893,5.465s-0.018,2.204-0.827,2.331
			c-2.603,0.411-12.324,4.661-12.324,9.322H27.29h16.374C43.665,34.835,33.944,30.584,31.342,30.174z M14.671,30.917
			c1.88-1.157,4.163-2.231,6.035-2.875c-0.671-0.957-1.419-2.257-1.89-3.797c-0.656-0.536-1.191-1.302-1.535-2.243
			c-0.344-0.943-0.475-1.998-0.367-2.972c0.076-0.699,0.276-1.351,0.583-1.923c-0.186-1.987-0.317-5.887,2.236-8.73
			c0.989-1.103,2.241-1.895,3.74-2.374C23.205,3.241,21.802,0,16.374,0C7.609,0,9.34,8.453,9.399,9.687
			c-1.392,1.172-0.532,4.504,0.86,4.504c0.517,3.134,2.893,5.465,2.893,5.465s-0.018,2.204-0.827,2.331
			C9.721,22.397,0,26.648,0,31.309h14.055C14.255,31.178,14.46,31.047,14.671,30.917z"/>
	</g>
</g>
</svg>
