<?xml version="1.0" encoding="utf-8"?>
<!-- Generator: Adobe Illustrator 17.0.0, SVG Export Plug-In . SVG Version: 6.00 Build 0)  -->
<!DOCTYPE svg PUBLIC "-//W3C//DTD SVG 1.1//EN" "http://www.w3.org/Graphics/SVG/1.1/DTD/svg11.dtd">
<svg version="1.1" id="Layer_1" xmlns="http://www.w3.org/2000/svg" xmlns:xlink="http://www.w3.org/1999/xlink" x="0px" y="0px"
	 width="50.926px" height="31.829px" viewBox="0 0 50.926 31.829" enable-background="new 0 0 50.926 31.829" xml:space="preserve">
<g>
	<g>
		<path fill="#FFFFFF" d="M25.463,0C14.356,0,4.73,6.468,0,15.914c4.73,9.447,14.356,15.914,25.463,15.914
			s20.732-6.468,25.463-15.914C46.196,6.468,36.57,0,25.463,0z M38.018,8.439c2.992,1.908,5.527,4.464,7.432,7.475
			c-1.905,3.009-4.44,5.567-7.432,7.475c-3.759,2.398-8.1,3.665-12.555,3.665s-8.796-1.267-12.555-3.665
			c-2.992-1.908-5.527-4.466-7.432-7.475c1.905-3.009,4.44-5.567,7.432-7.475c0.194-0.124,0.391-0.245,0.59-0.363
			c-0.497,1.359-0.767,2.826-0.767,4.357c0,7.031,5.701,12.731,12.731,12.731s12.731-5.701,12.731-12.731
			c0-1.531-0.271-2.997-0.765-4.356C37.626,8.194,37.824,8.315,38.018,8.439z M25.463,10.842c0,2.637-2.137,4.774-4.774,4.774
			s-4.774-2.137-4.774-4.774s2.137-4.774,4.774-4.774S25.463,8.205,25.463,10.842z"/>
	</g>
</g>
</svg>
