<?xml version="1.0" encoding="utf-8"?>
<!-- Generator: Adobe Illustrator 17.0.0, SVG Export Plug-In . SVG Version: 6.00 Build 0)  -->
<!DOCTYPE svg PUBLIC "-//W3C//DTD SVG 1.1//EN" "http://www.w3.org/Graphics/SVG/1.1/DTD/svg11.dtd">
<svg version="1.1" id="Layer_1" xmlns="http://www.w3.org/2000/svg" xmlns:xlink="http://www.w3.org/1999/xlink" x="0px" y="0px"
	 width="600px" height="374px" viewBox="0 0 600 374" enable-background="new 0 0 600 374" xml:space="preserve">
<path fill="#63328A" d="M556.5,174.496c0,4.697-3.807,8.504-8.504,8.504H52.004c-4.697,0-8.504-3.807-8.504-8.504V72.504
	c0-4.697,3.807-8.504,8.504-8.504h495.992c4.697,0,8.504,3.807,8.504,8.504V174.496z"/>
<path fill="#9A9999" d="M556.572,301.496c0,4.697-3.807,8.504-8.504,8.504H52.076c-4.697,0-8.504-3.807-8.504-8.504V199.504
	c0-4.697,3.807-8.504,8.504-8.504h495.992c4.697,0,8.504,3.807,8.504,8.504V301.496z"/>
<g>
	<g>
		<path fill="#FFFFFF" d="M66.941,129.969c0-2.133,0.383-4.258,1.15-6.375c0.767-2.117,1.883-4.008,3.35-5.675
			c1.466-1.667,3.258-3.016,5.375-4.05c2.116-1.033,4.525-1.55,7.225-1.55c3.166,0,5.916,0.717,8.25,2.15
			c2.333,1.434,4.066,3.3,5.2,5.6l-6.3,4.4c-0.367-0.933-0.833-1.708-1.4-2.325c-0.567-0.616-1.184-1.116-1.85-1.5
			c-0.667-0.383-1.359-0.65-2.075-0.8c-0.717-0.15-1.392-0.225-2.025-0.225c-1.467,0-2.733,0.317-3.8,0.95
			c-1.067,0.634-1.95,1.45-2.65,2.45c-0.7,1-1.225,2.134-1.575,3.4c-0.35,1.267-0.525,2.55-0.525,3.85c0,1.4,0.208,2.75,0.625,4.05
			c0.416,1.3,1,2.45,1.75,3.45s1.658,1.792,2.725,2.375c1.066,0.583,2.25,0.875,3.55,0.875c0.667,0,1.358-0.091,2.075-0.275
			c0.717-0.183,1.408-0.466,2.075-0.85c0.667-0.383,1.267-0.883,1.8-1.5c0.533-0.616,0.967-1.375,1.3-2.275l6.75,3.95
			c-0.534,1.3-1.309,2.467-2.325,3.5c-1.017,1.034-2.175,1.9-3.475,2.6c-1.3,0.7-2.675,1.234-4.125,1.6
			c-1.45,0.366-2.875,0.55-4.275,0.55c-2.467,0-4.725-0.525-6.775-1.575c-2.05-1.05-3.817-2.441-5.3-4.175
			c-1.484-1.732-2.643-3.7-3.475-5.9C67.357,134.469,66.941,132.236,66.941,129.969z"/>
		<path fill="#FFFFFF" d="M108.941,148.519c-1.3,0-2.509-0.208-3.625-0.625c-1.117-0.417-2.075-1-2.875-1.75
			c-0.8-0.75-1.434-1.633-1.9-2.65c-0.467-1.017-0.7-2.125-0.7-3.325c0-1.3,0.275-2.483,0.825-3.55
			c0.55-1.066,1.325-1.983,2.325-2.75c1-0.767,2.183-1.367,3.55-1.8c1.367-0.433,2.883-0.65,4.55-0.65c1.1,0,2.167,0.092,3.2,0.275
			c1.033,0.184,1.933,0.459,2.7,0.825v-1.2c0-3.033-1.75-4.55-5.25-4.55c-1.434,0-2.8,0.242-4.1,0.725
			c-1.3,0.483-2.667,1.208-4.1,2.175l-2.35-5c1.732-1.133,3.533-1.983,5.4-2.55c1.866-0.566,3.85-0.85,5.95-0.85
			c3.967,0,7.033,0.934,9.2,2.8c2.167,1.867,3.25,4.6,3.25,8.2v6.75c0,0.8,0.15,1.358,0.45,1.675c0.3,0.317,0.833,0.509,1.6,0.575
			v6.75c-0.767,0.167-1.475,0.275-2.125,0.325c-0.65,0.05-1.225,0.075-1.725,0.075c-1.467-0.034-2.584-0.333-3.35-0.9
			c-0.767-0.566-1.25-1.383-1.45-2.45l-0.15-1.2c-1.167,1.5-2.559,2.65-4.175,3.45C112.449,148.119,110.741,148.519,108.941,148.519
			z M111.291,142.769c0.867,0,1.708-0.15,2.525-0.45c0.816-0.3,1.491-0.7,2.025-1.2c0.766-0.6,1.15-1.233,1.15-1.9v-2.5
			c-0.7-0.267-1.458-0.475-2.275-0.625c-0.817-0.15-1.575-0.225-2.275-0.225c-1.467,0-2.675,0.333-3.625,1
			c-0.95,0.667-1.425,1.534-1.425,2.6c0,0.967,0.367,1.758,1.1,2.375C109.224,142.461,110.157,142.769,111.291,142.769z"/>
		<path fill="#FFFFFF" d="M147.59,148.519c-2,0-3.734-0.417-5.2-1.25c-1.467-0.833-2.617-2-3.45-3.5v14.9h-8v-36.9h7v4.25
			c0.966-1.5,2.166-2.667,3.6-3.5c1.433-0.833,3.15-1.25,5.15-1.25c1.766,0,3.4,0.35,4.9,1.05c1.5,0.7,2.792,1.659,3.875,2.875
			c1.083,1.217,1.933,2.65,2.55,4.3c0.617,1.65,0.925,3.425,0.925,5.325c0,1.967-0.284,3.784-0.85,5.45
			c-0.567,1.667-1.359,3.108-2.375,4.325c-1.017,1.217-2.217,2.175-3.6,2.875C150.731,148.168,149.223,148.519,147.59,148.519z
			 M144.84,141.769c0.866,0,1.658-0.191,2.375-0.575c0.716-0.383,1.341-0.891,1.875-1.525c0.533-0.633,0.941-1.375,1.225-2.225
			c0.283-0.85,0.425-1.741,0.425-2.675c0-0.966-0.159-1.858-0.475-2.675c-0.317-0.816-0.75-1.525-1.3-2.125
			c-0.55-0.6-1.208-1.066-1.975-1.4c-0.767-0.333-1.617-0.5-2.55-0.5c-1.1,0-2.15,0.325-3.15,0.975s-1.783,1.525-2.35,2.625v5.4
			c0.533,1.334,1.341,2.45,2.425,3.35C142.448,141.318,143.606,141.769,144.84,141.769z"/>
		<path fill="#FFFFFF" d="M162.84,118.769v-7.25h8v7.25H162.84z M162.84,148.019v-26.25h8v26.25H162.84z"/>
		<path fill="#FFFFFF" d="M193.239,146.619c-1.1,0.467-2.35,0.9-3.75,1.3c-1.4,0.4-2.834,0.6-4.3,0.6c-1,0-1.942-0.125-2.825-0.375
			c-0.884-0.25-1.659-0.65-2.325-1.2c-0.667-0.55-1.192-1.275-1.575-2.175c-0.383-0.9-0.575-1.983-0.575-3.25v-13.7h-3.35v-6.05
			h3.35v-8.35h8v8.35h5.35v6.05h-5.35v10.95c0,0.867,0.225,1.492,0.675,1.875c0.45,0.384,1.008,0.575,1.675,0.575
			c0.566,0,1.166-0.1,1.8-0.3c0.633-0.2,1.2-0.417,1.7-0.65L193.239,146.619z"/>
		<path fill="#FFFFFF" d="M203.789,148.519c-1.3,0-2.509-0.208-3.625-0.625c-1.117-0.417-2.075-1-2.875-1.75
			c-0.8-0.75-1.434-1.633-1.9-2.65c-0.467-1.017-0.7-2.125-0.7-3.325c0-1.3,0.275-2.483,0.825-3.55
			c0.55-1.066,1.325-1.983,2.325-2.75c1-0.767,2.183-1.367,3.55-1.8c1.367-0.433,2.883-0.65,4.55-0.65c1.1,0,2.167,0.092,3.2,0.275
			c1.033,0.184,1.933,0.459,2.7,0.825v-1.2c0-3.033-1.75-4.55-5.25-4.55c-1.434,0-2.8,0.242-4.1,0.725
			c-1.3,0.483-2.667,1.208-4.1,2.175l-2.35-5c1.732-1.133,3.533-1.983,5.4-2.55c1.866-0.566,3.85-0.85,5.95-0.85
			c3.967,0,7.033,0.934,9.2,2.8c2.167,1.867,3.25,4.6,3.25,8.2v6.75c0,0.8,0.15,1.358,0.45,1.675c0.3,0.317,0.833,0.509,1.6,0.575
			v6.75c-0.767,0.167-1.475,0.275-2.125,0.325c-0.65,0.05-1.225,0.075-1.725,0.075c-1.467-0.034-2.584-0.333-3.35-0.9
			c-0.767-0.566-1.25-1.383-1.45-2.45l-0.15-1.2c-1.167,1.5-2.559,2.65-4.175,3.45C207.296,148.119,205.588,148.519,203.789,148.519
			z M206.138,142.769c0.867,0,1.708-0.15,2.525-0.45c0.816-0.3,1.491-0.7,2.025-1.2c0.766-0.6,1.15-1.233,1.15-1.9v-2.5
			c-0.7-0.267-1.458-0.475-2.275-0.625c-0.817-0.15-1.575-0.225-2.275-0.225c-1.467,0-2.675,0.333-3.625,1
			c-0.95,0.667-1.425,1.534-1.425,2.6c0,0.967,0.367,1.758,1.1,2.375C204.071,142.461,205.005,142.769,206.138,142.769z"/>
		<path fill="#FFFFFF" d="M225.738,111.519h8v26.7c0,2,0.867,3,2.6,3c0.366,0,0.792-0.066,1.275-0.2
			c0.483-0.133,0.925-0.3,1.325-0.5l1.05,6.45c-1,0.467-2.15,0.833-3.45,1.1c-1.3,0.267-2.5,0.4-3.6,0.4c-2.3,0-4.075-0.6-5.325-1.8
			c-1.25-1.2-1.875-2.933-1.875-5.2V111.519z"/>
		<path fill="#FFFFFF" d="M253.288,118.769v-7.25h8v7.25H253.288z M253.288,148.019v-26.25h8v26.25H253.288z"/>
		<path fill="#FFFFFF" d="M292.037,148.019h-8v-14.75c0-1.733-0.325-2.991-0.975-3.775c-0.65-0.783-1.509-1.175-2.575-1.175
			c-0.567,0-1.142,0.117-1.725,0.35c-0.583,0.234-1.133,0.559-1.65,0.975c-0.517,0.417-0.992,0.909-1.425,1.475
			c-0.434,0.567-0.768,1.184-1,1.85v15.05h-8v-26.25h7.2v4.4c0.966-1.566,2.333-2.775,4.1-3.625c1.767-0.85,3.8-1.275,6.1-1.275
			c1.7,0,3.075,0.309,4.125,0.925c1.05,0.617,1.858,1.417,2.425,2.4c0.566,0.983,0.941,2.059,1.125,3.225
			c0.183,1.167,0.275,2.3,0.275,3.4V148.019z"/>
		<path fill="#FFFFFF" d="M303.588,148.019l-9.3-26.25h8.2l5.75,19.85l5.801-19.85h7.5l-9.301,26.25H303.588z"/>
		<path fill="#FFFFFF" d="M336.938,148.519c-2.2,0-4.175-0.358-5.925-1.075c-1.75-0.716-3.233-1.691-4.45-2.925
			c-1.217-1.233-2.143-2.658-2.775-4.275c-0.633-1.617-0.949-3.308-0.949-5.075c0-1.9,0.316-3.691,0.949-5.375
			c0.633-1.683,1.551-3.158,2.75-4.425c1.2-1.267,2.676-2.267,4.426-3c1.75-0.733,3.741-1.1,5.975-1.1c2.232,0,4.217,0.367,5.95,1.1
			c1.732,0.733,3.2,1.725,4.399,2.975c1.2,1.25,2.108,2.692,2.726,4.325c0.616,1.634,0.925,3.35,0.925,5.15
			c0,0.467-0.018,0.925-0.05,1.375c-0.034,0.45-0.084,0.842-0.15,1.175h-19.399c0.133,1.767,0.774,3.108,1.925,4.025
			c1.149,0.917,2.458,1.375,3.925,1.375c1.166,0,2.291-0.283,3.375-0.85c1.083-0.566,1.808-1.333,2.175-2.3l6.8,1.9
			c-1.033,2.067-2.633,3.75-4.8,5.05C342.57,147.869,339.971,148.519,336.938,148.519z M342.487,132.418
			c-0.167-1.667-0.767-2.983-1.8-3.95s-2.317-1.45-3.85-1.45c-1.567,0-2.859,0.492-3.875,1.475
			c-1.018,0.983-1.609,2.292-1.775,3.925H342.487z"/>
		<path fill="#FFFFFF" d="M365.537,148.519c-1.101,0-2.242-0.083-3.426-0.25c-1.184-0.167-2.358-0.392-3.524-0.675
			c-1.167-0.283-2.284-0.633-3.351-1.05c-1.066-0.417-2-0.875-2.8-1.375l3.15-5.4c1.732,1,3.416,1.767,5.05,2.3
			c1.633,0.534,3.2,0.8,4.7,0.8c1.166,0,2.058-0.183,2.675-0.55c0.616-0.366,0.925-0.9,0.925-1.6c0-0.7-0.417-1.242-1.25-1.625
			c-0.833-0.383-2.267-0.842-4.3-1.375c-1.768-0.467-3.268-0.933-4.5-1.4c-1.233-0.466-2.225-0.991-2.975-1.575
			c-0.75-0.583-1.293-1.242-1.625-1.975c-0.334-0.733-0.5-1.6-0.5-2.6c0-1.333,0.274-2.55,0.824-3.65
			c0.551-1.1,1.309-2.033,2.275-2.8c0.967-0.767,2.107-1.367,3.425-1.8c1.316-0.433,2.758-0.65,4.325-0.65
			c1.833,0,3.708,0.275,5.625,0.825c1.916,0.55,3.791,1.309,5.625,2.275l-3.15,5.05c-1.633-0.9-3.092-1.558-4.375-1.975
			c-1.283-0.416-2.524-0.625-3.725-0.625c-1,0-1.825,0.175-2.475,0.525c-0.65,0.35-0.976,0.908-0.976,1.675
			c0,0.367,0.083,0.675,0.25,0.925s0.441,0.484,0.825,0.7c0.383,0.217,0.892,0.417,1.525,0.6c0.633,0.184,1.416,0.392,2.35,0.625
			c1.933,0.5,3.566,1,4.9,1.5c1.332,0.5,2.416,1.059,3.25,1.675c0.832,0.617,1.433,1.325,1.8,2.125c0.366,0.8,0.55,1.75,0.55,2.85
			c0,1.3-0.259,2.475-0.775,3.525c-0.517,1.05-1.258,1.942-2.225,2.675c-0.967,0.733-2.134,1.3-3.5,1.7
			C368.77,148.318,367.236,148.519,365.537,148.519z"/>
		<path fill="#FFFFFF" d="M397.237,146.619c-1.1,0.467-2.35,0.9-3.75,1.3s-2.834,0.6-4.3,0.6c-1,0-1.942-0.125-2.825-0.375
			c-0.884-0.25-1.658-0.65-2.325-1.2c-0.667-0.55-1.192-1.275-1.575-2.175s-0.574-1.983-0.574-3.25v-13.7h-3.351v-6.05h3.351v-8.35
			h8v8.35h5.35v6.05h-5.35v10.95c0,0.867,0.225,1.492,0.675,1.875c0.45,0.384,1.008,0.575,1.675,0.575c0.566,0,1.166-0.1,1.8-0.3
			c0.633-0.2,1.2-0.417,1.7-0.65L397.237,146.619z"/>
		<path fill="#FFFFFF" d="M441.787,148.019h-8v-14.75c0-1.733-0.309-2.991-0.926-3.775c-0.617-0.783-1.441-1.175-2.475-1.175
			c-1.067,0-2.108,0.434-3.125,1.3c-1.018,0.867-1.759,1.983-2.225,3.35v15.05h-8v-14.75c0-1.733-0.309-2.991-0.926-3.775
			c-0.617-0.783-1.441-1.175-2.475-1.175c-1.067,0-2.108,0.425-3.125,1.275c-1.018,0.85-1.759,1.975-2.225,3.375v15.05h-8v-26.25
			h7.199v4.4c0.967-1.6,2.283-2.816,3.95-3.65c1.667-0.833,3.601-1.25,5.8-1.25c1.066,0,2.017,0.134,2.851,0.4
			c0.833,0.267,1.541,0.634,2.125,1.1c0.583,0.467,1.066,1.009,1.45,1.625c0.383,0.617,0.657,1.275,0.824,1.975
			c0.967-1.633,2.267-2.892,3.9-3.775c1.633-0.883,3.5-1.325,5.6-1.325c1.667,0,3.008,0.309,4.025,0.925
			c1.017,0.617,1.808,1.417,2.375,2.4c0.566,0.983,0.941,2.059,1.125,3.225c0.183,1.167,0.275,2.3,0.275,3.4V148.019z"/>
		<path fill="#FFFFFF" d="M459.586,148.519c-2.2,0-4.175-0.358-5.925-1.075c-1.75-0.716-3.233-1.691-4.45-2.925
			c-1.217-1.233-2.143-2.658-2.775-4.275c-0.633-1.617-0.949-3.308-0.949-5.075c0-1.9,0.316-3.691,0.949-5.375
			c0.633-1.683,1.551-3.158,2.75-4.425c1.2-1.267,2.676-2.267,4.426-3c1.75-0.733,3.741-1.1,5.975-1.1c2.232,0,4.217,0.367,5.95,1.1
			c1.732,0.733,3.2,1.725,4.399,2.975c1.2,1.25,2.108,2.692,2.726,4.325c0.616,1.634,0.925,3.35,0.925,5.15
			c0,0.467-0.018,0.925-0.05,1.375c-0.034,0.45-0.084,0.842-0.15,1.175h-19.399c0.133,1.767,0.774,3.108,1.925,4.025
			c1.149,0.917,2.458,1.375,3.925,1.375c1.166,0,2.291-0.283,3.375-0.85c1.083-0.566,1.808-1.333,2.175-2.3l6.8,1.9
			c-1.033,2.067-2.633,3.75-4.8,5.05C465.219,147.869,462.619,148.519,459.586,148.519z M465.136,132.418
			c-0.167-1.667-0.767-2.983-1.8-3.95s-2.317-1.45-3.85-1.45c-1.567,0-2.859,0.492-3.875,1.475
			c-1.018,0.983-1.609,2.292-1.775,3.925H465.136z"/>
		<path fill="#FFFFFF" d="M502.535,148.019h-8v-14.75c0-1.733-0.324-2.991-0.975-3.775c-0.65-0.783-1.509-1.175-2.575-1.175
			c-0.567,0-1.142,0.117-1.725,0.35c-0.584,0.234-1.134,0.559-1.65,0.975c-0.517,0.417-0.992,0.909-1.425,1.475
			c-0.434,0.567-0.768,1.184-1,1.85v15.05h-8v-26.25h7.2v4.4c0.966-1.566,2.333-2.775,4.1-3.625s3.8-1.275,6.101-1.275
			c1.699,0,3.074,0.309,4.125,0.925c1.05,0.617,1.857,1.417,2.425,2.4c0.566,0.983,0.941,2.059,1.125,3.225
			c0.183,1.167,0.274,2.3,0.274,3.4V148.019z"/>
		<path fill="#FFFFFF" d="M524.686,146.619c-1.1,0.467-2.35,0.9-3.75,1.3s-2.834,0.6-4.3,0.6c-1,0-1.942-0.125-2.825-0.375
			c-0.884-0.25-1.658-0.65-2.325-1.2c-0.667-0.55-1.192-1.275-1.575-2.175s-0.574-1.983-0.574-3.25v-13.7h-3.351v-6.05h3.351v-8.35
			h8v8.35h5.35v6.05h-5.35v10.95c0,0.867,0.225,1.492,0.675,1.875c0.45,0.384,1.008,0.575,1.675,0.575c0.566,0,1.166-0.1,1.8-0.3
			c0.633-0.2,1.2-0.417,1.7-0.65L524.686,146.619z"/>
	</g>
</g>
<g>
	<g>
		<path fill="#FFFFFF" d="M186.899,239.631v24.56h-2.04v-28.399h1.56l19.921,25v-24.96h2.039v28.359h-1.88L186.899,239.631z"/>
		<path fill="#FFFFFF" d="M223.979,264.591c-1.467,0-2.819-0.287-4.06-0.86s-2.313-1.353-3.22-2.34
			c-0.907-0.986-1.614-2.133-2.12-3.44c-0.507-1.306-0.76-2.68-0.76-4.119c0-1.467,0.26-2.854,0.779-4.16
			c0.521-1.307,1.24-2.453,2.16-3.44c0.92-0.986,1.993-1.766,3.22-2.34c1.227-0.573,2.561-0.86,4-0.86c1.44,0,2.78,0.287,4.021,0.86
			c1.24,0.574,2.32,1.354,3.24,2.34c0.92,0.987,1.64,2.134,2.159,3.44c0.521,1.307,0.78,2.693,0.78,4.16
			c0,1.439-0.26,2.813-0.78,4.119c-0.52,1.308-1.233,2.454-2.14,3.44c-0.907,0.987-1.986,1.767-3.24,2.34
			C226.766,264.304,225.419,264.591,223.979,264.591z M215.859,253.911c0,1.227,0.213,2.38,0.64,3.46
			c0.426,1.079,1.006,2.02,1.74,2.819c0.732,0.8,1.593,1.434,2.58,1.9c0.985,0.467,2.04,0.7,3.159,0.7c1.12,0,2.174-0.233,3.16-0.7
			s1.847-1.113,2.58-1.94c0.733-0.826,1.32-1.779,1.76-2.859c0.44-1.08,0.66-2.247,0.66-3.5c0-1.227-0.22-2.38-0.66-3.46
			c-0.439-1.08-1.026-2.026-1.76-2.841c-0.733-0.812-1.594-1.46-2.58-1.939c-0.986-0.48-2.04-0.72-3.16-0.72
			c-1.094,0-2.134,0.239-3.119,0.72c-0.987,0.479-1.854,1.134-2.601,1.96c-0.747,0.827-1.334,1.794-1.76,2.9
			C216.072,251.518,215.859,252.685,215.859,253.911z"/>
		<path fill="#FFFFFF" d="M247.938,263.19c-0.106,0.054-0.286,0.154-0.54,0.3c-0.253,0.147-0.573,0.287-0.96,0.421
			c-0.387,0.133-0.819,0.253-1.3,0.359c-0.479,0.106-1,0.16-1.56,0.16c-0.561,0-1.087-0.08-1.58-0.24
			c-0.494-0.16-0.927-0.399-1.3-0.72c-0.374-0.32-0.674-0.706-0.9-1.16c-0.227-0.453-0.34-0.986-0.34-1.6V245.03h-2.92v-1.64h2.92
			v-7.12h2v7.12h4.88v1.64h-4.88v15.2c0,0.774,0.266,1.354,0.8,1.74c0.533,0.387,1.146,0.58,1.84,0.58c0.826,0,1.54-0.14,2.141-0.42
			c0.6-0.28,0.966-0.46,1.1-0.54L247.938,263.19z"/>
		<path fill="#FFFFFF" d="M271.578,245.19c-1.894,0.054-3.534,0.607-4.92,1.66c-1.387,1.054-2.36,2.5-2.92,4.34v13h-2v-20.8h1.88
			v5.12c0.72-1.467,1.673-2.66,2.859-3.58s2.46-1.446,3.82-1.58c0.267,0,0.507-0.006,0.72-0.02c0.214-0.014,0.4-0.021,0.561-0.021
			V245.19z"/>
		<path fill="#FFFFFF" d="M284.258,264.591c-1.467,0-2.827-0.287-4.08-0.86c-1.254-0.573-2.34-1.359-3.26-2.359
			s-1.641-2.153-2.16-3.46c-0.521-1.307-0.78-2.707-0.78-4.2c0-1.467,0.26-2.847,0.78-4.141c0.52-1.293,1.233-2.426,2.14-3.399
			s1.986-1.74,3.24-2.3c1.253-0.561,2.6-0.841,4.04-0.841c1.466,0,2.82,0.287,4.06,0.86c1.24,0.574,2.313,1.347,3.221,2.32
			c0.906,0.974,1.619,2.106,2.14,3.399c0.52,1.294,0.78,2.66,0.78,4.101c0,0.134-0.007,0.3-0.021,0.5s-0.02,0.326-0.02,0.38h-18.28
			c0.08,1.2,0.36,2.313,0.84,3.34c0.48,1.027,1.086,1.914,1.82,2.66c0.733,0.747,1.58,1.334,2.54,1.76
			c0.96,0.427,1.986,0.64,3.08,0.64c0.72,0,1.433-0.1,2.14-0.3c0.706-0.2,1.36-0.473,1.96-0.819
			c0.601-0.347,1.133-0.767,1.601-1.261c0.466-0.493,0.833-1.033,1.1-1.62l1.76,0.48c-0.32,0.747-0.767,1.434-1.34,2.06
			c-0.574,0.627-1.24,1.167-2,1.62c-0.76,0.454-1.594,0.808-2.5,1.061C286.15,264.464,285.218,264.591,284.258,264.591z
			 M292.418,252.99c-0.08-1.226-0.354-2.346-0.82-3.359c-0.467-1.014-1.067-1.887-1.8-2.62c-0.734-0.733-1.58-1.307-2.54-1.72
			s-1.987-0.62-3.08-0.62c-1.094,0-2.12,0.207-3.08,0.62s-1.807,0.986-2.54,1.72s-1.32,1.613-1.76,2.64
			c-0.44,1.027-0.7,2.141-0.78,3.34H292.418z"/>
		<path fill="#FFFFFF" d="M306.857,264.591c-1.44,0-2.74-0.3-3.9-0.9c-1.159-0.6-2.159-1.399-3-2.399
			c-0.84-1-1.486-2.146-1.939-3.44c-0.454-1.293-0.68-2.633-0.68-4.02c0-1.44,0.26-2.813,0.779-4.12
			c0.521-1.307,1.227-2.453,2.12-3.44c0.894-0.986,1.946-1.773,3.16-2.359c1.213-0.587,2.513-0.881,3.9-0.881
			c1.626,0,3.146,0.435,4.56,1.301c1.413,0.866,2.521,1.953,3.32,3.26v-4.2h1.84v26.44c0,0.666,0.28,1.013,0.84,1.04v1.76
			c-0.134,0.026-0.254,0.04-0.36,0.04s-0.227,0-0.359,0c-0.614,0-1.12-0.2-1.521-0.601c-0.399-0.399-0.6-0.906-0.6-1.52v-10.84
			c-1.067,1.6-2.294,2.813-3.68,3.64C309.95,264.178,308.457,264.591,306.857,264.591z M307.378,262.791
			c0.88,0,1.699-0.146,2.46-0.44c0.76-0.293,1.46-0.68,2.1-1.16c0.64-0.479,1.22-1.046,1.74-1.7c0.52-0.652,0.966-1.34,1.34-2.06
			v-6.8c-0.107-0.773-0.4-1.507-0.88-2.2c-0.48-0.693-1.074-1.307-1.78-1.84c-0.707-0.533-1.474-0.96-2.3-1.28
			c-0.827-0.32-1.641-0.479-2.44-0.479c-1.2,0-2.307,0.26-3.319,0.779c-1.014,0.521-1.888,1.2-2.62,2.04
			c-0.734,0.84-1.3,1.808-1.7,2.9c-0.4,1.094-0.6,2.2-0.6,3.32c0,1.199,0.199,2.333,0.6,3.399c0.4,1.067,0.953,2.014,1.66,2.84
			c0.706,0.827,1.546,1.48,2.52,1.96C305.131,262.551,306.204,262.791,307.378,262.791z"/>
		<path fill="#FFFFFF" d="M329.617,264.591c-4.454,0-6.681-3.066-6.681-9.2v-12h2v11.72c0,5.12,1.747,7.681,5.24,7.681
			c0.88,0,1.74-0.153,2.58-0.46s1.62-0.733,2.34-1.28c0.721-0.546,1.354-1.206,1.9-1.98c0.546-0.772,0.979-1.626,1.3-2.56v-13.12h2
			v18c0,0.667,0.28,1,0.84,1v1.8c-0.16,0.026-0.294,0.04-0.399,0.04c-0.107,0-0.214,0-0.32,0c-0.561,0-1.021-0.166-1.38-0.5
			c-0.36-0.333-0.54-0.766-0.54-1.3v-3.16c-0.934,1.68-2.188,2.987-3.76,3.92C333.163,264.124,331.457,264.591,329.617,264.591z"/>
		<path fill="#FFFFFF" d="M346.657,238.671v-3.681h2v3.681H346.657z M346.657,264.19v-20.8h2v20.8H346.657z"/>
		<path fill="#FFFFFF" d="M364.656,245.19c-1.894,0.054-3.533,0.607-4.92,1.66c-1.387,1.054-2.359,2.5-2.92,4.34v13h-2v-20.8h1.88
			v5.12c0.721-1.467,1.674-2.66,2.86-3.58s2.46-1.446,3.82-1.58c0.266,0,0.506-0.006,0.72-0.02c0.213-0.014,0.399-0.021,0.56-0.021
			V245.19z"/>
		<path fill="#FFFFFF" d="M377.336,264.591c-1.467,0-2.826-0.287-4.08-0.86c-1.253-0.573-2.34-1.359-3.26-2.359
			s-1.64-2.153-2.16-3.46c-0.52-1.307-0.779-2.707-0.779-4.2c0-1.467,0.26-2.847,0.779-4.141c0.521-1.293,1.233-2.426,2.141-3.399
			c0.906-0.974,1.986-1.74,3.239-2.3c1.254-0.561,2.601-0.841,4.04-0.841c1.467,0,2.82,0.287,4.061,0.86
			c1.24,0.574,2.312,1.347,3.22,2.32c0.906,0.974,1.62,2.106,2.14,3.399c0.521,1.294,0.78,2.66,0.78,4.101
			c0,0.134-0.007,0.3-0.02,0.5c-0.014,0.2-0.021,0.326-0.021,0.38h-18.28c0.08,1.2,0.36,2.313,0.841,3.34
			c0.479,1.027,1.086,1.914,1.819,2.66c0.733,0.747,1.58,1.334,2.54,1.76c0.96,0.427,1.986,0.64,3.08,0.64
			c0.72,0,1.434-0.1,2.141-0.3c0.706-0.2,1.359-0.473,1.96-0.819c0.6-0.347,1.133-0.767,1.6-1.261c0.466-0.493,0.833-1.033,1.1-1.62
			l1.761,0.48c-0.32,0.747-0.768,1.434-1.341,2.06c-0.573,0.627-1.239,1.167-2,1.62c-0.76,0.454-1.594,0.808-2.5,1.061
			S378.296,264.591,377.336,264.591z M385.496,252.99c-0.08-1.226-0.354-2.346-0.82-3.359s-1.066-1.887-1.8-2.62
			s-1.58-1.307-2.54-1.72s-1.986-0.62-3.08-0.62s-2.12,0.207-3.08,0.62s-1.807,0.986-2.54,1.72s-1.319,1.613-1.76,2.64
			c-0.439,1.027-0.7,2.141-0.779,3.34H385.496z"/>
		<path fill="#FFFFFF" d="M400.416,264.591c-1.439,0-2.773-0.3-4-0.9c-1.227-0.6-2.287-1.399-3.18-2.399
			c-0.894-1-1.587-2.146-2.08-3.44c-0.494-1.293-0.74-2.633-0.74-4.02c0-1.44,0.24-2.813,0.72-4.12c0.48-1.307,1.146-2.453,2-3.44
			c0.854-0.986,1.86-1.773,3.021-2.359c1.16-0.587,2.433-0.881,3.82-0.881c0.906,0,1.766,0.134,2.579,0.4s1.561,0.62,2.24,1.06
			c0.681,0.44,1.3,0.954,1.86,1.54c0.56,0.587,1.04,1.214,1.439,1.881V234.99h2v26.4c0,0.667,0.28,1,0.841,1v1.8
			c-0.134,0.026-0.254,0.04-0.36,0.04c-0.107,0-0.214,0-0.32,0c-0.587,0-1.06-0.187-1.42-0.56c-0.359-0.373-0.54-0.786-0.54-1.24
			v-2.4c-0.854,1.388-1.993,2.494-3.42,3.32C403.449,264.178,401.962,264.591,400.416,264.591z M400.776,262.791
			c0.72,0,1.493-0.146,2.319-0.44c0.826-0.293,1.601-0.7,2.32-1.22c0.72-0.521,1.326-1.113,1.82-1.78
			c0.493-0.666,0.779-1.386,0.859-2.16v-6.84c-0.293-0.746-0.713-1.46-1.26-2.14c-0.547-0.681-1.167-1.267-1.859-1.761
			c-0.694-0.492-1.44-0.886-2.24-1.18c-0.8-0.293-1.574-0.439-2.32-0.439c-1.2,0-2.287,0.26-3.26,0.779
			c-0.974,0.521-1.813,1.2-2.521,2.04c-0.706,0.84-1.246,1.8-1.62,2.88c-0.373,1.08-0.56,2.194-0.56,3.341
			c0,1.199,0.213,2.333,0.64,3.399c0.427,1.067,1.021,2.014,1.78,2.84c0.76,0.827,1.64,1.48,2.64,1.96
			C398.516,262.551,399.603,262.791,400.776,262.791z"/>
	</g>
</g>
</svg>
