<?xml version="1.0" encoding="utf-8"?>
<!-- Generator: Adobe Illustrator 17.0.0, SVG Export Plug-In . SVG Version: 6.00 Build 0)  -->
<!DOCTYPE svg PUBLIC "-//W3C//DTD SVG 1.1//EN" "http://www.w3.org/Graphics/SVG/1.1/DTD/svg11.dtd">
<svg version="1.1" id="Layer_1" xmlns="http://www.w3.org/2000/svg" xmlns:xlink="http://www.w3.org/1999/xlink" x="0px" y="0px"
	 width="600px" height="374px" viewBox="0 0 600 374" enable-background="new 0 0 600 374" xml:space="preserve">
<path fill="#63328A" d="M556.5,174.496c0,4.697-3.807,8.504-8.504,8.504H52.004c-4.697,0-8.504-3.807-8.504-8.504V72.504
	c0-4.697,3.807-8.504,8.504-8.504h495.992c4.697,0,8.504,3.807,8.504,8.504V174.496z"/>
<path fill="#9A9999" d="M556.572,301.496c0,4.697-3.807,8.504-8.504,8.504H52.076c-4.697,0-8.504-3.807-8.504-8.504V199.504
	c0-4.697,3.807-8.504,8.504-8.504h495.992c4.697,0,8.504,3.807,8.504,8.504V301.496z"/>
<g>
	<g>
		<path fill="#FFFFFF" d="M104.891,137.099c0,1.84-0.38,3.44-1.14,4.8c-0.76,1.36-1.8,2.49-3.12,3.39s-2.86,1.581-4.62,2.04
			c-1.761,0.46-3.621,0.69-5.58,0.69h-20.76v-42.6h23.7c1.479,0,2.82,0.321,4.02,0.96c1.2,0.641,2.22,1.47,3.06,2.49
			c0.84,1.02,1.49,2.181,1.95,3.48c0.459,1.3,0.69,2.63,0.69,3.99c0,2.04-0.51,3.96-1.53,5.76c-1.02,1.8-2.55,3.16-4.59,4.08
			c2.439,0.72,4.37,2,5.79,3.84C104.18,131.859,104.891,134.219,104.891,137.099z M79.511,113.818v8.82h9.66
			c1.08,0,2.04-0.36,2.88-1.08c0.84-0.72,1.26-1.839,1.26-3.36c0-1.4-0.371-2.48-1.11-3.24c-0.741-0.759-1.63-1.14-2.67-1.14H79.511
			z M94.871,135.119c0-1.32-0.38-2.439-1.14-3.36c-0.76-0.92-1.72-1.38-2.88-1.38h-11.34v9.3h10.92c1.28,0,2.34-0.42,3.18-1.26
			C94.451,137.579,94.871,136.479,94.871,135.119z"/>
		<path fill="#FFFFFF" d="M124.99,148.619c-2.64,0-5.01-0.43-7.11-1.29s-3.88-2.03-5.34-3.51c-1.461-1.479-2.571-3.189-3.33-5.13
			c-0.76-1.939-1.14-3.969-1.14-6.09c0-2.28,0.38-4.43,1.14-6.45c0.759-2.019,1.86-3.789,3.3-5.31c1.44-1.52,3.21-2.72,5.31-3.6
			c2.1-0.879,4.49-1.32,7.17-1.32c2.68,0,5.06,0.441,7.14,1.32c2.08,0.88,3.84,2.07,5.28,3.57c1.44,1.5,2.53,3.23,3.27,5.19
			c0.74,1.96,1.11,4.02,1.11,6.18c0,0.561-0.021,1.11-0.06,1.65c-0.041,0.54-0.101,1.011-0.18,1.41h-23.28
			c0.159,2.121,0.93,3.73,2.31,4.83c1.38,1.101,2.949,1.65,4.71,1.65c1.399,0,2.75-0.339,4.05-1.02c1.299-0.68,2.169-1.6,2.61-2.76
			l8.16,2.28c-1.24,2.48-3.16,4.5-5.76,6.06C131.75,147.838,128.63,148.619,124.99,148.619z M131.65,129.298
			c-0.201-2-0.92-3.579-2.16-4.74c-1.24-1.16-2.78-1.74-4.62-1.74c-1.881,0-3.431,0.591-4.65,1.77
			c-1.221,1.181-1.93,2.751-2.13,4.71H131.65z"/>
		<path fill="#FFFFFF" d="M159.31,148.619c-1.32,0-2.69-0.101-4.11-0.3c-1.42-0.2-2.831-0.47-4.23-0.81
			c-1.401-0.34-2.74-0.76-4.02-1.26c-1.281-0.5-2.4-1.05-3.36-1.65l3.78-6.48c2.08,1.2,4.1,2.121,6.06,2.76
			c1.959,0.641,3.84,0.96,5.64,0.96c1.399,0,2.469-0.219,3.21-0.66c0.74-0.44,1.11-1.08,1.11-1.92c0-0.84-0.5-1.49-1.5-1.95
			c-1-0.459-2.721-1.01-5.16-1.65c-2.121-0.56-3.92-1.12-5.4-1.68c-1.48-0.56-2.67-1.189-3.57-1.89c-0.9-0.699-1.551-1.49-1.95-2.37
			c-0.4-0.879-0.6-1.92-0.6-3.12c0-1.6,0.33-3.06,0.99-4.38c0.66-1.32,1.569-2.439,2.73-3.36c1.16-0.919,2.529-1.64,4.11-2.16
			c1.58-0.52,3.31-0.78,5.19-0.78c2.2,0,4.45,0.33,6.75,0.99c2.3,0.66,4.55,1.57,6.75,2.73l-3.78,6.06
			c-1.96-1.08-3.711-1.87-5.25-2.37c-1.541-0.5-3.03-0.75-4.47-0.75c-1.2,0-2.19,0.21-2.97,0.63c-0.78,0.42-1.17,1.09-1.17,2.01
			c0,0.44,0.099,0.81,0.3,1.11c0.2,0.3,0.53,0.58,0.99,0.84c0.459,0.261,1.07,0.5,1.83,0.72c0.76,0.22,1.7,0.471,2.82,0.75
			c2.319,0.6,4.279,1.2,5.88,1.8c1.599,0.6,2.899,1.271,3.9,2.01c1,0.74,1.719,1.59,2.16,2.55c0.439,0.96,0.66,2.1,0.66,3.42
			c0,1.56-0.31,2.97-0.93,4.23c-0.621,1.26-1.51,2.331-2.67,3.21c-1.161,0.88-2.561,1.56-4.2,2.04
			C163.189,148.378,161.35,148.619,159.31,148.619z"/>
		<path fill="#FFFFFF" d="M197.11,148.619c-2.4,0-4.48-0.5-6.24-1.5c-1.761-1-3.141-2.4-4.14-4.2v17.88h-9.6v-44.28h8.4v5.1
			c1.16-1.8,2.6-3.2,4.32-4.2c1.719-1,3.78-1.5,6.18-1.5c2.12,0,4.08,0.42,5.88,1.26c1.8,0.84,3.35,1.99,4.65,3.45
			c1.299,1.461,2.319,3.18,3.06,5.16c0.74,1.98,1.11,4.11,1.11,6.39c0,2.36-0.34,4.54-1.02,6.54c-0.681,2-1.63,3.73-2.85,5.19
			c-1.221,1.46-2.661,2.61-4.32,3.45C200.879,148.199,199.069,148.619,197.11,148.619z M193.81,140.519
			c1.04,0,1.989-0.229,2.85-0.69c0.86-0.459,1.61-1.07,2.25-1.83c0.639-0.759,1.13-1.65,1.47-2.67c0.339-1.02,0.51-2.09,0.51-3.21
			c0-1.16-0.19-2.229-0.57-3.21c-0.381-0.98-0.9-1.83-1.56-2.55c-0.66-0.72-1.45-1.279-2.37-1.68c-0.92-0.399-1.94-0.6-3.06-0.6
			c-1.32,0-2.58,0.39-3.78,1.17c-1.2,0.78-2.141,1.83-2.82,3.15v6.48c0.64,1.601,1.61,2.94,2.91,4.02
			C190.939,139.979,192.329,140.519,193.81,140.519z"/>
		<path fill="#FFFFFF" d="M230.468,148.619c-2.68,0-5.07-0.441-7.17-1.32s-3.87-2.07-5.31-3.57s-2.53-3.24-3.27-5.22
			c-0.74-1.98-1.11-4.05-1.11-6.21c0-2.16,0.37-4.23,1.11-6.21c0.74-1.98,1.83-3.72,3.27-5.22s3.21-2.7,5.31-3.6
			s4.49-1.35,7.17-1.35c2.68,0,5.06,0.45,7.14,1.35c2.08,0.9,3.84,2.1,5.28,3.6c1.44,1.5,2.54,3.24,3.3,5.22
			c0.759,1.98,1.14,4.05,1.14,6.21c0,2.16-0.371,4.23-1.11,6.21c-0.74,1.98-1.83,3.72-3.27,5.22c-1.44,1.5-3.21,2.69-5.31,3.57
			C235.539,148.178,233.148,148.619,230.468,148.619z M223.448,132.298c0,2.481,0.66,4.47,1.98,5.97c1.32,1.5,3,2.25,5.04,2.25
			c1,0,1.92-0.2,2.76-0.6c0.84-0.399,1.569-0.96,2.19-1.68c0.62-0.72,1.11-1.59,1.47-2.61c0.36-1.02,0.54-2.13,0.54-3.33
			c0-2.479-0.66-4.47-1.98-5.97c-1.32-1.5-2.98-2.25-4.98-2.25c-1,0-1.93,0.201-2.79,0.6c-0.86,0.4-1.6,0.96-2.22,1.68
			c-0.621,0.72-1.11,1.59-1.47,2.61C223.628,129.989,223.448,131.099,223.448,132.298z"/>
		<path fill="#FFFFFF" d="M273.128,148.019l-8.22-12.66l-3.36,3.48v9.18h-9.6v-43.8h9.6v25.38l10.68-13.08h10.2l-11.34,13.56
			l12.24,17.94H273.128z"/>
		<path fill="#FFFFFF" d="M301.147,148.619c-2.64,0-5.01-0.43-7.11-1.29s-3.88-2.03-5.34-3.51c-1.461-1.479-2.571-3.189-3.33-5.13
			c-0.76-1.939-1.14-3.969-1.14-6.09c0-2.28,0.38-4.43,1.14-6.45c0.759-2.019,1.86-3.789,3.3-5.31c1.44-1.52,3.21-2.72,5.31-3.6
			c2.1-0.879,4.49-1.32,7.17-1.32c2.68,0,5.061,0.441,7.141,1.32c2.079,0.88,3.84,2.07,5.279,3.57c1.44,1.5,2.53,3.23,3.271,5.19
			c0.739,1.96,1.11,4.02,1.11,6.18c0,0.561-0.021,1.11-0.061,1.65c-0.04,0.54-0.101,1.011-0.18,1.41h-23.28
			c0.159,2.121,0.93,3.73,2.31,4.83c1.38,1.101,2.949,1.65,4.71,1.65c1.399,0,2.75-0.339,4.05-1.02c1.299-0.68,2.169-1.6,2.609-2.76
			l8.16,2.28c-1.24,2.48-3.16,4.5-5.76,6.06C307.907,147.838,304.787,148.619,301.147,148.619z M307.808,129.298
			c-0.2-2-0.92-3.579-2.16-4.74c-1.24-1.16-2.78-1.74-4.62-1.74c-1.881,0-3.431,0.591-4.65,1.77c-1.221,1.181-1.93,2.751-2.13,4.71
			H307.808z"/>
		<path fill="#FFFFFF" d="M337.087,148.019v-42.6h15.899c3.52,0,6.601,0.561,9.24,1.68c2.64,1.12,4.85,2.64,6.63,4.56
			c1.779,1.92,3.12,4.17,4.021,6.75c0.899,2.58,1.35,5.331,1.35,8.25c0,3.24-0.501,6.17-1.5,8.79c-1,2.62-2.43,4.86-4.29,6.72
			s-4.101,3.3-6.72,4.32c-2.62,1.02-5.53,1.53-8.73,1.53H337.087z M364.207,126.659c0-1.88-0.251-3.59-0.75-5.13
			c-0.501-1.539-1.23-2.87-2.19-3.99c-0.96-1.12-2.141-1.98-3.54-2.58c-1.4-0.6-2.98-0.9-4.74-0.9h-6.06v25.32h6.06
			c1.8,0,3.399-0.319,4.8-0.96c1.4-0.639,2.57-1.53,3.511-2.67c0.939-1.14,1.659-2.479,2.16-4.02
			C363.956,130.189,364.207,128.499,364.207,126.659z"/>
		<path fill="#FFFFFF" d="M394.386,148.619c-2.64,0-5.01-0.43-7.109-1.29c-2.101-0.86-3.881-2.03-5.34-3.51
			c-1.461-1.479-2.571-3.189-3.33-5.13c-0.761-1.939-1.141-3.969-1.141-6.09c0-2.28,0.38-4.43,1.141-6.45
			c0.759-2.019,1.859-3.789,3.3-5.31c1.439-1.52,3.21-2.72,5.31-3.6c2.101-0.879,4.49-1.32,7.17-1.32s5.061,0.441,7.141,1.32
			c2.079,0.88,3.84,2.07,5.279,3.57c1.44,1.5,2.53,3.23,3.271,5.19c0.739,1.96,1.11,4.02,1.11,6.18c0,0.561-0.021,1.11-0.061,1.65
			c-0.04,0.54-0.101,1.011-0.18,1.41h-23.28c0.159,2.121,0.93,3.73,2.311,4.83c1.38,1.101,2.949,1.65,4.71,1.65
			c1.399,0,2.749-0.339,4.05-1.02c1.299-0.68,2.169-1.6,2.609-2.76l8.16,2.28c-1.24,2.48-3.16,4.5-5.76,6.06
			C401.146,147.838,398.025,148.619,394.386,148.619z M401.046,129.298c-0.2-2-0.92-3.579-2.16-4.74
			c-1.24-1.16-2.78-1.74-4.619-1.74c-1.881,0-3.431,0.591-4.65,1.77c-1.221,1.181-1.931,2.751-2.13,4.71H401.046z"/>
		<path fill="#FFFFFF" d="M428.705,148.619c-1.319,0-2.69-0.101-4.109-0.3c-1.421-0.2-2.831-0.47-4.23-0.81
			c-1.4-0.34-2.74-0.76-4.02-1.26c-1.281-0.5-2.4-1.05-3.36-1.65l3.78-6.48c2.079,1.2,4.1,2.121,6.06,2.76
			c1.96,0.641,3.84,0.96,5.641,0.96c1.399,0,2.469-0.219,3.21-0.66c0.739-0.44,1.109-1.08,1.109-1.92c0-0.84-0.5-1.49-1.5-1.95
			c-1-0.459-2.721-1.01-5.16-1.65c-2.12-0.56-3.92-1.12-5.399-1.68c-1.48-0.56-2.67-1.189-3.57-1.89
			c-0.899-0.699-1.551-1.49-1.95-2.37c-0.4-0.879-0.6-1.92-0.6-3.12c0-1.6,0.33-3.06,0.99-4.38c0.66-1.32,1.569-2.439,2.729-3.36
			c1.16-0.919,2.529-1.64,4.11-2.16c1.579-0.52,3.31-0.78,5.189-0.78c2.2,0,4.45,0.33,6.75,0.99c2.3,0.66,4.55,1.57,6.75,2.73
			l-3.779,6.06c-1.961-1.08-3.711-1.87-5.25-2.37c-1.541-0.5-3.03-0.75-4.471-0.75c-1.199,0-2.189,0.21-2.97,0.63
			s-1.17,1.09-1.17,2.01c0,0.44,0.1,0.81,0.3,1.11c0.2,0.3,0.53,0.58,0.99,0.84c0.459,0.261,1.069,0.5,1.83,0.72
			c0.76,0.22,1.699,0.471,2.82,0.75c2.319,0.6,4.279,1.2,5.88,1.8c1.599,0.6,2.899,1.271,3.899,2.01c1,0.74,1.72,1.59,2.16,2.55
			c0.439,0.96,0.66,2.1,0.66,3.42c0,1.56-0.311,2.97-0.93,4.23c-0.621,1.26-1.511,2.331-2.67,3.21c-1.161,0.88-2.561,1.56-4.2,2.04
			C432.585,148.378,430.745,148.619,428.705,148.619z"/>
		<path fill="#FFFFFF" d="M446.525,112.918v-8.7h9.6v8.7H446.525z M446.525,148.019v-31.5h9.6v31.5H446.525z"/>
		<path fill="#FFFFFF" d="M474.845,148.139c-2.08,0-3.97-0.42-5.67-1.26c-1.7-0.84-3.16-1.98-4.38-3.42
			c-1.221-1.44-2.17-3.12-2.85-5.04c-0.681-1.92-1.021-3.979-1.021-6.18c0-2.32,0.36-4.47,1.08-6.45s1.72-3.699,3-5.16
			c1.28-1.459,2.82-2.61,4.62-3.45c1.8-0.84,3.78-1.26,5.94-1.26c2.359,0,4.439,0.51,6.239,1.53c1.801,1.02,3.24,2.43,4.32,4.23
			v-5.16h8.34v29.34c0,2.4-0.45,4.56-1.35,6.48c-0.9,1.92-2.15,3.549-3.75,4.89c-1.601,1.34-3.521,2.37-5.76,3.09
			c-2.241,0.72-4.701,1.08-7.381,1.08c-3.4,0-6.3-0.54-8.699-1.62c-2.4-1.08-4.5-2.64-6.301-4.68l5.101-5.22
			c1.159,1.32,2.609,2.37,4.35,3.15c1.74,0.78,3.59,1.17,5.55,1.17c1.16,0,2.26-0.161,3.301-0.48c1.039-0.321,1.959-0.81,2.76-1.47
			c0.8-0.66,1.43-1.521,1.89-2.58c0.46-1.06,0.69-2.33,0.69-3.81v-3.06c-0.96,1.761-2.351,3.09-4.17,3.99
			C478.874,147.688,476.925,148.139,474.845,148.139z M478.205,140.519c1.479,0,2.79-0.41,3.93-1.23
			c1.141-0.819,2.05-1.87,2.73-3.15v-6.6c-0.641-1.68-1.62-3.009-2.94-3.99c-1.319-0.979-2.721-1.47-4.2-1.47
			c-1.04,0-1.99,0.23-2.85,0.69c-0.86,0.46-1.601,1.08-2.22,1.86c-0.621,0.78-1.101,1.68-1.44,2.7s-0.51,2.07-0.51,3.15
			c0,1.161,0.189,2.23,0.57,3.21c0.379,0.98,0.899,1.83,1.56,2.55c0.66,0.72,1.449,1.28,2.37,1.68
			C476.125,140.319,477.125,140.519,478.205,140.519z"/>
		<path fill="#FFFFFF" d="M531.364,148.019h-9.6v-17.7c0-2.079-0.391-3.589-1.17-4.53c-0.78-0.939-1.811-1.41-3.091-1.41
			c-0.681,0-1.37,0.141-2.069,0.42c-0.7,0.281-1.36,0.67-1.98,1.17c-0.62,0.5-1.19,1.09-1.71,1.77c-0.521,0.68-0.921,1.42-1.2,2.22
			v18.06h-9.6v-31.5h8.64v5.28c1.16-1.879,2.8-3.33,4.92-4.35s4.561-1.53,7.32-1.53c2.04,0,3.69,0.371,4.95,1.11
			c1.26,0.741,2.229,1.701,2.91,2.88c0.68,1.18,1.13,2.47,1.35,3.87c0.22,1.401,0.33,2.76,0.33,4.08V148.019z"/>
	</g>
</g>
<g>
	<g>
		<path fill="#FFFFFF" d="M221.559,242.932v-28.399h18.48v1.84h-16.44v11.28h13.96v1.76h-13.96v13.52H221.559z"/>
		<path fill="#FFFFFF" d="M251.958,243.332c-1.467,0-2.819-0.287-4.06-0.859c-1.24-0.574-2.313-1.354-3.22-2.34
			c-0.907-0.986-1.614-2.134-2.12-3.441c-0.507-1.306-0.76-2.68-0.76-4.119c0-1.467,0.26-2.854,0.779-4.16
			c0.521-1.307,1.24-2.453,2.16-3.439s1.993-1.767,3.22-2.34c1.227-0.574,2.561-0.861,4-0.861c1.44,0,2.78,0.287,4.021,0.861
			c1.24,0.573,2.32,1.354,3.24,2.34s1.64,2.133,2.159,3.439c0.521,1.307,0.78,2.693,0.78,4.16c0,1.439-0.26,2.813-0.78,4.119
			c-0.52,1.308-1.233,2.455-2.14,3.441c-0.907,0.986-1.986,1.766-3.24,2.34C254.745,243.045,253.398,243.332,251.958,243.332z
			 M243.839,232.652c0,1.227,0.213,2.38,0.64,3.46c0.426,1.079,1.006,2.021,1.74,2.819c0.732,0.801,1.593,1.434,2.58,1.9
			c0.985,0.467,2.04,0.7,3.159,0.7c1.12,0,2.174-0.233,3.16-0.7s1.847-1.113,2.58-1.939s1.32-1.78,1.76-2.86
			c0.44-1.08,0.66-2.247,0.66-3.5c0-1.227-0.22-2.38-0.66-3.46c-0.439-1.08-1.026-2.026-1.76-2.84s-1.594-1.461-2.58-1.94
			s-2.04-0.72-3.16-0.72c-1.094,0-2.134,0.24-3.119,0.72c-0.987,0.479-1.854,1.134-2.601,1.96c-0.747,0.827-1.334,1.794-1.76,2.9
			C244.052,230.259,243.839,231.426,243.839,232.652z"/>
		<path fill="#FFFFFF" d="M276.718,223.932c-1.894,0.055-3.533,0.607-4.92,1.66c-1.387,1.055-2.359,2.5-2.92,4.34v13h-2v-20.799
			h1.88v5.119c0.721-1.467,1.674-2.66,2.86-3.58s2.46-1.445,3.82-1.58c0.266,0,0.506-0.006,0.72-0.02
			c0.213-0.014,0.399-0.02,0.56-0.02V223.932z"/>
		<path fill="#FFFFFF" d="M298.958,243.332c-1.467,0-2.827-0.287-4.08-0.859c-1.254-0.574-2.34-1.36-3.26-2.36
			s-1.641-2.153-2.16-3.46c-0.521-1.307-0.78-2.707-0.78-4.2c0-1.466,0.26-2.847,0.78-4.14c0.52-1.293,1.233-2.427,2.14-3.4
			c0.906-0.973,1.986-1.74,3.24-2.3c1.253-0.56,2.6-0.841,4.04-0.841c1.466,0,2.82,0.287,4.06,0.861
			c1.24,0.573,2.313,1.346,3.221,2.319c0.906,0.974,1.619,2.106,2.14,3.399c0.52,1.295,0.78,2.66,0.78,4.101
			c0,0.134-0.007,0.3-0.021,0.5s-0.02,0.327-0.02,0.38h-18.28c0.08,1.2,0.36,2.314,0.84,3.34c0.48,1.027,1.086,1.914,1.82,2.66
			c0.733,0.747,1.58,1.334,2.54,1.76c0.96,0.428,1.986,0.641,3.08,0.641c0.72,0,1.433-0.1,2.14-0.301
			c0.706-0.199,1.36-0.473,1.96-0.819c0.601-0.347,1.133-0.767,1.601-1.261c0.466-0.492,0.833-1.033,1.1-1.619l1.76,0.479
			c-0.32,0.747-0.767,1.435-1.34,2.06c-0.574,0.627-1.24,1.168-2,1.621s-1.594,0.807-2.5,1.06
			C300.851,243.205,299.918,243.332,298.958,243.332z M307.118,231.732c-0.08-1.227-0.354-2.347-0.82-3.36
			c-0.467-1.013-1.067-1.886-1.8-2.62c-0.734-0.732-1.58-1.307-2.54-1.72s-1.987-0.62-3.08-0.62c-1.094,0-2.12,0.207-3.08,0.62
			s-1.807,0.987-2.54,1.72c-0.733,0.734-1.32,1.613-1.76,2.641c-0.44,1.026-0.7,2.14-0.78,3.34H307.118z"/>
		<path fill="#FFFFFF" d="M318.598,243.332c-0.96,0-1.86-0.167-2.7-0.5s-1.573-0.786-2.2-1.359c-0.627-0.574-1.113-1.254-1.46-2.041
			c-0.347-0.785-0.52-1.633-0.52-2.539s0.213-1.733,0.64-2.48c0.427-0.746,1.026-1.393,1.8-1.939s1.687-0.974,2.74-1.281
			c1.054-0.306,2.22-0.459,3.5-0.459c1.12,0,2.253,0.1,3.4,0.3c1.146,0.2,2.173,0.474,3.08,0.819v-2.039
			c0-1.974-0.561-3.541-1.681-4.7c-1.119-1.16-2.64-1.74-4.56-1.74c-1.04,0-2.127,0.214-3.26,0.64
			c-1.134,0.428-2.274,1.041-3.42,1.84l-0.801-1.359c2.693-1.812,5.227-2.721,7.601-2.721c2.506,0,4.486,0.728,5.939,2.181
			c1.453,1.454,2.181,3.46,2.181,6.021v10.16c0,0.666,0.279,1,0.84,1v1.799c-0.134,0.027-0.26,0.041-0.38,0.041s-0.234,0-0.34,0
			c-0.48,0-0.92-0.167-1.32-0.5c-0.4-0.334-0.6-0.767-0.6-1.301v-1.72c-0.961,1.254-2.181,2.214-3.66,2.88
			C321.938,242.998,320.331,243.332,318.598,243.332z M318.998,241.732c1.546,0,2.973-0.287,4.279-0.86s2.28-1.353,2.92-2.34
			c0.453-0.533,0.681-1.066,0.681-1.601v-3.68c-2.027-0.746-4.107-1.119-6.24-1.119c-2.08,0-3.76,0.426-5.04,1.279
			s-1.92,1.974-1.92,3.359c0,0.694,0.133,1.348,0.4,1.961c0.266,0.613,0.64,1.14,1.119,1.58c0.48,0.439,1.047,0.787,1.7,1.039
			C317.551,241.605,318.251,241.732,318.998,241.732z"/>
		<path fill="#FFFFFF" d="M333.598,232.452c0-1.466,0.253-2.853,0.76-4.16c0.506-1.306,1.22-2.44,2.14-3.399
			c0.92-0.961,2.007-1.721,3.26-2.28c1.254-0.56,2.627-0.841,4.12-0.841c1.894,0,3.554,0.428,4.98,1.281
			c1.426,0.854,2.513,2.039,3.26,3.56l-1.96,0.64c-0.613-1.146-1.494-2.046-2.64-2.699c-1.147-0.654-2.4-0.98-3.761-0.98
			c-1.146,0-2.213,0.227-3.199,0.68c-0.987,0.454-1.848,1.08-2.58,1.881c-0.734,0.799-1.308,1.739-1.721,2.819
			s-0.619,2.247-0.619,3.5c0,1.254,0.22,2.434,0.659,3.54c0.44,1.107,1.026,2.066,1.761,2.88c0.732,0.813,1.593,1.46,2.58,1.94
			c0.985,0.479,2.039,0.72,3.159,0.72c0.721,0,1.434-0.106,2.141-0.32c0.706-0.213,1.359-0.493,1.96-0.84
			c0.6-0.347,1.12-0.753,1.56-1.22c0.44-0.467,0.74-0.953,0.9-1.461l1.96,0.561c-0.267,0.721-0.674,1.395-1.22,2.02
			c-0.547,0.627-1.194,1.168-1.94,1.621c-0.747,0.453-1.566,0.807-2.46,1.06s-1.82,0.38-2.78,0.38c-1.467,0-2.826-0.287-4.08-0.859
			c-1.254-0.574-2.34-1.36-3.26-2.36s-1.646-2.153-2.18-3.46C333.863,235.346,333.598,233.945,333.598,232.452z"/>
		<path fill="#FFFFFF" d="M373.837,242.932h-2v-11.6c0-2.586-0.439-4.52-1.32-5.8c-0.88-1.28-2.159-1.92-3.84-1.92
			c-0.854,0-1.693,0.159-2.52,0.479c-0.827,0.32-1.594,0.773-2.3,1.36c-0.707,0.587-1.327,1.274-1.86,2.06
			c-0.534,0.787-0.92,1.635-1.16,2.541v12.879h-2v-29.199h2v13.359c0.854-1.626,2.033-2.92,3.54-3.88s3.126-1.44,4.86-1.44
			c1.146,0,2.133,0.215,2.96,0.641c0.826,0.427,1.513,1.04,2.06,1.84c0.547,0.801,0.946,1.768,1.2,2.9
			c0.253,1.133,0.38,2.406,0.38,3.82V242.932z"/>
		<path fill="#FFFFFF" d="M289.479,283.572c0,1.04-0.2,2.007-0.601,2.9c-0.399,0.893-0.946,1.674-1.64,2.34
			c-0.694,0.666-1.507,1.187-2.44,1.56c-0.934,0.374-1.92,0.56-2.96,0.56h-13.28v-28.399h13.24c0.986,0,1.88,0.214,2.681,0.64
			c0.8,0.428,1.479,0.98,2.04,1.66c0.56,0.68,0.992,1.453,1.3,2.32c0.306,0.867,0.46,1.74,0.46,2.619c0,1.44-0.36,2.761-1.08,3.961
			c-0.72,1.199-1.72,2.08-3,2.64c1.626,0.479,2.913,1.38,3.859,2.7S289.479,281.893,289.479,283.572z M270.598,264.372v11.36h10.4
			c0.773,0,1.48-0.16,2.12-0.48s1.193-0.74,1.66-1.26c0.466-0.52,0.833-1.127,1.1-1.82s0.4-1.4,0.4-2.119
			c0-0.773-0.127-1.5-0.38-2.181c-0.254-0.681-0.601-1.28-1.04-1.8c-0.44-0.52-0.967-0.934-1.58-1.24
			c-0.614-0.307-1.294-0.46-2.04-0.46H270.598z M287.438,283.292c0-0.746-0.134-1.474-0.4-2.18s-0.64-1.333-1.12-1.88
			c-0.479-0.547-1.047-0.98-1.7-1.301c-0.653-0.319-1.354-0.479-2.1-0.479h-11.521v11.64h11.24c0.8,0,1.54-0.16,2.22-0.479
			c0.681-0.32,1.267-0.753,1.761-1.3c0.493-0.547,0.886-1.166,1.18-1.86C287.291,284.759,287.438,284.039,287.438,283.292z"/>
		<path fill="#FFFFFF" d="M295.157,290.932v-28.359h2.04v28.359H295.157z"/>
		<path fill="#FFFFFF" d="M304.718,290.932v-28.399h9.44c2.239,0,4.206,0.374,5.899,1.12s3.101,1.76,4.22,3.039
			c1.12,1.281,1.96,2.781,2.521,4.5c0.56,1.721,0.84,3.555,0.84,5.5c0,2.16-0.313,4.114-0.939,5.861
			c-0.627,1.746-1.527,3.239-2.7,4.479c-1.174,1.239-2.594,2.2-4.261,2.88c-1.666,0.68-3.526,1.02-5.579,1.02H304.718z
			 M325.598,276.691c0-1.785-0.254-3.433-0.76-4.939c-0.507-1.506-1.247-2.807-2.22-3.9c-0.975-1.093-2.167-1.945-3.58-2.56
			c-1.414-0.612-3.04-0.92-4.88-0.92h-7.4v24.72h7.4c1.866,0,3.513-0.312,4.939-0.939s2.62-1.5,3.58-2.62s1.687-2.433,2.18-3.94
			C325.351,280.086,325.598,278.452,325.598,276.691z"/>
	</g>
</g>
</svg>
