<?xml version="1.0" encoding="utf-8"?>
<!-- Generator: Adobe Illustrator 17.0.0, SVG Export Plug-In . SVG Version: 6.00 Build 0)  -->
<!DOCTYPE svg PUBLIC "-//W3C//DTD SVG 1.1//EN" "http://www.w3.org/Graphics/SVG/1.1/DTD/svg11.dtd">
<svg version="1.1" id="Layer_1" xmlns="http://www.w3.org/2000/svg" xmlns:xlink="http://www.w3.org/1999/xlink" x="0px" y="0px"
	 width="600px" height="374px" viewBox="0 0 600 374" enable-background="new 0 0 600 374" xml:space="preserve">
<path fill="#63328A" d="M556.5,174.496c0,4.697-3.807,8.504-8.504,8.504H52.004c-4.697,0-8.504-3.807-8.504-8.504V72.504
	c0-4.697,3.807-8.504,8.504-8.504h495.992c4.697,0,8.504,3.807,8.504,8.504V174.496z"/>
<path fill="#9A9999" d="M556.572,301.496c0,4.697-3.807,8.504-8.504,8.504H52.076c-4.697,0-8.504-3.807-8.504-8.504V199.504
	c0-4.697,3.807-8.504,8.504-8.504h495.992c4.697,0,8.504,3.807,8.504,8.504V301.496z"/>
<g>
	<g>
		<path fill="#FFFFFF" d="M238.282,132.121c1.88,0.364,3.595,1.017,5.142,1.957c1.547,0.941,2.88,2.124,4.004,3.549
			c1.122,1.426,1.986,3.064,2.593,4.914c0.606,1.851,0.91,3.837,0.91,5.96c0,2.852-0.577,5.415-1.729,7.689
			c-1.153,2.275-2.807,4.216-4.959,5.824c-2.154,1.606-4.748,2.851-7.78,3.731c-3.035,0.878-6.431,1.319-10.192,1.319
			c-9.161,0-16.35-2.7-21.567-8.099l7.826-10.374c1.577,1.699,3.427,2.989,5.551,3.868c2.123,0.88,4.641,1.319,7.553,1.319
			c6.793,0,10.192-2.517,10.192-7.553c0-2.73-1.017-4.792-3.048-6.188c-2.033-1.395-5.232-2.093-9.601-2.093h-2.639V127.48h3.003
			c3.336,0,5.96-0.697,7.872-2.093c1.911-1.395,2.867-3.245,2.867-5.551c0-2.002-0.698-3.518-2.093-4.55
			c-1.396-1.031-3.246-1.547-5.551-1.547c-2.488,0-4.748,0.592-6.78,1.775c-2.033,1.183-3.747,2.866-5.141,5.05l-9.191-10.556
			c0.969-1.274,2.259-2.457,3.867-3.549c1.607-1.092,3.413-2.016,5.415-2.775c2.002-0.758,4.155-1.35,6.461-1.774
			c2.305-0.424,4.641-0.637,7.007-0.637c3.215,0,6.156,0.38,8.827,1.138c2.669,0.759,4.959,1.851,6.871,3.276
			c1.911,1.426,3.381,3.125,4.414,5.096c1.031,1.972,1.547,4.172,1.547,6.598c0,1.82-0.289,3.549-0.864,5.187
			c-0.578,1.638-1.381,3.125-2.412,4.459c-1.032,1.335-2.261,2.443-3.686,3.322C241.542,131.227,239.98,131.818,238.282,132.121z"/>
		<path fill="#FFFFFF" d="M305.895,127.025c0,4.004-0.607,7.689-1.82,11.057c-1.214,3.367-2.882,6.279-5.004,8.736
			c-2.125,2.457-4.641,4.368-7.553,5.733c-2.912,1.365-6.067,2.048-9.464,2.048c-3.398,0-6.538-0.683-9.418-2.048
			c-2.882-1.365-5.385-3.276-7.507-5.733c-2.125-2.457-3.792-5.369-5.005-8.736c-1.214-3.367-1.82-7.053-1.82-11.057
			s0.605-7.689,1.82-11.057c1.213-3.367,2.881-6.279,5.005-8.736c2.123-2.457,4.625-4.382,7.507-5.778
			c2.881-1.395,6.02-2.093,9.418-2.093c3.397,0,6.552,0.698,9.464,2.093c2.912,1.396,5.429,3.321,7.553,5.778
			c2.123,2.457,3.791,5.369,5.004,8.736C305.287,119.335,305.895,123.021,305.895,127.025z M291.153,127.025
			c0-4.246-0.851-7.689-2.548-10.329c-1.699-2.639-3.883-3.958-6.552-3.958c-2.73,0-4.945,1.32-6.643,3.958
			c-1.699,2.639-2.548,6.083-2.548,10.329c0,4.247,0.849,7.675,2.548,10.283c1.698,2.609,3.913,3.913,6.643,3.913
			c2.669,0,4.853-1.304,6.552-3.913C290.302,134.7,291.153,131.272,291.153,127.025z"/>
		<path fill="#FFFFFF" d="M361.768,127.025c0,4.004-0.606,7.689-1.819,11.057c-1.215,3.367-2.883,6.279-5.005,8.736
			c-2.125,2.457-4.642,4.368-7.554,5.733c-2.912,1.365-6.066,2.048-9.464,2.048c-3.398,0-6.537-0.683-9.418-2.048
			c-2.883-1.365-5.385-3.276-7.508-5.733c-2.124-2.457-3.792-5.369-5.005-8.736c-1.215-3.367-1.82-7.053-1.82-11.057
			s0.605-7.689,1.82-11.057c1.213-3.367,2.881-6.279,5.005-8.736c2.123-2.457,4.625-4.382,7.508-5.778
			c2.881-1.395,6.02-2.093,9.418-2.093c3.397,0,6.552,0.698,9.464,2.093c2.912,1.396,5.429,3.321,7.554,5.778
			c2.122,2.457,3.79,5.369,5.005,8.736C361.161,119.335,361.768,123.021,361.768,127.025z M347.026,127.025
			c0-4.246-0.851-7.689-2.549-10.329c-1.698-2.639-3.883-3.958-6.552-3.958c-2.729,0-4.945,1.32-6.643,3.958
			c-1.699,2.639-2.548,6.083-2.548,10.329c0,4.247,0.849,7.675,2.548,10.283c1.697,2.609,3.913,3.913,6.643,3.913
			c2.669,0,4.854-1.304,6.552-3.913C346.176,134.7,347.026,131.272,347.026,127.025z"/>
		<path fill="#FFFFFF" d="M400.352,115.559v11.648h-8.554v9.464h-13.104v-9.464h-8.646v-11.648h8.646v-9.464h13.104v9.464H400.352z"
			/>
	</g>
</g>
<g>
	<g>
		<path fill="#FFFFFF" d="M190.259,242.933v-28.4h2.04v26.561h16.96v1.84H190.259z"/>
		<path fill="#FFFFFF" d="M222.099,243.332c-1.467,0-2.826-0.286-4.08-0.859c-1.253-0.573-2.34-1.36-3.26-2.36
			s-1.64-2.153-2.16-3.46c-0.52-1.307-0.779-2.706-0.779-4.2c0-1.466,0.26-2.846,0.779-4.14c0.521-1.293,1.233-2.427,2.141-3.4
			c0.906-0.973,1.986-1.739,3.239-2.3c1.254-0.56,2.601-0.84,4.04-0.84c1.467,0,2.82,0.287,4.061,0.86s2.312,1.347,3.22,2.319
			c0.906,0.974,1.62,2.107,2.14,3.4c0.521,1.294,0.78,2.66,0.78,4.1c0,0.134-0.007,0.3-0.02,0.5c-0.014,0.2-0.021,0.327-0.021,0.38
			h-18.28c0.08,1.2,0.36,2.314,0.841,3.341c0.479,1.026,1.086,1.913,1.819,2.659c0.733,0.747,1.58,1.334,2.54,1.761
			s1.986,0.64,3.08,0.64c0.72,0,1.434-0.1,2.141-0.3c0.706-0.2,1.359-0.474,1.96-0.82c0.6-0.346,1.133-0.767,1.6-1.26
			c0.466-0.493,0.833-1.033,1.1-1.62l1.761,0.479c-0.32,0.747-0.768,1.435-1.341,2.061c-0.573,0.627-1.239,1.167-2,1.62
			c-0.76,0.453-1.594,0.807-2.5,1.06S223.059,243.332,222.099,243.332z M230.259,231.732c-0.08-1.227-0.354-2.347-0.82-3.36
			c-0.467-1.013-1.066-1.886-1.8-2.62c-0.733-0.732-1.58-1.306-2.54-1.72c-0.96-0.413-1.986-0.62-3.08-0.62s-2.12,0.207-3.08,0.62
			c-0.96,0.414-1.807,0.987-2.54,1.72c-0.733,0.734-1.319,1.614-1.76,2.641c-0.439,1.026-0.7,2.14-0.779,3.34H230.259z"/>
		<path fill="#FFFFFF" d="M242.379,242.933l-8.681-20.8h2.12l7.641,18.8l7.72-18.8h1.96l-8.68,20.8H242.379z"/>
		<path fill="#FFFFFF" d="M258.458,250.013c0.24,0,0.594-0.014,1.061-0.04c0.466-0.027,0.819-0.107,1.06-0.24
			c0.106-0.054,0.233-0.18,0.38-0.38s0.34-0.54,0.58-1.021c0.24-0.479,0.547-1.153,0.92-2.02c0.373-0.867,0.84-1.994,1.4-3.38
			l-9.28-20.8h2.12l8.24,18.84l7.72-18.84h1.96l-11.4,27.359c-0.399,0.96-0.927,1.594-1.579,1.9c-0.654,0.306-1.447,0.46-2.381,0.46
			c-0.134,0-0.267,0-0.399,0c-0.134,0-0.267-0.014-0.4-0.04V250.013z"/>
		<path fill="#FFFFFF" d="M298.178,243.332c-1.787,0-3.374-0.473-4.76-1.42c-1.387-0.946-2.507-2.1-3.36-3.46v13h-2v-29.319h1.8
			v4.159c0.854-1.333,1.986-2.42,3.4-3.26c1.413-0.84,2.92-1.26,4.52-1.26c1.44,0,2.767,0.307,3.98,0.92
			c1.213,0.613,2.26,1.42,3.14,2.42s1.566,2.154,2.061,3.46c0.493,1.307,0.74,2.64,0.74,4c0,1.44-0.228,2.813-0.681,4.12
			s-1.1,2.454-1.939,3.44c-0.841,0.986-1.848,1.767-3.021,2.34C300.884,243.046,299.591,243.332,298.178,243.332z M297.737,241.532
			c1.2,0,2.287-0.253,3.261-0.76c0.973-0.506,1.806-1.18,2.5-2.021c0.692-0.84,1.226-1.8,1.6-2.88c0.373-1.08,0.561-2.18,0.561-3.3
			c0-1.2-0.214-2.34-0.641-3.42s-1.014-2.033-1.76-2.86c-0.747-0.826-1.627-1.486-2.64-1.979c-1.014-0.493-2.094-0.74-3.24-0.74
			c-0.72,0-1.494,0.154-2.32,0.46c-0.827,0.307-1.6,0.72-2.32,1.24c-0.72,0.52-1.326,1.113-1.819,1.78
			c-0.494,0.667-0.78,1.373-0.86,2.12v6.84c0.32,0.773,0.746,1.493,1.28,2.16c0.533,0.666,1.133,1.253,1.8,1.76
			c0.666,0.507,1.394,0.899,2.18,1.18C296.104,241.393,296.911,241.532,297.737,241.532z"/>
		<path fill="#FFFFFF" d="M317.657,243.332c-0.96,0-1.86-0.167-2.7-0.5s-1.573-0.786-2.2-1.359s-1.113-1.253-1.46-2.04
			c-0.347-0.786-0.52-1.634-0.52-2.54s0.213-1.733,0.64-2.48c0.427-0.746,1.026-1.393,1.8-1.939s1.687-0.974,2.74-1.28
			s2.22-0.46,3.5-0.46c1.12,0,2.253,0.1,3.4,0.3c1.146,0.2,2.173,0.474,3.08,0.82v-2.04c0-1.974-0.561-3.54-1.681-4.7
			c-1.119-1.16-2.64-1.74-4.56-1.74c-1.04,0-2.127,0.214-3.26,0.641c-1.134,0.427-2.274,1.04-3.42,1.84l-0.801-1.36
			c2.693-1.812,5.227-2.72,7.601-2.72c2.506,0,4.486,0.727,5.939,2.18c1.453,1.454,2.181,3.46,2.181,6.021v10.16
			c0,0.666,0.279,1,0.84,1v1.8c-0.134,0.026-0.26,0.04-0.38,0.04s-0.234,0-0.34,0c-0.48,0-0.92-0.167-1.32-0.5s-0.6-0.767-0.6-1.3
			v-1.721c-0.961,1.254-2.181,2.214-3.66,2.88C320.997,242.999,319.391,243.332,317.657,243.332z M318.058,241.732
			c1.546,0,2.973-0.286,4.279-0.86c1.307-0.573,2.28-1.353,2.92-2.34c0.453-0.533,0.681-1.066,0.681-1.6v-3.681
			c-2.027-0.746-4.107-1.119-6.24-1.119c-2.08,0-3.76,0.427-5.04,1.279c-1.28,0.854-1.92,1.974-1.92,3.36
			c0,0.693,0.133,1.347,0.4,1.96c0.266,0.613,0.64,1.14,1.119,1.58c0.48,0.439,1.047,0.787,1.7,1.04
			C316.61,241.606,317.311,241.732,318.058,241.732z"/>
		<path fill="#FFFFFF" d="M334.817,250.013c0.239,0,0.593-0.014,1.06-0.04c0.467-0.027,0.82-0.107,1.061-0.24
			c0.105-0.054,0.232-0.18,0.38-0.38c0.146-0.2,0.34-0.54,0.58-1.021c0.239-0.479,0.546-1.153,0.92-2.02
			c0.373-0.867,0.84-1.994,1.399-3.38l-9.279-20.8h2.119l8.24,18.84l7.721-18.84h1.96l-11.4,27.359c-0.4,0.96-0.927,1.594-1.58,1.9
			c-0.653,0.306-1.447,0.46-2.38,0.46c-0.134,0-0.267,0-0.4,0s-0.267-0.014-0.399-0.04V250.013z"/>
		<path fill="#FFFFFF" d="M363.937,243.332c-1.467,0-2.826-0.286-4.08-0.859c-1.253-0.573-2.34-1.36-3.26-2.36
			s-1.64-2.153-2.16-3.46c-0.52-1.307-0.779-2.706-0.779-4.2c0-1.466,0.26-2.846,0.779-4.14c0.521-1.293,1.233-2.427,2.141-3.4
			c0.906-0.973,1.986-1.739,3.239-2.3c1.254-0.56,2.601-0.84,4.04-0.84c1.467,0,2.82,0.287,4.061,0.86s2.312,1.347,3.22,2.319
			c0.906,0.974,1.62,2.107,2.14,3.4c0.521,1.294,0.78,2.66,0.78,4.1c0,0.134-0.007,0.3-0.02,0.5c-0.014,0.2-0.021,0.327-0.021,0.38
			h-18.28c0.08,1.2,0.36,2.314,0.841,3.341c0.479,1.026,1.086,1.913,1.819,2.659c0.733,0.747,1.58,1.334,2.54,1.761
			s1.986,0.64,3.08,0.64c0.72,0,1.434-0.1,2.141-0.3c0.706-0.2,1.359-0.474,1.96-0.82c0.6-0.346,1.133-0.767,1.6-1.26
			c0.466-0.493,0.833-1.033,1.1-1.62l1.761,0.479c-0.32,0.747-0.768,1.435-1.341,2.061c-0.573,0.627-1.239,1.167-2,1.62
			c-0.76,0.453-1.594,0.807-2.5,1.06S364.896,243.332,363.937,243.332z M372.097,231.732c-0.08-1.227-0.354-2.347-0.82-3.36
			c-0.467-1.013-1.066-1.886-1.8-2.62c-0.733-0.732-1.58-1.306-2.54-1.72c-0.96-0.413-1.986-0.62-3.08-0.62s-2.12,0.207-3.08,0.62
			c-0.96,0.414-1.807,0.987-2.54,1.72c-0.733,0.734-1.319,1.614-1.76,2.641c-0.439,1.026-0.7,2.14-0.779,3.34H372.097z"/>
		<path fill="#FFFFFF" d="M388.257,223.933c-1.894,0.054-3.534,0.606-4.92,1.66c-1.387,1.054-2.36,2.5-2.92,4.34v13h-2v-20.8h1.88
			v5.119c0.72-1.466,1.673-2.659,2.859-3.579c1.187-0.921,2.46-1.446,3.82-1.58c0.267,0,0.507-0.007,0.72-0.021
			c0.214-0.013,0.4-0.02,0.561-0.02V223.933z"/>
		<path fill="#FFFFFF" d="M398.456,243.332c-1.6,0-3.134-0.267-4.6-0.8c-1.467-0.533-2.747-1.333-3.841-2.399l1-1.36
			c1.12,1.014,2.28,1.76,3.48,2.24c1.2,0.479,2.52,0.72,3.96,0.72c1.813,0,3.273-0.38,4.38-1.14c1.106-0.761,1.66-1.82,1.66-3.181
			c0-0.64-0.14-1.18-0.42-1.62c-0.28-0.439-0.7-0.812-1.26-1.119c-0.561-0.307-1.254-0.58-2.08-0.82
			c-0.827-0.24-1.787-0.493-2.88-0.76c-1.174-0.267-2.194-0.533-3.061-0.801c-0.866-0.266-1.58-0.586-2.14-0.96
			c-0.561-0.373-0.98-0.826-1.26-1.359c-0.28-0.533-0.42-1.214-0.42-2.04c0-1.04,0.199-1.946,0.6-2.721
			c0.4-0.772,0.953-1.413,1.66-1.92c0.706-0.506,1.52-0.886,2.439-1.14c0.92-0.253,1.9-0.38,2.94-0.38
			c1.626,0,3.066,0.273,4.32,0.82c1.253,0.547,2.226,1.246,2.92,2.1l-1.12,1.08c-0.694-0.8-1.594-1.4-2.7-1.8
			c-1.106-0.4-2.287-0.601-3.54-0.601c-0.773,0-1.5,0.08-2.18,0.24c-0.681,0.16-1.274,0.414-1.78,0.76
			c-0.507,0.348-0.907,0.794-1.2,1.34c-0.294,0.547-0.439,1.194-0.439,1.94c0,0.614,0.1,1.106,0.3,1.48
			c0.2,0.373,0.52,0.693,0.96,0.96c0.439,0.267,1.006,0.5,1.7,0.699c0.692,0.2,1.52,0.42,2.479,0.66
			c1.307,0.32,2.467,0.627,3.48,0.92c1.013,0.294,1.859,0.654,2.54,1.08c0.68,0.427,1.199,0.934,1.56,1.521s0.54,1.333,0.54,2.239
			c0,1.867-0.727,3.354-2.18,4.461C402.822,242.779,400.883,243.332,398.456,243.332z"/>
		<path fill="#FFFFFF" d="M159.521,290.933h-2v-11.601c0-2.586-0.44-4.52-1.32-5.8s-2.16-1.92-3.84-1.92
			c-0.854,0-1.694,0.16-2.521,0.48c-0.826,0.319-1.594,0.773-2.3,1.359c-0.707,0.587-1.327,1.274-1.859,2.061
			c-0.534,0.786-0.921,1.634-1.16,2.54v12.88h-2v-29.2h2v13.36c0.853-1.627,2.033-2.92,3.54-3.881
			c1.506-0.96,3.126-1.439,4.859-1.439c1.146,0,2.134,0.214,2.96,0.64c0.826,0.427,1.514,1.04,2.061,1.84
			c0.546,0.801,0.946,1.768,1.2,2.9c0.253,1.134,0.38,2.407,0.38,3.82V290.933z"/>
		<path fill="#FFFFFF" d="M170.601,291.332c-0.961,0-1.86-0.167-2.7-0.5s-1.574-0.786-2.2-1.359c-0.627-0.573-1.114-1.253-1.46-2.04
			c-0.347-0.786-0.521-1.634-0.521-2.54s0.214-1.733,0.641-2.48c0.426-0.746,1.026-1.393,1.8-1.939s1.687-0.974,2.74-1.28
			c1.053-0.307,2.22-0.46,3.5-0.46c1.12,0,2.253,0.1,3.399,0.3s2.174,0.474,3.08,0.82v-2.04c0-1.974-0.56-3.54-1.68-4.7
			s-2.64-1.74-4.561-1.74c-1.039,0-2.126,0.214-3.26,0.641s-2.273,1.04-3.42,1.84l-0.8-1.36c2.693-1.812,5.227-2.72,7.6-2.72
			c2.507,0,4.486,0.727,5.94,2.18c1.453,1.454,2.18,3.46,2.18,6.021v10.16c0,0.666,0.28,1,0.84,1v1.8
			c-0.134,0.026-0.26,0.04-0.38,0.04s-0.233,0-0.34,0c-0.479,0-0.92-0.167-1.32-0.5c-0.399-0.333-0.6-0.767-0.6-1.3v-1.721
			c-0.96,1.254-2.18,2.214-3.66,2.88C173.94,290.999,172.333,291.332,170.601,291.332z M171,289.732c1.546,0,2.974-0.286,4.28-0.86
			c1.306-0.573,2.28-1.353,2.92-2.34c0.453-0.533,0.68-1.066,0.68-1.6v-3.681c-2.026-0.746-4.106-1.119-6.24-1.119
			c-2.079,0-3.76,0.427-5.039,1.279c-1.28,0.854-1.921,1.974-1.921,3.36c0,0.693,0.134,1.347,0.4,1.96s0.64,1.14,1.12,1.58
			c0.479,0.439,1.046,0.787,1.7,1.04C169.554,289.606,170.253,289.732,171,289.732z"/>
		<path fill="#FFFFFF" d="M192.72,290.933l-8.681-20.8h2.12l7.641,18.8l7.72-18.8h1.96l-8.68,20.8H192.72z"/>
		<path fill="#FFFFFF" d="M216.239,291.332c-1.467,0-2.827-0.286-4.08-0.859c-1.254-0.573-2.34-1.36-3.26-2.36
			s-1.641-2.153-2.16-3.46c-0.521-1.307-0.78-2.706-0.78-4.2c0-1.466,0.26-2.846,0.78-4.14c0.52-1.293,1.233-2.427,2.14-3.4
			c0.906-0.973,1.986-1.739,3.24-2.3c1.253-0.56,2.6-0.84,4.04-0.84c1.466,0,2.82,0.287,4.06,0.86
			c1.24,0.573,2.313,1.347,3.221,2.319c0.906,0.974,1.619,2.107,2.14,3.4c0.52,1.294,0.78,2.66,0.78,4.1
			c0,0.134-0.007,0.3-0.021,0.5s-0.02,0.327-0.02,0.38h-18.28c0.08,1.2,0.36,2.314,0.84,3.341c0.48,1.026,1.086,1.913,1.82,2.659
			c0.733,0.747,1.58,1.334,2.54,1.761s1.986,0.64,3.08,0.64c0.72,0,1.433-0.1,2.14-0.3c0.706-0.2,1.36-0.474,1.96-0.82
			c0.601-0.346,1.133-0.767,1.601-1.26c0.466-0.493,0.833-1.033,1.1-1.62l1.76,0.479c-0.32,0.747-0.767,1.435-1.34,2.061
			c-0.574,0.627-1.24,1.167-2,1.62s-1.594,0.807-2.5,1.06C218.132,291.205,217.199,291.332,216.239,291.332z M224.399,279.732
			c-0.08-1.227-0.354-2.347-0.82-3.36c-0.467-1.013-1.067-1.886-1.8-2.62c-0.734-0.732-1.58-1.306-2.54-1.72
			c-0.96-0.413-1.987-0.62-3.08-0.62c-1.094,0-2.12,0.207-3.08,0.62c-0.96,0.414-1.807,0.987-2.54,1.72
			c-0.733,0.734-1.32,1.614-1.76,2.641c-0.44,1.026-0.7,2.14-0.78,3.34H224.399z"/>
		<path fill="#FFFFFF" d="M251.278,291.332c-1.787,0-3.374-0.473-4.76-1.42c-1.387-0.946-2.507-2.1-3.36-3.46v13h-2v-29.319h1.8
			v4.159c0.854-1.333,1.986-2.42,3.4-3.26c1.413-0.84,2.92-1.26,4.52-1.26c1.44,0,2.767,0.307,3.98,0.92
			c1.213,0.613,2.26,1.42,3.14,2.42s1.566,2.154,2.061,3.46c0.493,1.307,0.74,2.64,0.74,4c0,1.44-0.228,2.813-0.681,4.12
			s-1.1,2.454-1.939,3.44c-0.841,0.986-1.848,1.767-3.021,2.34C253.984,291.046,252.691,291.332,251.278,291.332z M250.838,289.532
			c1.2,0,2.287-0.253,3.261-0.76c0.973-0.506,1.806-1.18,2.5-2.021c0.692-0.84,1.226-1.8,1.6-2.88c0.373-1.08,0.561-2.18,0.561-3.3
			c0-1.2-0.214-2.34-0.641-3.42s-1.014-2.033-1.76-2.86c-0.747-0.826-1.627-1.486-2.64-1.979c-1.014-0.493-2.094-0.74-3.24-0.74
			c-0.72,0-1.494,0.154-2.32,0.46c-0.827,0.307-1.6,0.72-2.32,1.24c-0.72,0.52-1.326,1.113-1.819,1.78
			c-0.494,0.667-0.78,1.373-0.86,2.12v6.84c0.32,0.773,0.746,1.493,1.28,2.16c0.533,0.666,1.133,1.253,1.8,1.76
			c0.666,0.507,1.394,0.899,2.18,1.18C249.205,289.393,250.012,289.532,250.838,289.532z"/>
		<path fill="#FFFFFF" d="M270.759,291.332c-0.961,0-1.86-0.167-2.7-0.5s-1.574-0.786-2.2-1.359c-0.627-0.573-1.114-1.253-1.46-2.04
			c-0.347-0.786-0.521-1.634-0.521-2.54s0.214-1.733,0.641-2.48c0.426-0.746,1.026-1.393,1.8-1.939s1.687-0.974,2.74-1.28
			c1.053-0.307,2.22-0.46,3.5-0.46c1.12,0,2.253,0.1,3.399,0.3s2.174,0.474,3.08,0.82v-2.04c0-1.974-0.56-3.54-1.68-4.7
			s-2.64-1.74-4.561-1.74c-1.039,0-2.126,0.214-3.26,0.641s-2.273,1.04-3.42,1.84l-0.8-1.36c2.693-1.812,5.227-2.72,7.6-2.72
			c2.507,0,4.486,0.727,5.94,2.18c1.453,1.454,2.18,3.46,2.18,6.021v10.16c0,0.666,0.28,1,0.84,1v1.8
			c-0.134,0.026-0.26,0.04-0.38,0.04s-0.233,0-0.34,0c-0.479,0-0.92-0.167-1.32-0.5c-0.399-0.333-0.6-0.767-0.6-1.3v-1.721
			c-0.96,1.254-2.18,2.214-3.66,2.88C274.099,290.999,272.491,291.332,270.759,291.332z M271.158,289.732
			c1.546,0,2.974-0.286,4.28-0.86c1.306-0.573,2.28-1.353,2.92-2.34c0.453-0.533,0.68-1.066,0.68-1.6v-3.681
			c-2.026-0.746-4.106-1.119-6.24-1.119c-2.079,0-3.76,0.427-5.039,1.279c-1.28,0.854-1.921,1.974-1.921,3.36
			c0,0.693,0.134,1.347,0.4,1.96s0.64,1.14,1.12,1.58c0.479,0.439,1.046,0.787,1.7,1.04
			C269.712,289.606,270.411,289.732,271.158,289.732z"/>
		<path fill="#FFFFFF" d="M296.997,271.933c-1.894,0.054-3.533,0.606-4.92,1.66s-2.359,2.5-2.92,4.34v13h-2v-20.8h1.88v5.119
			c0.721-1.466,1.674-2.659,2.86-3.579c1.187-0.921,2.46-1.446,3.82-1.58c0.266,0,0.506-0.007,0.72-0.021
			c0.213-0.013,0.399-0.02,0.56-0.02V271.933z"/>
		<path fill="#FFFFFF" d="M310.157,289.933c-0.107,0.054-0.287,0.153-0.54,0.3c-0.254,0.146-0.574,0.287-0.96,0.42
			c-0.387,0.134-0.82,0.254-1.3,0.36c-0.48,0.105-1,0.16-1.561,0.16c-0.56,0-1.087-0.08-1.58-0.24s-0.927-0.4-1.3-0.721
			c-0.374-0.319-0.674-0.706-0.9-1.159s-0.34-0.986-0.34-1.601v-15.68h-2.92v-1.64h2.92v-7.12h2v7.12h4.88v1.64h-4.88v15.2
			c0,0.773,0.267,1.354,0.8,1.739c0.533,0.388,1.146,0.58,1.841,0.58c0.826,0,1.54-0.14,2.14-0.42c0.6-0.279,0.966-0.46,1.1-0.54
			L310.157,289.933z"/>
		<path fill="#FFFFFF" d="M313.517,265.412v-3.68h2v3.68H313.517z M313.517,290.933v-20.8h2v20.8H313.517z"/>
		<path fill="#FFFFFF" d="M320.277,280.452c0-1.466,0.253-2.853,0.76-4.16c0.506-1.306,1.22-2.439,2.14-3.399s2.007-1.72,3.26-2.28
			c1.254-0.56,2.627-0.84,4.12-0.84c1.894,0,3.554,0.427,4.98,1.28c1.426,0.854,2.513,2.04,3.26,3.56l-1.96,0.64
			c-0.613-1.146-1.494-2.046-2.64-2.699c-1.147-0.653-2.4-0.98-3.761-0.98c-1.146,0-2.213,0.227-3.199,0.68
			c-0.987,0.454-1.848,1.08-2.58,1.881c-0.734,0.8-1.308,1.739-1.721,2.819s-0.619,2.247-0.619,3.5c0,1.254,0.22,2.434,0.659,3.54
			c0.44,1.107,1.026,2.067,1.761,2.88c0.732,0.814,1.593,1.46,2.58,1.94c0.985,0.479,2.039,0.72,3.159,0.72
			c0.721,0,1.434-0.106,2.141-0.32c0.706-0.213,1.359-0.492,1.96-0.84c0.6-0.346,1.12-0.753,1.56-1.22
			c0.44-0.466,0.74-0.953,0.9-1.46l1.96,0.56c-0.267,0.721-0.674,1.395-1.22,2.021c-0.547,0.627-1.194,1.167-1.94,1.62
			c-0.747,0.453-1.566,0.807-2.46,1.06s-1.82,0.38-2.78,0.38c-1.467,0-2.826-0.286-4.08-0.859s-2.34-1.36-3.26-2.36
			s-1.646-2.153-2.18-3.46C320.543,283.346,320.277,281.946,320.277,280.452z"/>
		<path fill="#FFFFFF" d="M343.517,265.412v-3.68h2v3.68H343.517z M343.517,290.933v-20.8h2v20.8H343.517z"/>
		<path fill="#FFFFFF" d="M361.796,291.332c-1.787,0-3.374-0.473-4.76-1.42c-1.387-0.946-2.507-2.1-3.36-3.46v13h-2v-29.319h1.8
			v4.159c0.854-1.333,1.986-2.42,3.4-3.26c1.413-0.84,2.92-1.26,4.52-1.26c1.44,0,2.767,0.307,3.98,0.92
			c1.213,0.613,2.26,1.42,3.14,2.42s1.566,2.154,2.061,3.46c0.493,1.307,0.74,2.64,0.74,4c0,1.44-0.228,2.813-0.681,4.12
			s-1.1,2.454-1.939,3.44c-0.841,0.986-1.848,1.767-3.021,2.34C364.502,291.046,363.209,291.332,361.796,291.332z M361.355,289.532
			c1.2,0,2.287-0.253,3.261-0.76c0.973-0.506,1.806-1.18,2.5-2.021c0.692-0.84,1.226-1.8,1.6-2.88c0.373-1.08,0.561-2.18,0.561-3.3
			c0-1.2-0.214-2.34-0.641-3.42s-1.014-2.033-1.76-2.86c-0.747-0.826-1.627-1.486-2.64-1.979c-1.014-0.493-2.094-0.74-3.24-0.74
			c-0.72,0-1.494,0.154-2.32,0.46c-0.827,0.307-1.6,0.72-2.32,1.24c-0.72,0.52-1.326,1.113-1.819,1.78
			c-0.494,0.667-0.78,1.373-0.86,2.12v6.84c0.32,0.773,0.746,1.493,1.28,2.16c0.533,0.666,1.133,1.253,1.8,1.76
			c0.666,0.507,1.394,0.899,2.18,1.18C359.723,289.393,360.529,289.532,361.355,289.532z"/>
		<path fill="#FFFFFF" d="M381.276,291.332c-0.961,0-1.86-0.167-2.7-0.5s-1.574-0.786-2.2-1.359c-0.627-0.573-1.114-1.253-1.46-2.04
			c-0.347-0.786-0.521-1.634-0.521-2.54s0.214-1.733,0.641-2.48c0.426-0.746,1.026-1.393,1.8-1.939s1.687-0.974,2.74-1.28
			c1.053-0.307,2.22-0.46,3.5-0.46c1.12,0,2.253,0.1,3.399,0.3s2.174,0.474,3.08,0.82v-2.04c0-1.974-0.56-3.54-1.68-4.7
			s-2.64-1.74-4.561-1.74c-1.039,0-2.126,0.214-3.26,0.641s-2.273,1.04-3.42,1.84l-0.8-1.36c2.693-1.812,5.227-2.72,7.6-2.72
			c2.507,0,4.486,0.727,5.94,2.18c1.453,1.454,2.18,3.46,2.18,6.021v10.16c0,0.666,0.28,1,0.84,1v1.8
			c-0.134,0.026-0.26,0.04-0.38,0.04s-0.233,0-0.34,0c-0.479,0-0.92-0.167-1.32-0.5c-0.399-0.333-0.6-0.767-0.6-1.3v-1.721
			c-0.96,1.254-2.18,2.214-3.66,2.88C384.616,290.999,383.009,291.332,381.276,291.332z M381.676,289.732
			c1.546,0,2.974-0.286,4.28-0.86c1.306-0.573,2.28-1.353,2.92-2.34c0.453-0.533,0.68-1.066,0.68-1.6v-3.681
			c-2.026-0.746-4.106-1.119-6.24-1.119c-2.079,0-3.76,0.427-5.039,1.279c-1.28,0.854-1.921,1.974-1.921,3.36
			c0,0.693,0.134,1.347,0.4,1.96s0.64,1.14,1.12,1.58c0.479,0.439,1.046,0.787,1.7,1.04
			C380.229,289.606,380.929,289.732,381.676,289.732z"/>
		<path fill="#FFFFFF" d="M406.756,289.933c-0.107,0.054-0.287,0.153-0.54,0.3c-0.254,0.146-0.574,0.287-0.96,0.42
			c-0.387,0.134-0.82,0.254-1.3,0.36c-0.48,0.105-1,0.16-1.561,0.16c-0.56,0-1.087-0.08-1.58-0.24s-0.927-0.4-1.3-0.721
			c-0.374-0.319-0.674-0.706-0.9-1.159s-0.34-0.986-0.34-1.601v-15.68h-2.92v-1.64h2.92v-7.12h2v7.12h4.88v1.64h-4.88v15.2
			c0,0.773,0.267,1.354,0.8,1.739c0.533,0.388,1.146,0.58,1.841,0.58c0.826,0,1.54-0.14,2.14-0.42c0.6-0.279,0.966-0.46,1.1-0.54
			L406.756,289.933z"/>
		<path fill="#FFFFFF" d="M418.995,291.332c-1.467,0-2.826-0.286-4.08-0.859c-1.253-0.573-2.34-1.36-3.26-2.36
			s-1.64-2.153-2.16-3.46c-0.52-1.307-0.779-2.706-0.779-4.2c0-1.466,0.26-2.846,0.779-4.14c0.521-1.293,1.233-2.427,2.141-3.4
			c0.906-0.973,1.986-1.739,3.239-2.3c1.254-0.56,2.601-0.84,4.04-0.84c1.467,0,2.82,0.287,4.061,0.86s2.312,1.347,3.22,2.319
			c0.906,0.974,1.62,2.107,2.14,3.4c0.521,1.294,0.78,2.66,0.78,4.1c0,0.134-0.007,0.3-0.02,0.5c-0.014,0.2-0.021,0.327-0.021,0.38
			h-18.28c0.08,1.2,0.36,2.314,0.841,3.341c0.479,1.026,1.086,1.913,1.819,2.659c0.733,0.747,1.58,1.334,2.54,1.761
			s1.986,0.64,3.08,0.64c0.72,0,1.434-0.1,2.141-0.3c0.706-0.2,1.359-0.474,1.96-0.82c0.6-0.346,1.133-0.767,1.6-1.26
			c0.466-0.493,0.833-1.033,1.1-1.62l1.761,0.479c-0.32,0.747-0.768,1.435-1.341,2.061c-0.573,0.627-1.239,1.167-2,1.62
			c-0.76,0.453-1.594,0.807-2.5,1.06S419.955,291.332,418.995,291.332z M427.155,279.732c-0.08-1.227-0.354-2.347-0.82-3.36
			c-0.467-1.013-1.066-1.886-1.8-2.62c-0.733-0.732-1.58-1.306-2.54-1.72c-0.96-0.413-1.986-0.62-3.08-0.62s-2.12,0.207-3.08,0.62
			c-0.96,0.414-1.807,0.987-2.54,1.72c-0.733,0.734-1.319,1.614-1.76,2.641c-0.439,1.026-0.7,2.14-0.779,3.34H427.155z"/>
		<path fill="#FFFFFF" d="M442.075,291.332c-1.439,0-2.773-0.3-4-0.899c-1.227-0.601-2.287-1.4-3.18-2.4
			c-0.894-1-1.587-2.146-2.08-3.439c-0.494-1.294-0.74-2.634-0.74-4.021c0-1.439,0.24-2.813,0.72-4.12
			c0.48-1.306,1.146-2.453,2-3.439s1.86-1.773,3.021-2.36c1.16-0.586,2.433-0.88,3.82-0.88c0.906,0,1.766,0.134,2.579,0.4
			s1.561,0.619,2.24,1.06c0.681,0.44,1.3,0.954,1.86,1.54c0.56,0.587,1.04,1.214,1.439,1.88v-12.92h2v26.4c0,0.666,0.28,1,0.841,1
			v1.8c-0.134,0.026-0.254,0.04-0.36,0.04c-0.107,0-0.214,0-0.32,0c-0.587,0-1.06-0.187-1.42-0.561
			c-0.359-0.373-0.54-0.786-0.54-1.239v-2.4c-0.854,1.387-1.993,2.494-3.42,3.32S443.621,291.332,442.075,291.332z M442.436,289.532
			c0.72,0,1.493-0.146,2.319-0.439c0.826-0.294,1.601-0.7,2.32-1.221c0.72-0.52,1.326-1.113,1.82-1.779
			c0.493-0.667,0.779-1.387,0.859-2.16v-6.84c-0.293-0.747-0.713-1.46-1.26-2.141c-0.547-0.68-1.167-1.266-1.859-1.76
			c-0.694-0.493-1.44-0.887-2.24-1.18s-1.574-0.44-2.32-0.44c-1.2,0-2.287,0.26-3.26,0.78c-0.974,0.52-1.813,1.2-2.521,2.04
			c-0.706,0.84-1.246,1.8-1.62,2.88c-0.373,1.08-0.56,2.193-0.56,3.34c0,1.2,0.213,2.334,0.64,3.4s1.021,2.014,1.78,2.84
			c0.76,0.827,1.64,1.479,2.64,1.96C440.175,289.292,441.262,289.532,442.436,289.532z"/>
	</g>
</g>
</svg>
