<?xml version="1.0" encoding="utf-8"?>
<!-- Generator: Adobe Illustrator 17.0.0, SVG Export Plug-In . SVG Version: 6.00 Build 0)  -->
<!DOCTYPE svg PUBLIC "-//W3C//DTD SVG 1.1//EN" "http://www.w3.org/Graphics/SVG/1.1/DTD/svg11.dtd">
<svg version="1.1" id="Layer_1" xmlns="http://www.w3.org/2000/svg" xmlns:xlink="http://www.w3.org/1999/xlink" x="0px" y="0px"
	 width="960.211px" height="209.335px" viewBox="0 0 960.211 209.335" enable-background="new 0 0 960.211 209.335"
	 xml:space="preserve">
<circle fill="#9C77B3" cx="103.105" cy="106.23" r="103.105"/>
<circle fill="#9C77B3" cx="480.739" cy="103.105" r="103.105"/>
<circle fill="#9C77B3" cx="857.105" cy="106.23" r="103.105"/>
<g>
	<g>
		<path fill="#FFFFFF" d="M816.25,83.857l8.473,18.053l8.639-18.053h9.857l-13.955,25.916v13.401h-9.082v-13.512l-13.788-25.805
			H816.25z"/>
		<path fill="#FFFFFF" d="M874.118,115.199v7.975h-27.633V83.857h27.134v7.975h-18.053v7.642h15.506v7.365h-15.506v8.361
			L874.118,115.199L874.118,115.199z"/>
		<path fill="#FFFFFF" d="M903.024,95.376c-0.147-0.147-0.554-0.424-1.218-0.831c-0.665-0.405-1.495-0.83-2.492-1.273
			c-0.997-0.442-2.086-0.83-3.268-1.163c-1.182-0.332-2.362-0.498-3.544-0.498c-1.55,0-2.741,0.277-3.571,0.831
			c-0.831,0.554-1.246,1.366-1.246,2.437c0,0.664,0.185,1.218,0.554,1.661c0.368,0.442,0.895,0.84,1.578,1.19
			c0.683,0.352,1.531,0.674,2.548,0.969c1.015,0.296,2.187,0.629,3.516,0.997c1.883,0.518,3.581,1.08,5.095,1.689
			c1.514,0.608,2.806,1.366,3.877,2.27c1.07,0.905,1.891,2.003,2.464,3.294c0.572,1.293,0.858,2.844,0.858,4.652
			c0,2.215-0.415,4.089-1.246,5.62c-0.831,1.532-1.93,2.769-3.295,3.71c-1.366,0.941-2.944,1.625-4.734,2.05
			c-1.791,0.424-3.627,0.637-5.51,0.637c-1.44,0-2.907-0.111-4.402-0.333c-1.495-0.221-2.963-0.544-4.403-0.969
			c-1.439-0.424-2.843-0.932-4.208-1.522c-1.366-0.591-2.622-1.274-3.766-2.049l3.987-7.919c0.184,0.185,0.683,0.535,1.495,1.052
			c0.812,0.518,1.809,1.034,2.99,1.551c1.181,0.518,2.51,0.979,3.987,1.385c1.476,0.406,2.971,0.608,4.485,0.608
			c3.212,0,4.817-0.978,4.817-2.935c0-0.738-0.24-1.348-0.72-1.827c-0.48-0.479-1.145-0.914-1.993-1.302
			c-0.851-0.388-1.847-0.747-2.991-1.08c-1.145-0.332-2.399-0.7-3.766-1.107c-1.809-0.554-3.378-1.153-4.706-1.8
			c-1.329-0.646-2.437-1.392-3.323-2.242c-0.886-0.849-1.542-1.828-1.966-2.936c-0.425-1.107-0.637-2.399-0.637-3.876
			c0-2.067,0.388-3.895,1.163-5.482c0.775-1.587,1.827-2.925,3.156-4.015c1.329-1.089,2.87-1.91,4.624-2.464
			c1.753-0.554,3.608-0.831,5.565-0.831c1.402,0,2.769,0.13,4.098,0.388c1.329,0.259,2.593,0.591,3.793,0.997
			c1.199,0.406,2.335,0.867,3.406,1.384c1.07,0.518,2.029,1.034,2.879,1.551L903.024,95.376z"/>
	</g>
</g>
<path fill="#FFFFFF" d="M480.736,106.44l26.679-26.679h-20.009V53.083h-13.339v26.679h-20.009L480.736,106.44z M504.99,95.525
	l-7.477,7.477l27.106,10.108l-43.88,16.364l-43.88-16.364l27.102-10.108l-7.477-7.477l-29.103,10.915v26.679l53.357,20.009
	l53.357-20.009V106.44L504.99,95.525z"/>
<g>
	<rect x="246.878" y="93.401" fill="#FFFFFF" width="64" height="27"/>
	<g>
		<polygon fill="#FFFFFF" points="300.878,141.801 361.321,106.904 300.878,72 		"/>
	</g>
</g>
<g>
	<rect x="611.878" y="93.401" fill="#FFFFFF" width="64" height="27"/>
	<g>
		<polygon fill="#FFFFFF" points="665.878,141.801 726.321,106.904 665.878,72 		"/>
	</g>
</g>
<g>
	<path fill="#FFFFFF" d="M46.218,96.185c2,0,3.86,0.33,5.58,0.99c1.719,0.66,3.21,1.59,4.47,2.79c1.26,1.2,2.24,2.64,2.94,4.32
		c0.699,1.681,1.05,3.54,1.05,5.58c0,2.16-0.4,4.12-1.2,5.88c-0.801,1.76-1.9,3.271-3.3,4.53c-1.4,1.26-3.06,2.239-4.98,2.94
		c-1.92,0.699-4,1.05-6.24,1.05c-3.12,0-5.91-0.66-8.37-1.98c-2.46-1.319-4.331-3.12-5.61-5.399l4.62-4.801
		c1.16,1.561,2.57,2.801,4.23,3.721c1.66,0.92,3.39,1.38,5.19,1.38c2.16,0,3.93-0.65,5.31-1.95c1.38-1.299,2.07-3.03,2.07-5.189
		c0-2.08-0.651-3.76-1.95-5.041c-1.3-1.28-2.95-1.92-4.95-1.92c-1.32,0-2.55,0.3-3.69,0.9c-1.14,0.6-2.05,1.42-2.73,2.46h-7.02
		c0-0.12,0.08-0.57,0.24-1.35c0.159-0.78,0.36-1.779,0.6-3c0.24-1.22,0.5-2.58,0.78-4.08c0.279-1.5,0.58-3.03,0.9-4.59
		c0.72-3.68,1.52-7.8,2.4-12.36h21v7.32h-15.18l-1.68,9.54c0.48-0.52,1.18-0.939,2.1-1.26
		C43.718,96.345,44.857,96.185,46.218,96.185z"/>
	<path fill="#FFFFFF" d="M70.938,82.725l10.5,20.52l10.68-20.52h8.94l-15.48,27.72v14.88h-8.22v-15l-15.42-27.6H70.938z"/>
	<path fill="#FFFFFF" d="M105.257,125.325v-42.6h18.84c1.959,0,3.77,0.411,5.43,1.23c1.659,0.82,3.09,1.9,4.29,3.24
		c1.2,1.34,2.139,2.86,2.82,4.56c0.68,1.701,1.02,3.411,1.02,5.13c0,2.76-0.69,5.271-2.07,7.53c-1.38,2.261-3.25,3.891-5.61,4.891
		l10.02,16.02h-9.36l-8.94-14.279h-8.16v14.279H105.257z M113.538,103.785h10.38c0.759,0,1.47-0.18,2.13-0.54s1.23-0.849,1.71-1.47
		c0.48-0.62,0.86-1.35,1.14-2.19c0.279-0.84,0.42-1.74,0.42-2.7c0-1-0.16-1.92-0.48-2.76c-0.321-0.84-0.75-1.569-1.29-2.19
		c-0.54-0.62-1.161-1.1-1.86-1.44c-0.7-0.339-1.41-0.51-2.13-0.51h-10.02V103.785z"/>
	<path fill="#FFFFFF" d="M171.137,93.885c-0.28-0.279-0.79-0.66-1.53-1.14c-0.741-0.48-1.641-0.95-2.7-1.41
		c-1.06-0.459-2.21-0.849-3.45-1.17c-1.241-0.319-2.5-0.48-3.78-0.48c-2.28,0-3.98,0.42-5.1,1.26c-1.12,0.84-1.68,2.02-1.68,3.54
		c0,0.88,0.21,1.61,0.63,2.19c0.42,0.58,1.029,1.09,1.83,1.53c0.8,0.441,1.809,0.84,3.03,1.2c1.22,0.36,2.63,0.741,4.23,1.14
		c2.08,0.561,3.97,1.161,5.67,1.8c1.7,0.64,3.14,1.44,4.32,2.4c1.179,0.96,2.089,2.11,2.73,3.45c0.639,1.341,0.96,2.991,0.96,4.95
		c0,2.28-0.43,4.229-1.29,5.85c-0.861,1.62-2.01,2.931-3.45,3.931c-1.44,1-3.12,1.73-5.04,2.189c-1.92,0.46-3.92,0.69-6,0.69
		c-3.2,0-6.36-0.48-9.48-1.44c-3.12-0.96-5.92-2.319-8.4-4.08l3.66-7.14c0.36,0.36,1.01,0.83,1.95,1.41
		c0.939,0.58,2.049,1.16,3.33,1.74c1.28,0.58,2.7,1.07,4.26,1.47c1.56,0.4,3.159,0.6,4.8,0.6c4.56,0,6.84-1.46,6.84-4.38
		c0-0.96-0.261-1.76-0.78-2.4c-0.52-0.639-1.26-1.199-2.22-1.68c-0.96-0.479-2.121-0.92-3.48-1.32c-1.36-0.398-2.88-0.819-4.56-1.26
		c-2.04-0.56-3.81-1.17-5.31-1.83s-2.751-1.43-3.75-2.31c-1-0.879-1.75-1.92-2.25-3.12c-0.501-1.2-0.75-2.62-0.75-4.26
		c0-2.16,0.399-4.08,1.2-5.76c0.8-1.68,1.91-3.08,3.33-4.2c1.419-1.12,3.069-1.97,4.95-2.55c1.879-0.58,3.9-0.87,6.06-0.87
		c3,0,5.76,0.471,8.28,1.41c2.52,0.94,4.719,2.051,6.6,3.33L171.137,93.885z"/>
</g>
</svg>
