<?xml version="1.0" encoding="utf-8"?>
<!-- Generator: Adobe Illustrator 17.0.0, SVG Export Plug-In . SVG Version: 6.00 Build 0)  -->
<!DOCTYPE svg PUBLIC "-//W3C//DTD SVG 1.1//EN" "http://www.w3.org/Graphics/SVG/1.1/DTD/svg11.dtd">
<svg version="1.1" id="Layer_1" xmlns="http://www.w3.org/2000/svg" xmlns:xlink="http://www.w3.org/1999/xlink" x="0px" y="0px"
	 width="278.284px" height="42.183px" viewBox="0 0 278.284 42.183" enable-background="new 0 0 278.284 42.183"
	 xml:space="preserve">
<g>
	<path fill="#FFFFFF" d="M21.078,29.062c0-2.148-0.757-4.012-2.269-5.59c-1.513-1.578-3.343-2.367-5.491-2.367
		c-2.17,0-4.012,0.784-5.524,2.351c-1.513,1.568-2.269,3.436-2.269,5.607v7.596c0,1.513-0.543,2.812-1.628,3.897
		C2.812,41.64,1.513,42.183,0,42.183v-13.12c0-3.639,1.304-6.746,3.913-9.322c2.608-2.576,5.743-3.864,9.404-3.864
		c3.638,0,6.762,1.288,9.371,3.864c2.608,2.575,3.913,5.683,3.913,9.322v13.12c-1.513,0-2.812-0.542-3.897-1.628
		c-1.085-1.085-1.628-2.384-1.628-3.897V29.062z"/>
	<path fill="#FFFFFF" d="M42.451,21.105c-2.17,0-4.006,0.784-5.508,2.351c-1.502,1.568-2.252,3.436-2.252,5.607
		c0,2.17,0.75,4.028,2.252,5.573c1.502,1.546,3.338,2.318,5.508,2.318c2.17,0,4.011-0.772,5.524-2.318
		c1.512-1.545,2.269-3.404,2.269-5.573c0-2.17-0.757-4.039-2.269-5.607C46.463,21.889,44.621,21.105,42.451,21.105 M42.451,15.877
		c3.639,0,6.768,1.288,9.388,3.864c2.619,2.575,3.93,5.683,3.93,9.322c0,3.639-1.31,6.735-3.93,9.289
		c-2.62,2.554-5.749,3.83-9.388,3.83c-3.64,0-6.763-1.276-9.371-3.83c-2.609-2.554-3.913-5.65-3.913-9.289
		c0-3.639,1.304-6.746,3.913-9.322C35.688,17.165,38.812,15.877,42.451,15.877"/>
	<path fill="#FFFFFF" d="M79.477,16.271c0,1.447-0.509,2.68-1.529,3.7c-1.02,1.019-2.253,1.528-3.7,1.528h-5.261v20.683
		c-1.513,0-2.812-0.542-3.897-1.628c-1.085-1.084-1.628-2.384-1.628-3.896V21.499h-5.261c-1.447,0-2.68-0.509-3.699-1.528
		c-1.02-1.019-1.529-2.253-1.529-3.7H79.477z"/>
	<path fill="#FFFFFF" d="M107.361,16.271c0,1.447-0.509,2.68-1.529,3.7c-1.02,1.019-2.253,1.528-3.7,1.528h-5.261v20.683
		c-1.513,0-2.812-0.542-3.897-1.628c-1.085-1.084-1.628-2.384-1.628-3.896V21.499h-5.261c-1.447,0-2.68-0.509-3.699-1.528
		c-1.02-1.019-1.529-2.253-1.529-3.7H107.361z"/>
	<path fill="#FFFFFF" d="M168.869,25.1c1.085-1.086,2.384-1.628,3.896-1.628v18.71c-2.236,0-3.88-0.997-4.932-2.993
		c-2.39,1.995-5.174,2.993-8.352,2.993c-3.639,0-6.769-1.276-9.388-3.83s-3.929-5.65-3.929-9.29c0-3.639,1.31-6.746,3.929-9.322
		c2.619-2.576,5.749-3.864,9.388-3.864h7.76c0,1.447-0.51,2.679-1.528,3.699c-1.02,1.019-2.253,1.529-3.7,1.529h-2.532
		c-2.17,0-4.012,0.784-5.524,2.351c-1.514,1.567-2.269,3.436-2.269,5.606c0,2.17,0.755,4.028,2.269,5.573
		c1.512,1.546,3.353,2.319,5.524,2.319c2.17,0,4.006-0.778,5.508-2.335c1.501-1.556,2.252-3.43,2.252-5.622
		C167.241,27.485,167.783,26.185,168.869,25.1"/>
	<path fill="#FFFFFF" d="M198.643,42.183c-1.512,0-2.811-0.542-3.896-1.628c-1.086-1.085-1.628-2.384-1.628-3.897v-5.03h-12.265
		v10.555c-1.512,0-2.811-0.542-3.896-1.628c-1.086-1.085-1.629-2.384-1.629-3.897V15.877c1.514,0,2.812,0.542,3.898,1.627
		c1.085,1.085,1.627,2.384,1.627,3.896v5.032h12.265V15.877c1.534,0,2.838,0.537,3.912,1.61c1.074,1.075,1.611,2.379,1.611,3.913
		V42.183z"/>
	<path fill="#FFFFFF" d="M222.45,36.954v-7.892c0-2.17-0.753-4.039-2.258-5.607c-1.505-1.567-3.345-2.351-5.52-2.351
		c-2.175,0-4.015,0.784-5.52,2.351c-1.505,1.568-2.256,3.436-2.256,5.607c0,2.17,0.751,4.028,2.256,5.573
		c1.505,1.546,3.345,2.318,5.52,2.318H222.45z M228.04,29.062v13.12H214.69c-3.64,0-6.77-1.276-9.388-3.83
		c-2.62-2.554-3.93-5.65-3.93-9.29c0-3.639,1.31-6.746,3.93-9.322c2.618-2.576,5.749-3.864,9.388-3.864
		c3.638,0,6.773,1.288,9.404,3.864C226.724,22.316,228.04,25.424,228.04,29.062"/>
	<path fill="#FFFFFF" d="M257.206,29.062v13.12c-1.512,0-2.811-0.542-3.896-1.628c-1.086-1.085-1.628-2.384-1.628-3.897v-7.596
		c0-2.17-0.751-4.039-2.252-5.607c-1.502-1.567-3.338-2.351-5.508-2.351c-2.17,0-4.012,0.784-5.524,2.351
		c-1.514,1.568-2.269,3.436-2.269,5.607v7.596c0,1.536-0.538,2.84-1.611,3.913c-1.074,1.074-2.38,1.611-3.913,1.611v-13.12
		c0-3.639,1.309-6.746,3.929-9.322c2.62-2.576,5.75-3.864,9.389-3.864c2.06,0,4.012,0.455,5.853,1.365
		c1.842,0.909,3.408,2.176,4.701,3.798c1.251-1.6,2.806-2.861,4.67-3.782c1.863-0.92,3.814-1.38,5.852-1.38
		c3.66,0,6.791,1.282,9.388,3.847c2.597,2.564,3.897,5.678,3.897,9.339v13.12c-1.513,0-2.811-0.542-3.897-1.628
		c-1.086-1.085-1.628-2.384-1.628-3.897v-7.596c0-2.17-0.751-4.039-2.252-5.607c-1.503-1.567-3.338-2.351-5.508-2.351
		c-2.17,0-4.011,0.784-5.525,2.351C257.963,25.024,257.206,26.892,257.206,29.062"/>
	<path fill="#9C9B9B" d="M114.267,42.183c-1.513,0-2.812-0.542-3.897-1.628c-1.085-1.085-1.628-2.384-1.628-3.897V15.877
		c1.513,0,2.812,0.542,3.897,1.627c1.085,1.085,1.628,2.384,1.628,3.896V42.183z"/>
	<path fill="#9C9B9B" d="M138.074,29.062c0-2.148-0.757-4.012-2.269-5.59c-1.513-1.578-3.343-2.367-5.491-2.367
		c-2.17,0-4.012,0.784-5.524,2.351c-1.513,1.568-2.269,3.436-2.269,5.607v7.596c0,1.513-0.543,2.812-1.628,3.897
		c-1.085,1.086-2.384,1.628-3.897,1.628v-13.12c0-3.639,1.304-6.746,3.913-9.322c2.608-2.576,5.743-3.864,9.404-3.864
		c3.638,0,6.762,1.288,9.371,3.864c2.609,2.575,3.913,5.683,3.913,9.322v13.12c-1.512,0-2.811-0.542-3.897-1.628
		c-1.085-1.085-1.628-2.384-1.628-3.897V29.062z"/>
	<path fill="#9C9B9B" d="M112.185,14.337c-0.824,0-1.532-0.296-2.124-0.887c-0.591-0.592-0.887-1.3-0.887-2.124V0
		c0.825,0,1.533,0.295,2.124,0.887c0.591,0.591,0.887,1.299,0.887,2.124V14.337z"/>
	<path fill="#9C9B9B" d="M128.117,0.214c0,0.789-0.278,1.462-0.833,2.017s-1.227,0.833-2.016,0.833H122.4v11.273
		c-0.824,0-1.532-0.296-2.124-0.887c-0.591-0.592-0.887-1.3-0.887-2.124V3.064h-2.868c-0.788,0-1.46-0.278-2.016-0.833
		c-0.556-0.555-0.833-1.228-0.833-2.017H128.117z"/>
	<path fill="#9C9B9B" d="M130.106,0.382h2.329v0.779c0,0.74-0.164,1.422-0.493,2.045c-0.329,0.623-0.776,1.162-1.343,1.617
		l-1.747-1.364V3.42c0.388-0.259,0.694-0.588,0.918-0.983c0.224-0.396,0.336-0.821,0.336-1.276V0.382z"/>
	<path fill="#9C9B9B" d="M133.758,14.428v-2.502h5.111c1.785,0,2.031-0.77,2.031-1.413c0-0.9-1.413-1.568-2.909-2.183
		c-2.088-0.859-4.456-1.974-4.456-4.322c0-2.199,1.741-3.761,4.435-3.761h4.965V2.75h-5.237c-0.622,0-1.362,0.254-1.362,1.157
		c0,0.747,1.33,1.324,2.739,1.901c2.062,0.844,4.627,2.119,4.627,4.577c0,2.355-1.715,4.043-4.476,4.043H133.758z"/>
</g>
</svg>
