<?xml version="1.0" encoding="utf-8"?>
<!-- Generator: Adobe Illustrator 17.0.0, SVG Export Plug-In . SVG Version: 6.00 Build 0)  -->
<!DOCTYPE svg PUBLIC "-//W3C//DTD SVG 1.1//EN" "http://www.w3.org/Graphics/SVG/1.1/DTD/svg11.dtd">
<svg version="1.1" id="Layer_1" xmlns="http://www.w3.org/2000/svg" xmlns:xlink="http://www.w3.org/1999/xlink" x="0px" y="0px"
	 width="605.226px" height="451.268px" viewBox="196.667 0 605.226 451.268" enable-background="new 196.667 0 605.226 451.268"
	 xml:space="preserve">
<path opacity="0.75" fill="#63328A" enable-background="new    " d="M488.527,0c-124.816,0-226,101.02-226,225.634
	s101.184,225.634,226,225.634s226-101.02,226-225.634S613.344,0,488.527,0z M440.804,317.205V137.034l118.713,90.086
	L440.804,317.205z"/>
<g>
	
		<image overflow="visible" opacity="0.75" width="625" height="78" xlink:href="9BF7B4B01B6A2C11.png"  transform="matrix(1 0 0 1 186.7795 186.1335)">
	</image>
	<g>
		<g>
			<path fill="#FFFFFF" d="M222.552,195.946h8.286l6.866,19.02l6.945-19.02h8.365l-9.628,24.939l8.444,20.598l17.441-45.773h9.628
				l-23.044,56.033h-7.655l-10.417-25.096l-10.496,25.096h-7.576l-23.044-56.033h9.549l17.599,45.773l8.286-20.598L222.552,195.946z
				"/>
			<path fill="#FFFFFF" d="M291.294,252.531c-1.999,0-3.854-0.332-5.564-0.986c-1.71-0.658-3.183-1.568-4.419-2.723
				c-1.236-1.161-2.21-2.529-2.92-4.104c-0.71-1.578-1.065-3.288-1.065-5.133c0-1.947,0.421-3.709,1.263-5.284
				c0.839-1.578,2.039-2.946,3.591-4.104c1.552-1.157,3.394-2.052,5.524-2.683c2.131-0.628,4.485-0.947,7.063-0.947
				c1.947,0,3.867,0.174,5.761,0.513c1.894,0.342,3.604,0.802,5.13,1.381v-2.841c0-3.052-0.868-5.429-2.604-7.142
				c-1.736-1.71-4.235-2.565-7.497-2.565c-2.21,0-4.38,0.411-6.511,1.223c-2.131,0.819-4.327,1.986-6.59,3.512l-2.683-5.524
				c5.314-3.578,10.838-5.366,16.573-5.366c5.682,0,10.102,1.444,13.258,4.337c3.157,2.894,4.735,7.053,4.735,12.469v14.916
				c0,1.003,0.184,1.713,0.552,2.131c0.365,0.421,1,0.658,1.894,0.71v7.418c-0.842,0.158-1.618,0.263-2.328,0.316
				c-0.71,0.053-1.355,0.079-1.934,0.079c-1.684-0.105-2.959-0.552-3.828-1.342c-0.868-0.789-1.407-1.841-1.618-3.157l-0.237-2.604
				c-1.841,2.42-4.117,4.275-6.826,5.564C297.302,251.886,294.395,252.531,291.294,252.531z M293.662,246.138
				c2.105,0,4.091-0.381,5.958-1.144c1.864-0.763,3.328-1.828,4.38-3.199c1.105-0.944,1.657-1.947,1.657-2.996v-5.445
				c-1.473-0.579-3.038-1.026-4.696-1.342c-1.657-0.316-3.275-0.474-4.854-0.474c-3.104,0-5.643,0.668-7.616,2.009
				s-2.959,3.117-2.959,5.327c0,2.052,0.763,3.775,2.289,5.169S291.294,246.138,293.662,246.138z"/>
			<path fill="#FFFFFF" d="M347.403,249.607c-1.157,0.526-2.696,1.121-4.617,1.776c-1.92,0.658-4.012,0.99-6.274,0.99
				c-1.368,0-2.644-0.187-3.828-0.552c-1.184-0.368-2.236-0.921-3.157-1.661c-0.921-0.737-1.644-1.697-2.17-2.881
				c-0.526-1.181-0.789-2.614-0.789-4.301v-25.807h-5.524v-6.708h5.524v-13.574h8.681v13.574h8.997v6.708h-8.997v23.044
				c0,1.473,0.421,2.539,1.263,3.196c0.842,0.658,1.868,0.986,3.078,0.986c1.21,0,2.368-0.207,3.472-0.628
				c1.105-0.421,1.92-0.76,2.446-1.026L347.403,249.607z"/>
			<path fill="#FFFFFF" d="M350.48,231.065c0-2.894,0.5-5.63,1.499-8.208c1-2.575,2.433-4.84,4.301-6.784
				c1.864-1.947,4.114-3.489,6.748-4.617c2.631-1.131,5.577-1.697,8.839-1.697c4.262,0,7.931,0.934,11.009,2.802
				s5.38,4.354,6.905,7.458l-8.444,2.683c-1-1.736-2.341-3.088-4.025-4.064c-1.687-0.973-3.551-1.457-5.603-1.457
				c-1.736,0-3.354,0.342-4.854,1.026c-1.5,0.684-2.802,1.644-3.906,2.881c-1.105,1.236-1.973,2.696-2.604,4.38
				c-0.631,1.687-0.947,3.551-0.947,5.603c0,1.999,0.329,3.854,0.986,5.564c0.658,1.71,1.552,3.196,2.683,4.456
				c1.131,1.263,2.446,2.252,3.946,2.959c1.5,0.707,3.091,1.065,4.775,1.065c1.052,0,2.105-0.145,3.157-0.437
				c1.052-0.286,2.012-0.697,2.881-1.22c0.868-0.526,1.631-1.134,2.289-1.818c0.658-0.681,1.144-1.421,1.46-2.21l8.523,2.529
				c-1.368,3.101-3.657,5.643-6.866,7.612c-3.209,1.976-6.997,2.959-11.364,2.959c-3.209,0-6.129-0.582-8.76-1.736
				c-2.631-1.157-4.88-2.723-6.748-4.696c-1.868-1.976-3.315-4.248-4.341-6.826S350.48,233.958,350.48,231.065z"/>
			<path fill="#FFFFFF" d="M434.211,251.742h-8.681v-23.123c0-3.785-0.684-6.59-2.052-8.405c-1.368-1.815-3.315-2.723-5.84-2.723
				c-1.157,0-2.341,0.237-3.551,0.71c-1.21,0.477-2.354,1.148-3.433,2.012c-1.079,0.865-2.052,1.894-2.92,3.078
				c-0.868,1.184-1.513,2.486-1.934,3.906v24.544h-8.681V194.13h8.681v24.62c1.631-2.841,3.801-5.051,6.511-6.629
				c2.71-1.578,5.669-2.368,8.878-2.368c2.525,0,4.63,0.46,6.314,1.381c1.684,0.917,3.025,2.141,4.025,3.666
				c1,1.529,1.697,3.305,2.091,5.327c0.395,2.026,0.592,4.173,0.592,6.432V251.742z"/>
			<path fill="#FFFFFF" d="M486.455,249.607c-1.157,0.526-2.693,1.121-4.614,1.776c-1.924,0.658-4.015,0.99-6.274,0.99
				c-1.368,0-2.644-0.187-3.828-0.552c-1.184-0.368-2.239-0.921-3.157-1.661c-0.921-0.737-1.644-1.697-2.17-2.881
				c-0.526-1.181-0.789-2.614-0.789-4.301v-25.807H460.1v-6.708h5.524v-13.574h8.684v13.574h8.993v6.708h-8.993v23.044
				c0,1.473,0.421,2.539,1.263,3.196c0.842,0.658,1.864,0.986,3.078,0.986s2.371-0.207,3.476-0.628
				c1.105-0.421,1.92-0.76,2.446-1.026L486.455,249.607z"/>
			<path fill="#FFFFFF" d="M529.154,251.742h-8.684v-23.123c0-3.785-0.684-6.59-2.052-8.405c-1.368-1.815-3.315-2.723-5.837-2.723
				c-1.161,0-2.341,0.237-3.551,0.71c-1.21,0.477-2.354,1.148-3.433,2.012c-1.079,0.865-2.052,1.894-2.92,3.078
				c-0.871,1.184-1.516,2.486-1.937,3.906v24.544h-8.681V194.13h8.681v24.62c1.631-2.841,3.801-5.051,6.511-6.629
				c2.71-1.578,5.669-2.368,8.879-2.368c2.525,0,4.627,0.46,6.314,1.381c1.684,0.917,3.025,2.141,4.025,3.666
				c1,1.529,1.7,3.305,2.095,5.327c0.391,2.026,0.592,4.173,0.592,6.432L529.154,251.742L529.154,251.742z"/>
			<path fill="#FFFFFF" d="M557.798,252.531c-3.213,0-6.129-0.566-8.76-1.7c-2.634-1.131-4.88-2.67-6.748-4.614
				c-1.868-1.947-3.318-4.209-4.341-6.787c-1.026-2.575-1.539-5.314-1.539-8.208c0-2.894,0.51-5.643,1.539-8.247
				c1.026-2.604,2.473-4.893,4.341-6.866c1.864-1.973,4.114-3.525,6.748-4.656c2.631-1.131,5.574-1.697,8.839-1.697
				c3.213,0,6.116,0.579,8.721,1.733c2.604,1.161,4.827,2.696,6.669,4.617c1.841,1.92,3.246,4.156,4.219,6.708
				c0.973,2.552,1.46,5.222,1.46,8.01c0,0.631-0.026,1.223-0.076,1.776c-0.056,0.552-0.105,1.016-0.161,1.381h-33.067
				c0.158,1.845,0.592,3.499,1.302,4.975c0.71,1.473,1.628,2.749,2.762,3.828c1.131,1.079,2.417,1.907,3.867,2.486
				c1.444,0.579,2.959,0.868,4.538,0.868c1.157,0,2.302-0.145,3.433-0.434c1.131-0.289,2.17-0.71,3.117-1.263
				s1.789-1.223,2.525-2.012c0.74-0.789,1.315-1.657,1.736-2.604l7.418,2.131c-1.421,3.101-3.775,5.643-7.06,7.612
				C565.993,251.544,562.169,252.531,557.798,252.531z M570.347,227.987c-0.158-1.736-0.592-3.344-1.302-4.817
				c-0.71-1.47-1.618-2.719-2.723-3.749c-1.105-1.026-2.397-1.828-3.867-2.404c-1.473-0.582-3.029-0.871-4.656-0.871
				c-1.631,0-3.17,0.289-4.617,0.871c-1.447,0.579-2.723,1.381-3.828,2.404c-1.105,1.026-1.999,2.275-2.68,3.749
				c-0.687,1.473-1.108,3.081-1.266,4.817H570.347z"/>
			<path fill="#FFFFFF" d="M614.62,251.742l-15.784-41.275h8.997l11.756,33.932l11.917-33.932h8.208l-15.784,41.275H614.62z"/>
			<path fill="#FFFFFF" d="M645.633,203.68v-9.546h8.681v9.546H645.633z M645.633,251.742v-41.275h8.681v41.275H645.633z"/>
			<path fill="#FFFFFF" d="M681.623,252.531c-2.841,0-5.458-0.566-7.856-1.7c-2.394-1.131-4.456-2.67-6.195-4.614
				c-1.74-1.943-3.091-4.209-4.064-6.787c-0.973-2.575-1.457-5.34-1.457-8.286c0-2.946,0.46-5.722,1.381-8.326
				c0.917-2.604,2.197-4.863,3.828-6.787c1.628-1.92,3.591-3.446,5.88-4.577c2.285-1.131,4.775-1.697,7.458-1.697
				c3.209,0,6.077,0.786,8.602,2.368c2.525,1.575,4.498,3.63,5.919,6.156v-24.149h8.681v47.348c0,1.789,0.842,2.736,2.529,2.841
				v7.418c-0.894,0.158-1.687,0.263-2.367,0.316c-0.687,0.053-1.315,0.079-1.894,0.079c-3.262-0.316-5.107-1.815-5.528-4.498
				l-0.158-3.394c-1.575,2.683-3.683,4.735-6.313,6.156C687.433,251.821,684.619,252.531,681.623,252.531z M683.833,245.112
				c1.105,0,2.262-0.21,3.473-0.631c1.21-0.421,2.341-1,3.393-1.736c1.049-0.737,1.973-1.601,2.762-2.604
				c0.789-1,1.342-2.078,1.657-3.232v-10.812c-0.473-1.263-1.131-2.433-1.973-3.512c-0.845-1.075-1.805-2.022-2.88-2.841
				c-1.079-0.812-2.226-1.444-3.433-1.891c-1.21-0.447-2.42-0.671-3.63-0.671c-1.845,0-3.512,0.395-5.008,1.181
				c-1.499,0.789-2.792,1.845-3.87,3.157c-1.079,1.315-1.907,2.828-2.486,4.541c-0.579,1.71-0.868,3.459-0.868,5.248
				c0,1.894,0.329,3.683,0.986,5.366c0.658,1.687,1.552,3.144,2.683,4.38c1.131,1.236,2.486,2.223,4.061,2.959
				C680.281,244.744,681.988,245.112,683.833,245.112z"/>
			<path fill="#FFFFFF" d="M733.864,252.531c-3.213,0-6.129-0.566-8.76-1.7c-2.634-1.131-4.88-2.67-6.748-4.614
				c-1.868-1.947-3.318-4.209-4.341-6.787c-1.026-2.575-1.539-5.314-1.539-8.208c0-2.894,0.51-5.643,1.539-8.247
				c1.026-2.604,2.473-4.893,4.341-6.866c1.865-1.973,4.114-3.525,6.748-4.656c2.631-1.131,5.574-1.697,8.839-1.697
				c3.213,0,6.116,0.579,8.721,1.733c2.604,1.161,4.827,2.696,6.669,4.617c1.841,1.92,3.246,4.156,4.219,6.708
				c0.973,2.552,1.46,5.222,1.46,8.01c0,0.631-0.026,1.223-0.076,1.776c-0.056,0.552-0.105,1.016-0.161,1.381h-33.067
				c0.158,1.845,0.592,3.499,1.302,4.975c0.71,1.473,1.628,2.749,2.762,3.828c1.131,1.079,2.417,1.907,3.867,2.486
				c1.444,0.579,2.96,0.868,4.538,0.868c1.157,0,2.302-0.145,3.433-0.434c1.131-0.289,2.17-0.71,3.117-1.263
				c0.947-0.552,1.789-1.223,2.525-2.012c0.74-0.789,1.315-1.657,1.736-2.604l7.418,2.131c-1.421,3.101-3.775,5.643-7.06,7.612
				C742.059,251.544,738.234,252.531,733.864,252.531z M746.412,227.987c-0.158-1.736-0.592-3.344-1.302-4.817
				c-0.71-1.47-1.618-2.719-2.723-3.749c-1.105-1.026-2.397-1.828-3.867-2.404c-1.473-0.582-3.029-0.871-4.656-0.871
				c-1.631,0-3.17,0.289-4.617,0.871c-1.447,0.579-2.723,1.381-3.828,2.404c-1.105,1.026-1.999,2.275-2.68,3.749
				c-0.687,1.473-1.108,3.081-1.266,4.817H746.412z"/>
			<path fill="#FFFFFF" d="M780.663,252.531c-3.262,0-6.195-0.582-8.8-1.736c-2.604-1.154-4.827-2.71-6.669-4.656
				c-1.841-1.947-3.262-4.222-4.262-6.826c-1-2.604-1.499-5.327-1.499-8.165c0-2.841,0.5-5.564,1.499-8.168s2.433-4.877,4.304-6.826
				c1.865-1.947,4.101-3.495,6.705-4.656c2.604-1.157,5.514-1.733,8.721-1.733c3.206,0,6.116,0.579,8.72,1.733
				c2.604,1.161,4.84,2.71,6.708,4.656c1.865,1.95,3.302,4.222,4.301,6.826s1.499,5.327,1.499,8.168c0,2.838-0.5,5.561-1.499,8.165
				c-1,2.604-2.433,4.88-4.301,6.826c-1.868,1.947-4.104,3.499-6.708,4.656C786.779,251.952,783.87,252.531,780.663,252.531z
				 M768.352,231.223c0,1.999,0.319,3.841,0.947,5.528c0.631,1.684,1.499,3.144,2.604,4.38c1.105,1.236,2.407,2.21,3.906,2.92
				s3.114,1.065,4.854,1.065s3.357-0.355,4.857-1.065c1.496-0.71,2.802-1.7,3.906-2.959c1.105-1.259,1.973-2.733,2.604-4.419
				c0.631-1.684,0.947-3.522,0.947-5.524c0-1.947-0.316-3.775-0.947-5.485c-0.631-1.713-1.499-3.199-2.604-4.459
				c-1.105-1.259-2.407-2.249-3.906-2.959c-1.499-0.71-3.117-1.062-4.857-1.062c-1.684,0-3.275,0.368-4.775,1.105
				s-2.802,1.733-3.906,2.999c-1.105,1.263-1.986,2.749-2.647,4.456C768.678,227.448,768.352,229.276,768.352,231.223z"/>
		</g>
	</g>
</g>
</svg>
